<svg width="1440" height="151" viewBox="0 0 1440 151" fill="none" xmlns="http://www.w3.org/2000/svg">
<path opacity="0.5" d="M-0.699999 146H-3.7V149H-0.699999V146ZM-0.699999 3.19999V0.19999H-3.7V3.19999H-0.699999ZM108.44 12.992L106.727 15.4547L106.747 15.4689L106.768 15.4827L108.44 12.992ZM109.46 67.664L111.242 70.0773L111.254 70.0685L111.266 70.0596L109.46 67.664ZM73.964 77.456L71.2035 76.2813L69.4271 80.456H73.964V77.456ZM78.044 67.868V64.868H76.0603L75.2835 66.6933L78.044 67.868ZM115.58 77.456L113.84 79.8997L113.861 79.9146L113.882 79.9292L115.58 77.456ZM114.56 134.984L112.76 132.584L112.752 132.59L112.744 132.596L114.56 134.984ZM39.08 117.032H36.08V120.032H39.08V117.032ZM83.96 113.36L85.9124 115.638L85.9209 115.63L83.96 113.36ZM83.96 91.328L82.0076 93.6058L82.0654 93.6553L82.1257 93.7019L83.96 91.328ZM39.08 87.656V84.656H36.08V87.656H39.08ZM39.08 60.32H36.08V63.32H39.08V60.32ZM77.636 56.852L79.5236 59.1837L79.5564 59.1572L79.5884 59.1298L77.636 56.852ZM77.636 35.84L75.6836 38.1178L75.7156 38.1452L75.7484 38.1717L77.636 35.84ZM39.08 32.168V29.168H36.08V32.168H39.08ZM2.3 146L2.3 3.19999H-3.7L-3.7 146H2.3ZM-0.699999 6.19999H68.66V0.19999H-0.699999V6.19999ZM68.66 6.19999C85.4716 6.19999 98.0393 9.41121 106.727 15.4547L110.153 10.5293C100.073 3.51678 86.1204 0.19999 68.66 0.19999V6.19999ZM106.768 15.4827C115.427 21.2965 119.72 29.4574 119.72 40.328H125.72C125.72 27.5346 120.493 17.4715 110.112 10.5013L106.768 15.4827ZM119.72 40.328C119.72 50.995 115.704 59.2 107.654 65.2684L111.266 70.0596C120.896 62.8 125.72 52.781 125.72 40.328H119.72ZM107.678 65.2507C99.5071 71.2845 88.3675 74.456 73.964 74.456V80.456C89.2085 80.456 101.733 77.0995 111.242 70.0773L107.678 65.2507ZM76.7245 78.6307L80.8045 69.0427L75.2835 66.6933L71.2035 76.2813L76.7245 78.6307ZM78.044 70.868C93.7403 70.868 105.556 74.0006 113.84 79.8997L117.32 75.0123C107.652 68.1274 94.4437 64.868 78.044 64.868V70.868ZM113.882 79.9292C122.082 85.5588 126.248 93.8242 126.248 105.2H132.248C132.248 92.0958 127.302 81.8652 117.278 74.9828L113.882 79.9292ZM126.248 105.2C126.248 116.792 121.777 125.821 112.76 132.584L116.36 137.384C126.927 129.459 132.248 118.632 132.248 105.2H126.248ZM112.744 132.596C103.817 139.385 90.5595 143 72.536 143V149C91.2325 149 105.991 145.271 116.376 137.372L112.744 132.596ZM72.536 143H-0.699999V149H72.536V143ZM39.08 120.032H70.904V114.032H39.08V120.032ZM70.904 120.032C77.0897 120.032 82.2815 118.75 85.9124 115.638L82.0076 111.082C79.9265 112.866 76.4143 114.032 70.904 114.032V120.032ZM85.9209 115.63C89.7262 112.344 91.448 107.682 91.448 102.14H85.448C85.448 106.39 84.1778 109.208 81.9991 111.09L85.9209 115.63ZM91.448 102.14C91.448 96.6135 89.7293 91.9948 85.7943 88.9541L82.1257 93.7019C84.1747 95.2852 85.448 97.8745 85.448 102.14H91.448ZM85.9124 89.0502C82.2815 85.938 77.0897 84.656 70.904 84.656V90.656C76.4143 90.656 79.9265 91.8219 82.0076 93.6058L85.9124 89.0502ZM70.904 84.656H39.08V90.656H70.904V84.656ZM36.08 87.656L36.08 117.032H42.08L42.08 87.656H36.08ZM39.08 63.32H64.784V57.32H39.08V63.32ZM64.784 63.32C70.8228 63.32 75.9082 62.1105 79.5236 59.1837L75.7484 54.5203C73.6518 56.2175 70.1692 57.32 64.784 57.32V63.32ZM79.5884 59.1298C83.2591 55.9834 84.92 51.525 84.92 46.244H78.92C78.92 50.2109 77.7249 52.8246 75.6836 54.5742L79.5884 59.1298ZM84.92 46.244C84.92 40.9701 83.2602 36.5332 79.5236 33.5083L75.7484 38.1717C77.7238 39.7708 78.92 42.2699 78.92 46.244H84.92ZM79.5884 33.5622C75.968 30.4591 70.855 29.168 64.784 29.168V35.168C70.137 35.168 73.592 36.3249 75.6836 38.1178L79.5884 33.5622ZM64.784 29.168H39.08V35.168H64.784V29.168ZM36.08 32.168V60.32H42.08V32.168H36.08ZM198.232 146H195.232V149H198.232V146ZM198.232 3.19999V0.19999H195.232V3.19999H198.232ZM231.484 3.19999L234.048 1.64306L233.172 0.19999H231.484V3.19999ZM290.44 100.304V103.304H295.771L293.004 98.7471L290.44 100.304ZM272.896 100.304L270.317 98.7709L267.622 103.304H272.896V100.304ZM330.628 3.19999V0.19999H328.921L328.049 1.66687L330.628 3.19999ZM363.88 3.19999L366.88 3.19142L366.871 0.19999H363.88V3.19999ZM364.288 146V149H367.296L367.288 145.991L364.288 146ZM326.956 146L323.956 146.007L323.963 149H326.956V146ZM326.752 59.708V56.708H323.745L323.752 59.7151L326.752 59.708ZM333.076 59.708L335.653 61.244L338.356 56.708H333.076V59.708ZM290.032 131.924V134.924H291.736L292.609 133.46L290.032 131.924ZM272.08 131.924L269.522 133.492L270.4 134.924H272.08V131.924ZM227.812 59.708V56.708H222.454L225.254 61.2759L227.812 59.708ZM235.36 59.708H238.36V56.708H235.36V59.708ZM235.36 146V149H238.36V146H235.36ZM201.232 146V3.19999H195.232V146H201.232ZM198.232 6.19999H231.484V0.19999H198.232V6.19999ZM228.92 4.75692L287.876 101.861L293.004 98.7471L234.048 1.64306L228.92 4.75692ZM290.44 97.304H272.896V103.304H290.44V97.304ZM275.475 101.837L333.207 4.73311L328.049 1.66687L270.317 98.7709L275.475 101.837ZM330.628 6.19999H363.88V0.19999H330.628V6.19999ZM360.88 3.20856L361.288 146.009L367.288 145.991L366.88 3.19142L360.88 3.20856ZM364.288 143H326.956V149H364.288V143ZM329.956 145.993L329.752 59.7009L323.752 59.7151L323.956 146.007L329.956 145.993ZM326.752 62.708H333.076V56.708H326.752V62.708ZM330.499 58.172L287.455 130.388L292.609 133.46L335.653 61.244L330.499 58.172ZM290.032 128.924H272.08V134.924H290.032V128.924ZM274.638 130.356L230.37 58.1401L225.254 61.2759L269.522 133.492L274.638 130.356ZM227.812 62.708H235.36V56.708H227.812V62.708ZM232.36 59.708V146H238.36V59.708H232.36ZM235.36 143H198.232V149H235.36V143ZM388.542 146H385.542V149H388.542V146ZM388.542 3.19999V0.19999H385.542V3.19999H388.542ZM493.194 3.19999L496.194 3.2191L496.213 0.19999H493.194V3.19999ZM492.99 35.228V38.228H495.971L495.99 35.2471L492.99 35.228ZM419.346 35.228L417.224 33.1067L412.103 38.228H419.346V35.228ZM428.322 26.252H431.322V19.0094L426.2 24.1307L428.322 26.252ZM428.322 146V149H431.322V146H428.322ZM391.542 146V3.19999H385.542V146H391.542ZM388.542 6.19999H493.194V0.19999H388.542V6.19999ZM490.194 3.18088L489.99 35.2089L495.99 35.2471L496.194 3.2191L490.194 3.18088ZM492.99 32.228H419.346V38.228H492.99V32.228ZM421.467 37.3493L430.443 28.3733L426.2 24.1307L417.224 33.1067L421.467 37.3493ZM425.322 26.252V146H431.322V26.252H425.322ZM428.322 143H388.542V149H428.322V143ZM513.3 113.972L514.131 111.089L511.336 110.284L510.445 113.053L513.3 113.972ZM532.884 116.216L533.365 119.177L533.396 119.172L533.428 119.166L532.884 116.216ZM546.552 106.016L544.072 104.329L544.065 104.339L546.552 106.016ZM553.488 95.816L551.253 93.8156L551.12 93.9642L551.008 94.1291L553.488 95.816ZM556.956 91.94L559.192 93.9404L559.459 93.642L559.638 93.2841L556.956 91.94ZM601.428 3.19999V0.19999H599.576L598.746 1.85588L601.428 3.19999ZM640.8 3.19999L643.444 4.61733L645.812 0.19999H640.8V3.19999ZM581.64 113.564L584.283 114.984L584.284 114.981L581.64 113.564ZM560.628 138.86L558.854 136.441L558.844 136.448L558.835 136.455L560.628 138.86ZM534.108 149.06L533.856 146.071L533.856 146.071L534.108 149.06ZM503.712 143.756L500.857 142.837L500.006 145.478L502.574 146.532L503.712 143.756ZM556.344 124.376L553.703 125.799L555.896 129.869L558.72 126.208L556.344 124.376ZM491.064 3.19999V0.19999H486.041L488.423 4.62282L491.064 3.19999ZM533.7 3.19999L536.402 1.89658L535.584 0.19999H533.7V3.19999ZM578.376 95.816L580.752 97.6484L581.883 96.1814L581.078 94.5126L578.376 95.816ZM512.47 116.855C520.68 119.22 527.702 120.095 533.365 119.177L532.404 113.255C528.002 113.969 521.968 113.348 514.131 111.089L512.47 116.855ZM533.428 119.166C539.631 118.024 544.804 113.973 549.04 107.693L544.065 104.339C540.412 109.755 536.474 112.504 532.341 113.266L533.428 119.166ZM549.033 107.703L555.969 97.5029L551.008 94.1291L544.072 104.329L549.033 107.703ZM555.724 97.8164L559.192 93.9404L554.721 89.9396L551.253 93.8156L555.724 97.8164ZM559.638 93.2841L604.11 4.5441L598.746 1.85588L554.274 90.5959L559.638 93.2841ZM601.428 6.19999L640.8 6.19999V0.19999L601.428 0.19999V6.19999ZM638.156 1.78265L578.996 112.147L584.284 114.981L643.444 4.61733L638.156 1.78265ZM578.998 112.144C573.316 122.715 566.583 130.773 558.854 136.441L562.402 141.279C570.993 134.979 578.269 126.173 584.283 114.984L578.998 112.144ZM558.835 136.455C551.244 142.116 542.935 145.303 533.856 146.071L534.361 152.049C544.594 151.185 553.964 147.572 562.422 141.265L558.835 136.455ZM533.856 146.071C524.753 146.84 515.099 145.185 504.851 140.98L502.574 146.532C513.542 151.031 524.151 152.912 534.361 152.049L533.856 146.071ZM506.568 144.675L516.156 114.891L510.445 113.053L500.857 142.837L506.568 144.675ZM558.985 122.953L493.705 1.77716L488.423 4.62282L553.703 125.799L558.985 122.953ZM491.064 6.19999H533.7V0.19999H491.064V6.19999ZM530.998 4.50341L575.674 97.1194L581.078 94.5126L536.402 1.89658L530.998 4.50341ZM576.001 93.9836L553.969 122.544L558.72 126.208L580.752 97.6484L576.001 93.9836ZM742.021 143.552L740.941 146.351L740.965 146.36L740.989 146.369L742.021 143.552ZM717.133 128.048L715.055 130.211L715.065 130.221L715.076 130.231L717.133 128.048ZM700.813 104.588L698.06 105.78L698.063 105.787L698.066 105.795L700.813 104.588ZM700.813 44.816L703.56 46.0228L703.563 46.0152L703.566 46.0077L700.813 44.816ZM717.133 21.152L715.076 18.9686L715.065 18.9786L715.055 18.9887L717.133 21.152ZM742.021 5.85199L743.066 8.66427L743.076 8.66022L743.087 8.65608L742.021 5.85199ZM808.729 7.28L807.504 10.0185L807.511 10.0214L807.517 10.0244L808.729 7.28ZM834.841 27.272L836.854 29.4966L838.943 27.6061L837.187 25.4024L834.841 27.272ZM809.137 50.528L806.851 52.4709L808.855 54.8286L811.15 52.7526L809.137 50.528ZM793.837 38.084L792.443 40.7402L792.456 40.7472L792.469 40.7541L793.837 38.084ZM759.361 36.656L758.274 33.86L758.274 33.86L759.361 36.656ZM746.713 45.02L744.552 42.9391L744.551 42.9407L746.713 45.02ZM738.553 57.872L735.773 56.7449L735.76 56.7775L735.747 56.8103L738.553 57.872ZM738.553 91.328L735.747 92.3897L735.76 92.4225L735.773 92.4551L738.553 91.328ZM746.713 104.384L744.512 106.422L744.551 106.465L744.592 106.505L746.713 104.384ZM759.361 112.544L758.274 115.34L758.274 115.34L759.361 112.544ZM793.837 111.116L792.469 108.446L792.456 108.453L792.443 108.46L793.837 111.116ZM809.137 98.672L811.15 96.4474L808.855 94.3714L806.851 96.7291L809.137 98.672ZM834.841 121.928L837.173 123.816L838.959 121.609L836.854 119.703L834.841 121.928ZM808.729 141.92L809.954 144.658L809.962 144.655L809.97 144.651L808.729 141.92ZM773.437 145.856C762.467 145.856 752.347 144.139 743.053 140.735L740.989 146.369C751.007 150.037 761.831 151.856 773.437 151.856V145.856ZM743.101 140.753C733.925 137.214 725.965 132.249 719.19 125.865L715.076 130.231C722.445 137.175 731.077 142.546 740.941 146.351L743.101 140.753ZM719.211 125.885C712.564 119.498 707.349 112.005 703.56 103.381L698.066 105.795C702.165 115.123 707.83 123.27 715.055 130.211L719.211 125.885ZM703.566 103.396C699.8 94.6952 697.897 85.1096 697.897 74.6H691.897C691.897 85.8504 693.938 96.2568 698.06 105.78L703.566 103.396ZM697.897 74.6C697.897 64.0897 699.8 54.5786 703.56 46.0228L698.066 43.6092C693.938 53.0054 691.897 63.3503 691.897 74.6H697.897ZM703.566 46.0077C707.357 37.2491 712.572 29.6945 719.211 23.3153L715.055 18.9887C707.822 25.9375 702.157 34.1589 698.06 43.6243L703.566 46.0077ZM719.19 23.3354C725.957 16.959 733.905 12.0669 743.066 8.66427L740.976 3.03972C731.097 6.70906 722.453 12.017 715.076 18.9686L719.19 23.3354ZM743.087 8.65608C752.373 5.1251 762.48 3.34399 773.437 3.34399V-2.65601C761.818 -2.65601 750.981 -0.765122 740.955 3.0479L743.087 8.65608ZM773.437 3.34399C786.276 3.34399 797.612 5.59301 807.504 10.0185L809.954 4.54154C799.174 -0.281026 786.982 -2.65601 773.437 -2.65601V3.34399ZM807.517 10.0244C817.559 14.4585 825.87 20.8276 832.495 29.1416L837.187 25.4024C829.94 16.3084 820.843 9.34954 809.941 4.53563L807.517 10.0244ZM832.828 25.0474L807.124 48.3034L811.15 52.7526L836.854 29.4966L832.828 25.0474ZM811.423 48.5851C806.579 42.8864 801.177 38.4729 795.205 35.4139L792.469 40.7541C797.649 43.407 802.447 47.2896 806.851 52.4709L811.423 48.5851ZM795.232 35.4278C789.317 32.3227 782.71 30.8 775.477 30.8V36.8C781.844 36.8 787.477 38.1333 792.443 40.7402L795.232 35.4278ZM775.477 30.8C769.299 30.8 763.553 31.8067 758.274 33.86L760.448 39.452C764.961 37.6973 769.959 36.8 775.477 36.8V30.8ZM758.274 33.86C752.985 35.9167 748.399 38.944 744.552 42.9391L748.874 47.1009C752.099 43.752 755.945 41.2033 760.448 39.452L758.274 33.86ZM744.551 42.9407C740.859 46.7798 737.941 51.3969 735.773 56.7449L741.333 58.9991C743.245 54.2831 745.767 50.3321 748.876 47.0993L744.551 42.9407ZM735.747 56.8103C733.698 62.2249 732.697 68.1666 732.697 74.6H738.697C738.697 68.7933 739.6 63.5831 741.359 58.9337L735.747 56.8103ZM732.697 74.6C732.697 81.0333 733.698 86.9751 735.747 92.3897L741.359 90.2663C739.6 85.6169 738.697 80.4067 738.697 74.6H732.697ZM735.773 92.4551C737.937 97.7946 740.845 102.462 744.512 106.422L748.914 102.346C745.781 98.9618 743.249 94.9253 741.333 90.2009L735.773 92.4551ZM744.592 106.505C748.437 110.35 753.01 113.293 758.274 115.34L760.448 109.748C755.92 107.987 752.061 105.49 748.834 102.263L744.592 106.505ZM758.274 115.34C763.553 117.393 769.299 118.4 775.477 118.4V112.4C769.959 112.4 764.961 111.503 760.448 109.748L758.274 115.34ZM775.477 118.4C782.71 118.4 789.317 116.877 795.232 113.772L792.443 108.46C787.477 111.067 781.844 112.4 775.477 112.4V118.4ZM795.205 113.786C801.177 110.727 806.579 106.314 811.423 100.615L806.851 96.7291C802.447 101.91 797.649 105.793 792.469 108.446L795.205 113.786ZM807.124 100.897L832.828 124.153L836.854 119.703L811.15 96.4474L807.124 100.897ZM832.509 120.04C825.879 128.231 817.555 134.613 807.488 139.189L809.97 144.651C820.847 139.707 829.931 132.761 837.173 123.816L832.509 120.04ZM807.504 139.182C797.612 143.607 786.276 145.856 773.437 145.856V151.856C786.982 151.856 799.174 149.481 809.954 144.658L807.504 139.182ZM830.297 146L827.553 144.789L825.694 149H830.297V146ZM893.333 3.19999V0.19999H891.378L890.589 1.98849L893.333 3.19999ZM933.113 3.19999L935.856 1.98521L935.066 0.19999H933.113V3.19999ZM996.353 146V149H1000.96L999.096 144.785L996.353 146ZM954.329 146L951.545 147.117L952.301 149H954.329V146ZM904.961 22.988V19.988H900.525L902.177 24.1053L904.961 22.988ZM920.873 22.988L923.657 24.1053L925.31 19.988H920.873V22.988ZM871.505 146V149H873.534L874.289 147.117L871.505 146ZM864.773 118.256L861.941 117.267L860.547 121.256H864.773V118.256ZM875.177 88.472V85.472H873.047L872.345 87.4827L875.177 88.472ZM944.945 88.472L947.777 87.4827L947.075 85.472H944.945V88.472ZM955.349 118.256V121.256H959.575L958.181 117.267L955.349 118.256ZM833.042 147.211L896.078 4.41149L890.589 1.98849L827.553 144.789L833.042 147.211ZM893.333 6.19999H933.113V0.19999H893.333V6.19999ZM930.37 4.41477L993.61 147.215L999.096 144.785L935.856 1.98521L930.37 4.41477ZM996.353 143H954.329V149H996.353V143ZM957.113 144.883L907.745 21.8706L902.177 24.1053L951.545 147.117L957.113 144.883ZM904.961 25.988H920.873V19.988H904.961V25.988ZM918.089 21.8706L868.721 144.883L874.289 147.117L923.657 24.1053L918.089 21.8706ZM871.505 143H830.297V149H871.505V143ZM867.605 119.245L878.009 89.4613L872.345 87.4827L861.941 117.267L867.605 119.245ZM875.177 91.472H944.945V85.472H875.177V91.472ZM942.113 89.4613L952.517 119.245L958.181 117.267L947.777 87.4827L942.113 89.4613ZM955.349 115.256H864.773V121.256H955.349V115.256ZM1006.6 146H1003.6V149H1006.6V146ZM1006.6 3.19999V0.19999H1003.6V3.19999H1006.6ZM1105.54 9.52399L1104.31 12.2605L1104.32 12.2638L1104.32 12.267L1105.54 9.52399ZM1127.57 27.884L1125.05 29.5084L1125.05 29.5183L1125.06 29.5281L1127.57 27.884ZM1127.57 83.984L1125.06 82.3399L1125.06 82.3399L1127.57 83.984ZM1105.54 102.344L1106.77 105.081L1106.78 105.076L1106.79 105.072L1105.54 102.344ZM1029.04 108.668L1026.94 106.522L1021.68 111.668H1029.04V108.668ZM1046.99 91.124H1049.99V83.9975L1044.89 88.9784L1046.99 91.124ZM1046.99 146V149H1049.99V146H1046.99ZM1046.99 95.408L1044.83 97.4935L1049.99 102.826V95.408H1046.99ZM1029.04 76.844V73.844H1021.96L1026.88 78.9295L1029.04 76.844ZM1088.2 71.336L1086.23 69.0737L1086.21 69.0898L1086.19 69.1061L1088.2 71.336ZM1088.2 40.532L1086.19 42.7619L1086.21 42.7782L1086.23 42.7942L1088.2 40.532ZM1029.04 35.024L1026.88 32.9385L1021.96 38.024H1029.04V35.024ZM1046.99 16.46H1049.99V9.04215L1044.83 14.3745L1046.99 16.46ZM1009.6 146V3.19999H1003.6V146H1009.6ZM1006.6 6.19999H1071.88V0.19999H1006.6V6.19999ZM1071.88 6.19999C1084.62 6.19999 1095.4 8.25826 1104.31 12.2605L1106.77 6.78749C1096.91 2.35772 1085.25 0.19999 1071.88 0.19999V6.19999ZM1104.32 12.267C1113.36 16.2683 1120.23 22.0216 1125.05 29.5084L1130.09 26.2596C1124.58 17.6984 1116.76 11.2117 1106.75 6.78095L1104.32 12.267ZM1125.06 29.5281C1129.86 36.8558 1132.32 45.648 1132.32 56.036H1138.32C1138.32 44.664 1135.61 34.6882 1130.08 26.2399L1125.06 29.5281ZM1132.32 56.036C1132.32 66.2796 1129.87 75.0061 1125.06 82.3399L1130.08 85.6281C1135.61 77.1859 1138.32 67.2804 1138.32 56.036H1132.32ZM1125.06 82.3399C1120.24 89.7037 1113.35 95.4721 1104.29 99.6156L1106.79 105.072C1116.76 100.512 1124.57 94.0403 1130.08 85.6281L1125.06 82.3399ZM1104.31 99.6075C1095.4 103.61 1084.62 105.668 1071.88 105.668V111.668C1085.25 111.668 1096.91 109.51 1106.77 105.081L1104.31 99.6075ZM1071.88 105.668H1029.04V111.668H1071.88V105.668ZM1031.13 110.814L1049.09 93.2696L1044.89 88.9784L1026.94 106.522L1031.13 110.814ZM1043.99 91.124V146H1049.99V91.124H1043.99ZM1046.99 143H1006.6V149H1046.99V143ZM1049.15 93.3225L1031.19 74.7585L1026.88 78.9295L1044.83 97.4935L1049.15 93.3225ZM1029.04 79.844H1069.43V73.844H1029.04V79.844ZM1069.43 79.844C1078.22 79.844 1085.34 77.941 1090.2 73.5659L1086.19 69.1061C1082.89 72.075 1077.5 73.844 1069.43 73.844V79.844ZM1090.17 73.5982C1095.15 69.2589 1097.52 63.2709 1097.52 56.036H1091.52C1091.52 61.8571 1089.68 66.0691 1086.23 69.0737L1090.17 73.5982ZM1097.52 56.036C1097.52 48.6872 1095.16 42.6214 1090.17 38.2698L1086.23 42.7942C1089.66 45.7866 1091.52 50.0568 1091.52 56.036H1097.52ZM1090.2 38.3021C1085.34 33.927 1078.22 32.024 1069.43 32.024V38.024C1077.5 38.024 1082.89 39.793 1086.19 42.7619L1090.2 38.3021ZM1069.43 32.024H1029.04V38.024H1069.43V32.024ZM1031.19 37.1095L1049.15 18.5455L1044.83 14.3745L1026.88 32.9385L1031.19 37.1095ZM1043.99 16.46V95.408H1049.99V16.46H1043.99ZM1188.05 143.348L1186.98 146.152L1186.98 146.152L1188.05 143.348ZM1162.75 127.844L1160.67 130.006L1160.7 130.027L1160.72 130.047L1162.75 127.844ZM1146.23 104.18L1143.48 105.387L1143.48 105.387L1146.23 104.18ZM1162.75 21.56L1164.81 23.7434L1164.81 23.7422L1162.75 21.56ZM1188.05 5.85199L1186.98 3.0479L1186.98 3.0479L1188.05 5.85199ZM1251.29 5.85199L1250.21 8.651L1250.22 8.65355L1250.22 8.65608L1251.29 5.85199ZM1276.38 21.56L1274.3 23.7225L1274.31 23.733L1274.32 23.7434L1276.38 21.56ZM1292.91 45.02L1290.16 46.2268L1290.17 46.2442L1290.17 46.2614L1292.91 45.02ZM1292.91 104.384L1290.17 103.158L1290.16 103.168L1290.16 103.177L1292.91 104.384ZM1276.38 127.844L1278.44 130.027L1278.44 130.027L1276.38 127.844ZM1251.29 143.348L1250.22 140.544L1250.22 140.546L1250.21 140.549L1251.29 143.348ZM1234.77 112.544L1233.65 109.759L1233.64 109.764L1233.62 109.77L1234.77 112.544ZM1247.01 104.384L1244.84 102.303L1244.84 102.305L1247.01 104.384ZM1255.17 91.328L1252.39 90.2009L1252.37 90.2335L1252.36 90.2663L1255.17 91.328ZM1255.17 57.872L1252.36 58.9337L1252.38 58.9801L1252.4 59.0258L1255.17 57.872ZM1247.01 45.02L1244.8 47.0582L1244.84 47.1005L1244.88 47.1413L1247.01 45.02ZM1234.77 36.656L1233.62 39.43L1233.64 39.4358L1233.65 39.4414L1234.77 36.656ZM1204.37 36.656L1203.26 33.8706L1203.24 33.8762L1203.23 33.882L1204.37 36.656ZM1192.13 45.02L1189.97 42.9391L1189.97 42.9407L1192.13 45.02ZM1183.97 57.872L1181.19 56.7449L1181.18 56.7647L1181.17 56.7847L1183.97 57.872ZM1183.97 91.328L1181.16 92.3897L1181.18 92.4225L1181.19 92.4551L1183.97 91.328ZM1192.13 104.384L1189.93 106.422L1189.97 106.465L1190.01 106.505L1192.13 104.384ZM1204.37 112.544L1203.23 115.318L1203.24 115.324L1203.26 115.329L1204.37 112.544ZM1219.67 145.856C1208.57 145.856 1198.4 144.073 1189.12 140.544L1186.98 146.152C1197.01 149.967 1207.92 151.856 1219.67 151.856V145.856ZM1189.12 140.544C1179.8 137.001 1171.7 132.031 1164.79 125.641L1160.72 130.047C1168.22 136.985 1176.99 142.351 1186.98 146.152L1189.12 140.544ZM1164.83 125.682C1158.04 119.153 1152.76 111.59 1148.98 102.973L1143.48 105.387C1147.58 114.722 1153.32 122.935 1160.67 130.006L1164.83 125.682ZM1148.98 102.973C1145.21 94.4127 1143.31 84.9687 1143.31 74.6H1137.31C1137.31 85.7193 1139.36 95.9953 1143.48 105.387L1148.98 102.973ZM1143.31 74.6C1143.31 64.2313 1145.21 54.7873 1148.98 46.2268L1143.48 43.8132C1139.36 53.2047 1137.31 63.4807 1137.31 74.6H1143.31ZM1148.98 46.2268C1152.76 37.6159 1158.03 30.1288 1164.81 23.7434L1160.7 19.3766C1153.33 26.3192 1147.59 34.4721 1143.48 43.8132L1148.98 46.2268ZM1164.81 23.7422C1171.72 17.2241 1179.81 12.194 1189.12 8.65608L1186.98 3.0479C1176.97 6.85394 1168.2 12.2959 1160.69 19.3778L1164.81 23.7422ZM1189.12 8.65608C1198.4 5.12662 1208.57 3.34399 1219.67 3.34399V-2.65601C1207.92 -2.65601 1197.01 -0.766633 1186.98 3.0479L1189.12 8.65608ZM1219.67 3.34399C1230.91 3.34399 1241.08 5.12831 1250.21 8.651L1252.37 3.05299C1242.46 -0.768328 1231.55 -2.65601 1219.67 -2.65601V3.34399ZM1250.22 8.65608C1259.52 12.1923 1267.54 17.217 1274.3 23.7225L1278.46 19.3975C1271.08 12.3029 1262.37 6.85569 1252.36 3.0479L1250.22 8.65608ZM1274.32 23.7434C1281.1 30.1288 1286.38 37.6159 1290.16 46.2268L1295.65 43.8132C1291.55 34.4721 1285.81 26.3192 1278.44 19.3766L1274.32 23.7434ZM1290.17 46.2614C1294.06 54.8136 1296.03 64.2454 1296.03 74.6H1302.03C1302.03 63.4666 1299.91 53.1783 1295.64 43.7786L1290.17 46.2614ZM1296.03 74.6C1296.03 84.9541 1294.06 94.4604 1290.17 103.158L1295.64 105.61C1299.91 96.0836 1302.03 85.7339 1302.03 74.6H1296.03ZM1290.16 103.177C1286.38 111.788 1281.1 119.275 1274.32 125.661L1278.44 130.027C1285.81 123.085 1291.55 114.932 1295.65 105.591L1290.16 103.177ZM1274.32 125.661C1267.56 132.038 1259.53 137.003 1250.22 140.544L1252.36 146.152C1262.36 142.349 1271.06 136.978 1278.44 130.027L1274.32 125.661ZM1250.21 140.549C1241.08 144.072 1230.91 145.856 1219.67 145.856V151.856C1231.55 151.856 1242.46 149.968 1252.37 146.147L1250.21 140.549ZM1219.67 118.4C1225.47 118.4 1230.89 117.384 1235.91 115.318L1233.62 109.77C1229.39 111.512 1224.75 112.4 1219.67 112.4V118.4ZM1235.88 115.329C1241.02 113.274 1245.46 110.32 1249.17 106.463L1244.84 102.305C1241.75 105.52 1238.03 108.006 1233.65 109.759L1235.88 115.329ZM1249.17 106.465C1253 102.484 1255.93 97.7802 1257.97 92.3897L1252.36 90.2663C1250.59 94.9398 1248.08 98.9397 1244.84 102.303L1249.17 106.465ZM1257.95 92.4551C1260.15 87.0224 1261.23 81.0574 1261.23 74.6H1255.23C1255.23 80.3826 1254.26 85.5696 1252.39 90.2009L1257.95 92.4551ZM1261.23 74.6C1261.23 68.0179 1260.15 62.0392 1257.93 56.7182L1252.4 59.0258C1254.26 63.4968 1255.23 68.6701 1255.23 74.6H1261.23ZM1257.97 56.8103C1255.93 51.4112 1252.99 46.7577 1249.13 42.8987L1244.88 47.1413C1248.1 50.3543 1250.59 54.2688 1252.36 58.9337L1257.97 56.8103ZM1249.21 42.9818C1245.5 38.975 1241.04 35.9357 1235.88 33.8706L1233.65 39.4414C1238.01 41.1843 1241.71 43.721 1244.8 47.0582L1249.21 42.9818ZM1235.91 33.882C1230.89 31.8161 1225.47 30.8 1219.67 30.8V36.8C1224.75 36.8 1229.39 37.6879 1233.62 39.43L1235.91 33.882ZM1219.67 30.8C1213.87 30.8 1208.39 31.8163 1203.26 33.8706L1205.48 39.4414C1209.87 37.6877 1214.59 36.8 1219.67 36.8V30.8ZM1203.23 33.882C1198.21 35.9471 1193.79 38.974 1189.97 42.9391L1194.29 47.1009C1197.54 43.722 1201.28 41.1728 1205.51 39.43L1203.23 33.882ZM1189.97 42.9407C1186.28 46.7798 1183.36 51.3969 1181.19 56.7449L1186.75 58.9991C1188.66 54.2831 1191.18 50.3321 1194.29 47.0993L1189.97 42.9407ZM1181.17 56.7847C1179.11 62.0866 1178.11 68.0414 1178.11 74.6H1184.11C1184.11 68.6465 1185.02 63.4494 1186.77 58.9593L1181.17 56.7847ZM1178.11 74.6C1178.11 81.0333 1179.11 86.9751 1181.16 92.3897L1186.78 90.2663C1185.02 85.6169 1184.11 80.4066 1184.11 74.6H1178.11ZM1181.19 92.4551C1183.35 97.7946 1186.26 102.462 1189.93 106.422L1194.33 102.346C1191.2 98.9618 1188.67 94.9253 1186.75 90.2009L1181.19 92.4551ZM1190.01 106.505C1193.82 110.321 1198.24 113.263 1203.23 115.318L1205.51 109.77C1201.25 108.017 1197.51 105.519 1194.25 102.263L1190.01 106.505ZM1203.26 115.329C1208.39 117.384 1213.87 118.4 1219.67 118.4V112.4C1214.59 112.4 1209.87 111.512 1205.48 109.759L1203.26 115.329ZM1314.5 146H1311.5V149H1314.5V146ZM1314.5 3.19999V0.19999H1311.5V3.19999H1314.5ZM1423.64 12.992L1421.93 15.4547L1421.95 15.4689L1421.97 15.4827L1423.64 12.992ZM1424.66 67.664L1426.44 70.0773L1426.46 70.0685L1426.47 70.0596L1424.66 67.664ZM1389.17 77.456L1386.41 76.2813L1384.63 80.456H1389.17V77.456ZM1393.25 67.868V64.868H1391.26L1390.49 66.6933L1393.25 67.868ZM1430.78 77.456L1429.04 79.8997L1429.06 79.9146L1429.08 79.9292L1430.78 77.456ZM1429.76 134.984L1427.96 132.584L1427.95 132.59L1427.95 132.596L1429.76 134.984ZM1354.28 117.032H1351.28V120.032H1354.28V117.032ZM1399.16 113.36L1401.11 115.638L1401.12 115.63L1399.16 113.36ZM1399.16 91.328L1397.21 93.6058L1397.27 93.6553L1397.33 93.7019L1399.16 91.328ZM1354.28 87.656V84.656H1351.28V87.656H1354.28ZM1354.28 60.32H1351.28V63.32H1354.28V60.32ZM1392.84 56.852L1394.73 59.1837L1394.76 59.1572L1394.79 59.1298L1392.84 56.852ZM1392.84 35.84L1390.89 38.1178L1390.92 38.1452L1390.95 38.1717L1392.84 35.84ZM1354.28 32.168V29.168H1351.28V32.168H1354.28ZM1317.5 146V3.19999H1311.5V146H1317.5ZM1314.5 6.19999H1383.86V0.19999H1314.5V6.19999ZM1383.86 6.19999C1400.67 6.19999 1413.24 9.41121 1421.93 15.4547L1425.36 10.5293C1415.28 3.51678 1401.32 0.19999 1383.86 0.19999V6.19999ZM1421.97 15.4827C1430.63 21.2965 1434.92 29.4574 1434.92 40.328H1440.92C1440.92 27.5346 1435.7 17.4715 1425.31 10.5013L1421.97 15.4827ZM1434.92 40.328C1434.92 50.995 1430.91 59.2 1422.86 65.2684L1426.47 70.0596C1436.1 62.8 1440.92 52.781 1440.92 40.328H1434.92ZM1422.88 65.2507C1414.71 71.2845 1403.57 74.456 1389.17 74.456V80.456C1404.41 80.456 1416.94 77.0995 1426.44 70.0773L1422.88 65.2507ZM1391.93 78.6307L1396.01 69.0427L1390.49 66.6933L1386.41 76.2813L1391.93 78.6307ZM1393.25 70.868C1408.94 70.868 1420.76 74.0006 1429.04 79.8997L1432.52 75.0123C1422.85 68.1274 1409.65 64.868 1393.25 64.868V70.868ZM1429.08 79.9292C1437.28 85.5588 1441.45 93.8242 1441.45 105.2H1447.45C1447.45 92.0958 1442.5 81.8652 1432.48 74.9828L1429.08 79.9292ZM1441.45 105.2C1441.45 116.792 1436.98 125.821 1427.96 132.584L1431.56 137.384C1442.13 129.459 1447.45 118.632 1447.45 105.2H1441.45ZM1427.95 132.596C1419.02 139.385 1405.76 143 1387.74 143V149C1406.43 149 1421.19 145.271 1431.58 137.372L1427.95 132.596ZM1387.74 143H1314.5V149H1387.74V143ZM1354.28 120.032H1386.11V114.032H1354.28V120.032ZM1386.11 120.032C1392.29 120.032 1397.48 118.75 1401.11 115.638L1397.21 111.082C1395.13 112.866 1391.62 114.032 1386.11 114.032V120.032ZM1401.12 115.63C1404.93 112.344 1406.65 107.682 1406.65 102.14H1400.65C1400.65 106.39 1399.38 109.208 1397.2 111.09L1401.12 115.63ZM1406.65 102.14C1406.65 96.6135 1404.93 91.9948 1401 88.9541L1397.33 93.7019C1399.38 95.2852 1400.65 97.8745 1400.65 102.14H1406.65ZM1401.11 89.0502C1397.48 85.938 1392.29 84.656 1386.11 84.656V90.656C1391.62 90.656 1395.13 91.8219 1397.21 93.6058L1401.11 89.0502ZM1386.11 84.656H1354.28V90.656H1386.11V84.656ZM1351.28 87.656V117.032H1357.28V87.656H1351.28ZM1354.28 63.32H1379.99V57.32H1354.28V63.32ZM1379.99 63.32C1386.03 63.32 1391.11 62.1105 1394.73 59.1837L1390.95 54.5203C1388.85 56.2175 1385.37 57.32 1379.99 57.32V63.32ZM1394.79 59.1298C1398.46 55.9834 1400.12 51.525 1400.12 46.244H1394.12C1394.12 50.2109 1392.93 52.8246 1390.89 54.5742L1394.79 59.1298ZM1400.12 46.244C1400.12 40.9701 1398.46 36.5332 1394.73 33.5083L1390.95 38.1717C1392.93 39.7708 1394.12 42.2699 1394.12 46.244H1400.12ZM1394.79 33.5622C1391.17 30.4591 1386.06 29.168 1379.99 29.168V35.168C1385.34 35.168 1388.79 36.3249 1390.89 38.1178L1394.79 33.5622ZM1379.99 29.168H1354.28V35.168H1379.99V29.168ZM1351.28 32.168V60.32H1357.28V32.168H1351.28Z" fill="#C4C4C4"/>
</svg>
