<svg width="530" height="443" viewBox="0 0 530 443" fill="none" xmlns="http://www.w3.org/2000/svg">
<path d="M87.2471 62.9049L87.5057 63.4724L88.129 63.4899C95.6294 63.7008 102.918 63.9932 109.995 64.3671L111.779 64.4613L110.926 62.891C101.35 45.2678 87.1481 25.799 67.0501 3.42062L66.7521 3.0888H66.3061H53.4644H52.1296L52.5048 4.36986C55.6424 15.0833 55.0355 26.7014 50.8379 36.9136C37.2985 25.9452 24.8592 14.652 15.7713 3.34709L15.4711 2.97363H14.9919H2.04688H1.04688V3.97363V64.4337V65.5011L2.11203 65.4316C11.2181 64.837 20.0822 64.3576 28.7041 63.9933L29.8045 63.9468L29.6523 62.856C28.3988 53.869 26.851 44.7894 25.0092 35.6171C33.4727 43.4069 42.2666 50.7438 51.3608 57.6026L51.6281 57.8042H51.9629H51.9854H52.0078H52.0303H52.0527H52.0752H52.0976H52.1201H52.1425H52.165H52.1874H52.2098H52.2323H52.2547H52.2771H52.2996H52.322H52.3444H52.3669H52.3893H52.4117H52.4342H52.4566H52.479H52.5014H52.5239H52.5463H52.5687H52.5911H52.6135H52.6359H52.6584H52.6808H52.7032H52.7256H52.748H52.7704H52.7928H52.8152H52.8376H52.86H52.8825H52.9049H52.9273H52.9497H52.9721H52.9944H53.0168H53.0392H53.0616H53.084H53.1064H53.1288H53.1512H53.1736H53.196H53.2184H53.2407H53.2631H53.2855H53.3079H53.3303H53.3526H53.375H53.3974H53.4198H53.4422H53.4645H53.4869H53.5093H53.5316H53.554H53.5764H53.5987H53.6211H53.6435H53.6658H53.6882H53.7105H53.7329H53.7553H53.7776H53.8H53.8223H53.8447H53.867H53.8894H53.9117H53.9341H53.9564H53.9788H54.0011H54.0235H54.0458H54.0681H54.0905H54.1128H54.1352H54.1575H54.1798H54.2022H54.2245H54.2468H54.2692H54.2915H54.3138H54.3361H54.3585H54.3808H54.4031H54.4254H54.4478H54.4701H54.4924H54.5147H54.537H54.5593H54.5817H54.604H54.6263H54.6486H54.6709H54.6932H54.7155H54.7378H54.7601H54.7824H54.8047H54.827H54.8493H54.8716H54.8939H54.9162H54.9385H54.9608H54.9831H55.0054H55.0277H55.05H55.0722H55.0945H55.1168H55.1391H55.1614H55.1837H55.2059H55.2282H55.2505H55.2728H55.2951H55.3173H55.3396H55.3619H55.3841H55.4064H55.4287H55.451H55.4732H55.4955H55.5177H55.54H55.5623H55.5845H55.6068H55.629H55.6513H55.6736H55.6958H55.7181H55.7403H55.7626H55.7848H55.8071H55.8293H55.8516H55.8738H55.896H55.9183H55.9405H55.9628H55.985H56.0072H56.0295H56.0517H56.074H56.0962H56.1184H56.1407H56.1629H56.1851H56.2073H56.2296H56.2518H56.274H56.2962H56.3185H56.3407H56.3629H56.3851H56.4073H56.4295H56.4518H56.474H56.4962H56.5184H56.5406H56.5628H56.585H56.6072H56.6294H56.6516H56.6738H56.696H56.7182H56.7404H56.7626H56.7848H56.807H56.8292H56.8514H56.8736H56.8958H56.918H56.9402H56.9623H56.9845H57.0067H57.0289H57.0511H57.0733H57.0954H57.1176H57.1398H57.162H57.1841H57.2063H57.2285H57.2507H57.2728H57.295H57.3172H57.3393H57.3615H57.3837H57.4058H57.428H57.4502H57.4723H57.4945H57.5166H57.5388H57.5609H57.5831H57.6052H57.6274H57.6495H57.6717H57.6938H57.716H57.7381H57.7603H57.7824H57.8046H57.8267H57.8488H57.871H57.8931H57.9153H57.9374H57.9595H57.9817H58.0038H58.0259H58.048H58.0702H58.0923H58.1144H58.1365H58.1587H58.1808H58.2029H58.225H58.2471H58.2693H58.2914H58.3135H58.3356H58.3577H58.3798H58.4019H58.424H58.4462H58.4683H58.4904H58.5125H58.5346H58.5567H58.5788H58.6009H58.623H58.6451H58.6672H58.6893H58.7113H58.7334H58.7555H58.7776H58.7997H58.8218H58.8439H58.866H58.8881H58.9101H58.9322H58.9543H58.9764H58.9984H59.0205H59.0426H59.0647H59.0867H59.1088H59.1309H59.153H59.175H59.1971H59.2192H59.2412H59.2633H59.2854H59.3074H59.3295H59.3515H59.3736H59.3956H59.4177H59.4398H59.4618H59.4839H59.5059H59.528H59.55H59.5721H59.5941H59.6161H59.6382H59.6602H59.6823H59.7043H59.7263H59.7484H59.7704H59.7925H59.8145H59.8365H59.8586H59.8806H59.9026H59.9246H59.9467H59.9687H59.9907H60.0127H60.0348H60.0568H60.0788H60.1008H60.1228H60.1449H60.1669H60.1889H60.2109H60.2329H60.2549H60.2769H60.2989H60.3209H60.3429H60.3649H60.387H60.409H60.431H60.453H60.4749H60.4969H60.5189H60.5409H60.5629H60.5849H60.6069H60.6289H60.6509H60.6729H60.6949H60.7169H60.7388H60.7608H60.7828H60.8048H60.8268H60.8487H60.8707H60.8927H60.9147H60.9366H60.9586H60.9806H61.0026H61.0245H61.0465H61.0685H61.0904H61.1124H61.1343H61.1563H61.1783H61.2002H61.2222H61.2441H61.2661H61.2881H61.31H61.332H61.3539H61.3759H61.3978H61.4198H61.4417H61.4636H61.4856H61.5075H61.5295H61.5514H61.5733H61.5953H61.6172H61.6392H61.6611H61.683H61.705H61.7269H61.7488H61.7707H61.7927H61.8146H61.8365H61.8584H61.8804H61.9023H61.9242H61.9461H61.968H61.99H62.0119H62.0338H62.0557H62.0776H62.0995H62.1214H62.1433H62.1653H62.1872H62.2091H62.231H62.2529H62.2748H62.2967H62.3186H62.3405H62.3624H62.3843H62.4062H62.428H62.4499H62.4718H62.4937H62.5156H62.5375H62.5594H62.5813H62.6031H62.625H62.6469H62.6688H62.6907H62.7125H62.7344H62.7563H62.7782H62.8H62.8219H62.8438H62.8657H62.8875H62.9094H62.9313H62.9531H62.975H62.9968H63.0187H63.0406H63.0624H63.0843H63.1061H63.128H63.1498H63.1717H63.1935H63.2154H63.2372H63.2591H63.2809H63.3028H63.8663L64.1582 57.3222C68.4644 50.2106 71.4309 43.1183 72.7356 35.7337C78.1124 44.4185 82.9605 53.4958 87.2471 62.9049Z" stroke="#A5D936" stroke-width="2"/>
<path d="M139.473 22.7494L142.137 22.9183L140.24 21.0407C134.657 15.5148 128.613 9.71628 122.108 3.64527L121.823 3.37886L121.433 3.37634C108.064 3.28997 94.6607 3.21799 81.223 3.16041L78.8123 3.15008L80.5079 4.86375C103.623 28.2255 119.696 47.9577 130.346 65.3584L130.611 65.79L131.115 65.8328C138.233 66.4366 145.127 67.1265 151.796 67.9026L153.934 68.1515L152.745 66.3568C143.94 53.074 131.686 38.2807 115.242 21.3315C123.447 21.7726 131.524 22.2453 139.473 22.7494Z" stroke="#A5D936" stroke-width="2"/>
<path d="M186.597 4.26272L186.304 3.81253L185.767 3.80841L170.737 3.69324L168.763 3.67811L169.919 5.27886C178.082 16.5761 185.651 28.3869 192.589 40.652C178.63 29.0477 162.914 16.7375 145.488 3.77569L145.226 3.5801L144.898 3.57807L128.6 3.47731L125.402 3.45754L128.019 5.29565C156.375 25.2095 181.021 43.7719 201.046 60.7859C201.258 61.8941 201.079 62.381 200.91 62.5863C200.109 62.998 199.208 63.0611 198.374 62.7697L198.318 62.7501L198.26 62.7373C195.995 62.2372 193.768 61.5463 191.596 60.6703L189.077 59.6543L190.336 62.061C192.259 65.7397 193.973 69.5502 195.465 73.4698L195.61 73.8496L195.979 74.0208C199.965 75.8724 204.096 77.3159 208.321 78.3327L208.334 78.3358L208.347 78.3386C212.843 79.2949 216.551 79.1517 218.797 77.0207C221.107 74.8291 221.265 71.1159 219.548 66.0429C214.302 50.3436 203.696 30.5222 186.597 4.26272Z" stroke="#A5D936" stroke-width="2"/>
<path d="M290.166 96.7412L290.172 96.7463L290.178 96.7513C295.222 101.213 299.799 104.24 304.252 105.826L304.264 105.83L304.276 105.834C308.139 107.102 311.473 107.081 314.007 105.095C316.491 103.149 317.84 99.6687 318.066 94.7234L318.082 94.3627L317.864 94.0747C313.794 88.6908 309.339 83.2081 304.502 77.6267L302.636 75.4734L302.747 78.3207C302.875 81.5862 302.408 83.548 301.644 84.5693C301.286 85.0487 300.855 85.3316 300.334 85.4649C299.799 85.602 299.108 85.595 298.229 85.3794C295.532 84.5371 293.024 83.0495 290.882 81.0119L290.87 81.0004L290.857 80.9894C287.654 78.1401 284.711 74.9436 282.072 71.4461L282.067 71.4391C278.705 67.0651 275.584 62.4681 272.721 57.6733L272.717 57.666L272.713 57.6589C269.92 53.1555 267.482 48.3913 265.425 43.4193C263.767 39.1272 263.182 35.9968 263.6 33.9105C263.803 32.9002 264.215 32.2672 264.762 31.8851C265.323 31.4936 266.166 31.2668 267.415 31.3573L267.415 31.3573L267.426 31.358C269.48 31.4849 272.182 32.6229 275.413 34.9163C278.621 37.1934 282.255 40.5406 286.157 44.9301L288.07 47.0819L287.903 44.2076C287.574 38.561 287.112 32.5607 286.515 26.2069L286.485 25.8885L286.276 25.6465C280.35 18.7892 273.603 12.8661 266.222 8.04492L266.215 8.04069L266.209 8.03656C259.622 3.87812 253.519 1.74976 248.303 1.74976C245.29 1.74976 242.832 2.48775 241.026 4.00927C239.214 5.53534 238.183 7.74391 237.823 10.4336C237.111 15.747 238.96 22.701 242.482 30.6911L242.486 30.7003L242.49 30.7093C246.668 39.7007 251.549 48.2675 257.078 56.3106C262.447 64.4974 268.208 72.3588 274.335 79.8611C279.21 85.9347 284.503 91.5786 290.166 96.7412Z" stroke="#A5D936" stroke-width="2"/>
<path d="M337.089 112.98C337.049 108.182 336.809 103.103 336.369 97.744C341.375 98.7212 346.363 99.5727 351.341 100.288C353.426 106.412 355.242 112.329 356.767 118.054L356.931 118.672L357.561 118.782C361.213 119.418 364.865 119.949 368.517 120.373L369.93 120.538L369.607 119.153C362.391 88.2711 346.947 50.9141 318.205 4.9975L317.911 4.52808H317.357H302.328H300.949L301.378 5.83917C316.111 50.8472 323.223 84.6868 324.06 109.912L324.084 110.634L324.777 110.839C328.497 111.934 332.183 112.988 335.833 113.955L337.1 114.291L337.089 112.98ZM333.541 75.5915C332.154 66.9979 330.346 57.8131 328.092 47.9879C333.123 57.3108 337.803 66.8639 342.12 76.6225C339.271 76.3223 336.411 75.9786 333.541 75.5915Z" stroke="#A5D936" stroke-width="2"/>
<path d="M389.921 10.922C394.895 15.6127 398.889 21.4393 401.634 27.997C404.928 35.6622 407.093 43.8629 408.049 52.2865C409.125 59.8646 409.045 67.59 407.812 75.1387C407.012 80.557 404.97 85.6633 401.874 89.9644L401.87 89.9699C400.627 91.6737 399.064 93.0705 397.281 94.0601C395.499 95.05 393.54 95.608 391.538 95.6912M389.921 10.922L401.063 89.3802C399.9 90.9722 398.446 92.2697 396.796 93.1858C395.146 94.1019 393.339 94.6155 391.497 94.6921C389.438 94.7787 387.379 94.8334 385.329 94.8562C385.361 95.1891 385.392 95.5221 385.423 95.8552M389.921 10.922C385.825 6.97499 380.606 4.71544 375.15 4.55706L375.136 4.55664H375.121H350.461H349.054L349.516 5.88526C365.727 52.4752 372.948 89.7293 373.992 120.005L374.023 120.902L374.918 120.967C378.452 121.227 382.013 121.416 385.619 121.416H386.624L386.619 120.412C386.58 112.209 386.181 104.014 385.423 95.8552M389.921 10.922L384.42 95.8642C384.754 95.8621 385.089 95.859 385.423 95.8552M391.538 95.6912L391.497 94.6958L391.539 95.6912C391.538 95.6912 391.538 95.6912 391.538 95.6912ZM391.538 95.6912C389.497 95.7771 387.456 95.8317 385.423 95.8552M392.484 65.6737L392.096 66.9086C391.791 67.5398 391.372 68.0905 390.867 68.5236C390.075 69.2035 389.118 69.5569 388.15 69.5512L388.131 69.5511L388.113 69.5517C387.78 69.562 387.447 69.5727 387.115 69.5833C385.415 69.6376 383.727 69.6915 382.042 69.7058C380.315 59.2019 378.018 48.0835 375.149 36.3513C375.778 36.3407 376.402 36.3282 377.024 36.3157C378.563 36.2848 380.09 36.2542 381.636 36.254C382.946 36.2803 384.237 36.6723 385.39 37.4032C386.546 38.1363 387.529 39.1892 388.239 40.4739L388.246 40.4867L388.254 40.4993C390.539 44.3609 392.029 48.743 392.614 53.3314L392.616 53.3462L392.619 53.361C393.489 58.8661 393.349 62.9211 392.484 65.6737Z" stroke="#A5D936" stroke-width="2"/>
<path d="M426.799 111.356L426.8 111.358C428.571 113.087 430.552 114.184 432.754 114.611C434.949 115.037 437.291 114.783 439.771 113.935C444.727 112.239 449.469 108.444 453.901 102.857L453.907 102.849C458.638 96.7598 462.373 89.8038 464.949 82.2952C467.893 73.9317 469.476 65.0553 469.625 56.0797C469.913 47.1316 468.598 38.2076 465.755 29.8259C463.243 22.263 459.179 15.4455 453.878 9.91742L453.878 9.91736L453.869 9.9081C448.799 4.75766 443.043 1.77856 436.936 1.77856C430.773 1.77856 425.739 4.83066 421.952 10.8854C418.2 16.8843 415.988 25.1023 414.855 34.9965L414.854 35.0037L414.854 35.011C413.801 45.5586 413.722 56.1983 414.618 66.7637C415.149 76.2344 416.537 85.6219 418.76 94.7842L418.763 94.7943L418.765 94.8045C420.785 102.427 423.315 107.939 426.799 111.356ZM451.543 74.7242L451.543 74.7242L451.54 74.7357C450.538 78.6287 448.904 82.28 446.722 85.5098L447.551 86.0695L446.704 85.5371C445.235 87.8738 443.125 89.5818 440.719 90.4195C439.854 90.7029 438.937 90.7147 438.067 90.454C437.192 90.1922 436.386 89.6618 435.744 88.9057L435.728 88.8879L435.712 88.8707C434.124 87.1699 432.805 84.345 431.733 80.1596C430.56 75.1523 429.901 70.0129 429.767 64.8395L429.767 64.8257L429.766 64.8118C429.467 59.2252 429.703 53.619 430.47 48.0883L430.472 48.0792L430.473 48.0701C430.976 43.8782 432.26 39.8538 434.24 36.2543L434.246 36.2424L434.252 36.2302C434.864 35.0424 435.712 34.0409 436.721 33.2994C437.719 32.5661 438.848 32.1061 440.018 31.9467C441.193 31.889 442.367 32.1174 443.462 32.6202C444.568 33.1288 445.569 33.9075 446.389 34.9086L446.396 34.9176L446.403 34.9263C448.797 37.7174 450.565 41.1095 451.555 44.8255L451.558 44.8336L451.56 44.8417C452.926 49.6412 453.578 54.6584 453.489 59.6942L453.489 59.7055L453.489 59.7168C453.515 64.8 452.859 69.8582 451.543 74.7242Z" stroke="#A5D936" stroke-width="2"/>
<path d="M526.03 38.7171L526.005 38.6939L525.979 38.6725C524.243 37.2365 522.196 36.3433 520.055 36.0728C521.755 34.1151 523.199 31.9006 524.342 29.4943C525.687 26.6715 526.394 23.5339 526.407 20.3494C526.51 17.9135 526.037 15.4862 525.031 13.308C524.025 11.1291 522.516 9.26873 520.645 7.9216C516.909 5.04022 511.501 3.31654 504.863 3.40511L504.859 3.40518C496.084 3.5587 487.308 3.69303 478.533 3.80818L477.494 3.82181L477.547 4.85982C479.112 35.0576 478.316 65.3494 475.17 95.3941L474.977 97.2277L476.619 96.3886C485.459 91.8705 494.761 86.6333 504.603 80.6349C511.431 76.5666 517.478 71.0707 522.416 64.4556L522.421 64.4485L522.426 64.4414C526.751 58.4298 528.931 52.7443 528.931 47.1445C528.931 43.4286 528.054 40.6347 526.03 38.7171ZM504.876 4.4048L504.876 4.40503L504.876 4.4048ZM494.8 38.3012C494.903 33.4685 494.957 28.5709 494.963 23.6085C497.875 23.128 500.786 22.6139 503.715 22.0885C505.693 21.7504 506.924 22.1044 507.668 22.8306C508.443 23.5862 508.948 24.9869 508.899 27.3154C508.85 29.6107 508.311 31.4054 507.354 32.7759C506.403 34.1371 504.983 35.1622 503.019 35.8269C500.26 36.6516 497.521 37.4764 494.8 38.3012ZM503.947 64.763C500.373 66.6836 496.858 68.5138 493.402 70.2534C493.721 65.648 493.985 60.9659 494.197 56.2073C497.938 54.683 501.722 53.0808 505.548 51.4008C507.732 50.4478 508.962 50.4944 509.591 50.8887C510.187 51.2625 510.709 52.2604 510.621 54.5484L511.621 54.5869L510.621 54.5521C510.467 58.9966 508.239 62.4228 503.947 64.763Z" stroke="#A5D936" stroke-width="2"/>
<path d="M101.133 123.655L101.148 124.728L102.217 124.638C110.591 123.929 118.64 123.431 126.364 123.143L127.33 123.107L127.327 122.14C127.275 107.339 124.174 92.0597 116.757 75.2014L116.507 74.6332L115.887 74.6051C109.3 74.3071 102.519 74.1101 95.5449 74.014L95.0081 74.0066L94.7054 74.4498C88.2506 83.8989 79.2987 93.5544 68.6202 104.259C55.4715 95.4775 41.5068 86.0708 28.1708 76.0428L27.8751 75.8205L27.506 75.8441C19.2375 76.3726 10.7363 77.0355 2.00283 77.8328L1.09375 77.9158V78.8286V139.289V140.527L2.30416 140.266C13.2631 137.908 23.8199 135.808 33.9744 133.968L34.8036 133.817L34.796 132.975C34.7155 123.971 34.4209 114.929 33.9124 105.851C42.3193 111.378 50.6379 116.645 58.5879 121.678C59.7941 122.442 60.9918 123.2 62.1801 123.953L62.4855 124.147L62.8442 124.1C67.3857 123.51 71.8451 122.95 76.2118 122.461L76.5465 122.424L76.7904 122.191C84.8959 114.469 92.3766 107.332 98.9184 100.536C100.284 108.15 101.026 115.888 101.133 123.655Z" stroke="#A5D936" stroke-width="2"/>
<path d="M171.584 122.688C172.125 112.781 170.484 102.401 165.933 90.9397C176.556 92.1719 186.53 93.6985 195.943 95.4454L196.126 94.4622L197.046 94.0705C195.458 90.34 193.674 86.7163 191.702 83.218L191.471 82.808L191.008 82.7247C174.962 79.8397 157.402 77.5179 138.056 75.9751L136.293 75.8345L137.081 77.4177C145.226 93.7746 148.338 108.111 148.019 121.761L147.995 122.773L149.007 122.784C156.523 122.87 163.676 123.158 170.516 123.631L171.528 123.701L171.584 122.688Z" stroke="#A5D936" stroke-width="2"/>
<path d="M258.73 100.848L258.747 100.113L258.051 99.8774C253.552 98.3572 248.898 96.8758 244.089 95.4332L242.764 95.0355L242.802 96.4188C242.97 102.465 241.715 108.44 239.178 113.756C232.88 104.702 225.871 96.2843 218.233 88.6034L218.032 88.4018L217.756 88.3358C211.893 86.9367 205.808 85.5951 199.49 84.3542L195.979 83.6648L198.623 86.0746C213.284 99.4335 224.145 111.534 231.262 122.711C230.645 123.046 229.982 123.253 229.303 123.322C228.048 123.423 226.786 123.285 225.569 122.915L225.569 122.915L225.558 122.912C223.653 122.355 221.781 121.66 219.957 120.831L219.119 120.45L218.67 121.253C217.349 123.613 215.87 125.858 214.246 127.969L213.51 128.925L214.585 129.471C217.791 131.097 221.118 132.41 224.53 133.396C228.394 134.542 232.415 134.9 236.396 134.454C239.963 134.12 243.332 132.561 246.041 130.012L246.048 130.006L246.055 129.999C253.77 122.449 258.439 113.44 258.73 100.848Z" stroke="#A5D936" stroke-width="2"/>
<path d="M291.27 152.258C291.994 156.506 293.337 160.597 295.246 164.37C297.115 168.081 299.724 171.279 302.883 173.714C305.44 175.8 308.456 177.108 311.63 177.493L311.64 177.495L311.651 177.496C314.771 177.809 317.889 176.979 320.528 175.149L321.053 174.785L320.943 174.156C320.273 170.306 319.401 166.503 318.33 162.766L317.882 161.202L316.689 162.308C315.594 163.323 314.249 163.901 312.858 163.978C311.469 164.055 310.083 163.629 308.909 162.746L308.895 162.736L308.881 162.726C307.336 161.644 306.037 160.158 305.101 158.385L305.101 158.385C304.075 156.444 303.381 154.303 303.057 152.072L303.056 152.066C302.677 149.555 302.584 147 302.78 144.462L302.781 144.443L302.782 144.424C302.872 142.119 303.321 139.851 304.106 137.72L304.111 137.708L304.115 137.696C304.361 136.971 304.734 136.317 305.207 135.77C305.668 135.237 306.215 134.817 306.81 134.529C307.498 134.294 308.216 134.21 308.929 134.278C309.658 134.348 310.372 134.577 311.03 134.958L311.063 134.977L311.098 134.994C314.101 136.436 317.008 139.867 319.016 145.484L319.545 146.963L320.661 145.859C322.878 143.666 324.934 141.282 326.809 138.729L327.134 138.287L326.935 137.775C325.129 133.127 322.535 128.902 319.289 125.332C316.377 122.088 312.857 119.582 308.97 117.994C304.749 116.269 301.005 116.193 298.061 117.83L298.054 117.834L298.047 117.838C296.596 118.675 295.32 119.823 294.288 121.208C293.259 122.59 292.493 124.182 292.031 125.888C290.822 129.982 290.233 134.268 290.285 138.573C290.136 143.162 290.467 147.754 291.27 152.258Z" stroke="#A5D936" stroke-width="2"/>
<path d="M326.059 190.326L326.733 190.81L327.333 190.237C329.598 188.072 331.741 185.756 333.75 183.302C337.23 185.468 340.697 187.5 344.216 189.317C343.449 192.683 342.529 196.003 341.459 199.264L341.198 200.06L341.935 200.457C344.676 201.932 347.477 203.257 350.34 204.431L351.351 204.846L351.675 203.803C357.352 185.517 359.968 163.756 354.562 136.231L354.443 135.626L353.848 135.461C350.677 134.581 347.493 133.626 344.296 132.594L343.186 132.235L343.001 133.387C339.252 156.773 330.351 172.184 318.212 182.935L317.311 183.733L318.261 184.473C320.857 186.494 323.457 188.46 326.059 190.326ZM346.659 174.764C344.897 173.921 343.138 173.03 341.371 172.099C343.58 168.197 345.513 164.113 347.154 159.884C347.301 164.849 347.136 169.821 346.659 174.764Z" stroke="#A5D936" stroke-width="2"/>
<path d="M377.42 194.686L377.432 194.687L377.444 194.687C380.924 194.835 384.36 193.854 387.33 191.876C390.841 189.604 393.894 186.569 396.31 182.961C399.179 178.711 401.336 173.928 402.682 168.84C404.11 164.068 404.611 159.016 404.153 154.016C403.851 150.18 402.35 146.566 399.89 143.806L399.144 144.471L399.86 143.773C398.668 142.548 397.26 141.596 395.716 140.981C394.179 140.367 392.543 140.102 390.906 140.204C385.531 140.332 380.154 140.084 374.806 139.461L373.76 139.34L373.693 140.391C371.968 167.443 364.739 188.105 354.829 204.721L354.188 205.794L355.376 206.184C358.287 207.137 361.246 207.902 364.237 208.475L364.933 208.609L365.289 207.997C367.884 203.547 370.25 198.937 372.374 194.19C374.011 194.404 375.716 194.572 377.42 194.686ZM390.353 169.326L390.337 169.372L390.326 169.419C389.695 172.095 388.482 174.549 386.803 176.565C386.212 177.27 385.499 177.82 384.717 178.184C383.936 178.548 383.099 178.721 382.261 178.697C380.971 178.643 379.673 178.556 378.377 178.442C380.289 172.375 381.847 166.176 383.043 159.886C384.582 159.981 386.113 159.981 387.627 159.981H387.649H387.703L387.758 159.975C388.365 159.909 388.984 160.066 389.521 160.44C390.05 160.81 390.475 161.374 390.711 162.062C391.268 164.467 391.142 167.006 390.353 169.326Z" stroke="#A5D936" stroke-width="2"/>
<path d="M404.196 203.646L404.199 203.647C407.088 205.572 411.292 205.443 416.558 203.646L416.57 203.642L416.582 203.638C422.565 201.431 428.152 198.085 433.095 193.755C438.752 188.949 443.749 183.259 447.931 176.864C451.961 170.815 454.962 164.004 456.791 156.765L456.791 156.765L456.793 156.757C458.472 149.87 458.619 144.049 457.269 139.256C456.762 137.083 455.832 135.052 454.54 133.308C453.244 131.557 451.611 130.135 449.752 129.149L449.743 129.144L449.733 129.139C446.044 127.285 441.666 127.269 436.791 129.096L436.782 129.099L436.774 129.103C431.582 131.153 426.925 134.57 423.199 139.048C418.816 144.194 415.068 149.959 412.05 156.193C408.813 162.653 406.076 169.406 403.867 176.38C401.602 183.211 400.365 188.889 400.271 193.539C400.178 198.171 401.261 201.677 404.196 203.646ZM435.462 174.479L435.462 174.478L435.457 174.486C433.552 177.634 431.266 180.469 428.664 182.912L429.349 183.641L428.654 182.921C426.556 184.947 424.148 186.524 421.55 187.576C419.292 188.448 417.883 188.307 417.024 187.693C416.152 187.07 415.556 185.791 415.553 183.388C415.688 180.197 416.291 177.054 417.334 174.082L417.341 174.064L417.346 174.045C418.52 170.236 420.027 166.565 421.846 163.087L421.846 163.087L421.851 163.077C423.466 159.906 425.439 156.98 427.72 154.371L427.725 154.365L427.73 154.359C429.484 152.288 431.625 150.687 433.991 149.665L434.015 149.654L434.039 149.642C434.786 149.272 435.591 149.093 436.399 149.114C437.186 149.134 437.963 149.343 438.679 149.731C439.34 150.239 439.901 150.91 440.315 151.7C440.74 152.512 440.997 153.425 441.063 154.373L441.064 154.386L441.065 154.399C441.372 157.568 441.041 160.772 440.097 163.778L440.092 163.795L440.087 163.812C439.04 167.611 437.48 171.207 435.462 174.479Z" stroke="#A5D936" stroke-width="2"/>
<path d="M524.692 114.694L524.686 114.693C522.815 114.138 520.514 114.347 517.868 115.171C519.784 112.704 521.485 110.037 522.944 107.207C524.602 104.12 525.551 100.634 525.712 97.0546L525.712 97.0398L525.712 97.025C525.753 94.3594 525.183 92.2233 523.848 90.7927C522.491 89.3375 520.532 88.8095 518.253 88.9582C513.786 89.2495 507.829 91.8658 500.63 96.5912L500.629 96.5918C490.976 102.943 481.921 108.473 473.374 113.283L472.946 113.524L472.875 114.01C469.534 136.958 464.785 159.624 458.661 181.849L458.037 184.111L460.101 182.994C471.074 177.051 483.014 170.001 496.076 161.716C504.935 156.303 513.01 149.443 520.03 141.37L520.038 141.361L520.045 141.352C525.958 134.225 528.988 127.682 528.988 122C528.988 120.109 528.657 118.508 527.936 117.253C527.199 115.972 526.092 115.118 524.692 114.694ZM496.084 124.571C492.87 126.752 489.72 128.85 486.632 130.865C487.181 127.308 487.709 123.708 488.227 120.072C491.65 117.85 495.152 115.53 498.735 113.112L498.737 113.111C499.941 112.294 500.954 111.73 501.78 111.396C502.624 111.054 503.171 110.996 503.489 111.051C503.725 111.093 503.878 111.196 504.005 111.487C504.16 111.845 504.254 112.471 504.169 113.465C503.844 117.282 501.147 121.094 496.084 124.571ZM505.011 136.174L504.952 136.823L504.967 136.831C504.42 140.486 501.372 144.325 495.765 147.981L495.759 147.985C491.095 151.075 486.569 153.99 482.181 156.73C482.828 153.269 483.462 149.763 484.082 146.212C488.722 143.224 493.538 140.041 498.529 136.662L498.529 136.662L498.536 136.657C499.916 135.705 501.092 135.017 502.065 134.578C503.057 134.131 503.752 133.983 504.197 134.004C504.57 134.022 504.72 134.146 504.829 134.344C504.984 134.629 505.102 135.191 505.011 136.174Z" stroke="#A5D936" stroke-width="2"/>
<path d="M92.4075 181.47L91.9624 183.147L93.6367 182.691C101.133 180.65 108.266 178.854 115.034 177.303L115.568 177.18L115.753 176.665C121.151 161.571 125.168 147.186 126.474 132.569L126.578 131.402L125.409 131.482C118.593 131.954 111.503 132.598 104.138 133.415L103.823 133.45L103.586 133.66C92.3428 143.594 80.0701 154.698 67.432 167.34C56.864 160.688 44.5452 153.703 31.1166 146.089L31.0191 146.034L30.6859 145.845L30.3117 145.927C21.1535 147.935 11.6508 150.174 1.80371 152.642L1.04688 152.832V153.612V214.072V215.574L2.43241 214.995C12.5986 210.747 22.3497 206.84 31.6855 203.274L32.2808 203.047L32.3261 202.411C32.9876 193.135 33.5334 183.935 33.9523 174.763C42.8464 179.532 50.9348 184.004 58.0953 188.381L58.4888 188.621L58.9273 188.478C63.1232 187.108 67.2235 185.819 71.2287 184.613L71.4793 184.537L71.6608 184.348C80.3821 175.284 89.1062 166.983 97.4929 159.343C96.1236 166.611 94.4022 173.953 92.4075 181.47Z" stroke="#A5D936" stroke-width="2"/>
<path d="M196.827 142.787L197.736 143.204C198.918 140.631 199.933 137.968 200.773 135.235L201.113 134.128L199.968 133.953C182.821 131.33 165.516 130.2 148.21 130.573L147.358 130.592L147.241 131.435C145.371 144.878 140.372 158.015 133.911 172.17L133.138 173.863L134.976 173.573C141.514 172.54 147.716 171.78 153.583 171.293L154.108 171.249L154.369 170.791C160.102 160.713 164.929 151.146 168.015 141.471C177.603 141.689 187.174 142.459 196.69 143.777L196.827 142.787Z" stroke="#A5D936" stroke-width="2"/>
<path d="M259.148 154.698L260.835 153.808L259.143 152.927C255.446 151.002 251.578 149.147 247.447 147.394L246.978 147.195L246.542 147.457C240.712 150.958 234.182 154.204 227.037 157.635C227.48 151.674 226.847 145.668 225.168 139.971L225.012 139.441L224.48 139.291C219.237 137.815 213.695 136.484 207.83 135.342L205.85 134.956L206.742 136.766C211.421 146.259 212.938 155.136 212.128 163.94C210.975 164.356 209.788 164.644 208.584 164.797C207.401 164.923 206.209 164.857 205.042 164.6C203.632 164.26 202.253 163.768 200.925 163.132L200.399 162.881L199.921 163.214C196.929 165.303 193.857 167.465 190.745 169.7L189.463 170.62L190.843 171.386C193.192 172.691 195.696 173.628 198.282 174.169L198.293 174.171L198.303 174.173C202.058 174.873 205.887 174.923 209.656 174.322C214.034 173.665 218.325 172.433 222.439 170.655C226.094 169.115 229.688 167.647 233.195 166.215C242.649 162.353 251.472 158.749 259.148 154.698Z" stroke="#A5D936" stroke-width="2"/>
<path d="M288.775 174.861L288.775 174.861C284.892 174.357 280.957 174.792 277.244 176.134C273.28 177.518 269.578 179.68 266.311 182.511C263.143 185.034 260.492 188.259 258.523 191.976C256.824 195.081 256.104 198.715 256.467 202.311L257.462 202.21L256.47 202.34C256.944 205.958 258.571 209.286 261.078 211.713C263.436 214.152 266.287 215.946 269.404 216.939L269.409 216.941C272.804 218.005 276.358 218.306 279.863 217.827L280.532 217.735L280.697 217.08C281.449 214.094 282.177 211.073 282.828 208.034L283.122 206.663L281.73 206.832C277.293 207.371 274.195 206.438 272.21 204.405L272.194 204.389L272.178 204.374C271.121 203.383 270.419 201.967 270.239 200.398C270.146 198.756 270.554 197.136 271.385 195.8L271.39 195.793L271.394 195.786C272.52 193.906 273.953 192.288 275.612 191.012L275.627 191L275.643 190.987C277.384 189.536 279.325 188.418 281.386 187.676L281.386 187.676L281.397 187.673C283.166 187.013 285.043 186.806 286.89 187.064C288.542 187.297 290.116 188.038 291.432 189.22C293.574 191.166 294.373 193.936 293.376 197.662L293.016 199.009L294.407 198.919C297.838 198.696 301.232 198.358 304.586 197.904L305.257 197.813L305.422 197.157C306.227 193.956 306.072 190.552 304.981 187.454L304.977 187.443L304.973 187.432C303.768 184.256 301.784 181.503 299.23 179.495C296.184 176.958 292.578 175.355 288.775 174.861Z" stroke="#A5D936" stroke-width="2"/>
<path d="M281.506 231.697L281.946 232.133L282.533 231.932C285.624 230.874 288.7 229.773 291.761 228.63C294.89 231.59 298.103 234.451 301.469 237.137L296.531 243.67L295.927 244.47L296.728 245.072C299.507 247.162 302.395 249.153 305.43 251L306.263 251.507L306.791 250.688C308.36 248.252 309.993 245.783 311.657 243.266C318.657 232.677 326.212 221.25 331.905 208.003L332.233 207.238L331.541 206.776C329.101 205.149 326.698 203.42 324.306 201.589L323.72 201.14L323.118 201.568C308.801 211.745 292.031 217.638 274.928 222.832L273.385 223.3L274.491 224.474C276.8 226.927 279.126 229.34 281.506 231.697ZM304.177 223.546C307.791 221.935 311.35 220.175 314.846 218.27C312.871 221.383 310.811 224.37 308.713 227.357C307.157 226.123 305.655 224.853 304.177 223.546Z" stroke="#A5D936" stroke-width="2"/>
<path d="M372.171 229.863L372.172 229.859C372.426 228.59 372.381 227.27 372.04 226.025C371.699 224.779 371.072 223.642 370.21 222.728L369.482 223.415L370.147 222.667C368.043 220.798 365.46 219.68 362.744 219.483C357.892 218.752 353.114 217.499 348.477 215.743L347.772 215.475L347.321 216.08C336.265 230.919 323.155 242.285 310.724 252.513L309.551 253.478L310.901 254.174C314.104 255.825 317.384 257.282 320.729 258.539L321.298 258.753L321.75 258.347C324.729 255.667 327.757 252.905 330.812 250.026C332.671 250.674 334.593 251.262 336.578 251.79L336.578 251.79L336.589 251.792C340.251 252.723 344.047 252.805 347.739 252.034C351.622 251.272 355.351 249.763 358.758 247.578C362.187 245.394 365.233 242.554 367.757 239.192C369.939 236.554 371.457 233.337 372.171 229.863ZM349.988 240.976L349.988 240.976C348.229 241.716 346.321 241.867 344.492 241.417L344.491 241.416C343.181 241.095 341.902 240.745 340.65 240.371C343.698 237.186 346.716 233.854 349.671 230.321C351.207 230.733 352.782 231.099 354.387 231.42L354.387 231.42C356.312 231.805 356.822 232.447 356.907 233.043C357.025 233.868 356.584 235.202 355.013 237.118L355.013 237.118L355.004 237.129C353.629 238.854 351.906 240.171 349.988 240.976Z" stroke="#A5D936" stroke-width="2"/>
<path d="M368.754 263.09L368.756 263.091C372.351 264.727 377.497 265.199 384.142 264.368L384.142 264.368L384.153 264.367C391.191 263.405 398.059 261.287 404.532 258.086C411.048 254.98 417.091 250.78 422.45 245.635C426.988 241.458 430.608 236.199 433.046 230.258L433.052 230.245L433.057 230.232C435.034 225.008 435.233 220.628 433.662 217.262C432.077 213.866 429.051 211.988 425.038 211.315C421.034 210.644 416.303 211.327 410.877 213.032L410.873 213.033C405.346 214.79 400.019 217.238 394.992 220.33C389.844 223.452 384.941 227.048 380.336 231.078C376.012 234.745 372.059 238.917 368.543 243.523L368.539 243.528L368.534 243.534C365.364 247.814 363.44 251.64 363.355 255.103C363.311 256.848 363.717 258.437 364.641 259.812C365.561 261.179 366.947 262.264 368.754 263.09ZM406.865 243.259L406.859 243.265C404.36 245.667 401.58 247.674 398.597 249.232L399.06 250.118L398.59 249.235C395.756 250.743 392.746 251.794 389.651 252.359L389.623 252.364L389.596 252.37C387.482 252.88 385.286 252.775 383.216 252.065L383.21 252.063L383.203 252.061C382.721 251.903 382.276 251.567 381.953 251.079C381.628 250.589 381.45 249.983 381.458 249.353L381.458 249.343L381.458 249.333C381.447 247.911 382.164 246.017 383.792 243.527C385.515 240.918 387.527 238.564 389.777 236.521L389.777 236.521L389.786 236.513C392.143 234.323 394.69 232.402 397.388 230.778L397.388 230.778L397.395 230.774C399.87 229.255 402.505 228.093 405.237 227.313L405.26 227.306L405.282 227.299C407.238 226.639 409.307 226.526 411.309 226.968C411.862 227.091 412.386 227.392 412.812 227.851C413.241 228.311 413.551 228.91 413.693 229.582L413.694 229.583C414.001 231.022 413.654 233.037 412.398 235.721C410.977 238.592 409.101 241.145 406.865 243.259L406.865 243.259Z" stroke="#A5D936" stroke-width="2"/>
<path d="M514.057 190.206C516.523 187.845 518.778 185.223 520.79 182.375L520.798 182.363L520.806 182.352C523.217 178.728 524.556 175.24 524.559 172.09C524.606 169.379 523.773 167.27 521.889 166.049C520.078 164.874 517.535 164.689 514.543 165.178C508.531 166.16 500.522 169.847 490.891 175.613C477.95 183.289 466.088 189.813 455.186 195.315L454.798 195.51L454.676 195.927C451.857 205.591 448.999 214.793 446.233 223.647C445.983 224.45 445.733 225.251 445.483 226.048C442.986 234.041 440.575 241.758 438.354 249.273L437.82 251.078L439.614 250.51C453.78 246.023 469.223 240.385 486.188 233.482L486.189 233.481C498.821 228.331 509.539 222.236 517.232 215.637C524.859 209.095 528.97 202.691 528.986 196.888C529.097 195.116 528.583 193.352 527.53 191.972C526.48 190.595 524.968 189.701 523.3 189.518C520.811 189.002 517.697 189.28 514.057 190.206ZM485.108 200.227L485.108 200.227C480.567 202.563 476.149 204.778 471.853 206.873C472.484 204.002 473.114 201.102 473.745 198.173C478.3 195.794 483.001 193.267 487.848 190.591L487.851 190.589C489.488 189.678 490.895 189.005 492.071 188.561C493.261 188.112 494.152 187.923 494.777 187.923C495.385 187.923 495.604 188.094 495.704 188.229C495.837 188.409 495.98 188.82 495.885 189.677C495.705 191.296 494.778 193.034 492.971 194.842C491.166 196.648 488.542 198.463 485.108 200.227ZM497.696 210.205L497.696 210.205L497.695 210.217C497.555 211.877 496.586 213.647 494.591 215.47C492.599 217.289 489.657 219.09 485.759 220.8L485.754 220.802C479.307 223.666 473.09 226.331 467.102 228.797C467.719 225.882 468.347 222.946 468.986 219.99C475.137 217.239 481.539 214.252 488.189 211.027L488.192 211.026C491.951 209.191 494.592 208.358 496.177 208.369C496.942 208.374 497.282 208.574 497.442 208.759C497.61 208.954 497.777 209.36 497.696 210.205Z" stroke="#A5D936" stroke-width="2"/>
<path d="M72.9538 246.488L72.3219 248.689L74.3658 247.656C80.2823 244.668 85.874 241.997 91.2054 239.6L91.5938 239.425L91.7371 239.024C96.0819 226.858 100.514 215.638 104.708 205.024C107.047 199.104 109.311 193.372 111.445 187.768L112.139 185.946L110.255 186.445C104.405 187.995 98.285 189.77 91.8948 191.77L91.6562 191.844L91.4808 192.022C78.823 204.883 66.9245 218.636 55.8586 233.196C48.3575 227.316 39.0647 221.845 27.9155 216.273L27.4998 216.065L27.073 216.249C18.9263 219.755 10.4393 223.545 1.61233 227.617L1.03125 227.885V228.525V288.985V290.828L2.57652 289.823C10.5961 284.607 18.2783 279.741 25.6231 275.226L26.0492 274.964L26.0951 274.466C26.3695 271.493 26.6439 268.534 26.9171 265.588C27.5507 258.756 28.1779 251.992 28.7834 245.287C34.9523 248.548 40.8452 252.426 46.3895 256.872L46.915 257.293L47.5031 256.965C50.8295 255.106 54.0823 253.323 57.2614 251.618L57.4707 251.506L57.6072 251.311C64.7783 241.097 72.3561 231.245 80.3174 221.785C77.9028 229.708 75.4147 237.916 72.9538 246.488Z" stroke="#A5D936" stroke-width="2"/>
<path d="M166.347 188.297L166.827 188.289L167.121 187.909C168.266 186.428 169.405 184.972 170.534 183.528L170.55 183.508C171.684 182.058 172.808 180.62 173.917 179.185L175.146 177.595L173.136 177.573C158.571 177.42 144.027 178.874 129.721 181.914L129.243 182.015L129.029 182.454C127.374 185.852 125.656 189.324 123.893 192.884C118.047 204.695 111.72 217.476 105.642 231.746L104.722 233.907L106.918 233.073C112.076 231.113 116.976 229.442 121.619 228.058L122.039 227.933L122.231 227.539C128.979 213.737 136.095 201.598 142.769 190.425C150.578 189.142 158.454 188.431 166.347 188.297Z" stroke="#A5D936" stroke-width="2"/>
<path d="M157.371 223.724C160.828 223.635 164.224 222.732 167.334 221.077C171.521 218.944 175.542 216.434 179.357 213.571C192.428 204.343 206.473 196.951 221.171 191.561L220.827 190.623L221.313 189.748C218.262 188.053 215.137 186.529 211.948 185.181L211.546 185.012L211.149 185.19C203.118 188.799 195.289 192.933 187.701 197.57C190.041 192.135 192.171 186.592 194.085 180.954L194.453 179.868L193.328 179.65C188.812 178.776 184.255 178.18 179.679 177.864L178.728 177.798L178.617 178.745C177.554 187.813 174.593 197.351 171.136 208.219C169.959 209.022 168.719 209.699 167.43 210.242C166.485 210.638 165.483 210.826 164.48 210.799C163.469 210.718 162.475 210.442 161.542 209.98L160.895 209.66L160.388 210.174C157.205 213.395 154.08 216.769 151.011 220.297L150.266 221.153L151.21 221.784C153.051 223.016 155.163 223.689 157.329 223.724L157.35 223.724L157.371 223.724Z" stroke="#A5D936" stroke-width="2"/>
<path d="M208.878 240.168L209.861 239.984L208.88 240.181C209.617 243.835 211.529 247.089 214.287 249.321C216.743 251.379 219.628 252.737 222.688 253.263L222.695 253.264C225.892 253.79 229.151 253.606 232.281 252.721L232.974 252.526L233.008 251.807C233.162 248.598 233.457 245.444 233.868 242.316L234.051 240.926L232.677 241.206C228.45 242.068 225.549 241.528 223.556 239.718L223.541 239.705L223.527 239.693C222.438 238.778 221.693 237.405 221.482 235.854C221.321 234.108 221.7 232.359 222.545 230.897L222.55 230.889L222.554 230.881C223.711 228.793 225.24 227.003 227.04 225.618L227.055 225.606L227.07 225.594C228.985 224.001 231.136 222.806 233.419 222.062L233.428 222.06L233.436 222.057C235.375 221.388 237.42 221.207 239.426 221.523L239.426 221.523L239.435 221.525C241.047 221.764 242.571 222.54 243.803 223.772C244.76 224.751 245.286 225.874 245.425 227.167C245.566 228.482 245.312 230.029 244.606 231.831L244.057 233.232L245.561 233.195C247.926 233.138 250.289 233.157 252.678 233.176C253.884 233.186 255.097 233.196 256.32 233.196H256.934L257.212 232.648C258.616 229.882 259.102 226.667 258.596 223.555C258.091 220.45 256.626 217.618 254.429 215.558C251.614 212.717 248.102 210.837 244.319 210.166C240.035 209.361 235.644 209.601 231.454 210.867C226.832 212.204 222.501 214.55 218.715 217.761C215.124 220.606 212.219 224.373 210.245 228.73C208.63 232.265 208.15 236.298 208.878 240.168Z" stroke="#A5D936" stroke-width="2"/>
<path d="M257.381 272.503C256.54 274.911 255.855 277.383 255.331 279.9L255.193 280.565L255.761 280.939C259.182 283.189 262.784 285.37 266.567 287.483L267.931 288.245L268.052 286.687C269.117 272.917 275.87 260.694 284.699 248.22L285.237 247.46L284.518 246.869C281.963 244.771 279.52 242.584 277.136 240.348L276.708 239.947L276.149 240.125C275.04 240.478 273.932 240.829 272.827 241.179C257.026 246.184 241.773 251.016 229.13 258.841L227.968 259.56L229.005 260.45C231.662 262.731 234.405 265.016 237.234 267.306L237.798 267.762L238.406 267.369C240.664 265.91 243.026 264.581 245.506 263.252C249.261 266.39 253.196 269.492 257.381 272.503ZM261.81 262.448C259.986 261.013 258.208 259.55 256.475 258.064C259.847 256.629 263.304 255.265 266.883 253.925C265.068 256.672 263.375 259.517 261.81 262.448Z" stroke="#A5D936" stroke-width="2"/>
<path d="M332.669 277.334L332.667 277.276L332.658 277.219C332.462 275.921 332.016 274.681 331.346 273.583C330.679 272.489 329.803 271.559 328.771 270.861C326.05 268.915 323.053 267.481 319.902 266.62C314.152 264.776 308.551 262.394 303.159 259.5L302.568 259.184L302.05 259.609C290.132 269.413 279.465 278.688 273.057 289.736L272.524 290.655L273.473 291.131C277.338 293.07 281.388 294.938 285.673 296.691L286.521 297.038L286.941 296.223C288.306 293.568 289.856 291.038 291.574 288.654C293.859 289.59 296.221 290.494 298.659 291.366C302.735 292.829 306.999 293.554 311.286 293.512C315.055 293.514 318.787 292.722 322.286 291.182C325.299 289.86 327.957 287.73 330.025 284.995C330.911 283.978 331.598 282.778 332.051 281.47C332.508 280.15 332.718 278.743 332.669 277.334ZM314.563 280.543L314.557 280.55L314.551 280.557C313.393 281.896 311.884 282.747 310.271 283.002C308.127 283.337 305.94 283.096 303.891 282.295L303.878 282.29L303.864 282.285C302.038 281.631 300.253 280.953 298.51 280.251C300.742 277.82 303.138 275.387 305.659 273.009C307.551 273.775 309.492 274.494 311.483 275.188L311.483 275.189L311.492 275.192C313.908 276.006 315.063 276.863 315.44 277.654C315.77 278.347 315.707 279.272 314.563 280.543Z" stroke="#A5D936" stroke-width="2"/>
<path d="M344.112 280.372L344.104 280.376L344.096 280.381C339.444 282.967 335.766 285.921 333.592 289.486C331.407 293.069 330.967 296.7 332.809 300.216C334.6 303.634 338.181 306.523 343.382 308.775L343.779 307.857L343.407 308.785C349.713 311.313 356.355 312.66 363.062 312.772C370.704 313.121 378.351 312.241 385.765 310.16C392.272 308.426 398.431 305.376 403.934 301.166L403.934 301.166L403.944 301.157C408.811 297.328 411.833 292.84 412.977 288.272C413.596 286.226 413.659 284.024 413.159 281.939C412.658 279.85 411.611 277.957 410.134 276.505C407.224 273.492 402.929 271.679 397.559 270.726L397.546 270.723L397.533 270.721C391.472 269.814 385.334 269.734 379.257 270.486C372.807 271.093 366.413 272.278 360.136 274.028C354.608 275.514 349.237 277.641 344.112 280.372ZM383.643 296.209L383.633 296.216L383.624 296.224C381.125 298.139 378.346 299.543 375.416 300.374L375.689 301.336L375.405 300.377C372.079 301.36 368.648 301.826 365.209 301.761L365.195 301.761L365.181 301.761C362.195 301.788 359.223 301.26 356.389 300.198L356.365 300.189L356.34 300.181C354.564 299.619 352.997 298.371 351.934 296.626C351.604 295.932 351.448 295.142 351.491 294.346C351.535 293.535 351.782 292.762 352.195 292.113L352.208 292.093L352.22 292.072C353.42 289.969 355.084 288.263 357.038 287.111L357.054 287.102L357.069 287.092C359.558 285.499 362.223 284.281 364.993 283.466L364.993 283.466L365.001 283.464C368.077 282.533 371.233 281.968 374.415 281.778L374.429 281.777L374.444 281.776C377.255 281.525 380.084 281.749 382.837 282.44L382.857 282.445L382.878 282.45C384.683 282.823 386.342 283.874 387.569 285.458C388.006 286.148 388.278 286.963 388.35 287.821C388.424 288.693 388.287 289.568 387.957 290.355L387.948 290.376L387.941 290.397C387.063 292.79 385.559 294.813 383.643 296.209Z" stroke="#A5D936" stroke-width="2"/>
<path d="M510.856 262.847C513.748 260.931 516.448 258.672 518.906 256.107L518.917 256.096L518.927 256.085C521.851 252.848 523.467 249.526 523.469 246.308C523.497 243.504 522.358 241.368 520.122 240.022C517.972 238.729 514.908 238.226 511.156 238.321C503.613 238.513 493.382 241.359 481.148 245.765C464.675 251.645 449.58 256.459 435.719 260.266L435.169 260.417L435.019 260.967C430.609 277.094 427.38 292.497 426.377 308.052L426.3 309.246L427.489 309.109C443.803 307.235 461.5 304.466 480.72 300.676L510.856 262.847ZM510.856 262.847C515.587 262.423 519.534 262.631 522.55 263.588C524.573 264.227 526.2 265.219 527.32 266.612C528.448 268.016 528.997 269.748 528.997 271.739C528.997 277.66 524.152 283.432 515.564 288.562C506.902 293.737 495.027 297.87 480.721 300.676L510.856 262.847ZM477.725 259.52L477.725 259.52C481.867 258.193 484.827 257.67 486.669 257.851C487.578 257.941 488.077 258.19 488.34 258.457C488.579 258.7 488.753 259.09 488.707 259.799C488.619 261.176 487.692 262.642 485.563 264.115C483.445 265.581 480.282 266.948 476.075 268.142C470.234 269.79 464.555 271.324 459.037 272.745C459.414 270.125 459.799 267.494 460.192 264.85C465.876 263.216 471.72 261.44 477.725 259.52ZM492.654 279.99L492.63 280.581C492.386 281.855 491.426 283.144 489.484 284.391C487.251 285.825 483.875 287.092 479.35 288.11C471.578 289.856 464.06 291.432 456.797 292.837C457.016 290.089 457.271 287.331 457.562 284.565C464.909 282.922 472.527 281.081 480.415 279.041L480.419 279.04C484.886 277.865 488.134 277.455 490.196 277.738C491.217 277.878 491.829 278.173 492.173 278.51C492.487 278.818 492.684 279.265 492.654 279.99Z" stroke="#A5D936" stroke-width="2"/>
<path d="M54.7703 328.59L54.4836 330.605L56.2539 329.6C60.8589 326.987 65.3072 324.591 69.5986 322.41L70.0541 322.179L70.1335 321.674C73.814 298.285 79.3684 275.31 86.7296 253.023L87.4737 250.77L85.3416 251.81C80.7872 254.033 76.0244 256.457 71.0664 259.127L70.8476 259.245L70.7094 259.452C60.2798 275.046 50.6732 291.299 41.9378 308.128C36.4944 300.498 29.7537 294.114 22.088 289.345L21.5444 289.007L21.0097 289.359C14.7381 293.49 8.21258 297.889 1.43293 302.557L1 302.855V303.381V363.841V365.796L2.58541 364.651C8.38724 360.462 13.9899 356.518 19.3934 352.818L19.7947 352.544L19.8264 352.058C20.5232 341.391 21.2731 330.926 22.0763 320.665C26.731 324.881 30.8311 329.813 34.2507 335.319L34.79 336.187L35.6463 335.629C38.1456 333.999 40.5971 332.423 43.0011 330.9L43.2464 330.744L43.3703 330.481C48.6863 319.207 54.2888 308.039 60.1851 297.241C58.1672 307.181 56.3335 317.604 54.7703 328.59Z" stroke="#A5D936" stroke-width="2"/>
<path d="M129.528 249.499L130.04 249.391L130.244 248.909C132.189 244.31 134.238 239.926 136.351 235.741L137.266 233.93L135.272 234.308C123.425 236.553 111.814 240.125 100.615 244.968L100.23 245.134L100.079 245.526C91.4534 267.91 85.1133 291.299 81.1773 315.252L80.8782 317.073L82.5668 316.33C86.8902 314.428 91.0821 312.732 95.1427 311.243L95.6915 311.042L95.7854 310.465C98.8831 291.431 103.794 272.819 110.435 254.944C116.687 252.671 123.065 250.852 129.528 249.499Z" stroke="#A5D936" stroke-width="2"/>
<path d="M176.293 237.997L176.627 237.054C173.822 236.061 170.972 235.233 168.088 234.575L167.533 234.448L167.141 234.861C160.309 242.045 154.159 249.983 148.784 258.548C149.685 250.274 151.082 242.075 152.969 234.007L153.255 232.783L151.998 232.779C148.196 232.769 144.398 233.002 140.621 233.478L139.872 233.572L139.757 234.318C137.476 249.146 136.469 264.181 136.751 279.22C135.959 280.718 135.003 282.096 133.904 283.323L133.904 283.322L133.895 283.333C133.258 284.063 132.438 284.517 131.573 284.649C130.604 284.695 129.636 284.449 128.771 283.926L127.731 283.298L127.314 284.438C125.321 289.893 123.459 295.611 121.727 301.591L121.549 302.204L122.031 302.623C124.027 304.359 126.544 305.239 129.109 305.069L129.129 305.068L129.149 305.066C132.405 304.72 135.395 302.44 138.214 298.747L138.226 298.731L138.238 298.714C141.483 294.082 144.228 289.045 146.416 283.707C154.913 264.685 165.287 249.959 176.986 238.718L176.293 237.997Z" stroke="#A5D936" stroke-width="2"/>
<path d="M181.243 291.153C182.192 296.896 184.351 302.315 187.551 306.965C190.241 310.991 193.968 314.043 198.262 315.706C201.224 317.006 204.527 317.002 207.488 315.696L207.525 315.68L207.561 315.66C210.24 314.204 212.354 311.769 213.564 308.795L213.744 308.353L213.512 307.934C211.084 303.549 209.04 299.26 207.225 295.066L206.5 293.392L205.479 294.903C204.35 296.572 203.243 297.609 202.156 298.095C201.122 298.557 200.007 298.565 198.695 297.956C196.96 297.123 195.475 295.712 194.454 293.894L194.449 293.884L194.443 293.875C193.129 291.648 192.287 289.11 191.987 286.455L191.986 286.448C191.624 283.413 191.802 280.328 192.509 277.37L192.512 277.359L192.515 277.347C193.085 274.679 194.18 272.192 195.714 270.064L195.714 270.064L195.72 270.055C196.78 268.55 198.246 267.503 199.872 267.052C201.242 266.743 202.675 267.04 203.872 267.901L203.883 267.91L203.895 267.918C206.186 269.471 207.568 272.471 208.348 277.493L208.57 278.923L209.829 278.209C212.4 276.752 215.056 275.489 217.777 274.427L218.462 274.16L218.412 273.427C218.168 269.885 217.344 266.42 215.978 263.201L215.979 263.201L215.973 263.189C214.635 260.151 212.608 257.536 210.08 255.605C207.171 253.292 203.57 252.261 199.987 252.74L199.976 252.741L199.966 252.743C195.971 253.365 192.286 255.415 189.462 258.559C185.885 262.479 183.321 267.378 182.023 272.748C180.454 278.728 180.187 285.036 181.243 291.153Z" stroke="#A5D936" stroke-width="2"/>
<path d="M229.88 325.538C229.847 322.504 230.003 319.471 230.349 316.462C235.238 318.763 240.414 321.106 245.782 323.438C247.787 327.631 249.977 331.712 252.346 335.664L252.525 335.964L252.852 336.087C257.234 337.73 261.746 339.374 266.428 341.004L269.358 342.024L267.575 339.485C252.519 318.044 246.874 300.349 247.445 285.078L247.467 284.511L246.991 284.202C243.766 282.108 240.667 280 237.694 277.878L237.068 277.432L236.475 277.922C225.162 287.284 217.798 300.394 216.697 320.918L216.659 321.627L217.317 321.897L228.501 326.474L229.896 327.045L229.88 325.538ZM232.88 304.675C233.967 301.505 235.384 298.493 237.1 295.699C237.676 299.973 238.594 304.183 239.843 308.277C237.473 307.074 235.157 305.872 232.88 304.675Z" stroke="#A5D936" stroke-width="2"/>
<path d="M312.155 318.843L312.155 318.843C309.744 315.879 306.868 313.415 303.664 311.572C299.794 309.272 295.726 307.406 291.519 306.003C284.405 303.55 277.412 300.682 270.568 297.411L269.563 296.931L269.193 297.982C264.928 310.112 265.737 324.392 274.221 343.262L274.402 343.664L274.821 343.802C279.501 345.341 284.344 346.846 289.35 348.317L291.56 348.967L290.525 346.909C288.699 343.276 287.094 339.511 285.721 335.639C288.129 336.398 290.583 337.158 293.083 337.918C297.251 339.301 301.606 339.872 305.953 339.604L305.972 339.602L305.992 339.6C309.553 339.238 312.28 338.01 314.039 335.89L314.05 335.877L314.061 335.863C314.924 334.745 315.538 333.428 315.861 332.016C316.182 330.614 316.209 329.15 315.94 327.735C315.496 324.433 314.184 321.339 312.155 318.843ZM296.249 326.339L295.684 326.548C294.523 326.781 292.702 326.592 290.176 325.687L290.158 325.681L290.14 325.675C287.576 324.867 285.07 324.022 282.619 323.14C282.137 319.922 281.986 316.654 282.17 313.4C284.292 314.235 286.489 315.017 288.71 315.784L288.731 315.792L288.753 315.798C291.091 316.489 293.29 317.687 295.224 319.33L295.227 319.333C295.833 319.842 296.347 320.487 296.734 321.233C297.12 321.979 297.37 322.809 297.466 323.673L297.472 323.722L297.482 323.77C297.598 324.319 297.524 324.893 297.283 325.373C297.042 325.852 296.664 326.185 296.249 326.339Z" stroke="#A5D936" stroke-width="2"/>
<path d="M333.244 348.678L333.25 348.683L333.255 348.688C338.67 353.401 344.697 357.18 351.135 359.894C358.342 363.05 365.908 365.085 373.62 365.941C380.545 366.902 387.569 366.463 394.352 364.648L394.364 364.645L394.376 364.641C400.279 362.901 404.783 360.073 407.814 356.238C409.297 354.47 410.354 352.327 410.898 350.007C411.443 347.684 411.458 345.248 410.942 342.917C409.937 338.016 407.041 333.777 402.31 330.18L402.297 330.17L402.284 330.161C396.875 326.316 390.896 323.554 384.619 322.003C377.248 320.053 369.726 318.886 362.155 318.519C355.263 318 348.341 318.249 341.494 319.262L341.483 319.264L341.472 319.266C335.591 320.269 330.976 321.931 327.811 324.609C326.234 325.802 325.062 327.514 324.449 329.479C323.835 331.446 323.809 333.577 324.374 335.561C325.415 339.989 328.486 344.41 333.244 348.678ZM378.236 353.102L377.971 352.137C374.85 352.995 371.616 353.215 368.427 352.787L368.414 352.785L368.402 352.784C364.794 352.393 361.25 351.451 357.87 349.982L357.862 349.978L357.854 349.975C354.83 348.724 352.001 346.938 349.478 344.683L349.464 344.67L349.449 344.658C347.534 343.075 346.089 340.86 345.33 338.306L345.33 338.306L345.327 338.295C345.064 337.448 345.026 336.531 345.219 335.658C345.409 334.793 345.816 334.019 346.377 333.422C348.06 331.803 350.115 330.773 352.291 330.439L352.313 330.435L352.336 330.43C355.54 329.784 358.806 329.615 362.049 329.927L362.062 329.929L362.075 329.929C365.625 330.179 369.137 330.896 372.538 332.066L372.547 332.069L372.556 332.072C375.447 333.004 378.163 334.525 380.567 336.561L380.575 336.569L380.584 336.576C382.443 338.081 383.816 340.247 384.465 342.744L384.468 342.754L384.471 342.764C384.743 343.731 384.802 344.759 384.64 345.76C384.48 346.752 384.108 347.679 383.565 348.465C382.109 350.348 380.152 351.626 378.008 352.128L378.236 353.102Z" stroke="#A5D936" stroke-width="2"/>
<path d="M435.124 368.074L435.363 368.718L436.049 368.727C451.501 368.929 467.923 368.655 485.444 367.819C498.486 367.197 509.096 364.951 516.786 361.198C524.416 357.474 528.998 352.494 528.998 346.552C528.998 344.583 528.48 342.803 527.422 341.254C526.37 339.713 524.82 338.453 522.83 337.454C519.796 335.92 515.693 334.966 510.751 334.536C513.626 333.132 516.335 331.335 518.815 329.184L518.826 329.174L518.837 329.164C521.781 326.451 523.367 323.322 523.367 320.093L523.367 320.091C523.36 317.279 522.138 314.995 519.839 313.305C517.589 311.65 514.339 310.584 510.244 310.019C502.05 308.889 490.807 309.775 477.38 311.923L477.38 311.923C459.318 314.813 442.58 316.853 427.073 318.147L426.146 318.224L426.156 319.154C426.334 335.943 429.377 352.543 435.124 368.074ZM457.16 335.314C456.884 332.627 456.664 329.947 456.487 327.267C462.477 326.654 468.614 325.937 474.898 325.116C479.294 324.544 482.521 324.555 484.628 325.091C485.673 325.357 486.367 325.734 486.801 326.162C487.214 326.569 487.444 327.074 487.478 327.744C487.542 329.016 486.834 330.223 484.832 331.288C482.81 332.365 479.653 333.175 475.325 333.624L475.325 333.624C469.13 334.269 463.075 334.832 457.16 335.314ZM481.16 345.533L481.16 345.533L481.17 345.532C485.598 345.096 488.873 345.238 491.037 345.893C492.108 346.217 492.846 346.65 493.324 347.143C493.722 347.554 493.973 348.041 494.072 348.636L494.094 348.943C494.15 349.706 493.983 350.366 493.607 350.955C493.223 351.556 492.587 352.135 491.631 352.658C489.699 353.716 486.634 354.454 482.364 354.753C474.802 355.251 467.468 355.642 460.316 355.927C459.725 352.994 459.195 350.09 458.726 347.197C465.986 346.764 473.463 346.209 481.16 345.533Z" stroke="#A5D936" stroke-width="2"/>
<path d="M49.9284 437.721L49.9749 438.698L50.9528 438.673L65.0242 438.313L66.0772 438.286L65.9957 437.236C63.507 405.179 63.9703 372.923 67.3782 340.971L67.5675 339.196L65.955 339.962C62.1652 341.761 58.2726 343.685 54.2771 345.733L53.948 345.902L53.8079 346.245C46.579 363.905 39.9778 381.931 33.761 399.014C28.3527 386.245 23.1715 376.226 17.0804 368.27L16.5209 367.54L15.7463 368.037C11.1178 371.007 6.37334 374.135 1.48713 377.435L1.04688 377.733V378.264V438.724V439.749L2.07133 439.724L16.1945 439.378L17.1727 439.354L17.1701 438.376C17.1392 426.923 17.2502 415.718 17.5034 404.759C21.8003 412.923 25.6695 421.358 29.0911 430.022L29.3676 430.723L30.117 430.651L36.8483 430.003L37.4978 429.94L37.7022 429.321C39.2753 424.551 40.8653 419.677 42.4793 414.73C44.7122 407.885 46.9911 400.899 49.3349 393.854C49.0228 407.692 49.1933 422.287 49.9284 437.721Z" stroke="#A5D936" stroke-width="2"/>
<path d="M110.676 347.967L111.484 347.82L111.497 347C111.617 339.543 111.953 332.386 112.503 325.528L112.611 324.185L111.295 324.471C100.326 326.852 89.5426 330.18 79.0412 334.425L78.488 334.649L78.4221 335.242C75.1906 364.322 74.6734 397.904 78.5633 437.297L78.6533 438.208L79.569 438.199L94.598 438.04L95.7306 438.028L95.5784 436.906C91.7859 408.934 90.4225 380.622 91.5065 352.36C98.0596 350.565 104.449 349.101 110.676 347.967Z" stroke="#A5D936" stroke-width="2"/>
<path d="M141.309 441.25C143.639 441.258 145.664 440.387 147.334 438.719C148.981 437.075 150.256 434.685 151.209 431.669C153.114 425.64 153.65 416.975 153.326 406.364C152.465 373.52 154.117 345.696 158.269 322.877L158.465 321.799L157.373 321.702C153.936 321.398 150.48 321.195 147.071 321.151L146.234 321.141L146.076 321.962C143.26 336.6 141.352 351.433 140.365 366.357C135.868 352.094 132.354 337.468 129.856 322.605L129.702 321.686L128.775 321.775C124.85 322.152 120.862 322.703 116.786 323.427L115.804 323.601L115.976 324.583C119.682 345.809 126.217 370.701 137.959 400.216C137.85 402.593 137.362 404.928 136.52 407.112L136.518 407.117C136.311 407.663 135.974 408.117 135.56 408.436C135.163 408.742 134.71 408.914 134.25 408.946C132.556 408.817 130.91 408.208 129.47 407.166L127.795 405.953L127.884 408.019C128.264 416.804 128.835 425.895 129.595 435.292L129.63 435.719L129.962 435.988C134.093 439.342 137.956 441.25 141.309 441.25ZM141.309 441.25C141.309 441.25 141.308 441.25 141.307 441.25L141.311 440.25V441.25C141.31 441.25 141.31 441.25 141.309 441.25Z" stroke="#A5D936" stroke-width="2"/>
<path d="M247.847 440.459C250.474 440.458 252.715 439.887 254.512 438.712C256.318 437.532 257.597 435.795 258.378 433.604C259.92 429.278 259.464 423.359 257.613 416.372L257.54 416.094L257.33 415.898C250.437 409.44 243.977 403.085 237.949 396.831L235.702 394.5L236.243 397.692C236.942 401.816 236.909 404.81 236.245 406.689C235.922 407.605 235.469 408.201 234.926 408.565C234.385 408.928 233.656 409.127 232.656 409.065L232.653 409.065C230.253 408.925 227.315 407.533 223.96 404.634C220.166 401.246 216.836 397.254 214.08 392.783L214.08 392.783L214.073 392.772C210.814 387.63 208.088 382.092 205.947 376.264L205.943 376.252L205.938 376.24C204.049 371.477 202.763 366.442 202.119 361.282C201.714 357.198 202.136 354.486 203.047 352.855L203.047 352.855L203.05 352.85C203.447 352.127 204.039 351.597 204.711 351.319C205.379 351.043 206.106 351.024 206.784 351.265L206.835 351.284L206.888 351.296C208.552 351.691 210.432 352.832 212.656 354.922C214.871 357.005 217.358 359.962 220.243 363.873L221.755 365.922L222.041 363.391C222.556 358.84 223.212 354.635 223.983 350.733L224.064 350.324L223.831 349.979C220.444 344.973 216.62 340.349 212.413 336.175C209.294 332.95 205.552 330.541 201.463 329.138L201.441 329.13L201.42 329.124C199.308 328.504 197.319 328.378 195.494 328.868C193.657 329.361 192.074 330.455 190.749 332.125C188.131 335.426 186.625 340.666 186.507 348.062C186.388 355.494 187.76 364.587 191.306 375.633L192.249 375.331L191.306 375.633C194.932 386.931 199.986 397.601 206.316 407.322C212.151 416.53 219.267 424.655 227.4 431.39L227.406 431.395L227.412 431.4C234.826 437.347 241.869 440.503 247.847 440.459ZM247.847 440.459C247.846 440.459 247.845 440.459 247.844 440.459V439.459M247.847 440.459C247.849 440.459 247.85 440.459 247.851 440.459L247.844 439.459M247.844 439.459C252.815 439.459 255.999 437.299 257.436 433.269C258.873 429.238 258.485 423.566 256.646 416.628L207.158 406.781C212.939 415.907 219.987 423.953 228.038 430.62C235.378 436.508 242.2 439.502 247.844 439.459Z" stroke="#A5D936" stroke-width="2"/>
<path d="M291.245 436.689C287.341 429.574 283.732 422.804 280.418 416.38C286.96 416.833 293.579 417.301 300.276 417.785C306.743 424.352 313.693 431.143 321.125 438.156L321.411 438.425L321.803 438.429L337.765 438.558L340.458 438.58L338.432 436.806C298.811 402.111 271.215 372.59 253.896 347.566L253.702 347.286L253.378 347.182C249.177 345.839 245.071 344.516 241.059 343.211L239.507 342.706L239.762 344.318C243.255 366.362 254.013 396.224 273.933 437.489L274.204 438.05L274.827 438.054L290.361 438.17L292.064 438.182L291.245 436.689ZM269.103 393.427C265.991 386.714 263.109 379.872 260.465 372.916C265.927 379.898 272.009 387.172 278.749 394.753L269.103 393.427Z" stroke="#A5D936" stroke-width="2"/>
<path d="M363.018 437.084C355.478 429.481 348.532 422.264 342.178 415.433L349.227 416.054C349.229 416.054 349.23 416.054 349.232 416.054C354.355 416.552 357.958 415.676 359.931 413.309C361.951 410.885 361.648 407.502 360.086 403.735C358.498 399.904 355.453 395.506 351.209 390.583C343.126 381.088 333.437 373.446 322.689 368.099C317.675 365.593 312.436 363.68 307.059 362.393L307.056 362.392C298.541 360.38 290.425 358.239 282.668 356.068L280.288 355.402L281.535 357.536C293.824 378.563 314.453 404.74 346.19 438.331L346.482 438.641L346.907 438.645L362.299 438.789L364.73 438.811L363.018 437.084ZM336.443 395.689L336.441 395.722V395.754C336.441 395.972 336.387 396.082 336.335 396.148C336.276 396.223 336.149 396.332 335.864 396.426C335.258 396.625 334.205 396.667 332.609 396.422L332.609 396.422L332.6 396.42L324.249 395.208C318.666 388.636 313.725 382.457 309.372 376.639C311.394 377.064 313.439 377.481 315.507 377.891C318.701 378.554 321.767 379.848 324.56 381.715C327.604 383.754 330.373 386.27 332.782 389.188C334.059 390.779 335.013 392.133 335.632 393.258C336.268 394.414 336.475 395.198 336.443 395.689Z" stroke="#A5D936" stroke-width="2"/>
<path d="M415.043 435.54L415.043 435.54L415.05 435.543C423.446 439.08 430.564 440.89 436.526 440.89C442.478 440.89 446.328 439.188 448.409 435.775C450.432 432.457 450.561 428.158 449.423 423.171L449.419 423.154L449.415 423.138C447.829 417.131 445.13 411.552 441.485 406.762C437.019 400.544 431.631 395.21 425.55 390.989C418.716 386.228 411.365 382.443 403.673 379.727C395.951 376.906 387.976 375.02 379.887 374.103L379.887 374.103C372.167 373.235 366.06 373.527 361.863 375.205C359.746 376.051 358.107 377.265 357.118 378.939C356.124 380.62 355.86 382.638 356.252 384.938C357.028 389.5 360.476 395.065 366.571 401.727L366.571 401.727L366.579 401.736C373.445 409.056 381.003 415.532 389.123 421.049C397.323 426.793 406.003 431.645 415.043 435.54ZM419.891 406.705L419.904 406.721L419.917 406.735C422.118 409.243 423.88 412.192 425.109 415.432C425.872 417.809 425.776 419.41 425.12 420.462L424.98 420.65C424.204 421.69 422.667 422.357 419.775 422.222C416.229 421.93 412.748 420.99 409.472 419.438L409.462 419.433L409.452 419.428C405.12 417.492 400.965 415.092 397.047 412.261L397.047 412.261L397.039 412.256C392.996 409.392 389.231 406.063 385.809 402.322C382.589 398.755 380.793 395.906 380.197 393.694C379.899 392.592 379.91 391.746 380.11 391.113C380.304 390.502 380.7 390.005 381.355 389.621C382.778 388.788 385.173 388.394 388.622 388.759C392.37 389.199 396.053 390.176 399.58 391.666L399.58 391.666L399.589 391.67C403.477 393.268 407.189 395.358 410.653 397.899L410.655 397.901C414.058 400.381 417.163 403.339 419.891 406.705Z" stroke="#A5D936" stroke-width="2"/>
<path d="M524.877 411.763C522.623 409.709 519.509 408.173 515.635 407.051C517.783 405.924 519.746 404.403 521.442 402.549C522.468 401.435 523.272 400.104 523.81 398.641C524.348 397.179 524.609 395.612 524.579 394.037L524.579 394.033C524.515 391.297 523.539 388.892 521.65 386.875C519.781 384.878 517.057 383.302 513.544 382.111C506.541 379.737 496.768 378.891 485.198 379.18C469.671 379.553 454.939 379.553 441.003 379.18L439.414 379.137L440.064 380.588C448.052 398.426 459.813 417.668 476.431 439.206L476.73 439.594L477.22 439.595L505.763 439.682H505.766C512.948 439.682 518.17 438.125 522.279 434.873C524.315 433.405 525.985 431.41 527.152 429.073C528.321 426.731 528.952 424.11 528.993 421.442C529.041 419.592 528.697 417.753 527.984 416.072C527.272 414.394 526.21 412.916 524.877 411.763ZM489.03 401.967C484.269 401.958 479.582 401.914 474.972 401.834C473.641 398.754 472.39 395.693 471.219 392.652H471.228H471.258H471.289H471.319H471.35H471.38H471.411H471.441H471.472H471.502H471.533H471.563H471.594H471.624H471.655H471.685H471.716H471.746H471.777H471.808H471.838H471.869H471.899H471.93H471.96H471.991H472.021H472.052H472.082H472.113H472.144H472.174H472.205H472.235H472.266H472.296H472.327H472.358H472.388H472.419H472.449H472.48H472.511H472.541H472.572H472.602H472.633H472.664H472.694H472.725H472.755H472.786H472.817H472.847H472.878H472.909H472.939H472.97H473H473.031H473.062H473.092H473.123H473.154H473.184H473.215H473.246H473.276H473.307H473.337H473.368H473.399H473.429H473.46H473.491H473.521H473.552H473.583H473.613H473.644H473.675H473.706H473.736H473.767H473.798H473.828H473.859H473.89H473.92H473.951H473.982H474.012H474.043H474.074H474.105H474.135H474.166H474.197H474.227H474.258H474.289H474.32H474.35H474.381H474.412H474.443H474.473H474.504H474.535H474.566H474.596H474.627H474.658H474.689H474.719H474.75H474.781H474.812H474.842H474.873H474.904H474.935H474.965H474.996H475.027H475.058H475.089H475.119H475.15H475.181H475.212H475.243H475.273H475.304H475.335H475.366H475.397H475.427H475.458H475.489H475.52H475.551H475.581H475.612H475.643H475.674H475.705H475.736H475.766H475.797H475.828H475.859H475.89H475.921H475.951H475.982H476.013H476.044H476.075H476.106H476.137H476.167H476.198H476.229H476.26H476.291H476.322H476.353H476.384H476.414H476.445H476.476H476.507H476.538H476.569H476.6H476.631H476.662H476.693H476.723H476.754H476.785H476.816H476.847H476.878H476.909H476.94H476.971H477.002H477.033H477.064H477.094H477.125H477.156H477.187H477.218H477.249H477.28H477.311H477.342H477.373H477.404H477.435H477.466H477.497H477.528H477.559H477.59H477.621H477.652H477.683H477.714H477.745H477.776H477.807H477.838H477.868H477.899H477.93H477.961H477.992H478.023H478.054H478.085H478.116H478.148H478.179H478.21H478.241H478.272H478.303H478.334H478.365H478.396H478.427H478.458H478.489H478.52H478.551H478.582H478.613H478.644H478.675H478.706H478.737H478.768H478.799H478.83H478.861H478.892H478.923H478.955H478.986H479.017H479.048H479.079H479.11H479.141H479.172H479.203H479.234H479.265H479.296H479.328H479.359H479.39H479.421H479.452H479.483H479.514H479.545H479.576H479.608H479.639H479.67H479.701H479.732H479.763H479.794H479.825H479.857H479.888H479.919H479.95H479.981H480.012H480.043H480.075H480.106H480.137H480.168H480.199H480.23H480.261H480.293H480.324H480.355H480.386H480.417H480.449H480.48H480.511H480.542H480.573H480.604H480.636H480.667H480.698H480.729H480.76H480.792H480.823H480.854H480.885H480.916H480.948H480.979H481.01H481.041H481.073H481.104H481.135H481.166H481.197H481.229H481.26H481.291H481.322H481.354H481.385H481.416H481.447H481.479H481.51H481.541H481.572H481.604H481.635H481.666H481.697H481.729H481.76H481.791H481.823H481.854H481.885H481.916H481.948H481.979H482.01H482.042H482.073H482.104H482.135H482.167H482.198H482.229H482.261H482.292H482.323H482.355H482.386H482.417H482.449H482.48H482.511H482.543H482.574H482.605H482.637H482.668H482.699H482.731H482.762H482.793H482.825H482.856H482.887H482.919H482.95H482.981H483.013H483.044H483.076H483.107H483.138H483.17H483.201H483.232H483.264H483.295H483.327H483.358H483.389H483.421H483.452H483.484H483.515H483.546H483.578H483.609H483.641H483.672H483.703H483.735H483.766H483.798H483.829H483.86H483.892H483.923H483.955H483.986H484.018H484.049H484.081H484.112H484.143H484.175H484.206H484.238H484.269H484.301H484.332H484.364H484.395H484.427H484.458H484.489H484.521H484.552H484.584H484.615H484.647H484.678H484.71H484.741H484.773H484.804H484.836H484.867H484.899H484.93H484.962H484.993H485.025H485.056H485.088H485.119H485.151H485.182H485.214H485.245H485.277H485.308H485.34H485.372H485.403H485.435H485.466H485.498H485.529H485.561H485.592L485.624 392.652L485.632 392.652C489.182 392.624 491.84 393.053 493.674 393.884C495.462 394.694 496.44 395.865 496.776 397.42C496.954 398.243 496.913 398.882 496.731 399.381C496.552 399.871 496.208 400.309 495.632 400.689C494.428 401.482 492.289 401.967 489.03 401.967ZM481.026 414.956C485.963 415.059 490.988 415.152 496.068 415.152C499.119 415.173 501.412 415.669 503.023 416.562C504.595 417.433 505.564 418.704 505.971 420.441L506.944 420.212L505.972 420.447C506.424 422.322 506.092 423.444 505.354 424.137C504.541 424.9 502.974 425.409 500.365 425.388C495.619 425.333 490.937 425.278 486.28 425.197C484.432 421.742 482.681 418.329 481.026 414.956Z" stroke="#A5D936" stroke-width="2"/>
</svg>
