<svg width="530" height="443" viewBox="0 0 530 443" fill="none" xmlns="http://www.w3.org/2000/svg">
<mask id="path-1-outside-1_740_1882" maskUnits="userSpaceOnUse" x="0" y="0.749756" width="531" height="442" fill="black">
<rect fill="white" y="0.749756" width="531" height="442"/>
<path d="M88.1571 62.4902C83.4734 52.2096 78.1217 42.3226 72.1442 32.908C71.1604 41.0989 68.0794 48.9155 63.3027 56.8041C59.5745 56.8041 55.7946 56.8041 51.9628 56.8041C42.0754 49.3471 32.5435 41.3229 23.4061 32.764C25.5204 42.9559 27.2724 53.0325 28.6618 62.9941C20.0318 63.3587 11.1601 63.8386 2.04679 64.4336V3.97352H14.9918C24.3769 15.6481 37.2831 27.2794 51.2379 38.5221C55.9927 27.8073 56.7917 15.4498 53.4644 4.08868H66.306C86.3708 26.4301 100.52 45.8349 110.047 63.3683C102.962 62.9941 95.6652 62.7013 88.1571 62.4902Z"/>
<path d="M139.535 21.7514C130.758 21.1948 121.826 20.6766 112.738 20.1967C130.059 37.8885 142.836 53.2194 151.91 66.9093C145.23 66.132 138.326 65.441 131.198 64.8364C120.493 47.3462 104.363 27.5527 81.2175 4.16042C94.6544 4.218 108.057 4.28997 121.425 4.37634C127.923 10.4415 133.96 16.2332 139.535 21.7514Z"/>
<path d="M185.762 4.80829C202.85 31.0508 213.4 50.7867 218.603 66.3624C220.299 71.3719 219.963 74.5389 218.112 76.2951C216.261 78.0514 213.024 78.3105 208.558 77.3604C204.399 76.3593 200.33 74.9378 196.403 73.1138C194.896 69.1578 193.167 65.3115 191.225 61.5976C193.447 62.4941 195.728 63.2015 198.047 63.7137C199.196 64.115 200.441 64.0013 201.516 63.397C202.15 62.8356 202.319 61.7991 201.956 60.2444C181.853 43.1428 157.089 24.4866 128.597 4.47721L144.895 4.57796C164.053 18.8293 181.141 32.2888 196.092 44.8847C188.432 30.8903 179.961 17.4648 170.733 4.69313L185.762 4.80829Z"/>
<path d="M290.838 96.0022C285.212 90.874 279.954 85.267 275.11 79.2317C269.002 71.753 263.259 63.9155 257.906 55.7531C252.407 47.7542 247.551 39.2329 243.395 30.2879C239.887 22.3273 238.139 15.5903 238.812 10.5664C239.485 5.54245 242.592 2.74976 248.301 2.74976C253.259 2.74976 259.175 4.7795 265.673 8.88215C272.974 13.6508 279.651 19.5116 285.518 26.3004C286.113 32.6439 286.575 38.6323 286.903 44.2657C279.032 35.4126 272.146 30.6478 267.485 30.3599C264.702 30.1583 263.097 31.3243 262.618 33.714C262.139 36.1036 262.825 39.4721 264.495 43.7906C266.573 48.8161 269.037 53.6324 271.861 58.1859C274.743 63.0138 277.886 67.6432 281.272 72.0485C283.95 75.5974 286.938 78.8426 290.191 81.7365C292.447 83.8826 295.098 85.4548 297.958 86.343C301.945 87.3363 304.003 84.9035 303.744 78.2817C308.569 83.8478 313.009 89.3132 317.065 94.6778C316.845 99.5003 315.537 102.624 313.388 104.308C311.239 105.993 308.314 106.108 304.586 104.884C300.301 103.358 295.835 100.422 290.838 96.0022Z"/>
<path d="M352.092 99.385C346.5 98.5933 340.894 97.6288 335.263 96.5059C335.773 102.331 336.049 107.825 336.092 112.989C332.454 112.024 328.778 110.973 325.063 109.879C324.221 84.5147 317.075 50.5707 302.331 5.52795H317.36C346.059 51.3768 361.451 88.6317 368.636 119.38C365.002 118.958 361.369 118.43 357.736 117.797C356.156 111.866 354.267 105.733 352.092 99.385ZM343.729 77.7921C338.226 65.2067 332.12 52.958 325.438 41.0986C328.558 53.9104 330.953 65.6713 332.674 76.4821C336.377 76.9908 340.062 77.4274 343.729 77.7921Z"/>
<path d="M389.229 11.6459C394.099 16.2382 398.017 21.9499 400.711 28.3876C403.969 35.9668 406.11 44.0787 407.054 52.4132C408.119 59.8982 408.04 67.5292 406.821 74.985C406.045 80.254 404.061 85.2118 401.061 89.3803C399.898 90.9723 398.444 92.2698 396.794 93.1859C395.144 94.102 393.337 94.6155 391.494 94.6921C389.1 94.7929 386.705 94.8505 384.323 94.8649C385.144 103.352 385.576 111.88 385.617 120.416C382.045 120.416 378.511 120.229 374.99 119.97C373.941 89.5674 366.692 52.2117 350.459 5.55671H375.119C380.315 5.70754 385.302 7.85983 389.229 11.6459ZM393.436 65.9736C394.368 63.0082 394.485 58.776 393.604 53.205C393.003 48.4853 391.469 43.9724 389.112 39.9902C388.325 38.5666 387.229 37.3864 385.923 36.5587C384.618 35.731 383.146 35.2823 381.643 35.2541C379.054 35.2541 376.465 35.3405 373.876 35.3693C376.957 47.8452 379.395 59.6253 381.19 70.7096C383.507 70.7096 385.824 70.6233 388.142 70.5513C389.362 70.5585 390.55 70.1119 391.516 69.2825C392.483 68.4531 393.172 67.2885 393.475 65.9736H393.436Z"/>
<path d="M427.5 110.642C424.212 107.418 421.74 102.12 419.733 94.5483C417.523 85.4408 416.143 76.1086 415.616 66.6934C414.724 56.1845 414.802 45.6015 415.85 35.1103C416.976 25.2783 419.163 17.2313 422.801 11.4157C426.438 5.59998 431.177 2.77851 436.937 2.77851C442.698 2.77851 448.212 5.58559 453.157 10.6095C458.352 16.0265 462.341 22.7146 464.807 30.1439C467.613 38.4139 468.912 47.222 468.626 56.0553C468.479 64.9289 466.915 73.7026 464.005 81.9668C461.464 89.3759 457.78 96.2349 453.118 102.235C448.756 107.734 444.16 111.376 439.448 112.989C434.736 114.601 430.801 113.867 427.5 110.642ZM447.552 86.0695C449.799 82.7422 451.479 78.9854 452.51 74.9851C453.849 70.0317 454.516 64.884 454.49 59.7117C454.581 54.5783 453.916 49.463 452.523 44.5679C451.495 40.713 449.659 37.1851 447.164 34.2753C446.253 33.1619 445.131 32.2864 443.88 31.7115C442.629 31.1366 441.279 30.8766 439.927 30.95C438.57 31.1273 437.27 31.656 436.13 32.4935C434.99 33.331 434.043 34.454 433.364 35.7724C431.322 39.4871 429.999 43.635 429.481 47.9508C428.705 53.5449 428.466 59.215 428.769 64.8652C428.904 70.1098 429.573 75.3205 430.762 80.3977C431.85 84.6443 433.222 87.6673 434.982 89.5531C435.743 90.4484 436.712 91.0918 437.781 91.4119C438.85 91.7321 439.979 91.7165 441.041 91.3669C443.678 90.4505 445.968 88.5875 447.552 86.0695Z"/>
<path d="M525.345 39.4431C527.092 41.0986 527.934 43.5746 527.934 47.1446C527.934 52.4708 525.863 57.9554 521.617 63.8575C516.754 70.3733 510.801 75.7799 504.089 79.7786C494.264 85.7671 484.982 90.9925 476.167 95.4983C479.318 65.4018 480.115 35.0579 478.549 4.80814C487.325 4.69298 496.102 4.55863 504.879 4.40508C511.351 4.31871 516.529 6.00295 520.05 8.72366C521.78 9.96535 523.185 11.691 524.126 13.7274C525.067 15.7638 525.509 18.0395 525.41 20.3262C525.4 23.3731 524.725 26.3718 523.442 29.0641C522.009 32.0795 520.092 34.7776 517.785 37.0247C520.485 36.7863 523.171 37.6456 525.345 39.4431ZM493.772 39.659C496.931 38.6994 500.115 37.7397 503.325 36.78C507.597 35.3405 509.798 32.2167 509.901 27.3367C510.005 22.4567 507.83 20.3694 503.546 21.1036C500.335 21.6794 497.151 22.2408 493.966 22.759C493.966 28.4787 493.901 34.1121 493.772 39.659ZM511.623 54.5869C511.804 49.8797 509.604 48.5409 505.151 50.4843C501.129 52.2501 497.155 53.9295 493.228 55.5226C492.987 61.0984 492.672 66.5686 492.283 71.9332C496.253 69.9563 500.301 67.8594 504.426 65.6425C508.995 63.1521 511.455 59.4237 511.623 54.5869Z"/>
<path d="M102.133 123.641C102.015 115.165 101.148 106.722 99.5437 98.4349C92.7087 105.633 84.7736 113.204 76.1004 121.467C71.725 121.957 67.2589 122.518 62.7152 123.108C53.1747 117.062 43.0386 110.685 32.7991 103.92C33.3773 113.651 33.7096 123.339 33.7959 132.984C23.6298 134.826 13.0623 136.928 2.09357 139.289V78.8286C10.8185 78.0321 19.3107 77.3699 27.5696 76.842C41.1619 87.0627 55.4011 96.6355 68.7474 105.546C79.686 94.6058 88.9031 84.7163 95.5309 75.0139C102.495 75.1098 109.266 75.3065 115.842 75.604C123.207 92.3457 126.275 107.49 126.327 122.144C118.586 122.432 110.521 122.931 102.133 123.641Z"/>
<path d="M196.127 94.4621C186.198 92.6195 175.648 91.0216 164.373 89.7548C169.356 101.717 171.143 112.442 170.586 122.634C163.725 122.159 156.554 121.871 149.02 121.784C149.343 107.95 146.185 93.4544 137.977 76.9718C157.291 78.5121 174.819 80.8298 190.832 83.7088C192.785 87.1746 194.553 90.7653 196.127 94.4621Z"/>
<path d="M257.733 100.825C257.448 113.133 252.905 121.899 245.358 129.284C242.801 131.69 239.633 133.149 236.296 133.459C232.445 133.892 228.554 133.546 224.814 132.437C221.461 131.468 218.191 130.177 215.04 128.579C216.695 126.429 218.201 124.143 219.545 121.741C221.413 122.59 223.328 123.302 225.28 123.872C226.619 124.279 228.011 124.43 229.396 124.318C230.559 124.201 231.674 123.75 232.633 123.008C225.461 111.492 214.354 99.0541 199.299 85.3354C205.603 86.5734 211.675 87.9122 217.526 89.3085C225.51 97.3369 232.803 106.175 239.312 115.709C242.434 109.877 243.993 103.175 243.804 96.391C248.602 97.8305 253.245 99.3084 257.733 100.825Z"/>
<path d="M296.14 163.919C294.275 160.236 292.963 156.239 292.256 152.086C291.463 147.642 291.137 143.111 291.285 138.584C291.232 134.366 291.809 130.168 292.994 126.16C293.423 124.567 294.136 123.087 295.09 121.806C296.044 120.525 297.22 119.47 298.547 118.704C301.136 117.264 304.541 117.264 308.592 118.92C312.334 120.448 315.731 122.865 318.547 126.002C321.708 129.479 324.24 133.599 326.003 138.137C324.159 140.649 322.137 142.993 319.958 145.148C317.9 139.39 314.858 135.69 311.531 134.092C310.752 133.642 309.9 133.367 309.025 133.283C308.15 133.199 307.268 133.307 306.431 133.603C305.686 133.953 305.012 134.468 304.451 135.116C303.89 135.764 303.454 136.533 303.169 137.374C302.346 139.605 301.878 141.977 301.783 144.385C301.581 146.998 301.677 149.629 302.068 152.216C302.408 154.557 303.137 156.807 304.217 158.852C305.223 160.758 306.626 162.368 308.308 163.545C309.663 164.565 311.28 165.067 312.914 164.976C314.549 164.885 316.112 164.206 317.369 163.041C318.43 166.744 319.294 170.512 319.958 174.327C317.508 176.026 314.627 176.789 311.751 176.501C308.768 176.138 305.923 174.907 303.505 172.931C300.465 170.59 297.946 167.507 296.14 163.919Z"/>
<path d="M345.364 188.78C341.39 186.764 337.48 184.461 333.532 181.985C331.39 184.663 329.089 187.178 326.645 189.514C324.056 187.657 321.467 185.699 318.878 183.684C331.214 172.758 340.211 157.125 343.991 133.545C347.202 134.582 350.399 135.541 353.584 136.424C358.956 163.775 356.354 185.368 350.723 203.506C347.892 202.345 345.122 201.035 342.412 199.576C343.572 196.04 344.558 192.436 345.364 188.78ZM347.512 176.27C348.285 169.158 348.415 161.977 347.901 154.836C345.866 161.033 343.213 166.958 339.991 172.499C342.503 173.837 345.001 175.104 347.512 176.27Z"/>
<path d="M399.147 144.471C401.456 147.061 402.876 150.468 403.16 154.101C403.608 158.983 403.118 163.914 401.723 168.569C400.405 173.558 398.291 178.243 395.484 182.402C393.139 185.906 390.18 188.844 386.785 191.04C383.984 192.907 380.754 193.827 377.49 193.688C375.549 193.559 373.607 193.357 371.769 193.098C369.581 198.054 367.13 202.861 364.429 207.493C361.48 206.928 358.562 206.174 355.691 205.233C365.685 188.477 372.96 167.662 374.694 140.455C380.095 141.083 385.525 141.333 390.953 141.203C392.447 141.108 393.942 141.348 395.349 141.91C396.757 142.471 398.049 143.342 399.147 144.471ZM387.575 177.206C389.357 175.066 390.637 172.47 391.303 169.648C392.158 167.135 392.289 164.388 391.678 161.788C391.381 160.891 390.825 160.128 390.096 159.62C389.368 159.112 388.508 158.888 387.652 158.981C385.827 158.981 384.028 158.981 382.228 158.823C380.944 165.785 379.214 172.635 377.05 179.322C378.772 179.495 380.507 179.624 382.228 179.696C383.227 179.727 384.221 179.52 385.143 179.091C386.064 178.662 386.893 178.019 387.575 177.206Z"/>
<path d="M404.757 202.815C402.245 201.131 401.184 198.065 401.274 193.559C401.365 189.053 402.569 183.482 404.821 176.688C407.016 169.76 409.735 163.051 412.951 156.635C415.934 150.471 419.638 144.774 423.967 139.692C427.592 135.334 432.114 132.02 437.145 130.033C441.831 128.277 445.909 128.334 449.287 130.033C451.008 130.946 452.528 132.267 453.74 133.903C454.952 135.54 455.828 137.452 456.304 139.505C457.598 144.082 457.482 149.725 455.825 156.52C454.023 163.653 451.066 170.361 447.1 176.313C442.967 182.634 438.031 188.254 432.446 192.998C427.59 197.252 422.106 200.535 416.239 202.7C411.048 204.471 407.242 204.471 404.757 202.815ZM429.352 183.641C432.022 181.134 434.366 178.227 436.316 175.004C438.385 171.65 439.983 167.966 441.054 164.078C442.039 160.943 442.384 157.604 442.064 154.303C441.989 153.222 441.695 152.173 441.204 151.236C440.713 150.299 440.038 149.497 439.229 148.891C438.359 148.404 437.402 148.139 436.428 148.114C435.454 148.089 434.488 148.305 433.598 148.747C431.084 149.833 428.82 151.53 426.97 153.713C424.634 156.386 422.615 159.38 420.964 162.624C419.116 166.157 417.585 169.884 416.394 173.751C415.315 176.824 414.694 180.072 414.556 183.367C414.556 185.901 415.177 187.599 416.446 188.506C417.715 189.413 419.54 189.428 421.922 188.506C424.645 187.404 427.164 185.754 429.352 183.641Z"/>
<path d="M524.404 115.652C526.735 116.357 527.99 118.43 527.99 122C527.99 127.341 525.129 133.66 519.278 140.714C512.321 148.715 504.322 155.508 495.55 160.867C482.501 169.144 470.579 176.184 459.628 182.115C465.763 159.849 470.521 137.143 473.867 114.155C482.437 109.332 491.511 103.79 501.181 97.4273C508.353 92.72 514.126 90.2296 518.32 89.9561C522.515 89.6826 524.793 91.9283 524.715 97.0098C524.561 100.446 523.65 103.788 522.062 106.741C520.022 110.698 517.505 114.326 514.579 117.523C518.774 115.608 522.074 114.961 524.404 115.652ZM485.298 132.926C488.991 130.536 492.776 128.027 496.65 125.397C501.828 121.842 504.806 117.797 505.168 113.55C505.531 109.303 503.123 108.929 498.178 112.283C494.467 114.788 490.843 117.187 487.304 119.481C486.657 124.03 485.997 128.521 485.298 132.94V132.926ZM506.01 136.266C506.398 132.033 503.602 131.947 497.971 135.834C492.853 139.298 487.921 142.556 483.175 145.608C482.398 150.071 481.6 154.461 480.78 158.78C485.777 155.69 490.955 152.369 496.314 148.818C502.32 144.903 505.725 140.599 506.036 136.28L506.01 136.266Z"/>
<path d="M93.3739 181.726C95.6393 173.19 97.5553 164.869 99.0051 156.621C89.9436 164.812 80.4418 173.78 70.9401 183.655C66.9272 184.864 62.8196 186.155 58.6168 187.527C51.0569 182.907 42.4743 178.185 33.0244 173.132C32.5973 182.82 32.0276 192.537 31.3286 202.34C21.9823 205.91 12.2216 209.821 2.04679 214.072V153.612C11.885 151.146 21.378 148.91 30.5258 146.904C44.2864 154.706 56.8561 161.832 67.5746 168.612C80.3902 155.757 92.8434 144.486 104.248 134.409C111.601 133.593 118.677 132.95 125.478 132.48C124.183 146.976 120.196 161.271 114.811 176.328C108.028 177.883 100.882 179.682 93.3739 181.726Z"/>
<path d="M196.826 142.787C187.023 141.428 177.163 140.65 167.286 140.455C164.244 150.272 159.363 159.989 153.499 170.296C147.605 170.786 141.378 171.548 134.819 172.585C141.292 158.406 146.341 145.162 148.231 131.573C165.478 131.201 182.726 132.327 199.816 134.941C198.989 137.633 197.99 140.254 196.826 142.787Z"/>
<path d="M258.683 153.814C248.21 159.342 235.615 164.02 222.049 169.735C218.01 171.481 213.799 172.689 209.505 173.334C205.848 173.918 202.132 173.869 198.488 173.19C196.002 172.67 193.593 171.769 191.33 170.512C194.437 168.281 197.505 166.122 200.495 164.034C201.888 164.702 203.336 165.217 204.819 165.575C206.097 165.857 207.405 165.93 208.702 165.791C210.191 165.601 211.655 165.22 213.065 164.653C214.022 155.455 212.508 146.199 207.641 136.324C213.479 137.461 218.994 138.785 224.21 140.253C226.019 146.388 226.589 152.891 225.88 159.298C233.647 155.584 240.754 152.101 247.058 148.315C251.162 150.057 255.006 151.899 258.683 153.814Z"/>
<path d="M257.464 202.21C257.12 198.808 257.803 195.374 259.405 192.45C261.317 188.841 263.888 185.717 266.952 183.281C270.132 180.521 273.732 178.419 277.58 177.076C281.147 175.787 284.923 175.37 288.648 175.853C292.259 176.322 295.694 177.846 298.603 180.272C301.011 182.163 302.894 184.766 304.04 187.786C305.066 190.698 305.211 193.901 304.454 196.913C301.123 197.364 297.753 197.7 294.344 197.921C295.418 193.904 294.577 190.723 292.104 188.477C290.646 187.168 288.889 186.335 287.03 186.073C285.017 185.793 282.973 186.019 281.049 186.735C278.875 187.518 276.833 188.695 275.004 190.219C273.242 191.574 271.726 193.289 270.538 195.272C269.59 196.796 269.133 198.633 269.244 200.483C269.444 202.284 270.248 203.934 271.496 205.104C273.774 207.436 277.231 208.386 281.852 207.824C281.205 210.847 280.48 213.856 279.729 216.836C276.372 217.295 272.966 217.007 269.71 215.987C266.753 215.044 264.038 213.337 261.787 211.006C259.445 208.745 257.911 205.624 257.464 202.21Z"/>
<path d="M302.856 236.96C299.076 233.995 295.49 230.799 291.995 227.474C288.75 228.693 285.488 229.863 282.209 230.986C279.84 228.64 277.522 226.236 275.218 223.789C292.331 218.592 309.238 212.661 323.697 202.383C326.105 204.225 328.526 205.967 330.985 207.608C323.982 223.904 314.157 237.407 305.95 250.146C302.946 248.318 300.086 246.346 297.328 244.273L302.856 236.96ZM308.901 228.827C311.943 224.508 314.934 220.19 317.717 215.511C312.724 218.399 307.594 220.984 302.351 223.256C304.487 225.185 306.662 227.042 308.966 228.827H308.901Z"/>
<path d="M369.484 223.415C370.229 224.204 370.778 225.194 371.077 226.288C371.376 227.383 371.416 228.545 371.193 229.662C370.509 232.991 369.054 236.063 366.973 238.573C364.515 241.85 361.552 244.614 358.222 246.735C354.915 248.855 351.301 250.317 347.542 251.053C343.997 251.795 340.353 251.717 336.837 250.823C334.67 250.247 332.582 249.6 330.571 248.88C327.374 251.903 324.202 254.796 321.083 257.603C317.774 256.36 314.529 254.918 311.361 253.285C323.801 243.05 336.992 231.62 348.125 216.678C352.84 218.464 357.7 219.736 362.636 220.478C365.136 220.651 367.527 221.676 369.484 223.415ZM350.377 241.898C352.456 241.025 354.313 239.602 355.788 237.752C357.393 235.794 358.079 234.168 357.898 232.901C357.717 231.634 356.604 230.843 354.584 230.439C352.785 230.08 351.024 229.662 349.315 229.187C345.885 233.319 342.364 237.176 338.804 240.847C340.565 241.409 342.377 241.927 344.254 242.388C346.294 242.89 348.422 242.72 350.377 241.898Z"/>
<path d="M369.173 262.181C365.807 260.641 364.28 258.266 364.357 255.128C364.435 251.989 366.195 248.376 369.341 244.13C372.816 239.578 376.722 235.456 380.991 231.836C385.557 227.84 390.415 224.277 395.516 221.183C400.475 218.133 405.73 215.718 411.179 213.986C416.539 212.302 421.095 211.668 424.875 212.302C428.655 212.935 431.348 214.662 432.759 217.685C434.17 220.708 434.053 224.782 432.124 229.878C429.738 235.693 426.197 240.832 421.768 244.907C416.48 249.984 410.52 254.126 404.098 257.186C397.718 260.342 390.952 262.428 384.021 263.376C377.458 264.197 372.526 263.707 369.173 262.181ZM399.063 250.118C402.132 248.515 404.989 246.452 407.555 243.986C409.882 241.785 411.83 239.132 413.302 236.155C414.597 233.391 415.05 231.131 414.674 229.374C414.496 228.535 414.105 227.77 413.548 227.17C412.99 226.57 412.289 226.161 411.529 225.992C409.348 225.51 407.094 225.634 404.966 226.351C402.144 227.157 399.426 228.356 396.875 229.921C394.117 231.582 391.515 233.544 389.108 235.78C386.794 237.881 384.728 240.3 382.959 242.978C381.302 245.511 380.448 247.613 380.461 249.341C380.45 250.164 380.683 250.969 381.122 251.631C381.562 252.294 382.184 252.779 382.895 253.011C385.143 253.783 387.533 253.897 389.833 253.342C393.031 252.759 396.139 251.674 399.063 250.118Z"/>
<path d="M523.146 190.507C524.541 190.646 525.831 191.39 526.737 192.578C527.643 193.766 528.092 195.302 527.988 196.855C527.988 202.21 524.169 208.372 516.583 214.878C508.997 221.385 498.383 227.431 485.813 232.556C468.868 239.451 453.45 245.079 439.314 249.556C444.195 233.045 449.994 215.555 455.638 196.208C466.564 190.694 478.447 184.159 491.405 176.472C501.023 170.714 508.894 167.115 514.706 166.165C520.518 165.215 523.651 167.072 523.561 172.081C523.561 174.96 522.331 178.257 519.975 181.798C517.087 185.886 513.692 189.497 509.891 192.522C515.496 190.565 519.962 189.83 523.146 190.507ZM470.434 208.674C475.319 206.313 480.363 203.794 485.567 201.116C492.544 197.532 496.454 193.631 496.881 189.787C497.308 185.944 494.02 186.016 487.366 189.715C482.378 192.47 477.546 195.066 472.868 197.503C472.057 201.275 471.245 204.998 470.434 208.674ZM498.693 210.3C499.069 206.385 495.276 206.457 487.755 210.128C480.946 213.429 474.4 216.481 468.117 219.283C467.306 223.036 466.512 226.754 465.735 230.439C472.268 227.772 479.077 224.864 486.162 221.716C494.072 218.247 498.357 214.302 498.693 210.3Z"/>
<path d="M73.9149 246.764C76.8534 236.529 79.8308 226.812 82.6787 217.469C73.5503 228.067 64.9093 239.17 56.7887 250.737C53.6042 252.445 50.3463 254.23 47.0151 256.092C41.0255 251.288 34.6309 247.142 27.9212 243.712C27.0151 253.789 26.0572 263.995 25.0993 274.374C17.7465 278.894 10.0571 283.764 2.03119 288.985V228.525C10.8511 224.456 19.3302 220.67 27.4683 217.167C38.9894 222.925 48.4782 228.554 56.0381 234.614C67.2528 219.786 79.3305 205.793 92.1934 192.724C98.571 190.728 104.677 188.957 110.51 187.412C104.569 203.017 97.5655 219.729 90.7953 238.688C85.449 241.092 79.8437 243.77 73.9149 246.764Z"/>
<path d="M166.328 187.297C158.232 187.435 150.153 188.175 142.146 189.514C135.402 200.8 128.179 213.093 121.331 227.1C116.662 228.491 111.738 230.171 106.56 232.138C114.457 213.597 122.767 197.59 129.926 182.892C144.161 179.868 158.632 178.421 173.124 178.573C170.91 181.438 168.632 184.317 166.328 187.297Z"/>
<path d="M220.825 190.623C206.038 196.045 191.912 203.481 178.767 212.762C174.991 215.597 171.012 218.081 166.871 220.19C163.892 221.776 160.645 222.64 157.343 222.724C155.375 222.693 153.45 222.082 151.764 220.953C154.819 217.441 157.93 214.082 161.097 210.877C162.149 211.397 163.275 211.709 164.424 211.798C165.581 211.833 166.733 211.618 167.816 211.165C169.272 210.551 170.669 209.774 171.984 208.847C175.479 197.863 178.521 188.132 179.609 178.862C184.144 179.175 188.66 179.766 193.136 180.632C190.884 187.269 188.33 193.774 185.486 200.123C193.888 194.813 202.597 190.129 211.557 186.102C214.712 187.436 217.806 188.944 220.825 190.623Z"/>
<path d="M209.859 239.984C209.169 236.312 209.625 232.488 211.154 229.144C213.068 224.919 215.881 221.277 219.348 218.535C223.035 215.404 227.247 213.124 231.736 211.826C235.777 210.604 240.008 210.373 244.137 211.15C247.715 211.783 251.049 213.564 253.73 216.275C255.763 218.176 257.135 220.808 257.608 223.716C258.08 226.623 257.625 229.623 256.319 232.196C252.707 232.196 249.108 232.109 245.536 232.196C247.024 228.395 246.739 225.344 244.513 223.069C243.136 221.691 241.417 220.808 239.581 220.536C237.411 220.193 235.201 220.39 233.108 221.111C230.7 221.895 228.438 223.153 226.429 224.825C224.516 226.297 222.898 228.194 221.678 230.396C220.723 232.049 220.303 234.014 220.487 235.967C220.725 237.756 221.585 239.368 222.882 240.459C225.212 242.575 228.5 243.078 232.875 242.186C232.461 245.339 232.163 248.52 232.008 251.759C229.018 252.604 225.907 252.78 222.856 252.277C219.975 251.782 217.248 250.501 214.921 248.549C212.353 246.473 210.553 243.428 209.859 239.984Z"/>
<path d="M258.575 272.128C253.993 268.861 249.708 265.478 245.63 262.052C242.925 263.491 240.336 264.931 237.863 266.529C235.041 264.245 232.305 261.965 229.656 259.691C243.054 251.399 259.429 246.49 276.452 241.078C278.847 243.323 281.307 245.526 283.883 247.642C275.028 260.152 268.142 272.56 267.054 286.61C263.291 284.508 259.71 282.339 256.31 280.103C256.876 277.383 257.633 274.717 258.575 272.128ZM262.148 263.952C264.332 259.749 266.78 255.722 269.475 251.903C264.297 253.789 259.378 255.703 254.614 257.776C257.035 259.892 259.546 261.965 262.148 263.981V263.952Z"/>
<path d="M328.202 271.682C329.114 272.297 329.896 273.123 330.495 274.104C331.093 275.085 331.495 276.199 331.672 277.368C331.716 278.656 331.524 279.94 331.108 281.143C330.692 282.346 330.06 283.442 329.251 284.364C327.276 286.984 324.744 289.012 321.885 290.266C318.51 291.752 314.913 292.514 311.283 292.512C307.114 292.554 302.966 291.849 298.998 290.425C296.314 289.465 293.725 288.467 291.231 287.43C289.296 290.041 287.564 292.829 286.053 295.765C281.794 294.023 277.768 292.166 273.924 290.237C280.228 279.369 290.752 270.199 302.688 260.382C308.139 263.307 313.803 265.715 319.62 267.579C322.665 268.408 325.566 269.795 328.202 271.682ZM310.429 283.99C312.289 283.696 314.007 282.718 315.309 281.212C316.603 279.772 316.914 278.419 316.345 277.224C315.775 276.029 314.248 275.065 311.814 274.244C309.626 273.481 307.503 272.69 305.445 271.84C302.364 274.719 299.465 277.685 296.811 280.636C298.986 281.538 301.225 282.402 303.529 283.227C305.741 284.091 308.107 284.353 310.429 283.99Z"/>
<path d="M343.779 307.857C338.692 305.655 335.339 302.891 333.695 299.752C332.051 296.614 332.401 293.361 334.446 290.007C336.491 286.653 339.999 283.803 344.582 281.255C349.644 278.558 354.945 276.459 360.401 274.993C366.627 273.256 372.969 272.082 379.365 271.48C385.357 270.738 391.409 270.815 397.385 271.711C402.653 272.646 406.718 274.402 409.424 277.21C410.765 278.524 411.726 280.251 412.187 282.172C412.648 284.093 412.587 286.123 412.013 288.006C410.938 292.325 408.064 296.643 403.326 300.371C397.922 304.506 391.88 307.497 385.501 309.196C378.183 311.25 370.635 312.118 363.093 311.773C356.505 311.665 349.978 310.342 343.779 307.857ZM375.689 301.336C378.744 300.47 381.637 299.008 384.232 297.017C386.318 295.498 387.939 293.309 388.88 290.741C389.272 289.804 389.434 288.767 389.347 287.738C389.261 286.708 388.93 285.722 388.388 284.882C387.023 283.102 385.149 281.898 383.08 281.47C380.22 280.752 377.279 280.519 374.356 280.78C371.095 280.974 367.862 281.553 364.712 282.507C361.848 283.349 359.097 284.607 356.53 286.25C354.418 287.495 352.633 289.331 351.352 291.576C350.843 292.375 350.546 293.316 350.493 294.293C350.44 295.27 350.635 296.243 351.055 297.104C352.234 299.061 354 300.49 356.038 301.134C358.986 302.24 362.079 302.789 365.19 302.761C368.732 302.828 372.265 302.348 375.689 301.336Z"/>
<path d="M522.25 264.542C526.03 265.736 527.998 268.14 527.998 271.739C527.998 277.094 523.583 282.608 515.053 287.704C506.522 292.8 494.768 296.902 480.528 299.695C461.331 303.481 443.661 306.245 427.376 308.116C428.373 292.656 431.583 277.325 435.985 261.231C449.875 257.416 464.994 252.594 481.486 246.706C493.719 242.301 503.816 239.508 511.182 239.321C518.548 239.134 522.522 241.336 522.47 246.303C522.47 249.182 521.02 252.277 518.185 255.415C514.638 259.115 510.583 262.162 506.172 264.441C513.046 263.361 518.483 263.347 522.25 264.542ZM457.836 274.086C463.816 272.56 469.987 270.899 476.347 269.105C484.865 266.686 489.473 263.491 489.706 259.863C489.939 256.236 485.732 255.904 477.421 258.568C471.208 260.554 465.167 262.387 459.298 264.067C458.798 267.425 458.31 270.765 457.836 274.086ZM493.654 280.031C493.81 276.245 489.137 275.712 480.166 278.073C472.036 280.175 464.196 282.065 456.645 283.745C456.274 287.2 455.959 290.64 455.7 294.066C463.372 292.598 471.329 290.938 479.57 289.086C488.723 287.027 493.59 283.889 493.693 280.031H493.654Z"/>
<path d="M55.7604 328.73C57.6633 315.357 59.9678 302.819 62.5179 290.972C55.4241 303.568 48.7441 316.739 42.4658 330.055C40.058 331.581 37.6029 333.159 35.1002 334.791C31.2678 328.621 26.5897 323.156 21.2361 318.596C20.3731 329.498 19.5707 340.631 18.8285 351.993C13.4175 355.698 7.808 359.647 2 363.84V303.38C8.77456 298.716 15.2944 294.321 21.5597 290.194C29.556 295.169 36.5381 301.933 42.0648 310.06C50.9854 292.738 60.8282 276.024 71.5406 260.008C76.4856 257.344 81.2364 254.926 85.7801 252.709C78.4017 275.048 72.8346 298.076 69.1456 321.518C64.8393 323.707 60.3774 326.111 55.7604 328.73Z"/>
<path d="M129.32 248.52C122.66 249.914 116.091 251.799 109.656 254.163C102.911 272.231 97.9284 291.053 94.7954 310.304C90.7134 311.801 86.5019 313.505 82.161 315.415C86.0861 291.527 92.4083 268.205 101.009 245.886C112.141 241.072 123.682 237.522 135.456 235.291C133.333 239.494 131.274 243.899 129.32 248.52Z"/>
<path d="M176.291 237.997C164.485 249.34 154.039 264.182 145.495 283.313C143.333 288.59 140.622 293.567 137.417 298.14C134.66 301.754 131.89 303.769 129.042 304.071C126.753 304.223 124.493 303.44 122.686 301.869C124.412 295.909 126.267 290.213 128.252 284.782C129.298 285.413 130.481 285.712 131.67 285.645C132.803 285.486 133.853 284.902 134.647 283.99C135.858 282.638 136.903 281.113 137.754 279.455C137.457 264.388 138.459 249.325 140.744 234.47C144.479 234 148.235 233.769 151.993 233.779C149.766 243.307 148.216 253.016 147.359 262.814C153.215 252.868 160.096 243.718 167.864 235.55C170.71 236.199 173.523 237.016 176.291 237.997Z"/>
<path d="M188.375 306.403C185.259 301.876 183.152 296.593 182.226 290.986C181.192 285.006 181.454 278.837 182.99 272.992C184.25 267.773 186.739 263.022 190.2 259.23C192.879 256.246 196.361 254.315 200.116 253.731C203.421 253.289 206.755 254.239 209.462 256.394C211.853 258.218 213.779 260.697 215.055 263.592C216.376 266.706 217.174 270.062 217.411 273.496C214.644 274.575 211.945 275.859 209.333 277.339C208.543 272.258 207.106 268.889 204.453 267.09C203.025 266.061 201.29 265.699 199.624 266.082C197.752 266.595 196.088 267.791 194.899 269.479C193.281 271.724 192.132 274.339 191.534 277.138C190.799 280.211 190.614 283.414 190.99 286.567C191.305 289.358 192.191 292.032 193.579 294.383C194.695 296.371 196.33 297.933 198.265 298.86C201.359 300.3 203.948 298.946 206.304 295.463C208.129 299.681 210.187 303.999 212.634 308.419C211.505 311.194 209.541 313.444 207.081 314.781C204.37 315.977 201.351 315.977 198.64 314.781C194.54 313.198 190.963 310.279 188.375 306.403Z"/>
<path d="M246.523 322.67C240.581 320.093 234.872 317.502 229.526 314.968C229.056 318.47 228.84 322.008 228.878 325.549L217.694 320.971C218.781 300.703 226.031 287.862 237.112 278.692C240.098 280.823 243.209 282.939 246.445 285.041C245.862 300.602 251.623 318.51 266.756 340.059C262.082 338.433 257.578 336.792 253.202 335.15C250.787 331.119 248.557 326.953 246.523 322.67ZM241.526 310.247C239.628 304.647 238.367 298.805 237.772 292.857C235.157 296.571 233.094 300.726 231.662 305.165C234.859 306.849 238.134 308.548 241.526 310.247Z"/>
<path d="M303.157 312.435C306.254 314.215 309.039 316.599 311.378 319.474C313.291 321.827 314.534 324.757 314.951 327.895C315.199 329.183 315.176 330.517 314.884 331.793C314.592 333.069 314.039 334.253 313.268 335.251C311.727 337.108 309.281 338.26 305.889 338.605C301.667 338.866 297.436 338.311 293.384 336.964C290.225 336.005 287.14 335.045 284.128 334.085C285.649 338.662 287.489 343.099 289.63 347.358C284.633 345.89 279.8 344.388 275.132 342.852C266.717 324.138 265.979 310.132 270.135 298.313C277.014 301.601 284.044 304.484 291.196 306.95C295.338 308.331 299.344 310.169 303.157 312.435ZM296.594 327.276C297.266 327.028 297.829 326.509 298.174 325.822C298.519 325.134 298.621 324.329 298.458 323.562C298.349 322.58 298.064 321.631 297.619 320.773C297.175 319.915 296.579 319.165 295.869 318.567C293.833 316.838 291.511 315.571 289.035 314.839C286.368 313.918 283.753 312.982 281.268 311.96C280.929 315.937 281.081 319.948 281.72 323.879C284.361 324.839 287.067 325.755 289.837 326.629C292.853 327.708 295.144 327.895 296.594 327.32V327.276Z"/>
<path d="M351.529 358.975C345.189 356.303 339.25 352.581 333.911 347.934C329.225 343.73 326.312 339.469 325.341 335.309C324.823 333.506 324.845 331.565 325.403 329.777C325.96 327.988 327.025 326.45 328.435 325.391C331.4 322.871 335.814 321.245 341.639 320.251C348.418 319.248 355.27 319.002 362.092 319.517C369.6 319.88 377.06 321.037 384.371 322.972C390.525 324.491 396.392 327.2 401.704 330.976C406.286 334.46 409.018 338.505 409.963 343.126C410.448 345.312 410.434 347.599 409.924 349.778C409.413 351.958 408.421 353.961 407.037 355.606C404.164 359.248 399.853 361.983 394.092 363.682C387.433 365.464 380.539 365.893 373.743 364.949C366.126 364.105 358.651 362.094 351.529 358.975ZM378.235 353.101C380.625 352.542 382.782 351.12 384.371 349.056C385.011 348.139 385.442 347.062 385.626 345.919C385.811 344.776 385.745 343.6 385.432 342.492C384.733 339.802 383.248 337.447 381.212 335.798C378.712 333.68 375.881 332.094 372.863 331.12C369.38 329.922 365.782 329.188 362.144 328.932C358.803 328.61 355.438 328.785 352.138 329.45C349.741 329.818 347.492 330.954 345.665 332.718C344.965 333.455 344.471 334.401 344.241 335.443C344.012 336.484 344.057 337.577 344.371 338.591C345.183 341.324 346.734 343.712 348.811 345.429C351.415 347.756 354.339 349.603 357.471 350.899C360.942 352.407 364.584 353.376 368.293 353.778C371.617 354.224 374.985 353.994 378.235 353.101Z"/>
<path d="M522.381 338.347C526.135 340.232 527.999 342.982 527.999 346.552C527.999 351.907 523.87 356.629 516.349 360.299C508.828 363.97 498.368 366.201 485.397 366.82C467.896 367.655 451.494 367.929 436.064 367.727C430.356 352.306 427.334 335.819 427.158 319.143C442.692 317.848 459.455 315.804 477.54 312.91C490.951 310.765 502.07 309.902 510.109 311.01C518.148 312.118 522.355 315.141 522.368 320.093C522.368 322.972 520.957 325.851 518.161 328.428C514.618 331.502 510.599 333.829 506.303 335.295C513.19 335.468 518.679 336.475 522.381 338.347ZM456.271 336.389C462.502 335.89 468.888 335.3 475.43 334.618C484.181 333.711 488.659 331.307 488.478 327.694C488.297 324.081 483.624 322.972 474.77 324.124C468.159 324.988 461.712 325.736 455.429 326.37C455.637 329.709 455.909 333.049 456.271 336.403V336.389ZM495.106 348.855C494.808 345.04 490.006 343.658 481.074 344.536C472.996 345.247 465.16 345.823 457.566 346.264C458.122 349.805 458.769 353.361 459.507 356.96C466.938 356.672 474.562 356.269 482.433 355.75C491.08 355.146 495.378 352.742 495.093 348.87L495.106 348.855Z"/>
<path d="M50.9272 437.673C50.0728 419.737 49.9824 402.938 50.5261 387.146C45.6976 401.469 41.1538 415.663 36.7525 429.007L30.0211 429.655C26.1173 419.77 21.6328 410.181 16.597 400.951C16.2777 413.12 16.1355 425.596 16.17 438.379L2.04679 438.724V378.264C6.92706 374.968 11.6649 371.844 16.2863 368.878C22.6682 377.213 28.0663 387.88 33.8269 401.757C40.2994 383.965 47.1734 365.093 54.7333 346.623C58.7203 344.579 62.6038 342.66 66.3838 340.865C62.9694 372.878 62.5052 405.196 64.9986 437.314L50.9272 437.673Z"/>
<path d="M110.496 346.983C104.015 348.164 97.3614 349.699 90.5351 351.59C89.397 380.152 90.7538 408.77 94.5867 437.04L79.5578 437.199C75.6742 397.871 76.1919 364.359 79.4152 335.352C89.8645 331.129 100.594 327.817 111.506 325.448C110.954 332.329 110.617 339.508 110.496 346.983Z"/>
<path d="M157.286 322.698C153.118 345.606 151.465 373.504 152.328 406.392C152.652 416.987 152.108 425.509 150.257 431.368C148.406 437.227 145.416 440.265 141.312 440.25C138.309 440.25 134.671 438.523 130.594 435.212C129.834 425.826 129.265 416.747 128.885 407.976C130.488 409.137 132.335 409.816 134.244 409.948C134.935 409.916 135.604 409.666 136.172 409.228C136.741 408.79 137.185 408.181 137.455 407.472C138.362 405.119 138.875 402.602 138.969 400.044C127.202 370.505 120.665 345.616 116.962 324.411C121.014 323.692 124.975 323.145 128.872 322.77C131.673 339.441 135.749 355.815 141.053 371.714C141.911 355.047 143.919 338.477 147.06 322.151C150.438 322.195 153.869 322.396 157.286 322.698Z"/>
<path d="M228.039 430.62C219.988 423.953 212.94 415.906 207.159 406.781C200.877 397.135 195.86 386.545 192.259 375.328C188.738 364.359 187.392 355.376 187.508 348.078C187.625 340.779 189.113 335.798 191.534 332.747C193.955 329.695 197.165 328.917 201.139 330.083C205.076 331.434 208.687 333.757 211.702 336.878C215.865 341.007 219.65 345.583 223.003 350.539C222.227 354.469 221.567 358.701 221.049 363.279C215.249 355.419 210.939 351.23 207.12 350.323C206.209 349.999 205.226 350.024 204.33 350.395C203.433 350.766 202.674 351.46 202.175 352.367C201.113 354.267 200.712 357.233 201.126 361.393C201.78 366.641 203.087 371.762 205.01 376.609C207.174 382.502 209.932 388.104 213.23 393.307C216.036 397.861 219.43 401.93 223.301 405.385C226.732 408.35 229.877 409.905 232.596 410.063C237.256 410.351 238.641 405.846 237.23 397.525C243.271 403.792 249.744 410.159 256.648 416.628C258.486 423.566 258.874 429.238 257.437 433.269C256 437.299 252.816 439.459 247.845 439.459C242.201 439.502 235.379 436.508 228.039 430.62Z"/>
<path d="M300.726 416.815C293.296 416.277 285.96 415.759 278.72 415.26C282.258 422.16 286.141 429.463 290.37 437.17L274.836 437.054C254.927 395.812 244.221 366.057 240.752 344.162C244.765 345.467 248.873 346.791 253.076 348.135C270.461 373.255 298.124 402.837 337.775 437.558L321.814 437.429C314.288 430.327 307.259 423.456 300.726 416.815ZM281.309 396.114C272.131 385.894 264.144 376.234 257.257 367.093C260.569 376.379 264.297 385.474 268.428 394.344L281.309 396.114Z"/>
<path d="M322.245 368.994C332.867 374.279 342.452 381.836 350.452 391.234C354.672 396.129 357.636 400.433 359.164 404.118C360.691 407.803 360.808 410.697 359.164 412.669C357.52 414.641 354.361 415.548 349.326 415.059L339.682 414.209C346.517 421.608 354.059 429.468 362.31 437.789L346.918 437.645C315.203 404.075 294.633 377.962 282.4 357.031C290.167 359.205 298.297 361.35 306.827 363.365C312.13 364.635 317.297 366.521 322.245 368.994ZM337.442 395.755C337.546 394.185 336.148 391.781 333.559 388.557C331.089 385.564 328.247 382.98 325.118 380.884C322.22 378.946 319.032 377.601 315.707 376.911C312.756 376.326 309.852 375.726 306.995 375.112C311.798 381.647 317.351 388.643 323.733 396.143L332.458 397.41C335.733 397.914 337.442 397.367 337.442 395.755Z"/>
<path d="M415.439 434.621C406.461 430.753 397.839 425.933 389.692 420.226C381.632 414.75 374.128 408.321 367.31 401.052C361.239 394.415 357.964 389.032 357.239 384.771C356.514 380.51 358.274 377.717 362.235 376.134C366.196 374.55 372.099 374.233 379.776 375.097C387.787 376.005 395.686 377.873 403.336 380.668C410.943 383.354 418.216 387.098 424.98 391.81C430.968 395.966 436.278 401.223 440.682 407.357C444.249 412.041 446.895 417.504 448.449 423.393C449.562 428.273 449.381 432.261 447.556 435.255C445.731 438.249 442.3 439.89 436.527 439.89C430.753 439.89 423.776 438.134 415.439 434.621ZM425.795 421.248C426.857 419.809 426.909 417.75 426.054 415.102C424.784 411.744 422.957 408.682 420.669 406.076C417.888 402.644 414.72 399.625 411.245 397.093C407.717 394.505 403.934 392.374 399.97 390.745C396.356 389.218 392.579 388.216 388.734 387.765C385.2 387.391 382.546 387.765 380.85 388.758C379.155 389.751 378.572 391.508 379.232 393.955C379.892 396.402 381.821 399.396 385.07 402.995C388.54 406.788 392.358 410.165 396.462 413.072C400.435 415.942 404.649 418.376 409.045 420.341C412.433 421.947 416.037 422.92 419.711 423.22C422.74 423.364 424.708 422.688 425.782 421.248H425.795Z"/>
<path d="M524.212 412.511C525.429 413.56 526.405 414.914 527.062 416.463C527.719 418.011 528.037 419.71 527.992 421.422C527.954 423.945 527.357 426.42 526.256 428.627C525.154 430.833 523.581 432.705 521.675 434.075C517.791 437.156 512.807 438.681 505.765 438.681L477.221 438.595C460.639 417.103 448.924 397.929 440.975 380.179C454.93 380.553 469.679 380.553 485.221 380.179C496.755 379.891 506.387 380.741 513.222 383.058C520.057 385.376 523.461 389.075 523.578 394.056C523.605 395.508 523.365 396.952 522.87 398.296C522.376 399.641 521.639 400.858 520.704 401.873C518.413 404.378 515.617 406.239 512.548 407.3C517.7 408.437 521.61 410.136 524.212 412.511ZM474.309 402.823C479.133 402.909 484.039 402.957 489.027 402.967C495.642 402.967 498.581 401.038 497.752 397.209C496.924 393.38 492.846 391.595 485.623 391.652C480.238 391.652 474.952 391.652 469.765 391.652C471.163 395.347 472.678 399.071 474.309 402.823ZM506.943 420.212C505.998 416.182 502.348 414.195 496.069 414.152C490.438 414.152 484.872 414.037 479.409 413.922C481.359 417.952 483.448 422.041 485.675 426.186C490.529 426.273 495.409 426.33 500.354 426.388C505.726 426.431 507.94 424.344 506.943 420.212Z"/>
</mask>
<path d="M88.1571 62.4902C83.4734 52.2096 78.1217 42.3226 72.1442 32.908C71.1604 41.0989 68.0794 48.9155 63.3027 56.8041C59.5745 56.8041 55.7946 56.8041 51.9628 56.8041C42.0754 49.3471 32.5435 41.3229 23.4061 32.764C25.5204 42.9559 27.2724 53.0325 28.6618 62.9941C20.0318 63.3587 11.1601 63.8386 2.04679 64.4336V3.97352H14.9918C24.3769 15.6481 37.2831 27.2794 51.2379 38.5221C55.9927 27.8073 56.7917 15.4498 53.4644 4.08868H66.306C86.3708 26.4301 100.52 45.8349 110.047 63.3683C102.962 62.9941 95.6652 62.7013 88.1571 62.4902Z" stroke="#A5D936" stroke-width="4" mask="url(#path-1-outside-1_740_1882)"/>
<path d="M139.535 21.7514C130.758 21.1948 121.826 20.6766 112.738 20.1967C130.059 37.8885 142.836 53.2194 151.91 66.9093C145.23 66.132 138.326 65.441 131.198 64.8364C120.493 47.3462 104.363 27.5527 81.2175 4.16042C94.6544 4.218 108.057 4.28997 121.425 4.37634C127.923 10.4415 133.96 16.2332 139.535 21.7514Z" stroke="#A5D936" stroke-width="4" mask="url(#path-1-outside-1_740_1882)"/>
<path d="M185.762 4.80829C202.85 31.0508 213.4 50.7867 218.603 66.3624C220.299 71.3719 219.963 74.5389 218.112 76.2951C216.261 78.0514 213.024 78.3105 208.558 77.3604C204.399 76.3593 200.33 74.9378 196.403 73.1138C194.896 69.1578 193.167 65.3115 191.225 61.5976C193.447 62.4941 195.728 63.2015 198.047 63.7137C199.196 64.115 200.441 64.0013 201.516 63.397C202.15 62.8356 202.319 61.7991 201.956 60.2444C181.853 43.1428 157.089 24.4866 128.597 4.47721L144.895 4.57796C164.053 18.8293 181.141 32.2888 196.092 44.8847C188.432 30.8903 179.961 17.4648 170.733 4.69313L185.762 4.80829Z" stroke="#A5D936" stroke-width="4" mask="url(#path-1-outside-1_740_1882)"/>
<path d="M290.838 96.0022C285.212 90.874 279.954 85.267 275.11 79.2317C269.002 71.753 263.259 63.9155 257.906 55.7531C252.407 47.7542 247.551 39.2329 243.395 30.2879C239.887 22.3273 238.139 15.5903 238.812 10.5664C239.485 5.54245 242.592 2.74976 248.301 2.74976C253.259 2.74976 259.175 4.7795 265.673 8.88215C272.974 13.6508 279.651 19.5116 285.518 26.3004C286.113 32.6439 286.575 38.6323 286.903 44.2657C279.032 35.4126 272.146 30.6478 267.485 30.3599C264.702 30.1583 263.097 31.3243 262.618 33.714C262.139 36.1036 262.825 39.4721 264.495 43.7906C266.573 48.8161 269.037 53.6324 271.861 58.1859C274.743 63.0138 277.886 67.6432 281.272 72.0485C283.95 75.5974 286.938 78.8426 290.191 81.7365C292.447 83.8826 295.098 85.4548 297.958 86.343C301.945 87.3363 304.003 84.9035 303.744 78.2817C308.569 83.8478 313.009 89.3132 317.065 94.6778C316.845 99.5003 315.537 102.624 313.388 104.308C311.239 105.993 308.314 106.108 304.586 104.884C300.301 103.358 295.835 100.422 290.838 96.0022Z" stroke="#A5D936" stroke-width="4" mask="url(#path-1-outside-1_740_1882)"/>
<path d="M352.092 99.385C346.5 98.5933 340.894 97.6288 335.263 96.5059C335.773 102.331 336.049 107.825 336.092 112.989C332.454 112.024 328.778 110.973 325.063 109.879C324.221 84.5147 317.075 50.5707 302.331 5.52795H317.36C346.059 51.3768 361.451 88.6317 368.636 119.38C365.002 118.958 361.369 118.43 357.736 117.797C356.156 111.866 354.267 105.733 352.092 99.385ZM343.729 77.7921C338.226 65.2067 332.12 52.958 325.438 41.0986C328.558 53.9104 330.953 65.6713 332.674 76.4821C336.377 76.9908 340.062 77.4274 343.729 77.7921Z" stroke="#A5D936" stroke-width="4" mask="url(#path-1-outside-1_740_1882)"/>
<path d="M389.229 11.6459C394.099 16.2382 398.017 21.9499 400.711 28.3876C403.969 35.9668 406.11 44.0787 407.054 52.4132C408.119 59.8982 408.04 67.5292 406.821 74.985C406.045 80.254 404.061 85.2118 401.061 89.3803C399.898 90.9723 398.444 92.2698 396.794 93.1859C395.144 94.102 393.337 94.6155 391.494 94.6921C389.1 94.7929 386.705 94.8505 384.323 94.8649C385.144 103.352 385.576 111.88 385.617 120.416C382.045 120.416 378.511 120.229 374.99 119.97C373.941 89.5674 366.692 52.2117 350.459 5.55671H375.119C380.315 5.70754 385.302 7.85983 389.229 11.6459ZM393.436 65.9736C394.368 63.0082 394.485 58.776 393.604 53.205C393.003 48.4853 391.469 43.9724 389.112 39.9902C388.325 38.5666 387.229 37.3864 385.923 36.5587C384.618 35.731 383.146 35.2823 381.643 35.2541C379.054 35.2541 376.465 35.3405 373.876 35.3693C376.957 47.8452 379.395 59.6253 381.19 70.7096C383.507 70.7096 385.824 70.6233 388.142 70.5513C389.362 70.5585 390.55 70.1119 391.516 69.2825C392.483 68.4531 393.172 67.2885 393.475 65.9736H393.436Z" stroke="#A5D936" stroke-width="4" mask="url(#path-1-outside-1_740_1882)"/>
<path d="M427.5 110.642C424.212 107.418 421.74 102.12 419.733 94.5483C417.523 85.4408 416.143 76.1086 415.616 66.6934C414.724 56.1845 414.802 45.6015 415.85 35.1103C416.976 25.2783 419.163 17.2313 422.801 11.4157C426.438 5.59998 431.177 2.77851 436.937 2.77851C442.698 2.77851 448.212 5.58559 453.157 10.6095C458.352 16.0265 462.341 22.7146 464.807 30.1439C467.613 38.4139 468.912 47.222 468.626 56.0553C468.479 64.9289 466.915 73.7026 464.005 81.9668C461.464 89.3759 457.78 96.2349 453.118 102.235C448.756 107.734 444.16 111.376 439.448 112.989C434.736 114.601 430.801 113.867 427.5 110.642ZM447.552 86.0695C449.799 82.7422 451.479 78.9854 452.51 74.9851C453.849 70.0317 454.516 64.884 454.49 59.7117C454.581 54.5783 453.916 49.463 452.523 44.5679C451.495 40.713 449.659 37.1851 447.164 34.2753C446.253 33.1619 445.131 32.2864 443.88 31.7115C442.629 31.1366 441.279 30.8766 439.927 30.95C438.57 31.1273 437.27 31.656 436.13 32.4935C434.99 33.331 434.043 34.454 433.364 35.7724C431.322 39.4871 429.999 43.635 429.481 47.9508C428.705 53.5449 428.466 59.215 428.769 64.8652C428.904 70.1098 429.573 75.3205 430.762 80.3977C431.85 84.6443 433.222 87.6673 434.982 89.5531C435.743 90.4484 436.712 91.0918 437.781 91.4119C438.85 91.7321 439.979 91.7165 441.041 91.3669C443.678 90.4505 445.968 88.5875 447.552 86.0695Z" stroke="#A5D936" stroke-width="4" mask="url(#path-1-outside-1_740_1882)"/>
<path d="M525.345 39.4431C527.092 41.0986 527.934 43.5746 527.934 47.1446C527.934 52.4708 525.863 57.9554 521.617 63.8575C516.754 70.3733 510.801 75.7799 504.089 79.7786C494.264 85.7671 484.982 90.9925 476.167 95.4983C479.318 65.4018 480.115 35.0579 478.549 4.80814C487.325 4.69298 496.102 4.55863 504.879 4.40508C511.351 4.31871 516.529 6.00295 520.05 8.72366C521.78 9.96535 523.185 11.691 524.126 13.7274C525.067 15.7638 525.509 18.0395 525.41 20.3262C525.4 23.3731 524.725 26.3718 523.442 29.0641C522.009 32.0795 520.092 34.7776 517.785 37.0247C520.485 36.7863 523.171 37.6456 525.345 39.4431ZM493.772 39.659C496.931 38.6994 500.115 37.7397 503.325 36.78C507.597 35.3405 509.798 32.2167 509.901 27.3367C510.005 22.4567 507.83 20.3694 503.546 21.1036C500.335 21.6794 497.151 22.2408 493.966 22.759C493.966 28.4787 493.901 34.1121 493.772 39.659ZM511.623 54.5869C511.804 49.8797 509.604 48.5409 505.151 50.4843C501.129 52.2501 497.155 53.9295 493.228 55.5226C492.987 61.0984 492.672 66.5686 492.283 71.9332C496.253 69.9563 500.301 67.8594 504.426 65.6425C508.995 63.1521 511.455 59.4237 511.623 54.5869Z" stroke="#A5D936" stroke-width="4" mask="url(#path-1-outside-1_740_1882)"/>
<path d="M102.133 123.641C102.015 115.165 101.148 106.722 99.5437 98.4349C92.7087 105.633 84.7736 113.204 76.1004 121.467C71.725 121.957 67.2589 122.518 62.7152 123.108C53.1747 117.062 43.0386 110.685 32.7991 103.92C33.3773 113.651 33.7096 123.339 33.7959 132.984C23.6298 134.826 13.0623 136.928 2.09357 139.289V78.8286C10.8185 78.0321 19.3107 77.3699 27.5696 76.842C41.1619 87.0627 55.4011 96.6355 68.7474 105.546C79.686 94.6058 88.9031 84.7163 95.5309 75.0139C102.495 75.1098 109.266 75.3065 115.842 75.604C123.207 92.3457 126.275 107.49 126.327 122.144C118.586 122.432 110.521 122.931 102.133 123.641Z" stroke="#A5D936" stroke-width="4" mask="url(#path-1-outside-1_740_1882)"/>
<path d="M196.127 94.4621C186.198 92.6195 175.648 91.0216 164.373 89.7548C169.356 101.717 171.143 112.442 170.586 122.634C163.725 122.159 156.554 121.871 149.02 121.784C149.343 107.95 146.185 93.4544 137.977 76.9718C157.291 78.5121 174.819 80.8298 190.832 83.7088C192.785 87.1746 194.553 90.7653 196.127 94.4621Z" stroke="#A5D936" stroke-width="4" mask="url(#path-1-outside-1_740_1882)"/>
<path d="M257.733 100.825C257.448 113.133 252.905 121.899 245.358 129.284C242.801 131.69 239.633 133.149 236.296 133.459C232.445 133.892 228.554 133.546 224.814 132.437C221.461 131.468 218.191 130.177 215.04 128.579C216.695 126.429 218.201 124.143 219.545 121.741C221.413 122.59 223.328 123.302 225.28 123.872C226.619 124.279 228.011 124.43 229.396 124.318C230.559 124.201 231.674 123.75 232.633 123.008C225.461 111.492 214.354 99.0541 199.299 85.3354C205.603 86.5734 211.675 87.9122 217.526 89.3085C225.51 97.3369 232.803 106.175 239.312 115.709C242.434 109.877 243.993 103.175 243.804 96.391C248.602 97.8305 253.245 99.3084 257.733 100.825Z" stroke="#A5D936" stroke-width="4" mask="url(#path-1-outside-1_740_1882)"/>
<path d="M296.14 163.919C294.275 160.236 292.963 156.239 292.256 152.086C291.463 147.642 291.137 143.111 291.285 138.584C291.232 134.366 291.809 130.168 292.994 126.16C293.423 124.567 294.136 123.087 295.09 121.806C296.044 120.525 297.22 119.47 298.547 118.704C301.136 117.264 304.541 117.264 308.592 118.92C312.334 120.448 315.731 122.865 318.547 126.002C321.708 129.479 324.24 133.599 326.003 138.137C324.159 140.649 322.137 142.993 319.958 145.148C317.9 139.39 314.858 135.69 311.531 134.092C310.752 133.642 309.9 133.367 309.025 133.283C308.15 133.199 307.268 133.307 306.431 133.603C305.686 133.953 305.012 134.468 304.451 135.116C303.89 135.764 303.454 136.533 303.169 137.374C302.346 139.605 301.878 141.977 301.783 144.385C301.581 146.998 301.677 149.629 302.068 152.216C302.408 154.557 303.137 156.807 304.217 158.852C305.223 160.758 306.626 162.368 308.308 163.545C309.663 164.565 311.28 165.067 312.914 164.976C314.549 164.885 316.112 164.206 317.369 163.041C318.43 166.744 319.294 170.512 319.958 174.327C317.508 176.026 314.627 176.789 311.751 176.501C308.768 176.138 305.923 174.907 303.505 172.931C300.465 170.59 297.946 167.507 296.14 163.919Z" stroke="#A5D936" stroke-width="4" mask="url(#path-1-outside-1_740_1882)"/>
<path d="M345.364 188.78C341.39 186.764 337.48 184.461 333.532 181.985C331.39 184.663 329.089 187.178 326.645 189.514C324.056 187.657 321.467 185.699 318.878 183.684C331.214 172.758 340.211 157.125 343.991 133.545C347.202 134.582 350.399 135.541 353.584 136.424C358.956 163.775 356.354 185.368 350.723 203.506C347.892 202.345 345.122 201.035 342.412 199.576C343.572 196.04 344.558 192.436 345.364 188.78ZM347.512 176.27C348.285 169.158 348.415 161.977 347.901 154.836C345.866 161.033 343.213 166.958 339.991 172.499C342.503 173.837 345.001 175.104 347.512 176.27Z" stroke="#A5D936" stroke-width="4" mask="url(#path-1-outside-1_740_1882)"/>
<path d="M399.147 144.471C401.456 147.061 402.876 150.468 403.16 154.101C403.608 158.983 403.118 163.914 401.723 168.569C400.405 173.558 398.291 178.243 395.484 182.402C393.139 185.906 390.18 188.844 386.785 191.04C383.984 192.907 380.754 193.827 377.49 193.688C375.549 193.559 373.607 193.357 371.769 193.098C369.581 198.054 367.13 202.861 364.429 207.493C361.48 206.928 358.562 206.174 355.691 205.233C365.685 188.477 372.96 167.662 374.694 140.455C380.095 141.083 385.525 141.333 390.953 141.203C392.447 141.108 393.942 141.348 395.349 141.91C396.757 142.471 398.049 143.342 399.147 144.471ZM387.575 177.206C389.357 175.066 390.637 172.47 391.303 169.648C392.158 167.135 392.289 164.388 391.678 161.788C391.381 160.891 390.825 160.128 390.096 159.62C389.368 159.112 388.508 158.888 387.652 158.981C385.827 158.981 384.028 158.981 382.228 158.823C380.944 165.785 379.214 172.635 377.05 179.322C378.772 179.495 380.507 179.624 382.228 179.696C383.227 179.727 384.221 179.52 385.143 179.091C386.064 178.662 386.893 178.019 387.575 177.206Z" stroke="#A5D936" stroke-width="4" mask="url(#path-1-outside-1_740_1882)"/>
<path d="M404.757 202.815C402.245 201.131 401.184 198.065 401.274 193.559C401.365 189.053 402.569 183.482 404.821 176.688C407.016 169.76 409.735 163.051 412.951 156.635C415.934 150.471 419.638 144.774 423.967 139.692C427.592 135.334 432.114 132.02 437.145 130.033C441.831 128.277 445.909 128.334 449.287 130.033C451.008 130.946 452.528 132.267 453.74 133.903C454.952 135.54 455.828 137.452 456.304 139.505C457.598 144.082 457.482 149.725 455.825 156.52C454.023 163.653 451.066 170.361 447.1 176.313C442.967 182.634 438.031 188.254 432.446 192.998C427.59 197.252 422.106 200.535 416.239 202.7C411.048 204.471 407.242 204.471 404.757 202.815ZM429.352 183.641C432.022 181.134 434.366 178.227 436.316 175.004C438.385 171.65 439.983 167.966 441.054 164.078C442.039 160.943 442.384 157.604 442.064 154.303C441.989 153.222 441.695 152.173 441.204 151.236C440.713 150.299 440.038 149.497 439.229 148.891C438.359 148.404 437.402 148.139 436.428 148.114C435.454 148.089 434.488 148.305 433.598 148.747C431.084 149.833 428.82 151.53 426.97 153.713C424.634 156.386 422.615 159.38 420.964 162.624C419.116 166.157 417.585 169.884 416.394 173.751C415.315 176.824 414.694 180.072 414.556 183.367C414.556 185.901 415.177 187.599 416.446 188.506C417.715 189.413 419.54 189.428 421.922 188.506C424.645 187.404 427.164 185.754 429.352 183.641Z" stroke="#A5D936" stroke-width="4" mask="url(#path-1-outside-1_740_1882)"/>
<path d="M524.404 115.652C526.735 116.357 527.99 118.43 527.99 122C527.99 127.341 525.129 133.66 519.278 140.714C512.321 148.715 504.322 155.508 495.55 160.867C482.501 169.144 470.579 176.184 459.628 182.115C465.763 159.849 470.521 137.143 473.867 114.155C482.437 109.332 491.511 103.79 501.181 97.4273C508.353 92.72 514.126 90.2296 518.32 89.9561C522.515 89.6826 524.793 91.9283 524.715 97.0098C524.561 100.446 523.65 103.788 522.062 106.741C520.022 110.698 517.505 114.326 514.579 117.523C518.774 115.608 522.074 114.961 524.404 115.652ZM485.298 132.926C488.991 130.536 492.776 128.027 496.65 125.397C501.828 121.842 504.806 117.797 505.168 113.55C505.531 109.303 503.123 108.929 498.178 112.283C494.467 114.788 490.843 117.187 487.304 119.481C486.657 124.03 485.997 128.521 485.298 132.94V132.926ZM506.01 136.266C506.398 132.033 503.602 131.947 497.971 135.834C492.853 139.298 487.921 142.556 483.175 145.608C482.398 150.071 481.6 154.461 480.78 158.78C485.777 155.69 490.955 152.369 496.314 148.818C502.32 144.903 505.725 140.599 506.036 136.28L506.01 136.266Z" stroke="#A5D936" stroke-width="4" mask="url(#path-1-outside-1_740_1882)"/>
<path d="M93.3739 181.726C95.6393 173.19 97.5553 164.869 99.0051 156.621C89.9436 164.812 80.4418 173.78 70.9401 183.655C66.9272 184.864 62.8196 186.155 58.6168 187.527C51.0569 182.907 42.4743 178.185 33.0244 173.132C32.5973 182.82 32.0276 192.537 31.3286 202.34C21.9823 205.91 12.2216 209.821 2.04679 214.072V153.612C11.885 151.146 21.378 148.91 30.5258 146.904C44.2864 154.706 56.8561 161.832 67.5746 168.612C80.3902 155.757 92.8434 144.486 104.248 134.409C111.601 133.593 118.677 132.95 125.478 132.48C124.183 146.976 120.196 161.271 114.811 176.328C108.028 177.883 100.882 179.682 93.3739 181.726Z" stroke="#A5D936" stroke-width="4" mask="url(#path-1-outside-1_740_1882)"/>
<path d="M196.826 142.787C187.023 141.428 177.163 140.65 167.286 140.455C164.244 150.272 159.363 159.989 153.499 170.296C147.605 170.786 141.378 171.548 134.819 172.585C141.292 158.406 146.341 145.162 148.231 131.573C165.478 131.201 182.726 132.327 199.816 134.941C198.989 137.633 197.99 140.254 196.826 142.787Z" stroke="#A5D936" stroke-width="4" mask="url(#path-1-outside-1_740_1882)"/>
<path d="M258.683 153.814C248.21 159.342 235.615 164.02 222.049 169.735C218.01 171.481 213.799 172.689 209.505 173.334C205.848 173.918 202.132 173.869 198.488 173.19C196.002 172.67 193.593 171.769 191.33 170.512C194.437 168.281 197.505 166.122 200.495 164.034C201.888 164.702 203.336 165.217 204.819 165.575C206.097 165.857 207.405 165.93 208.702 165.791C210.191 165.601 211.655 165.22 213.065 164.653C214.022 155.455 212.508 146.199 207.641 136.324C213.479 137.461 218.994 138.785 224.21 140.253C226.019 146.388 226.589 152.891 225.88 159.298C233.647 155.584 240.754 152.101 247.058 148.315C251.162 150.057 255.006 151.899 258.683 153.814Z" stroke="#A5D936" stroke-width="4" mask="url(#path-1-outside-1_740_1882)"/>
<path d="M257.464 202.21C257.12 198.808 257.803 195.374 259.405 192.45C261.317 188.841 263.888 185.717 266.952 183.281C270.132 180.521 273.732 178.419 277.58 177.076C281.147 175.787 284.923 175.37 288.648 175.853C292.259 176.322 295.694 177.846 298.603 180.272C301.011 182.163 302.894 184.766 304.04 187.786C305.066 190.698 305.211 193.901 304.454 196.913C301.123 197.364 297.753 197.7 294.344 197.921C295.418 193.904 294.577 190.723 292.104 188.477C290.646 187.168 288.889 186.335 287.03 186.073C285.017 185.793 282.973 186.019 281.049 186.735C278.875 187.518 276.833 188.695 275.004 190.219C273.242 191.574 271.726 193.289 270.538 195.272C269.59 196.796 269.133 198.633 269.244 200.483C269.444 202.284 270.248 203.934 271.496 205.104C273.774 207.436 277.231 208.386 281.852 207.824C281.205 210.847 280.48 213.856 279.729 216.836C276.372 217.295 272.966 217.007 269.71 215.987C266.753 215.044 264.038 213.337 261.787 211.006C259.445 208.745 257.911 205.624 257.464 202.21Z" stroke="#A5D936" stroke-width="4" mask="url(#path-1-outside-1_740_1882)"/>
<path d="M302.856 236.96C299.076 233.995 295.49 230.799 291.995 227.474C288.75 228.693 285.488 229.863 282.209 230.986C279.84 228.64 277.522 226.236 275.218 223.789C292.331 218.592 309.238 212.661 323.697 202.383C326.105 204.225 328.526 205.967 330.985 207.608C323.982 223.904 314.157 237.407 305.95 250.146C302.946 248.318 300.086 246.346 297.328 244.273L302.856 236.96ZM308.901 228.827C311.943 224.508 314.934 220.19 317.717 215.511C312.724 218.399 307.594 220.984 302.351 223.256C304.487 225.185 306.662 227.042 308.966 228.827H308.901Z" stroke="#A5D936" stroke-width="4" mask="url(#path-1-outside-1_740_1882)"/>
<path d="M369.484 223.415C370.229 224.204 370.778 225.194 371.077 226.288C371.376 227.383 371.416 228.545 371.193 229.662C370.509 232.991 369.054 236.063 366.973 238.573C364.515 241.85 361.552 244.614 358.222 246.735C354.915 248.855 351.301 250.317 347.542 251.053C343.997 251.795 340.353 251.717 336.837 250.823C334.67 250.247 332.582 249.6 330.571 248.88C327.374 251.903 324.202 254.796 321.083 257.603C317.774 256.36 314.529 254.918 311.361 253.285C323.801 243.05 336.992 231.62 348.125 216.678C352.84 218.464 357.7 219.736 362.636 220.478C365.136 220.651 367.527 221.676 369.484 223.415ZM350.377 241.898C352.456 241.025 354.313 239.602 355.788 237.752C357.393 235.794 358.079 234.168 357.898 232.901C357.717 231.634 356.604 230.843 354.584 230.439C352.785 230.08 351.024 229.662 349.315 229.187C345.885 233.319 342.364 237.176 338.804 240.847C340.565 241.409 342.377 241.927 344.254 242.388C346.294 242.89 348.422 242.72 350.377 241.898Z" stroke="#A5D936" stroke-width="4" mask="url(#path-1-outside-1_740_1882)"/>
<path d="M369.173 262.181C365.807 260.641 364.28 258.266 364.357 255.128C364.435 251.989 366.195 248.376 369.341 244.13C372.816 239.578 376.722 235.456 380.991 231.836C385.557 227.84 390.415 224.277 395.516 221.183C400.475 218.133 405.73 215.718 411.179 213.986C416.539 212.302 421.095 211.668 424.875 212.302C428.655 212.935 431.348 214.662 432.759 217.685C434.17 220.708 434.053 224.782 432.124 229.878C429.738 235.693 426.197 240.832 421.768 244.907C416.48 249.984 410.52 254.126 404.098 257.186C397.718 260.342 390.952 262.428 384.021 263.376C377.458 264.197 372.526 263.707 369.173 262.181ZM399.063 250.118C402.132 248.515 404.989 246.452 407.555 243.986C409.882 241.785 411.83 239.132 413.302 236.155C414.597 233.391 415.05 231.131 414.674 229.374C414.496 228.535 414.105 227.77 413.548 227.17C412.99 226.57 412.289 226.161 411.529 225.992C409.348 225.51 407.094 225.634 404.966 226.351C402.144 227.157 399.426 228.356 396.875 229.921C394.117 231.582 391.515 233.544 389.108 235.78C386.794 237.881 384.728 240.3 382.959 242.978C381.302 245.511 380.448 247.613 380.461 249.341C380.45 250.164 380.683 250.969 381.122 251.631C381.562 252.294 382.184 252.779 382.895 253.011C385.143 253.783 387.533 253.897 389.833 253.342C393.031 252.759 396.139 251.674 399.063 250.118Z" stroke="#A5D936" stroke-width="4" mask="url(#path-1-outside-1_740_1882)"/>
<path d="M523.146 190.507C524.541 190.646 525.831 191.39 526.737 192.578C527.643 193.766 528.092 195.302 527.988 196.855C527.988 202.21 524.169 208.372 516.583 214.878C508.997 221.385 498.383 227.431 485.813 232.556C468.868 239.451 453.45 245.079 439.314 249.556C444.195 233.045 449.994 215.555 455.638 196.208C466.564 190.694 478.447 184.159 491.405 176.472C501.023 170.714 508.894 167.115 514.706 166.165C520.518 165.215 523.651 167.072 523.561 172.081C523.561 174.96 522.331 178.257 519.975 181.798C517.087 185.886 513.692 189.497 509.891 192.522C515.496 190.565 519.962 189.83 523.146 190.507ZM470.434 208.674C475.319 206.313 480.363 203.794 485.567 201.116C492.544 197.532 496.454 193.631 496.881 189.787C497.308 185.944 494.02 186.016 487.366 189.715C482.378 192.47 477.546 195.066 472.868 197.503C472.057 201.275 471.245 204.998 470.434 208.674ZM498.693 210.3C499.069 206.385 495.276 206.457 487.755 210.128C480.946 213.429 474.4 216.481 468.117 219.283C467.306 223.036 466.512 226.754 465.735 230.439C472.268 227.772 479.077 224.864 486.162 221.716C494.072 218.247 498.357 214.302 498.693 210.3Z" stroke="#A5D936" stroke-width="4" mask="url(#path-1-outside-1_740_1882)"/>
<path d="M73.9149 246.764C76.8534 236.529 79.8308 226.812 82.6787 217.469C73.5503 228.067 64.9093 239.17 56.7887 250.737C53.6042 252.445 50.3463 254.23 47.0151 256.092C41.0255 251.288 34.6309 247.142 27.9212 243.712C27.0151 253.789 26.0572 263.995 25.0993 274.374C17.7465 278.894 10.0571 283.764 2.03119 288.985V228.525C10.8511 224.456 19.3302 220.67 27.4683 217.167C38.9894 222.925 48.4782 228.554 56.0381 234.614C67.2528 219.786 79.3305 205.793 92.1934 192.724C98.571 190.728 104.677 188.957 110.51 187.412C104.569 203.017 97.5655 219.729 90.7953 238.688C85.449 241.092 79.8437 243.77 73.9149 246.764Z" stroke="#A5D936" stroke-width="4" mask="url(#path-1-outside-1_740_1882)"/>
<path d="M166.328 187.297C158.232 187.435 150.153 188.175 142.146 189.514C135.402 200.8 128.179 213.093 121.331 227.1C116.662 228.491 111.738 230.171 106.56 232.138C114.457 213.597 122.767 197.59 129.926 182.892C144.161 179.868 158.632 178.421 173.124 178.573C170.91 181.438 168.632 184.317 166.328 187.297Z" stroke="#A5D936" stroke-width="4" mask="url(#path-1-outside-1_740_1882)"/>
<path d="M220.825 190.623C206.038 196.045 191.912 203.481 178.767 212.762C174.991 215.597 171.012 218.081 166.871 220.19C163.892 221.776 160.645 222.64 157.343 222.724C155.375 222.693 153.45 222.082 151.764 220.953C154.819 217.441 157.93 214.082 161.097 210.877C162.149 211.397 163.275 211.709 164.424 211.798C165.581 211.833 166.733 211.618 167.816 211.165C169.272 210.551 170.669 209.774 171.984 208.847C175.479 197.863 178.521 188.132 179.609 178.862C184.144 179.175 188.66 179.766 193.136 180.632C190.884 187.269 188.33 193.774 185.486 200.123C193.888 194.813 202.597 190.129 211.557 186.102C214.712 187.436 217.806 188.944 220.825 190.623Z" stroke="#A5D936" stroke-width="4" mask="url(#path-1-outside-1_740_1882)"/>
<path d="M209.859 239.984C209.169 236.312 209.625 232.488 211.154 229.144C213.068 224.919 215.881 221.277 219.348 218.535C223.035 215.404 227.247 213.124 231.736 211.826C235.777 210.604 240.008 210.373 244.137 211.15C247.715 211.783 251.049 213.564 253.73 216.275C255.763 218.176 257.135 220.808 257.608 223.716C258.08 226.623 257.625 229.623 256.319 232.196C252.707 232.196 249.108 232.109 245.536 232.196C247.024 228.395 246.739 225.344 244.513 223.069C243.136 221.691 241.417 220.808 239.581 220.536C237.411 220.193 235.201 220.39 233.108 221.111C230.7 221.895 228.438 223.153 226.429 224.825C224.516 226.297 222.898 228.194 221.678 230.396C220.723 232.049 220.303 234.014 220.487 235.967C220.725 237.756 221.585 239.368 222.882 240.459C225.212 242.575 228.5 243.078 232.875 242.186C232.461 245.339 232.163 248.52 232.008 251.759C229.018 252.604 225.907 252.78 222.856 252.277C219.975 251.782 217.248 250.501 214.921 248.549C212.353 246.473 210.553 243.428 209.859 239.984Z" stroke="#A5D936" stroke-width="4" mask="url(#path-1-outside-1_740_1882)"/>
<path d="M258.575 272.128C253.993 268.861 249.708 265.478 245.63 262.052C242.925 263.491 240.336 264.931 237.863 266.529C235.041 264.245 232.305 261.965 229.656 259.691C243.054 251.399 259.429 246.49 276.452 241.078C278.847 243.323 281.307 245.526 283.883 247.642C275.028 260.152 268.142 272.56 267.054 286.61C263.291 284.508 259.71 282.339 256.31 280.103C256.876 277.383 257.633 274.717 258.575 272.128ZM262.148 263.952C264.332 259.749 266.78 255.722 269.475 251.903C264.297 253.789 259.378 255.703 254.614 257.776C257.035 259.892 259.546 261.965 262.148 263.981V263.952Z" stroke="#A5D936" stroke-width="4" mask="url(#path-1-outside-1_740_1882)"/>
<path d="M328.202 271.682C329.114 272.297 329.896 273.123 330.495 274.104C331.093 275.085 331.495 276.199 331.672 277.368C331.716 278.656 331.524 279.94 331.108 281.143C330.692 282.346 330.06 283.442 329.251 284.364C327.276 286.984 324.744 289.012 321.885 290.266C318.51 291.752 314.913 292.514 311.283 292.512C307.114 292.554 302.966 291.849 298.998 290.425C296.314 289.465 293.725 288.467 291.231 287.43C289.296 290.041 287.564 292.829 286.053 295.765C281.794 294.023 277.768 292.166 273.924 290.237C280.228 279.369 290.752 270.199 302.688 260.382C308.139 263.307 313.803 265.715 319.62 267.579C322.665 268.408 325.566 269.795 328.202 271.682ZM310.429 283.99C312.289 283.696 314.007 282.718 315.309 281.212C316.603 279.772 316.914 278.419 316.345 277.224C315.775 276.029 314.248 275.065 311.814 274.244C309.626 273.481 307.503 272.69 305.445 271.84C302.364 274.719 299.465 277.685 296.811 280.636C298.986 281.538 301.225 282.402 303.529 283.227C305.741 284.091 308.107 284.353 310.429 283.99Z" stroke="#A5D936" stroke-width="4" mask="url(#path-1-outside-1_740_1882)"/>
<path d="M343.779 307.857C338.692 305.655 335.339 302.891 333.695 299.752C332.051 296.614 332.401 293.361 334.446 290.007C336.491 286.653 339.999 283.803 344.582 281.255C349.644 278.558 354.945 276.459 360.401 274.993C366.627 273.256 372.969 272.082 379.365 271.48C385.357 270.738 391.409 270.815 397.385 271.711C402.653 272.646 406.718 274.402 409.424 277.21C410.765 278.524 411.726 280.251 412.187 282.172C412.648 284.093 412.587 286.123 412.013 288.006C410.938 292.325 408.064 296.643 403.326 300.371C397.922 304.506 391.88 307.497 385.501 309.196C378.183 311.25 370.635 312.118 363.093 311.773C356.505 311.665 349.978 310.342 343.779 307.857ZM375.689 301.336C378.744 300.47 381.637 299.008 384.232 297.017C386.318 295.498 387.939 293.309 388.88 290.741C389.272 289.804 389.434 288.767 389.347 287.738C389.261 286.708 388.93 285.722 388.388 284.882C387.023 283.102 385.149 281.898 383.08 281.47C380.22 280.752 377.279 280.519 374.356 280.78C371.095 280.974 367.862 281.553 364.712 282.507C361.848 283.349 359.097 284.607 356.53 286.25C354.418 287.495 352.633 289.331 351.352 291.576C350.843 292.375 350.546 293.316 350.493 294.293C350.44 295.27 350.635 296.243 351.055 297.104C352.234 299.061 354 300.49 356.038 301.134C358.986 302.24 362.079 302.789 365.19 302.761C368.732 302.828 372.265 302.348 375.689 301.336Z" stroke="#A5D936" stroke-width="4" mask="url(#path-1-outside-1_740_1882)"/>
<path d="M522.25 264.542C526.03 265.736 527.998 268.14 527.998 271.739C527.998 277.094 523.583 282.608 515.053 287.704C506.522 292.8 494.768 296.902 480.528 299.695C461.331 303.481 443.661 306.245 427.376 308.116C428.373 292.656 431.583 277.325 435.985 261.231C449.875 257.416 464.994 252.594 481.486 246.706C493.719 242.301 503.816 239.508 511.182 239.321C518.548 239.134 522.522 241.336 522.47 246.303C522.47 249.182 521.02 252.277 518.185 255.415C514.638 259.115 510.583 262.162 506.172 264.441C513.046 263.361 518.483 263.347 522.25 264.542ZM457.836 274.086C463.816 272.56 469.987 270.899 476.347 269.105C484.865 266.686 489.473 263.491 489.706 259.863C489.939 256.236 485.732 255.904 477.421 258.568C471.208 260.554 465.167 262.387 459.298 264.067C458.798 267.425 458.31 270.765 457.836 274.086ZM493.654 280.031C493.81 276.245 489.137 275.712 480.166 278.073C472.036 280.175 464.196 282.065 456.645 283.745C456.274 287.2 455.959 290.64 455.7 294.066C463.372 292.598 471.329 290.938 479.57 289.086C488.723 287.027 493.59 283.889 493.693 280.031H493.654Z" stroke="#A5D936" stroke-width="4" mask="url(#path-1-outside-1_740_1882)"/>
<path d="M55.7604 328.73C57.6633 315.357 59.9678 302.819 62.5179 290.972C55.4241 303.568 48.7441 316.739 42.4658 330.055C40.058 331.581 37.6029 333.159 35.1002 334.791C31.2678 328.621 26.5897 323.156 21.2361 318.596C20.3731 329.498 19.5707 340.631 18.8285 351.993C13.4175 355.698 7.808 359.647 2 363.84V303.38C8.77456 298.716 15.2944 294.321 21.5597 290.194C29.556 295.169 36.5381 301.933 42.0648 310.06C50.9854 292.738 60.8282 276.024 71.5406 260.008C76.4856 257.344 81.2364 254.926 85.7801 252.709C78.4017 275.048 72.8346 298.076 69.1456 321.518C64.8393 323.707 60.3774 326.111 55.7604 328.73Z" stroke="#A5D936" stroke-width="4" mask="url(#path-1-outside-1_740_1882)"/>
<path d="M129.32 248.52C122.66 249.914 116.091 251.799 109.656 254.163C102.911 272.231 97.9284 291.053 94.7954 310.304C90.7134 311.801 86.5019 313.505 82.161 315.415C86.0861 291.527 92.4083 268.205 101.009 245.886C112.141 241.072 123.682 237.522 135.456 235.291C133.333 239.494 131.274 243.899 129.32 248.52Z" stroke="#A5D936" stroke-width="4" mask="url(#path-1-outside-1_740_1882)"/>
<path d="M176.291 237.997C164.485 249.34 154.039 264.182 145.495 283.313C143.333 288.59 140.622 293.567 137.417 298.14C134.66 301.754 131.89 303.769 129.042 304.071C126.753 304.223 124.493 303.44 122.686 301.869C124.412 295.909 126.267 290.213 128.252 284.782C129.298 285.413 130.481 285.712 131.67 285.645C132.803 285.486 133.853 284.902 134.647 283.99C135.858 282.638 136.903 281.113 137.754 279.455C137.457 264.388 138.459 249.325 140.744 234.47C144.479 234 148.235 233.769 151.993 233.779C149.766 243.307 148.216 253.016 147.359 262.814C153.215 252.868 160.096 243.718 167.864 235.55C170.71 236.199 173.523 237.016 176.291 237.997Z" stroke="#A5D936" stroke-width="4" mask="url(#path-1-outside-1_740_1882)"/>
<path d="M188.375 306.403C185.259 301.876 183.152 296.593 182.226 290.986C181.192 285.006 181.454 278.837 182.99 272.992C184.25 267.773 186.739 263.022 190.2 259.23C192.879 256.246 196.361 254.315 200.116 253.731C203.421 253.289 206.755 254.239 209.462 256.394C211.853 258.218 213.779 260.697 215.055 263.592C216.376 266.706 217.174 270.062 217.411 273.496C214.644 274.575 211.945 275.859 209.333 277.339C208.543 272.258 207.106 268.889 204.453 267.09C203.025 266.061 201.29 265.699 199.624 266.082C197.752 266.595 196.088 267.791 194.899 269.479C193.281 271.724 192.132 274.339 191.534 277.138C190.799 280.211 190.614 283.414 190.99 286.567C191.305 289.358 192.191 292.032 193.579 294.383C194.695 296.371 196.33 297.933 198.265 298.86C201.359 300.3 203.948 298.946 206.304 295.463C208.129 299.681 210.187 303.999 212.634 308.419C211.505 311.194 209.541 313.444 207.081 314.781C204.37 315.977 201.351 315.977 198.64 314.781C194.54 313.198 190.963 310.279 188.375 306.403Z" stroke="#A5D936" stroke-width="4" mask="url(#path-1-outside-1_740_1882)"/>
<path d="M246.523 322.67C240.581 320.093 234.872 317.502 229.526 314.968C229.056 318.47 228.84 322.008 228.878 325.549L217.694 320.971C218.781 300.703 226.031 287.862 237.112 278.692C240.098 280.823 243.209 282.939 246.445 285.041C245.862 300.602 251.623 318.51 266.756 340.059C262.082 338.433 257.578 336.792 253.202 335.15C250.787 331.119 248.557 326.953 246.523 322.67ZM241.526 310.247C239.628 304.647 238.367 298.805 237.772 292.857C235.157 296.571 233.094 300.726 231.662 305.165C234.859 306.849 238.134 308.548 241.526 310.247Z" stroke="#A5D936" stroke-width="4" mask="url(#path-1-outside-1_740_1882)"/>
<path d="M303.157 312.435C306.254 314.215 309.039 316.599 311.378 319.474C313.291 321.827 314.534 324.757 314.951 327.895C315.199 329.183 315.176 330.517 314.884 331.793C314.592 333.069 314.039 334.253 313.268 335.251C311.727 337.108 309.281 338.26 305.889 338.605C301.667 338.866 297.436 338.311 293.384 336.964C290.225 336.005 287.14 335.045 284.128 334.085C285.649 338.662 287.489 343.099 289.63 347.358C284.633 345.89 279.8 344.388 275.132 342.852C266.717 324.138 265.979 310.132 270.135 298.313C277.014 301.601 284.044 304.484 291.196 306.95C295.338 308.331 299.344 310.169 303.157 312.435ZM296.594 327.276C297.266 327.028 297.829 326.509 298.174 325.822C298.519 325.134 298.621 324.329 298.458 323.562C298.349 322.58 298.064 321.631 297.619 320.773C297.175 319.915 296.579 319.165 295.869 318.567C293.833 316.838 291.511 315.571 289.035 314.839C286.368 313.918 283.753 312.982 281.268 311.96C280.929 315.937 281.081 319.948 281.72 323.879C284.361 324.839 287.067 325.755 289.837 326.629C292.853 327.708 295.144 327.895 296.594 327.32V327.276Z" stroke="#A5D936" stroke-width="4" mask="url(#path-1-outside-1_740_1882)"/>
<path d="M351.529 358.975C345.189 356.303 339.25 352.581 333.911 347.934C329.225 343.73 326.312 339.469 325.341 335.309C324.823 333.506 324.845 331.565 325.403 329.777C325.96 327.988 327.025 326.45 328.435 325.391C331.4 322.871 335.814 321.245 341.639 320.251C348.418 319.248 355.27 319.002 362.092 319.517C369.6 319.88 377.06 321.037 384.371 322.972C390.525 324.491 396.392 327.2 401.704 330.976C406.286 334.46 409.018 338.505 409.963 343.126C410.448 345.312 410.434 347.599 409.924 349.778C409.413 351.958 408.421 353.961 407.037 355.606C404.164 359.248 399.853 361.983 394.092 363.682C387.433 365.464 380.539 365.893 373.743 364.949C366.126 364.105 358.651 362.094 351.529 358.975ZM378.235 353.101C380.625 352.542 382.782 351.12 384.371 349.056C385.011 348.139 385.442 347.062 385.626 345.919C385.811 344.776 385.745 343.6 385.432 342.492C384.733 339.802 383.248 337.447 381.212 335.798C378.712 333.68 375.881 332.094 372.863 331.12C369.38 329.922 365.782 329.188 362.144 328.932C358.803 328.61 355.438 328.785 352.138 329.45C349.741 329.818 347.492 330.954 345.665 332.718C344.965 333.455 344.471 334.401 344.241 335.443C344.012 336.484 344.057 337.577 344.371 338.591C345.183 341.324 346.734 343.712 348.811 345.429C351.415 347.756 354.339 349.603 357.471 350.899C360.942 352.407 364.584 353.376 368.293 353.778C371.617 354.224 374.985 353.994 378.235 353.101Z" stroke="#A5D936" stroke-width="4" mask="url(#path-1-outside-1_740_1882)"/>
<path d="M522.381 338.347C526.135 340.232 527.999 342.982 527.999 346.552C527.999 351.907 523.87 356.629 516.349 360.299C508.828 363.97 498.368 366.201 485.397 366.82C467.896 367.655 451.494 367.929 436.064 367.727C430.356 352.306 427.334 335.819 427.158 319.143C442.692 317.848 459.455 315.804 477.54 312.91C490.951 310.765 502.07 309.902 510.109 311.01C518.148 312.118 522.355 315.141 522.368 320.093C522.368 322.972 520.957 325.851 518.161 328.428C514.618 331.502 510.599 333.829 506.303 335.295C513.19 335.468 518.679 336.475 522.381 338.347ZM456.271 336.389C462.502 335.89 468.888 335.3 475.43 334.618C484.181 333.711 488.659 331.307 488.478 327.694C488.297 324.081 483.624 322.972 474.77 324.124C468.159 324.988 461.712 325.736 455.429 326.37C455.637 329.709 455.909 333.049 456.271 336.403V336.389ZM495.106 348.855C494.808 345.04 490.006 343.658 481.074 344.536C472.996 345.247 465.16 345.823 457.566 346.264C458.122 349.805 458.769 353.361 459.507 356.96C466.938 356.672 474.562 356.269 482.433 355.75C491.08 355.146 495.378 352.742 495.093 348.87L495.106 348.855Z" stroke="#A5D936" stroke-width="4" mask="url(#path-1-outside-1_740_1882)"/>
<path d="M50.9272 437.673C50.0728 419.737 49.9824 402.938 50.5261 387.146C45.6976 401.469 41.1538 415.663 36.7525 429.007L30.0211 429.655C26.1173 419.77 21.6328 410.181 16.597 400.951C16.2777 413.12 16.1355 425.596 16.17 438.379L2.04679 438.724V378.264C6.92706 374.968 11.6649 371.844 16.2863 368.878C22.6682 377.213 28.0663 387.88 33.8269 401.757C40.2994 383.965 47.1734 365.093 54.7333 346.623C58.7203 344.579 62.6038 342.66 66.3838 340.865C62.9694 372.878 62.5052 405.196 64.9986 437.314L50.9272 437.673Z" stroke="#A5D936" stroke-width="4" mask="url(#path-1-outside-1_740_1882)"/>
<path d="M110.496 346.983C104.015 348.164 97.3614 349.699 90.5351 351.59C89.397 380.152 90.7538 408.77 94.5867 437.04L79.5578 437.199C75.6742 397.871 76.1919 364.359 79.4152 335.352C89.8645 331.129 100.594 327.817 111.506 325.448C110.954 332.329 110.617 339.508 110.496 346.983Z" stroke="#A5D936" stroke-width="4" mask="url(#path-1-outside-1_740_1882)"/>
<path d="M157.286 322.698C153.118 345.606 151.465 373.504 152.328 406.392C152.652 416.987 152.108 425.509 150.257 431.368C148.406 437.227 145.416 440.265 141.312 440.25C138.309 440.25 134.671 438.523 130.594 435.212C129.834 425.826 129.265 416.747 128.885 407.976C130.488 409.137 132.335 409.816 134.244 409.948C134.935 409.916 135.604 409.666 136.172 409.228C136.741 408.79 137.185 408.181 137.455 407.472C138.362 405.119 138.875 402.602 138.969 400.044C127.202 370.505 120.665 345.616 116.962 324.411C121.014 323.692 124.975 323.145 128.872 322.77C131.673 339.441 135.749 355.815 141.053 371.714C141.911 355.047 143.919 338.477 147.06 322.151C150.438 322.195 153.869 322.396 157.286 322.698Z" stroke="#A5D936" stroke-width="4" mask="url(#path-1-outside-1_740_1882)"/>
<path d="M228.039 430.62C219.988 423.953 212.94 415.906 207.159 406.781C200.877 397.135 195.86 386.545 192.259 375.328C188.738 364.359 187.392 355.376 187.508 348.078C187.625 340.779 189.113 335.798 191.534 332.747C193.955 329.695 197.165 328.917 201.139 330.083C205.076 331.434 208.687 333.757 211.702 336.878C215.865 341.007 219.65 345.583 223.003 350.539C222.227 354.469 221.567 358.701 221.049 363.279C215.249 355.419 210.939 351.23 207.12 350.323C206.209 349.999 205.226 350.024 204.33 350.395C203.433 350.766 202.674 351.46 202.175 352.367C201.113 354.267 200.712 357.233 201.126 361.393C201.78 366.641 203.087 371.762 205.01 376.609C207.174 382.502 209.932 388.104 213.23 393.307C216.036 397.861 219.43 401.93 223.301 405.385C226.732 408.35 229.877 409.905 232.596 410.063C237.256 410.351 238.641 405.846 237.23 397.525C243.271 403.792 249.744 410.159 256.648 416.628C258.486 423.566 258.874 429.238 257.437 433.269C256 437.299 252.816 439.459 247.845 439.459C242.201 439.502 235.379 436.508 228.039 430.62Z" stroke="#A5D936" stroke-width="4" mask="url(#path-1-outside-1_740_1882)"/>
<path d="M300.726 416.815C293.296 416.277 285.96 415.759 278.72 415.26C282.258 422.16 286.141 429.463 290.37 437.17L274.836 437.054C254.927 395.812 244.221 366.057 240.752 344.162C244.765 345.467 248.873 346.791 253.076 348.135C270.461 373.255 298.124 402.837 337.775 437.558L321.814 437.429C314.288 430.327 307.259 423.456 300.726 416.815ZM281.309 396.114C272.131 385.894 264.144 376.234 257.257 367.093C260.569 376.379 264.297 385.474 268.428 394.344L281.309 396.114Z" stroke="#A5D936" stroke-width="4" mask="url(#path-1-outside-1_740_1882)"/>
<path d="M322.245 368.994C332.867 374.279 342.452 381.836 350.452 391.234C354.672 396.129 357.636 400.433 359.164 404.118C360.691 407.803 360.808 410.697 359.164 412.669C357.52 414.641 354.361 415.548 349.326 415.059L339.682 414.209C346.517 421.608 354.059 429.468 362.31 437.789L346.918 437.645C315.203 404.075 294.633 377.962 282.4 357.031C290.167 359.205 298.297 361.35 306.827 363.365C312.13 364.635 317.297 366.521 322.245 368.994ZM337.442 395.755C337.546 394.185 336.148 391.781 333.559 388.557C331.089 385.564 328.247 382.98 325.118 380.884C322.22 378.946 319.032 377.601 315.707 376.911C312.756 376.326 309.852 375.726 306.995 375.112C311.798 381.647 317.351 388.643 323.733 396.143L332.458 397.41C335.733 397.914 337.442 397.367 337.442 395.755Z" stroke="#A5D936" stroke-width="4" mask="url(#path-1-outside-1_740_1882)"/>
<path d="M415.439 434.621C406.461 430.753 397.839 425.933 389.692 420.226C381.632 414.75 374.128 408.321 367.31 401.052C361.239 394.415 357.964 389.032 357.239 384.771C356.514 380.51 358.274 377.717 362.235 376.134C366.196 374.55 372.099 374.233 379.776 375.097C387.787 376.005 395.686 377.873 403.336 380.668C410.943 383.354 418.216 387.098 424.98 391.81C430.968 395.966 436.278 401.223 440.682 407.357C444.249 412.041 446.895 417.504 448.449 423.393C449.562 428.273 449.381 432.261 447.556 435.255C445.731 438.249 442.3 439.89 436.527 439.89C430.753 439.89 423.776 438.134 415.439 434.621ZM425.795 421.248C426.857 419.809 426.909 417.75 426.054 415.102C424.784 411.744 422.957 408.682 420.669 406.076C417.888 402.644 414.72 399.625 411.245 397.093C407.717 394.505 403.934 392.374 399.97 390.745C396.356 389.218 392.579 388.216 388.734 387.765C385.2 387.391 382.546 387.765 380.85 388.758C379.155 389.751 378.572 391.508 379.232 393.955C379.892 396.402 381.821 399.396 385.07 402.995C388.54 406.788 392.358 410.165 396.462 413.072C400.435 415.942 404.649 418.376 409.045 420.341C412.433 421.947 416.037 422.92 419.711 423.22C422.74 423.364 424.708 422.688 425.782 421.248H425.795Z" stroke="#A5D936" stroke-width="4" mask="url(#path-1-outside-1_740_1882)"/>
<path d="M524.212 412.511C525.429 413.56 526.405 414.914 527.062 416.463C527.719 418.011 528.037 419.71 527.992 421.422C527.954 423.945 527.357 426.42 526.256 428.627C525.154 430.833 523.581 432.705 521.675 434.075C517.791 437.156 512.807 438.681 505.765 438.681L477.221 438.595C460.639 417.103 448.924 397.929 440.975 380.179C454.93 380.553 469.679 380.553 485.221 380.179C496.755 379.891 506.387 380.741 513.222 383.058C520.057 385.376 523.461 389.075 523.578 394.056C523.605 395.508 523.365 396.952 522.87 398.296C522.376 399.641 521.639 400.858 520.704 401.873C518.413 404.378 515.617 406.239 512.548 407.3C517.7 408.437 521.61 410.136 524.212 412.511ZM474.309 402.823C479.133 402.909 484.039 402.957 489.027 402.967C495.642 402.967 498.581 401.038 497.752 397.209C496.924 393.38 492.846 391.595 485.623 391.652C480.238 391.652 474.952 391.652 469.765 391.652C471.163 395.347 472.678 399.071 474.309 402.823ZM506.943 420.212C505.998 416.182 502.348 414.195 496.069 414.152C490.438 414.152 484.872 414.037 479.409 413.922C481.359 417.952 483.448 422.041 485.675 426.186C490.529 426.273 495.409 426.33 500.354 426.388C505.726 426.431 507.94 424.344 506.943 420.212Z" stroke="#A5D936" stroke-width="4" mask="url(#path-1-outside-1_740_1882)"/>
</svg>
