<svg width="259" height="296" viewBox="0 0 259 296" fill="none" xmlns="http://www.w3.org/2000/svg">
<path d="M209.229 185.958L208.269 185.724L208.125 186.652L206.64 196.205L206.485 197.201L207.515 197.451L248.5 207.414L249.459 207.647L249.603 206.72L250.922 198.246L251.013 197.66L250.518 197.242L230.333 180.194L254.332 173.679L254.859 173.536L254.946 172.991L256.296 164.518L256.455 163.523L255.424 163.269L214.457 153.198L213.499 152.962L213.352 153.888L211.847 163.348L211.689 164.343L212.719 164.596L230.104 168.871L215.007 173.01L214.483 173.154L214.396 173.697L213.664 178.261L213.57 178.849L214.067 179.269L227.146 190.319L209.229 185.958Z" stroke="#249788" stroke-width="2"/>
<path d="M214.696 241.99L214.124 242.826L215.084 243.444L223.117 248.612L223.938 249.141L224.427 248.426L239.504 226.397L240.079 225.556L239.111 224.94L203.219 202.091L202.401 201.57L201.915 202.28L196.167 210.653L195.59 211.494L196.56 212.112L223.435 229.22L214.696 241.99Z" stroke="#249788" stroke-width="2"/>
<path d="M181.014 280.107L181.404 281.655L182.614 280.835L191.195 275.021L191.709 274.673L191.524 274.018L186.36 255.773L204.933 265.045L205.471 265.313L205.916 265.011L215.177 258.709L216.596 257.743L214.854 256.957L183.699 242.894C183.655 242.204 183.744 241.526 183.964 240.888C184.241 240.197 184.728 239.598 185.387 239.158C186.396 238.523 187.518 238.029 188.721 237.692L189.699 237.418L189.241 236.414L185.618 228.47L185.24 227.641L184.409 227.799C181.915 228.274 179.599 229.189 177.583 230.5L177.583 230.5L177.572 230.507C175.106 232.168 173.346 234.561 172.549 237.375L172.547 237.382L172.545 237.388C171.712 240.512 171.772 243.881 172.721 247.191L181.014 280.107Z" stroke="#249788" stroke-width="2"/>
<path d="M144.026 251.978L144.025 251.977C139.851 251.091 135.632 251.141 131.746 252.124C128.339 252.89 125.236 254.327 122.637 256.347L122.634 256.35C120.234 258.235 118.45 260.7 117.445 263.534L117.126 264.435L118.078 264.871L127.48 269.185L128.408 269.611L128.738 268.741C129.952 265.536 132.172 263.577 135.443 262.797L135.451 262.795L135.459 262.793C137.241 262.333 139.19 262.326 141.107 262.775C142.896 263.199 144.566 264.075 145.918 265.283C147.386 266.655 148.519 268.273 149.238 270.006C149.956 271.738 150.243 273.544 150.078 275.285C149.882 276.83 149.188 278.244 148.063 279.351C146.837 280.535 145.242 281.372 143.43 281.77L143.423 281.772L143.416 281.774C140.118 282.555 136.775 281.914 133.321 279.786L132.456 279.253L131.999 280.034L127.54 287.652L127.056 288.479L127.962 289.058C130.894 290.934 134.19 292.173 137.561 292.672L137.565 292.672C141.198 293.196 144.814 293.026 148.178 292.173C152.118 291.297 155.637 289.506 158.418 286.953L158.42 286.951C161.032 284.536 162.77 281.406 163.43 277.903L163.431 277.893L163.433 277.882C164.025 274.275 163.545 270.466 162.043 266.834C160.541 263.203 158.074 259.884 154.896 257.199L154.888 257.192L154.879 257.185C151.722 254.618 147.966 252.819 144.026 251.978Z" stroke="#249788" stroke-width="2"/>
<path d="M103.218 255.994L102.573 255.921L102.317 256.473L99.3609 262.832L83.1683 260.995L80.1476 253.998L79.8767 253.37L79.2204 253.296L67.0425 251.916L65.4602 251.737L66.1617 253.233L84.6992 292.767L84.9801 293.366L85.6135 293.437L97.1408 294.725L97.7614 294.794L98.0273 294.273L116.074 258.876L116.763 257.523L115.153 257.341L103.218 255.994ZM95.1098 272.142L91.3716 280.244L87.5387 271.284L95.1098 272.142Z" stroke="#249788" stroke-width="2"/>
<path d="M20.704 270.08L20.7098 270.086C23.21 272.587 26.1947 274.634 29.4628 276.095L47.0722 284.391L47.9541 284.807L48.3193 284.003L63.3632 250.898L63.7832 249.974L62.7687 249.497L51.8642 244.364L50.9827 243.949L50.6176 244.752L47.0485 252.602L41.2255 249.859C38.0137 248.267 34.5566 247.282 31.0845 246.967L31.0845 246.967L31.0782 246.966C28.0526 246.71 25.1198 247.262 22.6405 248.564C20.1607 249.865 18.2364 251.863 17.1189 254.323C16.0007 256.784 15.7427 259.593 16.3835 262.401C17.0241 265.209 18.5312 267.877 20.704 270.08ZM30.1141 260.626L30.141 260.576L30.1612 260.522C30.3644 259.976 30.7101 259.488 31.1799 259.097C31.6269 258.726 32.1743 258.453 32.7871 258.303L32.8729 258.286C34.1033 258.044 35.7347 258.33 37.85 259.329L37.851 259.329L42.8936 261.704L39.2828 269.672L34.1099 267.236C34.1098 267.236 34.1096 267.236 34.1094 267.236C31.9792 266.231 30.7484 265.159 30.1681 264.099C29.876 263.525 29.721 262.921 29.7105 262.326C29.6998 261.728 29.8359 261.147 30.1141 260.626Z" stroke="#249788" stroke-width="2"/>
<path d="M15.907 225.412L15.9032 225.402L15.8993 225.392C14.4059 221.591 12.0037 218.055 8.89097 215.061C5.77859 212.068 2.04046 209.699 -2.02473 208.134L-2.0335 208.131L-2.04231 208.128C-5.92763 206.706 -10.0274 206.239 -13.9007 206.776C-17.7741 207.314 -21.2827 208.836 -24.0431 211.188C-26.8041 213.54 -28.713 216.635 -29.5499 220.145C-30.387 223.656 -30.117 227.438 -28.7694 231.077L-28.7654 231.088L-28.7612 231.098C-27.2652 234.898 -24.8623 238.433 -21.7501 241.425C-18.6383 244.418 -14.9018 246.788 -10.8381 248.355L-10.8293 248.358L-10.8204 248.362C-6.93474 249.786 -2.8339 250.254 1.04067 249.718C4.91534 249.182 8.42522 247.66 11.1863 245.307C13.9479 242.954 15.8569 239.857 16.6928 236.346C17.529 232.835 17.2571 229.052 15.907 225.412ZM-3.71874 219.191L-3.52035 219.255C-1.82566 219.866 -0.276165 220.828 0.993203 222.052C2.31328 223.325 3.28541 224.836 3.82727 226.437C4.32746 228.003 4.35824 229.607 3.91464 231.079C3.36795 232.716 2.38435 234.172 1.03439 235.323C-0.316346 236.474 -1.99485 237.288 -3.86877 237.691C-5.56515 238.009 -7.38737 237.882 -9.1345 237.324C-10.9086 236.717 -12.5314 235.726 -13.8517 234.453C-15.1716 233.18 -16.1446 231.67 -16.6886 230.069C-17.1883 228.504 -17.2189 226.899 -16.7757 225.428C-16.229 223.79 -15.2454 222.335 -13.8954 221.184C-12.5446 220.032 -10.8662 219.219 -8.99221 218.816C-7.29329 218.496 -5.46737 218.626 -3.71874 219.191Z" stroke="#249788" stroke-width="2"/>
<path d="M-1.34595 11.7712L-1.75415 10.2265L-2.95225 11.0619L-11.4315 16.9741L-11.9411 17.3293L-11.7478 17.9831L-6.36477 36.1971L-25.0199 27.1097L-25.5602 26.8465L-26.0011 27.1544L-35.1733 33.5596L-36.5796 34.5417L-34.8313 35.3104L-3.53344 49.0722C-3.48145 49.7603 -3.56156 50.4385 -3.77301 51.0764C-4.04736 51.7729 -4.53496 52.3775 -5.1978 52.8204C-6.19523 53.4702 -7.30895 53.9778 -8.50697 54.3269L-9.4809 54.6108L-9.0137 55.6116L-5.31668 63.5317L-4.9305 64.359L-4.10128 64.1908C-1.61849 63.6872 0.681602 62.7468 2.67884 61.4153L2.68439 61.4116L2.68987 61.4078C5.13537 59.7201 6.86748 57.3062 7.63499 54.4798L7.6371 54.472L7.63908 54.4642C8.43069 51.3261 8.32906 47.9535 7.34245 44.6484L-1.34595 11.7712Z" stroke="#249788" stroke-width="2"/>
<path d="M35.9388 39.5292L35.9399 39.5295C40.0995 40.3612 44.2886 40.2624 48.1372 39.2403C51.5251 38.4422 54.6056 36.98 57.18 34.9424L57.1801 34.9425L57.1861 34.9376C59.5572 33.0244 61.3084 30.539 62.2777 27.6924L62.5859 26.7874L61.6318 26.3605L52.1915 22.1362L51.2583 21.7186L50.9395 22.5959C49.7704 25.813 47.5795 27.7915 44.3238 28.6006L44.3148 28.6028L44.3059 28.6052C42.5306 29.0853 40.584 29.1143 38.6613 28.6877C36.8722 28.2795 35.1954 27.4202 33.8316 26.225C32.35 24.8637 31.1993 23.2541 30.4618 21.5251C29.7249 19.7974 29.4181 17.9919 29.5626 16.247C29.7408 14.6963 30.4188 13.2724 31.5304 12.1522C32.7411 10.9559 34.3224 10.1021 36.1249 9.68322L36.1318 9.68163L36.1386 9.67993C39.4097 8.86582 42.7502 9.47215 46.2267 11.5663L47.096 12.09L47.5437 11.3026L51.905 3.63236L52.3785 2.79949L51.4677 2.22924C48.5182 0.382682 45.2137 -0.825266 41.8435 -1.29412L41.8435 -1.29414L41.8367 -1.29504C38.2029 -1.77629 34.5959 -1.56757 31.2454 -0.680855C27.3306 0.239264 23.8468 2.06955 21.1097 4.65426L21.1085 4.65535C18.5293 7.10035 16.8312 10.2516 16.2156 13.7664L16.2138 13.7769L16.2122 13.7876C15.6645 17.4065 16.1909 21.2175 17.7364 24.8393C19.2815 28.4602 21.788 31.7584 24.9968 34.4123L25.0049 34.419L25.0131 34.4255C28.2018 36.9706 31.9852 38.7345 35.9388 39.5292Z" stroke="#249788" stroke-width="2"/>
<path d="M76.6276 35.0947L77.2733 35.1613L77.5237 34.6037L80.3948 28.2096L96.5873 29.8815L99.6902 36.8804L99.9674 37.5056L100.623 37.5732L112.799 38.8263L114.383 38.9893L113.664 37.4973L94.6745 -1.9038L94.388 -2.49821L93.7569 -2.56336L82.23 -3.75338L81.6074 -3.81766L81.3472 -3.2906L63.7585 32.3365L63.0871 33.6963L64.6935 33.8622L76.6276 35.0947ZM84.5292 18.8427L88.1608 10.6882L92.1005 19.6261L84.5292 18.8427Z" stroke="#249788" stroke-width="2"/>
<path d="M158.845 20.129L158.845 20.1289L158.838 20.1226C156.308 17.6452 153.302 15.6267 150.02 14.1953L132.334 6.07218L131.448 5.66516L131.093 6.47525L116.485 39.7801L116.078 40.709L117.094 41.176L128.042 46.2079L128.928 46.6148L129.284 45.8058L132.757 37.9089L138.604 40.5933C141.83 42.1519 145.293 43.1025 148.763 43.3846L148.77 43.3851C151.794 43.6112 154.717 43.0276 157.177 41.6986C159.638 40.3692 161.535 38.3482 162.621 35.8726C163.707 33.3956 163.93 30.5791 163.255 27.7735C162.58 24.9687 161.042 22.3126 158.845 20.129ZM149.553 29.6915L149.526 29.7441L149.506 29.8006C149.31 30.3484 148.972 30.8405 148.508 31.2357C148.046 31.6293 147.474 31.9155 146.829 32.0676C145.611 32.3215 143.977 32.0519 141.842 31.0715C141.842 31.0714 141.842 31.0714 141.842 31.0713L136.775 28.7429L140.289 20.7318L145.485 23.1148C145.485 23.1149 145.485 23.115 145.486 23.1152C147.622 24.0981 148.865 25.1612 149.458 26.2212C149.759 26.7917 149.922 27.3954 149.939 27.9899C149.956 28.5882 149.827 29.1695 149.553 29.6915Z" stroke="#249788" stroke-width="2"/>
<path d="M164.176 64.8045L164.272 64.7952L164.185 64.8208C165.726 68.6095 168.168 72.1231 171.31 75.088C174.453 78.0526 178.211 80.3888 182.285 81.9188L182.295 81.9224L182.305 81.9259C186.2 83.3069 190.298 83.7307 194.157 83.1528C198.016 82.5747 201.499 81.0154 204.226 78.6332C206.954 76.2505 208.823 73.1333 209.617 69.6121C210.412 66.09 210.1 62.3078 208.714 58.6785L208.709 58.6669L208.705 58.6554C207.162 54.8671 204.719 51.3543 201.575 48.3904C198.432 45.4268 194.673 43.0918 190.598 41.5631L190.589 41.5596L190.579 41.5562C186.684 40.1744 182.586 39.7501 178.727 40.3279C174.868 40.9057 171.384 42.4653 168.657 44.8478C165.93 47.231 164.062 50.3487 163.268 53.8704C162.475 57.393 162.789 61.1754 164.176 64.8045ZM193.998 68.7426C192.66 69.9099 190.989 70.7401 189.117 71.1593C187.427 71.4938 185.604 71.381 183.854 70.8335C182.076 70.247 180.443 69.2739 179.109 68.0149C177.776 66.7571 176.786 65.2574 176.223 63.6622C175.704 62.0987 175.654 60.4911 176.079 59.0126C176.604 57.3648 177.571 55.896 178.908 54.7303C180.247 53.5638 181.919 52.7352 183.791 52.3187C185.482 51.9841 187.304 52.0967 189.055 52.6442C190.832 53.2325 192.463 54.2063 193.797 55.4651C195.13 56.7227 196.121 58.2217 196.686 59.8164C197.205 61.3776 197.254 62.983 196.829 64.459C196.303 66.107 195.336 67.5761 193.998 68.7426Z" stroke="#249788" stroke-width="2"/>
<path d="M214.284 113.419L214.775 113.264C215.869 112.916 216.347 112.402 216.506 111.836C216.675 111.236 216.56 110.322 215.88 108.966C215.88 108.965 215.88 108.965 215.879 108.964L212.317 101.883L206.477 103.716L209.98 110.704L214.284 113.419ZM214.284 113.419C213.399 113.611 212.688 113.5 212.1 113.191C211.384 112.817 210.657 112.054 209.98 110.705L214.284 113.419ZM225.097 121.915L225.109 121.896L225.12 121.875C225.864 120.515 226.254 118.988 226.269 117.4C227.465 118.117 228.769 118.643 230.117 118.951L230.125 118.953L230.133 118.954C232.164 119.386 234.214 119.287 236.041 118.666C237.617 118.228 238.998 117.405 240.045 116.268C241.096 115.127 241.774 113.708 242.002 112.146C242.545 108.948 241.614 105.106 239.406 100.705C239.406 100.705 239.405 100.705 239.405 100.704L230.679 83.2959L230.239 82.4179L229.384 82.6902L192.114 94.5566L191.141 94.8661L191.642 95.864L200.857 114.242C203.192 118.901 206.032 122.316 209.426 124.344C211.042 125.343 212.848 125.985 214.683 126.219C216.51 126.451 218.316 126.272 219.94 125.695C222.139 125.068 223.962 123.743 225.097 121.915ZM224.006 104.473L221.278 99.0258L226.803 97.267L229.59 102.832C229.591 102.834 229.591 102.835 229.592 102.836C230.242 104.158 230.351 105.046 230.189 105.628C230.037 106.174 229.583 106.67 228.54 107.005C227.506 107.337 226.709 107.245 226.058 106.895C225.379 106.531 224.676 105.789 224.008 104.476C224.007 104.475 224.007 104.474 224.006 104.473Z" stroke="#249788" stroke-width="2"/>
</svg>
