<svg width="415" height="431" viewBox="0 0 415 431" fill="none" xmlns="http://www.w3.org/2000/svg">
<path d="M411.853 373.298L410.905 374.492C407.482 378.809 404.368 383.011 401.606 387.056L401.184 387.674L400.472 387.443C395.344 385.781 390.078 384.574 384.738 383.836L384.73 383.835L384.722 383.834C379.098 382.966 373.42 382.501 367.73 382.443C362.603 382.444 359.113 382.736 357.072 383.348C356.041 383.657 355.552 384 355.354 384.266C355.219 384.446 355.139 384.689 355.338 385.194C355.787 386.298 357.208 387.427 360.108 388.218C364.683 389.396 369.325 390.296 374.009 390.913L374.017 390.914L374.017 390.914C381.035 391.897 386.921 392.868 391.695 393.898C396.202 394.768 400.495 396.513 404.331 399.034L404.335 399.037C406.058 400.182 407.463 401.745 408.417 403.58C409.369 405.411 409.841 407.454 409.79 409.517C409.788 413.248 408.552 416.874 406.274 419.83C403.91 422.947 400.784 425.406 397.196 426.968L397.186 426.973L397.186 426.973C392.722 428.856 387.902 429.749 383.06 429.59C378.851 429.564 374.657 429.086 370.55 428.164C366.006 427.195 361.572 425.764 357.318 423.896L356.894 423.71L356.762 423.267C355.496 419.033 354.615 414.693 354.131 410.301L353.949 408.653L355.491 409.261C364.042 412.63 371.017 414.286 377.126 414.422C377.126 414.422 377.126 414.422 377.126 414.422M411.853 373.298L377.126 414.422M411.853 373.298L410.38 372.905C403.598 371.094 396.653 369.961 389.648 369.522C381.304 368.805 372.919 368.538 364.786 368.692C357.098 368.591 349.419 369.264 341.865 370.701L341.847 370.704L341.83 370.708C336.202 371.991 332.294 373.823 330.409 376.475C328.455 379.222 328.694 382.448 330.567 385.941L330.573 385.951L330.578 385.961C332.916 390.086 336.315 393.511 340.422 395.879C344.529 398.356 348.948 400.276 353.561 401.589L353.561 401.589L353.569 401.591C358.927 403.07 364.359 404.271 369.842 405.19L369.842 405.19L369.854 405.191C374.001 405.835 378.108 406.711 382.157 407.815M411.853 373.298L382.157 407.815M377.126 414.422C381.046 414.506 383.51 414.042 384.789 413.264L384.842 413.232L384.898 413.206C385.366 412.995 385.741 412.62 385.953 412.153C386.165 411.685 386.2 411.156 386.05 410.665L386.047 410.654L386.043 410.643C385.751 409.595 384.685 408.583 382.157 407.815M377.126 414.422L382.157 407.815" stroke="#A5D936" stroke-width="2"/>
<path d="M305.212 394.157C307.242 396.785 308.739 399.783 309.619 402.984C310.163 405.479 309.779 407.151 308.701 408.24C307.587 409.365 305.606 410.012 302.322 409.755L302.32 409.755C296.853 409.342 289.745 406.111 281.309 399.866L280.01 398.904L279.729 400.496C279.038 404.407 278.667 408.368 278.62 412.339L278.614 412.833L279.003 413.138C285.333 418.1 292.266 422.242 299.636 425.465C305.428 428.083 311.687 429.514 318.041 429.674L318.054 429.674H318.066C324.493 429.674 328.827 427.862 331.479 424.45C334.097 421.083 334.83 416.728 334.164 411.673L334.162 411.658L334.16 411.642C333.187 405.705 330.9 400.059 327.466 395.118C323.418 388.917 318.3 383.483 312.352 379.071C305.852 374.21 298.784 370.158 291.304 367.005C283.956 363.824 276.312 361.376 268.482 359.697L268.48 359.697C262.046 358.331 256.859 357.792 252.923 358.426C250.949 358.744 249.269 359.352 247.961 360.345C246.636 361.351 245.75 362.709 245.311 364.408L245.145 365.052L245.675 365.454C251.353 369.768 257.314 374.097 263.487 378.315L264.73 379.164L265.031 377.689C265.383 375.961 266.302 374.944 267.799 374.423C269.39 373.868 271.704 373.855 274.801 374.446C278.68 375.216 282.444 376.484 285.998 378.219L286.004 378.222C289.823 380.055 293.409 382.337 296.686 385.021C299.905 387.674 302.764 390.735 305.19 394.128L305.201 394.142L305.212 394.157Z" stroke="#A5D936" stroke-width="2"/>
<path d="M280.245 427.753L282.326 427.77L281.039 426.134C256.385 394.802 240.232 370.393 230.443 350.722L230.255 350.345L229.854 350.215C224.416 348.462 219.179 346.653 214.143 344.788L211.919 343.965L212.882 346.132C222.237 367.189 238.132 393.436 262.782 427.202L263.078 427.608L263.581 427.613L280.245 427.753Z" stroke="#A5D936" stroke-width="2"/>
<path d="M166.491 343.911L166.643 344.444L167.176 344.598C174.933 346.839 182.923 349.378 191.317 352.061C192.974 356.182 194.814 360.468 196.836 364.919C189.952 363.232 183.246 361.621 176.69 360.162L174.924 359.769L175.53 361.473C177.893 368.12 180.602 375.115 183.656 382.459L183.875 382.986L184.44 383.065C191.957 384.121 199.583 385.312 207.376 386.558C209.836 391.302 212.477 396.218 215.296 401.306C206.544 400.489 197.907 399.723 189.342 399.056L187.672 398.926L188.35 400.457C192.012 408.735 196.075 417.436 200.541 426.562L200.813 427.118L201.432 427.122C216.73 427.234 232.06 427.351 247.424 427.473L249.314 427.488L248.263 425.917C224.185 389.934 209.067 362.097 200.535 339.968L200.377 339.558L199.968 339.397C194.04 337.061 188.349 334.73 182.855 332.481C176.069 329.702 169.584 327.046 163.322 324.655L161.611 324.001L161.986 325.794C163.184 331.512 164.676 337.538 166.491 343.911Z" stroke="#A5D936" stroke-width="2"/>
<path d="M129.859 426.154L130.047 426.909L130.826 426.911L146.928 426.968L148.283 426.972L147.888 425.676C142.015 406.399 137.134 386.835 133.263 367.061C144.699 387.823 157.621 407.735 171.928 426.641L172.228 427.038H172.726H186.345H187.869L187.262 425.64C168.557 382.522 158.266 348.753 153.936 321.812L153.841 321.222L153.276 321.026C149.499 319.715 145.735 318.531 141.996 317.488L140.561 317.087L140.734 318.567C142.501 333.615 145.271 348.526 149.025 363.2C139.755 347.603 131.716 331.303 124.983 314.448L124.765 313.903L124.183 313.827C121.02 313.416 117.845 313.175 114.645 313.076L113.608 313.044L113.614 314.082C113.797 344.063 118.511 380.689 129.859 426.154Z" stroke="#A5D936" stroke-width="2"/>
<path d="M103.5 336.163L103.497 336.154L103.494 336.146C101.097 328.446 98.2616 322.801 94.5794 319.245C92.8904 317.49 90.7194 316.274 88.3399 315.751C85.9562 315.227 83.4705 315.422 81.1978 316.311C76.3231 318.143 72.0326 321.254 68.7774 325.318C64.5588 330.319 61.1429 335.945 58.6524 341.994L58.4262 342.544L58.8006 343.005C61.5533 346.396 64.3412 350.283 67.2554 354.486L68.3268 356.031L69.009 354.279C70.6625 350.032 72.4662 346.729 74.3595 344.351C76.2541 341.971 78.1965 340.567 80.1222 340.012L80.1346 340.008L80.147 340.005C81.1529 339.686 82.2283 339.658 83.2496 339.923C84.2709 340.188 85.1967 340.736 85.9203 341.504L85.9367 341.521L85.9538 341.538C87.7457 343.266 89.2532 346.151 90.4675 350.37C91.8247 355.409 92.6451 360.578 92.9149 365.789L92.9157 365.805L92.9169 365.82C93.3801 371.418 93.2547 377.049 92.5429 382.621L92.5411 382.635L92.5398 382.648C92.1192 386.842 90.7914 390.894 88.6483 394.524L88.6436 394.532L88.6389 394.54C87.954 395.751 86.9917 396.784 85.8312 397.552C84.6734 398.319 83.3511 398.801 81.9716 398.96C77.6245 399.366 73.1853 395.774 69.3822 388.002L68.4548 386.107L67.575 388.024C64.6184 394.469 61.5919 400.884 58.5243 407.158L58.3158 407.584L58.5144 408.016C61.2695 413.997 65.3026 419.303 70.3296 423.558C74.7095 427.358 80.2812 429.507 86.0792 429.632L86.0889 429.632L86.0985 429.632C92.6514 429.647 98.0663 426.508 102.083 420.448C106.068 414.436 108.366 406.119 109.397 396.23L109.398 396.222L109.399 396.215C110.34 385.615 110.16 374.945 108.864 364.383C107.985 354.826 106.189 345.376 103.5 336.163Z" stroke="#A5D936" stroke-width="2"/>
<path d="M1.36262 381.444V383.455L2.9664 382.241C12.6127 374.935 22.619 368.116 32.9473 361.812C32.7323 365.842 32.5391 369.878 32.3838 374.008C24.1822 378.045 15.6223 382.816 6.70453 388.32L6.23676 388.608L6.2298 389.158C6.21604 390.244 6.20059 391.334 6.1851 392.426C6.13754 395.779 6.08966 399.154 6.08966 402.535V404.072L7.49519 403.449C15.8489 399.743 23.9241 396.526 31.8756 393.728C31.8175 397.847 31.814 401.965 31.8138 406.17C22.4368 408.176 12.9156 410.577 3.18634 413.31L2.45672 413.514V414.272V427.44V428.466L3.48222 428.44C18.8702 428.047 34.2255 427.739 49.548 427.514L50.5922 427.499L50.5317 426.457C48.7285 395.406 49.1496 364.265 51.792 333.274L51.956 331.35L50.29 332.327C35.8903 340.765 19.9788 352.358 1.71676 367.807L1.36262 368.106V368.57V381.444Z" stroke="#A5D936" stroke-width="2"/>
<path d="M412.202 299.961L410.895 301.555C406.657 306.729 402.54 311.687 398.544 316.431L398.214 316.822L397.704 316.784C391.142 316.289 384.555 316.215 377.984 316.561L377.974 316.561C370.713 316.868 363.814 317.51 357.293 318.39C351.096 319.231 346.686 320.056 343.86 320.974C342.44 321.435 341.505 321.894 340.951 322.331C340.423 322.748 340.346 323.05 340.357 323.266C340.373 323.478 340.492 323.782 341.183 324.121C341.9 324.473 343.049 324.759 344.718 324.944C350.294 325.429 355.894 325.582 361.489 325.403L361.5 325.402V325.402C361.866 325.395 362.23 325.387 362.593 325.379C370.868 325.206 378.164 325.054 384.213 325.108C389.928 325.032 395.619 325.841 401.086 327.507L401.097 327.51L401.108 327.514C403.583 328.331 405.537 329.517 406.877 331.106C408.229 332.709 408.898 334.656 408.906 336.874L408.906 336.877C408.906 340.86 406.54 344.677 402.413 348.082C398.26 351.508 392.314 354.377 384.816 356.545L384.808 356.547L384.8 356.55C376.191 358.889 367.315 360.107 358.394 360.174C351.708 360.323 345.021 359.959 338.391 359.087C332.554 358.361 326.796 357.104 321.188 355.332L320.07 354.979L320.596 353.93C322.303 350.526 324.194 347.218 326.26 344.02L326.655 343.409L327.357 343.596C336.811 346.11 346.587 347.196 356.362 346.816L356.378 346.816L356.394 346.816C360.823 346.783 365.223 346.089 369.447 344.755C370.78 344.226 371.689 343.687 372.233 343.177C372.767 342.677 372.864 342.294 372.829 342.002C372.802 341.771 372.642 341.427 371.869 341.058C371.089 340.685 369.861 340.385 368.107 340.2C364.56 339.826 358.951 339.616 351.461 339.363C344.63 339.175 337.815 338.611 331.046 337.672C326.254 337.025 321.587 335.664 317.198 333.634L317.19 333.63L317.182 333.626C313.193 331.691 310.767 328.997 310.41 325.494M412.202 299.961L310.41 325.494M412.202 299.961L410.141 299.922M412.202 299.961L410.141 299.922M310.41 325.494C310.091 322.37 311.825 319.738 315.104 317.411C318.39 315.079 323.394 313.065 330.29 311.095L330.297 311.093L330.304 311.091C339.068 308.722 347.952 306.819 356.917 305.389M310.41 325.494L356.917 305.389M356.917 305.389C366.23 303.903 375.74 302.442 385.453 301.332M356.917 305.389L385.453 301.332M410.141 299.922C401.888 299.764 393.634 300.236 385.453 301.332M410.141 299.922L385.453 301.332" stroke="#A5D936" stroke-width="2"/>
<path d="M291.915 321.133L291.905 321.125L291.895 321.118C286.866 317.31 281.264 314.326 275.298 312.277C268.611 309.853 261.763 307.897 254.804 306.425C249.497 305.158 244.107 304.266 238.674 303.756C234.765 303.276 230.798 303.644 227.043 304.835L225.517 305.319L226.622 306.478C229.862 309.878 233.425 313.257 237.309 316.613L237.783 317.023L238.359 316.775C241.934 315.234 246.698 315.276 252.951 316.76L252.958 316.761C256.463 317.567 259.876 318.729 263.144 320.229L263.144 320.229L263.154 320.234C265.934 321.472 268.481 323.177 270.684 325.275L270.684 325.276L270.691 325.282C272.417 326.894 273.611 328.992 274.114 331.299L274.119 331.322L274.125 331.345C274.355 332.205 274.381 333.108 274.201 333.98C274.024 334.84 273.65 335.647 273.111 336.339C271.671 337.874 269.718 338.83 267.621 339.023L267.608 339.024L267.596 339.026C264.382 339.406 261.125 339.172 257.998 338.338L257.99 338.336L257.983 338.334C251.61 336.742 245.762 333.522 241.01 328.988L240.563 328.562L239.981 328.771C236.761 329.929 233.755 331.147 230.983 332.469L229.704 333.079L230.706 334.08C234.924 338.291 239.724 341.876 244.96 344.725C250.626 347.822 256.694 350.114 262.992 351.537C269.535 353.191 276.346 353.492 283.01 352.423C288.121 351.706 292.862 349.355 296.526 345.721L296.533 345.715L296.539 345.708C298.092 344.109 299.225 342.151 299.838 340.008C300.449 337.872 300.525 335.618 300.057 333.445C299.227 328.798 296.399 324.708 291.915 321.133Z" stroke="#A5D936" stroke-width="2"/>
<path d="M223.233 338.753L225.335 339.543L224.516 337.452C217.653 319.93 216.65 306.664 219.257 295.426L219.433 294.668L218.741 294.311C214.224 291.985 209.835 289.419 205.593 286.624L204.473 285.887L204.085 287.17C200.502 299.02 200.851 313.179 207.209 331.926L207.353 332.349L207.763 332.524C212.726 334.647 217.845 336.728 223.233 338.753Z" stroke="#A5D936" stroke-width="2"/>
<path d="M162.276 263.74L162.079 264.366L162.575 264.795C163.966 266.002 165.375 267.236 166.807 268.489C170.888 272.062 175.156 275.797 179.73 279.549C179.292 281.432 178.938 283.334 178.669 285.249C174.683 282.243 170.912 279.269 167.268 276.395C166.25 275.591 165.241 274.796 164.24 274.009L162.947 272.993L162.64 274.609C161.94 278.301 161.466 282.032 161.222 285.781L161.185 286.35L161.656 286.672C163.211 287.734 164.789 288.821 166.394 289.926C170.087 292.467 173.92 295.106 177.936 297.776C177.984 299.877 178.114 302.052 178.327 304.302C175.838 302.797 173.396 301.302 171 299.836C167.362 297.61 163.831 295.449 160.402 293.414L158.861 292.499L158.892 294.292C158.975 299.069 159.301 303.84 159.867 308.584L159.931 309.123L160.418 309.363C164.58 311.412 168.878 313.61 173.347 315.896C179.881 319.238 186.783 322.768 194.162 326.294L196.156 327.247L195.555 325.12C190.043 305.607 190.627 291.269 194.75 279.617L194.989 278.942L194.427 278.498C185.355 271.336 177.652 263.816 170.435 256.772C169.469 255.829 168.511 254.894 167.56 253.969L166.551 252.989L165.957 254.264C164.523 257.338 163.293 260.504 162.276 263.74Z" stroke="#A5D936" stroke-width="2"/>
<path d="M131.032 228.609L130.213 228.378L129.854 229.149C122.001 246.011 116.095 266.816 114.222 293.771L115.22 293.84L115.156 294.838C118.64 295.059 122.104 295.526 125.522 296.235L126.691 296.478L126.725 295.285C127.034 284.529 128.337 273.828 130.613 263.319C133.052 276 136.604 288.445 141.23 300.509L141.39 300.924L141.805 301.084C144.677 302.19 147.583 303.398 150.523 304.71L152.041 305.387L151.928 303.729C150.311 279.921 154.051 262.303 160.738 248.461L161.059 247.797L160.519 247.294C157.811 244.77 155.113 242.411 152.382 240.232L151.402 239.451L150.858 240.579C147.354 247.839 144.673 255.463 142.863 263.307C140.982 253.103 139.826 242.777 139.404 232.405L139.38 231.803L138.835 231.543C136.322 230.346 133.712 229.364 131.032 228.609Z" stroke="#A5D936" stroke-width="2"/>
<path d="M111.983 229.964L111.98 229.961C109.151 227.647 105.138 227.246 100.025 228.752L100.01 228.757L99.9957 228.762C94.961 230.416 90.2895 233.018 86.2339 236.429C81.3609 240.379 77.0529 244.978 73.4304 250.099L72.7862 251.01L73.7616 251.551C76.1944 252.901 78.4555 254.539 80.496 256.43L81.3321 257.205L81.9915 256.275C86.5885 249.791 91.1356 245.87 95.1489 244.484C97.5301 243.664 99.0698 243.849 100.069 244.553C101.073 245.26 101.739 246.643 101.875 249.031C101.929 252.091 101.517 255.142 100.653 258.079L100.647 258.098L100.642 258.118C99.7422 261.704 98.4733 265.187 96.8557 268.511L96.8556 268.511L96.8499 268.524C95.4506 271.501 93.6151 274.254 91.4039 276.691L91.4038 276.691L91.3964 276.699C89.6207 278.7 87.4035 280.26 84.9201 281.256C83.0103 281.99 81.4375 282.02 80.1508 281.518C78.8588 281.014 77.6953 279.911 76.7327 278.065L75.9668 276.595L75.0237 277.958C71.2754 283.373 67.5278 289.031 63.7807 294.931L63.4628 295.431L63.7496 295.951C64.6076 297.503 65.7735 298.865 67.1764 299.951C68.5792 301.038 70.1891 301.827 71.9075 302.269L71.924 302.273L71.9407 302.277C75.8231 303.137 79.8754 302.794 83.5578 301.293C88.6831 299.401 93.2531 296.256 96.8509 292.145C100.994 287.454 104.418 282.174 107.009 276.477C109.843 270.393 112.093 264.053 113.728 257.544C115.326 252.079 116.136 246.413 116.134 240.72L116.134 240.701L116.133 240.683C115.961 235.984 114.79 232.279 111.983 229.964Z" stroke="#A5D936" stroke-width="2"/>
<path d="M1.36049 308.522V310.773L3.03078 309.264C17.7094 296.006 30.7643 285.034 42.4335 276.073C41.9637 278.902 41.4986 281.773 41.0562 284.684C31.1284 292.382 20.2295 301.63 8.19737 312.535L7.88207 312.82L7.86935 313.246C7.80621 315.357 7.7476 317.448 7.68906 319.537C7.6291 321.676 7.56923 323.813 7.50465 325.965L7.4334 328.34L9.18143 326.731C19.8789 316.884 29.6448 308.456 38.639 301.284C38.2611 304.091 37.8936 306.933 37.5366 309.812C27.1184 317.974 15.7006 327.84 3.05338 339.623L2.73786 339.917L2.73506 340.348L2.65082 353.32L2.63604 355.595L4.32232 354.067C23.0365 337.108 39.1092 324.454 53.2863 315.279L53.6777 315.026L53.7353 314.563C56.543 292.009 60.7891 269.656 66.4475 247.643L67.069 245.225L64.9502 246.545C47.6933 257.297 26.9748 272.983 1.7054 294.893L1.36049 295.192V295.648V308.522Z" stroke="#A5D936" stroke-width="2"/>
<path d="M410.958 228.577L412.291 226.547L409.915 227.05C402.143 228.694 394.51 230.934 387.082 233.751C378.212 236.913 369.6 240.369 361.213 243.79L361.206 243.793L361.2 243.796C351.307 248.004 343.413 251.605 336.884 255.044C331.613 257.658 326.613 260.787 321.958 264.385L321.941 264.398L321.925 264.411C318.501 267.297 316.143 270.076 315.402 272.947L315.401 272.952C314.99 274.58 315.037 276.095 315.732 277.395C316.425 278.692 317.674 279.606 319.316 280.22L319.336 280.227L319.356 280.234C323.234 281.499 327.322 281.992 331.39 281.683C337.865 281.295 344.311 280.522 350.695 279.371C352.534 279.066 354.261 278.775 355.871 278.503C360.658 277.695 364.411 277.062 367.018 276.771C368.746 276.579 369.913 276.626 370.599 276.82C370.933 276.915 371.069 277.022 371.114 277.071C371.135 277.095 371.158 277.121 371.154 277.223C371.141 277.541 370.933 278.057 370.217 278.765C369.521 279.453 368.447 280.218 366.964 281.033C362.559 283.207 357.895 284.811 353.085 285.806L353.068 285.81L353.052 285.814C343.8 288.054 334.255 288.831 324.763 288.116L324.277 288.08L323.949 288.439C321.369 291.265 318.835 293.983 316.371 296.625C315.758 297.283 315.149 297.936 314.544 298.585L313.252 299.972L315.127 300.255C320.645 301.088 326.233 301.36 331.806 301.065C338.878 300.74 345.916 299.886 352.86 298.51C362.907 296.624 372.708 293.601 382.071 289.5C389.235 286.479 395.856 282.304 401.669 277.142L401.683 277.13L401.696 277.117C406.222 272.792 408.751 268.479 408.752 264.504C408.759 262.277 408.076 260.405 406.64 259.034C405.225 257.684 403.194 256.93 400.713 256.678L400.697 256.677L400.681 256.676C395.119 256.289 389.531 256.77 384.116 258.101C378.291 259.368 371.334 261.075 363.571 262.979C363.147 263.083 362.721 263.188 362.292 263.293L362.292 263.293L362.283 263.296C357.143 264.611 351.927 265.61 346.665 266.286C345.17 266.436 344.265 266.364 343.797 266.191C343.693 266.152 343.631 266.115 343.597 266.09C343.58 266.078 343.571 266.069 343.566 266.063C343.561 266.058 343.559 266.055 343.559 266.055C343.558 266.054 343.558 266.053 343.557 266.05C343.556 266.048 343.553 266.04 343.551 266.027C343.547 266.001 343.544 265.949 343.557 265.862C343.626 265.498 343.884 265.016 344.546 264.402C345.211 263.786 346.207 263.108 347.597 262.352C350.376 260.84 354.549 259.108 360.325 256.97L360.325 256.97C366.43 254.708 372.826 252.613 379.628 250.742L379.628 250.742L379.637 250.74C385.761 248.993 391.988 247.629 398.282 246.658L398.702 246.593L398.947 246.245C402.946 240.571 406.95 234.681 410.958 228.577Z" stroke="#A5D936" stroke-width="2"/>
<path d="M288.121 267.574L288.36 266.603C283.025 265.287 277.578 264.47 272.09 264.164C267.33 263.744 262.55 263.594 257.773 263.714C253.632 263.8 249.513 264.346 245.493 265.341L244.241 265.651L244.853 266.787C246.397 269.65 248.184 272.377 250.192 274.937L250.612 275.471L251.263 275.278C256.129 273.838 261.245 273.448 266.273 274.132L266.291 274.135L266.309 274.136C269.035 274.408 271.712 275.052 274.263 276.05L274.279 276.056L274.296 276.062C276.063 276.684 277.583 277.86 278.628 279.415C279.005 280.092 279.222 280.847 279.26 281.622C279.298 282.408 279.152 283.193 278.833 283.913L278.824 283.933L278.816 283.953C278.039 285.938 276.641 287.617 274.83 288.741L274.83 288.741L274.82 288.747C272.498 290.225 269.879 291.175 267.149 291.53L267.141 291.531L267.132 291.532C263.913 292.005 260.636 291.918 257.447 291.275L257.44 291.274C251.722 290.16 247.829 287.665 245.672 284.373L245.317 283.831L244.677 283.934C240.508 284.603 236.489 285.091 232.592 285.468L231.038 285.619L231.825 286.968C233.902 290.527 236.859 293.493 240.411 295.582C245.101 298.408 250.256 300.377 255.635 301.397C262.514 302.858 269.607 303.007 276.541 301.839C282.746 300.871 288.664 298.558 293.881 295.063L293.889 295.058L293.897 295.052C298.588 291.776 301.568 287.832 302.7 283.591C303.31 281.7 303.388 279.677 302.924 277.744C302.458 275.805 301.465 274.033 300.055 272.623C297.291 269.758 293.261 267.903 288.377 266.608L288.121 267.574Z" stroke="#A5D936" stroke-width="2"/>
<path d="M220.434 288.186L221.407 288.708L221.83 287.688C226.175 277.207 233.751 268.135 242.675 258.231L243.532 257.28L242.401 256.679C238.748 254.738 235.262 252.497 231.978 249.981L231.288 249.452L230.668 250.062C221.193 259.395 212.644 268.324 207.384 279.112L207.009 279.881L207.71 280.37C211.795 283.222 216.044 285.832 220.434 288.186Z" stroke="#A5D936" stroke-width="2"/>
<path d="M192.916 221.031L192.207 221.643L192.771 222.391C192.992 222.682 193.212 222.975 193.433 223.267C197.528 228.689 201.718 234.239 206.293 239.563C204.993 240.729 203.719 241.907 202.472 243.098C198.419 238.407 194.64 233.597 190.936 228.844L190.264 227.982L189.465 228.728C187.346 230.705 185.295 232.741 183.314 234.862L182.72 235.499L183.269 236.175C187.071 240.86 191.028 245.69 195.314 250.42C194.294 251.545 193.324 252.686 192.391 253.857C187.675 248.838 183.324 243.749 179.105 238.815C178.915 238.592 178.725 238.37 178.536 238.148L177.756 237.237L176.999 238.168C175.052 240.565 173.238 243.066 171.563 245.66L171.152 246.298L171.655 246.866C179.511 255.736 187.901 264.12 196.778 271.969L197.715 272.797L198.317 271.702C204.131 261.126 213.084 252.589 223.035 243.622L223.818 242.916L223.072 242.171C215.632 234.746 209.307 226.267 202.985 217.792C202.4 217.007 201.815 216.223 201.229 215.44L200.603 214.603L199.795 215.264C197.476 217.162 195.183 219.075 192.916 221.031Z" stroke="#A5D936" stroke-width="2"/>
<path d="M165.065 180.471L164.38 180.116L163.863 180.688C154.498 191.033 144.422 202.654 135.768 217.743L136.636 218.24L136.306 219.184C139.382 220.26 142.342 221.641 145.143 223.307L145.991 223.811L146.507 222.97C150.342 216.722 154.653 210.779 159.4 205.195C159.234 207.551 159.042 209.962 158.846 212.423C158.346 218.704 157.819 225.319 157.629 232.222L157.617 232.68L157.956 232.989C160.138 234.977 162.284 237.093 164.449 239.314L165.325 240.213L166.006 239.158C173.954 226.843 184.371 217.571 194.883 208.799L195.629 208.176L195.028 207.413C192.584 204.31 190.065 201.197 187.412 198.359L186.757 197.659L186.03 198.284C181.051 202.559 176.264 207.051 171.681 211.746C171.743 211.24 171.805 210.736 171.867 210.233C172.883 201.992 173.852 194.123 174.02 186.57L174.031 186.045L173.606 185.738C170.893 183.774 168.038 182.013 165.065 180.471Z" stroke="#A5D936" stroke-width="2"/>
<path d="M142.814 195.776L142.814 195.776L142.82 195.769C145.592 191.903 147.336 188.206 147.341 184.587C147.4 182.784 146.984 180.997 146.137 179.405C145.289 177.813 144.038 176.472 142.51 175.514C139.189 173.272 134.401 172.11 128.101 172.324L128.091 172.324L128.082 172.325C122.263 172.632 116.54 173.933 111.161 176.171C105.524 178.466 100.275 181.617 95.5987 185.513L94.195 186.682L95.9365 187.234C99.0593 188.224 102.095 189.47 105.014 190.958L105.586 191.25L106.089 190.851C111.658 186.438 117.234 184.055 122.288 183.546L122.317 183.543L122.347 183.538C124.561 183.181 126.832 183.484 128.875 184.41C129.452 184.69 129.939 185.126 130.281 185.668C130.621 186.207 130.804 186.829 130.81 187.466C130.712 189.434 130.047 191.333 128.894 192.932L128.876 192.958L128.859 192.985C127.433 195.253 125.682 197.299 123.662 199.06L123.662 199.06L123.656 199.065C121.56 200.922 119.237 202.504 116.741 203.774L116.741 203.774L116.733 203.778C114.269 205.058 111.649 206.014 108.939 206.621L108.938 206.621C104.332 207.656 101.288 207.059 99.377 204.96L98.7383 204.258L98.0041 204.859C93.2891 208.719 88.5201 212.942 83.6973 217.53L82.8605 218.325L83.768 219.04C86.2943 221.029 89.4506 222.045 92.6626 221.904C96.7941 221.852 100.899 221.237 104.864 220.074C109.946 218.767 114.874 216.919 119.563 214.563C124.165 212.276 128.518 209.519 132.552 206.336C136.448 203.311 139.901 199.756 142.814 195.776Z" stroke="#A5D936" stroke-width="2"/>
<path d="M1.86032 221.862L1.36276 222.152V222.727V235.6H2.36276L2.90324 236.442C19.9986 225.46 37.6452 215.361 55.7733 206.184C55.7403 206.352 55.7073 206.52 55.6742 206.688C55.25 208.845 54.8227 211.018 54.3828 213.205C41.3268 220.2 26.8204 229.006 10.6351 239.674L10.2019 239.959L10.1859 240.478L9.80712 252.748L9.74487 254.765L11.3874 253.593C26.1468 243.064 39.511 234.307 51.6003 227.128C51.1602 229.307 50.7215 231.501 50.2895 233.722C36.5749 242.344 21.1558 253.17 3.70562 266.499L3.31584 266.796L3.31263 267.287C3.30215 268.89 3.28571 270.496 3.26925 272.104C3.24182 274.784 3.21433 277.469 3.21433 280.153V282.253L4.8447 280.929C30.8136 259.842 52.0176 244.817 69.6549 234.672L70.0087 234.469L70.1191 234.076C73.4639 222.174 76.8272 211.164 80.0106 200.742C81.7921 194.91 83.5173 189.262 85.1514 183.746L85.7008 181.891L83.8699 182.515C61.6531 190.088 34.7864 202.729 1.86032 221.862Z" stroke="#A5D936" stroke-width="2"/>
<path d="M409.728 154.188C403.469 156.872 397.442 160.067 391.707 163.739C384.759 168.001 378.025 172.527 371.421 177.247C364.702 181.949 358.238 187.006 352.058 192.396C347.544 196.28 343.369 200.539 339.576 205.129C336.867 208.281 334.742 211.891 333.302 215.79L333.294 215.81L333.288 215.83C332.695 217.674 332.441 219.303 332.705 220.635C332.986 222.061 333.848 223.076 335.228 223.582C337.619 224.459 340.794 224.317 344.679 223.228L344.679 223.228L344.69 223.224C350.06 221.65 355.317 219.714 360.425 217.429C366.413 214.801 370.955 212.845 373.852 211.852C375.33 211.345 376.206 211.202 376.646 211.261C376.686 211.266 376.715 211.272 376.737 211.278C376.741 211.314 376.745 211.374 376.738 211.464C376.703 211.946 376.432 212.611 375.754 213.498C375.088 214.368 374.098 215.365 372.776 216.504C369.071 219.482 365.036 222.026 360.751 224.084L360.733 224.093L360.715 224.102C353.467 227.954 345.604 230.518 337.478 231.68L337.066 231.739L336.818 232.073C333.508 236.519 330.181 240.759 326.835 244.793L325.397 246.528L327.648 246.43C332.312 246.229 336.932 245.438 341.397 244.076C347.62 242.284 353.698 240.022 359.579 237.31C368.717 233.203 377.408 228.165 385.514 222.278C392.057 217.644 397.933 212.132 402.975 205.897L402.983 205.887L402.991 205.877C406.988 200.662 409.143 195.943 409.144 192.034C409.159 189.843 408.61 188.041 407.326 186.848C406.042 185.654 404.227 185.258 402.132 185.424L402.113 185.426L402.094 185.428C397.322 185.992 392.688 187.396 388.406 189.575C383.397 191.911 377.368 194.974 370.689 198.375L370.681 198.379L370.673 198.384C366.649 200.522 362.479 202.376 358.195 203.93C357.634 204.111 357.193 204.209 356.859 204.246C356.615 204.273 356.465 204.262 356.383 204.247C356.383 204.241 356.383 204.235 356.383 204.228C356.383 204.157 356.393 204.057 356.422 203.92C356.708 202.738 357.788 201.195 360.113 199.108C362.41 197.046 365.78 194.575 370.391 191.518L370.393 191.516C375.254 188.276 380.327 185.156 385.725 182.374L385.736 182.369L385.746 182.363C390.55 179.747 395.532 177.47 400.655 175.55L401.009 175.417L401.187 175.082C404.575 168.701 407.835 162.168 411.023 155.541L412.18 153.136L409.728 154.188ZM376.784 211.295C376.784 211.295 376.782 211.294 376.779 211.292C376.783 211.294 376.784 211.295 376.784 211.295ZM376.727 211.231C376.727 211.23 376.726 211.229 376.726 211.229C376.726 211.229 376.727 211.23 376.727 211.231Z" stroke="#A5D936" stroke-width="2"/>
<path d="M322.102 218.396L322.096 218.383L322.089 218.371C321.265 216.832 320.092 215.506 318.664 214.501C317.241 213.499 315.603 212.843 313.882 212.584C309.636 211.803 305.278 211.857 301.052 212.741C296.942 213.41 292.914 214.508 289.034 216.018L289.032 216.019C285.185 217.525 281.51 219.439 278.07 221.727L277.458 222.134L277.664 222.839C278.469 225.605 279.454 228.316 280.612 230.954L281.102 232.072L282.101 231.372C285.987 228.649 290.457 226.873 295.152 226.185L295.162 226.184L295.173 226.182C297.1 225.858 299.078 226.03 300.92 226.682C301.513 226.905 302.037 227.279 302.441 227.767C302.84 228.25 303.107 228.827 303.217 229.443C303.427 231.428 303.008 233.428 302.021 235.162L302.006 235.188L301.993 235.214C300.751 237.727 299.035 239.976 296.938 241.837L296.938 241.837L296.932 241.842C294.701 243.853 292.137 245.461 289.356 246.595L289.356 246.595L289.348 246.598C286.728 247.69 283.919 248.259 281.08 248.274C278.799 248.253 277.112 247.79 275.924 247.024C274.757 246.271 273.997 245.18 273.632 243.729L273.354 242.622L272.293 243.044C268.376 244.6 264.367 245.917 260.29 246.988L259.437 247.212L259.553 248.086C259.757 249.635 260.298 251.12 261.137 252.437C261.976 253.755 263.093 254.873 264.411 255.712L264.417 255.717L264.424 255.721C268.007 257.924 272.134 259.083 276.34 259.066C282.665 259.235 288.954 258.052 294.785 255.597C300.982 253.088 306.671 249.471 311.571 244.923C315.979 240.994 319.425 236.105 321.644 230.634L321.644 230.634L321.647 230.625C323.601 225.677 323.677 221.545 322.102 218.396Z" stroke="#A5D936" stroke-width="2"/>
<path d="M247.929 251.23L248.612 251.579L249.126 251.01C258.465 240.676 268.525 228.958 277.164 213.885L277.771 212.826L276.612 212.439C273.463 211.39 270.433 210.009 267.576 208.32L266.725 207.817L266.212 208.662C257.639 222.785 247.335 233.455 237.521 243.266L236.71 244.077L237.625 244.77C240.863 247.222 244.311 249.384 247.929 251.23Z" stroke="#A5D936" stroke-width="2"/>
<path d="M230.034 187.501L229.501 188.156L230.058 188.791C231.513 190.449 232.951 192.112 234.379 193.764C237.558 197.443 240.688 201.065 243.849 204.438C242.599 205.984 241.31 207.481 239.999 208.947C236.279 204.77 232.63 200.282 228.865 195.649L228.13 194.745L227.348 195.608C225.471 197.677 223.393 199.659 221.294 201.604L220.621 202.227L221.184 202.951C221.288 203.085 221.392 203.219 221.496 203.353C225.095 207.983 228.634 212.536 232.308 216.827C231.072 218.006 229.829 219.162 228.579 220.297C224.901 215.916 221.362 211.263 217.76 206.525C217.196 205.785 216.631 205.042 216.064 204.297L215.42 203.453L214.616 204.146C212.394 206.06 210.114 207.962 207.819 209.837L207.076 210.444L207.652 211.211C208.265 212.03 208.878 212.85 209.492 213.67C215.616 221.862 221.762 230.084 228.87 237.165L229.543 237.835L230.247 237.197C240.47 227.931 251.09 217.703 259.68 204.106L260.159 203.348L259.458 202.79C252.527 197.263 246.054 190.263 239.058 182.697C238.299 181.876 237.534 181.049 236.761 180.216L235.88 179.266L235.184 180.359C233.607 182.837 231.887 185.222 230.034 187.501Z" stroke="#A5D936" stroke-width="2"/>
<path d="M192.639 143.54L191.665 143.019L191.243 144.04C186.913 154.519 179.296 163.618 170.388 173.437L171.128 174.109L170.653 174.989C174.215 176.911 177.612 179.123 180.811 181.602L181.491 182.13L182.114 181.535C186.508 177.336 190.7 172.932 194.676 168.337C195.669 176.827 195.536 185.414 194.278 193.875L194.21 194.337L194.52 194.686C196.734 197.179 198.854 199.743 200.92 202.367L201.556 203.175L202.345 202.517C212.737 193.867 222.688 185.108 229.67 173.734L230.077 173.072L229.535 172.514C226.622 169.517 223.578 166.516 220.349 163.555L219.443 162.724L218.814 163.781C215.855 168.753 212.36 173.382 208.393 177.586C208.333 168.344 206.719 159.171 203.615 150.453L203.507 150.147L203.24 149.964C199.944 147.698 196.41 145.557 192.639 143.54Z" stroke="#A5D936" stroke-width="2"/>
<path d="M165.667 134.576L165.15 135.432L165.657 134.57C160 131.245 153.718 129.12 147.204 128.327C140.803 127.377 134.293 127.426 127.906 128.471C122.121 129.383 116.546 131.322 111.444 134.196L109.596 135.237L111.574 136.001C116.396 137.862 120.854 139.782 124.951 141.76L125.4 141.977L125.844 141.748C131.4 138.879 137.686 137.734 143.896 138.459L143.91 138.461L143.924 138.462C147.046 138.739 150.089 139.599 152.894 140.997L152.909 141.005L152.925 141.012C154.768 141.854 156.276 143.291 157.206 145.091C157.51 145.784 157.644 146.54 157.598 147.296C157.552 148.061 157.322 148.803 156.928 149.461L156.923 149.47L156.917 149.479C155.923 151.224 154.43 152.633 152.63 153.524L152.621 153.528L152.613 153.532C150.307 154.729 147.82 155.538 145.251 155.927L145.251 155.927L145.239 155.929C142.117 156.443 138.951 156.641 135.789 156.52L135.789 156.52L135.779 156.519C129.928 156.354 125.358 155.252 121.855 152.763L121.386 152.431L120.863 152.668C115.606 155.049 110.195 157.768 104.631 160.866L103.025 161.761L104.648 162.623C108.383 164.608 112.472 165.842 116.682 166.254C121.84 166.846 127.033 167.092 132.224 166.989C138.109 167.011 143.989 166.672 149.833 165.973C154.755 165.459 159.59 164.309 164.217 162.553C168.109 161.181 171.482 158.641 173.875 155.28L173.875 155.28L173.882 155.272C174.951 153.735 175.615 151.954 175.812 150.092C176.008 148.233 175.732 146.354 175.01 144.63C173.535 140.964 170.445 137.463 165.667 134.576Z" stroke="#A5D936" stroke-width="2"/>
<path d="M1.36207 162.68V164.105L2.70222 163.62C23.0966 156.243 43.9189 150.109 65.0546 145.25C64.8816 147.458 64.6782 149.663 64.4569 151.876C46.8363 156.516 29.4738 162.085 12.4422 168.561L11.8048 168.803L11.7976 169.485C11.781 171.076 11.7509 172.677 11.7207 174.283C11.6752 176.705 11.6295 179.136 11.6295 181.555V183.069L13.0216 182.475C29.3626 175.509 46.051 169.388 63.0206 164.137C62.7535 166.115 62.4738 168.1 62.1815 170.094C42.4679 176.884 23.1572 184.791 4.34352 193.779L3.78145 194.047L3.77462 194.67C3.72783 198.937 3.70436 203.204 3.70436 207.47V209.119L5.16636 208.357C38.132 191.185 65.2099 180.066 87.5695 173.597L88.1074 173.441L88.2558 172.902C92.3593 157.981 95.4499 143.858 96.4806 129.516L96.5653 128.337L95.3884 128.449C69.5083 130.911 38.8745 137.268 2.06189 148.853L1.36207 149.073V149.806V162.68Z" stroke="#A5D936" stroke-width="2"/>
<path d="M411.06 82.5311L411.843 80.4041L409.744 81.2597C405.145 83.1349 400.737 85.4495 396.582 88.1715C391.308 91.432 386.213 94.9739 381.319 98.782C375.861 102.937 370.852 107.651 366.374 112.847L366.372 112.849C362.563 117.295 359.31 122.189 356.687 127.423C354.466 131.789 352.877 136.449 351.968 141.263L351.967 141.27L351.965 141.277C351.531 143.771 351.374 145.881 351.555 147.567C351.734 149.242 352.265 150.654 353.361 151.538C355.346 153.14 357.982 153.188 361.031 152.094L361.046 152.088L361.06 152.083C365.244 150.431 369.258 148.38 373.046 145.957C377.594 143.198 380.99 141.143 383.096 140.118C383.601 139.872 384.002 139.72 384.309 139.643C384.495 139.596 384.619 139.584 384.694 139.583C384.695 139.589 384.696 139.596 384.697 139.604C384.705 139.683 384.707 139.797 384.693 139.952C384.568 141.282 383.6 143.241 381.534 145.849C378.808 149.078 375.723 151.986 372.339 154.516L372.332 154.522L372.324 154.528C365.882 159.539 359.977 162.489 354.918 163.334L354.406 163.419L354.182 163.887C351.458 169.548 348.659 175.036 345.787 180.35L344.853 182.078L346.8 181.817C350.505 181.319 354.084 180.131 357.351 178.313C362.267 175.77 366.959 172.816 371.376 169.483C378.628 164.122 385.356 158.086 391.469 151.456C396.638 145.969 401.154 139.904 404.928 133.381L404.934 133.372L404.939 133.363C407.998 127.811 409.592 123.049 409.593 119.211C409.608 117.062 409.207 115.306 408.26 114.104C407.263 112.839 405.803 112.363 404.146 112.503L404.123 112.505L404.101 112.508C400.453 112.988 396.961 114.283 393.883 116.297C390.277 118.436 385.958 121.211 381.113 124.323L380.716 124.578L380.704 124.585L380.693 124.593C377.8 126.563 374.705 128.217 371.46 129.528C371.081 129.649 370.826 129.681 370.668 129.675C370.588 129.672 370.548 129.66 370.532 129.653C370.521 129.637 370.492 129.583 370.469 129.456C370.435 129.263 370.43 128.965 370.492 128.534C370.731 126.859 371.603 125.013 373.327 122.864C375.052 120.714 377.587 118.312 381.067 115.529L381.074 115.523C384.673 112.588 388.482 109.921 392.47 107.543L392.477 107.539L392.485 107.534C395.948 105.387 399.586 103.537 403.36 102.001L403.759 101.839L403.915 101.437C406.386 95.0785 408.772 88.7484 411.06 82.5311ZM370.524 129.648C370.524 129.648 370.526 129.649 370.529 129.652C370.525 129.65 370.524 129.649 370.524 129.648ZM370.536 129.657C370.537 129.659 370.537 129.659 370.537 129.659C370.537 129.659 370.537 129.659 370.536 129.657Z" fill="#A5D936" stroke="#A5D936" stroke-width="2"/>
<path d="M335.109 133.82L335.56 132.927C331.601 130.928 327.012 130.578 322.796 131.952C318.572 133.16 314.705 135.377 311.528 138.411L311.523 138.416C307.953 141.872 304.969 145.886 302.69 150.301L302.474 150.719L302.659 151.152C304.384 155.191 306.014 158.984 307.602 162.54L308.369 164.256L309.364 162.662C313.008 156.822 316.51 153.498 320.087 152.509L320.127 152.498L320.165 152.484C320.977 152.186 321.845 152.079 322.705 152.17C323.548 152.259 324.361 152.537 325.082 152.982C325.822 153.565 326.435 154.293 326.883 155.122C327.339 155.965 327.613 156.895 327.689 157.85L327.69 157.873L327.693 157.897C328.086 161.001 327.857 164.151 327.021 167.166L327.016 167.184L327.011 167.202C326.155 170.804 324.773 174.261 322.912 177.462L322.912 177.462L322.907 177.47C321.247 180.386 319.127 183.015 316.628 185.256L316.62 185.264L316.611 185.272C314.71 187.059 312.401 188.353 309.884 189.041C308.084 189.454 306.843 189.202 305.948 188.517C305.01 187.8 304.251 186.46 303.769 184.283L303.366 182.463L302.072 183.806C298.679 187.329 295.322 190.508 292.002 193.346L291.59 193.698L291.66 194.235C292.144 197.942 293.443 200.821 295.894 202.733C298.376 204.671 301.754 205.204 305.997 204.326L306.018 204.322L306.039 204.317C311.681 202.892 316.894 200.125 321.233 196.25C326.691 191.664 331.378 186.233 335.116 180.164C338.99 174.068 341.785 167.35 343.378 160.306L343.38 160.297L343.382 160.288C344.802 153.446 344.829 147.7 343.365 142.983C342.817 140.876 341.848 138.901 340.517 137.178C339.18 135.449 337.506 134.009 335.596 132.946L335.109 133.82Z" fill="#A5D936" stroke="#A5D936" stroke-width="2"/>
<path d="M281.967 202.953L282.783 203.174L283.137 202.406C290.932 185.506 296.866 164.661 298.824 137.735L298.897 136.724L297.885 136.664C294.327 136.455 290.788 135.992 287.296 135.28L286.141 135.045L286.097 136.223C285.119 162.322 279.706 182.126 272.07 197.978L271.646 198.858L272.517 199.302C275.532 200.842 278.699 202.065 281.967 202.953Z" fill="#A5D936" stroke="#A5D936" stroke-width="2"/>
<path d="M246.36 134.06L246.384 134.594L246.84 134.871C253.256 138.771 259.339 142.383 265.291 145.477C265.121 148.652 264.854 151.707 264.491 154.642C260.003 151.916 255.428 148.829 250.65 145.521L249.201 144.518L249.083 146.276C248.839 149.916 248.376 153.538 247.696 157.123L247.583 157.717L248.057 158.093C252.808 161.861 257.373 165.425 261.898 168.599C261.31 170.834 260.674 172.993 259.99 175.075C255.547 171.578 251.052 167.649 246.307 163.501C246.018 163.249 245.728 162.995 245.437 162.741L244.266 161.718L243.821 163.207C242.904 166.271 241.781 169.269 240.46 172.181L240.17 172.82L240.672 173.31C241.197 173.822 241.718 174.331 242.237 174.838C249.682 182.11 256.625 188.891 263.962 194.108L264.923 194.791L265.44 193.732C272.935 178.392 277.801 159.139 277.801 133.582V132.851L277.104 132.629C267.242 129.486 257.331 124.764 246.506 119.297L244.789 118.429L245.066 120.334C245.728 124.884 246.16 129.466 246.36 134.06Z" fill="#A5D936" stroke="#A5D936" stroke-width="2"/>
<path d="M193.818 136.345L193.632 137.105L194.325 137.468C198.701 139.762 202.955 142.281 207.07 145.016L208.2 145.767L208.583 144.465C210.251 138.792 211.025 132.901 210.885 127.005C216.821 136.524 221.289 146.892 224.133 157.759L224.212 158.061L224.449 158.264C227.226 160.65 229.88 163.066 232.454 165.472L233.499 166.449L234.058 165.132C239.482 152.345 241.273 136.444 237.106 114.965L237.014 114.488L236.582 114.266C232.65 112.244 228.568 110.185 224.338 108.089L222.346 107.102L222.929 109.247C225.023 116.951 226.155 124.879 226.303 132.851C219.997 120.441 212.182 108.85 203.033 98.3435L202.884 98.1716L202.674 98.0816C198.649 96.3509 194.413 94.6344 190.008 92.974L187.91 92.1831L188.724 94.2727C195.56 111.826 196.561 125.115 193.818 136.345Z" fill="#A5D936" stroke="#A5D936" stroke-width="2"/>
<path d="M177.136 98.4775L177.136 98.4774L177.131 98.4714C172.493 93.3147 167.018 88.9778 160.936 85.6433C154.176 81.9133 146.862 79.2883 139.273 77.8676C133.179 76.5783 126.915 76.2945 120.73 77.0274C115.87 77.5577 111.219 79.2943 107.201 82.0792L105.789 83.0578L107.337 83.8023C113.469 86.7508 119.333 89.722 124.93 92.7158L125.445 92.9915L125.939 92.6776C130.025 90.0768 135.356 89.2584 142.2 90.5584C145.99 91.2814 149.654 92.5533 153.077 94.3337L153.077 94.3338L153.086 94.3385C156.044 95.8384 158.717 97.842 160.987 100.259L160.996 100.269L161.005 100.278C162.757 102.051 163.977 104.279 164.528 106.709L164.532 106.727L164.536 106.745C164.74 107.513 164.734 108.322 164.519 109.087C164.308 109.834 163.905 110.513 163.351 111.056C161.671 112.317 159.631 113.005 157.53 113.019L157.508 113.019L157.485 113.02C154.094 113.192 150.695 112.949 147.363 112.294L147.345 112.291L147.326 112.288C140.732 111.249 134.421 108.868 128.785 105.293L128.368 105.029L127.905 105.199C123.185 106.926 118.182 108.823 112.896 110.945L110.957 111.724L112.78 112.746C117.825 115.572 123.21 117.743 128.805 119.206C135.081 120.91 141.447 122.261 147.874 123.251C154.332 124.429 160.878 125.057 167.442 125.13L167.456 125.13L167.471 125.129C172.944 125.03 177.341 124.244 180.452 122.155C182.027 121.097 183.189 119.747 183.864 118.061C184.536 116.384 184.696 114.448 184.391 112.254C183.779 107.854 181.294 103.177 177.136 98.4775Z" fill="#A5D936" stroke="#A5D936" stroke-width="2"/>
<path d="M2.24122 75.892L1.36062 75.9979V76.8849V89.7583H2.36062L2.50664 90.7476C22.341 87.82 42.3197 85.9709 62.3541 85.2085C62.7918 87.5866 63.1795 89.9568 63.531 92.3127C47.8495 93.2068 30.8551 95.0164 12.391 97.8712L11.5257 98.005L11.544 98.8803C11.6281 102.918 11.7075 106.942 11.7823 110.952L11.8044 112.138L12.9698 111.916C30.1803 108.627 47.5449 106.203 64.9979 104.654C65.1873 106.722 65.3383 108.777 65.4631 110.832C45.0143 113.164 24.7171 116.675 4.67249 121.347L3.89947 121.527V122.32V122.345V122.37V122.395V122.42V122.445V122.47V122.495V122.52V122.545V122.57V122.595V122.62V122.645V122.67V122.695V122.72V122.745V122.77V122.795V122.82V122.845V122.87V122.895V122.92V122.945V122.97V122.995V123.02V123.045V123.07V123.095V123.12V123.145V123.17V123.195V123.22V123.245V123.27V123.295V123.32V123.345V123.37V123.395V123.42V123.445V123.47V123.495V123.52V123.545V123.571V123.596V123.621V123.646V123.671V123.696V123.721V123.746V123.771V123.796V123.821V123.846V123.871V123.896V123.921V123.946V123.971V123.996V124.021V124.046V124.071V124.096V124.121V124.146V124.171V124.196V124.221V124.246V124.271V124.296V124.321V124.346V124.371V124.396V124.421V124.447V124.472V124.497V124.522V124.547V124.572V124.597V124.622V124.647V124.672V124.697V124.722V124.747V124.772V124.797V124.822V124.847V124.872V124.897V124.922V124.947V124.972V124.997V125.023V125.048V125.073V125.098V125.123V125.148V125.173V125.198V125.223V125.248V125.273V125.298V125.323V125.348V125.373V125.398V125.423V125.448V125.473V125.498V125.523V125.549V125.574V125.599V125.624V125.649V125.674V125.699V125.724V125.749V125.774V125.799V125.824V125.849V125.874V125.899V125.924V125.949V125.974V125.999V126.025V126.05V126.075V126.1V126.125V126.15V126.175V126.2V126.225V126.25V126.275V126.3V126.325V126.35V126.375V126.4V126.425V126.45V126.475V126.501V126.526V126.551V126.576V126.601V126.626V126.651V126.676V126.701V126.726V126.751V126.776V126.801V126.826V126.851V126.876V126.901V126.926V126.951V126.977V127.002V127.027V127.052V127.077V127.102V127.127V127.152V127.177V127.202V127.227V127.252V127.277V127.302V127.327V127.352V127.377V127.402V127.427V127.452V127.477V127.502V127.528V127.553V127.578V127.603V127.628V127.653V127.678V127.703V127.728V127.753V127.778V127.803V127.828V127.853V127.878V127.903V127.928V127.953V127.978V128.003V128.028V128.053V128.078V128.103V128.128V128.154V128.179V128.204V128.229V128.254V128.279V128.304V128.329V128.354V128.379V128.404V128.429V128.454V128.479V128.504V128.529V128.554V128.579V128.604V128.629V128.654V128.679V128.704V128.729V128.754V128.779V128.804V128.829V128.854V128.879V128.904V128.929V128.954V128.979V129.004V129.029V129.054V129.079V129.104V129.129V129.154V129.179V129.204V129.229V129.254V129.279V129.304V129.329V129.354V129.379V129.404V129.429V129.454V129.479V129.504V129.529V129.554V129.579V129.604V129.629V129.654V129.679V129.704V129.729V129.754V129.779V129.804V129.829V129.854V129.879V129.904V129.929V129.954V129.979V130.004V130.029V130.054V130.079V130.104V130.129V130.154V130.179V130.204V130.229V130.254V130.279V130.304V130.329V130.354V130.379V130.404V130.429V130.454V130.479V130.504V130.529V130.553V130.578V130.603V130.628V130.653V130.678V130.703V130.728V130.753V130.778V130.803V130.828V130.853V130.878V130.903V130.928V130.953V130.978V131.003V131.027V131.052V131.077V131.102V131.127V131.152V131.177V131.202V131.227V131.252V131.277V131.302V131.327V131.351V131.376V131.401V131.426V131.451V131.476V131.501V131.526V131.551V131.576V131.601V131.626V131.65V131.675V131.7V131.725V131.75V131.775V131.8V131.825V131.85V131.874V131.899V131.924V131.949V131.974V131.999V132.024V132.049V132.074V132.098V132.123V132.148V132.173V132.198V132.223V132.248V132.273V132.297V132.322V132.347V132.372V132.397V132.422V132.447V132.471V132.496V132.521V132.546V132.571V132.596V132.62V132.645V132.67V132.695V132.72V132.745V132.77V132.794V132.819V132.844V132.869V132.894V132.918V132.943V132.968V132.993V133.018V133.043V133.067V133.092V133.117V133.142V133.167V133.191V133.216V133.241V133.266V133.291V133.315V133.34V133.365V133.39V133.415V133.439V133.464V133.489V133.514V133.539V133.563V133.588V133.613V133.638V133.662V133.687V133.712V133.737V133.761V133.786V133.811V133.836V133.861V133.885V133.91V133.935V133.96V133.984V134.009V134.034V134.058V134.083V134.108V134.133V134.157V134.182V134.207V134.232V134.256V134.281V134.306V134.33V134.355V134.38V134.405V134.429V134.454V134.479V134.503V134.528V134.553V134.578V134.602V134.627V134.652V134.676V134.701V134.726V134.75V134.775V134.8V134.824V134.849V134.874V134.898V134.923V134.948V134.972V134.997V135.022V135.046V135.071V135.096V136.397L5.15716 136.062C40.7052 126.582 70.5697 121.701 95.919 120.206L96.8632 120.15L96.8601 119.204C96.8081 103.563 94.1491 88.0403 88.9917 73.2737L88.7682 72.6336L88.0908 72.6044C59.4325 71.3673 30.7209 72.4668 2.24122 75.892Z" fill="#A5D936" stroke="#A5D936" stroke-width="2"/>
<path d="M411.043 9.65405L411.4 8.8095L410.59 8.38078C407.053 6.50991 403.32 5.0356 399.459 3.98474C394.877 2.5813 390.121 1.8225 385.329 1.73028C380.024 1.47132 374.796 3.08076 370.555 6.27864L370.535 6.29326L370.517 6.3088C366.456 9.69195 363.487 14.1996 361.981 19.2652C360.216 24.8705 359.4 30.7313 359.567 36.6055C359.695 43.611 360.691 48.9146 362.773 52.294C364.808 55.5958 367.308 57.5838 370.365 58.1251L370.385 58.1286L370.405 58.1313C374.001 58.6189 377.655 58.4317 381.182 57.5795L381.182 57.5795L381.191 57.5772C383.865 56.9036 386.588 56.4448 389.334 56.2053C390.021 56.2121 390.316 56.389 390.466 56.5572C390.638 56.7504 390.811 57.1465 390.817 57.963C390.613 60.0075 389.822 61.9498 388.54 63.5561L388.535 63.5618L388.531 63.5677C386.602 66.0571 384.223 68.1616 381.516 69.7713L381.507 69.7768L381.498 69.7825C376.472 72.9193 371.782 73.8547 367.245 72.1489L366.22 71.7635L365.929 72.819C364.051 79.6273 362.113 86.3654 360.114 93.0334L359.835 93.9632L360.756 94.2695C363.824 95.2893 367.152 95.2005 370.161 94.0188C374.205 92.5826 378.009 90.5428 381.443 87.9686C387.099 83.8504 392.209 79.0321 396.652 73.6289C400.58 69.0275 403.92 63.9558 406.597 58.5305C408.643 54.5637 409.804 50.2001 409.999 45.741L410 45.7209L410 45.7007C410.014 41.3897 408.844 38.4309 406.224 36.8358L406.224 36.8357L406.213 36.8293C403.723 35.3559 400.855 34.6448 397.965 34.7835C394.977 34.8688 391.32 35.1514 387.027 35.487L387.009 35.4884L386.99 35.4905C384.313 35.7991 381.602 35.5762 379.011 34.8349C378.386 34.5837 377.935 34.1747 377.623 33.5849C377.293 32.9603 377.094 32.0848 377.094 30.9027C377.094 28.651 377.777 26.9142 379.105 25.5869C380.457 24.235 382.569 23.2169 385.586 22.6146C388.799 21.9929 392.095 21.9197 395.332 22.3981L395.344 22.3999L395.356 22.4013C398.387 22.7762 401.369 23.479 404.248 24.4973L405.184 24.8281L405.522 23.8953C407.384 18.7583 409.215 13.9798 411.043 9.65405Z" stroke="#A5D936" stroke-width="2"/>
<path d="M336.357 10.2325L336.349 10.225L336.342 10.2176C330.859 4.86518 324.65 1.77516 318.135 1.75761C315.401 1.70487 312.693 2.29788 310.23 3.48862C307.771 4.67807 305.627 6.43037 303.972 8.60321C300.314 13.1006 298.003 19.5192 296.756 27.3944L296.695 27.7812L296.913 28.1068C301.465 34.9124 305.639 41.4107 309.52 47.6024L310.797 49.639L311.342 47.2978C312.428 42.6259 313.841 39.1324 315.536 36.7893C317.211 34.4745 319.118 33.3321 321.263 33.1912C322.664 33.1345 324.061 33.3924 325.35 33.946C326.642 34.501 327.793 35.339 328.718 36.3982L328.727 36.4083L328.736 36.4182C331.458 39.371 333.455 42.9164 334.57 46.774L334.573 46.7832L334.576 46.7925C336.132 51.8107 336.948 57.0288 336.999 62.2823L337 62.2942L337 62.306C337.174 67.5039 336.65 72.7018 335.442 77.7604L335.441 77.7604L335.439 77.7727C334.562 81.6604 332.966 85.3499 330.733 88.6511L330.724 88.6646L330.715 88.6783C329.278 90.9585 327.052 92.6294 324.462 93.3725C322.679 93.7418 321.065 93.2921 319.456 91.8442C317.787 90.3424 316.145 87.777 314.482 83.9727L313.556 81.8548L312.646 83.9799C310.109 89.909 307.63 95.6077 305.152 101.024L304.974 101.412L305.132 101.81C307.455 107.644 310.07 111.921 313.33 114.603C314.896 115.939 316.775 116.857 318.791 117.273C320.803 117.688 322.887 117.589 324.851 116.986C329.791 115.685 334.485 112.056 338.762 106.525L338.762 106.525L338.771 106.514C343.508 100.213 347.136 93.1514 349.5 85.6315C352.362 76.8324 353.799 67.6321 353.755 58.3794C353.899 49.051 352.36 39.7732 349.21 30.9911C346.521 23.203 342.13 16.1118 336.357 10.2325Z" stroke="#A5D936" stroke-width="2"/>
<path d="M298.377 118.37L299.407 118.397L299.402 117.366C299.276 87.3564 294.632 50.7309 283.411 5.28072L283.223 4.52042H282.44H265.918H264.577L264.959 5.80532C278.422 51.1023 284.686 87.2131 285.958 116.46L285.994 117.291L286.817 117.407C290.649 117.949 294.508 118.27 298.377 118.37Z" stroke="#A5D936" stroke-width="2"/>
<path d="M214.673 31.176L214.919 31.6951L215.491 31.7444C224.823 32.5486 234.085 33.2011 243.275 33.7019C245.604 40.255 247.74 46.558 249.684 52.611C242.739 51.8318 235.738 50.8971 228.613 49.8403L226.876 49.5826L227.541 51.2083C230.528 58.5066 233.183 65.4195 235.506 71.9472L235.69 72.464L236.224 72.5866C243.17 74.1796 249.964 75.6159 256.681 76.8046C257.925 81.6214 259.023 86.2605 259.984 90.7491C253.127 89.1017 246.147 87.1338 238.941 84.9449L237.127 84.3942L237.696 86.2018C239.639 92.3786 241.245 98.2175 242.558 103.733L242.676 104.228L243.146 104.424C253.71 108.827 264.581 112.456 275.671 115.282L277.036 115.63L276.914 114.226C274.422 85.5531 266.472 50.0737 250.773 5.14812L250.539 4.48013L249.832 4.47802C234.199 4.43128 218.547 4.35184 202.876 4.23967L201.215 4.22777L201.982 5.70136C206.624 14.6198 210.854 23.1112 214.673 31.176Z" stroke="#A5D936" stroke-width="2"/>
<path d="M182.8 80.961L182.986 81.3379L183.386 81.468C188.717 83.2024 193.825 84.9934 198.755 86.7857L200.996 87.6004L200.006 85.431C194.972 74.392 189.316 63.6498 183.065 53.2557C196.661 66.1765 209.2 80.1704 220.561 95.1037L220.726 95.321L220.979 95.4242L231.807 99.8416L233.729 100.626L233.144 98.634C226.016 74.3525 212.355 43.8595 189.794 4.64304L189.508 4.14618L188.935 4.14173L172.679 4.01549L170.835 4.00117L171.828 5.55411C182.724 22.5966 191.722 37.8317 199.049 51.5863C182.846 34.6541 165.584 18.7645 147.365 4.01392L147.094 3.79401L146.744 3.79115L133.027 3.67894L130.951 3.66195L132.232 5.29591C156.885 36.7401 173.025 61.2338 182.8 80.961Z" stroke="#A5D936" stroke-width="2"/>
<path d="M107.772 7.32854L107.764 7.32435L107.755 7.32033C99.656 3.56242 92.4279 1.77275 86.1284 1.7583H86.1261C80.5838 1.7583 76.5423 3.02481 73.7448 5.45286L73.7353 5.46106L73.7261 5.46948C72.363 6.71367 71.2667 8.22183 70.5042 9.90256C69.7418 11.5832 69.3288 13.4012 69.2905 15.2463L69.2782 15.8412L69.7951 16.1358C73.1634 18.056 76.5777 19.9906 80.0111 21.9359C83.1845 23.7339 86.374 25.5411 89.5587 27.3547L90.8148 28.0701L91.0412 26.6424C91.3787 24.5139 92.1791 23.0423 93.4408 22.1228C94.7169 21.1928 96.6296 20.7067 99.4377 20.9054C103.22 21.272 106.9 22.34 110.291 24.0546L110.291 24.0547L110.302 24.0602C114.498 26.116 118.419 28.6894 121.974 31.7202L121.974 31.7202L121.983 31.7278C125.645 34.7758 128.923 38.257 131.746 42.0949C134.44 45.8019 135.799 48.6996 136.048 50.8476L136.055 50.9019L136.067 50.9552C136.239 51.708 136.134 52.4976 135.771 53.179C135.407 53.8603 134.81 54.3878 134.089 54.6645L134.069 54.6721L134.049 54.6807C132.323 55.429 129.611 55.5302 125.76 54.8945C118.177 53.406 110.984 50.3626 104.636 45.9561L103.949 45.4794L103.359 46.0706C100.696 48.7341 97.82 51.175 94.7589 53.369L93.5515 54.2344L94.8077 55.0274C100.719 58.7587 107.02 61.8329 113.599 64.1949C120.198 66.6165 126.988 68.4792 133.899 69.7633L133.901 69.7636C141.608 71.1838 147.706 71.5334 152.106 70.319C154.318 69.7085 156.106 68.7134 157.324 67.2097C158.551 65.6949 159.113 63.7722 159.067 61.4821C158.977 56.9502 156.429 51.1058 151.41 43.9325L151.405 43.9251L151.4 43.9178C140.072 28.3349 125.091 15.7708 107.772 7.32854Z" stroke="#A5D936" stroke-width="2"/>
<path d="M1.36329 16.8376V17.8447L2.37043 17.8375C15.2434 17.7457 27.7225 17.8662 39.8072 18.1989C41.1974 21.1045 42.5231 23.9789 43.7843 26.8224C32.676 26.4708 21.1044 26.3665 9.07009 26.5095L8.00249 26.5221L8.08495 27.5866C8.40253 31.6863 8.69191 35.7812 8.95346 39.8716L9.01513 40.836L9.98108 40.8073C23.8967 40.3945 37.0673 40.4144 49.5993 40.7873C50.5419 43.2176 51.4386 45.6275 52.2892 48.0169C37.3206 47.699 21.3486 47.9393 4.25831 48.878L3.30065 48.9306L3.31323 49.8896C3.33011 51.176 3.35071 52.4646 3.37128 53.7516C3.41933 56.7571 3.46724 59.7541 3.46724 62.6938V63.7818L4.55137 63.6903C30.8016 61.474 57.1767 61.1326 83.4756 62.6685L85.0737 62.7618L84.4566 61.2847C77.2682 44.0785 66.5682 25.1676 51.3908 3.51641L51.0941 3.09315L50.5772 3.09043C34.5855 3.00629 18.514 2.96417 2.36329 2.96417H1.36329V3.96417V16.8376Z" stroke="#A5D936" stroke-width="2"/>
</svg>
