<svg width="1154" height="288" viewBox="0 0 1154 288" fill="none" xmlns="http://www.w3.org/2000/svg">
<path d="M350.8 263.84L350.583 262.609L349.43 263.091C345.062 264.915 340.701 266.768 336.347 268.65L335.622 268.964L335.759 269.742L338.814 287.065C333.508 289.37 328.21 291.702 322.919 294.063L319.95 277.225L319.727 275.961L318.556 276.486C314.216 278.433 309.876 280.39 305.537 282.355L304.83 282.675L304.965 283.44L313.46 331.616L313.684 332.886L314.858 332.353C319.191 330.387 323.529 328.432 327.869 326.488L328.58 326.169L328.445 325.401L325.267 307.381C330.558 305.007 335.856 302.673 341.161 300.377L344.254 317.919L344.474 319.166L345.636 318.663C349.982 316.781 354.335 314.932 358.695 313.114L359.434 312.805L359.295 312.017L350.8 263.84Z" stroke="#A5D936" stroke-width="2"/>
<path d="M377.807 305.42L378.329 305.218L378.43 304.667C379.052 301.263 379.686 297.86 380.33 294.458C386.463 292.122 392.616 289.898 398.79 287.786L403.7 295.257L404.122 295.9L404.852 295.657C409.443 294.127 414.048 292.671 418.668 291.291L419.997 290.894L419.2 289.759C409.404 275.788 399.634 261.975 389.891 248.321L389.456 247.711L388.748 247.957C384.396 249.472 380.052 251.041 375.717 252.666L375.206 252.857L375.091 253.391C371.065 272.027 367.06 290.769 363.075 309.616L362.683 311.466L364.433 310.748C368.881 308.923 373.339 307.147 377.807 305.42ZM392.011 277.356C388.951 278.434 385.896 279.537 382.845 280.667C383.679 276.179 384.512 271.696 385.346 267.218C387.566 270.59 389.788 273.969 392.011 277.356Z" stroke="#A5D936" stroke-width="2"/>
<path d="M462.401 230.837L462.919 229.294L461.308 229.53C456.845 230.182 452.397 230.927 447.964 231.764L447.363 231.877L447.191 232.464C444.88 240.313 442.578 248.216 440.286 256.174C435.61 249.808 430.944 243.491 426.288 237.222L425.887 236.682L425.236 236.85C420.497 238.07 415.772 239.375 411.061 240.767L409.599 241.199L410.577 242.368C418.603 251.961 426.652 261.704 434.725 271.595C434.267 272.575 433.639 273.467 432.867 274.23C432.052 274.978 431.063 275.51 429.99 275.778C428.478 276.127 426.925 276.269 425.375 276.201L424.457 276.16L424.339 277.072C423.87 280.713 423.403 284.36 422.935 288.011L422.808 289.005L423.803 289.13C426.834 289.511 429.909 289.335 432.876 288.609L432.884 288.607L432.891 288.605C436.647 287.627 440.05 285.609 442.71 282.784C445.494 279.891 447.589 276.154 449.021 271.611C453.449 257.821 457.909 244.229 462.401 230.837Z" stroke="#A5D936" stroke-width="2"/>
<path d="M490.454 276.336L487.393 258.977C488.95 258.858 490.51 258.757 492.071 258.672C496.774 264.483 501.489 270.374 506.216 276.344L506.522 276.73L507.014 276.723C512.253 276.652 517.524 276.744 522.824 277L525.013 277.105L523.658 275.383C517.054 266.985 510.476 258.744 503.925 250.66C507.632 243.046 511.365 235.581 515.122 228.263L515.832 226.881L514.28 226.808C509.301 226.573 504.346 226.479 499.414 226.526L498.777 226.533L498.513 227.112C495.739 233.212 492.99 239.392 490.267 245.653C488.542 245.75 486.82 245.861 485.102 245.987L481.959 228.16L481.801 227.266L480.896 227.336C476.283 227.697 471.689 228.165 467.116 228.742L466.074 228.874L466.257 229.908L474.752 278.085L474.917 279.023L475.862 278.904C480.406 278.33 484.967 277.864 489.547 277.507L490.645 277.421L490.454 276.336Z" stroke="#A5D936" stroke-width="2"/>
<path d="M541.407 278.576L542.273 278.683L542.496 277.839C543.198 275.172 543.903 272.513 544.609 269.862C551.328 270.817 558.1 272.072 564.925 273.627C566.76 276.929 568.596 280.241 570.432 283.562L570.644 283.945L571.068 284.049C576.143 285.302 581.249 286.731 586.385 288.337L588.82 289.098L587.551 286.885C576.96 268.405 566.435 250.316 555.979 232.618L555.756 232.241L555.326 232.149C550.517 231.123 545.731 230.239 540.968 229.497L540.118 229.365L539.86 230.186C535.179 245.1 530.555 260.35 525.99 275.934L525.639 277.133L526.885 277.213C531.697 277.523 536.538 277.978 541.407 278.576ZM547.579 258.514C548.554 254.876 549.533 251.255 550.515 247.652C552.872 251.861 555.232 256.089 557.594 260.336C554.244 259.657 550.905 259.05 547.579 258.514Z" stroke="#A5D936" stroke-width="2"/>
<path d="M502.047 342.085L498.986 324.725C500.543 324.607 502.103 324.505 503.665 324.421C508.367 330.232 513.082 336.122 517.81 342.092L518.115 342.478L518.607 342.471C523.847 342.4 529.117 342.492 534.417 342.748L536.606 342.854L535.252 341.131C528.647 332.733 522.069 324.493 515.518 316.408C519.226 308.794 522.958 301.329 526.715 294.012L527.425 292.629L525.873 292.556C520.894 292.321 515.939 292.228 511.007 292.275L510.37 292.281L510.107 292.861C507.332 298.96 504.583 305.14 501.86 311.402C500.135 311.498 498.414 311.609 496.696 311.736L493.552 293.908L493.394 293.014L492.489 293.085C487.876 293.445 483.283 293.914 478.71 294.491L477.668 294.622L477.85 295.657L486.345 343.833L486.51 344.771L487.455 344.652C491.999 344.078 496.56 343.613 501.14 343.255L502.238 343.17L502.047 342.085Z" stroke="#A5D936" stroke-width="2"/>
<path d="M553 344.325L553.866 344.431L554.089 343.587C554.792 340.92 555.496 338.261 556.202 335.611C562.921 336.566 569.693 337.82 576.519 339.375C578.354 342.678 580.189 345.989 582.025 349.311L582.237 349.693L582.661 349.798C587.736 351.05 592.842 352.48 597.979 354.086L600.413 354.847L599.145 352.634C588.553 334.154 578.029 316.065 567.572 298.367L567.349 297.989L566.92 297.898C562.111 296.872 557.324 295.988 552.562 295.246L551.711 295.113L551.454 295.934C546.772 310.849 542.149 326.098 537.583 341.683L537.232 342.882L538.478 342.962C543.29 343.272 548.131 343.726 553 344.325ZM559.172 324.263C560.148 320.624 561.127 317.003 562.109 313.4C564.465 317.609 566.825 321.837 569.187 326.085C565.837 325.406 562.499 324.798 559.172 324.263Z" stroke="#A5D936" stroke-width="2"/>
<path d="M652.866 244.945L652.735 244.204L651.987 244.125C647.237 243.618 642.456 242.97 637.645 242.181L636.253 241.952L636.498 243.341L639.444 260.05C633.56 259.04 627.631 257.799 621.659 256.326L618.578 238.851L618.465 238.212L617.835 238.055C612.957 236.841 608.049 235.46 603.108 233.914L601.539 233.423L601.825 235.042L610.32 283.219L610.426 283.82L611.009 284C615.978 285.54 620.923 286.931 625.843 288.171L627.341 288.549L627.073 287.028L624.026 269.75C629.989 271.196 635.914 272.417 641.8 273.414L644.991 291.506L645.114 292.204L645.812 292.319C650.656 293.121 655.476 293.778 660.27 294.29L661.592 294.431L661.361 293.122L652.866 244.945Z" stroke="#A5D936" stroke-width="2"/>
<path d="M681.085 295.662L681.892 295.682L682.082 294.897C682.765 292.066 683.457 289.225 684.157 286.374C690.721 286.412 697.246 286.218 703.731 285.791C705.455 288.651 707.185 291.502 708.922 294.344L709.243 294.869L709.857 294.819C714.678 294.422 719.476 293.907 724.253 293.273L725.837 293.062L724.955 291.729C714.963 276.631 704.92 261.256 694.828 245.606L694.513 245.117L693.932 245.149C689.382 245.399 684.81 245.537 680.217 245.562L679.461 245.566L679.259 246.294C674.791 262.389 670.265 278.159 665.681 293.604L665.33 294.785L666.558 294.886C671.423 295.283 676.265 295.541 681.085 295.662ZM686.988 274.317C687.922 270.374 688.853 266.415 689.782 262.44C692.097 266.323 694.41 270.191 696.719 274.044C693.486 274.192 690.242 274.283 686.988 274.317Z" stroke="#A5D936" stroke-width="2"/>
<path d="M768.253 233.334L768.787 231.57L767.017 232.084C762.686 233.34 758.343 234.518 753.988 235.619L753.427 235.761L753.27 236.317C750.997 244.38 748.715 252.388 746.424 260.342C741.744 253.945 737.056 247.493 732.359 240.988L731.989 240.475L731.366 240.59C726.595 241.473 721.804 242.247 716.992 242.912L715.275 243.15L716.34 244.517C724.536 255.048 732.7 265.403 740.829 275.584C740.376 276.515 739.75 277.353 738.984 278.054C738.16 278.741 737.167 279.193 736.108 279.364C734.559 279.591 732.986 279.59 731.438 279.361L730.441 279.214L730.301 280.212C729.809 283.736 729.318 287.255 728.826 290.768L728.698 291.684L729.601 291.883C732.949 292.622 736.039 292.759 738.856 292.263L738.858 292.262C742.663 291.582 746.155 289.714 748.834 286.927C751.63 284.076 753.726 280.329 755.151 275.731C759.547 261.782 763.914 247.649 768.253 233.334Z" stroke="#A5D936" stroke-width="2"/>
<path d="M790.255 244.543L787.156 226.97L786.954 225.825L785.853 226.196C781.462 227.672 777.06 229.08 772.648 230.419L771.799 230.676L771.953 231.549L780.449 279.73L780.645 280.841L781.725 280.513C786.155 279.166 790.576 277.752 794.985 276.272L795.801 275.998L795.652 275.151L792.549 257.551C794.085 257.034 795.62 256.509 797.153 255.976C801.628 260.733 806.103 265.453 810.578 270.136L811.032 270.611L811.648 270.382C816.605 268.543 821.552 266.644 826.489 264.685L827.902 264.124L826.828 263.049C820.63 256.841 814.42 250.569 808.197 244.232C811.62 234.866 815.033 225.445 818.434 215.971L819.183 213.886L817.124 214.704C812.532 216.529 807.932 218.297 803.323 220.009L802.879 220.174L802.725 220.621C800.158 228.076 797.596 235.503 795.041 242.901C793.446 243.456 791.851 244.003 790.255 244.543Z" stroke="#A5D936" stroke-width="2"/>
<path d="M843.64 257.686L844.14 257.475L844.236 256.94C844.853 253.487 845.481 250.032 846.119 246.575C852.217 243.968 858.304 241.316 864.381 238.618C865.981 240.967 867.58 243.315 869.178 245.662L869.649 246.353L870.412 246.012C874.932 243.991 879.447 241.956 883.959 239.907L885.087 239.395L884.349 238.401C874.732 225.436 865.105 212.429 855.47 199.378L854.994 198.733L854.261 199.058C849.987 200.95 845.707 202.817 841.421 204.659L840.944 204.865L840.837 205.374C836.878 224.361 832.901 243.258 828.907 262.065L828.516 263.902L830.258 263.2C834.726 261.4 839.186 259.562 843.64 257.686ZM851.052 218.794C853.249 222.05 855.444 225.306 857.639 228.56C854.626 229.89 851.612 231.21 848.598 232.52C849.415 227.949 850.233 223.374 851.052 218.794Z" stroke="#A5D936" stroke-width="2"/>
<path d="M948.212 158.5L947.995 157.27L946.842 157.751C942.475 159.575 938.114 161.428 933.759 163.31L933.034 163.624L933.171 164.402L936.226 181.725C930.921 184.03 925.623 186.362 920.332 188.723L917.362 171.885L917.14 170.621L915.968 171.146C911.628 173.093 907.289 175.05 902.949 177.015L902.242 177.335L902.377 178.1L910.872 226.277L911.096 227.546L912.27 227.014C916.604 225.047 920.941 223.092 925.281 221.148L925.993 220.829L925.857 220.062L922.68 202.041C927.971 199.668 933.269 197.333 938.573 195.037L941.666 212.579L941.886 213.826L943.048 213.323C947.394 211.442 951.747 209.592 956.107 207.774L956.846 207.466L956.707 206.677L948.212 158.5Z" stroke="#A5D936" stroke-width="2"/>
<path d="M975.219 200.08L975.742 199.878L975.842 199.327C976.465 195.923 977.098 192.52 977.743 189.118C983.875 186.782 990.028 184.558 996.203 182.446L1001.11 189.918L1001.53 190.56L1002.26 190.317C1006.86 188.787 1011.46 187.332 1016.08 185.951L1017.41 185.554L1016.61 184.419C1006.82 170.448 997.047 156.636 987.303 142.981L986.868 142.371L986.161 142.617C981.809 144.132 977.465 145.701 973.13 147.326L972.618 147.518L972.503 148.051C968.478 166.687 964.472 185.429 960.487 204.276L960.096 206.126L961.845 205.408C966.293 203.583 970.751 201.807 975.219 200.08ZM989.423 172.016C986.364 173.094 983.309 174.198 980.257 175.327C981.091 170.839 981.925 166.356 982.759 161.879C984.979 165.25 987.2 168.63 989.423 172.016Z" stroke="#A5D936" stroke-width="2"/>
<path d="M1059.81 125.497L1060.33 123.954L1058.72 124.189C1054.26 124.842 1049.81 125.587 1045.38 126.424L1044.78 126.537L1044.6 127.124C1042.29 134.973 1039.99 142.876 1037.7 150.834C1033.02 144.468 1028.36 138.151 1023.7 131.882L1023.3 131.342L1022.65 131.51C1017.91 132.73 1013.18 134.035 1008.47 135.427L1007.01 135.858L1007.99 137.027C1016.01 146.621 1024.06 156.364 1032.14 166.255C1031.68 167.234 1031.05 168.127 1030.28 168.89C1029.46 169.638 1028.48 170.17 1027.4 170.438C1025.89 170.787 1024.34 170.929 1022.79 170.861L1021.87 170.82L1021.75 171.732C1021.28 175.373 1020.81 179.02 1020.35 182.671L1020.22 183.665L1021.22 183.79C1024.25 184.171 1027.32 183.994 1030.29 183.269L1030.3 183.267L1030.3 183.265C1034.06 182.287 1037.46 180.269 1040.12 177.443C1042.91 174.551 1045 170.814 1046.43 166.271C1050.86 152.48 1055.32 138.889 1059.81 125.497Z" stroke="#A5D936" stroke-width="2"/>
<path d="M1087.87 170.996L1084.81 153.637C1086.36 153.518 1087.92 153.417 1089.48 153.332C1094.19 159.143 1098.9 165.034 1103.63 171.004L1103.93 171.39L1104.43 171.383C1109.67 171.312 1114.94 171.404 1120.24 171.66L1122.43 171.765L1121.07 170.043C1114.47 161.645 1107.89 153.404 1101.34 145.32C1105.04 137.706 1108.78 130.24 1112.53 122.923L1113.24 121.541L1111.69 121.467C1106.71 121.233 1101.76 121.139 1096.83 121.186L1096.19 121.192L1095.93 121.772C1093.15 127.872 1090.4 134.052 1087.68 140.313C1085.95 140.41 1084.23 140.521 1082.51 140.647L1079.37 122.82L1079.21 121.926L1078.31 121.996C1073.69 122.357 1069.1 122.825 1064.53 123.402L1063.49 123.534L1063.67 124.568L1072.16 172.745L1072.33 173.683L1073.27 173.563C1077.82 172.99 1082.38 172.524 1086.96 172.167L1088.06 172.081L1087.87 170.996Z" stroke="#A5D936" stroke-width="2"/>
<path d="M1138.82 173.236L1139.69 173.343L1139.91 172.499C1140.61 169.832 1141.32 167.173 1142.02 164.523C1148.74 165.477 1155.51 166.732 1162.34 168.287C1164.17 171.589 1166.01 174.901 1167.84 178.222L1168.06 178.605L1168.48 178.71C1173.56 179.962 1178.66 181.391 1183.8 182.997L1186.23 183.758L1184.96 181.545C1174.37 163.065 1163.85 144.976 1153.39 127.278L1153.17 126.901L1152.74 126.809C1147.93 125.783 1143.14 124.899 1138.38 124.157L1137.53 124.025L1137.27 124.846C1132.59 139.76 1127.97 155.01 1123.4 170.594L1123.05 171.793L1124.3 171.873C1129.11 172.184 1133.95 172.638 1138.82 173.236ZM1144.99 153.174C1145.97 149.536 1146.95 145.915 1147.93 142.312C1150.28 146.521 1152.64 150.749 1155.01 154.996C1151.66 154.317 1148.32 153.71 1144.99 153.174Z" stroke="#A5D936" stroke-width="2"/>
<path d="M801.848 310.292L798.75 292.719L798.548 291.574L797.446 291.944C793.055 293.421 788.654 294.828 784.241 296.167L783.393 296.425L783.547 297.298L792.042 345.478L792.238 346.59L793.318 346.262C797.749 344.915 802.169 343.501 806.578 342.021L807.395 341.747L807.245 340.899L804.142 323.299C805.679 322.782 807.213 322.257 808.746 321.724C813.221 326.481 817.696 331.201 822.171 335.884L822.625 336.36L823.242 336.131C828.198 334.292 833.145 332.393 838.082 330.433L839.495 329.873L838.421 328.797C832.224 322.589 826.013 316.317 819.79 309.981C823.213 300.614 826.626 291.194 830.028 281.72L830.777 279.635L828.717 280.453C824.125 282.277 819.525 284.045 814.916 285.757L814.472 285.922L814.318 286.369C811.751 293.825 809.189 301.252 806.634 308.65C805.04 309.205 803.444 309.752 801.848 310.292Z" stroke="#A5D936" stroke-width="2"/>
<path d="M855.233 323.434L855.733 323.224L855.829 322.689C856.446 319.236 857.074 315.781 857.713 312.324C863.81 309.717 869.897 307.064 875.974 304.367C877.574 306.715 879.173 309.063 880.771 311.41L881.242 312.102L882.006 311.76C886.525 309.739 891.041 307.704 895.552 305.656L896.68 305.144L895.942 304.149C886.325 291.185 876.698 278.177 867.063 265.127L866.587 264.482L865.854 264.806C861.58 266.699 857.3 268.566 853.015 270.408L852.537 270.613L852.431 271.123C848.471 290.11 844.494 309.007 840.5 327.813L840.11 329.65L841.852 328.949C846.319 327.149 850.779 325.311 855.233 323.434ZM862.645 284.543C864.842 287.799 867.038 291.054 869.232 294.309C866.22 295.639 863.206 296.959 860.191 298.269C861.008 293.697 861.826 289.122 862.645 284.543Z" stroke="#A5D936" stroke-width="2"/>
<path d="M959.805 224.249L959.588 223.018L958.435 223.5C954.068 225.324 949.707 227.177 945.353 229.059L944.627 229.372L944.765 230.151L947.819 247.474C942.514 249.778 937.216 252.111 931.925 254.472L928.956 237.633L928.733 236.369L927.562 236.895C923.222 238.842 918.882 240.798 914.543 242.764L913.836 243.084L913.97 243.848L922.465 292.025L922.689 293.295L923.863 292.762C928.197 290.796 932.534 288.84 936.875 286.896L937.586 286.578L937.451 285.81L934.273 267.789C939.564 265.416 944.862 263.082 950.167 260.786L953.26 278.327L953.479 279.574L954.642 279.071C958.988 277.19 963.341 275.34 967.7 273.522L968.439 273.214L968.3 272.426L959.805 224.249Z" stroke="#A5D936" stroke-width="2"/>
<path d="M986.812 265.829L987.335 265.627L987.436 265.076C988.058 261.671 988.691 258.268 989.336 254.867C995.468 252.53 1001.62 250.306 1007.8 248.195L1012.71 255.666L1013.13 256.309L1013.86 256.066C1018.45 254.536 1023.05 253.08 1027.67 251.7L1029 251.303L1028.21 250.167C1018.41 236.197 1008.64 222.384 998.897 208.73L998.462 208.12L997.754 208.366C993.402 209.88 989.058 211.45 984.723 213.074L984.212 213.266L984.096 213.8C980.071 232.436 976.066 251.178 972.08 270.025L971.689 271.875L973.438 271.157C977.886 269.331 982.344 267.555 986.812 265.829ZM1001.02 237.765C997.957 238.842 994.902 239.946 991.851 241.076C992.684 236.588 993.518 232.105 994.352 227.627C996.572 230.999 998.793 234.378 1001.02 237.765Z" stroke="#A5D936" stroke-width="2"/>
<path d="M1071.41 191.245L1071.92 189.702L1070.31 189.938C1065.85 190.591 1061.4 191.335 1056.97 192.172L1056.37 192.286L1056.2 192.872C1053.89 200.721 1051.58 208.625 1049.29 216.582C1044.62 210.217 1039.95 203.899 1035.29 197.63L1034.89 197.091L1034.24 197.258C1029.5 198.478 1024.78 199.784 1020.07 201.175L1018.6 201.607L1019.58 202.776C1027.61 212.37 1035.66 222.112 1043.73 232.003C1043.27 232.983 1042.64 233.875 1041.87 234.638C1041.06 235.386 1040.07 235.919 1039 236.187C1037.48 236.535 1035.93 236.677 1034.38 236.609L1033.46 236.569L1033.34 237.481C1032.88 241.122 1032.41 244.768 1031.94 248.419L1031.81 249.413L1032.81 249.538C1035.84 249.92 1038.91 249.743 1041.88 249.017L1041.89 249.016L1041.9 249.014C1045.65 248.036 1049.06 246.018 1051.72 243.192C1054.5 240.299 1056.59 236.562 1058.03 232.02C1062.45 218.229 1066.91 204.638 1071.41 191.245Z" stroke="#A5D936" stroke-width="2"/>
<path d="M1099.46 236.745L1096.4 219.385C1097.96 219.267 1099.52 219.165 1101.08 219.081C1105.78 224.892 1110.49 230.782 1115.22 236.752L1115.53 237.138L1116.02 237.132C1121.26 237.06 1126.53 237.153 1131.83 237.408L1134.02 237.514L1132.66 235.791C1126.06 227.394 1119.48 219.153 1112.93 211.068C1116.64 203.455 1120.37 195.989 1124.13 188.672L1124.84 187.289L1123.29 187.216C1118.31 186.981 1113.35 186.888 1108.42 186.935L1107.78 186.941L1107.52 187.521C1104.74 193.62 1102 199.801 1099.27 206.062C1097.55 206.158 1095.83 206.269 1094.11 206.396L1090.96 188.568L1090.81 187.674L1089.9 187.745C1085.29 188.105 1080.69 188.574 1076.12 189.151L1075.08 189.282L1075.26 190.317L1083.76 238.493L1083.92 239.431L1084.87 239.312C1089.41 238.738 1093.97 238.273 1098.55 237.916L1099.65 237.83L1099.46 236.745Z" stroke="#A5D936" stroke-width="2"/>
<path d="M1150.41 238.985L1151.28 239.091L1151.5 238.247C1152.2 235.58 1152.91 232.922 1153.61 230.271C1160.33 231.226 1167.11 232.48 1173.93 234.036C1175.77 237.338 1177.6 240.65 1179.44 243.971L1179.65 244.353L1180.07 244.458C1185.15 245.71 1190.25 247.14 1195.39 248.746L1197.83 249.507L1196.56 247.294C1185.97 228.814 1175.44 210.725 1164.98 193.027L1164.76 192.649L1164.33 192.558C1159.52 191.532 1154.74 190.648 1149.97 189.906L1149.12 189.773L1148.87 190.594C1144.18 205.509 1139.56 220.758 1135 236.343L1134.64 237.542L1135.89 237.622C1140.7 237.932 1145.54 238.386 1150.41 238.985ZM1156.58 218.923C1157.56 215.284 1158.54 211.664 1159.52 208.061C1161.88 212.269 1164.24 216.498 1166.6 220.745C1163.25 220.066 1159.91 219.458 1156.58 218.923Z" stroke="#A5D936" stroke-width="2"/>
<path d="M971.399 289.997L971.182 288.767L970.028 289.248C965.661 291.072 961.3 292.925 956.946 294.808L956.221 295.121L956.358 295.899L959.413 313.222C954.107 315.527 948.809 317.859 943.518 320.22L940.549 303.382L940.326 302.118L939.155 302.643C934.815 304.59 930.475 306.547 926.136 308.512L925.429 308.833L925.564 309.597L934.059 357.774L934.282 359.043L935.457 358.511C939.79 356.544 944.127 354.589 948.468 352.645L949.179 352.326L949.044 351.559L945.866 333.538C951.157 331.165 956.455 328.83 961.76 326.534L964.853 344.076L965.073 345.323L966.235 344.82C970.581 342.939 974.934 341.089 979.294 339.271L980.032 338.963L979.893 338.174L971.399 289.997Z" stroke="#A5D936" stroke-width="2"/>
<path d="M998.406 331.577L998.928 331.375L999.029 330.824C999.651 327.42 1000.28 324.017 1000.93 320.615C1007.06 318.279 1013.21 316.055 1019.39 313.943L1024.3 321.415L1024.72 322.057L1025.45 321.814C1030.04 320.284 1034.65 318.829 1039.27 317.448L1040.6 317.051L1039.8 315.916C1030 301.945 1020.23 288.133 1010.49 274.478L1010.05 273.868L1009.35 274.114C1005 275.629 1000.65 277.198 996.316 278.823L995.805 279.015L995.689 279.548C991.664 298.184 987.659 316.926 983.673 335.773L983.282 337.623L985.031 336.905C989.48 335.08 993.938 333.304 998.406 331.577ZM1012.61 303.513C1009.55 304.591 1006.5 305.695 1003.44 306.824C1004.28 302.336 1005.11 297.853 1005.95 293.376C1008.17 296.747 1010.39 300.127 1012.61 303.513Z" stroke="#A5D936" stroke-width="2"/>
<path d="M1083 256.994L1083.52 255.451L1081.91 255.687C1077.44 256.339 1073 257.084 1068.56 257.921L1067.96 258.034L1067.79 258.621C1065.48 266.47 1063.18 274.373 1060.88 282.331C1056.21 275.965 1051.54 269.648 1046.89 263.379L1046.49 262.839L1045.83 263.007C1041.1 264.227 1036.37 265.532 1031.66 266.924L1030.2 267.356L1031.18 268.525C1039.2 278.118 1047.25 287.861 1055.32 297.752C1054.87 298.732 1054.24 299.624 1053.47 300.387C1052.65 301.135 1051.66 301.667 1050.59 301.935C1049.08 302.284 1047.52 302.426 1045.97 302.358L1045.06 302.317L1044.94 303.229C1044.47 306.87 1044 310.517 1043.53 314.168L1043.41 315.162L1044.4 315.287C1047.43 315.668 1050.51 315.491 1053.48 314.766L1053.48 314.764L1053.49 314.762C1057.25 313.784 1060.65 311.766 1063.31 308.941C1066.09 306.048 1068.19 302.311 1069.62 297.768C1074.05 283.978 1078.51 270.386 1083 256.994Z" stroke="#A5D936" stroke-width="2"/>
<path d="M1111.05 302.493L1107.99 285.134C1109.55 285.015 1111.11 284.914 1112.67 284.829C1117.37 290.64 1122.09 296.531 1126.82 302.501L1127.12 302.887L1127.61 302.88C1132.85 302.809 1138.12 302.901 1143.42 303.157L1145.61 303.262L1144.26 301.54C1137.65 293.142 1131.08 284.901 1124.52 276.817C1128.23 269.203 1131.96 261.738 1135.72 254.42L1136.43 253.038L1134.88 252.965C1129.9 252.73 1124.94 252.636 1120.01 252.683L1119.38 252.689L1119.11 253.269C1116.34 259.369 1113.59 265.549 1110.87 271.81C1109.14 271.907 1107.42 272.018 1105.7 272.144L1102.56 254.317L1102.4 253.423L1101.5 253.493C1096.88 253.854 1092.29 254.322 1087.72 254.899L1086.67 255.031L1086.86 256.065L1095.35 304.242L1095.52 305.18L1096.46 305.061C1101 304.487 1105.57 304.021 1110.15 303.664L1111.24 303.578L1111.05 302.493Z" stroke="#A5D936" stroke-width="2"/>
<path d="M1162.01 304.733L1162.87 304.84L1163.09 303.996C1163.8 301.329 1164.5 298.67 1165.21 296.02C1171.93 296.974 1178.7 298.229 1185.52 299.784C1187.36 303.086 1189.19 306.398 1191.03 309.72L1191.24 310.102L1191.67 310.207C1196.74 311.459 1201.85 312.888 1206.98 314.494L1209.42 315.255L1208.15 313.043C1197.56 294.563 1187.03 276.473 1176.58 258.776L1176.35 258.398L1175.93 258.306C1171.12 257.28 1166.33 256.396 1161.57 255.654L1160.72 255.522L1160.46 256.343C1155.78 271.258 1151.15 286.507 1146.59 302.091L1146.24 303.29L1147.48 303.371C1152.3 303.681 1157.14 304.135 1162.01 304.733ZM1168.18 284.671C1169.15 281.033 1170.13 277.412 1171.11 273.809C1173.47 278.018 1175.83 282.246 1178.19 286.493C1174.84 285.814 1171.5 285.207 1168.18 284.671Z" stroke="#A5D936" stroke-width="2"/>
</svg>
