<svg width="294" height="304" viewBox="0 0 294 304" fill="none" xmlns="http://www.w3.org/2000/svg">
<path d="M7.47314 8.04526C9.1677 5.81081 11.4082 4.04912 13.9794 2.92907L13.99 2.92444L13.99 2.9245C17.1702 1.58277 20.6036 0.946492 24.0535 1.05945C27.0352 1.07819 30.006 1.4168 32.9154 2.06949C36.1331 2.75622 39.2726 3.7689 42.285 5.09184L42.7086 5.27784L42.841 5.72105C43.7369 8.71818 44.3603 11.7901 44.7034 14.8994L44.8852 16.5472L43.3428 15.9394C37.3426 13.575 32.4695 12.4223 28.2173 12.3272L7.47314 8.04526ZM7.47314 8.04526C5.83075 10.1761 4.93951 12.7901 4.93783 15.4801C4.90125 16.9809 5.245 18.4666 5.93749 19.799C6.63202 21.1352 7.65462 22.2732 8.90898 23.1065L8.91306 23.1092C11.6444 24.9044 14.701 26.1471 17.9102 26.7671C21.28 27.4943 25.4305 28.1786 30.3713 28.8701L30.3713 28.8702L30.3793 28.8712C33.6635 29.3039 36.9184 29.9351 40.1262 30.7613C42.1402 31.3107 43.0216 32.0694 43.2848 32.7135C43.3898 32.9804 43.3367 33.0467 43.3148 33.074C43.3134 33.0758 43.3122 33.0773 43.3111 33.0788C43.2286 33.1892 42.9601 33.4069 42.2534 33.6189C40.8636 34.0359 38.4473 34.2428 34.8394 34.243C30.849 34.2024 26.8666 33.8765 22.9228 33.2677L22.9149 33.2665L22.907 33.2654C19.1653 32.7486 15.4764 31.9029 11.8832 30.7384L11.1712 30.5076L10.7491 31.1257C8.80957 33.9658 6.62256 36.9176 4.21648 39.9515L3.26936 41.1458L4.74201 41.539C9.53316 42.8184 14.4394 43.6191 19.3888 43.9292C25.2691 44.4344 31.1784 44.6229 36.9102 44.5144C42.3398 44.5851 47.7629 44.1096 53.0973 43.095L53.1151 43.0916L53.1328 43.0876C57.1031 42.1823 59.9516 40.8743 61.3469 38.9118C62.8101 36.8539 62.6045 34.4539 61.2551 31.9376L61.2496 31.9274L61.2438 31.9173C59.5732 28.9687 57.1439 26.5207 54.2081 24.8272C51.2956 23.0711 48.1626 21.7097 44.8913 20.7787L44.8913 20.7787L44.8835 20.7765C41.1019 19.7333 37.269 18.8858 33.4 18.2374L33.4 18.2373L33.3881 18.2354C30.4815 17.7844 27.6027 17.1708 24.7649 16.3972C23.0181 15.8653 22.3967 15.1988 22.2327 14.6117L22.2296 14.6005L22.2262 14.5894C22.1418 14.3124 22.1612 14.0143 22.2807 13.7508C22.4002 13.4872 22.6117 13.2759 22.8756 13.1568L22.9317 13.1315L22.9842 13.0995C23.8062 12.5989 25.4649 12.2685 28.2172 12.3272L7.47314 8.04526Z" stroke="#A5D936" stroke-width="2"/>
<path d="M58.1688 14.0046L58.1708 14.0201L58.1734 14.0355C58.8647 18.2569 60.4904 22.2706 62.9315 25.7834C65.7992 30.1762 69.4243 34.0249 73.638 37.1504C78.2316 40.5859 83.2266 43.4492 88.5126 45.6773C93.702 47.9239 99.1006 49.6527 104.63 50.8385L104.632 50.8389C109.168 51.8014 112.863 52.1915 115.69 51.7363C117.11 51.5076 118.344 51.0663 119.315 50.329C120.304 49.5782 120.963 48.564 121.288 47.3076L121.454 46.6636L120.924 46.2613C116.924 43.2222 112.725 40.1722 108.375 37.2006L107.132 36.3514L106.831 37.8263C106.603 38.9437 106.027 39.5733 105.076 39.9049C104.03 40.2694 102.463 40.2902 100.302 39.8775C97.5965 39.3406 94.9721 38.4561 92.4936 37.2461L92.4875 37.2432C89.821 35.9636 87.3169 34.37 85.0287 32.4962C82.7835 30.6453 80.7892 28.5096 79.0964 26.1431L79.0857 26.1282L79.0745 26.1136C77.6711 24.2967 76.6357 22.2237 76.0261 20.0107C75.657 18.3105 75.936 17.2561 76.5946 16.5911C77.2899 15.8891 78.5766 15.4333 80.8508 15.6111L80.8534 15.6113C84.6176 15.8959 89.5649 18.1296 95.4879 22.5146L96.7865 23.476L97.0677 21.8848C97.5568 19.1161 97.8194 16.3122 97.8529 13.5009L97.8588 13.0067L97.4699 12.7019C92.995 9.19436 88.0945 6.26653 82.8851 3.98807C78.7726 2.12987 74.3295 1.11397 69.8179 1.00032L69.8053 1H69.7927C65.2144 1 62.0605 2.29311 60.1182 4.79146C58.2106 7.24507 57.6935 10.3996 58.1688 14.0046Z" stroke="#A5D936" stroke-width="2"/>
<path d="M96.4158 2.35227L94.3343 2.33476L95.6215 3.9706C112.968 26.0165 124.324 43.1788 131.201 56.9982L131.388 57.3752L131.789 57.5044C135.614 58.7374 139.296 60.0093 142.835 61.3201L145.059 62.1436L144.097 59.9763C137.5 45.1279 126.298 26.6352 108.944 2.8613L108.647 2.45518L108.144 2.45095L96.4158 2.35227Z" stroke="#A5D936" stroke-width="2"/>
<path d="M176.762 61.5789L176.611 61.046L176.078 60.8921C170.664 59.3276 165.087 57.5564 159.227 55.684C158.142 52.9903 156.946 50.1977 155.641 47.3063C160.28 48.4409 164.806 49.5248 169.235 50.5109L171.001 50.9039L170.395 49.1999C168.73 44.5161 166.821 39.5876 164.67 34.4146L164.451 33.8877L163.886 33.8083C158.645 33.0722 153.328 32.2429 147.896 31.374C146.261 28.2262 144.515 24.9715 142.657 21.6097C148.628 22.1655 154.523 22.686 160.371 23.142L162.041 23.2721L161.364 21.7404C158.784 15.9105 155.923 9.78251 152.778 3.35669L152.506 2.80079L151.887 2.79625C141.12 2.71729 130.33 2.63504 119.516 2.5495L117.626 2.53455L118.677 4.1056C135.618 29.4229 146.246 48.9952 152.24 64.542L152.398 64.9516L152.807 65.1126C156.97 66.7529 160.974 68.3926 164.841 69.9764C169.623 71.9343 174.196 73.807 178.603 75.49L180.314 76.1433L179.939 74.3508C179.094 70.3184 178.042 66.0708 176.762 61.5789Z" stroke="#A5D936" stroke-width="2"/>
<path d="M202.549 3.70223L202.36 2.9471L201.582 2.94439L190.248 2.90494L188.893 2.90022L189.288 4.19633C193.235 17.1519 196.545 30.2915 199.207 43.5679C191.379 29.5386 182.585 16.0673 172.887 3.2521L172.587 2.85553H172.09H162.504H160.98L161.586 4.25351C174.746 34.5879 181.98 58.3311 185.022 77.2611L185.117 77.8512L185.682 78.0472C188.346 78.9714 191.001 79.8067 193.639 80.543L195.074 80.9439L194.901 79.4632C193.736 69.5406 191.952 59.7028 189.56 50.0072C195.638 60.4323 200.939 71.295 205.418 82.5072L205.636 83.0522L206.218 83.1278C208.455 83.4187 210.699 83.5889 212.96 83.6589L213.997 83.691L213.991 82.6532C213.862 61.5217 210.54 35.7189 202.549 3.70223Z" stroke="#A5D936" stroke-width="2"/>
<path d="M220.53 67.1965L220.532 67.2051L220.535 67.2137C222.227 72.6457 224.239 76.6749 226.883 79.2303C228.112 80.5056 229.69 81.3891 231.42 81.7693C233.155 82.1504 234.963 82.0088 236.617 81.3624C240.096 80.0549 243.158 77.8343 245.482 74.9342C248.47 71.3919 250.889 67.407 252.653 63.1219L252.879 62.5724L252.505 62.111C250.575 59.733 248.618 57.0045 246.568 54.0482L245.496 52.5032L244.814 54.2553C243.657 57.2273 242.4 59.5228 241.092 61.1659C239.783 62.8108 238.464 63.7511 237.186 64.1196L237.173 64.1232L237.161 64.1271C236.506 64.3345 235.806 64.3529 235.141 64.1802C234.476 64.0075 233.874 63.6507 233.403 63.1509L233.386 63.1336L233.369 63.117C232.163 61.9538 231.121 59.9819 230.272 57.0343C229.322 53.5085 228.748 49.8922 228.56 46.2457L228.559 46.2303L228.558 46.215C228.233 42.2955 228.321 38.3528 228.82 34.4516L228.821 34.4381L228.823 34.4246C229.114 31.5155 230.035 28.7047 231.522 26.187L231.527 26.179L231.531 26.1708C231.99 25.3589 232.635 24.6671 233.413 24.1521C234.188 23.6388 235.074 23.3157 235.997 23.2088C238.853 22.9442 241.892 25.3032 244.561 30.7571L245.489 32.6521L246.368 30.7346C248.449 26.2006 250.578 21.6876 252.736 17.2741L252.944 16.8477L252.745 16.4165C250.788 12.1676 247.924 8.39905 244.353 5.37623C241.218 2.65675 237.231 1.11914 233.082 1.02978L233.072 1.02957L233.062 1.02955C228.337 1.01881 224.438 3.28978 221.564 7.62621C218.722 11.9147 217.097 17.8228 216.368 24.8049L216.367 24.8126L216.367 24.8203C215.703 32.3002 215.829 39.8292 216.744 47.2826C217.364 54.0266 218.632 60.6952 220.53 67.1965Z" stroke="#A5D936" stroke-width="2"/>
<path d="M292.998 35.2429V33.231L291.395 34.4457C284.763 39.469 277.888 44.1641 270.797 48.5142C270.934 45.9205 271.057 43.3194 271.158 40.664C276.891 37.8346 282.872 34.4979 289.098 30.6554L289.566 30.3667L289.573 29.817C289.582 29.0533 289.593 28.2872 289.604 27.5192C289.638 25.1587 289.671 22.78 289.671 20.398V18.8604L288.266 19.484C282.533 22.0273 276.987 24.2423 271.528 26.176C271.562 23.4944 271.565 20.8112 271.566 18.0785C278.097 16.6758 284.727 15.0012 291.499 13.0994L292.228 12.8945V12.1367V2.86853V1.84269L291.203 1.86886C280.373 2.14513 269.567 2.36224 258.783 2.52011L257.739 2.53539L257.799 3.57797C259.068 25.4189 258.771 47.3226 256.913 69.1213L256.749 71.0453L258.415 70.069C268.569 64.1188 279.782 55.9479 292.644 45.0672L292.998 44.7676V44.3037V35.2429Z" stroke="#A5D936" stroke-width="2"/>
<path d="M2.92022 92.8781L4.22648 91.2838C7.21059 87.6418 10.1094 84.1508 12.9229 80.8109L13.2526 80.4195L13.7629 80.458C18.3687 80.8051 22.9919 80.8574 27.6044 80.6145L27.6147 80.614L27.6147 80.614C32.7159 80.3982 37.5621 79.9471 42.1435 79.3292C46.5045 78.7373 49.5849 78.1593 51.5464 77.5221C52.5338 77.2013 53.1528 76.8915 53.5023 76.6159C53.8194 76.3659 53.81 76.2364 53.8078 76.2069C53.8078 76.2059 53.8077 76.2051 53.8077 76.2044L53.8081 76.2044C53.8045 76.1677 53.7654 76.0381 53.3916 75.8546C52.9341 75.63 52.167 75.4336 51.0053 75.3043C47.0932 74.9644 43.1644 74.8571 39.2396 74.9829L39.2284 74.9833V74.9832C38.9698 74.9886 38.7125 74.994 38.4565 74.9994C32.6357 75.121 27.498 75.2284 23.2364 75.1908C19.1849 75.2439 15.1495 74.6699 11.2736 73.4891L11.2624 73.4857L11.2514 73.4821C9.47448 72.8952 8.04597 72.0358 7.05766 70.8638C6.05697 69.6772 5.56535 68.2376 5.55967 66.6139L5.55966 66.6104C5.55967 63.6826 7.29857 60.9203 10.2376 58.4956C13.2019 56.0501 17.4285 54.0157 22.7294 52.4829L22.7371 52.4807L22.745 52.4785C28.8286 50.8257 35.1 49.9647 41.4041 49.9169C46.1238 49.8122 50.8448 50.069 55.5253 50.6848C59.6507 51.1979 63.7206 52.0863 67.6845 53.3388L68.8029 53.6922L68.2771 54.7407C67.0709 57.146 65.7346 59.484 64.2742 61.7442L63.8798 62.3548L63.1773 62.1679C56.552 60.4057 49.7004 59.645 42.8499 59.9109L42.8342 59.9115L42.8184 59.9116C39.7338 59.9342 36.6699 60.4173 33.7282 61.3448C32.8115 61.7097 32.2133 62.0707 31.8704 62.3923C31.5383 62.7038 31.5327 62.886 31.5425 62.9687L31.5427 62.97C31.5456 62.9962 31.5646 63.1684 32.0514 63.4008C32.5558 63.6415 33.3809 63.8486 34.6033 63.9775C37.0861 64.2393 41.0211 64.3865 46.297 64.5646C51.1154 64.6974 55.9227 65.0957 60.6971 65.7578C64.0989 66.2168 67.4126 67.1831 70.5279 68.6244L70.5363 68.6283L70.5445 68.6323C73.4032 70.0193 75.2107 71.9863 75.4762 74.5927M2.92022 92.8781L75.4762 74.5927M2.92022 92.8781L4.98093 92.9174M2.92022 92.8781L4.98093 92.9174M75.4762 74.5927C75.7163 76.9435 74.3979 78.8863 72.049 80.5533C69.6933 82.225 66.1314 83.6537 61.2705 85.0422L61.2637 85.0442L61.2568 85.046C55.0781 86.7159 48.8152 88.0577 42.4946 89.0656M75.4762 74.5927L42.4946 89.0656M42.4946 89.0656C35.9403 90.1117 29.2417 91.1407 22.3999 91.923M42.4946 89.0656L22.3999 91.923M4.98093 92.9174C10.8041 93.0285 16.6272 92.6961 22.3999 91.923M4.98093 92.9174L22.3999 91.923" stroke="#A5D936" stroke-width="2"/>
<path d="M88.0147 77.9236L88.0245 77.9314L88.0345 77.939C91.5984 80.6373 95.5686 82.7521 99.7966 84.2043C104.514 85.9148 109.345 87.2944 114.254 88.3331C118.001 89.2274 121.805 89.857 125.64 90.2172C128.433 90.5595 131.266 90.2963 133.948 89.4456L135.475 88.9615L134.37 87.8025C132.082 85.4017 129.567 83.0173 126.827 80.649L126.352 80.2392L125.777 80.4873C123.348 81.5342 120.072 81.5209 115.692 80.482L115.685 80.4804C113.238 79.9177 110.855 79.1064 108.573 78.0589L108.573 78.0588L108.563 78.0542C106.637 77.1966 104.873 76.0154 103.346 74.5619L103.346 74.5619L103.339 74.5552C102.169 73.462 101.359 72.0383 101.018 70.4736L101.013 70.4506L101.007 70.428C100.856 69.8667 100.839 69.2783 100.957 68.7096C101.072 68.1535 101.312 67.6311 101.66 67.1822C102.623 66.1601 103.926 65.5242 105.326 65.3951L105.338 65.3939L105.351 65.3924C107.576 65.1293 109.83 65.291 111.995 65.8688L112.003 65.8709L112.01 65.8729C116.446 66.9805 120.517 69.222 123.824 72.3774L124.271 72.804L124.852 72.5949C127.126 71.7773 129.251 70.916 131.213 69.9804L132.492 69.3709L131.49 68.3701C128.501 65.3857 125.099 62.8453 121.389 60.8266C117.379 58.6348 113.083 57.0117 108.625 56.0042C103.983 54.8317 99.1505 54.6179 94.4228 55.376C90.7635 55.8897 87.3686 57.5734 84.7452 60.1755L84.7385 60.1821L84.7319 60.1889C83.6052 61.3494 82.7827 62.7703 82.3378 64.3253C81.8946 65.8743 81.8396 67.5084 82.1776 69.0834C82.7794 72.4433 84.8223 75.3784 88.0147 77.9236Z" stroke="#A5D936" stroke-width="2"/>
<path d="M136.644 65.013L134.543 64.2229L135.361 66.3137C140.177 78.6078 140.868 87.8827 139.05 95.7186L138.874 96.4771L139.566 96.8337C142.736 98.4661 145.816 100.267 148.794 102.228L149.913 102.965L150.301 101.682C152.845 93.2673 152.588 83.236 148.099 70.0003L147.956 69.5776L147.545 69.4021C144.049 67.9068 140.442 66.4403 136.644 65.013Z" stroke="#A5D936" stroke-width="2"/>
<path d="M179.727 118.176L179.924 117.551L179.429 117.121C178.451 116.273 177.461 115.406 176.454 114.525C173.622 112.046 170.659 109.453 167.49 106.848C167.743 105.736 167.956 104.615 168.127 103.487C170.783 105.497 173.304 107.486 175.746 109.412C176.463 109.978 177.174 110.538 177.879 111.092L179.172 112.109L179.479 110.493C179.975 107.882 180.31 105.244 180.482 102.593L180.519 102.024L180.048 101.703C178.955 100.956 177.845 100.192 176.716 99.4146C174.156 97.6524 171.497 95.8222 168.715 93.9702C168.683 92.7155 168.609 91.4238 168.495 90.0953C170.071 91.05 171.621 91.999 173.146 92.9321C175.709 94.5005 178.2 96.0244 180.612 97.4563L182.154 98.3713L182.123 96.5789C182.064 93.2063 181.834 89.8388 181.435 86.4893L181.37 85.9504L180.883 85.7106C177.964 84.273 174.941 82.7272 171.796 81.1185C167.191 78.7638 162.324 76.2744 157.13 73.7921L155.135 72.8389L155.736 74.9663C159.604 88.6566 159.186 98.684 156.309 106.814L156.07 107.489L156.632 107.933C163.004 112.964 168.414 118.245 173.494 123.204C174.175 123.868 174.849 124.526 175.519 125.177L176.528 126.158L177.123 124.883C178.137 122.707 179.007 120.467 179.727 118.176Z" stroke="#A5D936" stroke-width="2"/>
<path d="M213.563 96.9713L213.632 95.9677L212.628 95.904C210.19 95.7494 207.766 95.4226 205.374 94.926L204.205 94.6834L204.171 95.8763C203.968 102.945 203.154 109.979 201.74 116.901C200.033 108.452 197.623 100.156 194.534 92.1023L194.375 91.687L193.96 91.5272C191.943 90.7507 189.902 89.902 187.837 88.9809L186.32 88.3038L186.432 89.9619C187.568 106.677 184.942 119.024 180.261 128.713L179.94 129.377L180.479 129.879C182.389 131.66 184.295 133.326 186.224 134.865L187.203 135.646L187.748 134.518C190.019 129.813 191.8 124.892 193.066 119.833C194.241 126.55 194.97 133.338 195.247 140.154L195.271 140.757L195.816 141.017C197.6 141.867 199.453 142.564 201.355 143.1L202.174 143.33L202.533 142.559C208.077 130.656 212.242 115.977 213.563 96.9713Z" stroke="#A5D936" stroke-width="2"/>
<path d="M214.655 142.089L214.658 142.092C216.755 143.808 219.697 144.072 223.343 142.998L223.358 142.993L223.373 142.988C226.951 141.813 230.272 139.963 233.155 137.539C236.605 134.742 239.655 131.485 242.22 127.86L242.864 126.949L241.889 126.408C240.197 125.469 238.625 124.33 237.206 123.015L236.37 122.24L235.711 123.171C232.489 127.715 229.333 130.415 226.595 131.361C224.962 131.923 223.991 131.767 223.399 131.35C222.801 130.93 222.348 130.069 222.253 128.43C222.217 126.308 222.503 124.192 223.102 122.156L223.107 122.136L223.112 122.117C223.741 119.613 224.627 117.181 225.757 114.859L225.757 114.859L225.762 114.847C226.735 112.778 228.01 110.865 229.547 109.171L229.547 109.171L229.554 109.163C230.773 107.79 232.295 106.719 233.999 106.035C235.294 105.537 236.322 105.531 237.14 105.851C237.964 106.172 238.736 106.886 239.391 108.142L240.157 109.612L241.1 108.249C243.741 104.434 246.381 100.449 249.02 96.2931L249.338 95.7924L249.051 95.2734C248.428 94.1451 247.58 93.1559 246.561 92.3665C245.542 91.5771 244.372 91.0041 243.124 90.6825L243.107 90.6783L243.091 90.6746C240.301 90.0568 237.389 90.3029 234.743 91.3799C231.091 92.729 227.835 94.9704 225.271 97.8997C222.336 101.223 219.911 104.963 218.075 108.999C216.074 113.297 214.484 117.774 213.329 122.371C212.198 126.243 211.624 130.257 211.625 134.291L211.625 134.309L211.626 134.327C211.749 137.669 212.582 140.38 214.655 142.089Z" stroke="#A5D936" stroke-width="2"/>
<path d="M293 86.5683V84.3175L291.33 85.8262C281.252 94.9292 272.264 102.498 264.21 108.714C264.492 107 264.772 105.265 265.039 103.508C272.009 98.0985 279.656 91.6076 288.091 83.9633L288.406 83.6775L288.419 83.2522C288.463 81.7584 288.504 80.2892 288.546 78.8221C288.588 77.3206 288.63 75.8213 288.675 74.3L288.747 71.9253L286.999 73.5342C279.701 80.251 273.022 86.0284 266.857 90.9701C267.084 89.2715 267.305 87.5541 267.52 85.8179C274.835 80.0811 282.847 73.1559 291.714 64.8946L292.03 64.6006L292.032 64.1694L292.092 55.0395L292.107 52.7638L290.42 54.292C277.256 66.2221 265.956 75.1173 255.995 81.5635L255.604 81.8168L255.546 82.2795C253.572 98.1419 250.585 113.862 246.606 129.344L245.984 131.761L248.103 130.441C260.267 122.863 274.863 111.811 292.655 96.3847L293 96.0857V95.6292V86.5683Z" stroke="#A5D936" stroke-width="2"/>
<path d="M5.20701 144.202C10.691 143.041 16.0774 141.46 21.3186 139.473C27.5672 137.246 33.6332 134.812 39.5359 132.404L39.5428 132.401L39.5496 132.398C46.5133 129.435 52.0778 126.898 56.6827 124.472C60.4091 122.624 63.9437 120.412 67.2346 117.868L67.2513 117.855L67.2675 117.842C69.6862 115.803 71.4085 113.796 71.9548 111.681L71.9561 111.676C72.2568 110.485 72.2318 109.337 71.697 108.337C71.1639 107.34 70.2147 106.659 69.0168 106.211L68.997 106.203L68.9769 106.197C66.2114 105.295 63.2957 104.943 60.3949 105.163C55.8274 105.437 51.2802 105.982 46.7771 106.794C45.4781 107.009 44.2603 107.215 43.126 107.406C39.7608 107.974 37.1318 108.418 35.3057 108.621C34.0985 108.756 33.3245 108.717 32.899 108.596C32.8228 108.575 32.7697 108.554 32.734 108.537C32.7677 108.391 32.8939 108.119 33.2949 107.723C33.7572 107.266 34.485 106.744 35.5134 106.179C38.5893 104.661 41.8462 103.541 45.2053 102.846L45.2217 102.843L45.238 102.839C51.7197 101.27 58.4071 100.725 65.0573 101.226L65.5427 101.262L65.8709 100.903C67.6852 98.9153 69.4673 97.0043 71.2017 95.1445C71.6336 94.6813 72.0626 94.2213 72.4884 93.764L73.7804 92.3767L71.9059 92.0937C68.0025 91.5045 64.0494 91.3126 60.1073 91.5211C55.1159 91.75 50.1488 92.3529 45.2476 93.3245C38.1547 94.6557 31.2364 96.7896 24.6262 99.6849C19.5548 101.823 14.8682 104.779 10.753 108.433L10.7393 108.445L10.7261 108.458C7.52122 111.521 5.66911 114.63 5.66837 117.549C5.66304 119.181 6.16553 120.582 7.24657 121.614C8.30645 122.626 9.80745 123.171 11.5925 123.352L11.6083 123.354L11.6242 123.355C15.5685 123.629 19.5314 123.288 23.3709 122.345C27.4739 121.453 32.373 120.251 37.8329 118.911C38.1319 118.838 38.4326 118.764 38.735 118.69L38.735 118.69L38.7448 118.687C42.3492 117.765 46.0069 117.064 49.6973 116.59C50.6886 116.491 51.2591 116.538 51.5374 116.626C51.48 116.8 51.3276 117.058 50.9536 117.404C50.5115 117.814 49.8343 118.277 48.866 118.804C46.9306 119.858 44.0109 121.071 39.9465 122.575L39.9461 122.575C35.657 124.164 31.1629 125.636 26.3847 126.95L26.3847 126.95L26.3756 126.953C22.077 128.179 17.7062 129.136 13.2883 129.818L12.8683 129.883L12.6235 130.23C9.80654 134.227 6.9867 138.375 4.16408 142.674L2.8313 144.704L5.20701 144.202ZM51.6472 116.672C51.6472 116.672 51.6467 116.671 51.6456 116.67C51.6467 116.671 51.6472 116.672 51.6472 116.672Z" stroke="#A5D936" stroke-width="2"/>
<path d="M90.6133 116.356L90.6216 116.358L90.6301 116.36C94.4019 117.291 98.2523 117.868 102.131 118.084C105.491 118.381 108.865 118.487 112.236 118.402C115.173 118.341 118.093 117.954 120.944 117.248L122.196 116.938L121.584 115.803C120.489 113.772 119.223 111.839 117.798 110.024L117.379 109.49L116.728 109.683C113.343 110.684 109.784 110.956 106.287 110.48L106.269 110.477L106.251 110.476C104.359 110.287 102.502 109.84 100.731 109.148L100.715 109.141L100.699 109.136C99.5186 108.72 98.5038 107.936 97.8038 106.9C97.5641 106.466 97.4267 105.983 97.4023 105.487C97.3774 104.98 97.4717 104.474 97.6776 104.009L97.6865 103.989L97.6946 103.969C98.2181 102.631 99.1603 101.5 100.381 100.743L100.381 100.743L100.39 100.737C101.988 99.7196 103.79 99.0659 105.669 98.8216L105.677 98.8205L105.685 98.8193C107.917 98.4912 110.189 98.5516 112.401 98.9977L112.401 98.9977L112.408 98.999C116.376 99.7719 119.036 101.495 120.499 103.728L120.854 104.27L121.494 104.167C124.422 103.697 127.244 103.354 129.981 103.089L131.536 102.939L130.749 101.59C129.262 99.0414 127.145 96.9174 124.602 95.421C121.272 93.4151 117.612 92.0172 113.793 91.2925C108.916 90.2576 103.888 90.1515 98.9725 90.9799C94.5632 91.6679 90.3578 93.3113 86.6505 95.795L86.6424 95.8004L86.6345 95.8059C83.2934 98.1391 81.1448 100.966 80.3241 104.032C79.8799 105.413 79.8239 106.889 80.1628 108.3C80.5032 109.717 81.2285 111.012 82.2583 112.043C84.2579 114.115 87.1545 115.438 90.6133 116.356Z" stroke="#A5D936" stroke-width="2"/>
<path d="M138.651 100.62L137.677 100.098L137.254 101.119C134.218 108.444 128.918 114.795 122.636 121.767L121.779 122.718L122.91 123.319C125.467 124.678 127.907 126.246 130.205 128.007L130.895 128.536L131.515 127.926C138.182 121.359 144.235 115.042 147.962 107.398L148.337 106.629L147.636 106.14C144.751 104.126 141.751 102.283 138.651 100.62Z" stroke="#A5D936" stroke-width="2"/>
<path d="M158.072 148.372L158.782 147.76L158.217 147.013C158.061 146.807 157.906 146.6 157.75 146.394C154.925 142.654 152.03 138.819 148.876 135.132C149.641 134.442 150.393 133.747 151.132 133.045C153.902 136.266 156.494 139.565 159.039 142.831L159.711 143.693L160.51 142.947C162.006 141.552 163.454 140.114 164.853 138.615L165.448 137.979L164.899 137.302C162.276 134.071 159.544 130.735 156.59 127.462C157.17 126.816 157.727 126.162 158.266 125.495C161.491 128.942 164.475 132.432 167.376 135.825C167.509 135.981 167.642 136.137 167.775 136.293L168.555 137.204L169.311 136.273C170.689 134.578 171.972 132.809 173.157 130.974L173.568 130.336L173.065 129.768C167.528 123.516 161.614 117.606 155.357 112.074L154.42 111.246L153.818 112.341C149.753 119.736 143.488 125.715 136.482 132.028L135.698 132.733L136.445 133.478C141.665 138.689 146.104 144.639 150.556 150.607C150.967 151.159 151.379 151.71 151.791 152.261L152.416 153.097L153.225 152.436C154.858 151.1 156.475 149.752 158.072 148.372Z" stroke="#A5D936" stroke-width="2"/>
<path d="M198.359 150.61L198.958 149.566L197.821 149.168C195.675 148.418 193.609 147.454 191.655 146.292L190.807 145.788L190.291 146.628C187.759 150.755 184.931 154.691 181.83 158.406C181.93 157.044 182.041 155.656 182.153 154.243C182.506 149.817 182.878 145.144 183.011 140.279L183.024 139.821L182.685 139.513C181.154 138.119 179.649 136.634 178.127 135.073L177.251 134.175L176.571 135.229C171.002 143.856 163.701 150.358 156.305 156.53L155.559 157.153L156.16 157.917C157.881 160.102 159.66 162.301 161.537 164.308L162.191 165.008L162.918 164.383C166.208 161.559 169.379 158.6 172.424 155.514C172.416 155.579 172.408 155.644 172.4 155.709C171.686 161.509 171.001 167.064 170.883 172.397L170.871 172.921L171.296 173.229C173.218 174.62 175.24 175.867 177.346 176.959L178.03 177.314L178.547 176.742C185.142 169.457 192.251 161.259 198.359 150.61Z" stroke="#A5D936" stroke-width="2"/>
<path d="M192.904 165.748L192.904 165.748L192.898 165.756C190.936 168.493 189.666 171.156 189.66 173.794C189.618 175.113 189.922 176.42 190.543 177.585C191.163 178.75 192.078 179.732 193.195 180.433C195.602 182.056 199.04 182.878 203.509 182.726L203.518 182.726L203.528 182.725C207.656 182.507 211.717 181.584 215.534 179.996C219.53 178.369 223.25 176.136 226.565 173.375L227.968 172.206L226.227 171.653C224.044 170.961 221.922 170.091 219.883 169.051L219.311 168.759L218.807 169.158C214.92 172.238 211.049 173.886 207.56 174.237L207.531 174.24L207.502 174.245C206.002 174.487 204.464 174.282 203.08 173.655C202.725 173.482 202.425 173.214 202.214 172.88C202.006 172.55 201.894 172.169 201.888 171.779C201.956 170.453 202.404 169.175 203.18 168.098L203.199 168.073L203.216 168.046C204.204 166.474 205.417 165.056 206.817 163.836L206.817 163.836L206.823 163.83C208.28 162.54 209.894 161.441 211.629 160.558L211.629 160.558L211.636 160.554C213.348 159.665 215.168 159.001 217.05 158.58L217.051 158.58C220.253 157.86 222.258 158.299 223.497 159.659L224.135 160.361L224.87 159.76C228.194 157.038 231.556 154.06 234.956 150.827L235.793 150.031L234.885 149.317C233.052 147.874 230.763 147.136 228.433 147.237C225.502 147.275 222.589 147.712 219.775 148.536C216.179 149.461 212.693 150.768 209.376 152.435C206.119 154.054 203.038 156.005 200.183 158.258C197.42 160.404 194.97 162.925 192.904 165.748Z" stroke="#A5D936" stroke-width="2"/>
<path d="M292.998 137.893V136.062L291.458 137.052C279.604 144.667 267.374 151.678 254.814 158.059C255.088 156.665 255.364 155.263 255.647 153.852C264.815 148.933 274.993 142.752 286.339 135.274L286.772 134.988L286.788 134.47L287.055 125.833L287.117 123.817L285.474 124.988C275.325 132.229 266.115 138.277 257.765 143.261C258.022 141.983 258.279 140.697 258.532 139.398C268.167 133.335 278.992 125.731 291.233 116.381L291.623 116.084L291.626 115.593C291.633 114.467 291.645 113.338 291.656 112.206C291.676 110.319 291.695 108.426 291.695 106.536V104.436L290.065 105.759C271.793 120.596 256.883 131.161 244.488 138.29L244.134 138.493L244.023 138.886C241.67 147.261 239.305 155.004 237.065 162.337C235.811 166.442 234.596 170.419 233.444 174.307L232.895 176.161L234.726 175.537C250.388 170.199 269.316 161.292 292.501 147.819L292.998 147.53V146.954V137.893Z" stroke="#A5D936" stroke-width="2"/>
<path d="M5.39418 195.467C9.81333 193.572 14.0691 191.316 18.1183 188.723C23.0144 185.721 27.7589 182.532 32.4105 179.207C37.1477 175.892 41.7048 172.326 46.0624 168.526C49.2505 165.783 52.2002 162.774 54.8796 159.532C56.8089 157.287 58.3218 154.716 59.3473 151.94L59.3547 151.92L59.3612 151.899C59.7837 150.586 59.98 149.381 59.7803 148.369C59.5621 147.264 58.884 146.466 57.8156 146.074C56.0472 145.426 53.741 145.543 50.9818 146.317L50.9818 146.317L50.9704 146.32C47.1784 147.432 43.4661 148.799 39.8589 150.412C35.6403 152.264 32.4568 153.635 30.4325 154.329C29.9381 154.498 29.5349 154.612 29.2134 154.676C29.0498 154.708 28.9205 154.725 28.8207 154.732C28.8836 154.476 29.0545 154.115 29.425 153.63C29.8753 153.041 30.5536 152.356 31.4754 151.562C34.0643 149.482 36.8834 147.705 39.8775 146.266L39.8958 146.257L39.9138 146.248C44.9851 143.553 50.4862 141.759 56.1716 140.946L56.5837 140.887L56.8322 140.553C59.1588 137.428 61.4976 134.448 63.8486 131.613L65.287 129.878L63.0357 129.975C59.7288 130.118 56.4535 130.679 53.2876 131.644C48.8943 132.909 44.6033 134.506 40.4517 136.42C34.0024 139.32 27.8689 142.875 22.1479 147.03C17.5205 150.307 13.3657 154.205 9.80022 158.614L9.79203 158.624L9.78409 158.634C6.95878 162.32 5.39318 165.707 5.39191 168.556C5.38159 170.143 5.779 171.507 6.76609 172.425C7.75373 173.343 9.12786 173.625 10.6471 173.505L10.6661 173.503L10.6852 173.501C14.0768 173.101 17.3708 172.103 20.4146 170.555C23.945 168.908 28.1913 166.751 32.8891 164.358L32.8969 164.354L32.9046 164.35C35.7232 162.852 38.6437 161.554 41.6444 160.465C41.9948 160.352 42.2663 160.29 42.4689 160.263C42.2394 160.991 41.529 161.986 40.0007 163.358C38.4003 164.795 36.0431 166.524 32.8008 168.674L32.7987 168.675C29.3831 170.952 25.8228 173.142 22.0357 175.093L22.0255 175.099L22.0155 175.104C18.6461 176.939 15.1522 178.536 11.5596 179.882L11.205 180.015L11.0274 180.35C8.64035 184.846 6.34389 189.448 4.09884 194.115L2.94237 196.519L5.39418 195.467ZM28.7919 154.977C28.7919 154.977 28.7917 154.976 28.7915 154.974C28.7918 154.976 28.792 154.977 28.7919 154.977Z" stroke="#A5D936" stroke-width="2"/>
<path d="M66.6872 150.135L66.6934 150.148L66.7 150.16C67.3019 151.284 68.1587 152.252 69.2016 152.986C70.2397 153.717 71.4337 154.196 72.6888 154.386C75.7119 154.941 78.814 154.903 81.8226 154.274C84.7334 153.8 87.5864 153.022 90.3346 151.952L90.3365 151.952C93.0639 150.884 95.6693 149.527 98.1079 147.905L98.7196 147.498L98.5142 146.793C97.9437 144.833 97.2462 142.913 96.4262 141.045L95.9359 139.927L94.9367 140.627C92.2392 142.517 89.137 143.75 85.878 144.227L85.8675 144.229L85.8571 144.231C84.5511 144.45 83.2108 144.334 81.9624 143.892C81.5946 143.754 81.2693 143.521 81.0187 143.218C80.7725 142.921 80.607 142.565 80.5377 142.185C80.3992 140.854 80.6809 139.512 81.3438 138.349L81.3584 138.323L81.3714 138.296C82.2283 136.562 83.4131 135.01 84.8604 133.726L84.8605 133.726L84.8664 133.72C86.4111 132.328 88.1861 131.214 90.1123 130.43L90.1123 130.43L90.1198 130.426C91.9277 129.673 93.8657 129.28 95.8244 129.27C97.3934 129.284 98.5198 129.603 99.2939 130.102C100.047 130.588 100.54 131.29 100.78 132.244L101.058 133.351L102.119 132.93C104.865 131.839 107.675 130.915 110.533 130.165L111.386 129.941L111.271 129.067C111.121 127.934 110.726 126.848 110.112 125.884C109.498 124.92 108.681 124.102 107.717 123.488L107.71 123.484L107.703 123.48C105.136 121.901 102.179 121.07 99.1645 121.081C94.6728 120.962 90.2074 121.802 86.0661 123.545C81.6724 125.324 77.6395 127.889 74.1649 131.113C71.03 133.908 68.5789 137.386 67.0005 141.278L67.0004 141.278L66.9971 141.286C65.6042 144.814 65.5274 147.816 66.6872 150.135Z" stroke="#A5D936" stroke-width="2"/>
<path d="M119.293 126.629L118.61 126.28L118.096 126.849C111.52 134.126 104.422 142.393 98.3248 153.03L97.7173 154.09L98.8763 154.476C101.073 155.208 103.186 156.171 105.18 157.349L106.03 157.852L106.543 157.007C112.557 147.1 119.788 139.612 126.693 132.708L127.505 131.896L126.59 131.203C124.297 129.467 121.855 127.936 119.293 126.629Z" stroke="#A5D936" stroke-width="2"/>
<path d="M131.983 171.935L132.516 171.279L131.959 170.644C130.938 169.482 129.929 168.313 128.925 167.152C126.744 164.629 124.592 162.139 122.423 159.813C123.177 158.887 123.952 157.985 124.74 157.099C127.276 159.962 129.771 163.03 132.347 166.2L133.081 167.104L133.864 166.241C135.176 164.794 136.63 163.407 138.107 162.039L138.779 161.416L138.217 160.692C138.143 160.597 138.069 160.501 137.995 160.406C135.523 157.226 133.086 154.091 130.56 151.128C131.286 150.438 132.016 149.76 132.749 149.092C135.261 152.1 137.685 155.287 140.157 158.536C140.553 159.058 140.951 159.581 141.351 160.105L141.994 160.95L142.799 160.257C144.36 158.911 145.963 157.575 147.577 156.256L148.32 155.65L147.744 154.882C147.312 154.306 146.88 153.728 146.448 153.15C142.14 147.387 137.801 141.583 132.782 136.583L132.109 135.912L131.405 136.55C124.206 143.075 116.706 150.297 110.637 159.903L110.159 160.66L110.859 161.219C115.719 165.093 120.259 170.003 125.187 175.332C125.72 175.909 126.258 176.491 126.802 177.077L127.683 178.027L128.379 176.934C129.483 175.199 130.686 173.53 131.983 171.935Z" stroke="#A5D936" stroke-width="2"/>
<path d="M173.955 181.846L174.813 180.9L173.689 180.294C171.196 178.949 168.819 177.401 166.581 175.666L165.9 175.138L165.277 175.733C162.341 178.539 159.532 181.475 156.86 184.533C156.247 178.801 156.365 173.013 157.213 167.305L157.282 166.843L156.971 166.494C155.417 164.745 153.93 162.944 152.478 161.101L151.842 160.294L151.053 160.951C143.739 167.039 136.7 173.231 131.757 181.282L131.35 181.945L131.892 182.503C133.946 184.615 136.092 186.732 138.37 188.82L139.277 189.651L139.905 188.594C141.851 185.325 144.128 182.267 146.699 179.469C146.82 185.756 147.956 191.989 150.069 197.924L150.178 198.229L150.445 198.412C152.774 200.014 155.271 201.527 157.934 202.951L158.908 203.472L159.33 202.451C162.356 195.128 167.684 188.757 173.955 181.846Z" stroke="#A5D936" stroke-width="2"/>
<path d="M176.905 209.252L176.905 209.252L176.915 209.258C180.931 211.619 185.389 213.127 190.013 213.691C194.548 214.363 199.159 214.329 203.683 213.588C207.789 212.941 211.746 211.564 215.368 209.524L217.215 208.483L215.237 207.72C211.85 206.412 208.72 205.064 205.845 203.676L205.395 203.459L204.951 203.688C201.093 205.68 196.728 206.475 192.415 205.972L192.402 205.97L192.388 205.969C190.227 205.777 188.121 205.182 186.18 204.214L186.165 204.207L186.15 204.2C184.915 203.636 183.905 202.675 183.281 201.471C183.088 201.028 183.003 200.546 183.033 200.064C183.062 199.573 183.21 199.097 183.463 198.674L183.468 198.665L183.473 198.656C184.144 197.479 185.151 196.529 186.365 195.928L186.374 195.924L186.383 195.919C187.977 195.092 189.696 194.533 191.472 194.264L191.472 194.264L191.484 194.262C193.662 193.903 195.87 193.765 198.076 193.85L198.076 193.85L198.086 193.85C202.176 193.966 205.325 194.736 207.723 196.439L208.192 196.772L208.715 196.535C212.423 194.855 216.239 192.938 220.162 190.753L221.768 189.859L220.145 188.997C217.482 187.582 214.568 186.702 211.567 186.408C207.925 185.99 204.259 185.817 200.594 185.889C196.442 185.874 192.293 186.113 188.17 186.606C184.682 186.971 181.255 187.785 177.976 189.029C175.181 190.015 172.759 191.84 171.039 194.254L171.039 194.254L171.033 194.263C170.252 195.385 169.767 196.687 169.623 198.047C169.479 199.404 169.681 200.776 170.208 202.035C171.276 204.688 173.501 207.196 176.905 209.252Z" stroke="#A5D936" stroke-width="2"/>
<path d="M292.999 189.218V187.793L291.659 188.278C277.442 193.42 262.93 197.704 248.2 201.107C248.309 199.758 248.434 198.409 248.568 197.056C260.912 193.799 273.076 189.893 285.009 185.356L285.647 185.114L285.654 184.432C285.665 183.318 285.687 182.192 285.708 181.062C285.74 179.355 285.772 177.637 285.772 175.933V174.419L284.38 175.013C273.03 179.851 261.442 184.11 249.661 187.772C249.822 186.592 249.989 185.409 250.162 184.221C263.989 179.452 277.534 173.901 290.732 167.597L291.294 167.328L291.301 166.705C291.334 163.701 291.35 160.697 291.35 157.693V156.044L289.888 156.806C266.697 168.887 247.657 176.704 231.944 181.25L231.406 181.405L231.258 181.945C228.367 192.455 226.186 202.417 225.459 212.539L225.374 213.718L226.551 213.606C244.792 211.871 266.374 207.391 292.299 199.233L292.999 199.013V198.279V189.218Z" stroke="#A5D936" stroke-width="2"/>
<path d="M5.37751 246.799C8.63126 245.473 11.7494 243.836 14.6886 241.91C18.4085 239.611 22.0018 237.112 25.4533 234.427C29.311 231.49 32.8512 228.158 36.0161 224.486L36.018 224.484C38.7147 221.336 41.0173 217.872 42.8745 214.167C44.4498 211.069 45.577 207.763 46.2223 204.347L46.2236 204.341L46.2248 204.334C46.533 202.566 46.6481 201.05 46.5166 199.823C46.3863 198.608 45.9954 197.522 45.1371 196.83C43.6247 195.61 41.6451 195.603 39.4521 196.39L39.4375 196.396L39.423 196.401C36.462 197.57 33.6206 199.022 30.9388 200.737C27.7329 202.682 25.3583 204.118 23.8921 204.832C23.6112 204.969 23.3853 205.059 23.2091 205.113C23.3372 204.266 23.9758 202.988 25.3509 201.252C27.2539 198.998 29.4078 196.968 31.7704 195.201L31.778 195.195L31.7856 195.19C36.2998 191.678 40.4109 189.633 43.9038 189.05L44.4153 188.964L44.6402 188.497C46.5555 184.516 48.5228 180.658 50.5422 176.922L51.4761 175.194L49.5293 175.455C46.8861 175.81 44.333 176.658 42.0023 177.954C38.5295 179.751 35.2148 181.838 32.0936 184.193C26.9751 187.977 22.2265 192.237 17.9119 196.916C14.2591 200.794 11.067 205.081 8.39912 209.692L8.39391 209.701L8.38888 209.71C6.22631 213.634 5.07688 217.037 5.07593 219.813C5.06585 221.353 5.35083 222.669 6.07798 223.591C6.85527 224.577 7.99005 224.935 9.23101 224.83L9.25395 224.828L9.27678 224.825C11.8858 224.481 14.3839 223.555 16.5862 222.116C19.1276 220.608 22.1695 218.654 25.5748 216.466L25.8575 216.285L25.8688 216.278L25.8799 216.27C27.8954 214.898 30.0518 213.745 32.3125 212.831C32.4484 212.788 32.5524 212.765 32.6285 212.754C32.6343 212.856 32.6296 213.004 32.6003 213.21C32.4419 214.318 31.861 215.568 30.6667 217.057C29.472 218.546 27.7065 220.221 25.2652 222.174L25.2651 222.174L25.2578 222.18C22.7363 224.236 20.0674 226.105 17.2726 227.771L17.2651 227.776L17.2577 227.78C14.8346 229.282 12.289 230.578 9.64807 231.652L9.24887 231.814L9.09277 232.216C7.35283 236.693 5.67256 241.15 4.06154 245.528L3.27874 247.655L5.37751 246.799Z" fill="#A5D936" stroke="#A5D936" stroke-width="2"/>
<path d="M57.3109 210.405L57.3285 210.415L57.3464 210.424C60.201 211.865 63.5099 212.119 66.5504 211.129C69.5677 210.265 72.33 208.681 74.5996 206.514L74.6044 206.509C77.1403 204.054 79.2594 201.203 80.8787 198.067L81.0948 197.648L80.9097 197.215C79.6953 194.372 78.5473 191.701 77.4281 189.195L76.6615 187.479L75.6666 189.074C73.111 193.17 70.697 195.426 68.2913 196.091L68.2519 196.102L68.2135 196.116C67.685 196.31 67.119 196.38 66.5591 196.321C66.0152 196.264 65.4911 196.086 65.025 195.8C64.5415 195.417 64.1409 194.94 63.8477 194.397C63.5466 193.839 63.3652 193.225 63.3154 192.594L63.3135 192.571L63.3106 192.547C63.0392 190.402 63.1973 188.224 63.7757 186.14L63.7807 186.122L63.785 186.104C64.3813 183.596 65.3426 181.19 66.6383 178.963L66.6383 178.963L66.6429 178.954C67.7954 176.93 69.2676 175.104 71.0025 173.549L71.0113 173.541L71.0199 173.533C72.3209 172.31 73.9016 171.423 75.6238 170.951C76.8315 170.675 77.6042 170.856 78.1425 171.268C78.7225 171.711 79.2339 172.575 79.5667 174.077L79.97 175.897L81.2632 174.554C83.6456 172.081 86.0014 169.85 88.3304 167.859L88.7424 167.507L88.6723 166.97C88.3258 164.314 87.3873 162.203 85.5811 160.793C83.7421 159.358 81.2655 158.987 78.2276 159.615L78.2064 159.62L78.1854 159.625C74.1699 160.639 70.4593 162.609 67.3699 165.366C63.5063 168.613 60.1881 172.458 57.5415 176.755C54.7972 181.074 52.8173 185.833 51.6882 190.824L51.6862 190.832L51.6844 190.841C50.6799 195.682 50.6531 199.779 51.7016 203.163C52.0975 204.682 52.7966 206.106 53.7569 207.348C54.7222 208.597 55.9313 209.637 57.3109 210.405Z" fill="#A5D936" stroke="#A5D936" stroke-width="2"/>
<path d="M95.2789 160.587L94.4628 160.365L94.1087 161.133C88.6061 173.062 84.4217 187.769 83.0412 206.754L82.9677 207.765L83.9798 207.825C86.4701 207.971 88.947 208.295 91.3913 208.793L92.5463 209.029L92.5904 207.851C93.2767 189.518 97.0786 175.62 102.434 164.503L102.858 163.622L101.987 163.178C99.8466 162.085 97.5984 161.217 95.2789 160.587Z" fill="#A5D936" stroke="#A5D936" stroke-width="2"/>
<path d="M120.558 209.349L120.535 208.816L120.079 208.538C115.623 205.829 111.389 203.315 107.244 201.152C107.355 199.156 107.52 197.228 107.74 195.368C110.765 197.223 113.852 199.308 117.075 201.539L118.524 202.542L118.642 200.784C118.813 198.233 119.137 195.696 119.613 193.185L119.726 192.59L119.252 192.215C115.967 189.609 112.803 187.138 109.665 184.928C110.025 183.575 110.41 182.262 110.819 180.99C113.832 183.38 116.885 186.048 120.107 188.865C120.31 189.042 120.513 189.22 120.718 189.399L121.888 190.421L122.334 188.932C122.975 186.788 123.761 184.691 124.685 182.653L124.975 182.014L124.473 181.524C124.102 181.163 123.734 180.802 123.366 180.444C118.132 175.331 113.229 170.542 108.045 166.856L107.084 166.173L106.567 167.232C101.27 178.075 97.8372 191.671 97.8372 209.699V210.43L98.5335 210.651C105.45 212.856 112.408 216.169 120.026 220.017L121.744 220.885L121.467 218.981C121.002 215.788 120.699 212.573 120.558 209.349Z" fill="#A5D936" stroke="#A5D936" stroke-width="2"/>
<path d="M157.532 207.824L157.718 207.064L157.025 206.701C153.954 205.091 150.968 203.323 148.081 201.404L146.951 200.653L146.568 201.955C145.486 205.633 144.935 209.44 144.924 213.261C141.04 206.837 138.097 199.882 136.194 192.607L136.115 192.305L135.878 192.102C133.927 190.426 132.062 188.728 130.252 187.036L129.207 186.06L128.649 187.377C124.803 196.442 123.544 207.696 126.485 222.859L126.578 223.335L127.009 223.557C129.778 224.981 132.652 226.431 135.631 227.907L137.624 228.894L137.04 226.749C135.686 221.768 134.906 216.654 134.712 211.506C139.055 219.826 144.364 227.61 150.534 234.695L150.684 234.867L150.894 234.957C153.73 236.177 156.716 237.387 159.821 238.557L161.919 239.348L161.106 237.259C156.309 224.943 155.62 215.653 157.532 207.824Z" fill="#A5D936" stroke="#A5D936" stroke-width="2"/>
<path d="M168.763 234.603L168.763 234.603L168.769 234.609C172.055 238.263 175.935 241.336 180.245 243.699C185.03 246.339 190.206 248.197 195.577 249.203C199.897 250.116 204.336 250.318 208.72 249.798C212.189 249.419 215.509 248.18 218.377 246.192L219.789 245.213L218.241 244.469C213.929 242.395 209.805 240.306 205.87 238.201L205.355 237.925L204.861 238.239C202.067 240.017 198.398 240.595 193.63 239.689C190.991 239.186 188.439 238.3 186.056 237.06L186.056 237.06L186.047 237.056C183.996 236.015 182.142 234.626 180.568 232.95L180.559 232.94L180.55 232.931C179.356 231.723 178.524 230.204 178.149 228.547L178.145 228.529L178.14 228.512C178.01 228.022 178.014 227.507 178.151 227.02C178.284 226.549 178.535 226.122 178.882 225.778C180.01 224.936 181.378 224.477 182.787 224.468L182.809 224.468L182.831 224.466C185.194 224.347 187.563 224.516 189.884 224.972L189.902 224.976L189.921 224.979C194.522 225.704 198.925 227.365 202.859 229.859L203.275 230.123L203.738 229.954C207.063 228.737 210.587 227.401 214.31 225.906L216.25 225.127L214.427 224.105C210.854 222.104 207.041 220.567 203.079 219.531C198.653 218.329 194.163 217.376 189.63 216.678C185.07 215.846 180.447 215.403 175.812 215.351L175.798 215.351L175.783 215.352C171.917 215.421 168.75 215.976 166.487 217.495C165.335 218.268 164.475 219.264 163.975 220.513C163.479 221.752 163.366 223.17 163.586 224.75C164.027 227.925 165.815 231.27 168.763 234.603Z" fill="#A5D936" stroke="#A5D936" stroke-width="2"/>
<path d="M293 240.543V239.385L291.854 239.554C277.989 241.601 264.023 242.898 250.019 243.44C249.75 241.962 249.508 240.489 249.287 239.023C260.244 238.386 272.108 237.117 284.985 235.126L285.851 234.992L285.832 234.117C285.773 231.275 285.717 228.443 285.665 225.621L285.643 224.434L284.477 224.657C272.47 226.952 260.357 228.647 248.181 229.738C248.069 228.479 247.977 227.226 247.899 225.973C262.208 224.33 276.412 221.868 290.44 218.599L291.213 218.419V217.625V217.607V217.59V217.572V217.554V217.537V217.519V217.502V217.484V217.467V217.449V217.431V217.414V217.396V217.379V217.361V217.343V217.326V217.308V217.291V217.273V217.255V217.238V217.22V217.203V217.185V217.167V217.15V217.132V217.115V217.097V217.079V217.062V217.044V217.027V217.009V216.991V216.974V216.956V216.939V216.921V216.903V216.886V216.868V216.851V216.833V216.815V216.798V216.78V216.763V216.745V216.727V216.71V216.692V216.675V216.657V216.639V216.622V216.604V216.586V216.569V216.551V216.534V216.516V216.498V216.481V216.463V216.446V216.428V216.41V216.393V216.375V216.357V216.34V216.322V216.305V216.287V216.269V216.252V216.234V216.217V216.199V216.181V216.164V216.146V216.128V216.111V216.093V216.076V216.058V216.04V216.023V216.005V215.987V215.97V215.952V215.935V215.917V215.899V215.882V215.864V215.846V215.829V215.811V215.794V215.776V215.758V215.741V215.723V215.705V215.688V215.67V215.652V215.635V215.617V215.6V215.582V215.564V215.547V215.529V215.511V215.494V215.476V215.459V215.441V215.423V215.406V215.388V215.37V215.353V215.335V215.317V215.3V215.282V215.265V215.247V215.229V215.212V215.194V215.176V215.159V215.141V215.124V215.106V215.088V215.071V215.053V215.035V215.018V215V214.982V214.965V214.947V214.93V214.912V214.894V214.877V214.859V214.841V214.824V214.806V214.789V214.771V214.753V214.736V214.718V214.7V214.683V214.665V214.647V214.63V214.612V214.595V214.577V214.559V214.542V214.524V214.506V214.489V214.471V214.453V214.436V214.418V214.401V214.383V214.365V214.348V214.33V214.312V214.295V214.277V214.26V214.242V214.224V214.207V214.189V214.171V214.154V214.136V214.119V214.101V214.083V214.066V214.048V214.03V214.013V213.995V213.977V213.96V213.942V213.925V213.907V213.889V213.872V213.854V213.836V213.819V213.801V213.784V213.766V213.748V213.731V213.713V213.695V213.678V213.66V213.643V213.625V213.607V213.59V213.572V213.555V213.537V213.519V213.502V213.484V213.466V213.449V213.431V213.414V213.396V213.378V213.361V213.343V213.325V213.308V213.29V213.273V213.255V213.237V213.22V213.202V213.185V213.167V213.149V213.132V213.114V213.097V213.079V213.061V213.044V213.026V213.008V212.991V212.973V212.956V212.938V212.92V212.903V212.885V212.868V212.85V212.832V212.815V212.797V212.78V212.762V212.744V212.727V212.709V212.692V212.674V212.656V212.639V212.621V212.604V212.586V212.568V212.551V212.533V212.516V212.498V212.48V212.463V212.445V212.428V212.41V212.393V212.375V212.357V212.34V212.322V212.305V212.287V212.269V212.252V212.234V212.217V212.199V212.182V212.164V212.146V212.129V212.111V212.094V212.076V212.058V212.041V212.023V212.006V211.988V211.971V211.953V211.935V211.918V211.9V211.883V211.865V211.848V211.83V211.813V211.795V211.777V211.76V211.742V211.725V211.707V211.69V211.672V211.654V211.637V211.619V211.602V211.584V211.567V211.549V211.532V211.514V211.496V211.479V211.461V211.444V211.426V211.409V211.391V211.374V211.356V211.339V211.321V211.303V211.286V211.268V211.251V211.233V211.216V211.198V211.181V211.163V211.146V211.128V211.111V211.093V211.076V211.058V211.04V211.023V211.005V210.988V210.97V210.953V210.935V210.918V210.9V210.883V210.865V210.848V210.83V210.813V210.795V210.778V210.76V210.743V210.725V210.708V210.69V210.673V210.655V210.638V210.62V210.603V210.585V210.568V210.55V210.533V210.515V210.498V210.48V210.463V210.445V210.428V210.41V210.393V210.375V210.358V210.34V210.323V210.305V210.288V210.27V210.253V210.235V210.218V210.2V210.183V210.165V210.148V210.131V210.113V210.096V210.078V210.061V210.043V210.026V210.008V209.991V209.973V209.956V209.938V209.921V209.904V209.886V209.869V209.851V209.834V209.816V209.799V209.781V209.764V209.747V209.729V209.712V209.694V209.677V209.659V209.642V209.624V209.607V209.59V209.572V209.555V209.537V209.52V209.502V209.485V209.468V209.45V209.433V209.415V209.398V209.381V209.363V209.346V209.328V209.311V209.293V209.276V209.259V209.241V209.224V209.206V209.189V209.172V209.154V209.137V209.119V209.102V209.085V209.067V209.05V209.033V209.015V208.998V208.98V208.963V208.946V208.928V208.911V208.893V208.876V208.859V208.841V208.824V208.807V208.789V208.772V208.755V208.737V208.72V208.702V208.685V208.668V208.65V208.633V207.331L289.955 207.667C264.95 214.335 243.95 217.766 226.132 218.818L225.188 218.873L225.191 219.819C225.228 230.861 227.105 241.819 230.746 252.244L230.969 252.884L231.647 252.913C251.834 253.784 272.058 253.01 292.119 250.597L293 250.491V249.604V240.543Z" fill="#A5D936" stroke="#A5D936" stroke-width="2"/>
<path d="M4.0789 296.809L3.72193 297.653L4.53241 298.082C7.03968 299.408 9.68585 300.454 12.4227 301.199C15.6715 302.194 19.0427 302.732 22.4397 302.797C26.2416 302.982 29.9882 301.828 33.0274 299.536L33.0468 299.522L33.0655 299.506C35.9677 297.088 38.0902 293.867 39.1667 290.246C40.4186 286.271 40.9971 282.114 40.8785 277.948C40.7886 273.006 40.0872 269.206 38.5781 266.757C37.1167 264.386 35.2934 262.917 33.034 262.517L33.0141 262.513L32.9941 262.51C30.427 262.162 27.8177 262.296 25.2996 262.904L25.2996 262.904L25.2902 262.907C23.4287 263.376 21.5326 263.696 19.6203 263.863C19.1971 263.857 19.0858 263.748 19.056 263.715C19.0043 263.657 18.8901 263.466 18.8837 262.936C19.0245 261.559 19.5582 260.252 20.422 259.17L20.4266 259.165L20.4311 259.159C21.7655 257.436 23.4123 255.98 25.2855 254.866L25.2947 254.86L25.3038 254.854C28.7923 252.677 31.9955 252.057 35.0744 253.215L36.0993 253.6L36.3904 252.545C37.7113 247.755 39.0751 243.014 40.4814 238.323L40.7602 237.393L39.839 237.087C37.6157 236.348 35.2036 236.412 33.0228 237.267C30.1502 238.288 27.4484 239.737 25.0092 241.565C21.01 244.477 17.3961 247.885 14.2538 251.706C11.4746 254.962 9.11084 258.551 7.21686 262.39C5.75763 265.219 4.92999 268.331 4.79079 271.512L4.78991 271.532L4.78984 271.552C4.77943 274.634 5.61775 276.845 7.58965 278.046L7.58961 278.046L7.6005 278.052C9.40231 279.118 11.4769 279.633 13.568 279.533C15.6793 279.473 18.2602 279.273 21.2783 279.037L21.2967 279.036L21.3149 279.034C23.1553 278.821 25.0192 278.974 26.8005 279.481C27.1683 279.632 27.4277 279.87 27.6123 280.219C27.8151 280.602 27.9503 281.166 27.9503 281.969C27.9503 283.487 27.4924 284.63 26.6217 285.501C25.7263 286.396 24.3026 287.094 22.2118 287.512C19.9834 287.943 17.6982 287.993 15.4528 287.661L15.4411 287.66L15.4294 287.658C13.3171 287.397 11.2395 286.907 9.23293 286.198L8.2975 285.867L7.95938 286.8C6.64982 290.413 5.36308 293.771 4.0789 296.809Z" stroke="#A5D936" stroke-width="2"/>
<path d="M56.708 296.725L56.7154 296.732L56.7229 296.739C60.619 300.543 65.0582 302.765 69.7413 302.778C71.7115 302.816 73.6629 302.388 75.4369 301.53C77.2086 300.673 78.7533 299.412 79.9462 297.847C82.5653 294.624 84.2031 290.05 85.0843 284.484L85.1455 284.097L84.9278 283.772C81.7257 278.985 78.7892 274.413 76.0587 270.057L74.7821 268.021L74.2375 270.362C73.4766 273.632 72.4937 276.048 71.3334 277.652C70.1936 279.227 68.9261 279.969 67.5272 280.062C66.5862 280.099 65.6488 279.926 64.7834 279.554C63.9145 279.181 63.1406 278.618 62.5187 277.906L62.5098 277.896L62.5007 277.886C60.6161 275.841 59.2331 273.386 58.4612 270.715L58.4585 270.706L58.4557 270.697C57.369 267.192 56.7988 263.548 56.7629 259.879L56.7628 259.867L56.7624 259.856C56.6408 256.224 57.0071 252.592 57.8513 249.057L57.8514 249.057L57.8542 249.044C58.4631 246.344 59.5717 243.782 61.1228 241.489L61.1319 241.475L61.1406 241.461C62.1109 239.921 63.6133 238.792 65.3618 238.287C66.5097 238.053 67.5491 238.335 68.6166 239.295C69.7442 240.31 70.8793 242.07 72.0443 244.734L72.9704 246.852L73.8799 244.727C75.6656 240.555 77.4093 236.546 79.1517 232.738L79.3295 232.349L79.1714 231.952C77.5295 227.828 75.667 224.764 73.3166 222.83C72.1766 221.858 70.8096 221.19 69.3426 220.887C67.8796 220.586 66.3645 220.657 64.9365 221.095C61.375 222.034 58.023 224.642 54.9917 228.561L54.9916 228.561L54.9835 228.572C51.6292 233.033 49.06 238.033 47.3865 243.358C45.3625 249.58 44.3466 256.085 44.3772 262.628C44.2756 269.227 45.365 275.791 47.5931 282.005C49.5003 287.527 52.614 292.556 56.708 296.725Z" stroke="#A5D936" stroke-width="2"/>
<path d="M83.6588 220.109L82.6287 220.083L82.633 221.113C82.7223 242.264 85.995 268.067 93.897 300.073L94.0847 300.834H94.8678H106.497H107.838L107.456 299.549C97.9847 267.683 93.5817 242.291 92.6878 221.737L92.6517 220.906L91.8287 220.79C89.1206 220.407 86.3929 220.18 83.6588 220.109Z" stroke="#A5D936" stroke-width="2"/>
<path d="M142.833 281.649L142.587 281.13L142.015 281.081C135.51 280.521 129.054 280.065 122.647 279.713C121.09 275.327 119.656 271.101 118.346 267.035C123.08 267.572 127.854 268.212 132.71 268.932L134.448 269.19L133.782 267.564C131.681 262.431 129.814 257.57 128.181 252.98L127.997 252.464L127.463 252.341C122.636 251.234 117.911 250.234 113.238 249.402C112.425 246.246 111.702 243.199 111.062 240.245C115.734 241.379 120.49 242.724 125.399 244.215L127.212 244.765L126.643 242.958C125.278 238.617 124.149 234.514 123.227 230.639L123.109 230.144L122.639 229.948C115.19 226.843 107.525 224.285 99.7055 222.292L98.3403 221.944L98.4623 223.347C100.219 243.561 105.822 268.558 116.877 300.193L117.111 300.861L117.818 300.864C128.821 300.896 139.837 300.952 150.867 301.031L152.528 301.043L151.761 299.57C148.495 293.295 145.519 287.322 142.833 281.649Z" stroke="#A5D936" stroke-width="2"/>
<path d="M165.265 246.604L165.078 246.227L164.678 246.097C160.93 244.878 157.338 243.618 153.87 242.357L151.63 241.543L152.619 243.712C155.865 250.83 159.478 257.772 163.443 264.512C154.489 255.851 146.203 246.521 138.657 236.602L138.492 236.385L138.239 236.281L130.618 233.172L128.696 232.388L129.28 234.38C134.307 251.501 143.934 272.986 159.819 300.599L160.105 301.096L160.678 301.1L172.121 301.189L173.964 301.203L172.971 299.65C165.802 288.438 159.803 278.339 154.841 269.167C165.82 280.514 177.478 291.186 189.753 301.124L190.025 301.344L190.374 301.347L200.029 301.426L202.105 301.443L200.824 299.809C183.478 277.684 172.132 260.463 165.265 246.604Z" stroke="#A5D936" stroke-width="2"/>
<path d="M217.677 298.827L217.686 298.831L217.694 298.835C223.421 301.493 228.551 302.767 233.04 302.778H233.042C236.985 302.778 239.909 301.877 241.951 300.105L241.96 300.097L241.969 300.088C242.958 299.186 243.754 298.091 244.307 296.872C244.86 295.652 245.16 294.333 245.188 292.994L245.2 292.399L244.683 292.105C242.314 290.754 239.91 289.392 237.492 288.022C235.257 286.756 233.011 285.483 230.773 284.208L229.517 283.493L229.29 284.921C229.061 286.368 228.525 287.322 227.719 287.909C226.899 288.507 225.633 288.846 223.698 288.71C221.074 288.455 218.52 287.714 216.167 286.524L216.167 286.524L216.156 286.519C213.226 285.083 210.487 283.285 208.003 281.168L208.003 281.168L207.994 281.16C205.435 279.03 203.144 276.598 201.172 273.916C199.284 271.318 198.366 269.33 198.199 267.896L198.193 267.842L198.18 267.789C198.075 267.328 198.139 266.845 198.361 266.429C198.584 266.012 198.949 265.69 199.39 265.52L199.41 265.513L199.43 265.504C200.562 265.013 202.397 264.929 205.093 265.374C210.389 266.414 215.412 268.539 219.845 271.617L220.532 272.093L221.123 271.502C222.985 269.639 224.997 267.931 227.139 266.396L228.346 265.531L227.09 264.738C222.911 262.1 218.457 259.927 213.806 258.258C209.147 256.548 204.352 255.232 199.471 254.326L199.47 254.325C194.039 253.325 189.69 253.066 186.524 253.94C184.929 254.38 183.608 255.107 182.7 256.228C181.782 257.36 181.374 258.786 181.407 260.451C181.473 263.733 183.31 267.908 186.85 272.967L186.855 272.975L186.86 272.982C194.862 283.989 205.444 292.864 217.677 298.827Z" stroke="#A5D936" stroke-width="2"/>
<path d="M292.998 291.868V290.861L291.991 290.868C282.998 290.932 274.278 290.849 265.832 290.619C264.954 288.779 264.112 286.956 263.306 285.151C270.985 285.387 278.977 285.455 287.281 285.357L288.349 285.344L288.266 284.28C288.043 281.395 287.839 278.515 287.655 275.637L287.593 274.673L286.627 274.701C276.912 274.989 267.712 274.978 258.956 274.721C258.373 273.212 257.814 271.714 257.281 270.228C267.7 270.438 278.808 270.265 290.68 269.612L291.638 269.56L291.626 268.601C291.614 267.694 291.599 266.785 291.585 265.879C291.551 263.765 291.517 261.659 291.517 259.593V258.505L290.433 258.596C271.971 260.155 253.421 260.395 234.925 259.315L233.327 259.221L233.944 260.699C239.014 272.834 246.557 286.163 257.248 301.414L257.545 301.837L258.061 301.84C269.318 301.899 280.63 301.929 291.998 301.929H292.998V300.929V291.868Z" stroke="#A5D936" stroke-width="2"/>
</svg>
