<svg width="517" height="106" viewBox="0 0 517 106" fill="none" xmlns="http://www.w3.org/2000/svg">
<path d="M21.4764 21.4199V21.0438L21.115 20.9395C19.1465 20.3717 17.1756 19.742 15.2022 19.0504L14.5368 18.8171V19.5222V26.7024C12.1725 25.8517 9.80682 24.9036 7.43984 23.8581L7.43984 16.2894V15.9646L7.14302 15.8326C5.17359 14.9567 3.20323 14.0082 1.23191 12.9872L0.501953 12.6091V13.4312L0.501953 34.4244V34.7295L0.773273 34.869C2.75974 35.8907 4.74706 36.8473 6.73525 37.7388L7.43984 38.0548V37.2826V29.8621C9.80506 30.8939 12.1707 31.8321 14.5368 32.6766V40.5104V40.8645L14.8708 40.9821C16.8595 41.6821 18.8485 42.3193 20.8377 42.8935L21.4764 43.0779V42.4132V21.4199Z" stroke="#A5D936"/>
<path d="M29.5388 45.0261L29.9346 45.1061L30.0961 44.736C30.5885 43.6077 31.085 42.4758 31.5856 41.3403C34.3259 41.8386 37.0668 42.238 39.8083 42.5383C40.3186 43.8622 40.8324 45.1828 41.3495 46.4999L41.4621 46.7867L41.7688 46.8151C43.8368 47.0067 45.9043 47.1466 47.9713 47.2346L48.7697 47.2686L48.4511 46.5357C45.3534 39.4105 42.2551 32.1649 39.1562 24.7989L39.0435 24.531L38.755 24.4963C36.8145 24.2632 34.8733 23.9808 32.9315 23.6492L32.5589 23.5856L32.3961 23.9267C29.3088 30.3953 26.221 36.7223 23.1327 42.9077L22.8576 43.4588L23.4535 43.6148C25.4812 44.1454 27.5096 44.6158 29.5388 45.0261ZM33.7389 36.3209C34.3926 34.8048 35.0463 33.2825 35.7 31.7541C36.3544 33.4753 37.0085 35.1907 37.6623 36.9002C36.3548 36.7295 35.047 36.5364 33.7389 36.3209Z" stroke="#A5D936"/>
<path d="M71.095 25.1463L71.5114 24.3242L70.5952 24.4233C68.6721 24.6313 66.7497 24.8056 64.8278 24.9461L64.5395 24.9672L64.4139 25.2276C62.8735 28.4217 61.3336 31.5927 59.7941 34.7407C58.3143 31.731 56.835 28.6985 55.3562 25.6431L55.2183 25.3583L54.9019 25.361C52.8209 25.3787 50.7394 25.3488 48.6572 25.2714L47.7914 25.2392L48.1968 26.005C50.8689 31.0528 53.5401 36.0247 56.2102 40.9205C55.9592 41.2569 55.6487 41.5455 55.2934 41.7717C54.9055 41.9936 54.4651 42.1074 54.0182 42.1011C53.3541 42.0815 52.6964 41.9649 52.0659 41.7552L51.5877 41.5962L51.4324 42.0756C50.9619 43.5283 50.4919 44.9788 50.0225 46.427L49.8799 46.8668L50.3073 47.0433C51.6737 47.6076 52.9786 47.8985 54.217 47.8985L54.2182 47.8985C55.8918 47.8945 57.5212 47.3608 58.8729 46.3739C60.2783 45.3694 61.4499 43.9324 62.3985 42.0881C65.2957 36.5202 68.1946 30.8729 71.095 25.1463Z" stroke="#A5D936"/>
<path d="M79.5661 31.4052V23.8301V23.2489L78.9915 23.3357C77.0265 23.6324 75.0621 23.8992 73.0983 24.1361L72.6582 24.1892V24.6325V45.6274V46.1916L73.2184 46.1237C75.1919 45.8846 77.1659 45.6165 79.1405 45.3194L79.5661 45.2554V44.825V37.2167C80.2191 37.1179 80.8719 37.0159 81.5243 36.9106C83.0529 39.2415 84.5841 41.5571 86.1178 43.8572L86.3003 44.1308L86.6237 44.0717C88.8559 43.6637 91.0886 43.2296 93.3218 42.7694L94.066 42.616L93.6307 41.9932C91.4826 38.9201 89.3339 35.819 87.1847 32.6901C89.322 28.9993 91.4588 25.2852 93.595 21.5479L94.1448 20.5861L93.0598 20.8101C90.9837 21.2389 88.9082 21.6432 86.8333 22.0232L86.6007 22.0658L86.4861 22.2726C84.851 25.2221 83.2206 28.1599 81.5951 31.0861C80.9185 31.1953 80.2422 31.3017 79.5661 31.4052Z" stroke="#A5D936"/>
<path d="M101.094 41.0897L101.359 41.0294L101.453 40.7744C101.967 39.373 102.485 37.9717 103.008 36.5703C105.748 35.93 108.487 35.2702 111.225 34.591C111.718 35.6848 112.211 36.7782 112.703 37.8711L112.875 38.2526L113.28 38.1507C115.341 37.6333 117.401 37.1099 119.461 36.5803L120.06 36.4261L119.783 35.8724C116.685 29.6768 113.586 23.4624 110.487 17.229L110.308 16.8701L109.919 16.9663C107.972 17.4475 106.025 17.9176 104.076 18.3766L103.823 18.4363L103.727 18.6778C100.638 26.4069 97.5496 34.0965 94.4602 41.7468L94.1086 42.6175L95.0273 42.4232C97.0497 41.9954 99.072 41.5509 101.094 41.0897ZM107.116 25.3253C107.766 26.786 108.416 28.2463 109.066 29.7064C107.764 30.0264 106.463 30.3426 105.161 30.655L107.116 25.3253Z" stroke="#A5D936"/>
<path d="M152.734 6.89697V6.27211L152.125 6.40914C150.143 6.85462 148.162 7.31287 146.181 7.78389L145.797 7.87529V8.27033V15.7632C143.43 16.3306 141.064 16.9099 138.7 17.5012V10.2546V9.61278L138.077 9.76985C136.098 10.2694 134.118 10.7728 132.138 11.2801L131.762 11.3764V11.7645V32.7577V33.4024L132.386 33.242C134.364 32.7339 136.343 32.2308 138.322 31.7327L138.7 31.6376V31.2478V23.4504C141.065 22.8539 143.431 22.2736 145.797 21.7096V29.2636V29.8967L146.412 29.7499C148.389 29.2788 150.366 28.8215 152.344 28.3781L152.734 28.2905V27.8902V6.89697Z" stroke="#A5D936"/>
<path d="M160.99 26.5512L161.265 26.4972L161.362 26.2346C161.875 24.8546 162.391 23.4762 162.912 22.0992C165.646 21.5753 168.38 21.0993 171.115 20.6714L172.612 24.1443L172.764 24.4975L173.144 24.4411C175.198 24.1367 177.252 23.8649 179.306 23.6258L179.995 23.5456L179.701 22.9175C176.602 16.2831 173.503 9.71752 170.402 3.2207L170.241 2.88265L169.871 2.94245C167.919 3.25826 165.965 3.59795 164.012 3.96157L163.743 4.01152L163.64 4.2643C160.55 11.8404 157.461 19.4625 154.372 27.1306L154.019 28.0075L154.943 27.806C156.958 27.3661 158.974 26.9478 160.99 26.5512ZM168.97 15.6248C167.667 15.8411 166.364 16.0675 165.06 16.3041C165.712 14.5635 166.363 12.8249 167.014 11.0884C167.666 12.5976 168.318 14.1098 168.97 15.6248Z" stroke="#A5D936"/>
<path d="M202.35 1.29906L202.738 0.584226L201.925 0.560358C199.989 0.503557 198.053 0.486842 196.116 0.510231L195.811 0.513923L195.675 0.787816C194.134 3.89024 192.593 7.01572 191.053 10.1643C189.572 7.16918 188.092 4.19467 186.613 1.24074L186.462 0.940143L186.127 0.966145C184.033 1.12863 181.938 1.32841 179.842 1.56545L179.085 1.6511L179.465 2.31163C182.134 6.95125 184.803 11.6551 187.47 16.4231C187.213 16.7807 186.896 17.0922 186.533 17.3437C186.143 17.5923 185.698 17.7396 185.237 17.7721C184.578 17.8063 183.918 17.7512 183.275 17.6083L182.826 17.5086L182.689 17.9474C182.219 19.4513 181.75 20.9574 181.28 22.4657L181.132 22.9442L181.61 23.0921C182.871 23.4815 184.193 23.6371 185.509 23.5511L185.509 23.5511L185.517 23.5505C187.19 23.4159 188.791 22.812 190.137 21.8081C191.539 20.7855 192.71 19.3531 193.657 17.5326C196.556 12.0348 199.453 6.62366 202.35 1.29906Z" stroke="#A5D936"/>
<path d="M210.826 22.5855V15.0992C211.454 15.1619 212.083 15.2311 212.711 15.3069C214.259 18.1027 215.806 20.9327 217.354 23.797L217.471 24.0134L217.713 24.0529C219.932 24.413 222.151 24.8444 224.37 25.3471L225.439 25.5891L224.921 24.6233C222.763 20.5955 220.605 16.6355 218.445 12.7431C220.57 9.81482 222.695 6.95048 224.819 4.15009L225.289 3.53096L224.531 3.36017C222.443 2.88979 220.354 2.48066 218.265 2.13284L217.951 2.08054L217.771 2.34315C216.152 4.7027 214.537 7.09794 212.927 9.52888C212.227 9.44548 211.526 9.36811 210.826 9.29675V1.5923V1.13841L210.374 1.09463C208.396 0.902985 206.419 0.758674 204.442 0.661733L203.918 0.636011V1.16113V22.1544V22.6305L204.393 22.6538C206.355 22.7499 208.317 22.893 210.278 23.0832L210.826 23.1363V22.5855Z" stroke="#A5D936"/>
<path d="M232.099 27.3954L232.516 27.523L232.699 27.1267C233.186 26.0712 233.673 25.0191 234.16 23.9706C236.897 24.8662 239.634 25.8898 242.371 27.0415C242.897 28.5639 243.422 30.0903 243.947 31.6207L244.018 31.8274L244.218 31.9157C246.268 32.8226 248.318 33.8065 250.368 34.8673L251.501 35.4535L251.068 34.2537C247.969 25.6543 244.869 17.225 241.769 8.96611L241.692 8.76072L241.488 8.67839C239.531 7.88592 237.573 7.15523 235.614 6.4863L235.207 6.34725L235.009 6.72917C231.919 12.6839 228.828 18.7844 225.737 25.0308L225.46 25.5906L226.067 25.7384C228.076 26.2277 230.087 26.78 232.099 27.3954ZM236.32 19.2678C236.968 17.8797 237.616 16.4985 238.264 15.1242C238.91 16.9764 239.556 18.8361 240.202 20.7032C238.909 20.1968 237.615 19.7183 236.32 19.2678Z" stroke="#A5D936"/>
<path d="M21.4744 50.0728V49.6966L21.113 49.5923C19.1446 49.0246 17.1736 48.3949 15.2002 47.7032L14.5348 47.47V48.175V55.3552C12.1705 54.5045 9.80487 53.5564 7.43788 52.5109L7.43788 44.9423V44.6174L7.14107 44.4854C5.17164 43.6095 3.20128 42.661 1.22996 41.64L0.5 41.2619V42.084L0.5 63.0772V63.3823L0.77132 63.5219C2.75779 64.5435 4.74511 65.5001 6.73329 66.3917L7.43788 66.7076V65.9354V58.515C9.80311 59.5467 12.1688 60.4849 14.5348 61.3294V69.1633V69.5173L14.8688 69.6349C16.8575 70.335 18.8465 70.9721 20.8358 71.5464L21.4744 71.7307V71.066V50.0728Z" stroke="#A5D936"/>
<path d="M29.5368 73.6789L29.9326 73.759L30.0942 73.3889C30.5866 72.2606 31.0831 71.1286 31.5837 69.9931C34.3239 70.4915 37.0648 70.8908 39.8063 71.1911C40.3167 72.515 40.8304 73.8356 41.3476 75.1528L41.4601 75.4395L41.7668 75.4679C43.8348 75.6596 45.9023 75.7994 47.9693 75.8874L48.7678 75.9214L48.4491 75.1885C45.3514 68.0634 42.2531 60.8178 39.1543 53.4517L39.0416 53.1838L38.753 53.1492C36.8125 52.916 34.8714 52.6336 32.9295 52.3021L32.557 52.2384L32.3942 52.5796C29.3069 59.0481 26.219 65.3751 23.1308 71.5605L22.8556 72.1116L23.4515 72.2676C25.4792 72.7982 27.5077 73.2686 29.5368 73.6789ZM33.737 64.9738C34.3907 63.4576 35.0444 61.9354 35.6981 60.407C36.3524 62.1282 37.0065 63.8435 37.6603 65.553C36.3529 65.3823 35.0451 65.1892 33.737 64.9738Z" stroke="#A5D936"/>
<path d="M71.0931 53.7992L71.5095 52.977L70.5933 53.0761C68.6702 53.2842 66.7477 53.4585 64.8258 53.599L64.5375 53.6201L64.4119 53.8804C62.8715 57.0745 61.3316 60.2455 59.7921 63.3935C58.3124 60.3839 56.8331 57.3514 55.3543 54.296L55.2164 54.0111L54.9 54.0138C52.819 54.0315 50.7374 54.0017 48.6553 53.9243L47.7894 53.8921L48.1948 54.6578C50.867 59.7056 53.5381 64.6775 56.2082 69.5734C55.9572 69.9097 55.6468 70.1984 55.2914 70.4245C54.9036 70.6465 54.4632 70.7602 54.0163 70.7539C53.3522 70.7343 52.6944 70.6178 52.0639 70.4081L51.5857 70.249L51.4305 70.7284C50.9599 72.1811 50.4899 73.6316 50.0205 75.0798L49.8779 75.5197L50.3053 75.6961C51.6718 76.2604 52.9766 76.5513 54.215 76.5513L54.2163 76.5513C55.8899 76.5473 57.5193 76.0136 58.871 75.0267C60.2764 74.0222 61.448 72.5853 62.3966 70.741C65.2938 65.173 68.1926 59.5257 71.0931 53.7992Z" stroke="#A5D936"/>
<path d="M79.5642 60.0581V52.4829V51.9018L78.9895 51.9885C77.0246 52.2852 75.0602 52.552 73.0964 52.7889L72.6562 52.842V53.2853V74.2802V74.8445L73.2164 74.7766C75.1899 74.5374 77.164 74.2693 79.1386 73.9723L79.5642 73.9082V73.4778V65.8696C80.2172 65.7707 80.8699 65.6687 81.5223 65.5634C83.051 67.8944 84.5821 70.2099 86.1159 72.51L86.2983 72.7836L86.6218 72.7245C88.8539 72.3165 91.0866 71.8824 93.3198 71.4222L94.064 71.2689L93.6287 70.6461C91.4806 67.5729 89.332 64.4719 87.1828 61.343C89.3201 57.6521 91.4568 53.9381 93.5931 50.2008L94.1428 49.2389L93.0578 49.463C90.9818 49.8917 88.9063 50.2961 86.8314 50.676L86.5988 50.7186L86.4841 50.9254C84.849 53.8749 83.2187 56.8127 81.5931 59.7389C80.9165 59.8481 80.2402 59.9545 79.5642 60.0581Z" stroke="#A5D936"/>
<path d="M101.092 69.7426L101.357 69.6822L101.451 69.4272C101.965 68.0258 102.483 66.6245 103.006 65.2231C105.746 64.5828 108.485 63.9231 111.223 63.2438C111.716 64.3377 112.209 65.431 112.701 66.524L112.873 66.9055L113.278 66.8036C115.339 66.2862 117.399 65.7627 119.459 65.2331L120.058 65.0789L119.782 64.5252C116.683 58.3296 113.584 52.1152 110.485 45.8819L110.306 45.5229L109.917 45.6191C107.97 46.1003 106.023 46.5704 104.074 47.0295L103.821 47.0891L103.725 47.3306C100.636 55.0597 97.5477 62.7493 94.4583 70.3996L94.1066 71.2704L95.0254 71.076C97.0477 70.6482 99.0701 70.2037 101.092 69.7426ZM107.114 53.9782C107.764 55.4388 108.414 56.8992 109.064 58.3592C107.762 58.6792 106.461 58.9954 105.159 59.3078L107.114 53.9782Z" stroke="#A5D936"/>
<path d="M152.738 35.5498V34.9249L152.129 35.062C150.147 35.5075 148.166 35.9657 146.185 36.4367L145.8 36.5281V36.9232V44.416C143.434 44.9834 141.068 45.5627 138.704 46.154V38.9075V38.2656L138.081 38.4227C136.102 38.9222 134.122 39.4256 132.142 39.933L131.766 40.0292V40.4173V61.4105V62.0552L132.39 61.8948C134.368 61.3867 136.346 60.8836 138.326 60.3855L138.704 60.2904V59.9007V52.1032C141.069 51.5067 143.435 50.9265 145.8 50.3624V57.9164V58.5496L146.416 58.4028C148.393 57.9316 150.37 57.4743 152.348 57.0309L152.738 56.9433V56.543V35.5498Z" stroke="#A5D936"/>
<path d="M160.988 55.204L161.263 55.15L161.361 54.8874C161.873 53.5075 162.389 52.129 162.91 50.752C165.644 50.2281 168.378 49.7522 171.113 49.3242L172.61 52.7972L172.762 53.1503L173.142 53.0939C175.196 52.7895 177.25 52.5177 179.304 52.2786L179.993 52.1984L179.699 51.5703C176.6 44.9359 173.501 38.3704 170.4 31.8735L170.239 31.5355L169.869 31.5953C167.917 31.9111 165.963 32.2508 164.01 32.6144L163.741 32.6644L163.638 32.9171C160.548 40.4932 157.459 48.1153 154.37 55.7835L154.017 56.6604L154.941 56.4588C156.956 56.0189 158.972 55.6007 160.988 55.204ZM168.968 44.2776C167.665 44.4939 166.362 44.7203 165.058 44.9569C165.71 43.2163 166.361 41.4777 167.012 39.7412C167.664 41.2505 168.316 42.7626 168.968 44.2776Z" stroke="#A5D936"/>
<path d="M202.348 29.9519L202.737 29.2371L201.923 29.2132C199.987 29.1564 198.051 29.1397 196.114 29.1631L195.809 29.1668L195.673 29.4406C194.132 32.5431 192.591 35.6686 191.051 38.8171C189.57 35.822 188.091 32.8475 186.611 29.8936L186.46 29.593L186.125 29.619C184.031 29.7815 181.936 29.9812 179.84 30.2183L179.083 30.3039L179.463 30.9645C182.133 35.6041 184.801 40.3079 187.468 45.0759C187.211 45.4335 186.894 45.7451 186.531 45.9966C186.142 46.2451 185.696 46.3924 185.235 46.4249C184.576 46.4591 183.916 46.404 183.273 46.2611L182.824 46.1615L182.687 46.6002C182.217 48.1041 181.748 49.6103 181.279 51.1186L181.13 51.597L181.608 51.7449C182.869 52.1344 184.191 52.2899 185.507 52.2039L185.507 52.204L185.515 52.2034C187.188 52.0687 188.789 51.4648 190.135 50.461C191.537 49.4383 192.708 48.0059 193.655 46.1854C196.554 40.6876 199.451 35.2765 202.348 29.9519Z" stroke="#A5D936"/>
<path d="M210.824 51.2383V43.752C211.452 43.8147 212.081 43.8839 212.709 43.9597C214.257 46.7555 215.805 49.5855 217.352 52.4498L217.469 52.6663L217.712 52.7057C219.93 53.0658 222.149 53.4972 224.368 53.9999L225.437 54.242L224.919 53.2761C222.761 49.2484 220.603 45.2883 218.443 41.396C220.569 38.4677 222.693 35.6033 224.817 32.8029L225.287 32.1838L224.529 32.013C222.441 31.5426 220.352 31.1335 218.263 30.7857L217.949 30.7334L217.769 30.996C216.15 33.3555 214.535 35.7508 212.926 38.1817C212.225 38.0983 211.524 38.0209 210.824 37.9496V30.2451V29.7912L210.372 29.7475C208.394 29.5558 206.417 29.4115 204.441 29.3146L203.916 29.2888V29.814V50.8072V51.2833L204.392 51.3066C206.353 51.4028 208.315 51.5459 210.276 51.736L210.824 51.7891V51.2383Z" stroke="#A5D936"/>
<path d="M232.097 56.0482L232.514 56.1759L232.697 55.7795C233.184 54.724 233.671 53.672 234.158 52.6234C236.895 53.5191 239.632 54.5427 242.369 55.6944C242.895 57.2167 243.421 58.7431 243.945 60.2735L244.016 60.4802L244.216 60.5686C246.266 61.4755 248.316 62.4593 250.366 63.5202L251.499 64.1063L251.066 62.9066C247.967 54.3071 244.867 45.8779 241.767 37.6189L241.69 37.4136L241.486 37.3312C239.529 36.5388 237.571 35.8081 235.612 35.1391L235.205 35.0001L235.007 35.382C231.917 41.3367 228.826 47.4372 225.735 53.6836L225.458 54.2434L226.065 54.3912C228.074 54.8805 230.085 55.4328 232.097 56.0482ZM236.318 47.9206C236.966 46.5325 237.614 45.1513 238.262 43.7771C238.908 45.6293 239.554 47.4889 240.2 49.356C238.907 48.8496 237.613 48.3711 236.318 47.9206Z" stroke="#A5D936"/>
<path d="M21.4744 78.7222V78.346L21.113 78.2418C19.1446 77.674 17.1736 77.0443 15.2002 76.3526L14.5348 76.1194V76.8245V84.0046C12.1705 83.1539 9.80487 82.2058 7.43788 81.1603L7.43788 73.5917V73.2668L7.14107 73.1348C5.17164 72.2589 3.20128 71.3104 1.22996 70.2894L0.5 69.9113V70.7334L0.5 91.7266V92.0317L0.77132 92.1713C2.75779 93.1929 4.74511 94.1495 6.73329 95.0411L7.43788 95.357V94.5849V87.1644C9.80311 88.1961 12.1688 89.1343 14.5348 89.9788V97.8127V98.1668L14.8688 98.2843C16.8575 98.9844 18.8465 99.6215 20.8358 100.196L21.4744 100.38V99.7154V78.7222Z" stroke="#A5D936"/>
<path d="M29.5368 102.328L29.9326 102.408L30.0942 102.038C30.5866 100.91 31.0831 99.7781 31.5837 98.6425C34.3239 99.1409 37.0648 99.5402 39.8063 99.8405C40.3167 101.164 40.8304 102.485 41.3476 103.802L41.4601 104.089L41.7668 104.117C43.8348 104.309 45.9023 104.449 47.9693 104.537L48.7678 104.571L48.4491 103.838C45.3514 96.7128 42.2531 89.4672 39.1543 82.1011L39.0416 81.8332L38.753 81.7986C36.8125 81.5654 34.8714 81.283 32.9295 80.9515L32.557 80.8879L32.3942 81.229C29.3069 87.6975 26.219 94.0245 23.1308 100.21L22.8556 100.761L23.4515 100.917C25.4792 101.448 27.5077 101.918 29.5368 102.328ZM33.737 93.6232C34.3907 92.1071 35.0444 90.5848 35.6981 89.0564C36.3524 90.7776 37.0065 92.4929 37.6603 94.2024C36.3529 94.0317 35.0451 93.8386 33.737 93.6232Z" stroke="#A5D936"/>
<path d="M71.0931 82.4486L71.5095 81.6264L70.5933 81.7256C68.6702 81.9336 66.7477 82.1079 64.8258 82.2484L64.5375 82.2695L64.4119 82.5299C62.8715 85.7239 61.3316 88.8949 59.7921 92.0429C58.3124 89.0333 56.8331 86.0008 55.3543 82.9454L55.2164 82.6605L54.9 82.6632C52.819 82.6809 50.7374 82.6511 48.6553 82.5737L47.7894 82.5415L48.1948 83.3073C50.867 88.3551 53.5381 93.3269 56.2082 98.2228C55.9572 98.5591 55.6468 98.8478 55.2914 99.074C54.9036 99.2959 54.4632 99.4096 54.0163 99.4033C53.3522 99.3837 52.6944 99.2672 52.0639 99.0575L51.5857 98.8985L51.4305 99.3779C50.9599 100.831 50.4899 102.281 50.0205 103.729L49.8779 104.169L50.3053 104.346C51.6718 104.91 52.9766 105.201 54.215 105.201L54.2163 105.201C55.8899 105.197 57.5193 104.663 58.871 103.676C60.2764 102.672 61.448 101.235 62.3966 99.3904C65.2938 93.8224 68.1926 88.1752 71.0931 82.4486Z" stroke="#A5D936"/>
<path d="M79.5642 88.7075V81.1323V80.5512L78.9895 80.638C77.0246 80.9346 75.0602 81.2014 73.0964 81.4383L72.6562 81.4914V81.9347V102.93V103.494L73.2164 103.426C75.1899 103.187 77.164 102.919 79.1386 102.622L79.5642 102.558V102.127V94.519C80.2172 94.4201 80.8699 94.3181 81.5223 94.2128C83.051 96.5438 84.5821 98.8593 86.1159 101.159L86.2983 101.433L86.6218 101.374C88.8539 100.966 91.0866 100.532 93.3198 100.072L94.064 99.9183L93.6287 99.2955C91.4806 96.2223 89.332 93.1213 87.1828 89.9924C89.3201 86.3016 91.4568 82.5875 93.5931 78.8502L94.1428 77.8883L93.0578 78.1124C90.9818 78.5411 88.9063 78.9455 86.8314 79.3255L86.5988 79.368L86.4841 79.5748C84.849 82.5243 83.2187 85.4621 81.5931 88.3883C80.9165 88.4975 80.2402 88.6039 79.5642 88.7075Z" stroke="#A5D936"/>
<path d="M101.092 98.392L101.357 98.3316L101.451 98.0766C101.965 96.6753 102.483 95.2739 103.006 93.8725C105.746 93.2322 108.485 92.5725 111.223 91.8933C111.716 92.9871 112.209 94.0804 112.701 95.1734L112.873 95.5549L113.278 95.453C115.339 94.9356 117.399 94.4121 119.459 93.8825L120.058 93.7283L119.782 93.1746C116.683 86.979 113.584 80.7646 110.485 74.5313L110.306 74.1723L109.917 74.2685C107.97 74.7497 106.023 75.2198 104.074 75.6789L103.821 75.7385L103.725 75.98C100.636 83.7091 97.5477 91.3987 94.4583 99.049L94.1066 99.9198L95.0254 99.7254C97.0477 99.2976 99.0701 98.8531 101.092 98.392ZM107.114 82.6276C107.764 84.0882 108.414 85.5486 109.064 87.0087C107.762 87.3286 106.461 87.6448 105.159 87.9572L107.114 82.6276Z" stroke="#A5D936"/>
<path d="M152.738 64.1992V63.5744L152.129 63.7114C150.147 64.1569 148.166 64.6151 146.185 65.0861L145.8 65.1775V65.5726V73.0654C143.434 73.6328 141.068 74.2122 138.704 74.8034V67.5569V66.915L138.081 67.0721C136.102 67.5716 134.122 68.075 132.142 68.5824L131.766 68.6787V69.0667V90.06V90.7046L132.39 90.5442C134.368 90.0362 136.346 89.5331 138.326 89.035L138.704 88.9398V88.5501V80.7527C141.069 80.1562 143.435 79.5759 145.8 79.0118V86.5658V87.199L146.416 87.0522C148.393 86.581 150.37 86.1238 152.348 85.6803L152.738 85.5928V85.1924V64.1992Z" stroke="#A5D936"/>
<path d="M160.988 83.8535L161.263 83.7994L161.361 83.5368C161.873 82.1569 162.389 80.7784 162.91 79.4014C165.644 78.8775 168.378 78.4016 171.113 77.9736L172.61 81.4466L172.762 81.7997L173.142 81.7433C175.196 81.4389 177.25 81.1671 179.304 80.928L179.993 80.8479L179.699 80.2197C176.6 73.5853 173.501 67.0198 170.4 60.5229L170.239 60.1849L169.869 60.2447C167.917 60.5605 165.963 60.9002 164.01 61.2638L163.741 61.3138L163.638 61.5665C160.548 69.1426 157.459 76.7647 154.37 84.4329L154.017 85.3098L154.941 85.1082C156.956 84.6683 158.972 84.2501 160.988 83.8535ZM168.968 72.9271C167.665 73.1433 166.362 73.3697 165.058 73.6063C165.71 71.8657 166.361 70.1272 167.012 68.3906C167.664 69.8999 168.316 71.412 168.968 72.9271Z" stroke="#A5D936"/>
<path d="M202.348 58.6013L202.737 57.8865L201.923 57.8626C199.987 57.8058 198.051 57.7891 196.114 57.8125L195.809 57.8162L195.673 58.0901C194.132 61.1925 192.591 64.318 191.051 67.4665C189.57 64.4714 188.091 61.4969 186.611 58.543L186.46 58.2424L186.125 58.2684C184.031 58.4309 181.936 58.6307 179.84 58.8677L179.083 58.9533L179.463 59.6139C182.133 64.2535 184.801 68.9573 187.468 73.7253C187.211 74.0829 186.894 74.3945 186.531 74.646C186.142 74.8946 185.696 75.0418 185.235 75.0743C184.576 75.1086 183.916 75.0535 183.273 74.9105L182.824 74.8109L182.687 75.2496C182.217 76.7535 181.748 78.2597 181.279 79.768L181.13 80.2464L181.608 80.3943C182.869 80.7838 184.191 80.9393 185.507 80.8533L185.507 80.8534L185.515 80.8528C187.188 80.7181 188.789 80.1142 190.135 79.1104C191.537 78.0878 192.708 76.6554 193.655 74.8348C196.554 69.3371 199.451 63.9259 202.348 58.6013Z" stroke="#A5D936"/>
<path d="M210.824 79.8877V72.4014C211.452 72.4641 212.081 72.5333 212.709 72.6091C214.257 75.4049 215.805 78.2349 217.352 81.0992L217.469 81.3157L217.712 81.3551C219.93 81.7152 222.149 82.1466 224.368 82.6494L225.437 82.8914L224.919 81.9256C222.761 77.8978 220.603 73.9377 218.443 70.0454C220.569 67.1171 222.693 64.2527 224.817 61.4523L225.287 60.8332L224.529 60.6624C222.441 60.192 220.352 59.7829 218.263 59.4351L217.949 59.3828L217.769 59.6454C216.15 62.0049 214.535 64.4002 212.926 66.8311C212.225 66.7477 211.524 66.6704 210.824 66.599V58.8945V58.4407L210.372 58.3969C208.394 58.2052 206.417 58.0609 204.441 57.964L203.916 57.9383V58.4634V79.4566V79.9327L204.392 79.956C206.353 80.0522 208.315 80.1953 210.276 80.3854L210.824 80.4386V79.8877Z" stroke="#A5D936"/>
<path d="M232.097 84.6976L232.514 84.8253L232.697 84.4289C233.184 83.3734 233.671 82.3214 234.158 81.2728C236.895 82.1685 239.632 83.1921 242.369 84.3438C242.895 85.8661 243.421 87.3925 243.945 88.923L244.016 89.1296L244.216 89.218C246.266 90.1249 248.316 91.1087 250.366 92.1696L251.499 92.7557L251.066 91.556C247.967 82.9565 244.867 74.5273 241.767 66.2684L241.69 66.063L241.486 65.9806C239.529 65.1882 237.571 64.4575 235.612 63.7885L235.205 63.6495L235.007 64.0314C231.917 69.9861 228.826 76.0867 225.735 82.3331L225.458 82.8928L226.065 83.0406C228.074 83.5299 230.085 84.0822 232.097 84.6976ZM236.318 76.57C236.966 75.1819 237.614 73.8007 238.262 72.4265C238.908 74.2787 239.554 76.1383 240.2 78.0054C238.907 77.499 237.613 77.0205 236.318 76.57Z" stroke="#A5D936"/>
<path d="M285.476 21.4199V21.0438L285.115 20.9395C283.147 20.3717 281.176 19.742 279.202 19.0504L278.537 18.8171V19.5222V26.7024C276.172 25.8517 273.807 24.9036 271.44 23.8581V16.2894V15.9646L271.143 15.8326C269.174 14.9567 267.203 14.0082 265.232 12.9872L264.502 12.6091V13.4312V34.4244V34.7295L264.773 34.869C266.76 35.8907 268.747 36.8473 270.735 37.7388L271.44 38.0548V37.2826V29.8621C273.805 30.8939 276.171 31.8321 278.537 32.6766V40.5104V40.8645L278.871 40.9821C280.859 41.6821 282.848 42.3193 284.838 42.8935L285.476 43.0779V42.4132V21.4199Z" stroke="#A5D936"/>
<path d="M293.539 45.0261L293.935 45.1061L294.096 44.736C294.589 43.6077 295.085 42.4758 295.586 41.3403C298.326 41.8386 301.067 42.238 303.808 42.5383C304.319 43.8622 304.832 45.1828 305.35 46.4999L305.462 46.7867L305.769 46.8151C307.837 47.0067 309.904 47.1466 311.971 47.2346L312.77 47.2686L312.451 46.5357C309.353 39.4105 306.255 32.1649 303.156 24.7989L303.044 24.531L302.755 24.4963C300.814 24.2632 298.873 23.9808 296.932 23.6492L296.559 23.5856L296.396 23.9267C293.309 30.3953 290.221 36.7223 287.133 42.9077L286.858 43.4588L287.453 43.6148C289.481 44.1454 291.51 44.6158 293.539 45.0261ZM297.739 36.3209C298.393 34.8048 299.046 33.2825 299.7 31.7541C300.354 33.4753 301.008 35.1907 301.662 36.9002C300.355 36.7295 299.047 36.5364 297.739 36.3209Z" stroke="#A5D936"/>
<path d="M335.095 25.1463L335.511 24.3242L334.595 24.4233C332.672 24.6313 330.75 24.8056 328.828 24.9461L328.539 24.9672L328.414 25.2276C326.873 28.4217 325.334 31.5927 323.794 34.7407C322.314 31.731 320.835 28.6985 319.356 25.6431L319.218 25.3583L318.902 25.361C316.821 25.3787 314.739 25.3488 312.657 25.2714L311.791 25.2392L312.197 26.005C314.869 31.0528 317.54 36.0247 320.21 40.9205C319.959 41.2569 319.649 41.5455 319.293 41.7717C318.906 41.9936 318.465 42.1074 318.018 42.1011C317.354 42.0815 316.696 41.9649 316.066 41.7552L315.588 41.5962L315.432 42.0756C314.962 43.5283 314.492 44.9788 314.022 46.427L313.88 46.8668L314.307 47.0433C315.674 47.6076 316.979 47.8985 318.217 47.8985L318.218 47.8985C319.892 47.8945 321.521 47.3608 322.873 46.3739C324.278 45.3694 325.45 43.9324 326.399 42.0881C329.296 36.5202 332.195 30.8729 335.095 25.1463Z" stroke="#A5D936"/>
<path d="M343.566 31.4052V23.8301V23.2489L342.991 23.3357C341.027 23.6324 339.062 23.8992 337.098 24.1361L336.658 24.1892V24.6325V45.6274V46.1916L337.218 46.1237C339.192 45.8846 341.166 45.6165 343.141 45.3194L343.566 45.2554V44.825V37.2167C344.219 37.1179 344.872 37.0159 345.524 36.9106C347.053 39.2415 348.584 41.5571 350.118 43.8572L350.3 44.1308L350.624 44.0717C352.856 43.6637 355.089 43.2296 357.322 42.7694L358.066 42.616L357.631 41.9932C355.483 38.9201 353.334 35.819 351.185 32.6901C353.322 28.9993 355.459 25.2852 357.595 21.5479L358.145 20.5861L357.06 20.8101C354.984 21.2389 352.908 21.6432 350.833 22.0232L350.601 22.0658L350.486 22.2726C348.851 25.2221 347.221 28.1599 345.595 31.0861C344.918 31.1953 344.242 31.3017 343.566 31.4052Z" stroke="#A5D936"/>
<path d="M365.094 41.0897L365.359 41.0294L365.453 40.7744C365.967 39.373 366.485 37.9717 367.008 36.5703C369.748 35.93 372.487 35.2702 375.225 34.591C375.718 35.6848 376.211 36.7782 376.703 37.8711L376.875 38.2526L377.28 38.1507C379.341 37.6333 381.401 37.1099 383.461 36.5803L384.06 36.4261L383.783 35.8724C380.685 29.6768 377.586 23.4624 374.487 17.229L374.308 16.8701L373.919 16.9663C371.972 17.4475 370.025 17.9176 368.076 18.3766L367.823 18.4363L367.727 18.6778C364.638 26.4069 361.55 34.0965 358.46 41.7468L358.109 42.6175L359.027 42.4232C361.05 41.9954 363.072 41.5509 365.094 41.0897ZM371.116 25.3253C371.766 26.786 372.416 28.2463 373.066 29.7064C371.764 30.0264 370.463 30.3426 369.161 30.655L371.116 25.3253Z" stroke="#A5D936"/>
<path d="M416.734 6.89697V6.27211L416.125 6.40914C414.143 6.85462 412.162 7.31287 410.181 7.78389L409.797 7.87529V8.27033V15.7632C407.43 16.3306 405.064 16.9099 402.7 17.5012V10.2546V9.61278L402.077 9.76985C400.098 10.2694 398.118 10.7728 396.138 11.2801L395.762 11.3764V11.7645V32.7577V33.4024L396.386 33.242C398.364 32.7339 400.343 32.2308 402.322 31.7327L402.7 31.6376V31.2478V23.4504C405.065 22.8539 407.431 22.2736 409.797 21.7096V29.2636V29.8967L410.412 29.7499C412.389 29.2788 414.366 28.8215 416.344 28.3781L416.734 28.2905V27.8902V6.89697Z" stroke="#A5D936"/>
<path d="M424.99 26.5512L425.265 26.4972L425.362 26.2346C425.875 24.8546 426.391 23.4762 426.912 22.0992C429.646 21.5753 432.38 21.0993 435.115 20.6714L436.612 24.1443L436.764 24.4975L437.144 24.4411C439.198 24.1367 441.252 23.8649 443.306 23.6258L443.995 23.5456L443.701 22.9175C440.602 16.2831 437.503 9.71752 434.402 3.2207L434.241 2.88265L433.871 2.94245C431.919 3.25826 429.965 3.59795 428.012 3.96157L427.743 4.01152L427.64 4.2643C424.55 11.8404 421.461 19.4625 418.372 27.1306L418.019 28.0075L418.943 27.806C420.958 27.3661 422.974 26.9478 424.99 26.5512ZM432.97 15.6248C431.667 15.8411 430.364 16.0675 429.06 16.3041C429.712 14.5635 430.363 12.8249 431.014 11.0884C431.666 12.5976 432.318 14.1098 432.97 15.6248Z" stroke="#A5D936"/>
<path d="M466.35 1.29906L466.738 0.584226L465.925 0.560358C463.989 0.503557 462.053 0.486842 460.116 0.510231L459.811 0.513923L459.675 0.787816C458.134 3.89024 456.593 7.01572 455.053 10.1643C453.572 7.16918 452.092 4.19467 450.613 1.24074L450.462 0.940143L450.127 0.966145C448.033 1.12863 445.938 1.32841 443.842 1.56545L443.085 1.6511L443.465 2.31163C446.134 6.95125 448.803 11.6551 451.47 16.4231C451.213 16.7807 450.896 17.0922 450.533 17.3437C450.143 17.5923 449.698 17.7396 449.237 17.7721C448.578 17.8063 447.918 17.7512 447.275 17.6083L446.826 17.5086L446.689 17.9474C446.219 19.4513 445.75 20.9574 445.28 22.4657L445.132 22.9442L445.61 23.0921C446.871 23.4815 448.193 23.6371 449.509 23.5511L449.509 23.5511L449.517 23.5505C451.19 23.4159 452.791 22.812 454.137 21.8081C455.539 20.7855 456.71 19.3531 457.657 17.5326C460.556 12.0348 463.453 6.62366 466.35 1.29906Z" stroke="#A5D936"/>
<path d="M474.826 22.5855V15.0992C475.454 15.1619 476.083 15.2311 476.711 15.3069C478.259 18.1027 479.806 20.9327 481.354 23.797L481.471 24.0134L481.713 24.0529C483.932 24.413 486.151 24.8444 488.37 25.3471L489.439 25.5891L488.921 24.6233C486.763 20.5955 484.605 16.6355 482.445 12.7431C484.57 9.81482 486.695 6.95048 488.819 4.15009L489.289 3.53096L488.531 3.36017C486.443 2.88979 484.354 2.48066 482.265 2.13284L481.951 2.08054L481.771 2.34315C480.152 4.7027 478.537 7.09794 476.927 9.52888C476.227 9.44548 475.526 9.36811 474.826 9.29675V1.5923V1.13841L474.374 1.09463C472.396 0.902985 470.419 0.758674 468.442 0.661733L467.918 0.636011V1.16113V22.1544V22.6305L468.393 22.6538C470.355 22.7499 472.317 22.893 474.278 23.0832L474.826 23.1363V22.5855Z" stroke="#A5D936"/>
<path d="M496.099 27.3954L496.516 27.523L496.699 27.1267C497.186 26.0712 497.673 25.0191 498.16 23.9706C500.897 24.8662 503.634 25.8898 506.371 27.0415C506.897 28.5639 507.422 30.0903 507.947 31.6207L508.018 31.8274L508.218 31.9157C510.268 32.8226 512.318 33.8065 514.368 34.8673L515.501 35.4535L515.068 34.2537C511.969 25.6543 508.869 17.225 505.769 8.96611L505.692 8.76072L505.488 8.67839C503.531 7.88592 501.573 7.15523 499.614 6.4863L499.207 6.34725L499.009 6.72917C495.919 12.6839 492.828 18.7844 489.737 25.0308L489.46 25.5906L490.067 25.7384C492.076 26.2277 494.087 26.78 496.099 27.3954ZM500.32 19.2678C500.968 17.8797 501.616 16.4985 502.264 15.1242C502.91 16.9764 503.556 18.8361 504.202 20.7032C502.909 20.1968 501.615 19.7183 500.32 19.2678Z" stroke="#A5D936"/>
<path d="M285.474 50.0728V49.6966L285.113 49.5923C283.145 49.0246 281.174 48.3949 279.2 47.7032L278.535 47.47V48.175V55.3552C276.171 54.5045 273.805 53.5564 271.438 52.5109V44.9423V44.6174L271.141 44.4854C269.172 43.6095 267.201 42.661 265.23 41.64L264.5 41.2619V42.084V63.0772V63.3823L264.771 63.5219C266.758 64.5435 268.745 65.5001 270.733 66.3917L271.438 66.7076V65.9354V58.515C273.803 59.5467 276.169 60.4849 278.535 61.3294V69.1633V69.5173L278.869 69.6349C280.858 70.335 282.847 70.9721 284.836 71.5464L285.474 71.7307V71.066V50.0728Z" stroke="#A5D936"/>
<path d="M293.537 73.6789L293.933 73.759L294.094 73.3889C294.587 72.2606 295.083 71.1286 295.584 69.9931C298.324 70.4915 301.065 70.8908 303.806 71.1911C304.317 72.515 304.83 73.8356 305.348 75.1528L305.46 75.4395L305.767 75.4679C307.835 75.6596 309.902 75.7994 311.969 75.8874L312.768 75.9214L312.449 75.1885C309.351 68.0634 306.253 60.8178 303.154 53.4517L303.042 53.1838L302.753 53.1492C300.813 52.916 298.871 52.6336 296.93 52.3021L296.557 52.2384L296.394 52.5796C293.307 59.0481 290.219 65.3751 287.131 71.5605L286.856 72.1116L287.452 72.2676C289.479 72.7982 291.508 73.2686 293.537 73.6789ZM297.737 64.9738C298.391 63.4576 299.044 61.9354 299.698 60.407C300.352 62.1282 301.007 63.8435 301.66 65.553C300.353 65.3823 299.045 65.1892 297.737 64.9738Z" stroke="#A5D936"/>
<path d="M335.093 53.7992L335.509 52.977L334.593 53.0761C332.67 53.2842 330.748 53.4585 328.826 53.599L328.538 53.6201L328.412 53.8804C326.872 57.0745 325.332 60.2455 323.792 63.3935C322.312 60.3839 320.833 57.3514 319.354 54.296L319.216 54.0111L318.9 54.0138C316.819 54.0315 314.737 54.0017 312.655 53.9243L311.789 53.8921L312.195 54.6578C314.867 59.7056 317.538 64.6775 320.208 69.5734C319.957 69.9097 319.647 70.1984 319.291 70.4245C318.904 70.6465 318.463 70.7602 318.016 70.7539C317.352 70.7343 316.694 70.6178 316.064 70.4081L315.586 70.249L315.43 70.7284C314.96 72.1811 314.49 73.6316 314.021 75.0798L313.878 75.5197L314.305 75.6961C315.672 76.2604 316.977 76.5513 318.215 76.5513L318.216 76.5513C319.89 76.5473 321.519 76.0136 322.871 75.0267C324.276 74.0222 325.448 72.5853 326.397 70.741C329.294 65.173 332.193 59.5257 335.093 53.7992Z" stroke="#A5D936"/>
<path d="M343.564 60.0581V52.4829V51.9018L342.99 51.9885C341.025 52.2852 339.06 52.552 337.096 52.7889L336.656 52.842V53.2853V74.2802V74.8445L337.216 74.7766C339.19 74.5374 341.164 74.2693 343.139 73.9723L343.564 73.9082V73.4778V65.8696C344.217 65.7707 344.87 65.6687 345.522 65.5634C347.051 67.8944 348.582 70.2099 350.116 72.51L350.298 72.7836L350.622 72.7245C352.854 72.3165 355.087 71.8824 357.32 71.4222L358.064 71.2689L357.629 70.6461C355.481 67.5729 353.332 64.4719 351.183 61.343C353.32 57.6521 355.457 53.9381 357.593 50.2008L358.143 49.2389L357.058 49.463C354.982 49.8917 352.906 50.2961 350.831 50.676L350.599 50.7186L350.484 50.9254C348.849 53.8749 347.219 56.8127 345.593 59.7389C344.917 59.8481 344.24 59.9545 343.564 60.0581Z" stroke="#A5D936"/>
<path d="M365.092 69.7426L365.357 69.6822L365.451 69.4272C365.965 68.0258 366.483 66.6245 367.006 65.2231C369.746 64.5828 372.485 63.9231 375.223 63.2438C375.716 64.3377 376.209 65.431 376.701 66.524L376.873 66.9055L377.278 66.8036C379.339 66.2862 381.399 65.7627 383.459 65.2331L384.058 65.0789L383.782 64.5252C380.683 58.3296 377.584 52.1152 374.485 45.8819L374.306 45.5229L373.917 45.6191C371.97 46.1003 370.023 46.5704 368.074 47.0295L367.821 47.0891L367.725 47.3306C364.636 55.0597 361.548 62.7493 358.458 70.3996L358.107 71.2704L359.025 71.076C361.048 70.6482 363.07 70.2037 365.092 69.7426ZM371.114 53.9782C371.764 55.4388 372.414 56.8992 373.064 58.3592C371.762 58.6792 370.461 58.9954 369.159 59.3078L371.114 53.9782Z" stroke="#A5D936"/>
<path d="M416.738 35.5498V34.9249L416.129 35.062C414.147 35.5075 412.166 35.9657 410.185 36.4367L409.8 36.5281V36.9232V44.416C407.434 44.9834 405.068 45.5627 402.704 46.154V38.9075V38.2656L402.081 38.4227C400.102 38.9222 398.122 39.4256 396.142 39.933L395.766 40.0292V40.4173V61.4105V62.0552L396.39 61.8948C398.368 61.3867 400.346 60.8836 402.326 60.3855L402.704 60.2904V59.9007V52.1032C405.069 51.5067 407.435 50.9265 409.8 50.3624V57.9164V58.5496L410.416 58.4028C412.393 57.9316 414.37 57.4743 416.348 57.0309L416.738 56.9433V56.543V35.5498Z" stroke="#A5D936"/>
<path d="M424.988 55.204L425.263 55.15L425.361 54.8874C425.873 53.5075 426.389 52.129 426.91 50.752C429.644 50.2281 432.378 49.7522 435.113 49.3242L436.61 52.7972L436.762 53.1503L437.142 53.0939C439.196 52.7895 441.25 52.5177 443.304 52.2786L443.993 52.1984L443.699 51.5703C440.6 44.9359 437.501 38.3704 434.4 31.8735L434.239 31.5355L433.869 31.5953C431.917 31.9111 429.963 32.2508 428.01 32.6144L427.741 32.6644L427.638 32.9171C424.548 40.4932 421.459 48.1153 418.37 55.7835L418.017 56.6604L418.941 56.4588C420.956 56.0189 422.972 55.6007 424.988 55.204ZM432.968 44.2776C431.665 44.4939 430.362 44.7203 429.058 44.9569C429.71 43.2163 430.361 41.4777 431.012 39.7412C431.664 41.2505 432.316 42.7626 432.968 44.2776Z" stroke="#A5D936"/>
<path d="M466.348 29.9519L466.737 29.2371L465.923 29.2132C463.987 29.1564 462.051 29.1397 460.114 29.1631L459.809 29.1668L459.673 29.4406C458.132 32.5431 456.591 35.6686 455.051 38.8171C453.57 35.822 452.091 32.8475 450.611 29.8936L450.46 29.593L450.125 29.619C448.031 29.7815 445.936 29.9812 443.84 30.2183L443.083 30.3039L443.463 30.9645C446.133 35.6041 448.801 40.3079 451.468 45.0759C451.211 45.4335 450.894 45.7451 450.531 45.9966C450.142 46.2451 449.696 46.3924 449.235 46.4249C448.576 46.4591 447.916 46.404 447.273 46.2611L446.824 46.1615L446.687 46.6002C446.217 48.1041 445.748 49.6103 445.279 51.1186L445.13 51.597L445.608 51.7449C446.869 52.1344 448.191 52.2899 449.507 52.2039L449.507 52.204L449.515 52.2034C451.188 52.0687 452.789 51.4648 454.135 50.461C455.537 49.4383 456.708 48.0059 457.655 46.1854C460.554 40.6876 463.451 35.2765 466.348 29.9519Z" stroke="#A5D936"/>
<path d="M474.824 51.2383V43.752C475.452 43.8147 476.081 43.8839 476.709 43.9597C478.257 46.7555 479.805 49.5855 481.352 52.4498L481.469 52.6663L481.712 52.7057C483.93 53.0658 486.149 53.4972 488.368 53.9999L489.437 54.242L488.919 53.2761C486.761 49.2484 484.603 45.2883 482.443 41.396C484.569 38.4677 486.693 35.6033 488.817 32.8029L489.287 32.1838L488.529 32.013C486.441 31.5426 484.352 31.1335 482.263 30.7857L481.949 30.7334L481.769 30.996C480.15 33.3555 478.535 35.7508 476.926 38.1817C476.225 38.0983 475.524 38.0209 474.824 37.9496V30.2451V29.7912L474.372 29.7475C472.394 29.5558 470.417 29.4115 468.441 29.3146L467.916 29.2888V29.814V50.8072V51.2833L468.392 51.3066C470.353 51.4028 472.315 51.5459 474.276 51.736L474.824 51.7891V51.2383Z" stroke="#A5D936"/>
<path d="M496.097 56.0482L496.514 56.1759L496.697 55.7795C497.184 54.724 497.671 53.672 498.158 52.6234C500.895 53.5191 503.632 54.5427 506.369 55.6944C506.895 57.2167 507.421 58.7431 507.945 60.2735L508.016 60.4802L508.216 60.5686C510.266 61.4755 512.316 62.4593 514.366 63.5202L515.499 64.1063L515.066 62.9066C511.967 54.3071 508.867 45.8779 505.767 37.6189L505.69 37.4136L505.486 37.3312C503.529 36.5388 501.571 35.8081 499.612 35.1391L499.205 35.0001L499.007 35.382C495.917 41.3367 492.826 47.4372 489.735 53.6836L489.458 54.2434L490.065 54.3912C492.074 54.8805 494.085 55.4328 496.097 56.0482ZM500.318 47.9206C500.966 46.5325 501.614 45.1513 502.262 43.7771C502.908 45.6293 503.554 47.4889 504.2 49.356C502.907 48.8496 501.613 48.3711 500.318 47.9206Z" stroke="#A5D936"/>
<path d="M285.474 78.7222V78.346L285.113 78.2418C283.145 77.674 281.174 77.0443 279.2 76.3526L278.535 76.1194V76.8245V84.0046C276.171 83.1539 273.805 82.2058 271.438 81.1603V73.5917V73.2668L271.141 73.1348C269.172 72.2589 267.201 71.3104 265.23 70.2894L264.5 69.9113V70.7334V91.7266V92.0317L264.771 92.1713C266.758 93.1929 268.745 94.1495 270.733 95.0411L271.438 95.357V94.5849V87.1644C273.803 88.1961 276.169 89.1343 278.535 89.9788V97.8127V98.1668L278.869 98.2843C280.858 98.9844 282.847 99.6215 284.836 100.196L285.474 100.38V99.7154V78.7222Z" stroke="#A5D936"/>
<path d="M293.537 102.328L293.933 102.408L294.094 102.038C294.587 100.91 295.083 99.7781 295.584 98.6425C298.324 99.1409 301.065 99.5402 303.806 99.8405C304.317 101.164 304.83 102.485 305.348 103.802L305.46 104.089L305.767 104.117C307.835 104.309 309.902 104.449 311.969 104.537L312.768 104.571L312.449 103.838C309.351 96.7128 306.253 89.4672 303.154 82.1011L303.042 81.8332L302.753 81.7986C300.813 81.5654 298.871 81.283 296.93 80.9515L296.557 80.8879L296.394 81.229C293.307 87.6975 290.219 94.0245 287.131 100.21L286.856 100.761L287.452 100.917C289.479 101.448 291.508 101.918 293.537 102.328ZM297.737 93.6232C298.391 92.1071 299.044 90.5848 299.698 89.0564C300.352 90.7776 301.007 92.4929 301.66 94.2024C300.353 94.0317 299.045 93.8386 297.737 93.6232Z" stroke="#A5D936"/>
<path d="M335.093 82.4486L335.509 81.6264L334.593 81.7256C332.67 81.9336 330.748 82.1079 328.826 82.2484L328.538 82.2695L328.412 82.5299C326.872 85.7239 325.332 88.8949 323.792 92.0429C322.312 89.0333 320.833 86.0008 319.354 82.9454L319.216 82.6605L318.9 82.6632C316.819 82.6809 314.737 82.6511 312.655 82.5737L311.789 82.5415L312.195 83.3073C314.867 88.3551 317.538 93.3269 320.208 98.2228C319.957 98.5591 319.647 98.8478 319.291 99.074C318.904 99.2959 318.463 99.4096 318.016 99.4033C317.352 99.3837 316.694 99.2672 316.064 99.0575L315.586 98.8985L315.43 99.3779C314.96 100.831 314.49 102.281 314.021 103.729L313.878 104.169L314.305 104.346C315.672 104.91 316.977 105.201 318.215 105.201L318.216 105.201C319.89 105.197 321.519 104.663 322.871 103.676C324.276 102.672 325.448 101.235 326.397 99.3904C329.294 93.8224 332.193 88.1752 335.093 82.4486Z" stroke="#A5D936"/>
<path d="M343.564 88.7075V81.1323V80.5512L342.99 80.638C341.025 80.9346 339.06 81.2014 337.096 81.4383L336.656 81.4914V81.9347V102.93V103.494L337.216 103.426C339.19 103.187 341.164 102.919 343.139 102.622L343.564 102.558V102.127V94.519C344.217 94.4201 344.87 94.3181 345.522 94.2128C347.051 96.5438 348.582 98.8593 350.116 101.159L350.298 101.433L350.622 101.374C352.854 100.966 355.087 100.532 357.32 100.072L358.064 99.9183L357.629 99.2955C355.481 96.2223 353.332 93.1213 351.183 89.9924C353.32 86.3016 355.457 82.5875 357.593 78.8502L358.143 77.8883L357.058 78.1124C354.982 78.5411 352.906 78.9455 350.831 79.3255L350.599 79.368L350.484 79.5748C348.849 82.5243 347.219 85.4621 345.593 88.3883C344.917 88.4975 344.24 88.6039 343.564 88.7075Z" stroke="#A5D936"/>
<path d="M365.092 98.392L365.357 98.3316L365.451 98.0766C365.965 96.6753 366.483 95.2739 367.006 93.8725C369.746 93.2322 372.485 92.5725 375.223 91.8933C375.716 92.9871 376.209 94.0804 376.701 95.1734L376.873 95.5549L377.278 95.453C379.339 94.9356 381.399 94.4121 383.459 93.8825L384.058 93.7283L383.782 93.1746C380.683 86.979 377.584 80.7646 374.485 74.5313L374.306 74.1723L373.917 74.2685C371.97 74.7497 370.023 75.2198 368.074 75.6789L367.821 75.7385L367.725 75.98C364.636 83.7091 361.548 91.3987 358.458 99.049L358.107 99.9198L359.025 99.7254C361.048 99.2976 363.07 98.8531 365.092 98.392ZM371.114 82.6276C371.764 84.0882 372.414 85.5486 373.064 87.0087C371.762 87.3286 370.461 87.6448 369.159 87.9572L371.114 82.6276Z" stroke="#A5D936"/>
<path d="M416.738 64.1992V63.5744L416.129 63.7114C414.147 64.1569 412.166 64.6151 410.185 65.0861L409.8 65.1775V65.5726V73.0654C407.434 73.6328 405.068 74.2122 402.704 74.8034V67.5569V66.915L402.081 67.0721C400.102 67.5716 398.122 68.075 396.142 68.5824L395.766 68.6787V69.0667V90.06V90.7046L396.39 90.5442C398.368 90.0362 400.346 89.5331 402.326 89.035L402.704 88.9398V88.5501V80.7527C405.069 80.1562 407.435 79.5759 409.8 79.0118V86.5658V87.199L410.416 87.0522C412.393 86.581 414.37 86.1238 416.348 85.6803L416.738 85.5928V85.1924V64.1992Z" stroke="#A5D936"/>
<path d="M424.988 83.8535L425.263 83.7994L425.361 83.5368C425.873 82.1569 426.389 80.7784 426.91 79.4014C429.644 78.8775 432.378 78.4016 435.113 77.9736L436.61 81.4466L436.762 81.7997L437.142 81.7433C439.196 81.4389 441.25 81.1671 443.304 80.928L443.993 80.8479L443.699 80.2197C440.6 73.5853 437.501 67.0198 434.4 60.5229L434.239 60.1849L433.869 60.2447C431.917 60.5605 429.963 60.9002 428.01 61.2638L427.741 61.3138L427.638 61.5665C424.548 69.1426 421.459 76.7647 418.37 84.4329L418.017 85.3098L418.941 85.1082C420.956 84.6683 422.972 84.2501 424.988 83.8535ZM432.968 72.9271C431.665 73.1433 430.362 73.3697 429.058 73.6063C429.71 71.8657 430.361 70.1272 431.012 68.3906C431.664 69.8999 432.316 71.412 432.968 72.9271Z" stroke="#A5D936"/>
<path d="M466.348 58.6013L466.737 57.8865L465.923 57.8626C463.987 57.8058 462.051 57.7891 460.114 57.8125L459.809 57.8162L459.673 58.0901C458.132 61.1925 456.591 64.318 455.051 67.4665C453.57 64.4714 452.091 61.4969 450.611 58.543L450.46 58.2424L450.125 58.2684C448.031 58.4309 445.936 58.6307 443.84 58.8677L443.083 58.9533L443.463 59.6139C446.133 64.2535 448.801 68.9573 451.468 73.7253C451.211 74.0829 450.894 74.3945 450.531 74.646C450.142 74.8946 449.696 75.0418 449.235 75.0743C448.576 75.1086 447.916 75.0535 447.273 74.9105L446.824 74.8109L446.687 75.2496C446.217 76.7535 445.748 78.2597 445.279 79.768L445.13 80.2464L445.608 80.3943C446.869 80.7838 448.191 80.9393 449.507 80.8533L449.507 80.8534L449.515 80.8528C451.188 80.7181 452.789 80.1142 454.135 79.1104C455.537 78.0878 456.708 76.6554 457.655 74.8348C460.554 69.3371 463.451 63.9259 466.348 58.6013Z" stroke="#A5D936"/>
<path d="M474.824 79.8877V72.4014C475.452 72.4641 476.081 72.5333 476.709 72.6091C478.257 75.4049 479.805 78.2349 481.352 81.0992L481.469 81.3157L481.712 81.3551C483.93 81.7152 486.149 82.1466 488.368 82.6494L489.437 82.8914L488.919 81.9256C486.761 77.8978 484.603 73.9377 482.443 70.0454C484.569 67.1171 486.693 64.2527 488.817 61.4523L489.287 60.8332L488.529 60.6624C486.441 60.192 484.352 59.7829 482.263 59.4351L481.949 59.3828L481.769 59.6454C480.15 62.0049 478.535 64.4002 476.926 66.8311C476.225 66.7477 475.524 66.6704 474.824 66.599V58.8945V58.4407L474.372 58.3969C472.394 58.2052 470.417 58.0609 468.441 57.964L467.916 57.9383V58.4634V79.4566V79.9327L468.392 79.956C470.353 80.0522 472.315 80.1953 474.276 80.3854L474.824 80.4386V79.8877Z" stroke="#A5D936"/>
<path d="M496.097 84.6976L496.514 84.8253L496.697 84.4289C497.184 83.3734 497.671 82.3214 498.158 81.2728C500.895 82.1685 503.632 83.1921 506.369 84.3438C506.895 85.8661 507.421 87.3925 507.945 88.923L508.016 89.1296L508.216 89.218C510.266 90.1249 512.316 91.1087 514.366 92.1696L515.499 92.7557L515.066 91.556C511.967 82.9565 508.867 74.5273 505.767 66.2684L505.69 66.063L505.486 65.9806C503.529 65.1882 501.571 64.4575 499.612 63.7885L499.205 63.6495L499.007 64.0314C495.917 69.9861 492.826 76.0867 489.735 82.3331L489.458 82.8928L490.065 83.0406C492.074 83.5299 494.085 84.0822 496.097 84.6976ZM500.318 76.57C500.966 75.1819 501.614 73.8007 502.262 72.4265C502.908 74.2787 503.554 76.1383 504.2 78.0054C502.907 77.499 501.613 77.0205 500.318 76.57Z" stroke="#A5D936"/>
</svg>
