<svg width="189" height="201" viewBox="0 0 189 201" fill="none" xmlns="http://www.w3.org/2000/svg">
<path d="M169.677 -11.9788L169.963 -11.7958L170.238 -11.994L176.111 -16.219L188.377 -8.36524L187.06 -1.23662L186.999 -0.905952L187.283 -0.724686L196.21 4.98938L196.861 5.40562L196.974 4.64191L202.806 -34.5154L202.854 -34.8356L202.581 -35.0102L194.129 -40.4197L193.852 -40.5966L193.58 -40.4133L160.912 -18.4175L160.28 -17.9922L160.922 -17.5816L169.677 -11.9788ZM183.507 -21.6057L191.98 -27.7298L190.08 -17.4077L183.507 -21.6057Z" stroke="#A5D936"/>
<path d="M179.569 149.206L179.268 149.355L179.293 149.69L179.83 156.921L166.812 163.388L161.434 158.591L161.181 158.365L160.878 158.516L151.394 163.239L150.711 163.58L151.295 164.07L181.505 189.416L181.756 189.627L182.05 189.48L191.025 185.009L191.316 184.864L191.302 184.54L189.588 145L189.555 144.231L188.866 144.575L179.569 149.206ZM180.545 166.09L181.352 176.548L173.601 169.546L180.545 166.09Z" stroke="#A5D936"/>
<path d="M127.308 199.293L127.31 199.294C130.124 200.294 133.118 200.679 136.091 200.423L152.486 199.413L152.985 199.383L152.955 198.884L150.766 162.743L150.736 162.244L150.236 162.275L140.065 162.903L139.567 162.934L139.597 163.432L140.138 172.384L134.403 172.735C131.417 172.846 128.489 173.596 125.814 174.934L125.811 174.935C123.505 176.103 121.591 177.927 120.305 180.181C119.019 182.434 118.419 185.018 118.579 187.611C118.738 190.204 119.65 192.694 121.201 194.771C122.753 196.847 124.876 198.42 127.308 199.293ZM131.232 183.273L131.234 183.271C132.123 182.406 133.528 181.876 135.538 181.754L135.538 181.754L140.679 181.437L141.27 191.021L136.13 191.338C136.13 191.338 136.13 191.338 136.13 191.338C134.112 191.46 132.647 191.093 131.666 190.334C130.686 189.577 130.111 188.447 130.031 186.88C129.95 185.297 130.359 184.114 131.232 183.273Z" stroke="#A5D936"/>
<path d="M108.671 163.342L108.671 163.342L108.664 163.335C106.138 160.706 103.039 158.704 99.6116 157.487C96.1845 156.271 92.5234 155.873 88.9174 156.326L88.9174 156.326L88.9079 156.327C85.4952 156.823 82.2828 158.25 79.619 160.454C76.9552 162.657 74.9418 165.553 73.7966 168.826C72.6514 172.1 72.418 175.627 73.1217 179.024C73.8254 182.422 75.4394 185.561 77.789 188.101L77.789 188.101L77.7956 188.108C80.3222 190.737 83.4213 192.739 86.8484 193.955C90.2755 195.172 93.9365 195.57 97.5425 195.117L97.5425 195.117L97.5521 195.116C100.965 194.62 104.177 193.193 106.841 190.989C109.505 188.786 111.518 185.89 112.663 182.617C113.809 179.343 114.042 175.816 113.338 172.419C112.635 169.021 111.021 165.882 108.671 163.342ZM84.546 172.631C85.1392 170.934 86.1212 169.403 87.4119 168.16C88.6042 167.066 90.0735 166.326 91.6569 166.02C93.2722 165.74 94.9318 165.881 96.4778 166.43C98.0239 166.979 99.4051 167.917 100.49 169.156C101.534 170.395 102.216 171.901 102.462 173.507C102.694 175.29 102.506 177.104 101.913 178.8C101.32 180.496 100.338 182.027 99.048 183.268C97.8559 184.364 96.3867 185.106 94.8028 185.413C93.1877 185.693 91.5281 185.552 89.9821 185.004C88.4362 184.455 87.0551 183.516 85.9706 182.277C84.9283 181.038 84.2457 179.532 83.9982 177.926C83.765 176.142 83.9527 174.328 84.546 172.631Z" stroke="#A5D936"/>
<path d="M60.2753 143.378L60.2752 143.378C59.2368 142.416 58.3226 141.982 57.5259 141.95C56.7499 141.92 55.9762 142.268 55.1957 143.121L60.2753 143.378ZM60.2753 143.378L65.8102 148.503L61.4826 153.247L55.9538 148.131M60.2753 143.378L55.9538 148.131M55.9538 148.131C54.912 147.164 54.3963 146.284 54.2874 145.493M55.9538 148.131L54.2874 145.493M54.2874 145.493C54.1817 144.726 54.446 143.942 55.1953 143.121L54.2874 145.493ZM44.9023 140.256L44.9011 140.268L44.9004 140.279C44.8 141.987 45.1261 143.687 45.841 145.227C44.5284 144.994 43.1767 145.047 41.8786 145.389L41.8786 145.389L41.8697 145.392C40.2124 145.862 38.7249 146.802 37.5843 148.099C36.5653 149.13 35.8283 150.409 35.4444 151.811C35.0595 153.217 35.0427 154.699 35.3955 156.113C36.09 159.069 38.0861 162.035 41.3014 165.016L41.3016 165.016L54.1555 176.918L54.5249 177.26L54.8644 176.888L79.2093 150.232L79.5441 149.865L79.1798 149.528L65.6065 136.96C65.6062 136.96 65.606 136.959 65.6058 136.959C62.2118 133.805 58.906 132.011 55.6906 131.671C54.1562 131.476 52.5976 131.667 51.1545 132.227C49.7152 132.786 48.4359 133.694 47.4302 134.871C46.0072 136.327 45.1162 138.225 44.9023 140.256ZM51.7508 155.014C51.7509 155.014 51.7509 155.014 51.751 155.014L56.1482 159.09L52.0269 163.607L47.6302 159.54C46.6123 158.598 46.1098 157.742 46.0028 156.976C45.899 156.233 46.1538 155.473 46.8825 154.675C47.6114 153.876 48.3398 153.558 49.0798 153.599C49.8443 153.642 50.7325 154.072 51.7508 155.014Z" stroke="#A5D936"/>
<path d="M43.1853 106.785L43.1855 106.784C43.818 103.216 43.5606 99.5449 42.4363 96.1016C41.5509 93.0887 40.0464 90.2965 38.0203 87.9064L38.0198 87.9059C36.1413 85.6963 33.7504 83.9871 31.0587 82.9301L30.6187 82.7574L30.4215 83.1869L26.7592 91.1634L26.5425 91.6354L27.0225 91.834C30.2718 93.1785 32.3377 95.3677 33.2781 98.4085L33.2781 98.4085L33.281 98.4174C33.8274 100.074 33.9347 101.845 33.5923 103.556C33.2602 105.158 32.4745 106.629 31.3307 107.791C30.0448 109.029 28.4934 109.951 26.7969 110.487C25.1007 111.023 23.305 111.159 21.5486 110.883C19.9534 110.582 18.4787 109.82 17.3036 108.691C16.0552 107.481 15.1428 105.962 14.6575 104.285L14.6576 104.285L14.6548 104.276C13.7145 101.242 14.1791 98.2568 16.0951 95.283L16.3758 94.8473L15.9304 94.5824L8.4186 90.1156L8.01258 89.8741L7.74848 90.2658C6.12821 92.6687 5.1207 95.4364 4.81472 98.3241L4.81453 98.3259C4.4952 101.448 4.8288 104.603 5.79388 107.588C6.80757 111.071 8.66303 114.247 11.1946 116.831L11.1955 116.832C13.5806 119.254 16.5843 120.965 19.875 121.777L19.8749 121.777L19.8862 121.779C23.2804 122.533 26.8113 122.381 30.1288 121.337C33.4463 120.293 36.4349 118.394 38.7986 115.829L38.7986 115.829L38.8048 115.822C41.0661 113.275 42.5822 110.147 43.1853 106.785Z" stroke="#A5D936"/>
<path d="M37.8394 73.8188L37.8685 73.4839L37.5695 73.3305L31.1488 70.0371L32.4197 55.4574L39.3001 53.3798L39.6245 53.2819L39.6537 52.9443L40.5753 42.309L40.6417 41.5427L39.9144 41.7931L2.71079 54.6038L2.4036 54.7096L2.37546 55.0333L1.50188 65.0788L1.47375 65.4023L1.7578 65.5595L36.1919 84.6258L36.8654 84.9987L36.9322 84.2317L37.8394 73.8188ZM22.9606 65.8767L13.6805 61.1303L23.6546 58.0825L22.9606 65.8767Z" stroke="#A5D936"/>
<path d="M34.0308 14.5127C33.7489 13.3065 32.9652 12.3328 31.5984 11.598C30.2337 10.8644 28.9881 10.7577 27.8201 11.2084L34.0308 14.5127ZM34.0308 14.5127C34.3011 15.721 34.0191 17.2106 33.0723 19.0179C33.0722 19.0179 33.0722 19.018 33.0722 19.0181L30.6661 23.6048M34.0308 14.5127L30.6661 23.6048M30.6661 23.6048L22.2419 19.1197L24.6509 14.5274C24.6509 14.5274 24.6509 14.5274 24.6509 14.5273C25.5965 12.726 26.6631 11.6549 27.8201 11.2084L30.6661 23.6048ZM22.4801 2.80406L22.4797 2.8044C20.172 4.69923 18.2897 7.0651 16.9567 9.74578L9.2795 24.3741L9.04849 24.8143L9.48731 25.0478L41.2767 41.9677L41.7208 42.204L41.9544 41.7584L46.7015 32.7039L46.9322 32.2639L46.4936 32.0304L38.6256 27.8416L41.3465 22.7079C42.7953 20.09 43.6773 17.193 43.9345 14.2074L43.9346 14.206C44.1503 11.6123 43.6038 9.0118 42.3628 6.72818C41.1219 4.44453 39.2412 2.57834 36.9543 1.36243C34.6674 0.146502 32.0756 -0.365256 29.5016 -0.108851C26.9277 0.147553 24.4859 1.16073 22.4801 2.80406Z" stroke="#A5D936"/>
<path d="M62.714 5.48847L62.7134 5.48322C66.2516 4.67394 69.5552 3.04986 72.3651 0.738655C75.1784 -1.57544 77.4199 -4.51523 78.9135 -7.84922L78.9136 -7.84917L78.9177 -7.85897C80.2667 -11.0504 80.7231 -14.5525 80.2376 -17.9862C79.7521 -21.4199 78.3432 -24.6548 76.163 -27.3405C73.9828 -30.0263 71.1142 -32.0606 67.8677 -33.2227C64.6212 -34.3849 61.1207 -34.6304 57.7454 -33.9327L57.7454 -33.9328L57.7353 -33.9305C54.1956 -33.122 50.8911 -31.4962 48.0824 -29.1817C45.2738 -26.8673 43.0378 -23.9274 41.5505 -20.5943L41.5505 -20.5944L41.5466 -20.5852C40.198 -17.3942 39.7418 -13.8927 40.2271 -10.4596C40.7124 -7.02642 42.1209 -3.79199 44.3004 -1.10646C46.48 1.57909 49.3477 3.6135 52.5935 4.7761C55.8392 5.93872 59.339 6.18509 62.714 5.48847ZM69.2816 -10.5386L69.0958 -10.0388C68.4872 -8.70638 67.5842 -7.52913 66.4534 -6.59856C65.1835 -5.55348 63.6688 -4.85448 62.0545 -4.56811C60.4628 -4.31341 58.8321 -4.50911 57.3442 -5.13351C55.712 -5.85979 54.2723 -6.96334 53.1419 -8.35503C52.0117 -9.74662 51.2226 -11.3871 50.839 -13.1435C50.5293 -14.7402 50.6644 -16.3921 51.2292 -17.9161C51.8325 -19.4524 52.8159 -20.8073 54.0855 -21.8521C55.3551 -22.8969 56.8687 -23.5969 58.4822 -23.8859C60.0736 -24.1404 61.7039 -23.9448 63.1915 -23.3206C64.8192 -22.5914 66.2542 -21.4867 67.3802 -20.0954C68.5064 -18.7039 69.292 -17.0648 69.6733 -15.3106C69.9834 -13.714 69.8478 -12.0621 69.2816 -10.5386Z" stroke="#A5D936"/>
</svg>
