<svg width="378" height="117" viewBox="0 0 378 117" fill="none" xmlns="http://www.w3.org/2000/svg">
<g opacity="0.1">
<path d="M17.0628 31.1061C15.996 32.4869 14.9517 33.5459 13.9411 34.1221C12.9305 34.6983 11.9425 34.9526 10.9769 34.8851C9.85044 34.8063 8.91866 34.256 8.33122 33.4063C7.74378 32.5567 7.51195 31.2468 7.62448 29.6376C7.74826 27.8674 8.19391 26.1197 9.11107 24.5667C9.8673 23.0025 10.9229 21.7826 12.2778 20.9071C13.6327 20.0315 14.9539 19.6388 16.5631 19.7513C17.2068 19.7963 17.8505 19.8413 18.3221 20.036C18.7936 20.2307 19.426 20.4367 19.8863 20.7923L20.9497 17.1472C21.1332 16.8367 21.1669 16.3539 21.1894 16.032C21.2232 15.5493 21.4066 15.2386 21.4291 14.9168C21.4516 14.5949 21.4629 14.434 21.3132 14.2618C21.1635 14.0897 21.0139 13.9175 20.8529 13.9062C20.692 13.895 20.2205 13.7003 19.7377 13.6665L19.9549 12.8732L23.8284 12.9823L24.7939 13.0498L19.8661 30.3319C19.6376 31.2862 19.4204 32.0795 19.3867 32.5623C19.3529 33.0451 19.3416 33.206 19.4801 33.5391C19.6297 33.7113 19.7794 33.8835 20.1013 33.906C20.4231 33.9285 20.7562 33.7901 21.0893 33.6516C21.4337 33.3523 21.9502 32.9033 22.6389 32.3046L23.5482 33.1767C22.5151 34.0748 21.6542 34.8231 20.988 35.1C20.3106 35.5377 19.4947 35.6424 18.851 35.5974C18.2073 35.5524 17.7358 35.3577 17.2868 34.8411C16.9987 34.3359 16.7106 33.8306 16.7668 33.026C16.8119 32.3823 17.0065 31.9107 17.2125 31.2783L17.0628 31.1061ZM18.5719 25.7134C18.7891 24.92 18.8341 24.2763 18.8791 23.6326C18.9354 22.828 18.8195 22.1731 18.5201 21.8287C18.2208 21.4844 17.5883 21.2784 16.7837 21.2222C15.6572 21.1434 14.6579 21.5586 13.797 22.307C12.9361 23.0554 12.2024 24.2978 11.6183 25.7123C11.0343 27.1269 10.6112 28.5527 10.5099 30.001C10.4311 31.1275 10.5358 31.9434 10.8239 32.4487C11.112 32.954 11.5722 33.3096 12.2159 33.3546C12.5378 33.3771 12.8596 33.3996 13.1927 33.2612C13.5258 33.1228 13.859 32.9843 14.2033 32.685C14.5477 32.3856 14.892 32.0863 15.4086 31.6373C15.7642 31.177 16.1198 30.7167 16.4641 30.4174C16.8197 29.9571 17.1753 29.4969 17.3813 28.8644C17.7481 28.2432 17.9653 27.4498 18.1825 26.6565L18.5719 25.7134ZM44.5562 24.1345L39.4066 23.7744L39.3954 23.9353C39.9941 24.624 40.2597 25.4511 40.5365 26.1174C40.8133 26.7836 40.7571 27.5882 40.6896 28.5537C40.577 30.163 40.1539 31.5888 39.4202 32.8312C38.6864 34.0736 37.6421 35.1326 36.4706 35.6975C35.2879 36.4233 33.8171 36.6439 32.3687 36.5426C30.5986 36.4189 29.3449 35.846 28.4469 34.813C27.5488 33.7799 27.317 32.47 27.4295 30.8608C27.5083 29.7343 27.748 28.619 28.1486 27.5151C28.538 26.572 29.0883 25.6403 29.9604 24.731C30.6604 23.9714 31.5213 23.223 32.3597 22.7965C33.1981 22.37 34.3583 21.966 35.5073 21.7229C36.6563 21.4798 38.2768 21.4314 40.2079 21.5664L45.1966 21.9153L44.5562 24.1345ZM38.0326 27.236C38.1339 25.7876 37.8908 24.6387 37.4755 23.6394C36.0272 23.5381 34.7061 23.9308 33.6842 24.6679C32.5015 25.3938 31.6293 26.3031 30.8956 27.5455C30.1619 28.7879 29.7388 30.2137 29.6262 31.8229C29.57 32.6275 29.6859 33.2825 29.8131 33.7765C30.1011 34.2818 30.4005 34.6262 30.7111 34.8096C31.0217 34.993 31.4932 35.1877 31.976 35.2215C33.1025 35.3002 33.9296 35.0346 34.7792 34.4472C35.6289 33.8598 36.3513 32.7783 36.9354 31.3637C37.6804 29.9604 37.9313 28.6843 38.0326 27.236Z" fill="white"/>
<path d="M12.3963 77.0295C11.3295 78.4103 10.2852 79.4692 9.27459 80.0454C8.26403 80.6216 7.27597 80.8759 6.31041 80.8084C5.18394 80.7297 4.25215 80.1794 3.66471 79.3297C3.07728 78.4801 2.84544 77.1702 2.95797 75.5609C3.08175 73.7907 3.52738 72.0431 4.44454 70.4901C5.20077 68.9258 6.25635 67.706 7.61127 66.8304C8.96619 65.9549 10.2874 65.5621 11.8966 65.6747C12.5403 65.7197 13.184 65.7647 13.6555 65.9594C14.127 66.1541 14.7595 66.36 15.2198 66.7156L16.2832 63.0706C16.4666 62.76 16.5004 62.2772 16.5229 61.9554C16.5567 61.4726 16.7401 61.162 16.7626 60.8401C16.7851 60.5183 16.7964 60.3574 16.6467 60.1852C16.497 60.013 16.3474 59.8408 16.1864 59.8296C16.0255 59.8183 15.554 59.6237 15.0712 59.5899L15.2884 58.7965L19.1619 58.9057L20.1274 58.9732L15.0499 76.083C14.8214 77.0373 14.6042 77.8307 14.5705 78.3135C14.5367 78.7963 14.5255 78.9572 14.6639 79.2903C14.8136 79.4625 14.9632 79.6346 15.2851 79.6571C15.6069 79.6797 15.94 79.5412 16.2731 79.4028C16.6175 79.1035 17.134 78.6545 17.8227 78.0558L18.732 78.9279C17.699 79.826 16.8381 80.5743 16.1719 80.8511C15.4944 81.2889 14.6785 81.3936 14.0348 81.3486C13.3911 81.3036 12.9196 81.1089 12.4706 80.5923C12.1825 80.087 11.8944 79.5818 11.9507 78.7771C11.9957 78.1334 12.1904 77.6619 12.3963 77.0295V77.0295ZM13.7557 71.4646C13.9729 70.6712 14.0179 70.0275 14.0629 69.3838C14.1192 68.5792 14.0033 67.9243 13.7039 67.5799C13.4046 67.2355 12.7721 67.0296 11.9675 66.9733C10.841 66.8946 9.84171 67.3098 8.98082 68.0582C8.11993 68.8065 7.38621 70.0489 6.80215 71.4635C6.2181 72.8781 5.79497 74.3039 5.6937 75.7522C5.61493 76.8787 5.71959 77.6946 6.00768 78.1998C6.29577 78.7051 6.75603 79.0607 7.39974 79.1058C7.72159 79.1283 8.04345 79.1508 8.37655 79.0124C8.70965 78.8739 9.04277 78.7355 9.38712 78.4362C9.73148 78.1368 10.0758 77.8375 10.5924 77.3885C10.948 76.9282 11.3036 76.4679 11.6479 76.1686C12.0035 75.7083 12.3591 75.248 12.5651 74.6156C12.9319 73.9944 13.1491 73.201 13.3663 72.4077L13.7557 71.4646ZM26.6061 79.6402L26.6286 79.3184C26.0637 78.1469 25.8319 76.837 25.6 75.5271C25.3682 74.2172 25.2973 72.9185 25.3873 71.6311C25.5224 69.7 26.1402 67.8027 27.0686 66.0888C27.997 64.3748 29.2248 63.0053 30.9015 62.1523C32.4174 61.288 34.2213 60.929 36.1524 61.064C38.2444 61.2103 39.659 61.7944 40.7067 62.9996C41.7544 64.2049 42.1247 65.8479 41.9896 67.779C41.8433 69.871 41.203 72.0902 40.1024 73.9538C38.9906 75.9783 37.235 77.9578 34.8245 80.0532L34.802 80.3751L36.2504 80.4763C37.055 80.5326 37.549 80.4054 38.0543 80.1173C38.5596 79.8293 38.9152 79.369 39.2933 78.5869L40.7417 78.6881L38.9895 82.9318L32.0697 82.448L32.5378 80.3784C34.0987 78.8705 35.1768 77.3287 36.0827 75.9367C36.9886 74.5446 37.5727 73.13 38.1567 71.7155C38.5798 70.2897 39.003 68.8638 39.093 67.5764C39.3293 64.197 38.3266 62.3481 35.9127 62.1793C34.9472 62.1117 33.9591 62.3661 33.1207 62.7926C32.2823 63.2191 31.5711 64.1396 30.8486 65.2211C30.1262 66.3026 29.5534 67.5562 29.1302 68.982C28.7071 70.4078 28.4449 71.8449 28.3436 73.2932C28.2761 74.2588 28.3583 75.3965 28.4292 76.6952C28.5001 77.9938 28.5822 79.1316 28.8366 80.1196L28.2075 82.1779L21.2877 81.694L22.2352 77.394L23.5227 77.4841C23.4776 78.1278 23.4439 78.6105 23.5823 78.9436C23.732 79.1158 23.8704 79.4489 24.0313 79.4602C24.181 79.6324 24.6638 79.6661 25.3075 79.7111L26.5949 79.8012L26.6061 79.6402Z" fill="white"/>
<path d="M45.5626 51.3726L3.23926 48.4131L3.09297 50.5051L45.4163 53.4647L45.5626 51.3726Z" fill="white"/>
<path d="M57.0671 51.0452L57.2134 48.9531L76.5244 50.3035L76.3781 52.3955L57.0671 51.0452ZM56.617 57.4822L56.7633 55.3901L76.0743 56.7405L75.928 58.8325L56.617 57.4822Z" fill="white"/>
<path d="M106.919 15.72L107.645 16.9027C103.685 20.3452 100.405 25.6141 97.979 32.5598C95.3919 39.4942 93.8862 47.1511 93.2785 55.8411C92.6821 64.3701 93.1075 72.162 94.6931 79.55C96.1291 86.7657 98.6432 92.4397 102.074 96.5607L101.191 97.631C97.1048 93.6259 94.108 87.9181 92.0508 80.3355C89.9936 72.7529 89.2801 64.4557 89.8991 55.6048C90.5292 46.593 92.3905 38.4758 95.4717 31.4142C98.7138 24.3638 102.476 19.1287 106.919 15.72Z" fill="white"/>
<path d="M111.185 40.2754L116.174 40.6242C116.656 40.658 117.139 40.6917 117.472 40.5533C117.805 40.4149 118.127 40.4374 118.299 40.2877C118.632 40.1493 118.816 39.8387 119.149 39.7003C119.493 39.4009 119.677 39.0903 120.032 38.6301C120.388 38.1698 120.755 37.5486 121.133 36.7665L122.581 36.8678L120.9 42.4101L107.06 41.4424L107.278 40.649L122.939 22.5004L118.111 22.1628C117.468 22.1178 116.985 22.084 116.652 22.2225C116.319 22.3609 115.986 22.4993 115.652 22.6377C115.308 22.9371 114.964 23.2364 114.608 23.6967C114.253 24.1569 113.886 24.7781 113.335 25.7099L111.887 25.6087L113.385 20.3769L126.903 21.3221L126.685 22.1155L111.185 40.2754Z" fill="white"/>
<path d="M132.4 46.7719C132.389 46.9328 132.367 47.2547 132.355 47.4156C132.344 47.5765 132.333 47.7375 132.322 47.8984C132.31 48.0593 132.31 48.0593 132.46 48.2315C132.449 48.3924 132.61 48.4037 132.61 48.4037C132.759 48.5758 132.759 48.5758 132.92 48.5871C133.081 48.5983 133.231 48.7705 133.553 48.793C133.714 48.8043 134.036 48.8268 134.357 48.8493C134.679 48.8718 135.162 48.9056 135.484 48.9281L135.416 49.8936L126.405 49.2635L126.472 48.2979C126.955 48.3317 127.277 48.3542 127.599 48.3767C127.92 48.3992 128.242 48.4217 128.403 48.4329C128.564 48.4442 128.725 48.4554 128.897 48.3058C129.058 48.317 129.23 48.1674 129.23 48.1674C129.391 48.1786 129.403 48.0177 129.563 48.0289C129.563 48.0289 129.736 47.8793 129.747 47.7183C129.758 47.5574 129.93 47.4077 129.942 47.2468C129.953 47.0859 129.964 46.925 129.987 46.6031L130.56 38.3959C130.583 38.0741 130.594 37.9132 130.445 37.741C130.295 37.5688 130.134 37.5575 129.973 37.5463C129.812 37.535 129.318 37.6622 128.824 37.7894C128.319 38.0774 127.653 38.3543 126.975 38.7921C126.825 38.6199 126.837 38.459 126.687 38.2868C126.537 38.1146 126.549 37.9537 126.399 37.7815C127.398 37.3662 128.398 36.951 129.247 36.3635C130.247 35.9483 131.246 35.533 132.095 34.9456L132.739 34.9906C132.705 35.4734 132.683 35.7952 132.66 36.1171C132.638 36.4389 132.615 36.7608 132.593 37.0826C132.57 37.4045 132.548 37.7263 132.525 38.0482L131.918 46.7381L132.4 46.7719Z" fill="white"/>
<path d="M143.37 42.5258L148.359 42.8747C148.841 42.9084 149.324 42.9422 149.657 42.8038C149.99 42.6654 150.312 42.6879 150.484 42.5382C150.818 42.3998 151.001 42.0892 151.334 41.9508C151.678 41.6514 151.862 41.3408 152.217 40.8806C152.573 40.4203 152.94 39.7991 153.318 39.017L154.766 39.1183L153.085 44.6606L139.246 43.6929L139.463 42.8995L155.124 24.7509L150.296 24.4133C149.653 24.3683 149.17 24.3345 148.837 24.473C148.504 24.6114 148.171 24.7498 147.838 24.8882C147.493 25.1876 147.149 25.4869 146.793 25.9472C146.438 26.4074 146.071 27.0286 145.52 27.9604L144.072 27.8592L145.57 22.6274L159.088 23.5726L158.871 24.366L143.37 42.5258Z" fill="white"/>
<path d="M165.15 50.1939C165.472 50.2164 165.794 50.2389 165.955 50.2502C166.116 50.2614 166.288 50.1117 166.449 50.123C166.621 49.9733 166.782 49.9846 166.805 49.6627C166.977 49.5131 166.999 49.1912 167.183 48.8806L168.309 48.9594C168.276 49.4421 168.23 50.0859 168.036 50.5574C168.002 51.0401 167.957 51.6838 167.762 52.1554L158.107 51.4802L158.152 50.8365C158.347 50.365 158.53 50.0544 158.886 49.5941C159.23 49.2947 159.425 48.8232 159.78 48.363C160.136 47.9027 160.48 47.6033 160.836 47.1431C161.191 46.6828 161.708 46.2338 162.213 45.9457C162.902 45.347 163.591 44.7483 164.107 44.2993C164.624 43.8503 164.979 43.39 165.324 43.0907C165.668 42.7913 165.863 42.3198 165.885 41.9979C166.069 41.6873 166.091 41.3655 166.125 40.8827C166.147 40.5609 166.181 40.0781 166.043 39.745C165.904 39.4119 165.766 39.0788 165.616 38.9066C165.467 38.7344 165.167 38.3901 164.845 38.3676C164.535 38.1841 164.213 38.1616 163.73 38.1279C163.086 38.0829 162.432 38.1988 161.915 38.6478C161.41 38.9359 161.043 39.5571 160.676 40.1783L159.228 40.077L159.385 37.8241C160.384 37.4088 161.361 37.3154 162.177 37.2107C162.993 37.1061 163.809 37.0014 164.453 37.0464C165.257 37.1027 165.89 37.3086 166.522 37.5146C166.994 37.7092 167.454 38.0648 167.765 38.2483C168.064 38.5926 168.363 38.937 168.49 39.431C168.618 39.925 168.584 40.4078 168.55 40.8906C168.528 41.2125 168.505 41.5343 168.494 41.6952C168.471 42.0171 168.299 42.1668 168.277 42.4886C168.093 42.7992 168.082 42.9601 167.738 43.2595C167.554 43.5701 167.382 43.7197 167.038 44.0191C166.854 44.3297 166.521 44.4681 166.177 44.7674C165.832 45.0668 165.488 45.3661 165.144 45.6655C164.799 45.9648 164.283 46.4138 163.938 46.7132C163.594 47.0125 163.077 47.4615 162.733 47.7609C162.389 48.0602 162.033 48.5205 161.689 48.8198C161.344 49.1192 161 49.4185 160.817 49.7291L165.162 50.033L165.15 50.1939Z" fill="white"/>
<path d="M185.484 43.8535C184.44 44.9124 183.257 45.6383 182.247 46.2145C181.236 46.7907 179.937 46.8616 178.489 46.7603C177.041 46.659 175.787 46.0862 175.05 45.0644C174.313 44.0426 173.92 42.7214 174.033 41.1122C174.112 39.9857 174.351 38.8705 174.924 37.6168C175.497 36.3632 176.058 35.2705 176.931 34.3612C177.803 33.4519 178.825 32.7148 179.996 32.1499C181.156 31.7458 182.466 31.514 183.754 31.604C185.041 31.6941 185.984 32.0834 186.594 32.6112C187.204 33.139 187.469 33.9661 187.391 35.0926C187.267 36.8628 186.372 38.0939 184.535 38.9357C182.858 39.7887 180.26 39.9305 177.042 39.7055C176.836 40.3379 176.791 40.9816 176.735 41.7863C176.656 42.9127 176.761 43.7286 177.21 44.2451C177.659 44.7617 178.28 45.1285 179.245 45.1961C180.211 45.2636 181.027 45.1589 181.865 44.7324C182.704 44.3059 183.553 43.7185 184.414 42.9701L185.484 43.8535ZM177.465 38.2797C178.913 38.3809 180.212 38.31 181.35 38.2279C182.499 37.9848 183.326 37.7192 183.854 37.1093C184.531 36.6715 184.748 35.8781 184.816 34.9126C184.861 34.2689 184.734 33.7749 184.434 33.4305C184.135 33.0861 183.664 32.8915 183.181 32.8577C182.054 32.7789 181.055 33.1942 180.011 34.2531C178.989 34.9902 178.083 36.3823 177.465 38.2797Z" fill="white"/>
<path d="M199.101 34.1328C199.423 34.1554 199.745 34.1779 199.906 34.1891C200.067 34.2004 200.239 34.0507 200.4 34.0619C200.572 33.9123 200.733 33.9235 200.755 33.6017C200.927 33.452 200.95 33.1301 201.133 32.8195L202.26 32.8983C202.226 33.3811 202.181 34.0248 201.986 34.4963C201.953 34.9791 201.908 35.6228 201.713 36.0943L192.057 35.4191L192.103 34.7754C192.297 34.3039 192.481 33.9933 192.836 33.533C193.181 33.2337 193.375 32.7622 193.731 32.3019C194.086 31.8416 194.431 31.5423 194.786 31.082C195.142 30.6217 195.659 30.1727 196.164 29.8847C196.853 29.286 197.541 28.6873 198.058 28.2383C198.574 27.7892 198.93 27.329 199.274 27.0296C199.619 26.7303 199.813 26.2588 199.836 25.9369C200.019 25.6263 200.042 25.3045 200.076 24.8217C200.098 24.4998 200.132 24.0171 199.993 23.684C199.855 23.3509 199.717 23.0177 199.567 22.8456C199.417 22.6734 199.118 22.329 198.796 22.3065C198.485 22.1231 198.164 22.1006 197.681 22.0668C197.037 22.0218 196.382 22.1377 195.866 22.5868C195.36 22.8748 194.993 23.496 194.627 24.1172L193.178 24.016L193.336 21.763C194.335 21.3477 195.312 21.2543 196.128 21.1497C196.944 21.045 197.76 20.9403 198.403 20.9854C199.208 21.0416 199.84 21.2476 200.473 21.4535C200.944 21.6482 201.405 22.0038 201.715 22.1872C202.015 22.5316 202.314 22.8759 202.441 23.37C202.568 23.864 202.534 24.3468 202.501 24.8295C202.478 25.1514 202.456 25.4732 202.444 25.6342C202.422 25.956 202.25 26.1057 202.227 26.4275C202.044 26.7381 202.033 26.8991 201.688 27.1984C201.505 27.509 201.333 27.6587 200.988 27.958C200.805 28.2686 200.472 28.407 200.127 28.7064C199.783 29.0057 199.439 29.3051 199.094 29.6044C198.75 29.9038 198.233 30.3528 197.889 30.6521C197.545 30.9515 197.028 31.4005 196.684 31.6998C196.339 31.9992 195.984 32.4594 195.639 32.7588C195.295 33.0581 194.951 33.3575 194.767 33.6681L199.112 33.9719L199.101 34.1328Z" fill="white"/>
<path d="M141.072 89.2617C141.727 89.1458 142.221 89.0187 142.394 88.869C142.566 88.7193 142.749 88.4087 142.933 88.0981C143.116 87.7875 143.161 87.1438 143.217 86.3392L143.397 83.7644L134.707 83.1567L134.786 82.0303L144.927 68.8321L147.18 68.9896L146.234 82.5074L146.556 82.5299C147.2 82.5749 147.522 82.5974 147.855 82.459C148.188 82.3205 148.36 82.1709 148.532 82.0212C148.704 81.8715 148.899 81.4 149.094 80.9285L150.22 81.0073L149.834 84.2145L146.133 83.9557L145.953 86.5305C145.908 87.1742 145.863 87.8179 145.841 88.1398C145.818 88.4616 145.956 88.7947 145.945 88.9556C145.934 89.1166 146.244 89.3 146.394 89.4722C146.544 89.6444 146.854 89.8278 147.337 89.8615L147.281 90.6662L140.844 90.216L140.911 89.2505L141.072 89.2617ZM137.395 81.7275L143.51 82.1551L143.78 78.2929C143.848 77.3274 143.926 76.2009 144.016 74.9135C144.106 73.6261 144.163 72.8215 144.368 72.189L144.208 72.1778L137.406 81.5666L137.395 81.7275Z" fill="white"/>
<path d="M171.652 70.5391L170.188 75.2881L168.739 75.1868C168.807 74.2213 168.691 73.5663 168.725 73.0835C168.597 72.5895 168.459 72.2564 168.309 72.0842C168.16 71.912 168.01 71.7399 167.688 71.7174C167.527 71.7061 167.217 71.5227 166.734 71.4889L161.584 71.1288L159.24 79.2122L162.298 79.426C163.102 79.4823 163.596 79.3551 164.102 79.067C164.446 78.7677 164.974 78.1578 165.352 77.3756L166.8 77.4769L164.936 83.3299L163.648 83.2398C163.704 82.4352 163.749 81.7915 163.611 81.4584C163.473 81.1253 163.323 80.9531 163.173 80.7809C163.012 80.7697 162.541 80.575 162.058 80.5412L158.84 80.3162L156.278 89.193L160.945 89.5193C161.589 89.5643 162.072 89.5981 162.405 89.4597C162.738 89.3212 163.071 89.1828 163.415 88.8835C163.76 88.5841 164.104 88.2848 164.46 87.8245C164.815 87.3643 165.182 86.7431 165.732 85.8113L167.181 85.9125L165.35 91.2827L151.51 90.315L151.727 89.5216C152.049 89.5441 152.382 89.4057 152.715 89.2673C152.888 89.1176 153.06 88.9679 153.243 88.6573C153.427 88.3467 153.599 88.197 153.633 87.7143C153.816 87.4037 154.033 86.6103 154.262 85.656L157.841 73.7779C158.07 72.8236 158.298 71.8693 158.343 71.2256C158.377 70.7428 158.239 70.4097 158.089 70.2375C157.778 70.0541 157.468 69.8707 156.985 69.8369L157.202 69.0436L171.685 70.0563L171.652 70.5391Z" fill="white"/>
<path d="M203.591 62.4231L105.91 55.5925L105.763 57.6846L203.445 64.5151L203.591 62.4231Z" fill="white"/>
<path d="M208.302 22.8094C212.388 26.8146 215.385 32.5223 217.453 39.944C219.522 47.3657 220.235 55.6629 219.605 64.6747C218.986 73.5256 217.125 81.6428 214.032 88.8653C210.94 96.0878 207.178 101.323 202.574 104.72L201.848 103.538C205.808 100.095 209.087 94.8263 211.525 87.7197C213.951 80.774 215.629 72.9675 216.225 64.4384C216.833 55.7485 216.419 47.7956 214.811 40.7295C213.214 33.5025 210.85 28.0007 207.418 23.8796L208.302 22.8094Z" fill="white"/>
<path d="M232.93 29.0596C233.252 29.0821 233.574 29.1046 233.735 29.1159C233.896 29.1271 234.068 28.9774 234.229 28.9887C234.401 28.839 234.562 28.8503 234.584 28.5284C234.757 28.3788 234.779 28.0569 234.963 27.7463L236.089 27.8251C236.055 28.3079 236.01 28.9516 235.816 29.4231C235.782 29.9059 235.737 30.5496 235.542 31.0211L225.887 30.3459L225.932 29.7022C226.126 29.2307 226.31 28.9201 226.665 28.4598C227.01 28.1605 227.204 27.689 227.56 27.2287C227.916 26.7684 228.26 26.4691 228.616 26.0088C228.971 25.5485 229.488 25.0995 229.993 24.8114C230.682 24.2127 231.37 23.614 231.887 23.165C232.403 22.716 232.759 22.2557 233.103 21.9564C233.448 21.6571 233.642 21.1855 233.665 20.8637C233.848 20.5531 233.871 20.2312 233.905 19.7484C233.927 19.4266 233.961 18.9438 233.823 18.6107C233.684 18.2776 233.546 17.9445 233.396 17.7723C233.246 17.6002 232.947 17.2558 232.625 17.2333C232.315 17.0499 231.993 17.0274 231.51 16.9936C230.866 16.9486 230.211 17.0645 229.695 17.5135C229.189 17.8016 228.823 18.4228 228.456 19.044L227.007 18.9427L227.165 16.6898C228.164 16.2745 229.141 16.1811 229.957 16.0764C230.773 15.9718 231.589 15.8671 232.232 15.9121C233.037 15.9684 233.669 16.1743 234.302 16.3803C234.773 16.575 235.234 16.9306 235.544 17.114C235.844 17.4584 236.143 17.8027 236.27 18.2967C236.397 18.7908 236.364 19.2736 236.33 19.7563C236.307 20.0782 236.285 20.4 236.274 20.561C236.251 20.8828 236.079 21.0325 236.056 21.3543C235.873 21.6649 235.862 21.8258 235.517 22.1252C235.334 22.4358 235.162 22.5855 234.817 22.8848C234.634 23.1954 234.301 23.3338 233.956 23.6332C233.612 23.9325 233.268 24.2318 232.923 24.5312C232.579 24.8305 232.063 25.2795 231.718 25.5789C231.374 25.8782 230.857 26.3273 230.513 26.6266C230.169 26.926 229.813 27.3862 229.469 27.6856C229.124 27.9849 228.78 28.2842 228.596 28.5948L232.941 28.8987L232.93 29.0596Z" fill="white"/>
<path d="M311.556 51.6992C311.511 52.3429 311.477 52.8256 311.616 53.1587C311.593 53.4806 311.743 53.6528 311.881 53.9859C312.02 54.319 312.342 54.3415 312.652 54.5249C312.963 54.7083 313.446 54.7421 313.917 54.9368C314.4 54.9705 315.032 55.1765 315.837 55.2327L315.758 56.3592L304.172 55.549L304.25 54.4225C305.377 54.5013 306.193 54.3966 306.676 54.4304C307.158 54.4641 307.492 54.3257 307.825 54.1873C308.158 54.0489 308.341 53.7383 308.525 53.4277C308.708 53.1171 308.742 52.6343 308.798 51.8297L309.687 39.1166C309.721 38.6338 309.732 38.4729 309.594 38.1398C309.444 37.9676 309.294 37.7954 308.972 37.7729C308.651 37.7504 308.157 37.8776 307.49 38.1544C306.824 38.4313 305.986 38.8578 305.136 39.4452L304.582 38.1128L312.289 34.2855L313.093 34.3417C313.026 35.3073 312.764 36.7443 312.64 38.5145L311.717 51.7104L311.556 51.6992Z" fill="white"/>
<path d="M252.682 86.5548C252.588 85.578 252.311 84.9118 251.862 84.3953C251.413 83.8788 250.62 83.6616 249.493 83.5828C248.689 83.5265 248.034 83.6424 247.517 84.0915C247.001 84.5405 246.645 85.0007 246.6 85.6444C246.578 85.9663 246.555 86.2882 246.694 86.6213C246.832 86.9544 246.97 87.2875 247.431 87.6431C247.73 87.9874 248.34 88.5152 249.272 89.0655C249.893 89.4324 250.342 89.9489 250.802 90.3045C251.102 90.6489 251.401 90.9932 251.7 91.3376C251.839 91.6707 251.977 92.0038 252.115 92.3369C252.254 92.67 252.22 93.1528 252.186 93.6356C252.119 94.6011 251.741 95.3832 251.213 95.9932C250.685 96.6031 250.008 97.0409 249.02 97.2952C248.193 97.5608 247.216 97.6542 246.089 97.5754C245.285 97.5192 244.319 97.4516 243.526 97.2345C242.732 97.0173 241.778 96.7888 240.835 96.3995L241.876 93.0763L243.163 93.1663C243.096 94.1319 243.361 94.959 243.81 95.4755C244.259 95.9921 245.042 96.3702 246.329 96.4602C247.295 96.5277 248.11 96.4231 248.627 95.974C249.143 95.525 249.51 94.9038 249.567 94.0992C249.6 93.6164 249.623 93.2946 249.496 92.8006C249.357 92.4675 249.058 92.1231 248.759 91.7788C248.459 91.4344 247.838 91.0675 247.067 90.5285C246.296 89.9894 245.686 89.4617 245.226 89.1061C244.766 88.7504 244.478 88.2452 244.351 87.7511C244.223 87.2571 244.096 86.7631 244.141 86.1194C244.198 85.3147 244.415 84.5214 244.943 83.9114C245.47 83.3015 246.148 82.8637 246.975 82.5981C247.802 82.3325 248.779 82.2391 249.905 82.3179C250.871 82.3854 251.836 82.453 252.63 82.6701C253.423 82.8873 254.217 83.1045 254.999 83.4826L254.13 86.6561L252.682 86.5548V86.5548ZM259.556 87.6824C259.785 86.7281 260.002 85.9348 260.047 85.2911C260.081 84.8083 259.942 84.4752 259.793 84.303C259.643 84.1308 259.171 83.9361 258.528 83.8911L258.745 83.0978L262.618 83.2069L263.584 83.2744L260.622 93.2552C260.394 94.2095 260.176 95.0028 260.143 95.4856C260.109 95.9684 260.098 96.1293 260.236 96.4624C260.386 96.6346 260.535 96.8068 260.857 96.8293C261.179 96.8518 261.512 96.7134 261.845 96.5749C262.19 96.2756 262.706 95.8266 263.395 95.2279L264.304 96.1C263.26 97.159 262.249 97.7352 261.572 98.1729C260.906 98.4498 260.239 98.7266 259.435 98.6703C258.791 98.6253 258.17 98.2585 257.882 97.7532C257.433 97.2367 257.317 96.5817 257.373 95.7771C257.429 94.9725 257.658 94.0182 258.07 92.7533L259.556 87.6824ZM265.288 77.4102L264.43 80.4228L261.694 80.2315L262.552 77.2189L265.288 77.4102ZM270.132 89.0688C270.361 88.1145 270.578 87.3212 270.612 86.8384C270.646 86.3556 270.657 86.1947 270.518 85.8616C270.369 85.6894 270.219 85.5172 269.897 85.4947C269.575 85.4722 269.242 85.6106 268.909 85.749C268.565 86.0484 268.048 86.4974 267.36 87.0961L266.45 86.2239C267.483 85.3259 268.344 84.5776 269.01 84.3007C269.688 83.863 270.343 83.747 271.147 83.8033C271.791 83.8483 272.263 84.043 272.712 84.5595C273 85.0648 273.288 85.5701 273.232 86.3747C273.198 86.8575 272.992 87.4899 272.775 88.2833L272.936 88.2946C274.002 86.9138 275.047 85.8548 276.057 85.2786C277.068 84.7024 278.056 84.4481 279.022 84.5156C279.987 84.5831 280.769 84.9613 281.218 85.4778C281.667 85.9943 281.933 86.8215 281.865 87.787C281.82 88.4307 281.592 89.385 281.191 90.489L279.933 94.6055C279.532 95.7095 279.315 96.5029 279.281 96.9856C279.248 97.4684 279.236 97.6294 279.375 97.9625C279.525 98.1346 279.674 98.3068 279.996 98.3293C280.318 98.3518 280.651 98.2134 280.984 98.075C281.329 97.7756 281.845 97.3266 282.534 96.7279L283.443 97.6001C282.41 98.4981 281.721 99.0968 280.883 99.5233C280.205 99.9611 279.39 100.066 278.585 100.009C277.941 99.9644 277.32 99.5976 277.032 99.0923C276.583 98.5758 276.467 97.9208 276.523 97.1162C276.568 96.4725 276.797 95.5182 277.22 94.0924L278.055 91.4017C278.444 90.4586 278.661 89.6652 278.695 89.1825C278.729 88.6997 278.912 88.3891 278.935 88.0672C278.98 87.4235 278.864 86.7686 278.726 86.4355C278.587 86.1024 278.116 85.9077 277.633 85.8739C277.15 85.8402 276.656 85.9673 276.151 86.2554C275.645 86.5435 274.968 86.9813 274.429 87.7522C273.74 88.3508 273.362 89.133 272.834 89.7429C272.467 90.3641 272.089 91.1462 271.861 92.1005L269.94 98.7581L267.204 98.5668L270.132 89.0688Z" fill="white"/>
<path d="M290.926 90.0378C291.086 90.049 291.42 89.9106 291.58 89.9219C291.741 89.9331 291.914 89.7835 291.914 89.7835C292.074 89.7947 292.086 89.6338 292.086 89.6338C292.097 89.4729 292.258 89.4841 292.269 89.3232C292.28 89.1623 292.292 89.0013 292.303 88.8404C292.314 88.6795 292.337 88.3576 292.359 88.0358L292.46 86.5875L286.023 86.1373L286.091 85.1718C287.33 83.6413 288.558 82.2718 289.797 80.7413C291.036 79.2108 292.264 77.8412 293.503 76.3108L295.273 76.4345L294.643 85.4463L294.803 85.4576C295.125 85.4801 295.447 85.5026 295.608 85.5139C295.769 85.5251 295.941 85.3755 296.102 85.3867C296.274 85.237 296.274 85.237 296.446 85.0873C296.458 84.9264 296.63 84.7768 296.813 84.4662L297.779 84.5337C297.745 85.0165 297.723 85.3383 297.689 85.8211C297.655 86.3039 297.633 86.6257 297.599 87.1085L294.863 86.9172L294.762 88.3655C294.728 88.8483 294.706 89.1701 294.694 89.3311C294.672 89.6529 294.661 89.8138 294.81 89.986C294.96 90.1582 294.96 90.1582 295.27 90.3416C295.431 90.3529 295.742 90.5363 296.064 90.5588L296.019 91.2025L291.03 90.8537L291.086 90.049L290.926 90.0378ZM288.205 84.9962L292.55 85.3001L292.708 83.0471C292.731 82.7253 292.753 82.4034 292.776 82.0815C292.798 81.7597 292.832 81.2769 292.854 80.9551C292.877 80.6332 292.911 80.1505 292.933 79.8286C292.956 79.5068 292.978 79.1849 293.001 78.863L292.84 78.8518C291.956 79.922 291.245 80.8425 290.362 81.9128C289.811 82.8445 289.089 83.926 288.205 84.9962Z" fill="white"/>
<path d="M310.781 102.099C309.172 101.987 308.079 101.425 307.342 100.403C306.605 99.3814 306.385 97.9105 306.52 95.9794C306.587 95.0139 306.838 93.7377 307.112 92.1397C307.374 90.7027 307.969 89.1272 308.564 87.5517C309.16 85.9762 310.066 84.5841 310.949 83.5139C311.844 82.2828 312.877 81.3847 314.048 80.8198C315.22 80.2549 316.369 80.0118 317.656 80.1018C320.714 80.3156 322.027 82.348 321.757 86.2102C321.678 87.3367 321.427 88.6128 321.165 90.0499C320.742 91.4757 320.307 93.0625 319.712 94.638C319.117 96.2135 318.222 97.4446 317.327 98.6757C316.433 99.9069 315.411 100.644 314.24 101.209C313.218 101.946 312.069 102.189 310.781 102.099ZM317.789 92.0778L310.225 91.5489C309.585 93.7681 309.128 95.6767 309.016 97.2859C308.937 98.4124 309.03 99.3892 309.318 99.8945C309.606 100.4 310.228 100.767 311.032 100.823C312.159 100.902 313.342 100.176 314.581 98.6454C315.808 97.2758 316.77 95.0791 317.789 92.0778ZM310.66 89.9622L318.223 90.4911C318.864 88.2719 319.32 86.3633 319.422 84.9149C319.5 83.7885 319.396 82.9726 319.108 82.4673C318.82 81.962 318.198 81.5952 317.555 81.5501C316.267 81.4601 315.085 82.186 314.018 83.5668C312.618 85.086 311.656 87.2827 310.66 89.9622ZM347.932 81.8955L333.022 110.123L330.93 109.976L345.84 81.7492L347.932 81.8955Z" fill="white"/>
<path d="M365.365 103.167C365.848 103.201 366.331 103.235 366.664 103.096C366.986 103.119 367.319 102.98 367.491 102.831C367.663 102.681 367.835 102.531 368.019 102.221C368.191 102.071 368.386 101.599 368.58 101.128L369.868 101.218L369.231 105.701L356.357 104.801L356.413 103.996C356.975 102.904 357.697 101.822 358.42 100.741C359.303 99.6706 360.37 98.2898 361.919 96.9427C363.297 95.7453 364.18 94.6751 364.708 94.0652C365.408 93.3056 365.775 92.6844 366.13 92.2241C366.486 91.7639 366.692 91.1314 366.887 90.6599C367.081 90.1884 367.115 89.7056 367.149 89.2228C367.205 88.4182 367.089 87.7632 366.973 87.1083C366.697 86.4421 366.408 85.9368 365.948 85.5812C365.488 85.2256 364.855 85.0196 364.051 84.9634C362.12 84.8283 360.754 85.8648 359.803 87.9005L357.872 87.7655L358.085 84.7079C359.418 84.1543 360.567 83.9112 361.716 83.6681C362.865 83.425 363.83 83.4925 364.635 83.5488C366.566 83.6838 367.981 84.2679 368.89 85.14C369.799 86.0122 370.192 87.3333 370.079 88.9426C370.046 89.4254 370.001 90.0691 369.806 90.5406C369.611 91.0121 369.417 91.4836 369.222 91.9552C369.027 92.4267 368.672 92.8869 368.155 93.336C367.799 93.7962 367.272 94.4062 366.755 94.8552C366.239 95.3042 365.366 96.2135 363.989 97.4109C361.912 99.3679 360.339 101.037 359.261 102.579L365.377 103.006L365.365 103.167Z" fill="white"/>
<path d="M374.333 74.3625L242.375 65.135L242.228 67.227L374.187 76.4545L374.333 74.3625Z" fill="white"/>
</g>
</svg>
