<svg width="572" height="685" viewBox="0 0 572 685" fill="none" xmlns="http://www.w3.org/2000/svg">
<path d="M570.295 683.709C572.738 455.822 567.851 228.03 570.295 0.190903" stroke="#A5D936" stroke-width="2" stroke-miterlimit="10"/>
<path d="M549.679 683.709C562.392 568.526 560.178 457.014 549.679 341.926C539.181 226.838 536.967 115.374 549.679 0.190902" stroke="#A5D936" stroke-width="2" stroke-miterlimit="10"/>
<path d="M529.027 683.709C553.345 566.476 548.688 458.968 529.027 341.926C509.366 224.884 504.708 117.424 529.027 0.190902" stroke="#A5D936" stroke-width="2" stroke-miterlimit="10"/>
<path d="M508.372 683.709C525.8 626.651 534.852 566.138 535.096 505.07C535.363 447.86 521.505 396.276 508.372 341.926C496.309 291.486 482.107 241.808 481.84 188.841C481.195 124.442 490.193 60.4607 508.372 0.190902" stroke="#A5D936" stroke-width="2" stroke-miterlimit="10"/>
<path d="M487.719 683.709C510.636 626.758 522.337 563.799 521.849 500.064C521.543 443.617 503.6 393.987 487.719 341.926C473.021 293.679 454.963 245.765 453.665 193.609C451.846 126.59 463.557 60.0763 487.719 0.190901" stroke="#A5D936" stroke-width="2" stroke-miterlimit="10"/>
<path d="M467.218 683.709C494.247 627.929 508.716 570.099 508.448 504.832C508.219 444.904 486.84 395.465 467.218 341.926C449.16 292.63 427.209 243.668 426.063 188.603C424.575 119.998 438.814 58.6883 467.218 0.190901" stroke="#A5D936" stroke-width="2" stroke-miterlimit="10"/>
<path d="M446.412 683.709C477.526 629.312 495.125 572.006 494.247 504.832C493.483 443.808 468.707 394.798 446.412 341.926C425.911 293.297 400.6 244.621 398.729 188.603C396.324 117.996 413.771 57.258 446.412 0.190901" stroke="#A5D936" stroke-width="2" stroke-miterlimit="10"/>
<path d="M425.759 683.709C461.454 629.455 482.413 571.1 479.702 500.017C477.45 440.709 449.161 391.747 425.759 341.926C403.845 295.395 375.709 248.149 372.312 193.037C367.807 118.616 388.155 57.2103 425.759 0.1909" stroke="#A5D936" stroke-width="2" stroke-miterlimit="10"/>
<path d="M405.104 683.709C443.281 632.315 467.676 576.058 464.889 504.498C462.446 441.996 431.408 392.843 405.104 341.926C380.404 294.251 349.825 246.576 345.931 188.317C340.968 113.324 365.019 54.3022 405.104 0.1909" stroke="#A5D936" stroke-width="2" stroke-miterlimit="10"/>
<path d="M384.452 683.709C426.446 632.649 454.391 575.2 449.008 500.017C444.579 439.04 411.595 390.793 384.452 341.926C359.217 296.539 326.156 248.864 320.544 192.608C312.909 114.23 340.434 53.6824 384.452 0.1909" stroke="#A5D936" stroke-width="2" stroke-miterlimit="10"/>
<path d="M363.798 683.709C409.266 633.269 441.144 574.533 432.516 495.726C426.14 436.656 391.171 388.457 363.798 341.926C336.426 295.395 301.265 247.291 295.081 188.126C286.644 109.176 318.254 50.8219 363.798 0.1909" stroke="#A5D936" stroke-width="2" stroke-miterlimit="10"/>
<path d="M343.145 683.709C390.828 634.842 426.79 576.487 416.024 495.726C408.122 436.323 371.739 388.123 343.145 341.926C314.551 295.729 278.245 247.577 270.266 188.126C259.615 107.078 295.196 49.2963 343.145 0.1909" stroke="#A5D936" stroke-width="2" stroke-miterlimit="10"/>
<path d="M322.491 683.709C371.052 637.464 410.984 581.255 399.57 500.017C390.865 438.039 352.88 389.267 322.491 341.926C293.515 296.825 257.247 250.008 246.94 191.94C231.669 107.507 271.373 48.9147 322.491 1.27138e-05" stroke="#A5D936" stroke-width="2" stroke-miterlimit="10"/>
<path d="M301.838 683.709C350.589 640.229 395.027 585.069 382.734 504.069C373.113 440.613 333.639 390.03 301.838 341.974C271.297 295.824 233.998 247.72 222.507 187.935C206.244 103.503 250.414 46.0542 301.838 0.238398" stroke="#A5D936" stroke-width="2" stroke-miterlimit="10"/>
<path d="M281.183 683.709C332.76 640.42 381.244 584.449 363.912 500.017C351.352 438.659 312.946 389.124 281.183 341.926C250.947 296.825 213.878 249.15 199.982 191.94C179.023 104.313 226.705 46.0543 281.069 0.333841" stroke="#A5D936" stroke-width="2" stroke-miterlimit="10"/>
<path d="M260.53 683.709C314.703 640.801 366.814 583.591 344.518 496.155C329.515 437.181 291.873 388.028 260.53 341.926C229.187 295.824 191.813 246.576 176.542 187.745C153.636 100.69 206.778 43.0032 260.53 0.190899" stroke="#A5D936" stroke-width="2" stroke-miterlimit="10"/>
<path d="M239.877 683.709C291.454 640.42 339.938 584.449 322.606 500.017C310.045 438.659 271.64 389.124 239.877 341.926C209.641 296.825 172.572 249.15 158.79 191.94C137.831 104.313 185.514 46.0543 239.877 0.333841" stroke="#A5D936" stroke-width="2" stroke-miterlimit="10"/>
<path d="M219.07 683.709C267.822 640.229 312.259 585.069 299.966 504.069C290.346 440.613 250.871 390.03 219.07 341.974C188.529 295.824 151.231 247.72 139.739 187.935C123.476 103.503 167.646 46.0542 219.07 0.238398" stroke="#A5D936" stroke-width="2" stroke-miterlimit="10"/>
<path d="M198.57 683.709C247.131 637.464 287.064 581.255 275.649 500.017C266.945 438.039 228.959 389.267 198.57 341.926C169.442 296.825 133.403 250.008 123.019 191.94C107.749 107.507 147.414 48.9147 198.57 1.27137e-05" stroke="#A5D936" stroke-width="2" stroke-miterlimit="10"/>
<path d="M177.917 683.709C225.599 634.842 261.523 576.487 250.796 495.726C242.855 436.323 206.511 388.123 177.917 341.926C149.323 295.729 112.826 247.577 105.038 188.126C94.3867 107.078 129.967 49.2963 177.917 0.1909" stroke="#A5D936" stroke-width="2" stroke-miterlimit="10"/>
<path d="M157.262 683.709C202.73 633.269 234.608 574.533 225.98 495.726C219.604 436.656 184.597 388.457 157.262 341.926C129.928 295.395 94.6909 247.291 88.5445 188.126C80.1456 109.176 111.718 50.8219 157.262 0.1909" stroke="#A5D936" stroke-width="2" stroke-miterlimit="10"/>
<path d="M136.61 683.709C178.604 632.649 206.549 575.2 201.128 500.017C196.738 439.04 163.753 390.793 136.61 341.926C111.375 296.539 78.3141 248.864 72.7022 192.608C65.0669 114.23 92.5923 53.6824 136.61 0.1909" stroke="#A5D936" stroke-width="2" stroke-miterlimit="10"/>
<path d="M115.995 683.709C154.171 632.315 178.528 576.058 175.741 504.498C173.336 441.996 142.298 392.843 115.995 341.926C91.2565 294.251 60.7153 246.576 56.8213 188.317C51.8202 113.324 75.9095 54.3022 115.995 0.1909" stroke="#A5D936" stroke-width="2" stroke-miterlimit="10"/>
<path d="M95.3033 683.709C130.998 629.455 151.919 571.1 149.247 500.017C146.994 440.709 118.705 391.747 95.3033 341.926C73.3518 295.395 45.2539 248.149 41.8562 193.037C37.3514 118.616 57.6994 57.2103 95.3033 0.1909" stroke="#A5D936" stroke-width="2" stroke-miterlimit="10"/>
<path d="M74.6485 683.709C105.762 629.312 123.324 572.006 122.484 504.832C121.682 443.808 96.9054 394.798 74.6485 341.926C54.1095 293.297 28.8367 244.621 26.9278 188.603C24.5609 117.996 42.1984 57.258 74.6485 0.190901" stroke="#A5D936" stroke-width="2" stroke-miterlimit="10"/>
<path d="M53.9952 683.709C81.0242 627.929 95.4548 570.099 95.1876 504.832C94.9585 444.904 73.5798 395.465 53.9952 341.926C35.8232 292.63 13.9862 243.668 12.9173 188.603C11.4665 119.998 25.7063 58.6883 54.1096 0.190901" stroke="#A5D936" stroke-width="2" stroke-miterlimit="10"/>
<path d="M33.3428 683.709C56.2465 626.754 67.9344 563.795 67.4346 500.064C67.1674 443.617 49.1861 393.987 33.3428 341.926C18.6067 293.679 0.587434 245.765 -0.710569 193.609C-2.52952 126.59 9.18089 60.0763 33.3428 0.190901" stroke="#A5D936" stroke-width="2" stroke-miterlimit="10"/>
<path d="M12.689 683.709C30.098 626.644 39.1499 566.135 39.4125 505.07C39.6798 447.86 25.7835 396.276 12.689 341.926C0.587035 291.486 -13.6146 241.808 -14.0346 188.841C-14.6366 124.426 -5.57252 60.4392 12.689 0.190902" stroke="#A5D936" stroke-width="2" stroke-miterlimit="10"/>
<path d="M-7.96388 683.709C16.3164 566.476 11.6588 458.968 -7.9639 341.926C-27.5866 224.884 -32.2823 117.424 -7.96391 0.190902" stroke="#A5D936" stroke-width="2" stroke-miterlimit="10"/>
</svg>
