<svg width="193" height="171" viewBox="0 0 193 171" fill="black" xmlns="http://www.w3.org/2000/svg">
    <path opacity="0.1"
        d="M4.19101 131.458C12.6906 163.179 38.3053 175.668 61.5552 169.438C82.8264 163.739 95.9274 141.398 90.3046 120.414C84.6818 99.4294 66.0494 89.2536 47.2516 94.2904C43.2941 95.3508 38.9728 97.0318 37.7503 98.4054C37.4949 79.6441 50.306 54.2433 63.9128 41.7056L30.9519 27.5233C5.90462 56.7258 -5.61615 94.857 4.19101 131.458ZM105.106 104.418C113.605 136.139 138.725 148.761 161.975 142.531C183.741 136.699 196.347 114.491 190.724 93.5065C185.102 72.522 166.469 62.3462 148.166 67.2505C144.209 68.3109 139.887 69.9918 138.665 71.3655C137.915 52.7367 151.221 27.2033 164.827 14.6656L131.372 0.61584C106.324 29.8184 95.2984 67.8171 105.106 104.418Z"
        fill="black" />
</svg>