<svg width="1440" height="192" viewBox="0 0 1440 192" fill="none" xmlns="http://www.w3.org/2000/svg">
<path d="M-19.0881 217.678L-18.5699 217.515L-18.4242 216.992C-17.4834 213.613 -16.532 210.232 -15.5701 206.851C-9.25373 204.832 -2.9434 202.766 3.361 200.655C4.73229 203.144 6.10247 205.632 7.47143 208.119L7.87492 208.853L8.6677 208.585C13.3577 206.999 18.0453 205.4 22.7305 203.787L23.9012 203.384L23.2607 202.324C14.9107 188.509 6.556 174.651 -1.80357 160.748L-2.21675 160.061L-2.97726 160.315C-7.41087 161.796 -11.8479 163.25 -16.2882 164.679L-16.7833 164.838L-16.9371 165.335C-22.6724 183.864 -28.4163 202.3 -34.1689 220.646L-34.7308 222.438L-32.9303 221.904C-28.3131 220.534 -23.699 219.125 -19.0881 217.678ZM-8.03541 179.66C-6.15622 183.109 -4.27784 186.557 -2.40027 190.005C-5.5253 191.044 -8.65035 192.074 -11.7754 193.093C-10.53 188.619 -9.28328 184.142 -8.03541 179.66Z" stroke="#A5D936" stroke-width="2"/>
<path d="M94.3848 128.812L94.285 127.567L93.0915 127.937C88.5715 129.341 84.0551 130.774 79.5425 132.236L78.7909 132.48L78.854 133.267L80.2588 150.802C74.7596 152.595 69.2648 154.416 63.7744 156.267L62.409 139.224L62.3065 137.944L61.0908 138.356C56.5863 139.885 52.0813 141.423 47.5757 142.97L46.8417 143.222L46.9036 143.995L50.8104 192.759L50.9134 194.044L52.1325 193.625C56.6327 192.077 61.1351 190.54 65.6397 189.014L66.378 188.764L66.3157 187.987L64.8544 169.747C70.3459 167.884 75.8405 166.06 81.3383 164.276L82.7607 182.031L82.8618 183.293L84.0663 182.902C88.5706 181.44 93.0788 180.009 97.5907 178.611L98.3555 178.374L98.2915 177.576L94.3848 128.812Z" stroke="#A5D936" stroke-width="2"/>
<path d="M117.344 172.757L117.883 172.606L118.035 172.067C118.977 168.736 119.929 165.408 120.891 162.083C127.217 160.336 133.553 158.703 139.899 157.184L144.081 165.086L144.441 165.765L145.19 165.592C149.905 164.502 154.627 163.489 159.357 162.55L160.717 162.281L160.032 161.075C151.599 146.242 143.177 131.568 134.767 117.055L134.391 116.406L133.664 116.585C129.188 117.681 124.715 118.834 120.246 120.041L119.719 120.184L119.554 120.704C113.786 138.877 108.029 157.157 102.281 175.543L101.717 177.348L103.526 176.798C108.127 175.401 112.733 174.054 117.344 172.757ZM124.697 148.591C125.951 144.201 127.205 139.817 128.458 135.438C130.349 139.005 132.242 142.579 134.135 146.16C130.987 146.944 127.842 147.754 124.697 148.591Z" stroke="#A5D936" stroke-width="2"/>
<path d="M208.604 106.497L209.265 105.01L207.64 105.092C203.135 105.32 198.637 105.642 194.145 106.056L193.536 106.113L193.308 106.68C190.266 114.276 187.228 121.926 184.195 129.632C180.142 122.853 176.093 116.123 172.05 109.443L171.701 108.868L171.037 108.973C166.204 109.74 161.377 110.593 156.556 111.534L155.06 111.825L155.923 113.081C163.007 123.39 170.1 133.849 177.203 144.459C176.654 145.391 175.944 146.22 175.104 146.906C174.222 147.574 173.187 148.011 172.093 148.176C170.555 148.381 168.996 148.375 167.459 148.161L166.549 148.034L166.346 148.931C165.535 152.511 164.725 156.097 163.915 159.688L163.695 160.666L164.673 160.884C167.654 161.55 170.733 161.664 173.755 161.222L173.763 161.221L173.77 161.22C177.601 160.601 181.18 158.913 184.095 156.352C187.14 153.735 189.579 150.212 191.433 145.825C197.143 132.514 202.867 119.405 208.604 106.497Z" stroke="#A5D936" stroke-width="2"/>
<path d="M232.234 154.443L230.827 136.871C232.388 136.9 233.95 136.947 235.513 137.01C239.645 143.239 243.783 149.549 247.926 155.939L248.194 156.352L248.684 156.392C253.907 156.816 259.145 157.405 264.397 158.16L266.567 158.472L265.381 156.629C259.599 147.645 253.829 138.82 248.07 130.153C252.48 122.923 256.901 115.844 261.333 108.914L262.17 107.605L260.631 107.385C255.698 106.682 250.773 106.12 245.859 105.701L245.224 105.647L244.907 106.2C241.569 112.01 238.249 117.903 234.946 123.879C233.22 123.812 231.495 123.76 229.773 123.724L228.328 105.679L228.255 104.774L227.347 104.759C222.72 104.682 218.103 104.715 213.496 104.857L212.447 104.89L212.531 105.937L216.437 154.7L216.513 155.649L217.465 155.62C222.043 155.478 226.628 155.446 231.221 155.522L232.322 155.541L232.234 154.443Z" stroke="#A5D936" stroke-width="2"/>
<path d="M282.748 161.485L283.6 161.673L283.901 160.853C284.853 158.265 285.805 155.684 286.758 153.112C293.357 154.697 299.981 156.586 306.629 158.779C308.144 162.24 309.658 165.71 311.173 169.19L311.347 169.591L311.759 169.735C316.694 171.461 321.642 173.366 326.603 175.45L328.955 176.438L327.901 174.115C319.102 154.717 310.334 135.715 301.595 117.109L301.409 116.711L300.99 116.58C296.299 115.104 291.618 113.772 286.947 112.584L286.113 112.371L285.778 113.165C279.709 127.57 273.666 142.315 267.649 157.399L267.186 158.559L268.42 158.757C273.181 159.52 277.957 160.429 282.748 161.485ZM290.787 142.095C292.102 138.565 293.418 135.053 294.736 131.559C296.685 135.972 298.635 140.404 300.585 144.855C297.314 143.863 294.048 142.943 290.787 142.095Z" stroke="#A5D936" stroke-width="2"/>
<path d="M122.676 239.307L123.215 239.155L123.367 238.616C124.308 235.285 125.26 231.957 126.223 228.632C132.549 226.885 138.885 225.252 145.231 223.733L149.413 231.635L149.773 232.315L150.522 232.141C155.237 231.052 159.959 230.038 164.689 229.1L166.049 228.83L165.363 227.625C156.93 212.791 148.509 198.118 140.099 183.604L139.723 182.956L138.995 183.134C134.52 184.231 130.047 185.383 125.578 186.591L125.051 186.733L124.886 187.254C119.118 205.426 113.361 223.706 107.613 242.092L107.049 243.897L108.858 243.348C113.459 241.95 118.064 240.604 122.676 239.307ZM130.029 215.14C131.283 210.751 132.536 206.367 133.789 201.988C135.681 205.554 137.573 209.128 139.466 212.71C136.319 213.494 133.173 214.304 130.029 215.14Z" stroke="#A5D936" stroke-width="2"/>
<path d="M213.936 173.047L214.597 171.559L212.972 171.642C208.467 171.87 203.969 172.191 199.476 172.606L198.867 172.662L198.64 173.23C195.598 180.825 192.56 188.476 189.527 196.181C185.473 189.403 181.425 182.673 177.381 175.992L177.033 175.417L176.369 175.522C171.536 176.289 166.709 177.143 161.887 178.083L160.391 178.375L161.254 179.631C168.338 189.94 175.431 200.399 182.534 211.008C181.986 211.94 181.276 212.77 180.436 213.456C179.554 214.124 178.519 214.561 177.425 214.726C175.887 214.93 174.328 214.925 172.791 214.711L171.88 214.584L171.678 215.48C170.867 219.061 170.057 222.647 169.247 226.238L169.026 227.215L170.004 227.434C172.986 228.099 176.064 228.214 179.087 227.772L179.094 227.771L179.102 227.77C182.933 227.151 186.511 225.463 189.426 222.901C192.471 220.284 194.91 216.762 196.765 212.375C202.475 199.064 208.199 185.955 213.936 173.047Z" stroke="#A5D936" stroke-width="2"/>
<path d="M237.566 220.992L236.158 203.421C237.72 203.45 239.282 203.496 240.845 203.56C244.977 209.789 249.115 216.099 253.257 222.488L253.525 222.901L254.016 222.941C259.238 223.365 264.476 223.955 269.729 224.71L271.898 225.022L270.712 223.179C264.931 214.195 259.16 205.37 253.402 196.703C257.812 189.473 262.233 182.393 266.664 175.464L267.502 174.154L265.963 173.935C261.029 173.231 256.105 172.67 251.191 172.251L250.556 172.197L250.239 172.749C246.901 178.559 243.58 184.453 240.278 190.428C238.551 190.361 236.827 190.31 235.105 190.273L233.659 172.228L233.587 171.324L232.679 171.308C228.052 171.231 223.435 171.264 218.828 171.407L217.778 171.439L217.862 172.486L221.769 221.25L221.845 222.199L222.797 222.17C227.374 222.028 231.96 221.995 236.552 222.072L237.654 222.09L237.566 220.992Z" stroke="#A5D936" stroke-width="2"/>
<path d="M288.079 228.034L288.932 228.222L289.233 227.403C290.185 224.814 291.137 222.234 292.09 219.662C298.689 221.247 305.312 223.136 311.96 225.328C313.475 228.789 314.99 232.26 316.504 235.74L316.678 236.14L317.091 236.284C322.025 238.011 326.973 239.916 331.935 242L334.287 242.987L333.233 240.665C324.434 221.267 315.665 202.265 306.927 183.658L306.74 183.261L306.322 183.129C301.631 181.654 296.95 180.322 292.278 179.133L291.444 178.921L291.11 179.714C285.041 194.12 278.998 208.865 272.981 223.948L272.518 225.108L273.751 225.306C278.513 226.069 283.288 226.979 288.079 228.034ZM296.119 208.645C297.434 205.115 298.75 201.603 300.068 198.108C302.017 202.521 303.966 206.953 305.917 211.405C302.646 210.412 299.38 209.492 296.119 208.645Z" stroke="#A5D936" stroke-width="2"/>
<path d="M396.885 138.531L396.825 137.781L396.088 137.631C391.407 136.678 386.708 135.581 381.993 134.341L380.629 133.983L380.742 135.388L382.097 152.301C376.334 150.74 370.549 148.945 364.743 146.914L363.326 129.226L363.274 128.579L362.661 128.363C357.92 126.694 353.164 124.856 348.392 122.85L346.876 122.213L347.008 123.852L350.914 172.615L350.963 173.224L351.526 173.458C356.328 175.461 361.119 177.312 365.901 179.012L367.356 179.529L367.233 177.99L365.831 160.502C371.632 162.503 377.415 164.279 383.18 165.828L384.648 184.14L384.704 184.846L385.389 185.027C390.135 186.283 394.871 187.392 399.595 188.355L400.898 188.62L400.792 187.295L396.885 138.531Z" stroke="#A5D936" stroke-width="2"/>
<path d="M420.188 191.686L420.99 191.782L421.253 191.019C422.201 188.265 423.158 185.502 424.124 182.73C430.655 183.388 437.169 183.811 443.665 183.998C445.111 187.008 446.565 190.01 448.025 193.003L448.296 193.557L448.912 193.564C453.748 193.625 458.574 193.565 463.389 193.385L464.986 193.325L464.234 191.915C455.712 175.94 447.167 159.686 438.597 143.152L438.33 142.636L437.749 142.613C433.195 142.432 428.631 142.137 424.056 141.728L423.303 141.661L423.033 142.367C417.065 157.968 411.07 173.24 405.047 188.183L404.587 189.326L405.8 189.541C410.605 190.396 415.401 191.111 420.188 191.686ZM428.08 170.995C429.383 167.157 430.684 163.304 431.984 159.434C433.922 163.518 435.859 167.588 437.794 171.642C434.562 171.483 431.324 171.268 428.08 170.995Z" stroke="#A5D936" stroke-width="2"/>
<path d="M512.853 137.87L513.552 136.165L511.741 136.508C507.311 137.35 502.876 138.113 498.436 138.797L497.864 138.885L497.656 139.424C494.631 147.237 491.603 154.994 488.571 162.696C484.517 155.885 480.458 149.019 476.397 142.099L476.077 141.553L475.446 141.609C470.613 142.038 465.77 142.356 460.917 142.564L459.185 142.638L460.116 144.1C467.281 155.357 474.43 166.438 481.562 177.341C481.022 178.225 480.32 179 479.491 179.625C478.606 180.231 477.574 180.588 476.504 180.658C474.941 180.737 473.375 180.588 471.856 180.214L470.877 179.973L470.644 180.954C469.821 184.416 468.999 187.872 468.179 191.324L467.965 192.223L468.845 192.507C472.108 193.558 475.171 193.987 478.022 193.758L478.024 193.758C481.876 193.44 485.529 191.911 488.459 189.389C491.513 186.815 493.953 183.282 495.806 178.84C501.499 165.368 507.181 151.711 512.853 137.87Z" stroke="#A5D936" stroke-width="2"/>
<path d="M533.698 151.107L532.273 133.319L532.18 132.161L531.048 132.426C526.538 133.481 522.023 134.466 517.504 135.383L516.635 135.559L516.705 136.442L520.612 185.21L520.703 186.335L521.808 186.11C526.347 185.188 530.881 184.198 535.41 183.141L536.249 182.945L536.18 182.087L534.753 164.273C536.332 163.903 537.909 163.526 539.485 163.14C543.491 168.298 547.5 173.42 551.513 178.504L551.92 179.021L552.555 178.851C557.663 177.488 562.767 176.065 567.868 174.581L569.327 174.156L568.36 172.984C562.776 166.218 557.186 159.388 551.589 152.492C555.882 143.49 560.169 134.434 564.45 125.324L565.392 123.319L563.265 123.939C558.521 125.321 553.774 126.647 549.024 127.916L548.567 128.038L548.372 128.469C545.112 135.649 541.86 142.801 538.618 149.924C536.978 150.326 535.338 150.72 533.698 151.107Z" stroke="#A5D936" stroke-width="2"/>
<path d="M585.603 169.233L586.121 169.07L586.266 168.547C587.207 165.167 588.159 161.787 589.121 158.406C595.437 156.387 601.747 154.321 608.052 152.209C609.423 154.699 610.793 157.187 612.162 159.674L612.566 160.407L613.358 160.139C618.048 158.554 622.736 156.955 627.421 155.342L628.592 154.938L627.951 153.879C619.601 140.064 611.247 126.205 602.887 112.303L602.474 111.616L601.713 111.87C597.28 113.35 592.843 114.805 588.402 116.234L587.907 116.393L587.754 116.89C582.018 135.418 576.274 153.855 570.522 172.2L569.96 173.993L571.76 173.458C576.378 172.089 580.992 170.68 585.603 169.233ZM596.655 131.215C598.534 134.664 600.413 138.112 602.29 141.56C599.165 142.599 596.04 143.628 592.915 144.648C594.161 140.174 595.407 135.697 596.655 131.215Z" stroke="#A5D936" stroke-width="2"/>
<path d="M699.076 80.3669L698.976 79.1211L697.782 79.4917C693.262 80.8951 688.746 82.328 684.233 83.7905L683.482 84.0341L683.545 84.8217L684.95 102.356C679.451 104.149 673.956 105.971 668.465 107.821L667.1 90.778L666.997 89.4984L665.782 89.9109C661.277 91.4396 656.772 92.9773 652.267 94.5242L651.533 94.7762L651.595 95.5498L655.501 144.314L655.604 145.599L656.823 145.179C661.324 143.631 665.826 142.094 670.331 140.569L671.069 140.319L671.007 139.542L669.545 121.301C675.037 119.438 680.531 117.615 686.029 115.83L687.452 133.585L687.553 134.848L688.757 134.457C693.262 132.994 697.77 131.564 702.282 130.166L703.046 129.929L702.982 129.131L699.076 80.3669Z" stroke="#A5D936" stroke-width="2"/>
<path d="M722.035 124.312L722.574 124.16L722.726 123.621C723.668 120.291 724.619 116.963 725.582 113.637C731.908 111.891 738.244 110.258 744.59 108.738L748.772 116.64L749.132 117.32L749.881 117.147C754.596 116.057 759.318 115.043 764.048 114.105L765.408 113.835L764.723 112.63C756.29 97.7965 747.868 83.123 739.458 68.6093L739.082 67.9611L738.355 68.1394C733.879 69.2361 729.406 70.3883 724.937 71.5962L724.41 71.7386L724.245 72.259C718.477 90.4317 712.72 108.711 706.972 127.098L706.408 128.902L708.217 128.353C712.818 126.956 717.424 125.609 722.035 124.312ZM729.388 100.145C730.642 95.756 731.895 91.3719 733.149 86.9931C735.04 90.5596 736.933 94.1336 738.826 97.7151C735.678 98.4989 732.533 99.309 729.388 100.145Z" stroke="#A5D936" stroke-width="2"/>
<path d="M813.295 58.0518L813.956 56.5646L812.331 56.6469C807.826 56.8751 803.328 57.1965 798.836 57.611L798.227 57.6672L797.999 58.235C794.957 65.8304 791.919 73.481 788.886 81.1865C784.833 74.4077 780.784 67.678 776.741 60.9974L776.392 60.4222L775.728 60.5276C770.895 61.2945 766.068 62.1481 761.247 63.0883L759.751 63.38L760.614 64.6361C767.697 74.9451 774.791 85.4041 781.894 96.0133C781.345 96.9456 780.635 97.7747 779.795 98.4611C778.913 99.129 777.878 99.5657 776.784 99.7312C775.246 99.9353 773.687 99.9302 772.15 99.7158L771.24 99.5888L771.037 100.485C770.226 104.066 769.416 107.652 768.606 111.243L768.386 112.22L769.364 112.439C772.345 113.104 775.423 113.219 778.446 112.777L778.454 112.776L778.461 112.775C782.292 112.156 785.871 110.468 788.786 107.906C791.831 105.29 794.269 101.767 796.124 97.3796C801.834 84.069 807.558 70.9598 813.295 58.0518Z" stroke="#A5D936" stroke-width="2"/>
<path d="M836.925 105.997L835.517 88.426C837.079 88.4551 838.641 88.5014 840.204 88.5647C844.336 94.7941 848.474 101.104 852.617 107.493L852.884 107.906L853.375 107.946C858.598 108.37 863.836 108.96 869.088 109.715L871.257 110.027L870.072 108.184C864.29 99.2 858.52 90.3747 852.761 81.7078C857.171 74.4782 861.592 67.3985 866.024 60.4687L866.861 59.1594L865.322 58.94C860.388 58.2363 855.464 57.675 850.55 57.2561L849.915 57.202L849.598 57.7543C846.26 63.5646 842.94 69.4576 839.637 75.4336C837.911 75.3665 836.186 75.3148 834.464 75.2785L833.018 57.2336L832.946 56.3287L832.038 56.3136C827.411 56.2365 822.794 56.2693 818.187 56.4119L817.138 56.4443L817.221 57.4912L821.128 106.255L821.204 107.204L822.156 107.175C826.734 107.033 831.319 107 835.912 107.077L837.013 107.095L836.925 105.997Z" stroke="#A5D936" stroke-width="2"/>
<path d="M887.439 113.039L888.291 113.227L888.592 112.408C889.544 109.819 890.496 107.239 891.449 104.667C898.048 106.252 904.672 108.141 911.32 110.334C912.835 113.794 914.349 117.265 915.863 120.745L916.038 121.145L916.45 121.29C921.384 123.016 926.332 124.921 931.294 127.005L933.646 127.992L932.592 125.67C923.793 106.272 915.025 87.2697 906.286 68.6633L906.1 68.2662L905.681 68.1345C900.99 66.6589 896.309 65.3268 891.638 64.1383L890.804 63.9261L890.469 64.7192C884.4 79.125 878.357 93.8697 872.34 108.953L871.877 110.113L873.111 110.311C877.872 111.074 882.648 111.984 887.439 113.039ZM895.478 93.6499C896.793 90.1199 898.109 86.6078 899.427 83.1136C901.376 87.5263 903.326 91.9583 905.276 96.4097C902.005 95.4173 898.739 94.4974 895.478 93.6499Z" stroke="#A5D936" stroke-width="2"/>
<path d="M402.217 205.081L402.157 204.331L401.419 204.181C396.738 203.228 392.04 202.131 387.324 200.891L385.961 200.532L386.073 201.938L387.428 218.85C381.665 217.29 375.881 215.494 370.074 213.464L368.657 195.776L368.605 195.128L367.993 194.912C363.252 193.243 358.495 191.405 353.723 189.399L352.208 188.762L352.339 190.401L356.246 239.165L356.295 239.773L356.858 240.008C361.66 242.01 366.451 243.861 371.232 245.561L372.687 246.079L372.564 244.539L371.163 227.051C376.963 229.053 382.746 230.828 388.512 232.377L389.979 250.69L390.036 251.396L390.72 251.577C395.467 252.832 400.203 253.941 404.927 254.904L406.23 255.17L406.123 253.845L402.217 205.081Z" stroke="#A5D936" stroke-width="2"/>
<path d="M539.029 217.657L537.604 199.869L537.512 198.71L536.38 198.975C531.869 200.03 527.354 201.016 522.835 201.932L521.966 202.108L522.037 202.992L525.944 251.76L526.034 252.885L527.14 252.66C531.678 251.737 536.212 250.747 540.742 249.69L541.58 249.495L541.511 248.637L540.084 230.822C541.663 230.453 543.24 230.075 544.816 229.689C548.823 234.848 552.832 239.969 556.844 245.054L557.251 245.57L557.887 245.401C562.995 244.038 568.099 242.614 573.199 241.13L574.659 240.706L573.691 239.534C568.108 232.768 562.517 225.937 556.921 219.041C561.213 210.04 565.5 200.984 569.782 191.874L570.724 189.868L568.597 190.488C563.853 191.871 559.106 193.197 554.356 194.466L553.899 194.588L553.703 195.019C550.443 202.198 547.192 209.35 543.949 216.474C542.309 216.876 540.669 217.27 539.029 217.657Z" stroke="#A5D936" stroke-width="2"/>
<path d="M590.934 235.782L591.452 235.62L591.598 235.096C592.539 231.717 593.49 228.337 594.452 224.956C600.768 222.936 607.079 220.871 613.383 218.759C614.755 221.248 616.125 223.736 617.494 226.224L617.897 226.957L618.69 226.689C623.38 225.104 628.067 223.504 632.753 221.891L633.923 221.488L633.283 220.428C624.933 206.613 616.578 192.755 608.219 178.853L607.805 178.166L607.045 178.419C602.611 179.9 598.174 181.354 593.734 182.783L593.239 182.943L593.085 183.44C587.35 201.968 581.606 220.405 575.853 238.75L575.291 240.542L577.092 240.008C581.709 238.638 586.323 237.23 590.934 235.782ZM601.987 197.765C603.866 201.213 605.744 204.662 607.622 208.109C604.497 209.148 601.372 210.178 598.247 211.197C599.492 206.724 600.739 202.246 601.987 197.765Z" stroke="#A5D936" stroke-width="2"/>
<path d="M704.407 146.916L704.307 145.671L703.114 146.041C698.594 147.445 694.078 148.878 689.565 150.34L688.813 150.584L688.876 151.371L690.281 168.906C684.782 170.699 679.287 172.52 673.797 174.371L672.431 157.328L672.329 156.048L671.113 156.46C666.609 157.989 662.104 159.527 657.598 161.074L656.864 161.326L656.926 162.099L660.833 210.863L660.936 212.148L662.155 211.729C666.655 210.181 671.158 208.644 675.662 207.118L676.4 206.868L676.338 206.091L674.877 187.851C680.368 185.988 685.863 184.164 691.361 182.38L692.783 200.135L692.884 201.397L694.089 201.006C698.593 199.544 703.101 198.113 707.613 196.715L708.378 196.478L708.314 195.68L704.407 146.916Z" stroke="#A5D936" stroke-width="2"/>
<path d="M727.366 190.862L727.905 190.71L728.058 190.171C728.999 186.84 729.951 183.512 730.914 180.187C737.239 178.44 743.575 176.807 749.921 175.288L754.104 183.19L754.463 183.87L755.213 183.696C759.928 182.607 764.65 181.593 769.379 180.655L770.739 180.385L770.054 179.18C761.621 164.346 753.199 149.673 744.789 135.159L744.414 134.511L743.686 134.689C739.21 135.786 734.738 136.938 730.269 138.146L729.741 138.288L729.576 138.809C723.809 156.981 718.051 175.261 712.304 193.647L711.74 195.452L713.549 194.903C718.149 193.505 722.755 192.158 727.366 190.862ZM734.72 166.695C735.974 162.306 737.227 157.921 738.48 153.543C740.372 157.109 742.264 160.683 744.157 164.265C741.01 165.048 737.864 165.859 734.72 166.695Z" stroke="#A5D936" stroke-width="2"/>
<path d="M818.627 124.601L819.288 123.114L817.663 123.197C813.158 123.425 808.659 123.746 804.167 124.161L803.558 124.217L803.331 124.785C800.289 132.38 797.251 140.031 794.218 147.736C790.164 140.957 786.116 134.228 782.072 127.547L781.724 126.972L781.06 127.077C776.227 127.844 771.4 128.698 766.578 129.638L765.082 129.93L765.945 131.186C773.029 141.495 780.122 151.954 787.225 162.563C786.677 163.495 785.967 164.324 785.127 165.011C784.245 165.679 783.21 166.115 782.116 166.281C780.578 166.485 779.019 166.48 777.482 166.265L776.571 166.138L776.368 167.035C775.558 170.616 774.748 174.201 773.938 177.792L773.717 178.77L774.695 178.988C777.677 179.654 780.755 179.769 783.778 179.327L783.785 179.326L783.793 179.324C787.624 178.705 791.202 177.018 794.117 174.456C797.162 171.839 799.601 168.316 801.456 163.929C807.166 150.619 812.89 137.509 818.627 124.601Z" stroke="#A5D936" stroke-width="2"/>
<path d="M842.257 172.547L840.849 154.976C842.41 155.005 843.973 155.051 845.536 155.114C849.668 161.344 853.805 167.653 857.948 174.043L858.216 174.456L858.706 174.496C863.929 174.92 869.167 175.509 874.42 176.264L876.589 176.576L875.403 174.733C869.622 165.75 863.851 156.924 858.092 148.257C862.503 141.028 866.924 133.948 871.355 127.018L872.192 125.709L870.654 125.49C865.72 124.786 860.796 124.225 855.882 123.806L855.247 123.752L854.93 124.304C851.591 130.114 848.271 136.007 844.968 141.983C843.242 141.916 841.518 141.864 839.796 141.828L838.35 123.783L838.277 122.878L837.37 122.863C832.743 122.786 828.126 122.819 823.519 122.961L822.469 122.994L822.553 124.041L826.46 172.805L826.536 173.754L827.488 173.724C832.065 173.582 836.65 173.55 841.243 173.627L842.345 173.645L842.257 172.547Z" stroke="#A5D936" stroke-width="2"/>
<path d="M892.77 179.589L893.623 179.777L893.924 178.958C894.876 176.369 895.828 173.789 896.781 171.217C903.38 172.802 910.003 174.69 916.651 176.883C918.166 180.344 919.681 183.814 921.195 187.294L921.369 187.695L921.782 187.839C926.716 189.565 931.664 191.47 936.626 193.554L938.977 194.542L937.924 192.219C929.125 172.821 920.356 153.819 911.618 135.213L911.431 134.816L911.013 134.684C906.322 133.208 901.641 131.876 896.969 130.688L896.135 130.476L895.801 131.269C889.732 145.675 883.689 160.419 877.672 175.503L877.209 176.663L878.442 176.861C883.203 177.624 887.979 178.533 892.77 179.589ZM900.809 160.199C902.124 156.669 903.441 153.157 904.759 149.663C906.708 154.076 908.657 158.508 910.608 162.959C907.337 161.967 904.071 161.047 900.809 160.199Z" stroke="#A5D936" stroke-width="2"/>
<path d="M823.958 191.151L824.619 189.664L822.994 189.746C818.489 189.974 813.991 190.296 809.499 190.71L808.89 190.766L808.662 191.334C805.62 198.93 802.582 206.58 799.549 214.286C795.496 207.507 791.447 200.777 787.404 194.097L787.055 193.521L786.391 193.627C781.558 194.394 776.731 195.247 771.91 196.187L770.414 196.479L771.277 197.735C778.361 208.044 785.454 218.503 792.557 229.112C792.008 230.045 791.298 230.874 790.458 231.56C789.576 232.228 788.541 232.665 787.447 232.83C785.909 233.034 784.35 233.029 782.813 232.815L781.903 232.688L781.7 233.585C780.889 237.165 780.079 240.751 779.269 244.342L779.049 245.319L780.027 245.538C783.008 246.203 786.087 246.318 789.109 245.876L789.117 245.875L789.124 245.874C792.955 245.255 796.534 243.567 799.449 241.005C802.494 238.389 804.933 234.866 806.787 230.479C812.497 217.168 818.221 204.059 823.958 191.151Z" stroke="#A5D936" stroke-width="2"/>
<path d="M847.588 239.096L846.181 221.525C847.742 221.554 849.304 221.6 850.867 221.664C854.999 227.893 859.137 234.203 863.28 240.593L863.548 241.006L864.038 241.045C869.261 241.469 874.499 242.059 879.751 242.814L881.921 243.126L880.735 241.283C874.953 232.299 869.183 223.474 863.424 214.807C867.834 207.577 872.255 200.498 876.687 193.568L877.524 192.259L875.985 192.039C871.052 191.335 866.127 190.774 861.213 190.355L860.578 190.301L860.261 190.853C856.923 196.664 853.603 202.557 850.3 208.533C848.574 208.466 846.849 208.414 845.127 208.378L843.682 190.333L843.609 189.428L842.701 189.413C838.074 189.336 833.457 189.368 828.85 189.511L827.801 189.543L827.885 190.59L831.791 239.354L831.867 240.303L832.819 240.274C837.397 240.132 841.982 240.099 846.575 240.176L847.676 240.194L847.588 239.096Z" stroke="#A5D936" stroke-width="2"/>
<path d="M1001.58 90.086L1001.52 89.336L1000.78 89.1859C996.098 88.2328 991.399 87.1362 986.684 85.896L985.32 85.5373L985.433 86.943L986.788 103.855C981.025 102.295 975.24 100.499 969.434 98.4687L968.017 80.7808L967.965 80.1332L967.352 79.9175C962.611 78.2482 957.855 76.4106 953.083 74.4046L951.567 73.7674L951.699 75.4063L955.605 124.17L955.654 124.778L956.217 125.013C961.019 127.015 965.81 128.867 970.592 130.567L972.047 131.084L971.923 129.544L970.522 112.056C976.323 114.058 982.106 115.834 987.871 117.382L989.338 135.695L989.395 136.401L990.08 136.582C994.826 137.837 999.562 138.946 1004.29 139.909L1005.59 140.175L1005.48 138.85L1001.58 90.086Z" stroke="#A5D936" stroke-width="2"/>
<path d="M1024.88 143.241L1025.68 143.337L1025.94 142.574C1026.89 139.82 1027.85 137.057 1028.81 134.285C1035.35 134.943 1041.86 135.366 1048.36 135.553C1049.8 138.563 1051.26 141.565 1052.72 144.558L1052.99 145.112L1053.6 145.119C1058.44 145.18 1063.26 145.12 1068.08 144.94L1069.68 144.88L1068.92 143.47C1060.4 127.495 1051.86 111.241 1043.29 94.7066L1043.02 94.1906L1042.44 94.1675C1037.89 93.9869 1033.32 93.6921 1028.75 93.283L1027.99 93.2157L1027.72 93.9218C1021.76 109.523 1015.76 124.795 1009.74 139.738L1009.28 140.881L1010.49 141.096C1015.3 141.951 1020.09 142.666 1024.88 143.241ZM1032.77 122.549C1034.07 118.712 1035.37 114.859 1036.67 110.989C1038.61 115.073 1040.55 119.142 1042.48 123.196C1039.25 123.038 1036.01 122.823 1032.77 122.549Z" stroke="#A5D936" stroke-width="2"/>
<path d="M1117.54 89.4247L1118.24 87.7192L1116.43 88.0631C1112 88.9046 1107.57 89.6675 1103.13 90.3518L1102.56 90.4399L1102.35 90.9791C1099.32 98.7913 1096.29 106.548 1093.26 114.25C1089.21 107.44 1085.15 100.574 1081.09 93.6539L1080.77 93.108L1080.14 93.1639C1075.3 93.5925 1070.46 93.9107 1065.61 94.1185L1063.88 94.1926L1064.81 95.6545C1071.97 106.912 1079.12 117.993 1086.25 128.896C1085.71 129.779 1085.01 130.555 1084.18 131.18C1083.3 131.786 1082.27 132.143 1081.19 132.213C1079.63 132.292 1078.07 132.142 1076.55 131.769L1075.57 131.528L1075.33 132.509C1074.51 135.97 1073.69 139.427 1072.87 142.878L1072.66 143.778L1073.54 144.062C1076.8 145.113 1079.86 145.542 1082.71 145.313L1082.72 145.313C1086.57 144.995 1090.22 143.466 1093.15 140.944C1096.2 138.37 1098.64 134.837 1100.5 130.394C1106.19 116.922 1111.87 103.266 1117.54 89.4247Z" stroke="#A5D936" stroke-width="2"/>
<path d="M1138.39 102.662L1136.96 84.8744L1136.87 83.7158L1135.74 83.9806C1131.23 85.0358 1126.71 86.0214 1122.19 86.9375L1121.33 87.1136L1121.4 87.9974L1125.3 136.765L1125.39 137.89L1126.5 137.665C1131.04 136.743 1135.57 135.753 1140.1 134.696L1140.94 134.5L1140.87 133.642L1139.44 115.828C1141.02 115.458 1142.6 115.081 1144.18 114.695C1148.18 119.853 1152.19 124.975 1156.2 130.059L1156.61 130.576L1157.25 130.406C1162.35 129.043 1167.46 127.62 1172.56 126.136L1174.02 125.711L1173.05 124.539C1167.47 117.773 1161.88 110.943 1156.28 104.047C1160.57 95.0452 1164.86 85.9893 1169.14 76.8792L1170.08 74.8738L1167.96 75.4938C1163.21 76.8764 1158.47 78.2022 1153.72 79.4713L1153.26 79.5933L1153.06 80.0239C1149.8 87.2039 1146.55 94.3557 1143.31 101.479C1141.67 101.881 1140.03 102.275 1138.39 102.662Z" stroke="#A5D936" stroke-width="2"/>
<path d="M1190.29 120.787L1190.81 120.625L1190.96 120.102C1191.9 116.722 1192.85 113.342 1193.81 109.961C1200.13 107.941 1206.44 105.876 1212.74 103.764C1214.11 106.253 1215.48 108.742 1216.85 111.229L1217.26 111.962L1218.05 111.694C1222.74 110.109 1227.43 108.51 1232.11 106.896L1233.28 106.493L1232.64 105.433C1224.29 91.6186 1215.94 77.7601 1207.58 63.8578L1207.16 63.1707L1206.4 63.4246C1201.97 64.9049 1197.53 66.3595 1193.09 67.7885L1192.6 67.9479L1192.44 68.4447C1186.71 86.973 1180.97 105.41 1175.21 123.755L1174.65 125.547L1176.45 125.013C1181.07 123.643 1185.68 122.235 1190.29 120.787ZM1201.35 82.7697C1203.23 86.2186 1205.1 89.6668 1206.98 93.1143C1203.86 94.1535 1200.73 95.183 1197.61 96.2026C1198.85 91.7288 1200.1 87.2512 1201.35 82.7697Z" stroke="#A5D936" stroke-width="2"/>
<path d="M1303.77 31.9218L1303.67 30.6761L1302.47 31.0466C1297.95 32.45 1293.44 33.883 1288.92 35.3455L1288.17 35.5891L1288.24 36.3766L1289.64 53.9111C1284.14 55.7041 1278.65 57.5259 1273.16 59.3763L1271.79 42.3329L1271.69 41.0533L1270.47 41.4659C1265.97 42.9945 1261.46 44.5322 1256.96 46.0791L1256.22 46.3311L1256.29 47.1048L1260.19 95.8685L1260.3 97.1537L1261.51 96.7342C1266.01 95.1859 1270.52 93.649 1275.02 92.1236L1275.76 91.8736L1275.7 91.0966L1274.24 72.8562C1279.73 70.9934 1285.22 69.1697 1290.72 67.3853L1292.14 85.1404L1292.24 86.4027L1293.45 86.0116C1297.95 84.5492 1302.46 83.1188 1306.97 81.7206L1307.74 81.4836L1307.67 80.6855L1303.77 31.9218Z" stroke="#A5D936" stroke-width="2"/>
<path d="M1326.73 75.8667L1327.26 75.715L1327.42 75.176C1328.36 71.8454 1329.31 68.5174 1330.27 65.192C1336.6 63.4452 1342.93 61.8122 1349.28 60.2931L1353.46 68.1949L1353.82 68.8747L1354.57 68.7015C1359.29 67.6118 1364.01 66.5979 1368.74 65.6598L1370.1 65.39L1369.41 64.1847C1360.98 49.3512 1352.56 34.6777 1344.15 20.164L1343.77 19.5158L1343.05 19.6941C1338.57 20.7908 1334.1 21.943 1329.63 23.1509L1329.1 23.2933L1328.94 23.8137C1323.17 41.9864 1317.41 60.266 1311.66 78.6524L1311.1 80.457L1312.91 79.9076C1317.51 78.5106 1322.11 77.1636 1326.73 75.8667ZM1334.08 51.7001C1335.33 47.3107 1336.59 42.9266 1337.84 38.5478C1339.73 42.1143 1341.62 45.6882 1343.52 49.2698C1340.37 50.0536 1337.22 50.8637 1334.08 51.7001Z" stroke="#A5D936" stroke-width="2"/>
<path d="M1417.99 9.60651L1418.65 8.1193L1417.02 8.20163C1412.52 8.4298 1408.02 8.75114 1403.53 9.16569L1402.92 9.22189L1402.69 9.78965C1399.65 17.3851 1396.61 25.0357 1393.58 32.7412C1389.52 25.9624 1385.47 19.2327 1381.43 12.5521L1381.08 11.9769L1380.42 12.0823C1375.59 12.8492 1370.76 13.7028 1365.94 14.643L1364.44 14.9347L1365.3 16.1908C1372.39 26.4997 1379.48 36.9588 1386.58 47.568C1386.04 48.5003 1385.33 49.3294 1384.49 50.0158C1383.6 50.6837 1382.57 51.1204 1381.48 51.2859C1379.94 51.49 1378.38 51.4848 1376.84 51.2705L1375.93 51.1435L1375.73 52.0401C1374.92 55.6207 1374.11 59.2065 1373.3 62.7974L1373.08 63.775L1374.05 63.9934C1377.04 64.6591 1380.11 64.7737 1383.14 64.3318L1383.14 64.3307L1383.15 64.3295C1386.98 63.7103 1390.56 62.0229 1393.48 59.461C1396.52 56.8443 1398.96 53.3215 1400.81 48.9343C1406.53 35.6237 1412.25 22.5145 1417.99 9.60651Z" stroke="#A5D936" stroke-width="2"/>
<path d="M1441.62 57.5519L1440.21 39.9807C1441.77 40.0098 1443.33 40.0561 1444.89 40.1194C1449.03 46.3488 1453.16 52.6583 1457.31 59.0482L1457.58 59.4611L1458.07 59.5009C1463.29 59.9249 1468.53 60.5144 1473.78 61.2695L1475.95 61.5814L1474.76 59.7385C1468.98 50.7547 1463.21 41.9294 1457.45 33.2625C1461.86 26.0329 1466.28 18.9532 1470.71 12.0234L1471.55 10.7141L1470.01 10.4947C1465.08 9.791 1460.16 9.22968 1455.24 8.8108L1454.61 8.7567L1454.29 9.30903C1450.95 15.1193 1447.63 21.0123 1444.33 26.9883C1442.6 26.9212 1440.88 26.8695 1439.16 26.8332L1437.71 8.78829L1437.64 7.88341L1436.73 7.86829C1432.1 7.79122 1427.49 7.82395 1422.88 7.96654L1421.83 7.99904L1421.91 9.04592L1425.82 57.8097L1425.9 58.7588L1426.85 58.7293C1431.42 58.5875 1436.01 58.5549 1440.6 58.6316L1441.7 58.6501L1441.62 57.5519Z" stroke="#A5D936" stroke-width="2"/>
<path d="M1006.91 156.636L1006.85 155.886L1006.11 155.736C1001.43 154.782 996.731 153.686 992.015 152.446L990.652 152.087L990.764 153.493L992.119 170.405C986.356 168.844 980.572 167.049 974.765 165.018L973.348 147.33L973.296 146.683L972.684 146.467C967.943 144.798 963.186 142.96 958.414 140.954L956.899 140.317L957.03 141.956L960.937 190.72L960.986 191.328L961.549 191.563C966.35 193.565 971.142 195.416 975.923 197.116L977.378 197.633L977.255 196.094L975.854 178.606C981.654 180.608 987.437 182.383 993.203 183.932L994.67 202.245L994.727 202.951L995.411 203.132C1000.16 204.387 1004.89 205.496 1009.62 206.459L1010.92 206.725L1010.81 205.399L1006.91 156.636Z" stroke="#A5D936" stroke-width="2"/>
<path d="M1030.21 209.79L1031.01 209.887L1031.28 209.123C1032.22 206.37 1033.18 203.607 1034.15 200.835C1040.68 201.493 1047.19 201.915 1053.69 202.102C1055.13 205.113 1056.59 208.114 1058.05 211.107L1058.32 211.661L1058.93 211.669C1063.77 211.729 1068.6 211.669 1073.41 211.489L1075.01 211.429L1074.26 210.019C1065.73 194.044 1057.19 177.79 1048.62 161.256L1048.35 160.74L1047.77 160.717C1043.22 160.536 1038.65 160.242 1034.08 159.833L1033.33 159.765L1033.06 160.471C1027.09 176.072 1021.09 191.344 1015.07 206.288L1014.61 207.43L1015.82 207.646C1020.63 208.501 1025.42 209.215 1030.21 209.79ZM1038.1 189.099C1039.41 185.261 1040.71 181.408 1042.01 177.539C1043.94 181.623 1045.88 185.692 1047.82 189.746C1044.58 189.588 1041.35 189.372 1038.1 189.099Z" stroke="#A5D936" stroke-width="2"/>
<path d="M1122.88 155.974L1123.57 154.269L1121.76 154.613C1117.33 155.454 1112.9 156.217 1108.46 156.901L1107.89 156.989L1107.68 157.529C1104.65 165.341 1101.63 173.098 1098.59 180.8C1094.54 173.989 1090.48 167.124 1086.42 160.203L1086.1 159.658L1085.47 159.713C1080.64 160.142 1075.79 160.46 1070.94 160.668L1069.21 160.742L1070.14 162.204C1077.3 173.462 1084.45 184.542 1091.58 195.445C1091.04 196.329 1090.34 197.104 1089.51 197.73C1088.63 198.336 1087.6 198.692 1086.53 198.763C1084.96 198.842 1083.4 198.692 1081.88 198.318L1080.9 198.078L1080.67 199.058C1079.84 202.52 1079.02 205.977 1078.2 209.428L1077.99 210.328L1078.87 210.611C1082.13 211.663 1085.19 212.091 1088.04 211.863L1088.05 211.863C1091.9 211.545 1095.55 210.015 1098.48 207.494C1101.54 204.919 1103.98 201.386 1105.83 196.944C1111.52 183.472 1117.2 169.815 1122.88 155.974Z" stroke="#A5D936" stroke-width="2"/>
<path d="M1143.72 169.211L1142.3 151.424L1142.2 150.265L1141.07 150.53C1136.56 151.585 1132.05 152.571 1127.53 153.487L1126.66 153.663L1126.73 154.547L1130.63 203.315L1130.73 204.439L1131.83 204.215C1136.37 203.292 1140.9 202.302 1145.43 201.245L1146.27 201.05L1146.2 200.192L1144.78 182.377C1146.35 182.008 1147.93 181.63 1149.51 181.244C1153.51 186.403 1157.52 191.524 1161.54 196.609L1161.94 197.125L1162.58 196.956C1167.69 195.593 1172.79 194.169 1177.89 192.685L1179.35 192.261L1178.38 191.088C1172.8 184.323 1167.21 177.492 1161.61 170.596C1165.9 161.595 1170.19 152.539 1174.47 143.429L1175.41 141.423L1173.29 142.043C1168.54 143.426 1163.8 144.752 1159.05 146.021L1158.59 146.143L1158.39 146.573C1155.13 153.753 1151.88 160.905 1148.64 168.029C1147 168.431 1145.36 168.825 1143.72 169.211Z" stroke="#A5D936" stroke-width="2"/>
<path d="M1195.63 187.337L1196.14 187.174L1196.29 186.651C1197.23 183.272 1198.18 179.891 1199.14 176.51C1205.46 174.491 1211.77 172.425 1218.07 170.314C1219.45 172.803 1220.82 175.291 1222.19 177.778L1222.59 178.511L1223.38 178.244C1228.07 176.658 1232.76 175.059 1237.44 173.446L1238.61 173.043L1237.97 171.983C1229.62 158.168 1221.27 144.31 1212.91 130.407L1212.5 129.72L1211.74 129.974C1207.3 131.454 1202.87 132.909 1198.43 134.338L1197.93 134.497L1197.78 134.994C1192.04 153.523 1186.3 171.959 1180.54 190.305L1179.98 192.097L1181.78 191.563C1186.4 190.193 1191.01 188.784 1195.63 187.337ZM1206.68 149.319C1208.56 152.768 1210.44 156.216 1212.31 159.664C1209.19 160.703 1206.06 161.733 1202.94 162.752C1204.18 158.278 1205.43 153.801 1206.68 149.319Z" stroke="#A5D936" stroke-width="2"/>
<path d="M1309.1 98.4714L1309 97.2256L1307.8 97.5962C1303.28 98.9996 1298.77 100.433 1294.26 101.895L1293.5 102.139L1293.57 102.926L1294.97 120.461C1289.47 122.254 1283.98 124.075 1278.49 125.926L1277.12 108.883L1277.02 107.603L1275.8 108.015C1271.3 109.544 1266.79 111.082 1262.29 112.629L1261.56 112.881L1261.62 113.654L1265.52 162.418L1265.63 163.703L1266.85 163.284C1271.35 161.735 1275.85 160.199 1280.35 158.673L1281.09 158.423L1281.03 157.646L1279.57 139.406C1285.06 137.543 1290.55 135.719 1296.05 133.935L1297.47 151.69L1297.58 152.952L1298.78 152.561C1303.28 151.099 1307.79 149.668 1312.3 148.27L1313.07 148.033L1313 147.235L1309.1 98.4714Z" stroke="#A5D936" stroke-width="2"/>
<path d="M1332.06 142.416L1332.6 142.265L1332.75 141.726C1333.69 138.395 1334.64 135.067 1335.6 131.742C1341.93 129.995 1348.27 128.362 1354.61 126.843L1358.79 134.745L1359.15 135.424L1359.9 135.251C1364.62 134.161 1369.34 133.147 1374.07 132.209L1375.43 131.94L1374.75 130.734C1366.31 115.901 1357.89 101.227 1349.48 86.7136L1349.1 86.0654L1348.38 86.2437C1343.9 87.3403 1339.43 88.4925 1334.96 89.7004L1334.43 89.8429L1334.27 90.3633C1328.5 108.536 1322.74 126.816 1316.99 145.202L1316.43 147.007L1318.24 146.457C1322.84 145.06 1327.45 143.713 1332.06 142.416ZM1339.41 118.25C1340.66 113.86 1341.92 109.476 1343.17 105.097C1345.06 108.664 1346.96 112.238 1348.85 115.819C1345.7 116.603 1342.56 117.413 1339.41 118.25Z" stroke="#A5D936" stroke-width="2"/>
<path d="M1423.32 76.1561L1423.98 74.6689L1422.35 74.7512C1417.85 74.9794 1413.35 75.3007 1408.86 75.7153L1408.25 75.7715L1408.02 76.3392C1404.98 83.9347 1401.94 91.5852 1398.91 99.2908C1394.85 92.512 1390.81 85.7823 1386.76 79.1017L1386.41 78.5265L1385.75 78.6318C1380.92 79.3987 1376.09 80.2523 1371.27 81.1925L1369.77 81.4842L1370.64 82.7404C1377.72 93.0493 1384.81 103.508 1391.92 114.118C1391.37 115.05 1390.66 115.879 1389.82 116.565C1388.94 117.233 1387.9 117.67 1386.81 117.835C1385.27 118.04 1383.71 118.034 1382.17 117.82L1381.26 117.693L1381.06 118.59C1380.25 122.17 1379.44 125.756 1378.63 129.347L1378.41 130.325L1379.39 130.543C1382.37 131.209 1385.45 131.323 1388.47 130.881L1388.48 130.88L1388.48 130.879C1392.31 130.26 1395.89 128.572 1398.81 126.011C1401.85 123.394 1404.29 119.871 1406.15 115.484C1411.86 102.173 1417.58 89.064 1423.32 76.1561Z" stroke="#A5D936" stroke-width="2"/>
<path d="M1446.95 124.101L1445.54 106.53C1447.1 106.559 1448.66 106.606 1450.23 106.669C1454.36 112.898 1458.5 119.208 1462.64 125.598L1462.91 126.011L1463.4 126.05C1468.62 126.474 1473.86 127.064 1479.11 127.819L1481.28 128.131L1480.09 126.288C1474.31 117.304 1468.54 108.479 1462.78 99.812C1467.19 92.5824 1471.61 85.5028 1476.05 78.573L1476.88 77.2637L1475.34 77.0442C1470.41 76.3406 1465.49 75.7792 1460.57 75.3604L1459.94 75.3063L1459.62 75.8586C1456.28 81.6688 1452.96 87.5619 1449.66 93.5379C1447.93 93.4708 1446.21 93.4191 1444.49 93.3827L1443.04 75.3378L1442.97 74.433L1442.06 74.4178C1437.43 74.3408 1432.82 74.3735 1428.21 74.5161L1427.16 74.5486L1427.24 75.5955L1431.15 124.359L1431.23 125.308L1432.18 125.279C1436.76 125.137 1441.34 125.104 1445.93 125.181L1447.04 125.2L1446.95 124.101Z" stroke="#A5D936" stroke-width="2"/>
<path d="M1314.43 165.021L1314.33 163.775L1313.14 164.146C1308.62 165.549 1304.1 166.982 1299.59 168.445L1298.84 168.688L1298.9 169.476L1300.3 187.01C1294.8 188.803 1289.31 190.625 1283.82 192.475L1282.45 175.432L1282.35 174.152L1281.14 174.565C1276.63 176.094 1272.13 177.631 1267.62 179.178L1266.89 179.43L1266.95 180.204L1270.86 228.968L1270.96 230.253L1272.18 229.833C1276.68 228.285 1281.18 226.748 1285.68 225.223L1286.42 224.973L1286.36 224.196L1284.9 205.955C1290.39 204.093 1295.89 202.269 1301.38 200.484L1302.81 218.239L1302.91 219.502L1304.11 219.111C1308.62 217.648 1313.12 216.218 1317.64 214.82L1318.4 214.583L1318.34 213.785L1314.43 165.021Z" stroke="#A5D936" stroke-width="2"/>
<path d="M1337.39 208.966L1337.93 208.814L1338.08 208.275C1339.02 204.944 1339.97 201.617 1340.94 198.291C1347.26 196.544 1353.6 194.911 1359.94 193.392L1364.13 201.294L1364.49 201.974L1365.23 201.801C1369.95 200.711 1374.67 199.697 1379.4 198.759L1380.76 198.489L1380.08 197.284C1371.64 182.45 1363.22 167.777 1354.81 153.263L1354.44 152.615L1353.71 152.793C1349.23 153.89 1344.76 155.042 1340.29 156.25L1339.76 156.392L1339.6 156.913C1333.83 175.086 1328.07 193.365 1322.33 211.752L1321.76 213.556L1323.57 213.007C1328.17 211.61 1332.78 210.263 1337.39 208.966ZM1344.74 184.799C1346 180.41 1347.25 176.026 1348.5 171.647C1350.39 175.213 1352.29 178.787 1354.18 182.369C1351.03 183.153 1347.89 183.963 1344.74 184.799Z" stroke="#A5D936" stroke-width="2"/>
<path d="M1428.65 142.706L1429.31 141.218L1427.68 141.301C1423.18 141.529 1418.68 141.85 1414.19 142.265L1413.58 142.321L1413.35 142.889C1410.31 150.484 1407.27 158.135 1404.24 165.84C1400.19 159.062 1396.14 152.332 1392.09 145.651L1391.75 145.076L1391.08 145.181C1386.25 145.948 1381.42 146.802 1376.6 147.742L1375.1 148.034L1375.97 149.29C1383.05 159.599 1390.14 170.058 1397.25 180.667C1396.7 181.599 1395.99 182.428 1395.15 183.115C1394.27 183.783 1393.23 184.219 1392.14 184.385C1390.6 184.589 1389.04 184.584 1387.5 184.37L1386.59 184.243L1386.39 185.139C1385.58 188.72 1384.77 192.306 1383.96 195.897L1383.74 196.874L1384.72 197.093C1387.7 197.758 1390.78 197.873 1393.8 197.431L1393.81 197.43L1393.82 197.429C1397.65 196.809 1401.22 195.122 1404.14 192.56C1407.18 189.943 1409.62 186.421 1411.48 182.033C1417.19 168.723 1422.91 155.614 1428.65 142.706Z" stroke="#A5D936" stroke-width="2"/>
<path d="M1452.28 190.651L1450.87 173.08C1452.43 173.109 1454 173.155 1455.56 173.219C1459.69 179.448 1463.83 185.757 1467.97 192.147L1468.24 192.56L1468.73 192.6C1473.95 193.024 1479.19 193.614 1484.44 194.369L1486.61 194.68L1485.43 192.838C1479.64 183.854 1473.87 175.028 1468.11 166.362C1472.53 159.132 1476.95 152.052 1481.38 145.123L1482.21 143.813L1480.68 143.594C1475.74 142.89 1470.82 142.329 1465.9 141.91L1465.27 141.856L1464.95 142.408C1461.61 148.218 1458.29 154.111 1454.99 160.087C1453.26 160.02 1451.54 159.969 1449.82 159.932L1448.37 141.887L1448.3 140.983L1447.39 140.967C1442.77 140.89 1438.15 140.923 1433.54 141.066L1432.49 141.098L1432.58 142.145L1436.48 190.909L1436.56 191.858L1437.51 191.828C1442.09 191.687 1446.67 191.654 1451.27 191.731L1452.37 191.749L1452.28 190.651Z" stroke="#A5D936" stroke-width="2"/>
</svg>
