<svg width="479" height="479" viewBox="0 0 479 479" fill="none" xmlns="http://www.w3.org/2000/svg">
<g opacity="0.1">
<path d="M247.59 56.7002C243.89 55.3189 240.459 53.3031 237.451 50.7434L244.305 39.4151C246.868 41.5641 249.73 43.329 252.801 44.6544C255.927 46.0846 259.249 47.0392 262.657 47.4865C268.951 48.2606 272.28 47.0837 272.645 43.9559C272.853 42.3038 272.107 40.9727 270.426 39.9532C267.773 38.5059 264.992 37.3051 262.119 36.3659C258.52 35.1553 255.01 33.698 251.612 32.0044C248.849 30.5835 246.489 28.4894 244.749 25.9155C242.955 23.2911 242.326 19.9744 242.861 15.9654C243.245 12.5649 244.665 9.36469 246.93 6.79888C249.466 4.04219 252.744 2.07554 256.37 1.1347C261.061 -0.0773921 265.949 -0.321506 270.738 0.417242C274.493 0.888465 278.183 1.78474 281.736 3.08884C285.052 4.26431 288.171 5.93532 290.987 8.04499L284.455 19.5433C279.928 16.1342 274.617 13.9171 269.01 13.0955C265.772 12.6991 263.346 12.8784 261.751 13.662C261.034 13.9506 260.406 14.4242 259.932 15.0345C259.457 15.6448 259.153 16.3699 259.051 17.136C258.862 18.6748 259.598 19.9681 261.26 20.9121C263.876 22.3167 266.62 23.4704 269.454 24.3578C273.068 25.5644 276.591 27.025 279.999 28.7287C282.747 30.1541 285.104 32.2319 286.862 34.7799C288.693 37.3791 289.357 40.6832 288.854 44.6922C288.472 48.0503 287.057 51.207 284.804 53.7265C282.24 56.4771 278.946 58.4416 275.307 59.3907C270.633 60.626 265.756 60.8895 260.977 60.1648C256.385 59.5878 251.886 58.4234 247.59 56.7002Z" fill="white"/>
<path d="M302.828 65.8706C299.52 61.6896 297.435 56.6737 296.805 51.3797C296.177 45.9249 297.072 40.4027 299.391 35.4256C301.566 30.3977 305.088 26.0688 309.568 22.9173C313.94 19.8692 319.069 18.0886 324.389 17.7723C330.086 17.4406 335.776 18.5306 340.948 20.9442C345.485 22.9078 349.56 25.8024 352.908 29.4405C355.966 32.7823 358.155 36.8251 359.281 41.2125L345.857 45.5834C344.277 39.9192 341.036 35.9795 336.133 33.7642C333.484 32.5181 330.556 31.9813 327.637 32.2065C324.858 32.4511 322.209 33.4936 320.009 35.2085C317.643 37.085 315.786 39.5262 314.609 42.3076C313.315 45.035 312.734 48.0458 312.919 51.0588C313.1 53.8403 314.084 56.5096 315.752 58.7432C317.527 61.095 319.891 62.9378 322.605 64.0864C327.508 66.2828 332.606 66.0783 337.898 63.4727L343.563 76.3965C339.535 78.4747 335.058 79.5315 330.526 79.474C325.591 79.3958 320.73 78.2729 316.261 76.1794C310.994 73.9175 306.376 70.3736 302.828 65.8706Z" fill="white"/>
<path d="M377.146 43.1917L390.231 53.1228L355 99.3802L341.915 89.4207L377.146 43.1917Z" fill="white"/>
<path d="M402.353 131.686L392.676 139.927L362.401 104.385L406.676 66.6802L436.243 101.402L426.567 109.643L407.535 87.3166L400.078 93.6794L416.825 113.344L407.469 121.321L390.713 101.647L382.623 108.538L402.353 131.686Z" fill="white"/>
<path d="M470.575 173.016L416.766 195.135L411.621 182.607L430.501 147.084L401.878 158.912L395.751 144.006L449.561 121.887L454.715 134.405L435.835 169.939L464.496 158.148L470.575 173.016Z" fill="white"/>
<path d="M421.411 214.903C423.586 210.037 427.066 205.867 431.465 202.857C436.011 199.779 441.321 198.021 446.806 197.778C452.282 197.363 457.767 198.478 462.647 200.998C467.378 203.457 471.333 207.183 474.069 211.759C476.992 216.657 478.653 222.204 478.903 227.902C479.269 232.826 478.6 237.772 476.939 242.422C475.389 246.678 472.815 250.488 469.444 253.514L459.371 243.63C463.676 239.596 465.668 234.901 465.347 229.545C465.222 226.606 464.338 223.751 462.779 221.256C461.277 218.903 459.126 217.034 456.586 215.875C453.829 214.644 450.807 214.125 447.797 214.365C444.781 214.49 441.845 215.366 439.254 216.914C436.87 218.362 434.958 220.471 433.75 222.984C432.492 225.646 431.951 228.592 432.183 231.527C432.504 236.89 435.043 241.314 439.801 244.801L430.965 255.817C427.26 253.209 424.252 249.73 422.204 245.688C420.001 241.278 418.75 236.453 418.532 231.527C418.093 225.833 419.083 220.118 421.411 214.903Z" fill="white"/>
<path d="M421.139 308.117L408.791 305.106L419.865 259.792L476.355 273.585L465.537 317.888L453.189 314.877L460.146 286.386L450.621 284.063L444.494 309.156L432.553 306.239L438.679 281.146L428.352 278.626L421.139 308.117Z" fill="white"/>
<path d="M392.529 335.786C395.567 333.262 399.024 331.291 402.743 329.961L409.172 341.582C406.038 342.727 403.084 344.317 400.402 346.302C397.605 348.303 395.123 350.712 393.039 353.448C389.263 358.483 388.633 361.945 391.151 363.833C392.472 364.833 393.983 364.852 395.72 363.899C398.297 362.321 400.727 360.514 402.979 358.499C405.822 355.981 408.838 353.666 412.004 351.57C414.609 349.88 417.601 348.879 420.699 348.662C423.845 348.417 427.043 349.512 430.29 351.947C433.047 353.975 435.11 356.803 436.2 360.047C437.32 363.622 437.382 367.445 436.379 371.055C435.086 375.723 432.86 380.08 429.837 383.865C427.548 386.902 424.919 389.667 422.001 392.106C419.328 394.401 416.32 396.273 413.08 397.657L406.387 386.253C411.594 384.027 416.161 380.531 419.67 376.086C421.646 373.481 422.694 371.278 422.813 369.478C422.924 368.715 422.828 367.936 422.536 367.222C422.243 366.508 421.766 365.886 421.152 365.419C419.906 364.475 418.452 364.475 416.762 365.419C414.24 366.988 411.869 368.79 409.682 370.8C406.836 373.33 403.814 375.655 400.638 377.757C398.03 379.423 395.056 380.43 391.972 380.693C388.825 380.976 385.628 379.9 382.381 377.464C379.663 375.454 377.634 372.651 376.575 369.44C375.483 365.847 375.43 362.017 376.424 358.395C377.692 353.731 379.899 349.375 382.909 345.594C385.681 341.925 388.914 338.628 392.529 335.786Z" fill="white"/>
<path d="M357.037 379.125C362.307 378.331 367.694 379.007 372.604 381.079C377.652 383.24 382.002 386.76 385.169 391.246C388.48 395.642 390.503 400.871 391.012 406.351C391.513 411.656 390.533 416.995 388.18 421.776C385.617 426.867 381.832 431.242 377.164 434.511C373.217 437.481 368.693 439.59 363.881 440.704C359.461 441.698 354.864 441.591 350.495 440.392L353.327 426.572C359.048 428.013 364.082 427.154 368.431 423.995C370.833 422.314 372.756 420.036 374.011 417.386C375.181 414.855 375.591 412.038 375.191 409.277C374.742 406.291 373.548 403.466 371.717 401.064C369.986 398.591 367.662 396.591 364.957 395.249C362.449 394.023 359.638 393.554 356.867 393.899C353.948 394.279 351.178 395.414 348.833 397.194C344.503 400.34 342.153 404.869 341.781 410.778L327.744 409.296C327.931 404.769 329.228 400.357 331.52 396.448C334.049 392.211 337.434 388.548 341.46 385.695C346.027 382.246 351.38 379.988 357.037 379.125Z" fill="white"/>
<path d="M339.817 454.903L324.712 461.313L302.056 407.768L317.16 401.348L339.817 454.903Z" fill="white"/>
<path d="M250.494 432.735L248.172 420.245L294.08 411.749L304.682 468.919L259.84 477.236L257.527 464.737L286.358 459.394L284.564 449.755L259.17 454.475L256.923 442.392L282.327 437.672L280.382 427.221L250.494 432.735Z" fill="white"/>
<path d="M180.697 471.329L188.249 413.668L201.673 415.414L223.121 449.465L227.124 418.737L243.106 420.814L235.554 478.485L222.13 476.729L200.682 442.687L196.67 473.415L180.697 471.329Z" fill="white"/>
<path d="M168.776 407.92C171.917 412.227 173.803 417.322 174.223 422.637C174.64 428.114 173.525 433.598 171.004 438.478C168.639 443.433 164.946 447.636 160.336 450.618C155.849 453.493 150.654 455.068 145.326 455.168C139.62 455.276 133.978 453.958 128.909 451.336C124.451 449.213 120.491 446.173 117.288 442.414C114.369 438.951 112.343 434.825 111.388 430.397L124.973 426.564C126.332 432.316 129.416 436.382 134.224 438.761C136.841 440.125 139.772 440.776 142.72 440.649C145.504 440.521 148.19 439.586 150.452 437.959C152.886 436.178 154.834 433.815 156.116 431.086C157.505 428.405 158.203 425.42 158.146 422.401C158.077 419.614 157.198 416.908 155.616 414.613C153.944 412.196 151.665 410.262 149.008 409.005C144.193 406.614 139.092 406.614 133.705 409.005L128.541 395.874C132.644 393.952 137.157 393.07 141.682 393.306C146.621 393.587 151.445 394.902 155.842 397.167C160.977 399.626 165.42 403.321 168.776 407.92Z" fill="white"/>
<path d="M88.1181 361.247L96.8787 352.042L130.694 384.243L90.582 426.356L57.541 394.901L66.3016 385.697L87.5423 405.918L94.3014 398.819L75.5908 381.005L84.0871 372.103L102.798 389.917L110.133 382.214L88.1181 361.247Z" fill="white"/>
<path d="M78.2736 322.7C78.9632 326.587 78.9632 330.565 78.2736 334.453L65.0006 334.273C65.5558 330.982 65.6385 327.628 65.2461 324.314C64.8954 320.893 64.0396 317.543 62.7066 314.373C60.1892 308.577 57.4956 306.299 54.6258 307.538C53.0964 308.168 52.316 309.48 52.2846 311.475C52.377 314.495 52.7434 317.5 53.3796 320.453C54.1495 324.17 54.6605 327.936 54.9089 331.724C55.0806 334.827 54.4636 337.922 53.1153 340.721C51.7559 343.591 49.2196 345.822 45.5064 347.414C42.3755 348.796 38.8961 349.185 35.5374 348.528C31.8811 347.718 28.5352 345.873 25.8989 343.213C22.4811 339.78 19.8018 335.684 18.0257 331.177C16.5227 327.683 15.4267 324.028 14.7594 320.283C14.0975 316.824 13.9669 313.284 14.3724 309.785L27.5888 309.634C26.9343 315.259 27.7003 320.959 29.8167 326.211C31.0754 329.213 32.46 331.212 33.9704 332.206C34.5806 332.677 35.3045 332.979 36.0688 333.08C36.8331 333.181 37.6106 333.078 38.3224 332.782C39.7478 332.168 40.4748 330.894 40.4842 328.958C40.3755 325.993 39.9898 323.044 39.3324 320.151C38.5449 316.416 38.0245 312.631 37.7749 308.822C37.6214 305.731 38.2275 302.648 39.5402 299.845C40.8618 296.965 43.3824 294.719 47.0924 293.133C50.1892 291.77 53.6314 291.397 56.948 292.066C60.6091 292.899 63.9581 294.756 66.6054 297.418C70.0282 300.83 72.7143 304.907 74.4975 309.398C76.3189 313.653 77.588 318.123 78.2736 322.7Z" fill="white"/>
<path d="M58.3285 270.4C56.395 275.362 53.1281 279.694 48.8882 282.917C44.4874 286.214 39.2591 288.227 33.7837 288.733C28.3327 289.409 22.8009 288.563 17.8014 286.288C12.9621 284.055 8.83534 280.526 5.8783 276.092C2.71563 271.342 0.788173 265.878 0.270705 260.195C-0.341062 255.296 0.0868316 250.323 1.52634 245.6C2.86887 241.274 5.25498 237.345 8.47437 234.158L19.0191 243.542C14.9031 247.771 13.1378 252.557 13.7231 257.901C13.9867 260.832 15.0118 263.644 16.6968 266.057C18.3061 268.335 20.543 270.096 23.1352 271.126C25.95 272.222 28.994 272.595 31.99 272.212C34.9966 271.945 37.8884 270.929 40.4014 269.257C42.7094 267.691 44.5158 265.491 45.603 262.923C46.731 260.202 47.128 257.234 46.7547 254.313C46.182 248.983 43.4317 244.687 38.5039 241.427L46.7925 229.995C50.6227 232.419 53.7969 235.749 56.0345 239.69C58.4519 243.994 59.9378 248.757 60.396 253.671C61.1019 259.333 60.3915 265.081 58.3285 270.4Z" fill="white"/>
<path d="M1.19238 217.782L3.14659 201.45L60.8834 208.37L58.9292 224.702L1.19238 217.782Z" fill="white"/>
<path d="M64.8438 151.239L76.8423 155.43L61.4453 199.507L6.54053 180.324L21.5884 137.267L33.587 141.459L23.9107 169.147L33.1715 172.376L41.6678 147.992L53.2794 152.041L44.7831 176.435L54.8276 179.937L64.8438 151.239Z" fill="white"/>
<path d="M66.1586 71.4751L112.416 106.763L104.194 117.525L63.9873 119.13L88.6171 137.925L78.837 150.736L32.5796 115.448L40.802 104.686L81.0082 103.091L56.3596 84.2761L66.1586 71.4751Z" fill="white"/>
<path d="M127.046 92.7704C121.748 93.3625 116.388 92.4737 111.564 90.2026C106.606 87.8469 102.4 84.1603 99.4148 79.554C96.2644 75.0394 94.4308 69.7381 94.1188 64.2418C93.8531 58.9197 95.0617 53.6276 97.6116 48.9486C100.363 43.9378 104.322 39.6934 109.129 36.6007C113.181 33.7855 117.781 31.8555 122.628 30.9365C127.085 30.1142 131.675 30.3994 135.996 31.7672L132.578 45.4651C126.914 43.7973 121.858 44.4581 117.408 47.4475C114.934 49.041 112.919 51.254 111.564 53.8669C110.293 56.3519 109.772 59.1529 110.063 61.9289C110.394 64.9305 111.475 67.8005 113.207 70.2742C114.842 72.8126 117.088 74.8998 119.74 76.3443C122.195 77.6696 124.984 78.2502 127.764 78.0152C130.694 77.7469 133.505 76.7223 135.92 75.0415C140.376 72.0521 142.894 67.6214 143.473 61.7496L157.435 63.7792C157.066 68.297 155.591 72.6546 153.139 76.467C150.449 80.6219 146.91 84.1608 142.755 86.8513C138.089 90.0937 132.692 92.1275 127.046 92.7704Z" fill="white"/>
<path d="M207.602 45.9211L211.227 58.1085L166.48 71.4099L149.903 15.7122L193.621 2.71289L197.246 14.9003L169.133 23.255L171.965 32.6952L196.727 25.3318L200.239 37.1227L175.467 44.4767L178.498 54.6722L207.602 45.9211Z" fill="white"/>
</g>
</svg>
