<svg width="409" height="125" viewBox="0 0 409 125" fill="none" xmlns="http://www.w3.org/2000/svg">
<g opacity="0.1">
<path d="M13.496 66.784L4.4588 66.1316L4.77686 65.0936C5.21501 65.0811 5.64768 64.9926 6.05561 64.8323C6.36696 64.7094 6.63566 64.4984 6.82881 64.225C7.12676 63.8043 7.36793 63.346 7.54606 62.8622C7.81356 62.2184 8.12529 61.2684 8.50479 59.9917L14.6161 39.3246L11.8895 39.1278C11.1388 39.0303 10.3756 39.1115 9.66214 39.3648C9.00596 39.667 8.42874 40.117 7.97581 40.6798C7.14198 41.7349 6.40914 42.8661 5.78691 44.0583L3.74197 43.9107L5.86775 36.8144L28.3618 38.4381L26.1463 45.8594L24.0794 45.7102C24.2118 44.6744 24.2871 43.632 24.3048 42.5878C24.3196 42.0372 24.2238 41.4891 24.0233 40.9761C23.8877 40.6392 23.6436 40.3571 23.3296 40.1745C22.8408 39.9651 22.316 39.8522 21.7843 39.842L18.618 39.6135L12.4516 60.4314C12.28 60.9715 12.1603 61.4049 12.0705 61.73C11.9807 62.055 12.0213 62.4116 11.8624 62.7759C11.7035 63.1402 11.8132 63.4576 11.7925 63.7434C11.7439 64.0999 11.7941 64.4629 11.9378 64.7927C12.0522 65.0614 12.2667 65.2751 12.5358 65.3885C13.0037 65.5705 13.492 65.6949 13.99 65.7587L13.496 66.784Z" fill="white"/>
<path d="M44.5056 53.3294L44.7119 50.4709L71.0979 52.3756L70.8916 55.234L44.5056 53.3294ZM43.8707 62.1247L44.0755 59.2882L70.4615 61.1929L70.2567 64.0294L43.8707 62.1247Z" fill="white"/>
<path d="M109.844 36.7386C110.411 36.7902 110.981 36.787 111.547 36.7288C111.922 36.6922 112.285 36.5751 112.611 36.3857C112.877 36.1836 113.098 35.9287 113.261 35.637C113.518 35.1667 113.745 34.6812 113.941 34.183L115.766 34.3148L114.94 40.5545L97.3492 39.2847L97.4238 38.2513C98.2229 36.6873 99.1663 35.2015 100.242 33.8131C101.717 31.962 103.32 30.2165 105.039 28.5894C106.82 26.8834 108.13 25.5855 108.923 24.6923C109.649 23.8956 110.31 23.0415 110.898 22.1383C111.319 21.468 111.66 20.7508 111.914 20.0014C112.119 19.3572 112.248 18.6917 112.301 18.0179C112.396 17.0426 112.295 16.058 112.001 15.1229C111.729 14.3146 111.227 13.6027 110.558 13.0737C109.795 12.5241 108.887 12.2124 107.948 12.178C106.675 12.0679 105.404 12.409 104.357 13.1416C103.31 13.8741 102.554 14.9515 102.221 16.1852L99.6269 15.9979L99.9237 11.8861C101.535 11.247 103.206 10.768 104.912 10.4558C106.267 10.2163 107.645 10.1304 109.019 10.1997C111.184 10.203 113.276 10.9812 114.917 12.3937C115.566 13.0812 116.052 13.9059 116.339 14.8065C116.626 15.7072 116.706 16.6609 116.575 17.5971C116.535 18.3004 116.41 18.9963 116.204 19.67C116.004 20.3169 115.722 20.9353 115.364 21.5103C114.944 22.1897 114.461 22.8282 113.922 23.4176C113.32 24.1035 112.674 24.7863 111.961 25.4863C111.247 26.1863 110.037 27.3366 108.286 28.9343C105.863 31.0562 103.676 33.4326 101.762 36.0225L109.844 36.7386Z" fill="white"/>
<path d="M131.877 41.777L122.84 41.1246L123.158 40.0866C123.593 40.0685 124.023 39.9879 124.435 39.8473C124.743 39.7078 125.01 39.4911 125.21 39.218C125.512 38.7997 125.753 38.3409 125.927 37.8552C126.295 36.9152 126.615 35.9571 126.886 34.9847L132.996 14.3395L130.269 14.1427C129.52 14.0508 128.761 14.1243 128.043 14.3578C127.386 14.6688 126.809 15.126 126.355 15.6947C125.517 16.7465 124.784 17.8781 124.166 19.0732L122.121 18.9256L124.249 11.8073L146.633 13.423L144.417 20.8445L142.351 20.6953C142.447 19.6548 142.485 18.6097 142.466 17.565C142.474 17.0149 142.378 16.4682 142.184 15.9532C142.042 15.6205 141.8 15.3403 141.491 15.1517C140.999 14.9521 140.475 14.8468 139.944 14.8411L136.844 14.6173L130.701 35.4148C130.528 35.9769 130.408 36.4104 130.318 36.7354C130.228 37.0605 130.27 37.3951 130.134 37.761C130.091 38.0817 130.067 38.4048 130.064 38.7285C130.022 39.092 130.071 39.4601 130.207 39.7997C130.332 40.0567 130.545 40.2604 130.807 40.3735C131.268 40.5748 131.76 40.6998 132.261 40.7437L131.877 41.777Z" fill="white"/>
<path d="M159.247 10.9961L159.16 12.2054L153.069 24.3202L151.284 23.6388L155.223 10.7056L159.247 10.9961Z" fill="white"/>
<path d="M93.5514 86.996C94.7161 85.3924 96.1473 84.0005 97.7828 82.8808C98.9753 82.0665 100.402 81.6649 101.844 81.7373C102.419 81.7429 102.988 81.8696 103.511 82.1092C104.035 82.3488 104.502 82.696 104.882 83.1281C105.591 84.1343 105.889 85.3734 105.715 86.592L105.694 86.8779C105.686 86.9878 105.679 87.0977 105.671 87.2077C106.773 85.7829 108.109 84.5564 109.624 83.5808C110.787 82.8508 112.149 82.5011 113.52 82.5801C114.084 82.5844 114.64 82.7081 115.153 82.9433C115.665 83.1784 116.122 83.5195 116.494 83.9441C117.19 84.8802 117.486 86.0541 117.319 87.2086C117.169 88.4995 116.87 89.7685 116.427 90.9901L114.635 96.5192C114.244 97.5718 113.965 98.6631 113.804 99.7746C113.74 100.209 113.808 100.653 113.999 101.049C114.095 101.185 114.223 101.295 114.372 101.372C114.52 101.448 114.685 101.487 114.852 101.486C115.352 101.494 115.843 101.343 116.253 101.056C117.049 100.514 117.79 99.8934 118.464 99.2047L119.608 100.503C118.56 101.499 117.407 102.38 116.17 103.128C115.203 103.682 114.09 103.925 112.981 103.826C112.562 103.809 112.153 103.697 111.784 103.498C111.416 103.299 111.097 103.019 110.853 102.678C110.322 101.918 110.09 100.988 110.202 100.067C110.369 98.6852 110.705 97.3288 111.201 96.0281L112.413 92.4023C112.841 91.0628 113.132 90.0892 113.288 89.4595C113.426 88.9518 113.522 88.4341 113.577 87.9111C113.705 87.148 113.583 86.364 113.23 85.6757C113.052 85.4301 112.818 85.2313 112.547 85.0962C112.275 84.9611 111.975 84.8939 111.672 84.9002C110.972 84.8823 110.282 85.0708 109.688 85.4421C108.806 85.9546 108.013 86.6064 107.339 87.3723C106.564 88.1978 105.871 89.0951 105.266 90.0519C104.666 91.0901 104.2 92.2002 103.879 93.3556L101.267 102.583L97.5514 102.315L100.808 91.4983C101.211 90.2012 101.472 89.336 101.636 88.5963C101.773 88.0664 101.863 87.5257 101.907 86.9803C102.038 86.2114 101.9 85.4209 101.516 84.7418C101.321 84.4934 101.071 84.2936 100.785 84.158C100.5 84.0224 100.187 83.9546 99.871 83.9599C99.1921 83.9525 98.5257 84.1424 97.9528 84.5066C97.0652 85.0593 96.2697 85.7477 95.5952 86.5467C94.8269 87.384 94.1462 88.2977 93.5638 89.2735C92.9841 90.3117 92.5263 91.4134 92.1996 92.5568L89.4848 101.688L85.7908 101.422L89.8941 88.0582C90.2312 87.0328 90.463 85.9756 90.586 84.9032C90.6508 84.4782 90.59 84.0436 90.411 83.6528C90.3186 83.5114 90.1923 83.3954 90.0437 83.3152C89.8951 83.235 89.7289 83.1932 89.56 83.1935C89.0413 83.1781 88.5322 83.3358 88.1131 83.6417C87.3383 84.1873 86.6136 84.8007 85.9473 85.4746L84.8016 84.1983C85.8629 83.194 87.0234 82.3003 88.2654 81.5307C89.1924 81.0017 90.2568 80.7629 91.321 80.8451C91.7326 80.8432 92.1392 80.9358 92.5094 81.1158C92.8796 81.2958 93.2036 81.5584 93.4563 81.8834C93.9543 82.5739 94.1766 83.4254 94.0796 84.2713C94.0006 85.1292 93.768 85.9658 93.3929 86.7414L93.5514 86.996ZM137.813 89.9036C137.869 89.1034 137.831 88.2993 137.698 87.5082C137.628 87.0649 137.398 86.6628 137.05 86.3784C136.645 86.0757 136.154 85.9088 135.648 85.9014C134.915 85.8582 134.18 85.9649 133.489 86.2153C132.799 86.4657 132.166 86.8543 131.631 87.3575C130.235 88.6579 129.153 90.2573 128.464 92.0358C127.623 93.9332 127.103 95.9573 126.926 98.0252C126.753 99.1692 126.972 100.338 127.549 101.341C127.841 101.727 128.218 102.04 128.651 102.255C129.085 102.471 129.562 102.583 130.045 102.583C131.214 102.699 132.393 102.534 133.484 102.101C134.641 101.555 135.712 100.843 136.665 99.9881L137.89 101.381C136.644 102.622 135.186 103.632 133.586 104.363C132.171 104.941 130.639 105.179 129.115 105.057C128.239 105.053 127.374 104.855 126.584 104.477C125.793 104.099 125.096 103.55 124.543 102.871C123.48 101.262 123.046 99.3192 123.324 97.4115C123.477 95.7015 123.888 94.0245 124.545 92.4381C125.197 90.7209 126.166 89.1415 127.401 87.7816C128.515 86.5318 129.911 85.5644 131.472 84.959C133.003 84.3795 134.642 84.1432 136.274 84.2668C138.047 84.3833 139.797 84.7251 141.484 85.2838L140.011 90.0623L137.813 89.9036Z" fill="white"/>
<path d="M155.427 90.7992C155.813 90.855 156.203 90.8831 156.593 90.8833C156.851 90.8754 157.105 90.8107 157.336 90.6938C157.556 90.5656 157.737 90.3801 157.861 90.157C158.01 89.9247 158.189 89.584 158.421 89.1365L159.96 89.2476L159.669 91.437C159.615 92.1846 159.451 92.9242 159.356 93.6247L146.163 92.6724L146.222 91.8587C146.514 91.3097 146.84 90.7796 147.199 90.2715C147.59 89.7472 148.004 89.2245 148.441 88.6814C148.878 88.1383 149.425 87.603 149.995 87.0475C150.566 86.4919 151.204 85.9191 151.888 85.3274C152.927 84.4078 153.801 83.6309 154.443 82.9921C155.008 82.4456 155.537 81.8637 156.028 81.2499C156.374 80.8117 156.655 80.3258 156.862 79.8071C157.031 79.3375 157.133 78.8464 157.166 78.3482C157.21 77.8561 157.171 77.3602 157.051 76.881C156.947 76.447 156.75 76.0406 156.474 75.69C156.21 75.345 155.865 75.0698 155.471 74.8882C155.007 74.6697 154.506 74.5434 153.994 74.5164C153.125 74.4144 152.248 74.6253 151.52 75.1114C150.781 75.6464 150.195 76.3664 149.822 77.1991L147.777 77.0515L147.993 74.0611C149.22 73.6512 150.477 73.3356 151.753 73.1169C152.757 72.9591 153.776 72.9067 154.792 72.9605C155.73 73.0104 156.656 73.2039 157.535 73.5343C158.205 73.7817 158.817 74.1644 159.333 74.6586C159.768 75.0961 160.086 75.6359 160.259 76.2284C160.438 76.8498 160.504 77.4986 160.452 78.1433C160.448 78.5184 160.421 78.893 160.371 79.2647C160.285 79.6162 160.157 79.9558 159.988 80.2759C159.814 80.62 159.606 80.9455 159.366 81.2477C159.083 81.6189 158.769 81.9659 158.429 82.2852C158.085 82.6623 157.719 83.0196 157.335 83.3556L155.87 84.6645L154.196 86.1129L152.519 87.6054C151.975 88.0966 151.453 88.5894 151.001 89.043C150.596 89.4561 150.218 89.8938 149.867 90.3536L155.427 90.7992Z" fill="white"/>
<path d="M166.336 63.7591L86.1661 57.9722L85.9566 60.8746L166.126 66.6615L166.336 63.7591Z" fill="white"/>
<path d="M181.192 66.1354C180.742 70.4214 181.3 74.7531 182.821 78.7854C183.412 80.3828 184.327 81.8406 185.509 83.0671C186.691 84.2936 188.114 85.2622 189.689 85.912L189.064 87.5246C187.105 86.8895 185.292 85.8738 183.727 84.5356C182.162 83.1975 180.877 81.5634 179.946 79.7272C178.046 75.517 177.226 70.8999 177.558 66.2931C177.891 61.6862 179.366 57.2349 181.85 53.3412C183.03 51.6522 184.532 50.2128 186.269 49.1055C188.007 47.9982 189.946 47.2448 191.975 46.8885L192.426 48.6009C190.777 48.9903 189.227 49.7161 187.872 50.7327C186.517 51.7493 185.386 53.0347 184.551 54.5086C182.548 58.0726 181.398 62.0523 181.192 66.1354Z" fill="white"/>
<path d="M203.806 80.5213L194.768 79.8689L195.085 78.8529C195.522 78.8297 195.953 78.7417 196.364 78.5916C196.666 78.4541 196.931 78.2459 197.137 77.9843C197.439 77.5578 197.681 77.0918 197.856 76.5995C198.224 75.6671 198.543 74.7164 198.813 73.751L204.924 53.0838L202.198 52.887C201.447 52.7895 200.684 52.8707 199.97 53.1241C199.309 53.4174 198.729 53.8691 198.284 54.4391C197.45 55.4942 196.717 56.6253 196.095 57.8175L194.05 57.6699L196.177 50.5517L218.561 52.1674L216.344 59.6108L214.277 59.4616C214.377 58.0763 214.454 57.0209 214.393 56.3313C214.408 55.7806 214.312 55.2326 214.111 54.7195C213.97 54.3812 213.728 54.0939 213.419 53.896C212.928 53.6964 212.403 53.5911 211.872 53.5854L208.706 53.3568L202.518 74.1731L202.159 75.4734L201.952 76.4973C201.925 76.8711 201.901 77.201 201.881 77.4868C201.832 77.8433 201.882 78.2063 202.026 78.5362C202.147 78.8 202.36 79.0114 202.624 79.1319C203.092 79.314 203.58 79.4383 204.078 79.5021L203.806 80.5213Z" fill="white"/>
<path d="M231.206 49.7203L231.117 50.9517L225.028 63.0445L223.264 62.3646L227.204 49.4314L231.206 49.7203Z" fill="white"/>
<path d="M261.191 73.3909L260.299 85.7484L257.265 85.5293L258.157 73.1719L246.459 72.3275L246.664 69.491L258.361 70.3354L259.253 57.9779L262.288 58.197L261.396 70.5544L273.094 71.3988L272.889 74.2353L261.191 73.3909Z" fill="white"/>
<path d="M300.317 84.0397C300.883 84.0859 301.452 84.09 302.018 84.052C302.396 84.0088 302.759 83.8842 303.084 83.6868C303.355 83.4996 303.577 83.2505 303.733 82.9601C303.985 82.488 304.212 82.0027 304.412 81.5062L306.237 81.6379L305.435 87.8572L287.844 86.5874L287.917 85.576C288.712 84.0094 289.655 82.5231 290.735 81.1378C292.217 79.2848 293.82 77.5324 295.534 75.8922C297.315 74.1862 298.625 72.8882 299.419 71.995C300.143 71.2053 300.803 70.3586 301.392 69.463C301.815 68.7941 302.156 68.0766 302.408 67.3261C302.63 66.6863 302.768 66.0199 302.816 65.3442C302.906 64.374 302.796 63.3956 302.493 62.4696C302.24 61.6512 301.735 60.9339 301.05 60.4203C300.292 59.8609 299.381 59.5482 298.44 59.5247C297.168 59.419 295.899 59.7618 294.853 60.4937C293.807 61.2256 293.05 62.3005 292.713 63.5319L290.031 63.3383L290.328 59.2265C291.937 58.588 293.608 58.116 295.314 57.8181C296.668 57.5676 298.047 57.4816 299.421 57.5621C301.584 57.5588 303.677 58.3292 305.321 59.734C305.975 60.4233 306.466 61.2511 306.756 62.156C307.047 63.0609 307.13 64.0196 306.999 64.961C306.95 65.6645 306.819 66.3598 306.607 67.0324C306.416 67.6829 306.133 68.3026 305.766 68.8726C305.344 69.5506 304.862 70.189 304.325 70.7799C303.746 71.4454 303.078 72.1266 302.363 72.8486C301.648 73.5706 300.441 74.6769 298.69 76.2746C296.277 78.4063 294.091 80.7817 292.166 83.3629L300.317 84.0397Z" fill="white"/>
<path d="M319.868 73.7806C321.026 72.1714 322.458 70.7785 324.099 69.6655C325.285 68.8552 326.703 68.4532 328.138 68.5203C328.718 68.5186 329.292 68.6422 329.82 68.8825C330.348 69.1228 330.818 69.4742 331.198 69.9127C331.894 70.9155 332.185 72.1448 332.011 73.3531L331.959 74.0787C333.043 72.6379 334.383 71.4085 335.911 70.4518C337.075 69.7218 338.436 69.372 339.808 69.451C340.366 69.4539 340.918 69.5747 341.427 69.8057C341.936 70.0367 342.391 70.3727 342.761 70.7915C343.112 71.2565 343.368 71.7865 343.513 72.3509C343.658 72.9152 343.69 73.5028 343.607 74.0796C343.457 75.3704 343.158 76.6395 342.715 77.8611L340.901 83.3886C340.524 84.4448 340.253 85.5358 340.091 86.6455C340.02 87.0732 340.089 87.5124 340.288 87.8975C340.379 88.0403 340.505 88.1575 340.654 88.2379C340.803 88.3182 340.97 88.3592 341.139 88.3568C341.64 88.3646 342.13 88.2144 342.541 87.9275C343.332 87.3784 344.073 86.7586 344.752 86.0757L345.876 87.3504C344.839 88.3585 343.693 89.2469 342.458 89.9991C341.49 90.5498 340.378 90.7933 339.269 90.6973C338.851 90.677 338.443 90.5633 338.075 90.3646C337.706 90.1659 337.387 89.8872 337.141 89.549C336.623 88.7827 336.392 87.858 336.49 86.9381C336.668 85.5582 337.003 84.2031 337.489 82.8991L338.702 79.2513C339.151 77.9354 339.442 76.9618 339.598 76.332C339.729 75.8234 339.818 75.305 339.865 74.782C339.993 74.0217 339.879 73.2404 339.54 72.5482C339.357 72.3092 339.121 72.1164 338.85 71.9855C338.579 71.8546 338.281 71.7892 337.981 71.7947C337.283 71.7719 336.594 71.9526 335.998 72.3147C335.112 72.8689 334.316 73.5571 333.64 74.3548C332.862 75.1764 332.168 76.0741 331.568 77.0344C330.962 78.0618 330.496 79.1654 330.182 80.3161L327.549 89.5419L323.855 89.2752L327.111 78.4588C327.492 77.1602 327.776 76.2964 327.94 75.5568C328.066 75.0173 328.157 74.4701 328.213 73.9188C328.34 73.1498 328.202 72.3606 327.822 71.6802C327.614 71.4409 327.358 71.2491 327.07 71.1177C326.782 70.9863 326.469 70.9185 326.152 70.9188C325.485 70.917 324.829 71.0991 324.258 71.4451C323.377 72.0066 322.582 72.6939 321.9 73.4852C321.118 74.3159 320.43 75.2297 319.847 76.2104C319.276 77.2427 318.826 78.3376 318.506 79.4733L315.792 88.6048L312.076 88.3365L316.201 74.9747C316.539 73.9572 316.77 72.9072 316.891 71.8417C316.954 71.4071 316.886 70.9634 316.696 70.5677C316.601 70.4302 316.473 70.3183 316.324 70.242C316.176 70.1658 316.01 70.1274 315.843 70.1304C315.33 70.1099 314.826 70.2689 314.418 70.5801C313.625 71.1099 312.892 71.724 312.23 72.4115L311.108 71.1148C312.164 70.1108 313.325 69.2238 314.571 68.4693C315.498 67.9402 316.562 67.7014 317.626 67.7836C318.038 67.7817 318.444 67.8743 318.815 68.0543C319.185 68.2343 319.509 68.4969 319.761 68.8218C320.247 69.5168 320.461 70.3659 320.363 71.2082C320.292 72.0654 320.067 72.9028 319.698 73.6799L319.868 73.7806ZM364.284 76.6773C364.355 75.8859 364.324 75.0887 364.19 74.3055C364.098 73.8645 363.872 73.4625 363.544 73.1537C363.135 72.8598 362.644 72.7009 362.14 72.6987C361.408 72.6515 360.675 72.7542 359.984 73.0009C359.294 73.2475 358.661 73.6328 358.124 74.1329C356.733 75.4453 355.651 77.0508 354.956 78.8331C354.113 80.73 353.594 82.7544 353.419 84.8226C353.248 85.9665 353.468 87.1344 354.041 88.1387C354.333 88.5244 354.71 88.8372 355.144 89.0525C355.577 89.2679 356.054 89.3799 356.538 89.3799C357.708 89.498 358.89 89.3252 359.978 88.8767C361.129 88.3799 362.198 87.7118 363.149 86.8953L364.353 88.2862C363.124 89.5334 361.672 90.5383 360.072 91.2485C358.657 91.8312 357.126 92.0763 355.6 91.9645C354.723 91.9636 353.857 91.7668 353.066 91.3885C352.275 91.0101 351.578 90.4599 351.027 89.7778C349.957 88.1636 349.516 86.2129 349.788 84.2952C349.942 82.5854 350.354 80.9087 351.008 79.3218C351.664 77.6088 352.64 76.0365 353.885 74.6889C355.005 73.4389 356.399 72.4653 357.958 71.8443C359.49 71.2717 361.129 71.0429 362.759 71.174C364.526 71.2775 366.27 71.6191 367.946 72.1895L366.563 76.9523L364.284 76.6773Z" fill="white"/>
<path d="M382.048 74.6664C382.434 74.7201 382.823 74.7482 383.213 74.7505C383.472 74.7426 383.726 74.6779 383.956 74.561C384.172 74.4266 384.352 74.2426 384.481 74.0242C384.632 73.7699 384.812 73.4292 385.019 73.0021L386.58 73.1148C386.527 73.8624 386.474 74.588 386.268 75.3025L385.977 77.4918L372.784 76.5395L372.843 75.726C373.126 75.1719 373.453 74.6412 373.82 74.1387C374.189 73.6128 374.602 73.0901 375.062 72.5485C375.521 72.007 376.046 71.4702 376.616 70.9146C377.187 70.359 377.825 69.7862 378.51 69.1726C379.547 68.275 380.399 67.4965 381.064 66.8593C381.629 66.3128 382.158 65.7309 382.649 65.1171C382.991 64.6762 383.271 64.1907 383.482 63.6742C383.652 63.2046 383.754 62.7135 383.787 62.2153C383.83 61.7161 383.792 61.2131 383.673 60.7262C383.563 60.3007 383.366 59.9026 383.094 59.5572C382.834 59.2038 382.49 58.9207 382.093 58.7334C381.63 58.5149 381.128 58.3885 380.617 58.3616C379.744 58.2655 378.866 58.4844 378.141 58.9786C377.402 59.5136 376.816 60.2336 376.443 61.0663L374.398 60.9187L374.617 57.8843C375.843 57.4712 377.1 57.1555 378.376 56.9401C379.381 56.7823 380.4 56.7299 381.416 56.7837C382.354 56.8353 383.279 57.0288 384.159 57.3575C384.829 57.6049 385.441 57.9876 385.957 58.4818C386.39 58.921 386.708 59.4602 386.882 60.0516C387.046 60.6754 387.103 61.3221 387.054 61.9649C387.061 62.3404 387.034 62.7158 386.973 63.0863C386.893 63.437 386.772 63.777 386.612 64.0991C386.438 64.4432 386.229 64.7687 385.99 65.0709C385.722 65.4053 385.411 65.7364 385.053 66.1084C384.694 66.4804 384.408 66.7692 383.959 67.1788L382.494 68.4877L380.82 69.9361L379.143 71.4286C378.599 71.9198 378.079 72.3906 377.625 72.8662C377.17 73.3417 376.787 73.7561 376.471 74.1532L382.048 74.6664Z" fill="white"/>
<path d="M401.407 82.0314C401.854 77.901 401.331 73.7233 399.879 69.8308C399.263 68.2491 398.326 66.8124 397.127 65.6112C395.927 64.41 394.492 63.4704 392.912 62.8517L393.604 61.2219C395.563 61.8627 397.375 62.8854 398.936 64.2311C400.497 65.5768 401.775 67.2187 402.697 69.0618C404.597 73.2719 405.417 77.889 405.085 82.4958C404.752 87.1027 403.277 91.5541 400.792 95.4478C399.615 97.1389 398.111 98.577 396.369 99.6774C394.627 100.778 392.682 101.518 390.649 101.855L390.262 100.169C391.916 99.7526 393.467 98.9989 394.816 97.9553C396.166 96.9117 397.285 95.6007 398.104 94.1043C400.103 90.3811 401.232 86.2535 401.407 82.0314Z" fill="white"/>
</g>
</svg>
