<svg width="375" height="297" viewBox="0 0 375 297" fill="none" xmlns="http://www.w3.org/2000/svg">
<path d="M-7.04435e-09 294.623C125.325 296.226 250.597 293.02 375.895 294.623" stroke="#A5D936" stroke-width="2" stroke-miterlimit="10"/>
<path d="M-8.71326e-08 281.098C63.344 289.438 124.669 287.985 187.961 281.098C251.252 274.211 312.551 272.758 375.895 281.098" stroke="#A5D936" stroke-width="2" stroke-miterlimit="10"/>
<path d="M-1.64342e-07 267.549C64.4714 283.502 123.594 280.447 187.961 267.549C252.327 254.651 311.424 251.595 375.895 267.549" stroke="#A5D936" stroke-width="2" stroke-miterlimit="10"/>
<path d="M-2.6555e-07 254.001C31.3788 265.434 64.6574 271.373 98.2409 271.533C129.703 271.708 158.072 262.617 187.961 254.001C215.7 246.087 243.02 236.771 272.148 236.595C307.564 236.172 342.75 242.076 375.895 254.001" stroke="#A5D936" stroke-width="2" stroke-miterlimit="10"/>
<path d="M-3.39924e-07 240.45C31.3197 255.484 65.9436 263.16 100.994 262.84C132.037 262.64 159.33 250.869 187.961 240.45C214.494 230.808 240.844 218.962 269.527 218.111C306.383 216.918 342.962 224.6 375.895 240.45" stroke="#A5D936" stroke-width="2" stroke-miterlimit="10"/>
<path d="M-4.12097e-07 227.001C30.6757 244.733 62.4788 254.225 98.372 254.049C131.329 253.899 158.517 239.874 187.961 227.001C215.071 215.155 241.997 200.754 272.28 200.003C310.008 199.026 343.725 208.368 375.895 227.001" stroke="#A5D936" stroke-width="2" stroke-miterlimit="10"/>
<path d="M-4.78433e-07 213.35C29.9153 233.762 61.4301 245.307 98.372 244.731C131.932 244.23 158.884 227.976 187.961 213.35C214.704 199.902 241.473 183.297 272.28 182.07C311.109 180.492 344.511 191.937 375.895 213.35" stroke="#A5D936" stroke-width="2" stroke-miterlimit="10"/>
<path d="M-5.3999e-07 199.804C29.8367 223.221 61.9282 236.97 101.02 235.192C133.636 233.714 160.562 215.156 187.961 199.804C213.55 185.428 239.533 166.97 269.841 164.741C310.768 161.786 344.538 175.135 375.895 199.804" stroke="#A5D936" stroke-width="2" stroke-miterlimit="10"/>
<path d="M-5.97453e-07 186.252C28.2636 211.297 59.2015 227.3 98.5555 225.472C132.928 223.869 159.959 203.508 187.961 186.252C214.179 170.048 240.398 149.987 272.437 147.433C313.679 144.177 346.137 159.955 375.895 186.252" stroke="#A5D936" stroke-width="2" stroke-miterlimit="10"/>
<path d="M-6.50961e-07 172.702C28.08 200.251 59.6734 218.584 101.02 215.052C134.554 212.147 161.087 190.509 187.961 172.702C212.921 156.148 239.139 134.459 270.077 130.777C313.18 125.769 346.478 143.826 375.895 172.702" stroke="#A5D936" stroke-width="2" stroke-miterlimit="10"/>
<path d="M-6.99971e-07 159.156C27.7392 188.984 60.0406 209.896 103.38 204.236C135.865 200.053 162.371 177.113 187.961 159.156C213.55 141.199 240.004 118.133 272.542 114.075C315.96 108.541 348.051 129.277 375.895 159.156" stroke="#A5D936" stroke-width="2" stroke-miterlimit="10"/>
<path d="M-7.42404e-07 145.605C26.874 176.885 58.9656 200.477 103.38 193.415C136.048 188.231 162.555 164.363 187.961 145.605C213.366 126.846 239.847 103.029 272.542 97.7945C317.113 90.807 348.89 114.149 375.895 145.605" stroke="#A5D936" stroke-width="2" stroke-miterlimit="10"/>
<path d="M-7.82968e-07 132.056C25.432 163.913 56.3437 190.11 101.02 182.621C135.104 176.911 161.926 151.992 187.961 132.056C212.763 113.047 238.51 89.255 270.444 82.493C316.877 72.4752 349.1 98.5216 376 132.056" stroke="#A5D936" stroke-width="2" stroke-miterlimit="10"/>
<path d="M-8.27243e-07 118.508C23.9113 150.49 54.2463 179.642 98.7915 171.578C133.688 165.266 161.506 139.37 187.935 118.508C213.314 98.4725 239.769 74.0041 272.647 66.4657C319.08 55.7967 350.673 84.7732 375.869 118.508" stroke="#A5D936" stroke-width="2" stroke-miterlimit="10"/>
<path d="M-8.57059e-07 104.96C23.8064 138.795 54.587 170.601 101.02 159.231C134.763 150.991 162.004 125.797 187.961 104.96C212.763 85.1242 238.982 60.8059 270.444 51.6897C318.634 37.9402 350.673 69.2208 375.816 104.884" stroke="#A5D936" stroke-width="2" stroke-miterlimit="10"/>
<path d="M-8.9345e-07 91.4087C23.5967 126.947 55.059 161.133 103.144 146.507C135.576 136.664 162.607 111.97 187.961 91.4087C213.314 70.8471 240.398 46.3285 272.751 36.3106C320.626 21.2839 352.351 56.1459 375.895 91.4087" stroke="#A5D936" stroke-width="2" stroke-miterlimit="10"/>
<path d="M-8.55919e-07 77.8609C23.8064 111.696 54.587 143.503 101.02 132.132C134.763 123.893 162.004 98.6979 187.961 77.8609C212.763 58.0256 238.982 33.7073 270.444 24.6662C318.634 10.9167 350.673 42.1974 375.816 77.8609" stroke="#A5D936" stroke-width="2" stroke-miterlimit="10"/>
<path d="M-8.22356e-07 64.2115C23.9113 96.1934 54.2463 125.345 98.7915 117.281C133.688 110.97 161.506 85.0736 187.935 64.2115C213.314 44.1758 239.769 19.7072 272.647 12.1688C319.08 1.4998 350.673 30.4764 375.869 64.2115" stroke="#A5D936" stroke-width="2" stroke-miterlimit="10"/>
<path d="M-7.87656e-07 50.7646C25.432 82.6212 56.3437 108.818 101.02 101.33C135.104 95.6194 161.926 70.7 187.961 50.7646C212.763 31.6556 238.51 8.01354 270.444 1.20142C316.877 -8.81641 349.1 17.2048 376 50.7646" stroke="#A5D936" stroke-width="2" stroke-miterlimit="10"/>
<path d="M-7.42402e-07 37.2158C26.874 68.4964 58.9656 92.0634 103.38 85.0259C136.048 79.8166 162.555 55.9741 187.961 37.2158C213.366 18.4574 239.847 -5.48512 272.542 -10.5942C317.113 -17.5816 348.89 5.7598 375.895 37.2158" stroke="#A5D936" stroke-width="2" stroke-miterlimit="10"/>
<path d="M-7.00465e-07 23.6647C27.7392 53.4928 60.0406 74.405 103.38 68.7449C135.865 64.5625 162.371 41.5966 187.961 23.6647C213.55 5.7328 240.004 -17.3833 272.542 -21.4155C315.96 -26.9253 348.051 -6.21346 375.895 23.6647" stroke="#A5D936" stroke-width="2" stroke-miterlimit="10"/>
<path d="M-6.47104e-07 10.1143C28.08 37.6633 59.6734 55.9959 101.02 52.4395C134.554 49.5594 161.087 27.921 187.961 10.1143C212.921 -6.44013 239.139 -28.1289 270.077 -31.8104C313.18 -36.8193 346.478 -18.7621 375.895 10.1143" stroke="#A5D936" stroke-width="2" stroke-miterlimit="10"/>
<path d="M-5.93994e-07 -3.40852C28.2636 21.636 59.2015 37.6145 98.5555 35.7863C132.928 34.2085 159.959 13.8472 187.961 -3.40852C214.179 -19.6374 240.398 -39.6731 272.437 -42.2276C313.679 -45.5084 346.137 -29.7053 375.895 -3.40852" stroke="#A5D936" stroke-width="2" stroke-miterlimit="10"/>
<path d="M-5.3999e-07 -16.9813C29.8367 6.4354 61.9282 20.1598 101.02 18.4067C133.636 16.9291 160.562 -1.62896 187.961 -16.9813C213.55 -31.3819 239.533 -49.8147 269.841 -52.0437C310.768 -54.9989 344.538 -41.6502 375.895 -16.9813" stroke="#A5D936" stroke-width="2" stroke-miterlimit="10"/>
<path d="M-4.7873e-07 -30.5362C29.9153 -10.1249 61.4301 1.39566 98.372 0.844675C131.932 0.318739 158.884 -15.9353 187.961 -30.5362C214.704 -44.0102 241.473 -60.5897 272.28 -61.842C311.109 -63.3947 344.511 -51.8241 375.895 -30.5362" stroke="#A5D936" stroke-width="2" stroke-miterlimit="10"/>
</svg>
