<svg width="514" height="681" viewBox="0 0 514 681" fill="none" xmlns="http://www.w3.org/2000/svg">
<path d="M512.202 680C514.968 453.722 509.436 227.54 512.202 1.30925" stroke="#126B89" stroke-width="2" stroke-miterlimit="10"/>
<path d="M488.864 680C503.255 565.63 500.749 454.906 488.864 340.631C476.979 226.356 474.473 115.679 488.864 1.30925" stroke="#126B89" stroke-width="2" stroke-miterlimit="10"/>
<path d="M465.484 680C493.014 563.595 487.741 456.847 465.484 340.631C443.227 224.415 437.955 117.714 465.484 1.30925" stroke="#126B89" stroke-width="2" stroke-miterlimit="10"/>
<path d="M442.102 680C461.831 623.345 472.079 563.259 472.355 502.623C472.657 445.817 456.969 394.597 442.102 340.631C428.446 290.547 412.369 241.22 412.066 188.627C411.336 124.683 421.523 61.1534 442.102 1.30925" stroke="#126B89" stroke-width="2" stroke-miterlimit="10"/>
<path d="M418.722 680C444.665 623.451 457.91 560.937 457.358 497.652C457.012 441.604 436.7 392.324 418.722 340.631C402.083 292.724 381.641 245.149 380.172 193.361C378.113 126.815 391.369 60.7717 418.722 1.30925" stroke="#126B89" stroke-width="2" stroke-miterlimit="10"/>
<path d="M395.513 680C426.111 624.614 442.491 567.192 442.188 502.386C441.929 442.882 417.727 393.792 395.513 340.631C375.072 291.683 350.221 243.066 348.925 188.39C347.239 120.27 363.36 59.3935 395.513 1.30925" stroke="#126B89" stroke-width="2" stroke-miterlimit="10"/>
<path d="M371.96 680C407.183 625.987 427.106 569.086 426.112 502.386C425.248 441.793 397.199 393.129 371.96 340.631C348.753 292.346 320.099 244.013 317.982 188.39C315.259 118.282 335.009 57.9733 371.96 1.30924" stroke="#126B89" stroke-width="2" stroke-miterlimit="10"/>
<path d="M348.58 680C388.989 626.129 412.715 568.187 409.647 497.605C407.097 438.716 375.073 390.1 348.58 340.631C323.773 294.429 291.922 247.516 288.076 192.793C282.976 118.898 306.011 57.926 348.58 1.30924" stroke="#126B89" stroke-width="2" stroke-miterlimit="10"/>
<path d="M325.199 680C368.416 628.969 396.032 573.11 392.877 502.055C390.111 439.994 354.975 391.188 325.199 340.631C297.237 293.293 262.62 245.954 258.211 188.106C252.593 113.643 279.82 55.0383 325.199 1.30924" stroke="#126B89" stroke-width="2" stroke-miterlimit="10"/>
<path d="M301.819 680C349.358 629.301 380.993 572.258 374.899 497.605C369.886 437.059 332.546 389.153 301.819 340.631C273.252 295.565 235.825 248.226 229.473 192.367C220.829 114.543 251.989 54.4229 301.819 1.30924" stroke="#126B89" stroke-width="2" stroke-miterlimit="10"/>
<path d="M278.438 680C329.91 629.916 365.997 571.595 356.23 493.344C349.012 434.692 309.425 386.833 278.438 340.631C247.451 294.429 207.648 246.664 200.647 187.917C191.095 109.525 226.88 51.5826 278.438 1.30924" stroke="#126B89" stroke-width="2" stroke-miterlimit="10"/>
<path d="M255.058 680C309.037 631.478 349.748 573.536 337.56 493.344C328.614 434.361 287.428 386.502 255.058 340.631C222.688 294.76 181.588 246.948 172.556 187.917C160.498 107.442 200.777 50.0678 255.058 1.30924" stroke="#126B89" stroke-width="2" stroke-miterlimit="10"/>
<path d="M231.677 680C286.649 634.082 331.855 578.27 318.933 497.605C309.079 436.065 266.078 387.638 231.677 340.631C198.875 295.849 157.818 249.362 146.149 191.704C128.862 107.868 173.809 49.6889 231.677 1.1197" stroke="#126B89" stroke-width="2" stroke-miterlimit="10"/>
<path d="M208.296 680C263.485 636.827 313.79 582.057 299.874 501.629C288.983 438.621 244.296 388.395 208.296 340.678C173.722 294.854 131.499 247.09 118.49 187.728C100.08 103.891 150.082 46.8486 208.296 1.35641" stroke="#126B89" stroke-width="2" stroke-miterlimit="10"/>
<path d="M184.914 680C243.301 637.017 298.187 581.441 278.566 497.605C264.348 436.68 220.871 387.496 184.914 340.631C150.686 295.849 108.722 248.51 92.9905 191.704C69.2641 104.696 123.243 46.8488 184.784 1.45124" stroke="#126B89" stroke-width="2" stroke-miterlimit="10"/>
<path d="M161.534 680C222.86 637.395 281.852 580.589 256.613 493.771C239.628 435.213 197.016 386.407 161.534 340.631C126.053 294.855 83.7427 245.954 66.4557 187.538C40.5252 101.098 100.684 43.8191 161.534 1.30924" stroke="#126B89" stroke-width="2" stroke-miterlimit="10"/>
<path d="M138.154 680C196.541 637.017 251.427 581.441 231.806 497.605C217.588 436.68 174.111 387.496 138.154 340.631C103.926 295.849 61.9615 248.51 46.36 191.704C22.6336 104.696 76.6122 46.8488 138.154 1.45124" stroke="#126B89" stroke-width="2" stroke-miterlimit="10"/>
<path d="M114.6 680C169.788 636.827 220.094 582.057 206.178 501.629C195.287 438.621 150.6 388.395 114.6 340.678C80.0256 294.854 37.802 247.09 24.7935 187.728C6.38285 103.891 56.3856 46.8486 114.6 1.35641" stroke="#126B89" stroke-width="2" stroke-miterlimit="10"/>
<path d="M91.393 680C146.366 634.082 191.571 578.27 178.649 497.605C168.796 436.065 125.794 387.638 91.393 340.631C58.418 295.849 17.6208 249.362 5.86562 191.704C-11.4214 107.868 33.4815 49.6889 91.393 1.1197" stroke="#126B89" stroke-width="2" stroke-miterlimit="10"/>
<path d="M68.012 680C121.991 631.478 162.658 573.536 150.514 493.344C141.525 434.361 100.382 386.502 68.012 340.631C35.6421 294.76 -5.6737 246.948 -14.4901 187.917C-26.5478 107.442 13.7308 50.0678 68.012 1.30924" stroke="#126B89" stroke-width="2" stroke-miterlimit="10"/>
<path d="M44.6301 680C96.1022 629.916 132.189 571.595 122.422 493.344C115.204 434.692 75.5739 386.833 44.6301 340.631C13.6864 294.429 -26.2034 246.664 -33.1614 187.917C-42.6692 109.525 -6.92836 51.5826 44.6301 1.30924" stroke="#126B89" stroke-width="2" stroke-miterlimit="10"/>
<path d="M21.2507 680C68.79 629.301 100.425 572.258 94.2881 497.605C89.3181 437.059 51.9783 389.153 21.2507 340.631C-7.31607 295.565 -44.7426 248.226 -51.0956 192.367C-59.7391 114.543 -28.5791 54.4229 21.2507 1.30924" stroke="#126B89" stroke-width="2" stroke-miterlimit="10"/>
<path d="M-2.08631 680C41.1312 628.969 68.7041 573.11 65.5492 502.055C62.8265 439.994 27.6905 391.188 -2.08632 340.631C-30.0913 293.293 -64.6653 245.954 -69.0735 188.106C-74.735 113.643 -47.4647 55.0383 -2.08634 1.30924" stroke="#126B89" stroke-width="2" stroke-miterlimit="10"/>
<path d="M-25.51 680C14.8983 626.129 38.5815 568.187 35.5563 497.605C33.0065 438.716 0.982276 390.1 -25.5101 340.631C-50.3601 294.429 -82.1682 247.516 -86.0146 192.793C-91.1142 118.898 -68.0793 57.926 -25.5101 1.30924" stroke="#126B89" stroke-width="2" stroke-miterlimit="10"/>
<path d="M-48.8922 680C-13.67 625.987 6.2102 569.086 5.25941 502.386C4.35184 441.793 -23.6965 393.129 -48.8923 340.631C-72.1433 292.346 -100.753 244.013 -102.914 188.39C-105.594 118.282 -85.6272 57.9733 -48.8923 1.30924" stroke="#126B89" stroke-width="2" stroke-miterlimit="10"/>
</svg>
