<svg width="236" height="96" viewBox="0 0 236 96" fill="none" xmlns="http://www.w3.org/2000/svg">
<path d="M13.5459 43.7677L13.3997 44.7632L14.2815 44.2785C16.426 43.0998 18.4976 42.0186 20.496 41.0351L20.7274 40.9212L20.7687 40.6666C22.4825 30.1174 25.0688 19.7547 28.4965 9.70238L28.8778 8.58412L27.8096 9.08896C25.6879 10.0917 23.4692 11.1857 21.1595 12.3906L21.0497 12.4479L20.9793 12.5498C16.1296 19.5736 11.6618 26.8938 7.59824 34.4733C5.06394 31.0423 1.92997 28.1714 -1.63136 26.0254L-1.89694 25.8653L-2.15835 26.0321C-5.07976 27.8959 -8.1194 29.8809 -11.2774 31.9869L-11.5 32.1354V32.4029V59.6813V60.6412L-10.7134 60.0911C-8.01125 58.201 -5.40186 56.4216 -2.88525 54.7528L-2.67934 54.6162L-2.66271 54.3697C-2.33995 49.5832 -1.99273 44.8874 -1.62092 40.2824C0.525785 42.1731 2.41733 44.3817 3.99656 46.8446L4.26457 47.2626L4.68442 46.9975C5.84844 46.2625 6.99021 45.5513 8.10982 44.864L8.23403 44.7878L8.29781 44.6567C10.7408 39.6379 13.3135 34.6664 16.0194 29.8557C15.0987 34.2704 14.2615 38.8965 13.5459 43.7677Z" fill="#A5D936" stroke="#A5D936"/>
<path d="M48.4009 8.14044L48.6557 8.08877L48.7598 7.85052C49.6653 5.77686 50.619 3.79979 51.6029 1.91281L52.0762 1.005L51.0693 1.18986C45.5496 2.20315 40.1396 3.81502 34.9218 6.00068L34.7281 6.08184L34.6504 6.27703C30.6313 16.3802 27.677 26.9367 25.843 37.7484L25.6899 38.6509L26.532 38.292C28.5453 37.434 30.4973 36.6693 32.3882 35.9975L32.6652 35.8991L32.7139 35.6092C34.1548 27.0325 36.4387 18.6459 39.5267 10.5909C42.4326 9.56825 45.3969 8.74973 48.4009 8.14044Z" fill="#A5D936" stroke="#A5D936"/>
<path d="M70.5238 3.26916L71.1343 2.70101L70.3455 2.43024C69.0384 1.98152 67.71 1.60783 66.3658 1.3108L66.0953 1.25101L65.9011 1.44874C62.7493 4.65918 59.9087 8.20295 57.4218 12.0251C57.8415 8.34807 58.4861 4.70425 59.3517 1.11744L59.5003 0.501791L58.867 0.500145C57.0956 0.49554 55.3255 0.600869 53.5655 0.815583L53.1914 0.861225L53.1322 1.23346C52.0698 7.92165 51.6005 14.7033 51.7307 21.4869C51.3657 22.1537 50.925 22.7677 50.4191 23.3147L50.419 23.3147L50.4143 23.3199C50.1249 23.6419 49.7496 23.8438 49.3515 23.9029C48.9043 23.9233 48.4581 23.8129 48.06 23.5799L47.5487 23.2807L47.3396 23.835C46.4107 26.2974 45.5429 28.8783 44.7358 31.5776L44.6418 31.8919L44.8927 32.1033C45.8296 32.8923 47.0082 33.2904 48.2073 33.2135L48.2169 33.2129L48.2264 33.2119C49.7517 33.0551 51.1519 32.0202 52.4692 30.3481L52.4755 30.3401L52.4815 30.3317C53.9953 28.2392 55.2754 25.9634 56.2962 23.5511C60.251 14.9752 65.0792 8.33653 70.5238 3.26916Z" fill="#A5D936" stroke="#A5D936"/>
<path d="M81.2136 9.50515L81.2136 9.50504L81.2033 9.50659C79.3382 9.78769 77.6156 10.7154 76.2939 12.1406C74.6228 13.9147 73.4239 16.1328 72.8168 18.5652C72.0835 21.272 71.9588 24.1272 72.4525 26.8956C72.8961 29.4958 73.9051 31.9484 75.3995 34.0525C76.658 35.8768 78.4003 37.2578 80.4047 38.01C81.7901 38.5987 83.3338 38.5972 84.7183 38.0055L84.7369 37.9975L84.7548 37.9881C86.0087 37.3279 87.0012 36.2219 87.5695 34.8686L87.6651 34.6411L87.5426 34.4269C86.4128 32.45 85.4614 30.5168 84.6165 28.6257L84.256 27.8187L83.75 28.5434C83.2274 29.2919 82.7169 29.7541 82.218 29.9701C81.7429 30.1759 81.2292 30.18 80.6236 29.9077C79.8206 29.5343 79.1359 28.903 78.6656 28.0917L78.6657 28.0917L78.66 28.0823C78.0517 27.0842 77.6624 25.947 77.5238 24.7579L77.5234 24.7547C77.3557 23.3927 77.4381 22.0086 77.7657 20.6815L77.7659 20.6815L77.7686 20.6694C78.0324 19.4742 78.5388 18.3594 79.249 17.4049L79.2491 17.4049L79.2523 17.4004C79.7396 16.7303 80.4152 16.2616 81.1672 16.0595C81.8004 15.9214 82.4617 16.0545 83.0117 16.4383L83.0116 16.4385L83.0233 16.4462C84.0756 17.1373 84.7149 18.4728 85.0773 20.7318L85.1896 21.4323L85.8116 21.0909C87.0079 20.4341 88.2435 19.8647 89.5101 19.3862L89.8585 19.2546L89.8321 18.883C89.718 17.2777 89.3325 15.7074 88.694 14.2494L88.694 14.2494L88.6911 14.243C88.0638 12.864 87.1149 11.6783 85.9324 10.8035C84.5704 9.75457 82.8867 9.28829 81.2136 9.50515Z" fill="#A5D936" stroke="#A5D936"/>
<path d="M95.1782 42.3988C95.163 41.0513 95.2337 39.7045 95.3897 38.3681C97.6527 39.3992 100.048 40.449 102.53 41.4939C103.463 43.382 104.482 45.2194 105.583 46.9995L105.674 47.1472L105.837 47.2065C107.878 47.948 109.98 48.6897 112.161 49.4251L113.644 49.9252L112.726 48.6578C105.716 38.989 103.094 31.0181 103.36 24.1472L103.371 23.8585L103.127 23.7047C101.625 22.7601 100.182 21.8093 98.7974 20.8523L98.491 20.6406L98.2004 20.8735C92.9215 25.105 89.4834 31.0337 88.9695 40.3114L88.9496 40.6711L89.2845 40.8039L94.4939 42.8692L95.1866 43.1439L95.1782 42.3988ZM96.5891 32.9596C97.0819 31.5782 97.7188 30.2634 98.4868 29.0405C98.7514 30.9047 99.1644 32.7412 99.7216 34.5296C98.6563 34.0051 97.6141 33.4812 96.5891 32.9596Z" fill="#A5D936" stroke="#A5D936"/>
<path d="M123.411 52.0148C122.576 50.4061 121.84 48.7398 121.209 47.0269C122.308 47.3626 123.428 47.6982 124.568 48.0338C126.512 48.6588 128.543 48.9167 130.57 48.7954L130.58 48.7948L130.589 48.7939C132.249 48.6301 133.528 48.0754 134.357 47.1082L134.362 47.1016L134.368 47.0948C134.774 46.5849 135.064 45.9831 135.217 45.3375C135.368 44.6969 135.381 44.0279 135.254 43.3814C135.046 41.8808 134.43 40.4756 133.479 39.3432L133.479 39.3431C132.353 38.0016 131.01 36.8869 129.514 36.0536C127.71 35.015 125.813 34.1726 123.852 33.5391C120.54 32.4323 117.283 31.1387 114.096 29.6634L113.602 29.4347L113.416 29.9466C111.423 35.4394 111.804 41.8999 115.76 50.4228L115.853 50.622L116.062 50.6887C118.242 51.3832 120.498 52.0623 122.83 52.7261L123.944 53.0433L123.411 52.0148ZM126.042 42.7142L125.78 42.8079C125.245 42.9117 124.402 42.8275 123.227 42.4202L123.218 42.4171L123.209 42.4144C122.023 42.0522 120.863 41.6736 119.729 41.2786C119.512 39.8602 119.442 38.4204 119.522 36.986C120.499 37.3577 121.51 37.7057 122.531 38.0474L122.541 38.0509L122.552 38.054C123.638 38.365 124.658 38.9038 125.555 39.6416L125.557 39.643C125.835 39.8697 126.071 40.156 126.247 40.4865C126.424 40.817 126.538 41.1841 126.582 41.566L126.585 41.5912L126.59 41.616C126.641 41.8493 126.609 42.0936 126.503 42.2985C126.397 42.5027 126.229 42.647 126.042 42.7142Z" fill="#A5D936" stroke="#A5D936"/>
<path d="M143.275 52.8828L143.275 52.8829L143.281 52.8876C145.806 55.0167 148.616 56.7232 151.617 57.9485C154.976 59.3734 158.502 60.2923 162.096 60.6788C165.324 61.1123 168.598 60.9144 171.76 60.0948L171.76 60.0949L171.772 60.0915C174.524 59.3055 176.628 58.0274 178.047 56.2889C178.742 55.4856 179.239 54.5114 179.494 53.4554C179.75 52.3981 179.757 51.2894 179.515 50.2286C179.043 47.9996 177.685 46.0779 175.476 44.4518L175.47 44.4471L175.463 44.4426C172.941 42.7057 170.153 41.4581 167.226 40.758C163.792 39.8774 160.287 39.3509 156.759 39.1854C153.548 38.9509 150.322 39.0632 147.132 39.5208L147.132 39.5207L147.121 39.5224C144.382 39.9749 142.227 40.7253 140.746 41.939C140.006 42.4815 139.453 43.262 139.164 44.1601C138.875 45.0587 138.862 46.0326 139.128 46.939C139.618 48.9532 141.057 50.9556 143.275 52.8828ZM164.138 54.3494L164.129 54.3515L164.12 54.3539C162.669 54.74 161.165 54.8391 159.682 54.6465L159.682 54.6463L159.67 54.645C157.991 54.4689 156.343 54.0442 154.771 53.3825L154.771 53.3824L154.763 53.3792C153.357 52.8156 152.042 52.0117 150.87 50.9972L150.863 50.991L150.856 50.985C149.97 50.2756 149.303 49.2847 148.953 48.1435L148.953 48.1435L148.951 48.138C148.832 47.7659 148.815 47.3637 148.902 46.9807C148.988 46.6014 149.172 46.2611 149.428 45.9978C150.206 45.2733 151.157 44.8108 152.166 44.6605L152.178 44.6589L152.189 44.6567C153.679 44.3656 155.198 44.2894 156.707 44.43L156.707 44.4302L156.72 44.431C158.372 44.5435 160.006 44.8666 161.588 45.3938L161.588 45.3938L161.597 45.3966C162.94 45.8166 164.202 46.5009 165.318 47.4167L165.318 47.4168L165.327 47.4237C166.186 48.0976 166.819 49.0657 167.118 50.1799L167.118 50.1799L167.121 50.1901C167.245 50.6176 167.272 51.0722 167.198 51.5142C167.125 51.9522 166.956 52.3622 166.707 52.7104C166.036 53.5512 165.131 54.1241 164.138 54.3494Z" fill="#A5D936" stroke="#A5D936"/>
<path d="M201.032 46.7594C200.907 45.5796 200.807 44.4027 200.727 43.2254C203.505 42.9494 206.352 42.627 209.267 42.2581M209.267 42.2581C209.267 42.2581 209.267 42.2581 209.267 42.2581L209.204 41.7621L209.267 42.2581ZM214.177 61.5253L214.154 61.0258L214.177 61.5253C220.254 61.2444 225.199 60.231 228.785 58.5357C232.336 56.8566 234.498 54.5993 234.498 51.8811C234.498 50.9802 234.253 50.1651 233.753 49.4569C233.258 48.7536 232.529 48.1818 231.6 47.7295C230.219 47.0536 228.366 46.6272 226.141 46.4263C227.42 45.804 228.627 45.0191 229.737 44.0868L229.743 44.082L229.748 44.077C231.124 42.8487 231.875 41.4235 231.875 39.9435V39.9422C231.871 38.6505 231.29 37.6051 230.212 36.8368C229.158 36.0862 227.639 35.6045 225.731 35.3497C221.911 34.8395 216.672 35.2395 210.418 36.2085L210.418 36.2085C202.005 37.5122 194.209 38.433 186.987 39.0165L186.522 39.054L186.527 39.5203C186.61 47.1025 188.029 54.5996 190.709 61.6135L190.83 61.9307L191.169 61.935C198.367 62.026 206.016 61.9024 214.177 61.5253Z" fill="#A5D936" stroke="#A5D936"/>
<path d="M11.2916 93.0189L11.3156 93.5063L11.8034 93.4942L18.3576 93.3318L18.8858 93.3187L18.8436 92.792C17.6848 78.3326 17.9005 63.7833 19.4874 49.3711L19.5841 48.493L18.7815 48.8621C17.0161 49.6741 15.2027 50.5422 13.3414 51.4665L13.1754 51.549L13.1033 51.7197C9.74657 59.6632 6.68047 67.7702 3.79304 75.4555C1.28448 69.727 -1.12271 65.2244 -3.9518 61.6453L-4.22873 61.295L-4.608 61.5308C-6.76413 62.8709 -8.97422 64.2824 -11.2503 65.7717L-11.4766 65.9197V66.1901V93.4685V93.9805L-10.9647 93.9683L-4.38638 93.8125L-3.89686 93.8009L-3.89823 93.3112C-3.9125 88.1912 -3.86186 83.1808 -3.74618 78.28C-1.76896 81.9283 0.0129051 85.6963 1.59037 89.5655L1.73041 89.909L2.09977 89.8746L5.23511 89.5823L5.55762 89.5522L5.66202 89.2456C6.39483 87.0934 7.13548 84.8943 7.8873 82.6619C8.90495 79.6402 9.94307 76.5578 11.01 73.4487C10.8717 79.6266 10.9533 86.1381 11.2916 93.0189Z" stroke="#A5D936"/>
<path d="M39.6205 52.5681L40.0267 52.4964L40.0336 52.084C40.0897 48.7211 40.246 45.4934 40.5022 42.4007L40.5576 41.732L39.901 41.8701C34.7912 42.9447 29.767 44.4466 24.8744 46.3623L24.5942 46.4719L24.5599 46.7709C23.0542 59.896 22.8133 75.0523 24.6256 92.8297L24.6719 93.2836L25.1282 93.279L32.1284 93.2075L32.6973 93.2017L32.6184 92.6382C30.8543 80.0342 30.2189 67.2768 30.7209 54.5423C33.763 53.7361 36.7295 53.0781 39.6205 52.5681Z" stroke="#A5D936"/>
<path d="M53.8841 94.6569C54.9736 94.6603 55.9235 94.2661 56.7088 93.5063C57.4828 92.7576 58.0805 91.6713 58.5263 90.3046C59.4171 87.5737 59.6665 83.6551 59.5155 78.8663C59.1142 64.0504 59.8837 51.5015 61.8165 41.2122L61.9186 40.6689L61.3678 40.6217C59.7668 40.4845 58.1564 40.3928 56.5679 40.3731L56.1522 40.3679L56.0713 40.7757C54.7707 47.3243 53.8859 53.9596 53.4224 60.6356C51.3539 54.2548 49.7359 47.7133 48.5828 41.0669L48.5038 40.6117L48.0438 40.6545C46.2153 40.8246 44.3574 41.0732 42.4582 41.4L41.9615 41.4855L42.0509 41.9814C43.7773 51.5593 46.8212 62.79 52.2889 76.105C52.2369 77.1658 52.0114 78.208 51.6232 79.1832L51.6223 79.1855C51.5295 79.4221 51.3784 79.6199 51.1913 79.7597C51.0121 79.8936 50.8062 79.9697 50.5961 79.9842C49.8105 79.9262 49.0487 79.6527 48.3833 79.1861L47.5513 78.6026L47.5967 79.6177C47.7738 83.5822 48.0396 87.6847 48.3938 91.9253L48.412 92.1422L48.583 92.2767C50.5104 93.7926 52.3155 94.6567 53.8841 94.6569ZM53.8841 94.6569C53.8842 94.6569 53.8844 94.6569 53.8846 94.6569V94.1569L53.8829 94.6569C53.8833 94.6569 53.8837 94.6569 53.8841 94.6569Z" stroke="#A5D936"/>
<path d="M103.511 94.2976C104.737 94.2974 105.785 94.0392 106.628 93.5056C107.476 92.9688 108.079 92.1767 108.446 91.1775C109.172 89.2072 108.955 86.5203 108.092 83.3649L108.053 83.2244L107.946 83.1265C104.735 80.2133 101.727 77.3463 98.9196 74.5254L97.7986 73.399L98.0727 74.9643C98.3979 76.8222 98.3801 78.1594 98.0766 78.9918C97.9295 79.395 97.7245 79.6555 97.4796 79.8146C97.2341 79.9741 96.8994 80.0637 96.4364 80.036L96.4347 80.0359C95.3234 79.9732 93.9603 79.3482 92.4013 78.0434C90.6369 76.5176 89.0891 74.7196 87.8082 72.7066L87.8082 72.7066L87.8047 72.7013C86.2887 70.3844 85.0206 67.8893 84.0251 65.2638L84.0252 65.2637L84.0202 65.2516C83.1423 63.1072 82.5448 60.8412 82.2454 58.5185C82.0573 56.6817 82.2549 55.4736 82.6702 54.7535L82.6702 54.7535L82.6718 54.7507C82.8513 54.435 83.1193 54.201 83.4266 54.078C83.733 53.9553 84.067 53.9471 84.3775 54.0541L84.4025 54.0628L84.4283 54.0687C85.1979 54.2457 86.0687 54.7569 87.1018 55.6974C88.1312 56.6347 89.2873 57.9665 90.6305 59.7298L91.3812 60.7153L91.5249 59.4848C91.7645 57.4328 92.0698 55.5374 92.4286 53.7788L92.4715 53.5685L92.3486 53.3925C90.7694 51.1314 88.9863 49.0431 87.0251 47.1583C85.5678 45.6986 83.8205 44.6095 81.9124 43.9752L81.902 43.9717L81.8914 43.9687C80.9053 43.6885 79.9752 43.6307 79.1206 43.8529C78.26 44.0767 77.5166 44.5741 76.894 45.3344C75.6641 46.8363 74.9607 49.2156 74.9056 52.56C74.8502 55.922 75.4907 60.0316 77.1439 65.0203L77.6185 64.863L77.1439 65.0203C78.8347 70.1225 81.1908 74.9409 84.1418 79.3306C86.8626 83.4897 90.18 87.1586 93.9713 90.1998L93.9712 90.1998L93.9773 90.2046C97.4344 92.8907 100.72 94.3176 103.511 94.2976ZM103.511 94.2976C103.51 94.2976 103.51 94.2976 103.509 94.2976V93.7976M103.511 94.2976C103.512 94.2976 103.512 94.2976 103.513 94.2976L103.509 93.7976M103.509 93.7976C100.88 93.8171 97.7029 92.4662 94.2841 89.8098L87.3864 72.9751C88.6936 75.0294 90.2742 76.8654 92.0774 78.4243C93.6752 79.7622 95.1403 80.4637 96.4065 80.5351C98.41 80.655 99.114 78.9324 98.6937 75.7146C98.5321 75.5531 98.3711 75.3919 98.2108 75.2308L98.5652 74.8781L99.0577 74.7918C99.0988 75.0265 99.1351 75.256 99.1666 75.48C101.807 78.113 104.622 80.7853 107.609 83.4968C108.466 86.6273 108.646 89.1863 107.977 91.0048C107.308 92.8234 105.825 93.7976 103.509 93.7976ZM90.5925 58.8616C90.5718 59.0296 90.5515 59.1987 90.5316 59.3688L91.0282 59.4268L91.426 59.1238C91.3212 58.9862 91.2173 58.851 91.1143 58.7181C91.3411 56.9226 91.6187 55.2474 91.9387 53.6788C90.3768 51.4426 88.6137 49.378 86.6749 47.5152C85.2702 46.1071 83.5882 45.0592 81.7547 44.4497L90.5925 58.8616ZM90.5925 58.8616C88.1087 55.6789 86.2222 53.9683 84.5404 53.5814L90.5925 58.8616Z" stroke="#A5D936"/>
<path d="M123.757 92.5196C121.956 89.3401 120.29 86.3135 118.758 83.4397C121.779 83.6423 124.835 83.8518 127.927 84.0682C130.937 87.029 134.172 90.0903 137.631 93.252L137.772 93.3814L137.964 93.3829L145.398 93.4414L146.778 93.4522L145.726 92.5601C127.272 76.9072 114.422 63.5907 106.358 52.3046L106.26 52.1675L106.099 52.1177C104.142 51.5117 102.23 50.9145 100.361 50.3258L99.5864 50.0817L99.7175 50.8834C101.346 60.8386 106.36 74.3182 115.639 92.9371L115.776 93.2119L116.083 93.2141L123.319 93.266L124.184 93.2722L123.757 92.5196ZM113.436 72.9839C112.027 70.0398 110.721 67.0409 109.518 63.9932C111.999 67.0576 114.753 70.2455 117.796 73.5645L113.436 72.9839Z" stroke="#A5D936"/>
<path d="M144.743 74.0635L144.744 74.0466C144.758 73.8442 144.669 73.5036 144.374 72.9838C144.088 72.4799 143.646 71.8717 143.051 71.1548C141.933 69.8416 140.646 68.7091 139.231 67.791L144.743 74.0635ZM144.743 74.0635V74.0806M144.743 74.0635V74.0806M144.743 74.0806C144.743 74.1661 144.722 74.2021 144.706 74.2219C144.686 74.2472 144.633 74.2941 144.503 74.3356C144.225 74.4241 143.738 74.4436 142.995 74.3329L142.991 74.3323M144.743 74.0806L142.991 74.3323M142.991 74.3323L139.111 73.7866C136.55 70.8657 134.279 68.1166 132.274 65.5265M142.991 74.3323L132.274 65.5265M132.274 65.5265C133.18 65.7104 134.097 65.8914 135.023 66.0694C136.508 66.3679 137.933 66.9504 139.231 67.7908L132.274 65.5265ZM157.175 92.6879C153.701 89.2937 150.497 86.0703 147.563 83.0177L150.731 83.288C150.732 83.288 150.733 83.2881 150.733 83.2882C153.119 83.5124 154.809 83.12 155.74 82.0382C156.702 80.9195 156.55 79.3623 155.82 77.6574C155.077 75.9209 153.655 73.9316 151.677 71.7098C147.908 67.4211 143.391 63.9705 138.382 61.5562C136.044 60.4248 133.602 59.5612 131.096 58.98L131.095 58.9797C127.129 58.0722 123.349 57.1062 119.736 56.1268L118.534 55.8008L119.177 56.8677C124.904 66.3594 134.516 78.173 149.299 93.3297L149.444 93.4787L149.652 93.4806L156.821 93.5455L158.065 93.5568L157.175 92.6879Z" stroke="#A5D936"/>
<path d="M181.377 92.0766L181.381 92.0781C185.293 93.6747 188.611 94.4922 191.392 94.4922C194.164 94.4922 195.972 93.7255 196.952 92.1672C197.906 90.6513 197.964 88.692 197.432 86.4345L197.43 86.426L197.428 86.4177C196.687 83.6998 195.426 81.1766 193.725 79.0104C191.641 76.2007 189.128 73.7908 186.293 71.8845C183.107 69.7348 179.681 68.0263 176.096 66.8001C172.498 65.5268 168.782 64.6757 165.013 64.2618L165.013 64.2618C161.416 63.8698 158.568 64.0012 156.608 64.7602C155.62 65.1429 154.848 65.6942 154.379 66.4615C153.908 67.2342 153.784 68.1603 153.969 69.2099C154.333 71.2863 155.95 73.8068 158.789 76.8124L158.788 76.8124L158.793 76.8169C161.993 80.1218 165.515 83.0452 169.299 85.536C173.121 88.1284 177.165 90.3188 181.377 92.0766ZM183.622 79.0567L183.629 79.0642L183.635 79.0715C184.656 80.1983 185.474 81.5231 186.044 82.978C186.395 84.0408 186.346 84.7394 186.055 85.1934L185.991 85.2762C185.642 85.7301 184.938 86.0328 183.591 85.9721C181.942 85.8405 180.323 85.417 178.8 84.7178L178.8 84.7177L178.79 84.7134C176.774 83.8403 174.841 82.7584 173.017 81.4826L173.013 81.48C171.132 80.1894 169.381 78.6892 167.789 77.0038C166.29 75.3947 165.461 74.1169 165.187 73.133C165.051 72.6433 165.057 72.2748 165.146 72.0041C165.231 71.7439 165.406 71.5274 165.706 71.3574C166.361 70.9853 167.472 70.8071 169.077 70.9714C170.821 71.1699 172.535 71.6101 174.175 72.2815L174.175 72.2815L174.18 72.2833C175.988 73.0037 177.715 73.9454 179.327 75.0906L179.328 75.0915C180.911 76.2084 182.354 77.5409 183.622 79.0567Z" stroke="#A5D936"/>
<path d="M228.369 79.1619C229.327 78.6583 230.205 77.9907 230.968 77.1834C231.45 76.6762 231.828 76.07 232.081 75.4032C232.335 74.7361 232.457 74.0214 232.443 73.3029L232.443 73.3007C232.413 72.0498 231.952 70.9514 231.065 70.0337C230.188 69.1265 228.913 68.4136 227.276 67.8757C224.01 66.803 219.456 66.4215 214.066 66.5519C206.834 66.7205 199.972 66.7205 193.482 66.5519L192.677 66.531L193.015 67.2615C196.738 75.3146 202.218 83.9998 209.96 93.7194L210.11 93.9072L210.35 93.9079L223.645 93.9468H223.647C226.993 93.9468 229.431 93.2443 231.352 91.7721C232.305 91.1061 233.088 90.2012 233.635 89.1393C234.184 88.0749 234.48 86.8836 234.499 85.6702C234.522 84.8264 234.36 83.9876 234.024 83.2215C233.689 82.4566 233.19 81.7839 232.565 81.2599C231.533 80.3498 230.12 79.6657 228.369 79.1619ZM214.265 72.7281L214.269 72.7281C215.921 72.7153 217.156 72.909 218.006 73.2819C218.833 73.6451 219.275 74.165 219.426 74.8441C219.507 75.2068 219.487 75.4822 219.408 75.6937C219.329 75.9013 219.177 76.092 218.914 76.2605C218.36 76.6141 217.369 76.8331 215.851 76.8331C213.64 76.829 211.463 76.8091 209.321 76.7736C208.717 75.4164 208.148 74.068 207.613 72.7281H207.616H207.63H207.644H207.659H207.673H207.687H207.701H207.715H207.73H207.744H207.758H207.772H207.787H207.801H207.815H207.829H207.843H207.858H207.872H207.886H207.9H207.915H207.929H207.943H207.957H207.972H207.986H208H208.014H208.029H208.043H208.057H208.071H208.085H208.1H208.114H208.128H208.142H208.157H208.171H208.185H208.199H208.214H208.228H208.242H208.257H208.271H208.285H208.299H208.314H208.328H208.342H208.356H208.371H208.385H208.399H208.413H208.428H208.442H208.456H208.471H208.485H208.499H208.513H208.528H208.542H208.556H208.57H208.585H208.599H208.613H208.628H208.642H208.656H208.67H208.685H208.699H208.713H208.728H208.742H208.756H208.77H208.785H208.799H208.813H208.828H208.842H208.856H208.871H208.885H208.899H208.913H208.928H208.942H208.956H208.971H208.985H208.999H209.014H209.028H209.042H209.057H209.071H209.085H209.1H209.114H209.128H209.143H209.157H209.171H209.186H209.2H209.214H209.229H209.243H209.257H209.271H209.286H209.3H209.314H209.329H209.343H209.358H209.372H209.386H209.401H209.415H209.429H209.444H209.458H209.472H209.487H209.501H209.515H209.53H209.544H209.558H209.573H209.587H209.601H209.616H209.63H209.645H209.659H209.673H209.688H209.702H209.716H209.731H209.745H209.759H209.774H209.788H209.803H209.817H209.831H209.846H209.86H209.874H209.889H209.903H209.918H209.932H209.946H209.961H209.975H209.989H210.004H210.018H210.033H210.047H210.061H210.076H210.09H210.105H210.119H210.133H210.148H210.162H210.177H210.191H210.205H210.22H210.234H210.249H210.263H210.277H210.292H210.306H210.321H210.335H210.349H210.364H210.378H210.393H210.407H210.422H210.436H210.45H210.465H210.479H210.494H210.508H210.522H210.537H210.551H210.566H210.58H210.595H210.609H210.623H210.638H210.652H210.667H210.681H210.696H210.71H210.725H210.739H210.753H210.768H210.782H210.797H210.811H210.826H210.84H210.855H210.869H210.883H210.898H210.912H210.927H210.941H210.956H210.97H210.985H210.999H211.014H211.028H211.042H211.057H211.071H211.086H211.1H211.115H211.129H211.144H211.158H211.173H211.187H211.202H211.216H211.231H211.245H211.26H211.274H211.288H211.303H211.317H211.332H211.346H211.361H211.375H211.39H211.404H211.419H211.433H211.448H211.462H211.477H211.491H211.506H211.52H211.535H211.549H211.564H211.578H211.593H211.607H211.622H211.636H211.651H211.665H211.68H211.694H211.709H211.723H211.738H211.752H211.767H211.781H211.796H211.811H211.825H211.84H211.854H211.869H211.883H211.898H211.912H211.927H211.941H211.956H211.97H211.985H211.999H212.014H212.028H212.043H212.057H212.072H212.087H212.101H212.116H212.13H212.145H212.159H212.174H212.188H212.203H212.217H212.232H212.247H212.261H212.276H212.29H212.305H212.319H212.334H212.348H212.363H212.378H212.392H212.407H212.421H212.436H212.45H212.465H212.48H212.494H212.509H212.523H212.538H212.552H212.567H212.582H212.596H212.611H212.625H212.64H212.654H212.669H212.684H212.698H212.713H212.727H212.742H212.756H212.771H212.786H212.8H212.815H212.829H212.844H212.859H212.873H212.888H212.902H212.917H212.932H212.946H212.961H212.975H212.99H213.005H213.019H213.034H213.048H213.063H213.078H213.092H213.107H213.122H213.136H213.151H213.165H213.18H213.195H213.209H213.224H213.238H213.253H213.268H213.282H213.297H213.312H213.326H213.341H213.355H213.37H213.385H213.399H213.414H213.429H213.443H213.458H213.473H213.487H213.502H213.517H213.531H213.546H213.56H213.575H213.59H213.604H213.619H213.634H213.648H213.663H213.678H213.692H213.707H213.722H213.736H213.751H213.766H213.78H213.795H213.81H213.824H213.839H213.854H213.868H213.883H213.898H213.912H213.927H213.942H213.956H213.971H213.986H214H214.015H214.03H214.044H214.059H214.074H214.088H214.103H214.118H214.132H214.147H214.162H214.177H214.191H214.206H214.221H214.235H214.25L214.265 72.7281ZM223.709 85.2315L223.71 85.2348C223.917 86.0661 223.763 86.5472 223.437 86.8435C223.068 87.1791 222.346 87.4096 221.131 87.4002C218.926 87.3754 216.75 87.3505 214.586 87.3143C213.745 85.7893 212.946 84.282 212.19 82.7924C214.468 82.8382 216.786 82.8796 219.129 82.8796C220.549 82.8892 221.613 83.1128 222.358 83.5127C223.083 83.9019 223.524 84.466 223.709 85.2315Z" stroke="#A5D936"/>
</svg>
