<svg width="54" height="45" viewBox="0 0 54 45" fill="none" xmlns="http://www.w3.org/2000/svg">
<path d="M1.49622 20.6601C-0.731243 28.9732 3.46832 35.1702 9.58672 36.8096C15.1844 38.3095 21.1045 34.9611 22.5781 29.4617C24.0516 23.9623 21.14 19.207 16.1933 17.8815C15.1518 17.6025 13.946 17.4164 13.4869 17.5676C15.8922 13.2774 22.1481 9.19649 26.8963 8.13852L21.2443 0.592771C11.6997 3.92952 4.06638 11.0682 1.49622 20.6601ZM28.0527 27.7759C25.8252 36.0889 29.8946 42.2511 36.013 43.8905C41.7408 45.4253 47.5308 42.042 49.0043 36.5426C50.4779 31.0432 47.5663 26.2879 42.7497 24.9973C41.7083 24.7183 40.5024 24.5322 40.0433 24.6834C42.3184 20.3583 48.7045 16.3123 53.4528 15.2543L47.6706 7.67367C38.126 11.0104 30.6228 18.184 28.0527 27.7759Z" fill="#A5D936"/>
</svg>
