<svg width="294" height="259" viewBox="0 0 294 259" fill="none" xmlns="http://www.w3.org/2000/svg">
<path d="M7.47314 8.04548C9.1677 5.81103 11.4082 4.04933 13.9794 2.92928L13.99 2.92465L13.99 2.92472C17.1702 1.58298 20.6036 0.946706 24.0535 1.05967C27.0352 1.0784 30.006 1.41702 32.9154 2.0697C36.1331 2.75644 39.2726 3.76911 42.285 5.09205L42.7086 5.27805L42.841 5.72126C43.7369 8.7184 44.3603 11.7903 44.7034 14.8996L44.8852 16.5474L43.3428 15.9397C37.3426 13.5752 32.4695 12.4225 28.2173 12.3274L7.47314 8.04548ZM7.47314 8.04548C5.83075 10.1763 4.93951 12.7904 4.93783 15.4803C4.90125 16.9811 5.245 18.4668 5.93749 19.7992C6.63202 21.1354 7.65462 22.2734 8.90898 23.1067L8.91306 23.1094C11.6444 24.9046 14.701 26.1473 17.9102 26.7673C21.28 27.4945 25.4305 28.1788 30.3713 28.8704L30.3713 28.8704L30.3793 28.8714C33.6635 29.3041 36.9184 29.9353 40.1262 30.7615C42.1402 31.3109 43.0216 32.0696 43.2848 32.7137C43.3898 32.9806 43.3367 33.0469 43.3148 33.0743C43.3134 33.076 43.3122 33.0775 43.3111 33.079C43.2286 33.1894 42.9601 33.4071 42.2534 33.6192C40.8636 34.0361 38.4473 34.243 34.8394 34.2432C30.849 34.2026 26.8666 33.8767 22.9228 33.2679L22.9149 33.2667L22.907 33.2656C19.1653 32.7488 15.4764 31.9031 11.8832 30.7386L11.1712 30.5079L10.7491 31.126C8.80957 33.966 6.62256 36.9178 4.21648 39.9517L3.26936 41.146L4.74201 41.5392C9.53316 42.8186 14.4394 43.6193 19.3888 43.9294C25.2691 44.4346 31.1784 44.6231 36.9102 44.5146C42.3398 44.5854 47.7629 44.1098 53.0973 43.0952L53.1151 43.0919L53.1328 43.0878C57.1031 42.1825 59.9516 40.8745 61.3469 38.9121C62.8101 36.8542 62.6045 34.4542 61.2551 31.9379L61.2496 31.9276L61.2438 31.9175C59.5732 28.9689 57.1439 26.5209 54.2081 24.8274C51.2956 23.0713 48.1626 21.7099 44.8913 20.7789L44.8913 20.7789L44.8835 20.7767C41.1019 19.7335 37.269 18.886 33.4 18.2376L33.4 18.2375L33.3881 18.2356C30.4815 17.7847 27.6027 17.171 24.7649 16.3974C23.0181 15.8655 22.3967 15.199 22.2327 14.6119L22.2296 14.6007L22.2262 14.5896C22.1418 14.3126 22.1612 14.0145 22.2807 13.751C22.4002 13.4874 22.6117 13.2762 22.8756 13.157L22.9317 13.1317L22.9842 13.0997C23.8062 12.5991 25.4649 12.2687 28.2172 12.3274L7.47314 8.04548Z" stroke="#A5D936" stroke-width="2"/>
<path d="M58.1688 14.0046L58.1708 14.0201L58.1734 14.0355C58.8647 18.2569 60.4904 22.2706 62.9315 25.7834C65.7992 30.1762 69.4243 34.0249 73.638 37.1504C78.2316 40.5859 83.2266 43.4492 88.5126 45.6773C93.702 47.9239 99.1006 49.6527 104.63 50.8385L104.632 50.8389C109.168 51.8014 112.863 52.1915 115.69 51.7363C117.11 51.5076 118.344 51.0663 119.315 50.329C120.304 49.5782 120.963 48.564 121.288 47.3076L121.454 46.6636L120.924 46.2613C116.924 43.2222 112.725 40.1722 108.375 37.2006L107.132 36.3514L106.831 37.8263C106.603 38.9437 106.027 39.5733 105.076 39.9049C104.03 40.2694 102.463 40.2902 100.302 39.8775C97.5965 39.3406 94.9721 38.4561 92.4936 37.2461L92.4875 37.2432C89.821 35.9636 87.3169 34.37 85.0287 32.4962C82.7835 30.6453 80.7892 28.5096 79.0964 26.1431L79.0857 26.1282L79.0745 26.1136C77.6711 24.2967 76.6357 22.2237 76.0261 20.0107C75.657 18.3105 75.936 17.2561 76.5946 16.5911C77.2899 15.8891 78.5766 15.4333 80.8508 15.6111L80.8534 15.6113C84.6176 15.8959 89.5649 18.1296 95.4879 22.5146L96.7865 23.476L97.0677 21.8848C97.5568 19.1161 97.8194 16.3122 97.8529 13.5009L97.8588 13.0067L97.4699 12.7019C92.995 9.19436 88.0945 6.26653 82.8851 3.98807C78.7726 2.12987 74.3295 1.11397 69.8179 1.00032L69.8053 1H69.7927C65.2144 1 62.0605 2.29311 60.1182 4.79146C58.2106 7.24507 57.6935 10.3996 58.1688 14.0046Z" stroke="#A5D936" stroke-width="2"/>
<path d="M96.4156 2.35209L94.3342 2.33457L95.6213 3.97042C112.968 26.0163 124.324 43.1786 131.201 56.998L131.388 57.375L131.789 57.5042C135.613 58.7372 139.295 60.0091 142.835 61.3199L145.059 62.1434L144.096 59.9761C137.5 45.1277 126.298 26.635 108.943 2.86112L108.647 2.45499L108.144 2.45076L96.4156 2.35209Z" stroke="#A5D936" stroke-width="2"/>
<path d="M176.763 61.5788L176.611 61.0458L176.078 60.892C170.664 59.3275 165.087 57.5562 159.228 55.6839C158.142 52.9901 156.947 50.1975 155.641 47.3061C160.28 48.4407 164.806 49.5247 169.236 50.5108L171.001 50.9038L170.395 49.1997C168.73 44.516 166.822 39.5875 164.67 34.4144L164.451 33.8876L163.886 33.8082C158.646 33.072 153.329 32.2428 147.896 31.3738C146.262 28.2261 144.515 24.9713 142.657 21.6096C148.628 22.1653 154.523 22.6859 160.372 23.1418L162.041 23.272L161.364 21.7402C158.785 15.9103 155.923 9.78235 152.778 3.35654L152.506 2.80064L151.888 2.7961C141.12 2.71714 130.33 2.63489 119.517 2.54935L117.626 2.53439L118.678 4.10544C135.619 29.4227 146.246 48.995 152.24 64.5418L152.398 64.9515L152.807 65.1124C156.97 66.7527 160.974 68.3924 164.842 69.9763C169.623 71.9342 174.196 73.8068 178.603 75.4899L180.314 76.1432L179.939 74.3507C179.094 70.3182 178.042 66.0707 176.763 61.5788Z" stroke="#A5D936" stroke-width="2"/>
<path d="M202.549 3.70217L202.36 2.94704L201.582 2.94433L190.249 2.90487L188.894 2.90016L189.288 4.19627C193.235 17.1518 196.545 30.2914 199.207 43.5678C191.379 29.5385 182.585 16.0673 172.887 3.25203L172.587 2.85547H172.09H162.504H160.98L161.587 4.25345C174.746 34.5878 181.98 58.3311 185.022 77.261L185.117 77.8512L185.682 78.0471C188.346 78.9713 191.001 79.8066 193.639 80.5429L195.075 80.9438L194.901 79.4632C193.736 69.5406 191.952 59.7027 189.56 50.0071C195.638 60.4322 200.939 71.295 205.418 82.5071L205.636 83.0521L206.218 83.1278C208.455 83.4186 210.699 83.5888 212.96 83.6588L213.997 83.6909L213.991 82.6532C213.862 61.5217 210.54 35.7189 202.549 3.70217Z" stroke="#A5D936" stroke-width="2"/>
<path d="M220.53 67.1963L220.532 67.2049L220.535 67.2134C222.226 72.6455 224.239 76.6747 226.883 79.23C228.112 80.5054 229.69 81.3889 231.42 81.7691C233.155 82.1502 234.963 82.0086 236.616 81.3622C240.096 80.0547 243.158 77.8341 245.482 74.934C248.47 71.3917 250.889 67.4068 252.653 63.1217L252.879 62.5722L252.505 62.1108C250.575 59.7328 248.618 57.0043 246.567 54.048L245.496 52.503L244.814 54.255C243.657 57.2271 242.4 59.5225 241.092 61.1657C239.783 62.8106 238.464 63.7509 237.186 64.1194L237.173 64.123L237.161 64.1269C236.506 64.3343 235.806 64.3527 235.141 64.18C234.476 64.0073 233.874 63.6505 233.402 63.1507L233.386 63.1333L233.369 63.1168C232.163 61.9536 231.12 59.9817 230.272 57.0341C229.322 53.5083 228.748 49.892 228.56 46.2455L228.559 46.2301L228.558 46.2148C228.233 42.2953 228.321 38.3526 228.819 34.4514L228.821 34.4379L228.823 34.4244C229.114 31.5153 230.035 28.7045 231.522 26.1868L231.527 26.1787L231.531 26.1706C231.99 25.3587 232.635 24.6669 233.413 24.1519C234.188 23.6386 235.073 23.3155 235.997 23.2086C238.853 22.944 241.892 25.303 244.561 30.7569L245.489 32.6519L246.368 30.7343C248.448 26.2004 250.578 21.6874 252.735 17.2739L252.944 16.8475L252.745 16.4163C250.788 12.1673 247.924 8.39884 244.353 5.37601C241.218 2.65653 237.231 1.11893 233.081 1.02956L233.072 1.02936L233.062 1.02933C228.337 1.0186 224.438 3.28956 221.564 7.62599C218.722 11.9145 217.096 17.8226 216.368 24.8047L216.367 24.8124L216.367 24.8201C215.703 32.3 215.829 39.829 216.744 47.2824C217.364 54.0264 218.632 60.695 220.53 67.1963Z" stroke="#A5D936" stroke-width="2"/>
<path d="M292.998 35.243V33.2311L291.395 34.4458C284.762 39.4691 277.888 44.1642 270.797 48.5143C270.934 45.9206 271.057 43.3195 271.157 40.6642C276.891 37.8347 282.872 34.498 289.098 30.6555L289.566 30.3668L289.573 29.8172C289.582 29.0535 289.593 28.2873 289.604 27.5193C289.638 25.1588 289.671 22.7801 289.671 20.3982V18.8605L288.266 19.4841C282.533 22.0275 276.987 24.2424 271.528 26.1761C271.562 23.4945 271.565 20.8114 271.566 18.0786C278.097 16.6759 284.727 15.0013 291.499 13.0996L292.228 12.8946V12.1368V2.86865V1.84282L291.203 1.86898C280.373 2.14525 269.566 2.36236 258.783 2.52023L257.739 2.53551L257.799 3.57809C259.068 25.4191 258.771 47.3228 256.913 69.1214L256.749 71.0454L258.415 70.0692C268.569 64.1189 279.782 55.9481 292.644 45.0673L292.998 44.7677V44.3039V35.243Z" stroke="#A5D936" stroke-width="2"/>
<path d="M2.92022 92.878L4.22648 91.2838C7.21059 87.6417 10.1094 84.1507 12.9229 80.8108L13.2526 80.4194L13.7629 80.4579C18.3687 80.805 22.9919 80.8573 27.6044 80.6144L27.6147 80.6139L27.6147 80.6139C32.7159 80.3981 37.5621 79.947 42.1435 79.3291C46.5045 78.7372 49.5849 78.1592 51.5464 77.522C52.5338 77.2012 53.1528 76.8914 53.5023 76.6158C53.8194 76.3658 53.81 76.2364 53.8078 76.2068C53.8078 76.2059 53.8077 76.205 53.8077 76.2043L53.8081 76.2043C53.8045 76.1676 53.7654 76.038 53.3916 75.8545C52.9341 75.6299 52.167 75.4335 51.0053 75.3043C47.0932 74.9643 43.1644 74.857 39.2396 74.9829L39.2284 74.9832V74.9832C38.9698 74.9885 38.7125 74.9939 38.4565 74.9993C32.6357 75.121 27.498 75.2284 23.2364 75.1907C19.1849 75.2438 15.1495 74.6698 11.2736 73.489L11.2624 73.4856L11.2514 73.482C9.47448 72.8951 8.04597 72.0357 7.05766 70.8637C6.05697 69.6771 5.56535 68.2375 5.55967 66.6138L5.55966 66.6103C5.55967 63.6825 7.29857 60.9202 10.2376 58.4955C13.2019 56.05 17.4285 54.0156 22.7294 52.4828L22.7371 52.4806L22.745 52.4784C28.8286 50.8256 35.1 49.9646 41.4041 49.9168C46.1238 49.8122 50.8448 50.0689 55.5253 50.6847C59.6507 51.1979 63.7206 52.0862 67.6845 53.3387L68.8029 53.6921L68.2771 54.7406C67.0709 57.1459 65.7346 59.4839 64.2742 61.7441L63.8798 62.3547L63.1773 62.1678C56.552 60.4056 49.7004 59.6449 42.8499 59.9108L42.8342 59.9114L42.8184 59.9115C39.7338 59.9341 36.6699 60.4172 33.7282 61.3447C32.8115 61.7096 32.2133 62.0706 31.8704 62.3923C31.5383 62.7037 31.5327 62.8859 31.5425 62.9686L31.5427 62.97C31.5456 62.9961 31.5646 63.1683 32.0514 63.4007C32.5558 63.6414 33.3809 63.8485 34.6033 63.9774C37.0861 64.2392 41.0211 64.3864 46.297 64.5645C51.1154 64.6973 55.9227 65.0957 60.6971 65.7577C64.0989 66.2168 67.4126 67.183 70.5279 68.6243L70.5363 68.6282L70.5445 68.6322C73.4032 70.0192 75.2107 71.9862 75.4762 74.5926M2.92022 92.878L75.4762 74.5926M2.92022 92.878L4.98093 92.9174M2.92022 92.878L4.98093 92.9174M75.4762 74.5926C75.7163 76.9434 74.3979 78.8862 72.049 80.5532C69.6933 82.2249 66.1314 83.6536 61.2705 85.0421L61.2637 85.0441L61.2568 85.0459C55.0781 86.7158 48.8152 88.0576 42.4946 89.0655M75.4762 74.5926L42.4946 89.0655M42.4946 89.0655C35.9403 90.1116 29.2417 91.1406 22.3999 91.9229M42.4946 89.0655L22.3999 91.9229M4.98093 92.9174C10.8041 93.0284 16.6272 92.696 22.3999 91.9229M4.98093 92.9174L22.3999 91.9229" stroke="#A5D936" stroke-width="2"/>
<path d="M88.0145 77.9235L88.0243 77.9313L88.0343 77.9389C91.5982 80.6372 95.5684 82.752 99.7964 84.2042C104.514 85.9147 109.345 87.2943 114.254 88.333C118.001 89.2273 121.805 89.8569 125.64 90.2171C128.433 90.5594 131.266 90.2962 133.948 89.4456L135.474 88.9614L134.37 87.8024C132.081 85.4016 129.567 83.0172 126.826 80.649L126.352 80.2391L125.777 80.4872C123.348 81.5341 120.072 81.5208 115.692 80.4819L115.685 80.4803C113.238 79.9177 110.855 79.1063 108.573 78.0588L108.573 78.0587L108.562 78.0542C106.637 77.1965 104.873 76.0153 103.346 74.5618L103.346 74.5618L103.339 74.5551C102.168 73.4619 101.359 72.0382 101.018 70.4735L101.013 70.4505L101.006 70.4279C100.856 69.8666 100.839 69.2782 100.957 68.7095C101.072 68.1534 101.312 67.631 101.66 67.1821C102.622 66.16 103.926 65.5241 105.325 65.395L105.338 65.3938L105.351 65.3923C107.576 65.1293 109.83 65.2909 111.995 65.8688L112.002 65.8708L112.01 65.8728C116.445 66.9804 120.516 69.2219 123.824 72.3773L124.271 72.8039L124.852 72.5948C127.126 71.7772 129.251 70.9159 131.213 69.9803L132.492 69.3708L131.489 68.37C128.501 65.3856 125.099 62.8452 121.389 60.8265C117.379 58.6347 113.083 57.0117 108.625 56.0042C103.983 54.8316 99.1503 54.6178 94.4226 55.3759C90.7633 55.8896 87.3683 57.5733 84.7449 60.1754L84.7383 60.1821L84.7317 60.1888C83.605 61.3493 82.7825 62.7702 82.3376 64.3253C81.8944 65.8742 81.8394 67.5083 82.1774 69.0833C82.7792 72.4432 84.822 75.3783 88.0145 77.9235Z" stroke="#A5D936" stroke-width="2"/>
<path d="M136.644 65.0132L134.542 64.2231L135.361 66.3139C140.177 78.608 140.868 87.8829 139.05 95.7188L138.874 96.4773L139.566 96.8338C142.736 98.4663 145.816 100.267 148.794 102.228L149.913 102.966L150.301 101.683C152.845 93.2675 152.588 83.2362 148.099 70.0005L147.956 69.5778L147.545 69.4023C144.049 67.907 140.441 66.4405 136.644 65.0132Z" stroke="#A5D936" stroke-width="2"/>
<path d="M179.727 118.176L179.924 117.551L179.429 117.121C178.451 116.273 177.461 115.406 176.454 114.525C173.622 112.046 170.659 109.453 167.49 106.848C167.744 105.736 167.956 104.615 168.127 103.487C170.783 105.497 173.304 107.486 175.746 109.412C176.463 109.978 177.174 110.538 177.879 111.092L179.173 112.109L179.479 110.493C179.975 107.882 180.31 105.244 180.482 102.593L180.519 102.024L180.048 101.703C178.955 100.956 177.845 100.192 176.716 99.4146C174.156 97.6523 171.497 95.8221 168.715 93.9701C168.683 92.7154 168.61 91.4237 168.495 90.0953C170.071 91.05 171.621 91.9989 173.146 92.9321C175.71 94.5005 178.2 96.0243 180.612 97.4563L182.154 98.3713L182.123 96.5789C182.064 93.2062 181.834 89.8387 181.435 86.4893L181.37 85.9503L180.884 85.7106C177.964 84.2729 174.941 82.7271 171.796 81.1184C167.192 78.7637 162.324 76.2743 157.13 73.7921L155.135 72.8389L155.736 74.9662C159.604 88.6566 159.186 98.6839 156.309 106.814L156.07 107.489L156.632 107.932C163.004 112.964 168.415 118.245 173.495 123.203C174.175 123.868 174.849 124.526 175.519 125.177L176.528 126.157L177.123 124.883C178.137 122.707 179.007 120.467 179.727 118.176Z" stroke="#A5D936" stroke-width="2"/>
<path d="M213.563 96.9712L213.632 95.9675L212.628 95.9039C210.19 95.7493 207.766 95.4225 205.374 94.9258L204.205 94.6832L204.171 95.8762C203.968 102.944 203.154 109.979 201.74 116.901C200.033 108.451 197.623 100.156 194.534 92.1022L194.375 91.6869L193.96 91.5271C191.943 90.7505 189.902 89.9018 187.838 88.9808L186.32 88.3037L186.432 89.9618C187.568 106.676 184.942 119.024 180.261 128.713L179.94 129.377L180.479 129.879C182.39 131.66 184.295 133.326 186.224 134.865L187.204 135.646L187.748 134.518C190.019 129.813 191.8 124.892 193.066 119.833C194.241 126.549 194.97 133.338 195.247 140.154L195.271 140.757L195.816 141.016C197.6 141.867 199.453 142.563 201.355 143.1L202.174 143.33L202.533 142.559C208.077 130.656 212.242 115.977 213.563 96.9712Z" stroke="#A5D936" stroke-width="2"/>
<path d="M214.655 142.089L214.658 142.092C216.756 143.808 219.697 144.072 223.343 142.998L223.358 142.993L223.373 142.988C226.952 141.813 230.272 139.963 233.155 137.539C236.605 134.742 239.655 131.486 242.22 127.86L242.864 126.949L241.889 126.408C240.197 125.47 238.625 124.33 237.206 123.016L236.37 122.241L235.711 123.171C232.489 127.716 229.333 130.415 226.595 131.361C224.962 131.923 223.991 131.767 223.399 131.35C222.802 130.93 222.348 130.069 222.254 128.43C222.217 126.308 222.503 124.192 223.102 122.156L223.108 122.136L223.112 122.117C223.741 119.613 224.627 117.181 225.757 114.859L225.757 114.859L225.763 114.847C226.735 112.778 228.01 110.865 229.547 109.171L229.547 109.172L229.554 109.163C230.773 107.79 232.295 106.719 233.999 106.035C235.294 105.538 236.322 105.531 237.14 105.851C237.964 106.172 238.736 106.886 239.391 108.142L240.157 109.612L241.1 108.249C243.741 104.435 246.381 100.449 249.02 96.2931L249.338 95.7925L249.051 95.2734C248.428 94.1452 247.581 93.156 246.561 92.3665C245.542 91.5771 244.372 91.0041 243.124 90.6826L243.107 90.6783L243.091 90.6746C240.301 90.0569 237.389 90.303 234.743 91.3799C231.091 92.7291 227.835 94.9704 225.271 97.8998C222.336 101.223 219.911 104.964 218.075 108.999C216.074 113.297 214.485 117.774 213.329 122.371C212.198 126.243 211.624 130.257 211.625 134.291L211.625 134.309L211.626 134.327C211.749 137.669 212.583 140.38 214.655 142.089Z" stroke="#A5D936" stroke-width="2"/>
<path d="M293 86.5686V84.3178L291.329 85.8265C281.251 94.9294 272.263 102.498 264.21 108.714C264.492 107.001 264.771 105.265 265.039 103.508C272.009 98.0987 279.655 91.6078 288.09 83.9635L288.406 83.6778L288.418 83.2524C288.463 81.7586 288.504 80.2895 288.545 78.8224C288.587 77.3209 288.629 75.8215 288.675 74.3002L288.746 71.9255L286.998 73.5345C279.701 80.2513 273.021 86.0286 266.857 90.9704C267.083 89.2717 267.304 87.5543 267.52 85.8182C274.835 80.0813 282.847 73.1562 291.714 64.8948L292.029 64.6009L292.032 64.1696L292.092 55.0397L292.106 52.764L290.42 54.2922C277.256 66.2223 265.956 75.1176 255.995 81.5638L255.604 81.8171L255.546 82.2798C253.571 98.1421 250.585 113.862 246.606 129.344L245.984 131.762L248.103 130.442C260.267 122.863 274.863 111.811 292.655 96.3849L293 96.0859V95.6294V86.5686Z" stroke="#A5D936" stroke-width="2"/>
<path d="M5.20701 144.201C10.691 143.041 16.0774 141.46 21.3186 139.473C27.5672 137.245 33.6332 134.811 39.5359 132.403L39.5428 132.401L39.5496 132.398C46.5133 129.435 52.0778 126.897 56.6827 124.472C60.4091 122.624 63.9437 120.412 67.2346 117.868L67.2513 117.855L67.2675 117.841C69.6862 115.803 71.4085 113.796 71.9548 111.681L71.9561 111.676C72.2568 110.485 72.2318 109.337 71.697 108.337C71.1639 107.34 70.2147 106.658 69.0168 106.211L68.997 106.203L68.9769 106.197C66.2114 105.294 63.2957 104.943 60.3949 105.163C55.8274 105.437 51.2802 105.982 46.7771 106.794C45.4781 107.009 44.2603 107.214 43.126 107.406C39.7608 107.974 37.1318 108.417 35.3057 108.621C34.0985 108.756 33.3245 108.717 32.899 108.596C32.8228 108.575 32.7697 108.554 32.734 108.537C32.7677 108.391 32.8939 108.119 33.2949 107.723C33.7572 107.266 34.485 106.744 35.5134 106.179C38.5893 104.661 41.8462 103.541 45.2053 102.846L45.2217 102.843L45.238 102.839C51.7197 101.27 58.4071 100.725 65.0573 101.226L65.5427 101.262L65.8709 100.903C67.6852 98.9151 69.4673 97.0042 71.2017 95.1444C71.6336 94.6812 72.0626 94.2211 72.4884 93.7639L73.7804 92.3765L71.9059 92.0936C68.0025 91.5043 64.0494 91.3124 60.1073 91.521C55.1159 91.7499 50.1488 92.3527 45.2476 93.3244C38.1547 94.6555 31.2364 96.7894 24.6262 99.6847C19.5548 101.823 14.8682 104.779 10.753 108.433L10.7393 108.445L10.7261 108.458C7.52122 111.521 5.66911 114.629 5.66837 117.549C5.66304 119.18 6.16553 120.582 7.24657 121.614C8.30645 122.625 9.80745 123.171 11.5925 123.352L11.6083 123.354L11.6242 123.355C15.5685 123.629 19.5314 123.288 23.3709 122.345C27.4739 121.453 32.373 120.251 37.8329 118.911C38.1319 118.838 38.4326 118.764 38.735 118.69L38.735 118.69L38.7448 118.687C42.3492 117.764 46.0069 117.064 49.6973 116.59C50.6886 116.49 51.2591 116.538 51.5374 116.626C51.48 116.8 51.3276 117.058 50.9536 117.404C50.5115 117.814 49.8343 118.277 48.866 118.804C46.9306 119.858 44.0109 121.07 39.9465 122.574L39.9461 122.575C35.657 124.164 31.1629 125.636 26.3847 126.95L26.3847 126.95L26.3756 126.953C22.077 128.179 17.7062 129.136 13.2883 129.818L12.8683 129.883L12.6235 130.23C9.80654 134.227 6.9867 138.375 4.16408 142.674L2.8313 144.704L5.20701 144.201ZM51.6472 116.671C51.6472 116.671 51.6467 116.671 51.6456 116.67C51.6467 116.671 51.6472 116.671 51.6472 116.671Z" stroke="#A5D936" stroke-width="2"/>
<path d="M90.6134 116.356L90.6218 116.358L90.6303 116.36C94.4021 117.291 98.2525 117.868 102.131 118.084C105.491 118.381 108.865 118.487 112.237 118.402C115.173 118.341 118.094 117.954 120.944 117.248L122.196 116.938L121.584 115.803C120.489 113.772 119.223 111.839 117.798 110.024L117.379 109.49L116.728 109.683C113.343 110.684 109.785 110.956 106.287 110.48L106.269 110.477L106.251 110.476C104.359 110.287 102.502 109.84 100.731 109.148L100.715 109.141L100.699 109.136C99.5188 108.72 98.504 107.936 97.804 106.9C97.5643 106.466 97.4269 105.983 97.4025 105.487C97.3776 104.98 97.4719 104.474 97.6778 104.009L97.6867 103.989L97.6948 103.969C98.2182 102.632 99.1605 101.5 100.381 100.743L100.381 100.743L100.39 100.737C101.988 99.7197 103.79 99.066 105.669 98.8216L105.677 98.8206L105.685 98.8194C107.917 98.4913 110.19 98.5516 112.401 98.9978L112.401 98.9978L112.408 98.9991C116.377 99.772 119.037 101.495 120.499 103.728L120.854 104.27L121.494 104.167C124.422 103.697 127.244 103.354 129.982 103.089L131.536 102.939L130.749 101.59C129.262 99.0415 127.145 96.9174 124.602 95.4211C121.272 93.4152 117.612 92.0173 113.793 91.2926C108.917 90.2576 103.888 90.1516 98.9727 90.98C94.5634 91.668 90.358 93.3114 86.6506 95.7951L86.6426 95.8004L86.6347 95.806C83.2936 98.1391 81.145 100.966 80.3243 104.032C79.8801 105.413 79.8241 106.889 80.163 108.3C80.5034 109.717 81.2287 111.012 82.2585 112.043C84.2581 114.115 87.1547 115.438 90.6134 116.356Z" stroke="#A5D936" stroke-width="2"/>
<path d="M138.651 100.62L137.677 100.098L137.254 101.119C134.218 108.444 128.918 114.795 122.636 121.767L121.779 122.718L122.91 123.319C125.467 124.678 127.907 126.246 130.205 128.007L130.895 128.536L131.515 127.926C138.182 121.359 144.235 115.042 147.962 107.398L148.337 106.629L147.636 106.14C144.751 104.126 141.751 102.283 138.651 100.62Z" stroke="#A5D936" stroke-width="2"/>
<path d="M158.072 148.372L158.781 147.76L158.217 147.012C158.061 146.806 157.905 146.6 157.749 146.394C154.925 142.653 152.029 138.819 148.876 135.132C149.641 134.442 150.393 133.747 151.132 133.045C153.902 136.266 156.493 139.565 159.039 142.831L159.711 143.693L160.51 142.947C162.006 141.552 163.454 140.114 164.853 138.615L165.447 137.978L164.899 137.302C162.276 134.071 159.544 130.735 156.59 127.462C157.17 126.816 157.727 126.162 158.266 125.495C161.491 128.942 164.475 132.432 167.375 135.825C167.509 135.981 167.642 136.137 167.775 136.293L168.555 137.204L169.311 136.273C170.688 134.578 171.972 132.809 173.157 130.973L173.568 130.336L173.065 129.768C167.527 123.516 161.614 117.606 155.356 112.074L154.42 111.246L153.818 112.341C149.753 119.736 143.488 125.715 136.481 132.028L135.698 132.733L136.444 133.478C141.665 138.689 146.104 144.639 150.556 150.607C150.967 151.159 151.378 151.71 151.791 152.261L152.416 153.097L153.225 152.436C154.858 151.1 156.474 149.751 158.072 148.372Z" stroke="#A5D936" stroke-width="2"/>
<path d="M198.359 150.61L198.957 149.566L197.821 149.169C195.675 148.418 193.609 147.454 191.654 146.292L190.807 145.788L190.291 146.628C187.758 150.755 184.93 154.691 181.83 158.406C181.93 157.045 182.04 155.657 182.153 154.243C182.505 149.817 182.878 145.144 183.011 140.279L183.024 139.821L182.685 139.513C181.154 138.119 179.649 136.634 178.127 135.073L177.251 134.175L176.57 135.229C171.002 143.856 163.701 150.358 156.305 156.53L155.558 157.153L156.16 157.917C157.88 160.102 159.66 162.301 161.536 164.308L162.191 165.008L162.918 164.383C166.208 161.559 169.379 158.6 172.424 155.514C172.416 155.579 172.408 155.644 172.4 155.709C171.685 161.509 171.001 167.064 170.883 172.397L170.871 172.922L171.296 173.229C173.218 174.62 175.239 175.867 177.345 176.959L178.03 177.314L178.547 176.742C185.141 169.458 192.251 161.259 198.359 150.61Z" stroke="#A5D936" stroke-width="2"/>
<path d="M192.904 165.748L192.904 165.748L192.898 165.756C190.936 168.492 189.666 171.155 189.66 173.794C189.618 175.113 189.922 176.42 190.543 177.585C191.163 178.75 192.077 179.732 193.195 180.433C195.602 182.056 199.04 182.878 203.509 182.726L203.518 182.726L203.527 182.725C207.656 182.507 211.717 181.584 215.534 179.996C219.529 178.369 223.25 176.136 226.564 173.375L227.968 172.205L226.227 171.653C224.044 170.961 221.922 170.091 219.882 169.051L219.31 168.759L218.807 169.158C214.92 172.238 211.048 173.885 207.56 174.237L207.531 174.24L207.501 174.245C206.001 174.486 204.463 174.281 203.079 173.655C202.724 173.482 202.425 173.214 202.214 172.88C202.006 172.55 201.893 172.169 201.888 171.778C201.956 170.453 202.404 169.175 203.18 168.098L203.199 168.072L203.215 168.046C204.204 166.474 205.417 165.055 206.817 163.836L206.817 163.836L206.823 163.83C208.279 162.54 209.894 161.44 211.628 160.558L211.628 160.558L211.636 160.554C213.348 159.665 215.168 159.001 217.05 158.58L217.051 158.579C220.253 157.86 222.258 158.299 223.496 159.659L224.135 160.36L224.869 159.759C228.194 157.038 231.556 154.06 234.956 150.827L235.792 150.031L234.885 149.317C233.052 147.874 230.763 147.136 228.433 147.237C225.501 147.274 222.588 147.711 219.775 148.536C216.179 149.461 212.693 150.768 209.376 152.435C206.119 154.054 203.038 156.005 200.183 158.257C197.42 160.404 194.97 162.925 192.904 165.748Z" stroke="#A5D936" stroke-width="2"/>
<path d="M292.999 137.893V136.062L291.458 137.052C279.604 144.667 267.374 151.678 254.814 158.059C255.088 156.665 255.364 155.262 255.648 153.851C264.815 148.933 274.993 142.752 286.339 135.274L286.772 134.988L286.788 134.47L287.055 125.833L287.117 123.817L285.475 124.988C275.325 132.229 266.115 138.277 257.765 143.261C258.023 141.983 258.279 140.697 258.532 139.398C268.167 133.335 278.992 125.731 291.233 116.381L291.623 116.084L291.626 115.593C291.634 114.467 291.645 113.338 291.657 112.206C291.676 110.318 291.695 108.426 291.695 106.536V104.435L290.065 105.759C271.793 120.596 256.883 131.161 244.488 138.29L244.134 138.493L244.024 138.886C241.67 147.261 239.305 155.004 237.065 162.336C235.811 166.442 234.596 170.419 233.445 174.307L232.895 176.161L234.726 175.537C250.388 170.199 269.316 161.292 292.501 147.819L292.999 147.53V146.954V137.893Z" stroke="#A5D936" stroke-width="2"/>
<path d="M5.39418 195.467C9.81333 193.572 14.0691 191.316 18.1183 188.723C23.0144 185.721 27.7589 182.532 32.4105 179.207C37.1477 175.892 41.7048 172.326 46.0624 168.526C49.2505 165.782 52.2002 162.774 54.8796 159.532C56.8089 157.287 58.3218 154.716 59.3473 151.94L59.3547 151.92L59.3612 151.899C59.7837 150.586 59.98 149.381 59.7803 148.369C59.5621 147.264 58.884 146.466 57.8156 146.074C56.0472 145.426 53.741 145.543 50.9818 146.317L50.9818 146.317L50.9704 146.32C47.1784 147.432 43.4661 148.799 39.8589 150.412C35.6403 152.264 32.4568 153.635 30.4325 154.329C29.9381 154.498 29.5349 154.612 29.2134 154.675C29.0498 154.708 28.9205 154.725 28.8207 154.732C28.8836 154.476 29.0545 154.115 29.425 153.63C29.8753 153.041 30.5536 152.356 31.4754 151.562C34.0643 149.482 36.8834 147.705 39.8775 146.266L39.8958 146.257L39.9138 146.248C44.9851 143.553 50.4862 141.759 56.1716 140.946L56.5837 140.887L56.8322 140.553C59.1588 137.428 61.4976 134.447 63.8486 131.612L65.287 129.878L63.0357 129.975C59.7288 130.118 56.4535 130.679 53.2876 131.644C48.8943 132.909 44.6033 134.506 40.4517 136.42C34.0024 139.319 27.8689 142.875 22.1479 147.03C17.5205 150.307 13.3657 154.205 9.80022 158.614L9.79203 158.624L9.78409 158.634C6.95878 162.32 5.39318 165.707 5.39191 168.556C5.38159 170.143 5.779 171.507 6.76609 172.425C7.75373 173.343 9.12786 173.625 10.6471 173.505L10.6661 173.503L10.6852 173.501C14.0768 173.101 17.3708 172.103 20.4146 170.554C23.945 168.908 28.1913 166.751 32.8891 164.358L32.8969 164.354L32.9046 164.35C35.7232 162.852 38.6437 161.554 41.6444 160.465C41.9948 160.352 42.2663 160.29 42.4689 160.263C42.2394 160.99 41.529 161.986 40.0007 163.358C38.4003 164.795 36.0431 166.524 32.8008 168.674L32.7987 168.675C29.3831 170.952 25.8228 173.142 22.0357 175.093L22.0255 175.099L22.0155 175.104C18.6461 176.939 15.1522 178.536 11.5596 179.882L11.205 180.015L11.0274 180.35C8.64035 184.846 6.34389 189.448 4.09884 194.115L2.94237 196.519L5.39418 195.467ZM28.7919 154.977C28.7919 154.977 28.7917 154.976 28.7915 154.974C28.7918 154.976 28.792 154.977 28.7919 154.977Z" stroke="#A5D936" stroke-width="2"/>
<path d="M66.687 150.135L66.6933 150.148L66.6998 150.16C67.3018 151.284 68.1586 152.252 69.2015 152.986C70.2396 153.717 71.4335 154.196 72.6887 154.386C75.7118 154.941 78.8139 154.903 81.8225 154.274C84.7333 153.8 87.5862 153.022 90.3345 151.952L90.3364 151.952C93.0638 150.884 95.6692 149.527 98.1078 147.905L98.7194 147.498L98.5141 146.793C97.9436 144.833 97.246 142.913 96.426 141.044L95.9358 139.927L94.9366 140.627C92.2391 142.517 89.1369 143.75 85.8779 144.227L85.8674 144.229L85.857 144.231C84.551 144.45 83.2107 144.334 81.9623 143.892C81.5945 143.754 81.2692 143.521 81.0186 143.218C80.7724 142.921 80.6069 142.565 80.5376 142.185C80.3991 140.854 80.6808 139.512 81.3437 138.349L81.3583 138.323L81.3713 138.296C82.2282 136.562 83.413 135.01 84.8603 133.726L84.8603 133.726L84.8663 133.72C86.411 132.328 88.1859 131.214 90.1122 130.429L90.1122 130.429L90.1197 130.426C91.9276 129.673 93.8655 129.28 95.8243 129.27C97.3933 129.284 98.5197 129.603 99.2938 130.102C100.047 130.588 100.54 131.29 100.78 132.244L101.058 133.351L102.119 132.93C104.865 131.839 107.675 130.915 110.533 130.165L111.386 129.941L111.271 129.067C111.121 127.934 110.726 126.847 110.112 125.884C109.498 124.92 108.681 124.102 107.717 123.488L107.71 123.484L107.703 123.48C105.136 121.9 102.178 121.07 99.1644 121.081C94.6727 120.962 90.2073 121.802 86.0659 123.545C81.6723 125.324 77.6394 127.889 74.1648 131.113C71.0299 133.908 68.5788 137.386 67.0004 141.278L67.0003 141.278L66.9969 141.286C65.6041 144.814 65.5273 147.816 66.687 150.135Z" stroke="#A5D936" stroke-width="2"/>
<path d="M119.293 126.629L118.61 126.28L118.096 126.849C111.52 134.126 104.422 142.393 98.3248 153.03L97.7173 154.09L98.8763 154.476C101.073 155.208 103.186 156.171 105.18 157.349L106.03 157.852L106.543 157.007C112.557 147.1 119.788 139.612 126.693 132.708L127.505 131.896L126.59 131.203C124.297 129.467 121.855 127.936 119.293 126.629Z" stroke="#A5D936" stroke-width="2"/>
<path d="M131.983 171.935L132.516 171.279L131.959 170.644C130.938 169.481 129.928 168.313 128.925 167.151C126.744 164.628 124.592 162.139 122.422 159.813C123.177 158.887 123.952 157.985 124.739 157.099C127.276 159.962 129.77 163.03 132.347 166.2L133.081 167.104L133.864 166.241C135.176 164.794 136.63 163.407 138.107 162.039L138.779 161.416L138.216 160.692C138.143 160.596 138.069 160.501 137.995 160.406C135.523 157.226 133.086 154.091 130.56 151.128C131.286 150.438 132.016 149.759 132.749 149.091C135.261 152.1 137.685 155.287 140.157 158.536C140.553 159.058 140.951 159.581 141.351 160.105L141.994 160.95L142.799 160.257C144.36 158.911 145.963 157.575 147.577 156.256L148.32 155.649L147.744 154.882C147.312 154.305 146.88 153.728 146.448 153.15C142.14 147.387 137.801 141.582 132.782 136.583L132.109 135.912L131.405 136.55C124.206 143.075 116.706 150.296 110.637 159.903L110.158 160.66L110.859 161.219C115.719 165.093 120.259 170.003 125.186 175.332C125.72 175.909 126.258 176.491 126.802 177.077L127.683 178.027L128.378 176.934C129.483 175.199 130.686 173.53 131.983 171.935Z" stroke="#A5D936" stroke-width="2"/>
<path d="M173.955 181.846L174.813 180.9L173.689 180.294C171.197 178.949 168.819 177.401 166.581 175.666L165.9 175.138L165.277 175.733C162.341 178.539 159.532 181.475 156.86 184.533C156.247 178.801 156.365 173.013 157.213 167.305L157.282 166.843L156.972 166.494C155.418 164.745 153.93 162.944 152.478 161.101L151.842 160.294L151.053 160.951C143.739 167.039 136.7 173.231 131.757 181.282L131.35 181.945L131.892 182.503C133.946 184.615 136.092 186.732 138.37 188.82L139.277 189.651L139.906 188.594C141.851 185.325 144.128 182.267 146.699 179.469C146.82 185.756 147.956 191.989 150.069 197.924L150.178 198.229L150.445 198.412C152.774 200.014 155.271 201.527 157.934 202.951L158.908 203.472L159.33 202.451C162.356 195.128 167.684 188.757 173.955 181.846Z" stroke="#A5D936" stroke-width="2"/>
<path d="M176.905 209.252L176.905 209.252L176.915 209.258C180.931 211.619 185.39 213.127 190.014 213.691C194.548 214.363 199.159 214.329 203.683 213.588C207.789 212.941 211.747 211.564 215.368 209.524L217.216 208.483L215.238 207.72C211.85 206.412 208.72 205.064 205.845 203.676L205.395 203.459L204.951 203.688C201.093 205.68 196.728 206.475 192.415 205.972L192.402 205.97L192.388 205.969C190.227 205.777 188.122 205.182 186.18 204.214L186.165 204.207L186.15 204.2C184.915 203.636 183.905 202.675 183.281 201.471C183.089 201.028 183.003 200.546 183.033 200.064C183.063 199.573 183.21 199.097 183.463 198.675L183.468 198.665L183.474 198.656C184.144 197.479 185.151 196.529 186.366 195.928L186.374 195.924L186.383 195.919C187.977 195.092 189.696 194.533 191.472 194.264L191.472 194.264L191.484 194.262C193.662 193.904 195.871 193.766 198.076 193.85L198.076 193.85L198.086 193.85C202.176 193.966 205.326 194.736 207.723 196.439L208.192 196.772L208.715 196.535C212.423 194.855 216.239 192.938 220.162 190.753L221.768 189.859L220.145 188.997C217.482 187.582 214.568 186.702 211.567 186.408C207.925 185.99 204.259 185.817 200.594 185.889C196.442 185.874 192.293 186.113 188.17 186.606C184.682 186.971 181.256 187.785 177.977 189.029C175.181 190.015 172.759 191.84 171.039 194.254L171.039 194.254L171.033 194.263C170.252 195.386 169.767 196.687 169.623 198.047C169.48 199.404 169.681 200.776 170.208 202.035C171.276 204.688 173.502 207.196 176.905 209.252Z" stroke="#A5D936" stroke-width="2"/>
<path d="M292.999 189.218V187.793L291.659 188.278C277.442 193.42 262.93 197.704 248.2 201.107C248.309 199.758 248.434 198.41 248.568 197.056C260.912 193.799 273.076 189.893 285.009 185.356L285.647 185.114L285.654 184.432C285.665 183.318 285.686 182.192 285.708 181.062C285.74 179.355 285.772 177.637 285.772 175.933V174.42L284.38 175.013C273.03 179.852 261.442 184.11 249.661 187.772C249.821 186.593 249.989 185.409 250.162 184.221C263.989 179.452 277.534 173.901 290.732 167.597L291.294 167.328L291.301 166.705C291.334 163.701 291.35 160.697 291.35 157.693V156.044L289.888 156.806C266.697 168.887 247.657 176.704 231.944 181.25L231.406 181.405L231.257 181.945C228.367 192.456 226.186 202.417 225.459 212.539L225.374 213.718L226.551 213.606C244.792 211.871 266.374 207.392 292.299 199.233L292.999 199.013V198.279V189.218Z" stroke="#A5D936" stroke-width="2"/>
<path d="M5.37751 246.799C8.63126 245.473 11.7494 243.836 14.6886 241.91C18.4085 239.611 22.0018 237.112 25.4533 234.427C29.311 231.49 32.8512 228.158 36.0161 224.486L36.018 224.484C38.7147 221.336 41.0173 217.872 42.8745 214.167C44.4498 211.069 45.577 207.763 46.2223 204.347L46.2236 204.341L46.2248 204.334C46.533 202.566 46.6481 201.05 46.5166 199.823C46.3863 198.608 45.9954 197.522 45.1371 196.83C43.6247 195.61 41.6451 195.603 39.4521 196.39L39.4375 196.396L39.423 196.401C36.462 197.57 33.6206 199.022 30.9388 200.737C27.7329 202.682 25.3583 204.118 23.8921 204.832C23.6112 204.969 23.3853 205.059 23.2091 205.113C23.3372 204.266 23.9758 202.988 25.3509 201.252C27.2539 198.998 29.4078 196.968 31.7704 195.201L31.778 195.195L31.7856 195.19C36.2998 191.678 40.4109 189.633 43.9038 189.05L44.4153 188.964L44.6402 188.497C46.5555 184.516 48.5228 180.658 50.5422 176.922L51.4761 175.194L49.5293 175.455C46.8861 175.81 44.333 176.658 42.0023 177.954C38.5295 179.751 35.2148 181.838 32.0936 184.193C26.9751 187.977 22.2265 192.237 17.9119 196.916C14.2591 200.794 11.067 205.081 8.39912 209.692L8.39391 209.701L8.38888 209.71C6.22631 213.634 5.07688 217.037 5.07593 219.813C5.06585 221.353 5.35083 222.669 6.07798 223.591C6.85527 224.577 7.99005 224.935 9.23101 224.83L9.25395 224.828L9.27678 224.825C11.8858 224.481 14.3839 223.555 16.5862 222.116C19.1276 220.608 22.1695 218.654 25.5748 216.466L25.8575 216.285L25.8688 216.278L25.8799 216.27C27.8954 214.898 30.0518 213.745 32.3125 212.831C32.4484 212.788 32.5524 212.765 32.6285 212.754C32.6343 212.856 32.6296 213.004 32.6003 213.21C32.4419 214.318 31.861 215.568 30.6667 217.057C29.472 218.546 27.7065 220.221 25.2652 222.174L25.2651 222.174L25.2578 222.18C22.7363 224.236 20.0674 226.105 17.2726 227.771L17.2651 227.776L17.2577 227.78C14.8346 229.282 12.289 230.578 9.64807 231.652L9.24887 231.814L9.09277 232.216C7.35283 236.693 5.67256 241.15 4.06154 245.528L3.27874 247.655L5.37751 246.799Z" fill="#A5D936" stroke="#A5D936" stroke-width="2"/>
<path d="M57.3111 210.405L57.3287 210.415L57.3466 210.424C60.2013 211.865 63.5101 212.119 66.5506 211.129C69.5679 210.265 72.3302 208.682 74.5998 206.514L74.6046 206.509C77.1405 204.054 79.2597 201.203 80.8789 198.067L81.095 197.648L80.9099 197.215C79.6956 194.372 78.5475 191.701 77.4283 189.195L76.6617 187.48L75.6669 189.074C73.1112 193.17 70.6972 195.426 68.2916 196.092L68.2521 196.103L68.2137 196.117C67.6852 196.31 67.1192 196.38 66.5593 196.321C66.0154 196.264 65.4913 196.086 65.0252 195.8C64.5417 195.417 64.1411 194.94 63.8479 194.397C63.5468 193.84 63.3654 193.226 63.3156 192.594L63.3137 192.571L63.3108 192.548C63.0394 190.402 63.1975 188.224 63.7759 186.14L63.7809 186.122L63.7852 186.104C64.3815 183.597 65.3428 181.191 66.6385 178.963L66.6385 178.963L66.6431 178.955C67.7956 176.93 69.2678 175.104 71.0027 173.549L71.0115 173.541L71.0201 173.533C72.3211 172.31 73.9018 171.423 75.624 170.951C76.8318 170.675 77.6044 170.856 78.1427 171.268C78.7227 171.712 79.2341 172.575 79.5669 174.077L79.9702 175.897L81.2635 174.554C83.6459 172.081 86.0016 169.85 88.3306 167.86L88.7426 167.507L88.6725 166.97C88.326 164.314 87.3875 162.203 85.5813 160.794C83.7423 159.358 81.2658 158.987 78.2279 159.616L78.2066 159.62L78.1856 159.625C74.1701 160.639 70.4595 162.609 67.3701 165.366C63.5065 168.613 60.1883 172.458 57.5417 176.755C54.7974 181.074 52.8175 185.833 51.6884 190.824L51.6864 190.832L51.6846 190.841C50.6801 195.682 50.6533 199.779 51.7018 203.163C52.0977 204.682 52.7968 206.106 53.7571 207.349C54.7224 208.598 55.9315 209.638 57.3111 210.405Z" fill="#A5D936" stroke="#A5D936" stroke-width="2"/>
<path d="M95.2789 160.587L94.4628 160.365L94.1087 161.133C88.6061 173.062 84.4217 187.769 83.0412 206.754L82.9677 207.765L83.9798 207.825C86.4701 207.971 88.947 208.295 91.3913 208.793L92.5463 209.029L92.5904 207.851C93.2767 189.518 97.0786 175.62 102.434 164.503L102.858 163.622L101.987 163.178C99.8466 162.085 97.5984 161.217 95.2789 160.587Z" fill="#A5D936" stroke="#A5D936" stroke-width="2"/>
<path d="M120.558 209.349L120.535 208.816L120.078 208.538C115.623 205.83 111.389 203.315 107.244 201.152C107.355 199.156 107.52 197.228 107.74 195.368C110.765 197.223 113.852 199.308 117.074 201.539L118.523 202.542L118.641 200.784C118.812 198.234 119.137 195.696 119.613 193.185L119.726 192.591L119.252 192.215C115.967 189.609 112.803 187.138 109.665 184.928C110.025 183.575 110.409 182.262 110.819 180.99C113.832 183.38 116.884 186.048 120.107 188.865C120.31 189.042 120.513 189.22 120.717 189.399L121.888 190.421L122.333 188.932C122.975 186.789 123.76 184.691 124.685 182.653L124.975 182.014L124.472 181.524C124.102 181.163 123.733 180.802 123.366 180.444C118.132 175.331 113.228 170.542 108.045 166.856L107.084 166.173L106.567 167.232C101.27 178.075 97.8369 191.671 97.8369 209.699V210.43L98.5333 210.652C105.45 212.856 112.408 216.17 120.026 220.017L121.744 220.885L121.467 218.981C121.002 215.788 120.699 212.573 120.558 209.349Z" fill="#A5D936" stroke="#A5D936" stroke-width="2"/>
<path d="M157.532 207.824L157.717 207.064L157.025 206.701C153.954 205.091 150.968 203.323 148.081 201.404L146.95 200.653L146.568 201.955C145.486 205.633 144.934 209.44 144.924 213.262C141.039 206.837 138.097 199.882 136.193 192.607L136.114 192.305L135.878 192.102C133.927 190.426 132.062 188.728 130.252 187.036L129.207 186.06L128.649 187.377C124.803 196.442 123.543 207.696 126.485 222.859L126.577 223.335L127.009 223.557C129.778 224.981 132.652 226.431 135.631 227.907L137.623 228.894L137.04 226.749C135.686 221.768 134.906 216.654 134.712 211.506C139.055 219.826 144.364 227.61 150.534 234.695L150.684 234.867L150.893 234.957C153.73 236.177 156.716 237.387 159.821 238.557L161.919 239.348L161.105 237.259C156.309 224.943 155.619 215.653 157.532 207.824Z" fill="#A5D936" stroke="#A5D936" stroke-width="2"/>
<path d="M168.763 234.603L168.763 234.603L168.769 234.609C172.055 238.263 175.936 241.337 180.245 243.7C185.03 246.339 190.206 248.197 195.577 249.203C199.897 250.117 204.336 250.318 208.72 249.798C212.189 249.42 215.509 248.18 218.377 246.192L219.789 245.213L218.241 244.469C213.929 242.395 209.806 240.306 205.87 238.201L205.355 237.925L204.861 238.239C202.067 240.018 198.398 240.595 193.63 239.689C190.991 239.186 188.439 238.3 186.056 237.06L186.056 237.06L186.047 237.056C183.996 236.016 182.142 234.626 180.568 232.95L180.559 232.941L180.55 232.931C179.356 231.723 178.524 230.204 178.149 228.547L178.145 228.529L178.14 228.512C178.01 228.022 178.014 227.507 178.151 227.02C178.284 226.55 178.535 226.122 178.882 225.778C180.01 224.937 181.378 224.477 182.787 224.468L182.809 224.468L182.831 224.467C185.194 224.347 187.563 224.517 189.884 224.972L189.902 224.976L189.921 224.979C194.522 225.704 198.925 227.365 202.859 229.859L203.275 230.124L203.738 229.954C207.063 228.737 210.587 227.401 214.31 225.906L216.25 225.127L214.427 224.106C210.854 222.104 207.041 220.567 203.079 219.531C198.653 218.329 194.163 217.377 189.63 216.678C185.07 215.846 180.447 215.403 175.812 215.352L175.798 215.351L175.783 215.352C171.917 215.422 168.75 215.976 166.487 217.495C165.335 218.269 164.475 219.264 163.975 220.513C163.479 221.753 163.366 223.17 163.586 224.751C164.027 227.925 165.815 231.27 168.763 234.603Z" fill="#A5D936" stroke="#A5D936" stroke-width="2"/>
<path d="M293 240.543V239.385L291.854 239.554C277.989 241.6 264.023 242.898 250.019 243.44C249.75 241.962 249.508 240.489 249.287 239.022C260.244 238.386 272.108 237.117 284.985 235.126L285.851 234.992L285.832 234.117C285.773 231.275 285.717 228.443 285.665 225.621L285.642 224.434L284.477 224.657C272.47 226.951 260.356 228.647 248.181 229.737C248.069 228.479 247.977 227.226 247.898 225.973C262.208 224.33 276.412 221.868 290.44 218.598L291.213 218.418V217.625V217.607V217.589V217.572V217.554V217.537V217.519V217.501V217.484V217.466V217.449V217.431V217.414V217.396V217.378V217.361V217.343V217.326V217.308V217.29V217.273V217.255V217.238V217.22V217.202V217.185V217.167V217.15V217.132V217.114V217.097V217.079V217.062V217.044V217.026V217.009V216.991V216.974V216.956V216.938V216.921V216.903V216.886V216.868V216.85V216.833V216.815V216.798V216.78V216.762V216.745V216.727V216.71V216.692V216.674V216.657V216.639V216.621V216.604V216.586V216.569V216.551V216.533V216.516V216.498V216.481V216.463V216.445V216.428V216.41V216.392V216.375V216.357V216.34V216.322V216.304V216.287V216.269V216.252V216.234V216.216V216.199V216.181V216.163V216.146V216.128V216.111V216.093V216.075V216.058V216.04V216.022V216.005V215.987V215.97V215.952V215.934V215.917V215.899V215.881V215.864V215.846V215.829V215.811V215.793V215.776V215.758V215.74V215.723V215.705V215.687V215.67V215.652V215.635V215.617V215.599V215.582V215.564V215.546V215.529V215.511V215.494V215.476V215.458V215.441V215.423V215.405V215.388V215.37V215.353V215.335V215.317V215.3V215.282V215.264V215.247V215.229V215.211V215.194V215.176V215.159V215.141V215.123V215.106V215.088V215.07V215.053V215.035V215.017V215V214.982V214.965V214.947V214.929V214.912V214.894V214.876V214.859V214.841V214.824V214.806V214.788V214.771V214.753V214.735V214.718V214.7V214.682V214.665V214.647V214.63V214.612V214.594V214.577V214.559V214.541V214.524V214.506V214.489V214.471V214.453V214.436V214.418V214.4V214.383V214.365V214.347V214.33V214.312V214.295V214.277V214.259V214.242V214.224V214.206V214.189V214.171V214.154V214.136V214.118V214.101V214.083V214.065V214.048V214.03V214.012V213.995V213.977V213.96V213.942V213.924V213.907V213.889V213.871V213.854V213.836V213.819V213.801V213.783V213.766V213.748V213.73V213.713V213.695V213.678V213.66V213.642V213.625V213.607V213.59V213.572V213.554V213.537V213.519V213.501V213.484V213.466V213.449V213.431V213.413V213.396V213.378V213.36V213.343V213.325V213.308V213.29V213.272V213.255V213.237V213.22V213.202V213.184V213.167V213.149V213.131V213.114V213.096V213.079V213.061V213.043V213.026V213.008V212.991V212.973V212.955V212.938V212.92V212.903V212.885V212.867V212.85V212.832V212.815V212.797V212.779V212.762V212.744V212.727V212.709V212.691V212.674V212.656V212.639V212.621V212.603V212.586V212.568V212.551V212.533V212.515V212.498V212.48V212.463V212.445V212.427V212.41V212.392V212.375V212.357V212.34V212.322V212.304V212.287V212.269V212.252V212.234V212.216V212.199V212.181V212.164V212.146V212.129V212.111V212.093V212.076V212.058V212.041V212.023V212.006V211.988V211.97V211.953V211.935V211.918V211.9V211.883V211.865V211.847V211.83V211.812V211.795V211.777V211.76V211.742V211.724V211.707V211.689V211.672V211.654V211.637V211.619V211.602V211.584V211.566V211.549V211.531V211.514V211.496V211.479V211.461V211.444V211.426V211.408V211.391V211.373V211.356V211.338V211.321V211.303V211.286V211.268V211.251V211.233V211.216V211.198V211.18V211.163V211.145V211.128V211.11V211.093V211.075V211.058V211.04V211.023V211.005V210.988V210.97V210.953V210.935V210.918V210.9V210.883V210.865V210.848V210.83V210.812V210.795V210.777V210.76V210.742V210.725V210.707V210.69V210.672V210.655V210.637V210.62V210.602V210.585V210.567V210.55V210.532V210.515V210.497V210.48V210.462V210.445V210.427V210.41V210.392V210.375V210.357V210.34V210.323V210.305V210.288V210.27V210.253V210.235V210.218V210.2V210.183V210.165V210.148V210.13V210.113V210.095V210.078V210.06V210.043V210.025V210.008V209.991V209.973V209.956V209.938V209.921V209.903V209.886V209.868V209.851V209.833V209.816V209.799V209.781V209.764V209.746V209.729V209.711V209.694V209.676V209.659V209.642V209.624V209.607V209.589V209.572V209.554V209.537V209.52V209.502V209.485V209.467V209.45V209.433V209.415V209.398V209.38V209.363V209.345V209.328V209.311V209.293V209.276V209.258V209.241V209.224V209.206V209.189V209.171V209.154V209.137V209.119V209.102V209.084V209.067V209.05V209.032V209.015V208.998V208.98V208.963V208.945V208.928V208.911V208.893V208.876V208.858V208.841V208.824V208.806V208.789V208.772V208.754V208.737V208.72V208.702V208.685V208.668V208.65V208.633V207.331L289.955 207.667C264.95 214.335 243.95 217.766 226.132 218.818L225.188 218.873L225.191 219.819C225.228 230.861 227.105 241.819 230.746 252.243L230.969 252.884L231.647 252.913C251.834 253.784 272.058 253.01 292.119 250.597L293 250.491V249.604V240.543Z" fill="#A5D936" stroke="#A5D936" stroke-width="2"/>
<path d="M4.0789 296.809L3.72193 297.653L4.53241 298.082C7.03968 299.408 9.68585 300.454 12.4227 301.199C15.6715 302.193 19.0427 302.731 22.4397 302.797C26.2416 302.982 29.9882 301.828 33.0274 299.536L33.0468 299.522L33.0655 299.506C35.9677 297.088 38.0902 293.867 39.1667 290.246C40.4186 286.271 40.9971 282.114 40.8785 277.948C40.7886 273.006 40.0872 269.206 38.5781 266.757C37.1167 264.385 35.2934 262.917 33.034 262.517L33.0141 262.513L32.9941 262.51C30.427 262.162 27.8177 262.296 25.2996 262.904L25.2996 262.904L25.2902 262.907C23.4287 263.376 21.5326 263.695 19.6203 263.863C19.1971 263.857 19.0858 263.748 19.056 263.715C19.0043 263.657 18.8901 263.466 18.8837 262.936C19.0245 261.559 19.5582 260.252 20.422 259.17L20.4266 259.165L20.4311 259.159C21.7655 257.436 23.4123 255.98 25.2855 254.866L25.2947 254.86L25.3038 254.854C28.7923 252.677 31.9955 252.057 35.0744 253.215L36.0993 253.6L36.3904 252.545C37.7113 247.755 39.0751 243.014 40.4814 238.323L40.7602 237.393L39.839 237.087C37.6157 236.348 35.2036 236.412 33.0228 237.267C30.1502 238.288 27.4484 239.737 25.0092 241.565C21.01 244.477 17.3961 247.885 14.2538 251.706C11.4746 254.962 9.11084 258.551 7.21686 262.389C5.75763 265.219 4.92999 268.331 4.79079 271.512L4.78991 271.532L4.78984 271.552C4.77943 274.634 5.61775 276.845 7.58965 278.045L7.58961 278.045L7.6005 278.052C9.40231 279.118 11.4769 279.633 13.568 279.533C15.6793 279.472 18.2602 279.273 21.2783 279.037L21.2967 279.036L21.3149 279.033C23.1553 278.821 25.0192 278.974 26.8005 279.481C27.1683 279.632 27.4277 279.87 27.6123 280.219C27.8151 280.602 27.9503 281.166 27.9503 281.968C27.9503 283.487 27.4924 284.63 26.6217 285.5C25.7263 286.396 24.3026 287.094 22.2118 287.511C19.9834 287.942 17.6982 287.993 15.4528 287.661L15.4411 287.66L15.4294 287.658C13.3171 287.397 11.2395 286.907 9.23293 286.198L8.2975 285.867L7.95938 286.8C6.64982 290.412 5.36308 293.771 4.0789 296.809Z" stroke="#A5D936" stroke-width="2"/>
<path d="M56.7079 296.725L56.7152 296.732L56.7228 296.74C60.6189 300.543 65.0581 302.765 69.7412 302.778C71.7114 302.816 73.6628 302.388 75.4368 301.53C77.2084 300.674 78.7532 299.412 79.9461 297.847C82.5652 294.625 84.203 290.05 85.0841 284.484L85.1454 284.097L84.9276 283.772C81.7256 278.985 78.7891 274.413 76.0586 270.057L74.782 268.021L74.2373 270.362C73.4765 273.632 72.4936 276.048 71.3333 277.652C70.1935 279.227 68.9259 279.969 67.5271 280.062C66.5861 280.1 65.6486 279.926 64.7832 279.555C63.9144 279.181 63.1405 278.618 62.5185 277.906L62.5097 277.896L62.5006 277.886C60.616 275.841 59.233 273.387 58.4611 270.716L58.4584 270.706L58.4555 270.697C57.3689 267.193 56.7987 263.548 56.7628 259.879L56.7627 259.868L56.7623 259.856C56.6407 256.224 57.007 252.592 57.8512 249.057L57.8513 249.057L57.8541 249.045C58.463 246.344 59.5716 243.782 61.1226 241.489L61.1318 241.475L61.1404 241.462C62.1108 239.921 63.6132 238.792 65.3617 238.288C66.5096 238.053 67.549 238.335 68.6165 239.296C69.7441 240.31 70.8792 242.07 72.0442 244.734L72.9702 246.852L73.8797 244.727C75.6655 240.555 77.4092 236.546 79.1516 232.738L79.3294 232.349L79.1713 231.952C77.5294 227.828 75.6668 224.764 73.3164 222.83C72.1765 221.858 70.8094 221.19 69.3425 220.888C67.8795 220.586 66.3643 220.657 64.9364 221.095C61.3749 222.035 58.0229 224.642 54.9916 228.561L54.9915 228.561L54.9834 228.572C51.629 233.033 49.0599 238.034 47.3864 243.358C45.3624 249.58 44.3465 256.085 44.3771 262.628C44.2755 269.228 45.3649 275.792 47.593 282.005C49.5002 287.527 52.6139 292.556 56.7079 296.725Z" stroke="#A5D936" stroke-width="2"/>
<path d="M83.6586 220.109L82.6285 220.083L82.6328 221.113C82.7221 242.264 85.9948 268.067 93.8968 300.073L94.0845 300.834H94.8677H106.497H107.838L107.456 299.549C97.9845 267.683 93.5815 242.291 92.6876 221.737L92.6515 220.906L91.8285 220.79C89.1205 220.407 86.3927 220.18 83.6586 220.109Z" stroke="#A5D936" stroke-width="2"/>
<path d="M142.833 281.649L142.587 281.13L142.015 281.081C135.51 280.52 129.054 280.065 122.647 279.713C121.09 275.327 119.656 271.101 118.346 267.035C123.08 267.572 127.854 268.212 132.71 268.932L134.448 269.19L133.782 267.564C131.681 262.431 129.814 257.57 128.181 252.98L127.997 252.464L127.463 252.341C122.636 251.234 117.911 250.234 113.238 249.402C112.425 246.246 111.702 243.199 111.062 240.245C115.734 241.379 120.49 242.724 125.399 244.215L127.212 244.765L126.643 242.958C125.278 238.617 124.149 234.514 123.227 230.639L123.109 230.144L122.639 229.948C115.19 226.843 107.525 224.285 99.7054 222.292L98.3403 221.944L98.4623 223.347C100.219 243.561 105.822 268.558 116.877 300.193L117.111 300.861L117.818 300.863C128.821 300.896 139.837 300.952 150.867 301.031L152.528 301.043L151.761 299.57C148.495 293.295 145.519 287.322 142.833 281.649Z" stroke="#A5D936" stroke-width="2"/>
<path d="M165.265 246.604L165.078 246.227L164.678 246.097C160.93 244.878 157.338 243.618 153.87 242.357L151.629 241.543L152.619 243.712C155.865 250.83 159.478 257.772 163.442 264.512C154.489 255.851 146.203 246.521 138.657 236.602L138.492 236.385L138.239 236.281L130.617 233.172L128.696 232.388L129.28 234.38C134.307 251.501 143.934 272.986 159.819 300.599L160.105 301.096L160.678 301.1L172.12 301.189L173.964 301.203L172.971 299.65C165.802 288.438 159.803 278.339 154.841 269.167C165.82 280.514 177.478 291.186 189.753 301.124L190.025 301.344L190.374 301.347L200.029 301.426L202.105 301.443L200.824 299.809C183.478 277.684 172.132 260.463 165.265 246.604Z" stroke="#A5D936" stroke-width="2"/>
<path d="M217.677 298.827L217.686 298.831L217.694 298.835C223.421 301.493 228.552 302.767 233.04 302.778H233.042C236.985 302.778 239.909 301.877 241.951 300.105L241.96 300.097L241.969 300.088C242.959 299.186 243.754 298.091 244.307 296.872C244.86 295.652 245.16 294.333 245.188 292.994L245.2 292.399L244.683 292.105C242.314 290.754 239.91 289.392 237.492 288.022C235.257 286.756 233.012 285.483 230.773 284.208L229.517 283.493L229.29 284.921C229.061 286.368 228.525 287.322 227.719 287.909C226.899 288.507 225.633 288.846 223.698 288.71C221.074 288.455 218.52 287.714 216.167 286.524L216.168 286.524L216.156 286.519C213.226 285.083 210.487 283.285 208.003 281.168L208.003 281.168L207.994 281.16C205.435 279.03 203.144 276.598 201.172 273.916C199.284 271.318 198.366 269.33 198.199 267.896L198.193 267.842L198.18 267.789C198.075 267.328 198.139 266.845 198.362 266.429C198.584 266.012 198.949 265.69 199.39 265.52L199.41 265.513L199.43 265.504C200.562 265.013 202.397 264.929 205.093 265.374C210.389 266.414 215.412 268.539 219.845 271.617L220.532 272.093L221.123 271.502C222.985 269.639 224.997 267.931 227.139 266.396L228.346 265.531L227.09 264.738C222.911 262.1 218.457 259.927 213.806 258.258C209.147 256.548 204.352 255.232 199.471 254.326L199.47 254.325C194.039 253.325 189.69 253.066 186.524 253.94C184.929 254.38 183.608 255.107 182.7 256.228C181.783 257.36 181.374 258.786 181.407 260.451C181.473 263.733 183.31 267.908 186.85 272.967L186.855 272.975L186.86 272.982C194.862 283.989 205.444 292.864 217.677 298.827Z" stroke="#A5D936" stroke-width="2"/>
<path d="M292.998 291.868V290.861L291.991 290.868C282.998 290.933 274.278 290.849 265.833 290.619C264.954 288.779 264.112 286.956 263.307 285.151C270.985 285.387 278.977 285.456 287.281 285.357L288.349 285.344L288.266 284.28C288.043 281.396 287.839 278.515 287.655 275.637L287.593 274.673L286.628 274.701C276.912 274.99 267.712 274.978 258.956 274.721C258.373 273.212 257.815 271.714 257.282 270.228C267.701 270.438 278.808 270.265 290.68 269.613L291.638 269.56L291.626 268.601C291.614 267.694 291.599 266.786 291.585 265.879C291.551 263.765 291.517 261.659 291.517 259.593V258.505L290.433 258.596C271.971 260.155 253.421 260.395 234.925 259.315L233.327 259.222L233.944 260.699C239.014 272.834 246.557 286.163 257.248 301.414L257.545 301.838L258.061 301.84C269.318 301.9 280.63 301.929 291.998 301.929H292.998V300.929V291.868Z" stroke="#A5D936" stroke-width="2"/>
</svg>
