<svg width="1251" height="529" viewBox="0 0 1251 529" fill="none" xmlns="http://www.w3.org/2000/svg">
<path d="M26.656 180.797L27.9234 179.776L26.4398 179.107C22.3283 177.252 18.1797 175.484 13.994 173.801L13.4265 173.573L12.9649 173.974C6.78947 179.341 0.592819 184.76 -5.62504 190.229C-6.13493 182.347 -6.66279 174.512 -7.20859 166.722L-7.25559 166.051L-7.89447 165.841C-12.5442 164.316 -17.2283 162.871 -21.947 161.505L-23.411 161.081L-23.2169 162.593C-21.6237 174.999 -20.0906 187.543 -18.6175 200.225C-19.5312 200.804 -20.5415 201.218 -21.602 201.445C-22.6917 201.636 -23.812 201.552 -24.8608 201.199C-26.3225 200.678 -27.7069 199.962 -28.9762 199.069L-29.7281 198.54L-30.3182 199.245C-32.6747 202.06 -35.0333 204.88 -37.3938 207.705L-38.0364 208.474L-37.2661 209.115C-34.9177 211.069 -32.2318 212.576 -29.3409 213.564L-29.3338 213.566L-29.3266 213.569C-25.6357 214.768 -21.6814 214.901 -17.9181 213.953C-14.0143 213.016 -10.2357 210.996 -6.58208 207.94C4.57729 198.707 15.6566 189.66 26.656 180.797Z" stroke="#A5D936" stroke-width="2"/>
<path d="M25.7787 234.242L32.5518 217.968C33.9276 218.707 35.2962 219.462 36.6576 220.232C37.4885 227.661 38.2875 235.164 39.0545 242.74L39.1041 243.23L39.5222 243.489C43.9748 246.252 48.3651 249.169 52.6931 252.24L54.4803 253.508L54.267 251.327C53.227 240.694 52.1246 230.207 50.9601 219.867C58.1855 215.45 65.3519 211.171 72.4593 207.03L73.8022 206.248L72.5337 205.35C68.4658 202.471 64.3417 199.722 60.1612 197.105L59.6213 196.767L59.0868 197.113C53.4634 200.758 47.818 204.484 42.1506 208.291C40.6455 207.443 39.1352 206.61 37.6197 205.791L44.5754 189.078L44.9242 188.24L44.1236 187.812C40.0427 185.63 35.9204 183.55 31.7569 181.573L30.8082 181.122L30.4047 182.092L11.6079 227.256L11.2421 228.136L12.1022 228.544C16.2393 230.509 20.3332 232.574 24.3839 234.74L25.3554 235.259L25.7787 234.242Z" stroke="#A5D936" stroke-width="2"/>
<path d="M67.4992 263.579L68.1718 264.135L68.814 263.544C70.843 261.676 72.8687 259.815 74.8912 257.962C80.0378 262.386 85.0673 267.092 89.9796 272.079C89.7468 275.849 89.5092 279.628 89.2668 283.416L89.2388 283.852L89.5398 284.169C93.1409 287.958 96.6726 291.913 100.135 296.033L101.776 297.985L101.899 295.438C102.931 274.163 103.81 253.253 104.534 232.71L104.55 232.271L104.238 231.963C100.739 228.508 97.1825 225.185 93.5696 221.994L92.9246 221.424L92.2651 221.977C80.2863 232.021 68.176 242.377 55.934 253.048L54.9923 253.868L55.9992 254.607C59.8862 257.461 63.7195 260.451 67.4992 263.579ZM83.507 250.001C86.2891 247.462 89.0643 244.939 91.8326 242.432C91.5508 247.248 91.2608 252.081 90.9628 256.932C88.5064 254.555 86.0211 252.245 83.507 250.001Z" stroke="#A5D936" stroke-width="2"/>
<path d="M1.00358 242.435L2.27089 241.414L0.787313 240.745C-3.3242 238.89 -7.4728 237.121 -11.6585 235.438L-12.2259 235.21L-12.6875 235.611C-18.863 240.979 -25.0596 246.397 -31.2775 251.867C-31.7874 243.985 -32.3153 236.149 -32.8611 228.359L-32.9081 227.689L-33.5469 227.479C-38.1966 225.954 -42.8808 224.508 -47.5995 223.143L-49.0635 222.719L-48.8694 224.231C-47.2762 236.637 -45.743 249.181 -44.27 261.863C-45.1837 262.442 -46.194 262.855 -47.2545 263.082C-48.3442 263.274 -49.4645 263.189 -50.5133 262.837C-51.9749 262.316 -53.3593 261.599 -54.6286 260.707L-55.3806 260.178L-55.9707 260.883C-58.3272 263.698 -60.6857 266.518 -63.0463 269.342L-63.6889 270.111L-62.9185 270.752C-60.5702 272.706 -57.8842 274.214 -54.9934 275.202L-54.9862 275.204L-54.9791 275.206C-51.2881 276.405 -47.3338 276.539 -43.5705 275.591C-39.6668 274.654 -35.8882 272.634 -32.2345 269.578C-21.0752 260.345 -9.99582 251.297 1.00358 242.435Z" stroke="#A5D936" stroke-width="2"/>
<path d="M0.12619 295.88L6.8993 279.606C8.27513 280.345 9.64372 281.099 11.0051 281.87C11.8361 289.299 12.635 296.801 13.402 304.378L13.4516 304.868L13.8697 305.127C18.3223 307.89 22.7127 310.806 27.0406 313.877L28.8279 315.145L28.6145 312.964C27.5745 302.332 26.4722 291.845 25.3076 281.505C32.5331 277.088 39.6995 272.809 46.8068 268.668L48.1497 267.886L46.8812 266.988C42.8134 264.108 38.6892 261.36 34.5088 258.743L33.9689 258.405L33.4343 258.751C27.811 262.395 22.1656 266.121 16.4981 269.929C14.9931 269.081 13.4828 268.247 11.9672 267.428L18.9229 250.715L19.2717 249.877L18.4712 249.449C14.3902 247.267 10.268 245.188 6.10447 243.21L5.15578 242.76L4.75224 243.73L-14.0445 288.894L-14.4104 289.773L-13.5503 290.182C-9.41316 292.146 -5.31925 294.212 -1.26858 296.378L-0.297101 296.897L0.12619 295.88Z" stroke="#A5D936" stroke-width="2"/>
<path d="M41.8468 325.216L42.5194 325.773L43.1616 325.182C45.1906 323.313 47.2163 321.453 49.2388 319.6C54.3854 324.024 59.4149 328.729 64.3272 333.716C64.0944 337.487 63.8568 341.266 63.6144 345.054L63.5864 345.49L63.8874 345.806C67.4885 349.596 71.0202 353.55 74.4825 357.67L76.1234 359.623L76.2469 357.076C77.279 335.8 78.1574 314.891 78.8819 294.348L78.8974 293.909L78.5852 293.601C75.0862 290.146 71.5301 286.823 67.9172 283.632L67.2721 283.062L66.6127 283.615C54.6339 293.658 42.5236 304.015 30.2816 314.685L29.3399 315.506L30.3468 316.245C34.2338 319.099 38.0671 322.089 41.8468 325.216ZM57.8546 311.639C60.6367 309.1 63.4119 306.576 66.1802 304.07C65.8984 308.886 65.6084 313.719 65.3104 318.569C62.8539 316.193 60.3687 313.883 57.8546 311.639Z" stroke="#A5D936" stroke-width="2"/>
<path d="M-25.5265 357.518L-18.7534 341.243C-17.3775 341.982 -16.0089 342.737 -14.6476 343.507C-13.8166 350.936 -13.0176 358.439 -12.2506 366.016L-12.201 366.505L-11.7829 366.765C-7.33031 369.527 -2.93999 372.444 1.38795 375.515L3.17521 376.783L2.96187 374.602C1.92184 363.969 0.819516 353.483 -0.345061 343.142C6.8804 338.725 14.0468 334.447 21.1542 330.306L22.4971 329.523L21.2286 328.626C17.1607 325.746 13.0366 322.998 8.85611 320.38L8.3162 320.042L7.78164 320.389C2.15832 324.033 -3.48709 327.759 -9.15456 331.567C-10.6596 330.719 -12.1699 329.885 -13.6854 329.066L-6.72972 312.353L-6.38092 311.515L-7.18147 311.087C-11.2624 308.905 -15.3847 306.825 -19.5482 304.848L-20.4969 304.398L-20.9004 305.367L-39.6972 350.532L-40.063 351.411L-39.2029 351.819C-35.0658 353.784 -30.9719 355.849 -26.9212 358.015L-25.9498 358.535L-25.5265 357.518Z" stroke="#A5D936" stroke-width="2"/>
<path d="M16.1941 386.854L16.8667 387.411L17.509 386.819C19.5379 384.951 21.5636 383.091 23.5861 381.238C28.7327 385.662 33.7622 390.367 38.6746 395.354C38.4417 399.125 38.2041 402.904 37.9617 406.691L37.9338 407.127L38.2348 407.444C41.8359 411.233 45.3676 415.188 48.8299 419.308L50.4707 421.261L50.5943 418.713C51.6263 397.438 52.5047 376.529 53.2293 355.985L53.2447 355.547L52.9325 355.239C49.4335 351.783 45.8775 348.46 42.2645 345.269L41.6195 344.7L40.96 345.253C28.9813 355.296 16.8709 365.653 4.62891 376.323L3.68727 377.144L4.69418 377.883C8.58115 380.736 12.4144 383.727 16.1941 386.854ZM32.2019 373.277C34.984 370.737 37.7592 368.214 40.5275 365.708C40.2457 370.523 39.9558 375.356 39.6578 380.207C37.2013 377.83 34.716 375.52 32.2019 373.277Z" stroke="#A5D936" stroke-width="2"/>
<path d="M179.52 295.29L179.809 294.595L179.222 294.125C175.493 291.139 171.814 288.018 168.185 284.76L167.136 283.819L166.594 285.12L160.075 300.785C155.661 296.764 151.335 292.525 147.097 288.067L153.915 271.684L154.165 271.084L153.718 270.612C150.263 266.962 146.871 263.155 143.542 259.191L142.485 257.932L141.853 259.45L123.057 304.614L122.822 305.178L123.216 305.644C126.573 309.618 129.99 313.454 133.467 317.15L134.525 318.274L135.119 316.849L141.86 300.651C146.105 305.081 150.439 309.302 154.861 313.313L147.802 330.274L147.53 330.928L148.056 331.402C151.705 334.687 155.412 337.836 159.175 340.851L160.212 341.682L160.723 340.454L179.52 295.29Z" stroke="#A5D936" stroke-width="2"/>
<path d="M175.972 353.219L176.641 353.671L177.224 353.112C179.325 351.096 181.438 349.075 183.564 347.05C189.073 350.618 194.675 353.969 200.369 357.103C200.28 360.441 200.202 363.776 200.135 367.105L200.122 367.721L200.667 368.01C204.942 370.272 209.262 372.423 213.628 374.462L215.076 375.138L215.051 373.54C214.766 355.437 214.588 337.074 214.516 318.451L214.514 317.87L214.008 317.584C210.04 315.344 206.114 312.997 202.231 310.544L201.592 310.14L201.029 310.645C188.595 321.797 176.286 332.645 164.103 343.188L163.171 343.994L164.152 344.74C168.036 347.695 171.977 350.522 175.972 353.219ZM192.444 338.417C195.355 335.598 198.273 332.764 201.196 329.916C201.055 334.435 200.92 338.939 200.789 343.429C197.986 341.812 195.204 340.141 192.444 338.417Z" stroke="#A5D936" stroke-width="2"/>
<path d="M282.987 347.668L284.387 346.47L282.619 345.949C278.294 344.674 274 343.327 269.738 341.908L269.189 341.725L268.757 342.11C262.498 347.678 256.262 353.195 250.047 358.663C249.551 350.752 249.076 342.791 248.624 334.78L248.588 334.148L248.002 333.909C243.507 332.083 239.053 330.154 234.64 328.122L233.066 327.398L233.226 329.123C234.459 342.411 235.758 355.533 237.122 368.49C236.239 369.029 235.26 369.398 234.237 369.576C233.173 369.711 232.092 369.557 231.108 369.131C229.681 368.487 228.357 367.639 227.175 366.612L226.415 365.951L225.759 366.717C223.446 369.421 221.137 372.121 218.83 374.816L218.229 375.519L218.882 376.173C221.305 378.599 223.834 380.379 226.475 381.478L226.477 381.479C230.049 382.955 233.997 383.263 237.755 382.358C241.648 381.463 245.432 379.435 249.109 376.329C260.327 366.944 271.62 357.391 282.987 347.668Z" stroke="#A5D936" stroke-width="2"/>
<path d="M295.485 368.965L302.341 352.49L302.788 351.417L301.66 351.136C297.166 350.014 292.699 348.829 288.26 347.58L287.407 347.34L287.066 348.158L268.268 393.326L267.834 394.368L268.921 394.673C273.379 395.925 277.865 397.116 282.377 398.244L283.212 398.453L283.543 397.658L290.41 381.159C291.983 381.551 293.559 381.936 295.137 382.312C296.345 388.731 297.572 395.118 298.819 401.474L298.946 402.12L299.589 402.259C304.755 403.38 309.946 404.445 315.161 405.454L316.653 405.743L316.328 404.258C314.451 395.689 312.598 387.059 310.768 378.369C318.698 372.321 326.648 366.223 334.618 360.074L336.372 358.721L334.197 358.301C329.345 357.364 324.517 356.375 319.711 355.335L319.249 355.235L318.878 355.528C312.699 360.426 306.54 365.304 300.402 370.16C298.759 369.768 297.12 369.37 295.485 368.965Z" stroke="#A5D936" stroke-width="2"/>
<path d="M333.381 408.796L333.916 408.888L334.285 408.489C336.665 405.912 339.055 403.34 341.455 400.771C347.997 401.86 354.554 402.904 361.127 403.905C361.21 406.746 361.292 409.585 361.374 412.423L361.398 413.26L362.226 413.384C367.122 414.116 372.022 414.834 376.927 415.538L378.153 415.715L378.067 414.479C376.949 398.376 375.846 382.231 374.759 366.046L374.705 365.246L373.913 365.124C369.292 364.416 364.681 363.684 360.078 362.927L359.565 362.843L359.201 363.214C345.636 377.078 332.106 390.856 318.609 404.548L317.291 405.886L319.137 406.233C323.87 407.123 328.618 407.978 333.381 408.796ZM360.577 380.024C360.674 383.95 360.77 387.875 360.866 391.8C357.611 391.297 354.361 390.786 351.115 390.265C354.266 386.854 357.42 383.44 360.577 380.024Z" stroke="#A5D936" stroke-width="2"/>
<path d="M474.915 381.569L475.395 380.415L474.164 380.199C469.502 379.383 464.83 378.595 460.147 377.835L459.367 377.709L459.064 378.438L452.305 394.678C446.594 393.762 440.874 392.873 435.144 392.011L441.714 376.226L442.207 375.041L440.937 374.852C436.232 374.155 431.522 373.465 426.807 372.783L426.039 372.672L425.741 373.389L406.944 418.554L406.449 419.744L407.725 419.928C412.435 420.606 417.143 421.295 421.847 421.995L422.618 422.11L422.917 421.39L429.948 404.496C435.684 405.347 441.405 406.235 447.111 407.158L440.267 423.603L439.78 424.772L441.031 424.974C445.705 425.73 450.369 426.517 455.022 427.334L455.81 427.472L456.118 426.733L474.915 381.569Z" stroke="#A5D936" stroke-width="2"/>
<path d="M475.268 431.148L475.817 431.26L476.199 430.85C478.557 428.317 480.924 425.791 483.299 423.272C489.724 424.607 496.107 426.049 502.446 427.596L502.557 436.535L502.567 437.304L503.313 437.492C508.005 438.677 512.669 439.931 517.305 441.257L518.638 441.638L518.579 440.253C517.852 423.205 517.062 406.305 516.209 389.553L516.171 388.805L515.442 388.631C510.96 387.562 506.455 386.544 501.927 385.578L501.393 385.464L501.008 385.851C487.578 399.383 474.107 413.015 460.596 426.747L459.27 428.094L461.13 428.432C465.861 429.29 470.574 430.196 475.268 431.148ZM492.847 413.008C495.968 409.676 499.085 406.348 502.2 403.025C502.254 407.062 502.305 411.106 502.353 415.156C499.195 414.416 496.027 413.7 492.847 413.008Z" stroke="#A5D936" stroke-width="2"/>
<path d="M586.717 413.885L587.984 412.864L586.501 412.195C582.389 410.34 578.24 408.572 574.055 406.889L573.487 406.66L573.026 407.062C566.85 412.429 560.654 417.848 554.436 423.317C553.926 415.435 553.398 407.599 552.852 399.81L552.805 399.139L552.166 398.929C547.517 397.404 542.832 395.959 538.114 394.593L536.65 394.169L536.844 395.681C538.437 408.087 539.97 420.631 541.443 433.313C540.53 433.892 539.519 434.305 538.459 434.533C537.369 434.724 536.249 434.64 535.2 434.287C533.738 433.766 532.354 433.05 531.085 432.157L530.333 431.628L529.743 432.333C527.386 435.148 525.028 437.968 522.667 440.793L522.024 441.562L522.795 442.203C525.143 444.156 527.829 445.664 530.72 446.652L530.727 446.654L530.734 446.657C534.425 447.856 538.379 447.989 542.143 447.041C546.047 446.104 549.825 444.084 553.479 441.028C564.638 431.795 575.717 422.748 586.717 413.885Z" stroke="#A5D936" stroke-width="2"/>
<path d="M585.839 467.33L592.613 451.056C593.988 451.795 595.357 452.55 596.718 453.32C597.549 460.749 598.348 468.252 599.115 475.828L599.165 476.318L599.583 476.577C604.036 479.34 608.426 482.257 612.754 485.327L614.541 486.596L614.328 484.415C613.288 473.782 612.185 463.295 611.021 452.955C618.246 448.538 625.413 444.259 632.52 440.118L633.863 439.336L632.594 438.438C628.527 435.559 624.402 432.81 620.222 430.193L619.682 429.855L619.148 430.201C613.524 433.846 607.879 437.571 602.211 441.379C600.706 440.531 599.196 439.698 597.68 438.879L604.636 422.166L604.985 421.328L604.184 420.899C600.103 418.718 595.981 416.638 591.818 414.661L590.869 414.21L590.465 415.18L571.669 460.344L571.303 461.223L572.163 461.632C576.3 463.597 580.394 465.662 584.445 467.828L585.416 468.347L585.839 467.33Z" stroke="#A5D936" stroke-width="2"/>
<path d="M627.56 496.667L628.233 497.223L628.875 496.632C630.904 494.763 632.93 492.903 634.952 491.05C640.099 495.474 645.128 500.18 650.04 505.167C649.808 508.937 649.57 512.716 649.328 516.504L649.3 516.94L649.601 517.257C653.202 521.046 656.733 525 660.196 529.121L661.837 531.073L661.96 528.526C662.992 507.251 663.871 486.341 664.595 465.798L664.611 465.359L664.298 465.051C660.799 461.596 657.243 458.273 653.63 455.082L652.985 454.512L652.326 455.065C640.347 465.108 628.237 475.465 615.995 486.135L615.053 486.956L616.06 487.695C619.947 490.549 623.78 493.539 627.56 496.667ZM643.568 483.089C646.35 480.55 649.125 478.027 651.893 475.52C651.612 480.336 651.322 485.169 651.024 490.02C648.567 487.643 646.082 485.333 643.568 483.089Z" stroke="#A5D936" stroke-width="2"/>
<path d="M153.867 356.927L154.156 356.233L153.569 355.763C149.84 352.777 146.161 349.655 142.533 346.398L141.483 345.456L140.942 346.758L134.422 362.422C130.009 358.402 125.683 354.163 121.445 349.704L128.263 333.322L128.513 332.722L128.066 332.25C124.611 328.6 121.219 324.793 117.89 320.829L116.833 319.57L116.201 321.087L97.4041 366.252L97.1697 366.815L97.5634 367.282C100.92 371.256 104.338 375.091 107.815 378.787L108.873 379.912L109.466 378.486L116.207 362.289C120.453 366.719 124.786 370.94 129.208 374.951L122.149 391.912L121.877 392.566L122.404 393.04C126.053 396.324 129.759 399.474 133.522 402.488L134.56 403.32L135.071 402.092L153.867 356.927Z" stroke="#A5D936" stroke-width="2"/>
<path d="M150.32 414.857L150.989 415.309L151.572 414.75C153.672 412.733 155.786 410.713 157.911 408.688C163.421 412.256 169.023 415.607 174.716 418.741C174.628 422.079 174.55 425.413 174.482 428.743L174.47 429.359L175.014 429.647C179.289 431.91 183.61 434.061 187.975 436.1L189.423 436.776L189.398 435.178C189.114 417.075 188.935 398.712 188.864 380.089L188.862 379.508L188.355 379.222C184.387 376.982 180.461 374.635 176.578 372.181L175.939 371.777L175.377 372.282C162.942 383.435 150.633 394.283 138.45 404.825L137.519 405.632L138.499 406.378C142.384 409.333 146.324 412.159 150.32 414.857ZM166.791 400.055C169.703 397.236 172.62 394.402 175.544 391.554C175.403 396.072 175.267 400.577 175.137 405.067C172.333 403.45 169.552 401.779 166.791 400.055Z" stroke="#A5D936" stroke-width="2"/>
<path d="M257.334 409.306L258.735 408.108L256.967 407.587C252.642 406.312 248.348 404.965 244.085 403.546L243.537 403.363L243.105 403.747C236.846 409.316 230.609 414.833 224.395 420.3C223.898 412.389 223.424 404.429 222.971 396.417L222.936 395.785L222.349 395.547C217.854 393.721 213.4 391.792 208.988 389.76L207.414 389.035L207.574 390.761C208.806 404.048 210.105 417.171 211.47 430.128C210.586 430.667 209.608 431.036 208.585 431.214C207.52 431.349 206.439 431.195 205.455 430.768C204.029 430.125 202.704 429.276 201.523 428.25L200.762 427.589L200.107 428.355C197.794 431.059 195.484 433.758 193.177 436.454L192.576 437.156L193.23 437.811C195.652 440.236 198.182 442.017 200.822 443.115L200.824 443.116C204.397 444.593 208.345 444.901 212.103 443.996C215.995 443.1 219.78 441.072 223.457 437.966C234.675 428.582 245.967 419.028 257.334 409.306Z" stroke="#A5D936" stroke-width="2"/>
<path d="M269.832 430.603L276.689 414.128L277.135 413.055L276.008 412.773C271.513 411.652 267.046 410.467 262.608 409.218L261.754 408.977L261.414 409.796L242.615 454.964L242.182 456.006L243.268 456.311C247.727 457.563 252.212 458.753 256.725 459.882L257.56 460.091L257.891 459.296L264.757 442.797C266.331 443.189 267.906 443.574 269.485 443.95C270.693 450.369 271.92 456.756 273.167 463.112L273.294 463.757L273.936 463.897C279.102 465.017 284.293 466.082 289.509 467.092L291.001 467.38L290.676 465.896C288.798 457.327 286.945 448.697 285.116 440.006C293.046 433.959 300.996 427.861 308.965 421.712L310.72 420.358L308.544 419.938C303.693 419.002 298.864 418.013 294.059 416.972L293.597 416.872L293.226 417.166C287.046 422.064 280.887 426.941 274.749 431.798C273.107 431.406 271.468 431.007 269.832 430.603Z" stroke="#A5D936" stroke-width="2"/>
<path d="M307.728 470.434L308.263 470.526L308.632 470.127C311.013 467.55 313.403 464.978 315.803 462.409C322.344 463.497 328.901 464.542 335.474 465.543C335.557 468.384 335.64 471.223 335.721 474.061L335.745 474.898L336.573 475.021C341.469 475.753 346.37 476.472 351.275 477.176L352.5 477.352L352.414 476.117C351.296 460.014 350.193 443.869 349.106 427.684L349.053 426.884L348.26 426.762C343.64 426.054 339.028 425.321 334.426 424.565L333.912 424.48L333.549 424.852C319.984 438.715 306.453 452.493 292.957 466.186L291.638 467.523L293.484 467.871C298.217 468.761 302.965 469.615 307.728 470.434ZM334.925 441.661C335.021 445.588 335.117 449.513 335.213 453.438C331.958 452.935 328.708 452.423 325.462 451.903C328.614 448.492 331.768 445.078 334.925 441.661Z" stroke="#A5D936" stroke-width="2"/>
<path d="M449.262 443.206L449.742 442.052L448.511 441.837C443.849 441.021 439.177 440.233 434.495 439.473L433.715 439.346L433.411 440.076L426.652 456.316C420.941 455.4 415.221 454.51 409.492 453.649L416.061 437.863L416.555 436.678L415.285 436.49C410.579 435.793 405.869 435.103 401.155 434.421L400.386 434.31L400.088 435.027L381.291 480.191L380.796 481.382L382.072 481.565C386.783 482.243 391.49 482.932 396.194 483.633L396.965 483.748L397.265 483.028L404.296 466.134C410.032 466.985 415.753 467.872 421.458 468.796L414.614 485.24L414.128 486.41L415.378 486.612C420.053 487.368 424.717 488.155 429.369 488.972L430.158 489.11L430.465 488.371L449.262 443.206Z" stroke="#A5D936" stroke-width="2"/>
<path d="M449.615 492.786L450.164 492.897L450.546 492.487C452.905 489.954 455.271 487.428 457.647 484.91C464.072 486.245 470.454 487.686 476.794 489.233L476.905 498.173L476.914 498.942L477.66 499.13C482.352 500.314 487.016 501.569 491.652 502.895L492.985 503.276L492.926 501.891C492.199 484.843 491.409 467.943 490.556 451.19L490.518 450.442L489.79 450.269C485.307 449.2 480.802 448.182 476.275 447.215L475.741 447.101L475.356 447.489C461.925 461.021 448.454 474.653 434.943 488.384L433.617 489.732L435.478 490.07C440.208 490.928 444.921 491.834 449.615 492.786ZM467.195 474.646C470.315 471.314 473.432 467.986 476.547 464.663C476.601 468.7 476.652 472.744 476.7 476.794C473.543 476.054 470.374 475.338 467.195 474.646Z" stroke="#A5D936" stroke-width="2"/>
<path d="M561.064 475.523L562.332 474.502L560.848 473.833C556.736 471.978 552.588 470.209 548.402 468.526L547.835 468.298L547.373 468.699C541.198 474.067 535.001 479.485 528.783 484.955C528.273 477.073 527.745 469.237 527.2 461.447L527.153 460.777L526.514 460.567C521.864 459.042 517.18 457.596 512.461 456.231L510.997 455.807L511.191 457.319C512.785 469.725 514.318 482.269 515.791 494.951C514.877 495.53 513.867 495.943 512.806 496.17C511.717 496.362 510.596 496.277 509.547 495.925C508.086 495.404 506.701 494.687 505.432 493.795L504.68 493.266L504.09 493.971C501.733 496.786 499.375 499.606 497.014 502.43L496.372 503.199L497.142 503.84C499.49 505.794 502.176 507.302 505.067 508.29L505.074 508.292L505.082 508.294C508.773 509.493 512.727 509.627 516.49 508.679C520.394 507.742 524.173 505.722 527.826 502.666C538.986 493.433 550.065 484.385 561.064 475.523Z" stroke="#A5D936" stroke-width="2"/>
<path d="M560.187 528.968L566.96 512.694C568.336 513.433 569.704 514.187 571.066 514.957C571.897 522.386 572.696 529.889 573.463 537.466L573.512 537.955L573.93 538.215C578.383 540.978 582.773 543.894 587.101 546.965L588.889 548.233L588.675 546.052C587.635 535.42 586.533 524.933 585.368 514.593C592.594 510.176 599.76 505.897 606.868 501.756L608.21 500.974L606.942 500.076C602.874 497.196 598.75 494.448 594.569 491.831L594.03 491.493L593.495 491.839C587.872 495.483 582.226 499.209 576.559 503.017C575.054 502.169 573.543 501.335 572.028 500.516L578.984 483.803L579.332 482.965L578.532 482.537C574.451 480.355 570.329 478.276 566.165 476.298L565.216 475.848L564.813 476.817L546.016 521.982L545.65 522.861L546.51 523.27C550.648 525.234 554.741 527.3 558.792 529.465L559.764 529.985L560.187 528.968Z" stroke="#A5D936" stroke-width="2"/>
<path d="M601.907 558.304L602.58 558.861L603.222 558.269C605.251 556.401 607.277 554.541 609.299 552.688C614.446 557.112 619.476 561.817 624.388 566.804C624.155 570.575 623.917 574.354 623.675 578.141L623.647 578.577L623.948 578.894C627.549 582.683 631.081 586.638 634.543 590.758L636.184 592.711L636.308 590.163C637.34 568.888 638.218 547.979 638.943 527.436L638.958 526.997L638.646 526.689C635.147 523.234 631.591 519.91 627.978 516.719L627.333 516.15L626.673 516.703C614.695 526.746 602.584 537.103 590.342 547.773L589.401 548.594L590.408 549.333C594.295 552.187 598.128 555.177 601.907 558.304ZM617.915 544.727C620.697 542.187 623.473 539.664 626.241 537.158C625.959 541.973 625.669 546.807 625.371 551.657C622.915 549.281 620.429 546.971 617.915 544.727Z" stroke="#A5D936" stroke-width="2"/>
<path d="M128.215 418.565L128.504 417.871L127.916 417.4C124.187 414.414 120.509 411.293 116.88 408.036L115.831 407.094L115.289 408.396L108.77 424.06C104.356 420.04 100.03 415.8 95.7921 411.342L102.61 394.959L102.86 394.36L102.413 393.888C98.9582 390.238 95.5662 386.43 92.2373 382.466L91.18 381.207L90.5483 382.725L71.7515 427.89L71.517 428.453L71.9108 428.919C75.2679 432.894 78.6849 436.729 82.1619 440.425L83.2201 441.55L83.8135 440.124L90.5545 423.927C94.8001 428.357 99.1338 432.577 103.556 436.589L96.4966 453.55L96.2245 454.203L96.7509 454.677C100.4 457.962 104.106 461.112 107.869 464.126L108.907 464.957L109.418 463.73L128.215 418.565Z" stroke="#A5D936" stroke-width="2"/>
<path d="M124.667 476.495L125.336 476.947L125.919 476.387C128.02 474.371 130.133 472.35 132.259 470.325C137.768 473.894 143.37 477.245 149.064 480.378C148.975 483.717 148.897 487.051 148.829 490.381L148.817 490.997L149.361 491.285C153.637 493.548 157.957 495.698 162.322 497.737L163.771 498.414L163.746 496.816C163.461 478.712 163.283 460.349 163.211 441.727L163.209 441.146L162.703 440.86C158.734 438.619 154.809 436.272 150.926 433.819L150.287 433.415L149.724 433.92C137.289 445.073 124.98 455.92 112.797 466.463L111.866 467.269L112.846 468.015C116.731 470.97 120.671 473.797 124.667 476.495ZM141.138 461.692C144.05 458.873 146.967 456.04 149.891 453.191C149.75 457.71 149.615 462.214 149.484 466.704C146.681 465.088 143.899 463.417 141.138 461.692Z" stroke="#A5D936" stroke-width="2"/>
<path d="M231.681 470.943L233.082 469.745L231.314 469.224C226.989 467.949 222.695 466.603 218.433 465.183L217.884 465.001L217.452 465.385C211.193 470.953 204.956 476.471 198.742 481.938C198.245 474.027 197.771 466.066 197.319 458.055L197.283 457.423L196.697 457.185C192.201 455.359 187.748 453.43 183.335 451.398L181.761 450.673L181.921 452.399C183.154 465.686 184.452 478.808 185.817 491.765C184.934 492.305 183.955 492.674 182.932 492.852C181.868 492.986 180.787 492.833 179.802 492.406C178.376 491.763 177.051 490.914 175.87 489.888L175.109 489.227L174.454 489.992C172.141 492.696 169.831 495.396 167.525 498.092L166.924 498.794L167.577 499.448C170 501.874 172.529 503.654 175.169 504.753L175.172 504.754C178.744 506.231 182.692 506.539 186.45 505.634C190.342 504.738 194.127 502.71 197.804 499.604C209.022 490.22 220.314 480.666 231.681 470.943Z" stroke="#A5D936" stroke-width="2"/>
<path d="M244.18 492.24L251.036 475.766L251.483 474.693L250.355 474.411C245.86 473.29 241.394 472.104 236.955 470.855L236.102 470.615L235.761 471.434L216.963 516.602L216.529 517.644L217.616 517.949C222.074 519.201 226.56 520.391 231.072 521.52L231.907 521.729L232.238 520.934L239.105 504.434C240.678 504.827 242.254 505.211 243.832 505.588C245.04 512.006 246.267 518.394 247.514 524.75L247.641 525.395L248.284 525.534C253.45 526.655 258.641 527.72 263.856 528.729L265.348 529.018L265.023 527.533C263.146 518.965 261.292 510.335 259.463 501.644C267.393 495.597 275.343 489.499 283.313 483.35L285.067 481.996L282.891 481.576C278.04 480.639 273.211 479.651 268.406 478.61L267.944 478.51L267.573 478.804C261.394 483.702 255.235 488.579 249.096 493.435C247.454 493.044 245.815 492.645 244.18 492.24Z" stroke="#A5D936" stroke-width="2"/>
<path d="M282.075 532.071L282.611 532.163L282.979 531.765C285.36 529.188 287.75 526.615 290.15 524.047C296.692 525.135 303.249 526.18 309.821 527.181C309.904 530.021 309.987 532.861 310.069 535.699L310.093 536.535L310.92 536.659C315.817 537.391 320.717 538.109 325.622 538.814L326.848 538.99L326.762 537.755C325.643 521.651 324.541 505.507 323.454 489.321L323.4 488.521L322.607 488.4C317.987 487.692 313.376 486.959 308.773 486.202L308.26 486.118L307.896 486.49C294.331 500.353 280.801 514.131 267.304 527.824L265.986 529.161L267.831 529.508C272.565 530.399 277.313 531.253 282.075 532.071ZM309.272 503.299C309.369 507.225 309.465 511.151 309.56 515.075C306.306 514.573 303.055 514.061 299.81 513.541C302.961 510.13 306.115 506.716 309.272 503.299Z" stroke="#A5D936" stroke-width="2"/>
<path d="M423.609 504.844L424.09 503.69L422.859 503.475C418.197 502.659 413.524 501.871 408.842 501.111L408.062 500.984L407.759 501.713L401 517.954C395.289 517.037 389.568 516.148 383.839 515.287L390.409 499.501L390.902 498.316L389.632 498.128C384.927 497.43 380.217 496.741 375.502 496.059L374.734 495.948L374.436 496.664L355.639 541.829L355.143 543.019L356.42 543.203C361.13 543.881 365.837 544.57 370.541 545.271L371.312 545.385L371.612 544.666L378.643 527.772C384.379 528.623 390.1 529.51 395.806 530.433L388.962 546.878L388.475 548.047L389.725 548.25C394.4 549.006 399.064 549.792 403.717 550.609L404.505 550.748L404.813 550.009L423.609 504.844Z" stroke="#A5D936" stroke-width="2"/>
<path d="M423.963 554.424L424.512 554.535L424.893 554.125C427.252 551.592 429.619 549.066 431.994 546.548C438.419 547.883 444.802 549.324 451.141 550.871L451.252 559.811L451.262 560.58L452.007 560.768C456.7 561.952 461.364 563.207 466 564.532L467.333 564.914L467.274 563.528C466.546 546.481 465.757 529.581 464.904 512.828L464.866 512.08L464.137 511.906C459.655 510.838 455.149 509.82 450.622 508.853L450.088 508.739L449.703 509.127C436.272 522.659 422.802 536.291 409.291 550.022L407.965 551.37L409.825 551.707C414.556 552.566 419.268 553.471 423.963 554.424ZM441.542 536.284C444.662 532.951 447.78 529.624 450.895 526.301C450.948 530.338 451 534.381 451.048 538.432C447.89 537.692 444.721 536.976 441.542 536.284Z" stroke="#A5D936" stroke-width="2"/>
<path d="M535.412 537.16L536.679 536.139L535.195 535.47C531.084 533.616 526.935 531.847 522.75 530.164L522.182 529.936L521.72 530.337C515.545 535.705 509.348 541.123 503.131 546.592C502.621 538.711 502.093 530.875 501.547 523.085L501.5 522.414L500.861 522.205C496.211 520.679 491.527 519.234 486.809 517.868L485.345 517.445L485.539 518.956C487.132 531.362 488.665 543.907 490.138 556.589C489.224 557.168 488.214 557.581 487.154 557.808C486.064 557.999 484.944 557.915 483.895 557.562C482.433 557.042 481.049 556.325 479.779 555.432L479.027 554.904L478.437 555.608C476.081 558.424 473.722 561.243 471.362 564.068L470.719 564.837L471.489 565.478C473.838 567.432 476.524 568.94 479.415 569.927L479.422 569.93L479.429 569.932C483.12 571.131 487.074 571.264 490.837 570.317C494.741 569.379 498.52 567.36 502.173 564.304C513.333 555.071 524.412 546.023 535.412 537.16Z" stroke="#A5D936" stroke-width="2"/>
<path d="M739.581 528.378L739.87 527.683L739.282 527.213C735.553 524.227 731.875 521.105 728.246 517.848L727.197 516.906L726.655 518.208L720.136 533.872C715.722 529.852 711.396 525.613 707.158 521.154L713.976 504.772L714.226 504.172L713.779 503.7C710.324 500.05 706.932 496.243 703.603 492.279L702.546 491.02L701.914 492.538L683.118 537.702L682.883 538.266L683.277 538.732C686.634 542.706 690.051 546.541 693.528 550.238L694.586 551.362L695.18 549.937L701.921 533.739C706.166 538.169 710.5 542.39 714.922 546.401L707.863 563.362L707.591 564.016L708.117 564.49C711.766 567.774 715.473 570.924 719.235 573.939L720.273 574.77L720.784 573.542L739.581 528.378Z" stroke="#A5D936" stroke-width="2"/>
</svg>
