<svg width="231" height="87" viewBox="0 0 231 87" fill="none" xmlns="http://www.w3.org/2000/svg">
<g opacity="0.1">
<path d="M11.7686 60.5118C11.5628 60.0598 11.5438 59.9048 11.3761 59.7628C11.2083 59.6209 11.1893 59.4658 11.0406 59.4789C10.8919 59.492 10.7432 59.5051 10.4457 59.5312L9.40469 59.6228L8.82977 67.1949L6.30149 67.4172L7.90984 49.8823C7.98254 49.2491 7.92554 48.784 8.03625 48.4609C7.99823 48.1508 8.10893 47.8277 8.07091 47.5176C8.0139 47.0526 7.82717 46.7556 7.65944 46.6136C7.34299 46.4848 6.87783 46.369 6.28294 46.4213L6.33662 45.6331L10.0357 45.1511L10.928 45.0726L9.71779 58.4984L10.164 58.4591C10.9076 58.3937 11.6132 58.0183 12.4295 57.3197C13.2458 56.6211 13.9134 55.9356 14.4322 55.2632C14.9511 54.5907 15.0428 54.1126 14.9668 53.4925C14.9097 53.0274 14.5743 52.7435 13.8307 52.8089L13.8844 52.0207L18.6434 51.6021L19.0359 52.3511C18.3874 53.1916 17.59 54.0453 16.7737 54.7439L13.5656 58.0033L15.718 63.2984C15.9237 63.7504 15.9617 64.0605 16.1295 64.2024C16.2972 64.3444 16.3162 64.4994 16.4839 64.6413C16.6516 64.7833 16.8004 64.7702 16.9491 64.7571C17.2465 64.7309 17.525 64.5498 17.7844 64.2135C18.0438 63.8773 18.452 63.528 18.8221 62.8687L19.8095 63.5653C19.0312 64.574 18.3636 65.2595 17.8257 65.7769C17.2689 66.1393 16.712 66.5016 16.2658 66.5409C15.671 66.5932 15.0571 66.4905 14.5539 66.0646C14.0507 65.6388 13.6772 65.0449 13.4145 64.1278L11.7686 60.5118Z" fill="white"/>
<path d="M31.8607 53.4696L31.6094 51.4022L49.7909 49.7951L50.0422 51.8624L31.8607 53.4696ZM32.634 59.8306L32.3827 57.7632L50.5642 56.1561L50.8155 58.2234L32.634 59.8306Z" fill="white"/>
<path d="M77.755 47.3483L72.951 47.7702L72.9702 47.9263C73.6475 48.4982 74.0437 49.2525 74.4207 49.8507C74.7978 50.449 74.8938 51.2297 75.009 52.1666C75.2009 53.728 75.0735 55.1597 74.6265 56.4616C74.1796 57.7635 73.4132 58.9356 72.4391 59.6525C71.4843 60.5255 70.1715 60.9564 68.8204 61.0751C67.1691 61.2201 65.9105 60.8571 64.8945 59.9993C63.8786 59.1415 63.4248 57.9187 63.2328 56.3572C63.0985 55.2642 63.1142 54.158 63.2801 53.0387C63.4651 52.0754 63.8003 51.099 64.4358 50.0962C64.9403 49.2627 65.5949 48.4161 66.2879 47.8818C66.981 47.3474 67.9743 46.7867 68.9867 46.3821C69.9992 45.9775 71.4813 45.6896 73.2828 45.5314L77.9366 45.1228L77.755 47.3483ZM72.3417 51.4538C72.1689 50.0485 71.7343 48.9818 71.1687 48.0845C69.8176 48.2032 68.6742 48.777 67.8694 49.6369C66.9146 50.5099 66.2791 51.5127 65.8322 52.8146C65.3853 54.1165 65.2578 55.5481 65.4498 57.1096C65.5457 57.8903 65.7727 58.5017 65.9804 58.957C66.3382 59.399 66.6768 59.685 66.9963 59.8148C67.3157 59.9445 67.7853 60.0611 68.2357 60.0216C69.2866 59.9293 69.9988 59.5511 70.6726 58.8606C71.3464 58.1701 71.8126 57.0244 72.0902 55.5795C72.5179 54.1215 72.4952 52.703 72.3417 51.4538Z" fill="white"/>
<path d="M84.7845 44.1713L91.2923 55.5149L95.2606 28.9827L98.9824 28.6555L99.2298 30.672L96.55 30.9076L92.2147 59.3535L90.7259 59.4844L83.1346 46.6682L80.8858 47.9634L80.306 46.9169L84.7845 44.1713Z" fill="white"/>
<path d="M110.392 49.6615C110.446 48.8661 110.632 47.9011 110.779 46.6233C110.945 45.5019 111.13 44.5369 111.204 43.898L111.184 43.7416L106.824 44.1245L106.077 52.8865C106.004 53.5254 105.95 54.3208 105.896 55.1161C105.841 55.9115 105.768 56.5504 105.656 56.8765L102.499 57.1538L102.553 56.3584C103.471 55.171 104.065 52.5889 104.487 48.599L104.85 44.1397L104.399 44.1794C103.648 44.2454 103.065 44.4546 102.634 44.6507C102.221 45.0032 101.677 45.5253 101.303 46.1906L100.305 45.4877C100.679 44.8223 101.072 44.3135 101.335 43.9742C101.597 43.6349 101.859 43.2957 102.291 43.0996C102.573 42.9168 102.985 42.5643 103.436 42.5247C103.868 42.3286 104.319 42.289 104.92 42.2362L116.949 41.1798L116.747 43.253L113.289 43.5567L112.577 51.3669C112.542 52.3187 112.488 53.1141 112.546 53.5833C112.604 54.0526 112.623 54.209 112.812 54.5087C112.981 54.6519 113.151 54.7952 113.452 54.7687C114.053 54.7159 114.597 54.1938 115.383 53.176L116.382 53.8789C115.726 54.7271 115.201 55.4056 114.507 55.9409C113.944 56.3066 113.381 56.6723 112.63 56.7383C112.028 56.7911 111.388 56.5311 111.03 56.0882C110.521 55.6586 110.294 55.0461 110.198 54.2639C110.121 53.6382 110.137 52.53 110.284 51.2521L110.392 49.6615ZM122.015 37.8887C122.108 37.4062 122.05 36.937 122.162 36.6109C122.124 36.298 122.085 35.9852 122.047 35.6723C122.008 35.3595 121.989 35.203 121.819 35.0598C121.65 34.9166 121.48 34.7733 121.33 34.7866C121.18 34.7998 120.709 34.683 120.258 34.7226L120.313 33.9272L124.052 33.4407L124.954 33.3614L123.422 50.5726C123.387 51.5244 123.333 52.3197 123.39 52.789C123.448 53.2583 123.467 53.4147 123.656 53.7144C123.826 53.8576 123.995 54.0008 124.296 53.9744C124.597 53.948 124.878 53.7652 125.16 53.5823C125.422 53.2431 125.815 52.7342 126.34 52.0556L127.338 52.7585C126.571 53.9328 125.896 54.6245 125.352 55.1466C124.789 55.5123 124.226 55.8779 123.474 55.944C122.873 55.9968 122.233 55.7368 121.875 55.2939C121.366 54.8642 121.139 54.2517 121.042 53.4696C120.966 52.8439 120.981 51.7357 121.128 50.4578L122.015 37.8887Z" fill="white"/>
<path d="M126.426 25.8261L97.7109 28.5517L97.9593 30.8367L126.675 28.1112L126.426 25.8261Z" fill="white"/>
<path d="M148.77 45.3162L148.082 47.1087L143.993 44.6335L145.036 49.4232L143.089 49.5941L142.945 44.7255L139.545 47.8583L138.436 46.2237L142.38 43.8303L137.938 42.1734L138.626 40.3809L142.715 42.8562L141.672 38.0665L143.619 37.8955L143.763 42.7641L147.163 39.6313L148.272 41.266L144.328 43.6593L148.77 45.3162ZM163.435 46.3904C163.4 47.3382 163.346 48.1303 163.423 48.7534C163.461 49.0649 163.5 49.3765 163.669 49.5191C163.837 49.6618 164.006 49.8044 164.156 49.7912C164.325 49.9339 164.774 49.8944 165.224 49.855L165.17 50.647L159.179 51.1731L159.233 50.381C159.532 50.3547 159.813 50.1726 160.093 49.9905C160.224 49.8216 160.354 49.6527 160.466 49.328C160.577 49.0033 160.708 48.8343 160.651 48.367C160.762 48.0423 160.816 47.2502 160.851 46.3024L161.961 34.3954C161.996 33.4476 162.03 32.4997 161.973 32.0324C161.915 31.5651 161.727 31.2667 161.539 30.9682C161.37 30.8256 160.902 30.7093 160.453 30.7488L160.507 29.9567L173.686 28.7994L173.213 33.5648L171.865 33.6832C171.769 32.9043 171.543 32.2943 171.485 31.827C171.278 31.3728 171.24 31.0612 171.071 30.9186C170.902 30.776 170.733 30.6334 170.414 30.5039C170.264 30.517 169.796 30.4007 169.496 30.427L165.003 30.8215L164.221 39.2357L166.917 38.9989C167.366 38.9595 167.666 38.9332 167.946 38.7511C168.226 38.569 168.507 38.3869 168.618 38.0622C168.88 37.7244 169.102 37.0749 169.325 36.4255L170.673 36.3072L170.111 42.8125L168.763 42.9308C168.629 41.8404 168.552 41.2173 168.383 41.0746C168.345 40.7631 168.176 40.6205 168.026 40.6336C167.857 40.491 167.408 40.5304 166.959 40.5699L164.113 40.8198L163.435 46.3904ZM184.166 40.1611C183.209 32.3721 183.453 25.7373 184.918 20.4125C186.383 15.0877 188.319 11.1385 190.878 8.55197L191.91 9.56352C189.801 12.1106 188.164 16.0335 187.129 21.1631C186.095 26.2927 186.112 32.5896 187.031 40.067C187.951 47.5444 189.465 53.7098 191.726 58.5501C193.986 63.3904 196.393 66.9581 199.226 69.0712L198.462 70.2406C195.329 68.1538 192.473 64.6255 189.744 59.6689C186.958 54.245 185.124 47.95 184.166 40.1611Z" fill="white"/>
<path d="M202.073 5.9155C202.162 5.44093 202.107 4.97928 202.215 4.65859C202.178 4.35082 202.141 4.04305 202.105 3.73528C202.068 3.4275 202.049 3.27362 201.886 3.13264C201.722 2.99167 201.559 2.85069 201.414 2.8636C201.269 2.87652 200.816 2.76137 200.381 2.80011L200.434 2.01776L204.04 1.54106L204.909 1.46358L203.421 18.3932C203.386 19.3295 203.334 20.1118 203.389 20.5734C203.444 21.0351 203.463 21.189 203.644 21.4839C203.808 21.6248 203.971 21.7658 204.261 21.74C204.551 21.7141 204.823 21.5344 205.094 21.3547C205.347 21.0211 205.727 20.5207 206.233 19.8535L207.195 20.5455C206.454 21.7002 205.803 22.3803 205.279 22.8936C204.736 23.253 204.192 23.6124 203.468 23.677C202.888 23.7287 202.271 23.4725 201.926 23.0367C201.435 22.6138 201.217 22.0111 201.125 21.2417C201.051 20.6262 201.067 19.5361 201.209 18.2791L202.073 5.9155Z" fill="white"/>
<path d="M207.744 67.2176C206.408 67.3352 205.331 67.1168 204.216 66.5888L202.994 67.6356L202.066 67.4042L203.671 49.8867C203.687 48.7895 203.76 48.1569 203.703 47.6923C203.646 47.2277 203.459 46.931 203.292 46.7892C202.976 46.6604 202.512 46.5448 201.918 46.597L201.972 45.8096L205.664 45.3281L206.554 45.2497L205.32 56.0032L205.469 55.9902C206.208 54.6728 206.966 53.5103 207.799 52.9673C208.614 52.2694 209.318 51.8944 210.209 51.816C211.248 51.7245 212.195 52.1108 212.884 52.8329C213.572 53.555 214.021 54.7679 214.21 56.3166C214.419 58.0202 214.312 59.5951 213.927 61.351C213.523 62.9519 212.803 64.4242 211.729 65.4579C210.359 66.5178 209.08 67.1 207.744 67.2176ZM204.835 61.8381C204.781 62.6255 204.857 63.245 204.933 63.8645C205.028 64.6389 205.252 65.2453 205.587 65.5289C205.921 65.8125 206.534 65.9151 207.276 65.8498C207.722 65.8106 208.018 65.7845 208.445 65.5905C208.723 65.4095 209.149 65.2154 209.408 64.8795C209.815 64.5306 210.055 64.0398 210.295 63.5491C210.535 63.0583 210.756 62.4127 210.958 61.6122C211.16 60.8117 211.214 60.0243 211.267 59.2369C211.321 58.4494 211.356 57.5071 211.261 56.7328C211.128 55.6487 210.885 54.8873 210.531 54.4488C210.177 54.0104 209.694 53.7398 209.1 53.7921C208.655 53.8312 208.229 54.0253 207.821 54.3742C207.414 54.7232 207.026 55.227 206.527 56.0536C206.028 56.8802 205.658 57.5389 205.456 58.3394C205.254 59.1399 205.071 60.0953 204.907 61.2055L204.835 61.8381Z" fill="white"/>
<path d="M214.058 35.637L196.969 37.2173L197.219 39.4258L214.308 37.8455L214.058 35.637Z" fill="white"/>
<path d="M226.355 35.5139C227.258 43.1926 227.018 49.7325 225.617 54.98C224.216 60.2276 222.367 64.1186 219.928 66.6659L218.946 65.6678C220.957 63.159 222.521 59.2937 223.512 54.2382C224.503 49.1827 224.494 42.9756 223.627 35.604C222.76 28.2324 221.325 22.1536 219.178 17.3803C217.031 12.607 214.744 9.08795 212.048 7.00238L212.778 5.85041C215.759 7.91033 218.474 11.3909 221.067 16.2793C223.695 21.4748 225.452 27.8352 226.355 35.5139Z" fill="white"/>
</g>
</svg>
