<svg width="375" height="285" viewBox="0 0 375 285" fill="none" xmlns="http://www.w3.org/2000/svg">
<path d="M-177.943 262.027C-118.249 275.714 -56.3692 283.072 13.4586 283.009C77.5737 282.958 130.454 272.234 187.723 262.399C240.452 253.348 292.823 242.334 351.734 241.817C425.132 241.141 490.735 248.387 553.337 262.771" stroke="#A5D936" stroke-width="2" stroke-miterlimit="10"/>
<path d="M-177.971 251.626C-119.753 267.295 -58.4325 276.186 13.4352 275.819C78.7231 275.502 131.143 263.126 187.695 251.998C239.709 241.767 291.772 229.122 351.703 228.244C427.243 227.114 492.235 235.933 553.31 252.371" stroke="#A5D936" stroke-width="2" stroke-miterlimit="10"/>
<path d="M-177.982 241.191C-119.915 259.222 -57.4701 269.838 18.579 268.551C82.0297 267.481 134.396 253.291 187.683 241.563C237.452 230.581 287.983 216.466 346.944 214.815C426.563 212.628 492.271 222.94 553.298 241.935" stroke="#A5D936" stroke-width="2" stroke-miterlimit="10"/>
<path d="M-177.995 230.417C-122.986 249.665 -62.7834 261.99 13.7757 260.667C80.6438 259.507 133.212 243.957 187.671 230.789C238.663 218.424 289.651 203.103 351.978 201.209C432.209 198.796 495.369 210.951 553.286 231.161" stroke="#A5D936" stroke-width="2" stroke-miterlimit="10"/>
<path d="M-178.007 220.413C-123.353 241.715 -61.8726 255.917 18.5614 253.275C83.7961 251.101 135.394 234.465 187.659 220.785C236.202 208.068 287.188 191.393 347.372 188.614C431.222 184.837 496.018 198.829 553.274 221.157" stroke="#A5D936" stroke-width="2" stroke-miterlimit="10"/>
<path d="M-178.011 210.019C-124.019 233.095 -61.1585 249.299 23.15 245.016C86.3432 241.853 137.889 224.2 187.654 210.391C237.42 196.583 288.864 178.833 352.159 175.766C436.621 171.58 499.072 187.648 553.269 210.763" stroke="#A5D936" stroke-width="2" stroke-miterlimit="10"/>
<path d="M-178.024 199.267C-125.714 223.324 -63.2592 241.491 23.1393 236.159C86.6886 232.246 138.234 213.983 187.641 199.639C237.049 185.295 288.544 167.071 352.144 163.119C438.849 157.846 500.69 175.82 553.256 200.011" stroke="#A5D936" stroke-width="2" stroke-miterlimit="10"/>
<path d="M-178.053 189.182C-128.561 213.711 -68.4162 233.901 18.4677 228.236C84.7524 223.916 136.894 204.821 187.511 189.554C235.732 174.997 285.784 156.766 347.886 151.633C438.184 144.027 500.878 164.105 553.228 189.926" stroke="#A5D936" stroke-width="2" stroke-miterlimit="10"/>
<path d="M-178.051 178.423C-131.499 203.151 -72.4529 225.709 14.2056 219.574C82.0941 214.772 136.192 194.843 187.59 178.795C236.949 163.383 288.395 144.553 352.355 138.8C442.684 130.659 504.178 153.083 553.23 179.167" stroke="#A5D936" stroke-width="2" stroke-miterlimit="10"/>
<path d="M-178.064 168.065C-131.708 194.261 -71.7841 218.902 18.5566 210.207C84.208 203.906 137.191 184.489 187.678 168.437C235.922 153.157 286.917 134.415 348.129 127.432C441.885 116.902 504.258 141.14 553.217 168.751" stroke="#A5D936" stroke-width="2" stroke-miterlimit="10"/>
<path d="M-178.078 157.726C-132.139 184.941 -70.8994 211.138 22.633 200.052C85.719 192.592 138.284 173.767 187.588 158.098C236.892 142.429 289.559 123.738 352.492 116.144C445.616 104.75 507.366 131.465 553.203 158.47" stroke="#A5D936" stroke-width="2" stroke-miterlimit="10"/>
<path d="M-178.087 147.239C-131.732 173.452 -71.8076 198.11 18.5332 189.409C84.1846 183.104 137.168 163.674 187.655 147.611C235.899 132.321 286.893 113.566 348.105 106.637C441.862 96.0993 504.234 120.353 553.193 147.983" stroke="#A5D936" stroke-width="2" stroke-miterlimit="10"/>
<path d="M-178.113 136.829C-131.562 161.557 -72.5154 184.115 14.1431 177.979C82.0316 173.178 136.129 153.248 187.528 137.201C236.887 121.789 288.333 102.958 352.292 97.2059C442.621 89.0644 504.115 111.489 553.168 137.573" stroke="#A5D936" stroke-width="2" stroke-miterlimit="10"/>
<path d="M-178.115 126.441C-128.623 151.19 -68.4778 171.562 18.4061 165.844C84.6907 161.485 136.832 142.218 187.449 126.813C235.669 112.047 285.722 93.7679 347.824 88.5497C438.122 80.8747 500.816 101.113 553.166 127.185" stroke="#A5D936" stroke-width="2" stroke-miterlimit="10"/>
<path d="M-178.126 116.088C-125.815 140.146 -63.3608 158.295 23.0378 152.982C86.587 149.049 138.132 130.805 187.54 116.46C236.948 102.115 288.442 83.7932 352.042 79.9371C438.747 74.6631 500.589 92.6385 553.155 116.832" stroke="#A5D936" stroke-width="2" stroke-miterlimit="10"/>
<path d="M-178.137 105.679C-124.144 128.524 -61.2844 144.566 23.0241 140.327C86.2174 137.196 137.763 119.701 187.529 106.051C237.295 92.4008 288.739 74.7912 352.034 71.7749C436.496 67.651 498.947 83.5395 553.144 106.423" stroke="#A5D936" stroke-width="2" stroke-miterlimit="10"/>
<path d="M-178.163 94.9298C-123.509 116.237 -62.0288 130.441 18.4052 127.78C83.6399 125.624 135.238 108.985 187.503 95.3019C236.046 82.5812 287.032 65.9024 347.216 63.1237C431.066 59.3451 495.861 73.3404 553.118 95.674" stroke="#A5D936" stroke-width="2" stroke-miterlimit="10"/>
<path d="M-178.174 84.8588C-123.166 104.112 -62.9631 116.42 13.596 115.097C80.4642 113.956 133.033 98.4021 187.492 85.2309C238.483 72.8433 289.471 57.5377 351.799 55.6431C432.029 53.2099 495.19 65.3874 553.107 85.603" stroke="#A5D936" stroke-width="2" stroke-miterlimit="10"/>
<path d="M-178.186 74.1102C-120.118 92.1422 -57.6733 102.74 18.3759 101.471C81.8266 100.402 134.193 86.2114 187.48 74.4824C237.249 63.4802 287.78 49.384 346.741 47.7332C426.36 45.546 492.068 55.8583 553.095 74.8544" stroke="#A5D936" stroke-width="2" stroke-miterlimit="10"/>
<path d="M-178.197 63.7592C-119.98 79.4232 -58.6591 88.2932 13.2086 87.9451C78.4965 87.6094 130.916 75.2364 187.469 64.1313C239.483 53.8833 291.545 41.261 351.477 40.3647C427.016 39.2544 492.009 48.1664 553.084 64.5034" stroke="#A5D936" stroke-width="2" stroke-miterlimit="10"/>
<path d="M-178.209 53.3389C-118.515 67.0466 -56.6348 74.3956 13.1929 74.3318C77.308 74.2814 130.189 63.541 187.457 53.711C240.186 44.5895 292.557 33.6173 351.469 33.1375C424.866 32.4798 490.469 39.7362 553.072 54.1408" stroke="#A5D936" stroke-width="2" stroke-miterlimit="10"/>
<path d="M-178.229 43.3335C-117.28 54.9305 -49.9143 60.8854 18.2692 60.7031C78.6608 60.63 131.748 51.6281 187.437 43.7056C239.047 36.3365 290.297 27.3136 346.098 26.7167C417.799 25.8736 488.967 31.8438 553.052 44.0777" stroke="#A5D936" stroke-width="2" stroke-miterlimit="10"/>
<path d="M-178.233 32.5535C-117.17 41.4862 -52.4275 46.1643 12.9049 46.3646C74.1129 46.5631 129.293 39.5386 187.433 32.9257C241.39 26.8142 294.53 19.632 351.198 19.4757C420.115 19.2391 488.578 23.9273 553.047 33.2977" stroke="#A5D936" stroke-width="2" stroke-miterlimit="10"/>
<path d="M-178.248 22.1531C-52.8079 34.4032 62.209 32.1949 187.418 22.5252C312.627 12.8556 427.593 10.6282 553.033 22.8973" stroke="#A5D936" stroke-width="2" stroke-miterlimit="10"/>
<path d="M-178.26 11.7476C-55.0209 18.1562 64.2821 17.1677 187.406 12.1197C310.529 7.0717 429.781 6.10196 553.02 12.4918" stroke="#A5D936" stroke-width="2" stroke-miterlimit="10"/>
<path d="M-178.265 1.35366C65.5476 2.85359 309.254 0.617545 553.016 2.09786" stroke="#A5D936" stroke-width="2" stroke-miterlimit="10"/>
</svg>
