<svg width="962" height="967" viewBox="0 0 962 967" fill="none" xmlns="http://www.w3.org/2000/svg">
<path d="M-22.0042 936.426C68.2228 910.613 156.06 873.968 248.206 820.508C332.82 771.433 393.704 715.495 461.123 657.493C523.203 604.094 583.172 548.128 660.527 502.353C756.876 445.279 849.536 405.627 944.183 378.598" stroke="#A5D936" stroke-width="2" stroke-miterlimit="10"/>
<path d="M-30.6904 921.39C59.2373 899.572 147.614 865.574 242.201 810.115C328.141 759.759 387.04 701.783 452.437 642.457C512.587 587.895 570.79 529.804 649.191 482.729C747.99 423.361 841.155 386.451 935.496 363.562" stroke="#A5D936" stroke-width="2" stroke-miterlimit="10"/>
<path d="M-39.4019 906.297C52.2967 888.013 143.595 855.652 242.936 795.666C325.824 745.624 383.141 685.065 443.725 627.364C500.286 573.432 555.241 514.384 631.717 466.932C735.021 402.916 830.375 367.62 926.785 348.469" stroke="#A5D936" stroke-width="2" stroke-miterlimit="10"/>
<path d="M-48.404 890.716C40.27 876.532 130.033 848.357 230.017 787.93C317.341 735.144 373.791 672.462 434.723 611.783C491.745 554.915 546.299 493.772 627.017 443.395C730.94 378.583 824.466 347.903 917.783 332.888" stroke="#A5D936" stroke-width="2" stroke-miterlimit="10"/>
<path d="M-56.7609 876.245C33.157 865.304 126.17 838.869 230.172 773.572C314.494 720.567 368.758 657.055 426.366 597.312C479.861 541.805 533.285 478.704 610.435 428.685C718 359.133 815.216 329.862 909.426 318.417" stroke="#A5D936" stroke-width="2" stroke-miterlimit="10"/>
<path d="M-65.4395 861.205C25.0841 853.337 121.588 828.746 229.338 758.112C310.14 705.236 363.487 640.291 417.688 582.272C471.888 524.252 525.02 459.245 606.038 406.431C714.07 335.821 809.922 311.345 900.747 303.377" stroke="#A5D936" stroke-width="2" stroke-miterlimit="10"/>
<path d="M-74.4111 845.657C14.7089 840.494 112.313 819.054 221.948 745.304C302.596 691.071 355.434 625.245 408.716 566.724C461.998 508.202 514.801 442.471 595.484 388.143C705.572 314.244 802.206 292.993 891.776 287.829" stroke="#A5D936" stroke-width="2" stroke-miterlimit="10"/>
<path d="M-82.8364 831.078C2.9555 828.752 99.1966 812.006 209.194 737.402C293.114 680.489 346.047 613.003 400.156 552.222C451.693 494.3 502.587 429.66 580.307 374.768C693.196 294.747 792.709 275.889 883.35 273.25" stroke="#A5D936" stroke-width="2" stroke-miterlimit="10"/>
<path d="M-91.819 815.51C-9.74401 815.721 87.0196 803.24 196.328 728.129C281.965 669.294 336.784 599.104 391.275 536.596C443.602 476.567 495.836 409.994 575.493 352.786C687.975 271.966 787.86 257.421 874.368 257.682" stroke="#A5D936" stroke-width="2" stroke-miterlimit="10"/>
<path d="M-100.478 800.525C-17.4389 803.009 82.2212 792.873 194.258 711.243C275.691 651.948 329.466 583.352 382.75 521.533C433.715 462.547 485.426 396.448 560.429 339.559C675.447 252.662 778.003 240.07 865.66 242.613" stroke="#A5D936" stroke-width="2" stroke-miterlimit="10"/>
<path d="M-109.107 785.576C-25.7677 789.854 76.9257 780.964 191.184 693.433C268.263 634.421 321.979 567.002 374.02 506.642C426.061 446.282 480.024 378.979 556.789 319.889C670.252 232.227 774.051 223.696 857.08 227.747" stroke="#A5D936" stroke-width="2" stroke-miterlimit="10"/>
<path d="M-117.87 770.405C-34.8158 772.914 64.8579 762.802 176.89 681.164C258.32 621.862 312.083 553.247 365.358 491.414C416.315 432.413 468.016 366.296 543.064 309.483C658.075 222.576 760.645 210.008 848.317 212.577" stroke="#A5D936" stroke-width="2" stroke-miterlimit="10"/>
<path d="M-126.553 755.356C-44.4784 755.566 52.2852 743.085 161.594 667.974C247.231 609.139 302.049 538.95 356.54 476.441C408.868 416.412 461.102 349.84 540.758 292.631C653.241 211.811 753.126 197.266 839.633 197.527" stroke="#A5D936" stroke-width="2" stroke-miterlimit="10"/>
<path d="M-135.232 740.326C-49.2565 738.319 47.1359 721.834 157.09 647.156C240.977 590.186 293.766 522.451 347.76 461.471C399.123 403.246 449.976 338.537 527.625 283.521C640.456 203.4 740.103 184.774 830.954 182.498" stroke="#A5D936" stroke-width="2" stroke-miterlimit="10"/>
<path d="M-143.878 725.351C-54.7562 720.19 42.8333 698.724 152.484 625.002C233.115 570.74 285.968 504.94 339.249 446.417C392.531 387.894 445.253 322.022 526.015 267.833C636.103 193.933 732.738 172.684 822.309 167.523" stroke="#A5D936" stroke-width="2" stroke-miterlimit="10"/>
<path d="M-152.569 710.294C-62.2382 702.092 34.1305 677.267 141.917 606.696C222.746 553.867 276.225 489.152 330.558 431.361C384.891 373.57 438.14 308.766 519.2 256.025C627.284 185.504 722.985 160.769 813.618 152.466" stroke="#A5D936" stroke-width="2" stroke-miterlimit="10"/>
<path d="M-161.536 694.754C-71.614 683.82 21.4015 657.389 125.387 592.063C209.725 539.086 263.986 475.569 321.591 415.82C375.084 360.31 428.504 297.203 505.654 247.183C613.219 177.63 710.437 148.363 804.651 136.926" stroke="#A5D936" stroke-width="2" stroke-miterlimit="10"/>
<path d="M-169.949 680.189C-81.2711 666.012 8.47803 637.814 108.462 577.386C195.802 524.628 252.249 461.94 313.178 401.256C370.182 344.356 424.749 283.235 505.466 232.857C609.372 168.017 702.917 137.369 796.238 122.361" stroke="#A5D936" stroke-width="2" stroke-miterlimit="10"/>
<path d="M-178.932 664.641C-87.2326 646.358 4.05067 613.97 103.407 554.012C186.295 503.97 243.611 443.409 304.195 385.708C360.739 331.747 415.71 272.726 492.186 225.274C595.489 161.257 690.844 125.962 787.255 106.813" stroke="#A5D936" stroke-width="2" stroke-miterlimit="10"/>
<path d="M-187.574 649.667C-97.6503 627.842 -9.29124 593.813 85.3111 538.382C171.236 487.998 230.137 430.028 295.553 370.733C355.69 316.148 413.912 258.09 492.297 210.988C591.112 151.648 684.355 114.873 778.612 91.8388" stroke="#A5D936" stroke-width="2" stroke-miterlimit="10"/>
<path d="M-196.279 634.597C-106.035 608.813 -18.2056 572.155 73.9402 518.695C158.554 469.62 219.425 413.66 286.848 355.664C348.869 302.162 408.873 246.256 486.259 200.537C582.623 143.488 675.292 103.851 769.956 76.8527" stroke="#A5D936" stroke-width="2" stroke-miterlimit="10"/>
<path d="M-204.633 620.13C-114.492 590.332 -20.5803 547.464 69.2957 495.088C148.974 448.826 211.566 395.225 278.494 341.196C340.497 291.087 400.647 238.858 473.827 195.347C567.797 139.327 666.742 93.5748 761.554 62.3017" stroke="#A5D936" stroke-width="2" stroke-miterlimit="10"/>
<path d="M-213.633 604.535C-125.562 570.793 -36.1781 528.082 50.2522 478.44C131.235 431.947 198.24 379.607 269.494 325.601C335.645 275.518 399.824 224.509 474.517 180.972C565.315 127.958 659.62 82.4181 752.554 46.7067" stroke="#A5D936" stroke-width="2" stroke-miterlimit="10"/>
<path d="M-222.314 589.492C-46.4761 511.35 103.549 420.248 260.813 310.559C418.078 200.869 568.019 109.779 743.873 31.664" stroke="#A5D936" stroke-width="2" stroke-miterlimit="10"/>
<path d="M-231.004 574.441C-62.9402 489.527 93.7608 396.915 252.123 295.508C410.485 194.101 567.135 101.555 735.183 16.6132" stroke="#A5D936" stroke-width="2" stroke-miterlimit="10"/>
<path d="M-239.689 559.403C83.4859 375.232 403.406 185.735 726.498 1.57452" stroke="#A5D936" stroke-width="2" stroke-miterlimit="10"/>
</svg>
