<svg width="448" height="573" viewBox="0 0 448 573" fill="none" xmlns="http://www.w3.org/2000/svg">
<path d="M-19.0809 31.054L-15.4681 31.3225L-17.8337 28.5786C-24.4937 20.8537 -31.7036 12.7479 -39.4629 4.2613L-39.9044 3.77846L-40.5586 3.77351C-56.504 3.65278 -72.4906 3.55218 -88.5183 3.4717L-91.7694 3.45537L-89.672 5.9394C-62.1081 38.5838 -42.9435 66.1558 -30.2428 90.4711L-29.8677 91.1892L-29.0616 91.2693C-20.5765 92.1126 -12.3601 93.0763 -4.41235 94.1601L-1.41434 94.569L-2.90407 91.9354C-13.3919 73.3944 -27.9825 52.7481 -47.5542 29.0991C-37.9152 29.708 -28.424 30.3596 -19.0809 31.054Z" stroke="#A5D936" stroke-width="3"/>
<path d="M37.4927 5.14874L37.0685 4.3852L36.195 4.37736L18.2693 4.2164L15.5538 4.19201L16.979 6.50357C26.5181 21.9749 35.3783 38.1363 43.5174 54.9102C27.139 38.9999 8.75597 22.1478 -11.5762 4.42465L-11.9952 4.05944L-12.551 4.05541L-31.9897 3.91459L-36.2211 3.88394L-32.9538 6.57277C0.851479 34.3931 30.2326 60.3234 54.105 84.0896C54.3558 85.629 54.1515 86.3346 53.9707 86.6209C53.1331 87.1061 52.236 87.1605 51.4019 86.8192L51.3079 86.7808L51.2097 86.7554C48.5374 86.0637 45.906 85.1076 43.3381 83.8938L39.6772 82.1633L41.3272 85.8611C43.6215 91.0027 45.6654 96.3293 47.4464 101.809L47.6311 102.378L48.1559 102.663C52.9346 105.264 57.891 107.294 62.9636 108.725L62.9856 108.731L63.0079 108.737C68.4177 110.085 73.0683 109.922 75.8807 106.795C78.6557 103.71 78.8341 98.5594 76.7934 91.4947C70.5384 69.5577 57.8885 41.8546 37.4927 5.14874Z" stroke="#A5D936" stroke-width="3"/>
<path d="M160.413 134.361L160.42 134.369L160.428 134.378C166.449 140.618 171.944 144.888 177.327 147.134L177.347 147.142L177.366 147.15C182.059 148.955 186.25 148.96 189.418 146.05C192.429 143.284 194.02 138.41 194.287 131.543L194.306 131.07L194.049 130.672C189.192 123.145 183.878 115.48 178.107 107.677L175.241 103.802L175.402 108.619C175.555 113.201 174.993 115.963 174.085 117.387C173.665 118.044 173.199 118.375 172.697 118.526C172.172 118.683 171.451 118.69 170.466 118.409C167.329 117.258 164.385 115.218 161.852 112.396L161.835 112.377L161.818 112.359C158.008 108.387 154.504 103.928 151.359 99.0446L151.352 99.0341C147.345 92.9238 143.623 86.501 140.21 79.8004L140.204 79.7901L140.199 79.7798C136.869 73.4874 133.961 66.8285 131.507 59.8771C129.53 53.8827 128.823 49.4812 129.327 46.5306C129.575 45.0806 130.077 44.2225 130.671 43.7365C131.251 43.262 132.134 42.9662 133.527 43.0844L133.537 43.0852L133.546 43.0859C135.847 43.2525 138.988 44.7684 142.839 47.9717C146.644 51.1369 150.967 55.801 155.619 61.9321L158.553 65.7996L158.312 60.9511C157.92 53.0607 157.368 44.6756 156.657 35.7962L156.623 35.3699L156.369 35.0257C149.294 25.4321 141.232 17.137 132.405 10.3799L132.395 10.3725L132.385 10.3652C124.51 4.53878 117.141 1.5 110.772 1.5C107.071 1.5 104.029 2.56936 101.808 4.76182C99.6083 6.93303 98.3908 10.0318 97.9651 13.7547C97.1199 21.147 99.3152 30.8438 103.517 42.0172L103.522 42.0297L103.527 42.0421C108.509 54.6079 114.332 66.5825 120.928 77.827C127.333 89.2706 134.205 100.26 141.514 110.749C147.332 119.243 153.65 127.137 160.413 134.361Z" stroke="#A5D936" stroke-width="3"/>
<path d="M216.984 157.066C216.937 150.416 216.655 143.379 216.139 135.958C221.906 137.269 227.654 138.417 233.391 139.388C235.867 147.914 238.025 156.155 239.837 164.13L240.051 165.073L240.999 165.267C245.365 166.159 249.731 166.902 254.098 167.497L256.183 167.781L255.771 165.717C247.167 122.566 228.749 70.3566 194.466 6.17608L194.042 5.38281H193.143H175.217H173.241L173.773 7.28637C191.345 70.1936 199.832 117.501 200.83 152.774L200.86 153.811L201.84 154.149C206.279 155.681 210.68 157.155 215.039 158.51L216.999 159.118L216.984 157.066ZM212.744 104.747C211.182 93.4214 209.174 81.3607 206.695 68.5074C212.277 80.7658 217.49 93.3058 222.322 106.099C219.14 105.702 215.947 105.251 212.744 104.747Z" stroke="#A5D936" stroke-width="3"/>
<path d="M276.041 167.453C275.994 156.021 275.52 144.599 274.622 133.228C276.95 133.193 279.287 133.118 281.624 133.003C284.105 132.882 286.514 132.072 288.689 130.657C290.861 129.243 292.745 127.263 294.234 124.874L294.239 124.866C297.937 118.845 300.367 111.712 301.318 104.158C302.788 93.6176 302.883 82.8313 301.601 72.2504C300.462 60.4874 297.882 49.0325 293.954 38.322C290.682 29.1634 285.917 21.0094 279.966 14.4331C275.052 8.88412 268.736 5.65045 262.071 5.42372L262.045 5.42285H262.02H232.607H230.597L231.169 7.3498C250.504 72.4704 259.12 124.549 260.366 166.879L260.405 168.215L261.736 168.329C265.958 168.694 270.22 168.959 274.541 168.959H276.047L276.041 167.453ZM282.418 90.9771L281.954 92.707C281.59 93.5903 281.095 94.3479 280.513 94.9329C279.606 95.8448 278.564 96.2707 277.562 96.2638L277.529 96.2636L277.497 96.2648C277.099 96.2792 276.702 96.2941 276.306 96.3089C274.377 96.3811 272.469 96.4525 270.565 96.4766C268.511 81.8559 265.782 66.3833 262.377 50.0595C263.026 50.0461 263.67 50.0309 264.312 50.0158C266.138 49.9728 267.945 49.9303 269.784 49.93C271.234 49.9653 272.687 50.4735 274.011 51.4574C275.345 52.4484 276.505 53.8925 277.353 55.6895L277.362 55.7076L277.371 55.7255C280.095 61.1205 281.876 67.2525 282.576 73.6816L282.578 73.7008L282.581 73.7198C283.619 81.4222 283.455 87.1101 282.418 90.9771Z" stroke="#A5D936" stroke-width="3"/>
<path d="M323.371 154.782L323.373 154.785C325.503 157.222 327.923 158.812 330.665 159.435C333.401 160.057 336.295 159.679 339.312 158.469C345.326 156.058 351.017 150.693 356.3 142.889L356.304 142.883L356.308 142.877C361.957 134.357 366.411 124.633 369.481 114.146C372.99 102.463 374.877 90.0668 375.055 77.5346C375.398 65.0425 373.831 52.5818 370.442 40.8746C367.45 30.3154 362.603 20.7801 356.265 13.0352L356.259 13.0278L356.253 13.0205C350.201 5.81523 343.242 1.54004 335.758 1.54004C328.164 1.54004 322.083 5.95962 317.575 14.4056C313.099 22.7904 310.465 34.2669 309.114 48.0832L309.113 48.0925L309.113 48.1018C307.857 62.8375 307.763 77.7015 308.831 92.4619C309.464 105.692 311.119 118.807 313.77 131.608L313.773 131.621L313.776 131.635C316.181 142.27 319.194 149.982 323.371 154.782ZM347.119 118.704L347.108 118.724L347.097 118.744C345.346 122.007 342.862 124.334 340.1 125.463C339.169 125.819 338.195 125.832 337.262 125.505C336.314 125.172 335.396 124.483 334.642 123.442L334.622 123.414L334.6 123.388C332.721 121.029 331.145 117.085 329.862 111.219C328.462 104.214 327.675 97.0229 327.516 89.7838L327.515 89.766L327.514 89.7482C327.157 81.9324 327.439 74.0895 328.355 66.3524L328.356 66.3406L328.357 66.3289C328.959 60.455 330.495 54.8224 332.855 49.7918L332.863 49.775L332.87 49.758C333.601 48.0951 334.605 46.716 335.775 45.7084C336.923 44.7198 338.195 44.1186 339.486 43.9076C340.783 43.8375 342.092 44.1336 343.328 44.7995C344.59 45.479 345.757 46.5339 346.726 47.9209L346.735 47.9346L346.745 47.948C349.589 51.8342 351.701 56.5728 352.885 61.7804L352.887 61.7912L352.89 61.8019C354.521 68.518 355.3 75.5409 355.195 82.5914L355.194 82.6058L355.195 82.6203C355.225 89.7358 354.441 96.8152 352.871 103.624L352.869 103.631L352.867 103.639C351.669 109.09 349.718 114.195 347.119 118.704Z" stroke="#A5D936" stroke-width="3"/>
<path d="M442.312 53.2816L442.278 53.2438L442.241 53.2085C440.204 51.2338 437.783 49.9561 435.22 49.5189C437.245 46.7804 438.96 43.6914 440.317 40.3435C441.92 36.4017 442.759 32.0287 442.774 27.5962C442.897 24.2116 442.337 20.8333 441.139 17.7935C439.942 14.7564 438.138 12.1348 435.869 10.2198C431.346 6.13491 424.791 3.68866 416.764 3.81417L416.757 3.81432C406.291 4.02888 395.825 4.21661 385.36 4.37753L383.816 4.40127L383.884 5.94359C385.75 48.1562 384.801 90.5002 381.048 132.499L380.785 135.432L383.312 133.919C393.865 127.599 404.967 120.274 416.711 111.887C424.892 106.174 432.122 98.4681 438.016 89.2146L438.023 89.2042L438.029 89.1936C443.196 80.7775 445.785 72.8423 445.785 65.0497C445.785 59.8953 444.754 55.993 442.312 53.2816ZM423.332 75.4024L423.332 75.4071C423.146 81.6871 420.458 86.4327 415.443 89.6372C411.374 92.1993 407.37 94.6458 403.431 96.9769C403.801 90.6619 404.109 84.2439 404.356 77.7229C408.787 75.6062 413.267 73.3826 417.796 71.052C420.388 69.727 421.616 69.9109 422.156 70.3073C422.45 70.5239 422.779 70.9532 423.02 71.8056C423.261 72.6619 423.383 73.8443 423.332 75.4024ZM414.41 49.1577C411.279 50.2544 408.17 51.351 405.081 52.4476C405.201 45.7884 405.264 39.0412 405.271 32.2058C408.674 31.5457 412.078 30.8413 415.498 30.1224C417.732 29.6752 419.025 30.1442 419.821 31.0541C420.721 32.0821 421.338 34.0469 421.278 37.3377C421.219 40.5698 420.57 43.0901 419.432 44.9994C418.311 46.8796 416.661 48.2629 414.41 49.1577Z" stroke="#A5D936" stroke-width="3"/>
<path d="M48.2147 132.649L50.8716 133.226L49.9433 130.671C48.0498 125.458 45.9218 120.393 43.5703 115.503L43.2502 114.838L42.5277 114.686C23.3712 110.65 2.40894 107.402 -20.6826 105.244L-23.186 105.01L-22.2027 107.324C-12.4879 130.187 -8.77035 150.238 -9.1517 169.34L-9.18184 170.85L-7.67215 170.87C1.28176 170.99 9.80183 171.391 17.9495 172.052L19.4969 172.178L19.5692 170.627C20.212 156.835 18.2698 142.38 12.8751 126.415C25.377 128.125 37.1227 130.236 48.2147 132.649Z" stroke="#A5D936" stroke-width="3"/>
<path d="M123.509 140.106L123.53 139.065L122.562 138.682C117.19 136.555 111.634 134.483 105.894 132.465L103.845 131.744L103.897 133.915C104.092 142.149 102.679 150.282 99.8199 157.557C92.4027 145.137 84.1647 133.577 75.1974 123.01L74.9001 122.66L74.4577 122.536C67.4592 120.579 60.1952 118.702 52.6508 116.966L47.8574 115.863L51.2196 119.453C68.7087 138.128 81.6617 155.042 90.146 170.666C89.4708 171.085 88.7614 171.335 88.0528 171.421C86.6301 171.553 85.196 171.371 83.8061 170.876L83.797 170.872L83.7879 170.869C81.5379 170.099 79.326 169.137 77.1672 167.987L75.7838 167.25L75.1084 168.664C73.5334 171.963 71.7704 175.098 69.8354 178.044L68.974 179.355L70.3225 180.157C74.166 182.442 78.1598 184.29 82.259 185.678C86.9298 187.3 91.7978 187.811 96.6207 187.178C101.009 186.695 105.104 184.452 108.36 180.861L108.37 180.85L108.38 180.839C117.61 170.255 123.162 157.664 123.509 140.106Z" stroke="#A5D936" stroke-width="3"/>
<path d="M169.871 163.809L169.86 163.816L169.85 163.823C168.078 165.021 166.537 166.652 165.301 168.597C164.068 170.537 163.156 172.762 162.608 175.136C161.168 180.851 160.466 186.832 160.528 192.838C160.351 199.244 160.745 205.655 161.703 211.944C162.565 217.871 164.163 223.583 166.441 228.855C168.667 234.038 171.785 238.525 175.582 241.956C178.663 244.901 182.331 246.777 186.227 247.332L186.245 247.334L186.263 247.336C190.134 247.792 193.969 246.577 197.174 243.972L197.837 243.433L197.711 242.588C196.913 237.211 195.873 231.899 194.597 226.678L193.932 223.959L192.036 226.019C190.76 227.404 189.241 228.144 187.729 228.242C186.22 228.341 184.675 227.805 183.324 226.614L183.304 226.596L183.283 226.579C181.477 225.098 179.937 223.044 178.821 220.564L178.82 220.563C177.597 217.849 176.766 214.851 176.378 211.72L176.377 211.713C175.923 208.194 175.812 204.614 176.047 201.058L176.048 201.034L176.049 201.009C176.157 197.775 176.694 194.595 177.633 191.611L177.638 191.595L177.643 191.578C177.939 190.557 178.384 189.646 178.939 188.895C179.473 188.171 180.091 187.618 180.744 187.244C181.491 186.949 182.261 186.847 183.019 186.933C183.805 187.021 184.592 187.312 185.335 187.816L185.386 187.85L185.44 187.881C188.921 189.839 192.386 194.575 194.793 202.463L195.586 205.065L197.363 203.006C200.014 199.934 202.47 196.596 204.709 193.024L205.084 192.426L204.861 191.755C202.709 185.266 199.615 179.355 195.733 174.351C192.247 169.802 188.018 166.264 183.319 164.014C178.202 161.564 173.547 161.413 169.871 163.809Z" stroke="#A5D936" stroke-width="3"/>
<path d="M203.247 265.182L204.361 266.119L205.331 265.033C207.957 262.091 210.445 258.951 212.782 255.63C216.797 258.547 220.802 261.291 224.868 263.755C223.952 268.472 222.853 273.124 221.573 277.693L221.272 278.77L222.217 279.366C225.497 281.435 228.851 283.294 232.28 284.942L233.915 285.728L234.38 283.974C241.147 258.429 244.266 228.034 237.821 189.584L237.671 188.687L236.805 188.405C233.03 187.179 229.239 185.846 225.432 184.405L223.67 183.739L223.415 185.605C218.939 218.322 208.313 239.853 193.868 254.845L192.798 255.955L193.937 256.994C197.035 259.82 200.139 262.57 203.247 265.182ZM222.074 239.693C224.459 234.761 226.574 229.622 228.404 224.315C228.509 230.581 228.309 236.852 227.806 243.09C225.898 242.01 223.99 240.875 222.074 239.693Z" stroke="#A5D936" stroke-width="3"/>
<path d="M291.883 200.171L291.864 200.146L291.843 200.121C290.407 198.391 288.695 197.028 286.795 196.14C284.903 195.256 282.876 194.868 280.84 195.014C274.459 195.191 268.075 194.845 261.726 193.98L260.114 193.76L260.026 195.384C257.968 233.215 249.34 262.103 237.522 285.325L236.766 286.809L238.321 287.405C241.812 288.745 245.361 289.821 248.952 290.627L250.099 290.885L250.623 289.832C253.691 283.668 256.489 277.285 259.004 270.715C260.872 270.993 262.807 271.213 264.742 271.364L264.763 271.366L264.784 271.367C269.066 271.58 273.263 270.162 276.859 267.356C281.082 264.154 284.737 259.89 287.621 254.842C291.046 248.896 293.616 242.213 295.22 235.111C296.921 228.451 297.517 221.404 296.972 214.431C296.614 209.099 294.834 204.05 291.883 200.171ZM279.893 235.851L279.875 235.911L279.863 235.973C279.107 239.729 277.657 243.157 275.665 245.96C274.969 246.934 274.146 247.67 273.267 248.15C272.394 248.626 271.478 248.844 270.573 248.814C269.136 248.743 267.689 248.632 266.243 248.488C268.505 240.069 270.351 231.472 271.771 222.748C273.516 222.86 275.247 222.86 276.942 222.86H276.979H277.075L277.17 222.848C277.743 222.774 278.363 222.939 278.945 223.415C279.528 223.891 280.034 224.655 280.322 225.637C280.99 229.02 280.839 232.592 279.893 235.851Z" stroke="#A5D936" stroke-width="3"/>
<path d="M296.449 283.804L296.453 283.807C300.074 286.634 305.303 286.384 311.628 283.856L311.647 283.849L311.666 283.84C318.856 280.732 325.554 276.028 331.468 269.958C338.23 263.226 344.197 255.262 349.186 246.321C353.996 237.861 357.574 228.342 359.752 218.235L359.754 218.225C361.755 208.609 361.927 200.494 360.322 193.816C359.72 190.791 358.614 187.955 357.067 185.507C355.515 183.052 353.547 181.034 351.28 179.625L351.265 179.615L351.25 179.606C346.704 176.928 341.314 176.929 335.403 179.525L335.389 179.531L335.376 179.538C329.111 182.437 323.525 187.252 319.07 193.524C313.837 200.725 309.365 208.787 305.766 217.499C301.906 226.528 298.641 235.964 296.007 245.707C293.307 255.254 291.834 263.18 291.723 269.662C291.613 276.076 292.876 280.996 296.449 283.804ZM325.601 254.816L325.594 254.824L325.587 254.832C323.102 257.645 320.262 259.818 317.218 261.265C314.593 262.452 313.135 262.191 312.281 261.476C311.303 260.656 310.568 258.884 310.564 255.469C310.726 250.997 311.446 246.594 312.693 242.433L312.7 242.409L312.707 242.384C314.107 237.055 315.906 231.923 318.076 227.061L318.079 227.055L318.082 227.048C320.009 222.614 322.359 218.53 325.073 214.893L325.079 214.884L325.086 214.875C327.169 211.993 329.693 209.791 332.453 208.393L332.492 208.373L332.529 208.351C333.363 207.867 334.241 207.644 335.106 207.67C335.941 207.695 336.784 207.952 337.581 208.454C338.332 209.136 338.987 210.048 339.478 211.146C339.985 212.282 340.296 213.569 340.376 214.91L340.377 214.927L340.378 214.944C340.745 219.39 340.348 223.883 339.22 228.094L339.214 228.116L339.209 228.139C337.958 233.456 336.095 238.485 333.69 243.054L333.69 243.054L333.685 243.065C331.414 247.463 328.692 251.416 325.601 254.816Z" stroke="#A5D936" stroke-width="3"/>
<path d="M440.586 159.386L440.577 159.383C438.368 158.615 435.731 158.842 432.779 159.827C434.996 156.45 436.964 152.812 438.659 148.96C440.637 144.646 441.763 139.785 441.954 134.802L441.955 134.783L441.955 134.764C442.004 131.071 441.335 128.095 439.726 126.074C438.045 123.962 435.57 123.172 432.714 123.39C427.241 123.808 420.052 127.539 411.472 134.139L411.47 134.14C399.962 143.013 389.169 150.737 378.982 157.455L378.405 157.836L378.32 158.522C374.335 190.599 368.67 222.282 361.364 253.349L360.522 256.93L363.628 254.959C376.724 246.648 390.971 236.791 406.554 225.208C417.149 217.621 426.795 208.015 435.175 196.722L435.185 196.708L435.195 196.695C442.262 186.711 445.862 177.574 445.862 169.672C445.862 164.478 444.288 160.699 440.586 159.386ZM406.045 173.249C402.433 176.122 398.887 178.891 395.408 181.558C396.041 176.745 396.649 171.877 397.247 166.962C401.315 163.866 405.478 160.635 409.735 157.268L409.737 157.266C411.166 156.13 412.351 155.36 413.298 154.911C414.281 154.445 414.818 154.416 415.046 154.462L415.049 154.463C415.135 154.481 415.284 154.511 415.444 154.944C415.635 155.458 415.748 156.353 415.646 157.753C415.254 163.132 412.023 168.438 406.045 173.249ZM416.65 189.494L416.58 190.382L416.599 190.394C415.952 195.544 412.308 200.893 405.67 205.963L405.661 205.971C400.326 210.113 395.143 214.03 390.112 217.721C390.857 213.039 391.588 208.298 392.303 203.497C397.824 199.33 403.553 194.892 409.489 190.183L409.495 190.178L409.5 190.174C411.139 188.848 412.523 187.902 413.654 187.304C414.821 186.688 415.56 186.529 415.96 186.551C416.13 186.561 416.203 186.601 416.235 186.623C416.269 186.647 416.343 186.71 416.427 186.89C416.617 187.298 416.759 188.105 416.65 189.494Z" stroke="#A5D936" stroke-width="3"/>
<path d="M49.1275 200.207L50.3223 200.401L50.7644 199.274C52.1745 195.679 53.3842 191.958 54.3851 188.141L54.797 186.571L53.1989 186.284C32.7159 182.613 12.0431 181.031 -8.63084 181.553L-9.9294 181.586L-10.0825 182.876C-12.3141 201.679 -18.2808 220.048 -25.9864 239.83L-26.9641 242.34L-24.3156 241.849C-16.5299 240.407 -9.14639 239.348 -2.16397 238.668L-1.3271 238.587L-0.959871 237.83C5.85574 223.792 11.5947 210.467 15.2763 196.996C26.594 197.311 37.8926 198.382 49.1275 200.207Z" stroke="#A5D936" stroke-width="3"/>
<path d="M123.942 215.413L126.019 214.129L123.934 212.857C119.518 210.162 114.894 207.565 109.956 205.109L109.156 204.711L108.425 205.225C101.636 210.003 94.0454 214.442 85.7389 219.122C86.2246 210.92 85.4645 202.661 83.4919 194.819L83.2907 194.019L82.5071 193.76C76.2409 191.693 69.6181 189.83 62.6081 188.23L59.7583 187.579L60.8916 190.273C66.4707 203.538 68.2858 215.955 67.3227 228.276C66.0202 228.816 64.6855 229.189 63.3365 229.391C61.9905 229.558 60.6321 229.47 59.3001 229.127C57.6554 228.661 56.0429 227.988 54.4856 227.114L53.5936 226.614L52.8018 227.261C49.2322 230.181 45.567 233.204 41.8542 236.329L40.3073 237.631L42.0018 238.734C44.8348 240.577 47.8634 241.907 51.0016 242.676L51.0198 242.68L51.0382 242.684C55.5766 243.676 60.2086 243.747 64.7653 242.896C70.0331 241.969 75.1909 240.233 80.1301 237.731C84.4765 235.586 88.7555 233.538 92.9341 231.538C104.218 226.137 114.769 221.087 123.942 215.413Z" stroke="#A5D936" stroke-width="3"/>
<path d="M120.191 281.909L120.193 281.928L120.195 281.947C120.757 286.971 122.686 291.626 125.702 295.047C128.53 298.474 131.972 301.023 135.767 302.44L135.775 302.443C139.894 303.955 144.216 304.387 148.48 303.703L149.493 303.541L149.709 302.537C150.606 298.364 151.474 294.143 152.25 289.897L152.624 287.849L150.563 288.142C145.409 288.876 141.869 287.616 139.575 284.864L139.554 284.839L139.532 284.815C138.299 283.46 137.45 281.486 137.233 279.257C137.12 276.933 137.615 274.651 138.605 272.786L138.61 272.776L138.616 272.765C139.958 270.141 141.658 267.895 143.611 266.135L143.633 266.115L143.655 266.094C145.713 264.084 147.994 262.548 150.4 261.534L150.409 261.53L150.417 261.526C152.455 260.637 154.6 260.362 156.707 260.706C158.562 261.013 160.37 261.994 161.912 263.616C164.43 266.298 165.413 270.187 164.211 275.451L163.759 277.434L165.787 277.28C169.893 276.969 173.953 276.495 177.967 275.858L178.983 275.697L179.199 274.691C180.154 270.238 179.972 265.503 178.675 261.188L178.67 261.173L178.665 261.158C177.233 256.733 174.865 252.868 171.786 250.029C168.122 246.455 163.752 244.165 159.106 243.458L159.106 243.458C154.383 242.74 149.603 243.362 145.103 245.266C140.321 247.224 135.871 250.273 131.957 254.248C128.154 257.797 124.986 262.32 122.639 267.513C120.613 271.85 119.761 276.91 120.191 281.909Z" stroke="#A5D936" stroke-width="3"/>
<path d="M150.071 322.979L150.77 323.791L151.766 323.392C155.358 321.95 158.932 320.453 162.489 318.899C166.164 322.965 169.938 326.896 173.891 330.594L167.98 339.757L167.28 340.842L168.249 341.696C171.569 344.621 175.022 347.41 178.652 350L180.025 350.98L180.838 349.502C182.709 346.098 184.656 342.646 186.641 339.128C194.99 324.329 204.002 308.355 210.792 289.841L211.168 288.816L210.308 288.143C207.404 285.873 204.542 283.46 201.692 280.905L200.727 280.039L199.731 280.869C182.701 295.054 162.752 303.272 142.366 310.526L140.378 311.234L141.7 312.879C144.455 316.308 147.23 319.682 150.071 322.979ZM177.701 311.61C181.704 309.515 185.65 307.242 189.531 304.796C187.335 308.823 185.055 312.705 182.733 316.583C181.012 314.97 179.345 313.312 177.701 311.61Z" stroke="#A5D936" stroke-width="3"/>
<path d="M256.484 310.474L256.443 310.423L256.398 310.376C253.863 307.737 250.708 306.113 247.342 305.822C241.601 304.805 235.943 303.067 230.449 300.628L229.268 300.104L228.575 301.194C215.397 321.921 199.772 337.794 184.951 352.084L183.546 353.438L185.216 354.448C189.049 356.763 192.976 358.807 196.982 360.572L197.949 360.998L198.675 360.232C202.171 356.546 205.724 352.75 209.309 348.796C211.447 349.66 213.655 350.446 215.931 351.155L215.94 351.158L215.949 351.161C220.393 352.484 225.007 352.602 229.492 351.505C234.19 350.424 238.687 348.287 242.782 345.21C246.903 342.134 250.551 338.144 253.566 333.439C256.178 329.737 257.984 325.243 258.832 320.406L258.833 320.4C259.133 318.643 259.08 316.817 258.677 315.091C258.274 313.366 257.529 311.771 256.484 310.474ZM231.865 335.903L231.864 335.903C229.858 336.892 227.704 337.088 225.64 336.492L225.639 336.491C224.137 336.06 222.67 335.591 221.232 335.091C224.819 330.698 228.37 326.107 231.849 321.244C233.596 321.784 235.384 322.268 237.203 322.694L237.203 322.694C238.274 322.945 238.953 323.283 239.365 323.638C239.739 323.961 239.945 324.338 240.009 324.856C240.156 326.061 239.606 327.945 237.752 330.594L237.746 330.603L237.74 330.611C236.108 333.01 234.083 334.812 231.865 335.903Z" stroke="#A5D936" stroke-width="3"/>
<path d="M254.221 366.921L254.224 366.923C258.626 369.27 264.88 369.922 272.857 368.753L272.867 368.752L272.877 368.75C281.331 367.396 289.571 364.417 297.329 359.921C305.138 355.559 312.368 349.667 318.772 342.464C324.204 336.603 328.524 329.242 331.429 320.946L331.435 320.929L331.441 320.912C333.797 313.619 334.027 307.532 332.164 302.854C330.271 298.103 326.607 295.384 321.657 294.412C316.756 293.45 311.015 294.436 304.514 296.831L304.509 296.833C297.879 299.302 291.494 302.741 285.477 307.078C279.322 311.453 273.462 316.489 267.961 322.131C262.792 327.267 258.07 333.108 253.874 339.55L253.868 339.559L253.863 339.568C250.071 345.567 247.789 350.904 247.687 355.709C247.636 358.121 248.112 360.328 249.218 362.254C250.325 364.183 252.009 365.735 254.221 366.921ZM289.798 347.46L289.798 347.46L289.787 347.466C286.44 349.553 282.894 351.002 279.259 351.779L279.211 351.789L279.164 351.802C276.745 352.486 274.235 352.348 271.856 351.391L271.845 351.387L271.834 351.383C271.366 351.203 270.872 350.794 270.488 350.116C270.105 349.438 269.884 348.577 269.894 347.669L269.894 347.656L269.894 347.643C269.881 345.621 270.747 342.961 272.682 339.493C274.735 335.85 277.128 332.569 279.8 329.727L279.806 329.721L279.812 329.714C282.614 326.664 285.638 323.992 288.836 321.737L288.836 321.737L288.847 321.729C291.774 319.624 294.882 318.019 298.097 316.944L298.135 316.931L298.172 316.916C300.419 316.028 302.783 315.879 305.071 316.47C305.62 316.614 306.19 316.977 306.682 317.598L307.857 316.665L306.682 317.598C307.177 318.221 307.551 319.055 307.725 320.014L307.725 320.015C308.099 322.063 307.673 324.905 306.177 328.653C304.481 332.667 302.247 336.226 299.596 339.163L299.596 339.163L299.587 339.172C296.618 342.516 293.323 345.302 289.798 347.46Z" stroke="#A5D936" stroke-width="3"/>
<path d="M428.276 264.727C431.134 261.487 433.749 257.904 436.088 254.025L436.098 254.008L436.108 253.991C438.99 248.914 440.577 244.052 440.58 239.681C440.635 235.957 439.673 232.985 437.347 231.217C435.059 229.478 431.868 229.231 428.237 229.927C420.965 231.32 411.351 236.521 399.869 244.576C384.44 255.302 370.298 264.415 357.304 272.099L356.764 272.419L356.612 273.028C353.249 286.535 349.84 299.396 346.542 311.772C346.243 312.895 345.944 314.013 345.647 315.128C342.668 326.299 339.793 337.085 337.144 347.587L336.446 350.353L339.12 349.361C356.03 343.085 374.461 335.199 394.703 325.547L394.704 325.546C409.801 318.333 422.619 309.793 431.821 300.544C440.959 291.359 445.843 282.4 445.86 274.338C445.991 271.895 445.39 269.442 444.125 267.499C442.87 265.57 441.006 264.23 438.858 263.945C435.94 263.243 432.371 263.577 428.276 264.727ZM392.991 278.966L392.99 278.967C387.787 282.103 382.72 285.084 377.787 287.908C378.516 284.02 379.244 280.095 379.972 276.131C385.385 272.819 390.969 269.3 396.725 265.576L396.729 265.573C398.675 264.306 400.334 263.376 401.71 262.767C403.111 262.147 404.104 261.913 404.752 261.913C405.325 261.913 405.467 262.081 405.548 262.208C405.705 262.456 405.881 263.054 405.765 264.275C405.327 268.898 401.221 274.011 392.991 278.966ZM407.925 292.965L407.925 292.973L407.924 292.98C407.583 297.726 403.148 302.898 393.789 307.708L393.782 307.712C386.297 311.609 379.072 315.241 372.108 318.61C372.825 314.645 373.553 310.653 374.294 306.633C381.606 302.8 389.213 298.639 397.115 294.15L397.118 294.148C399.322 292.888 401.215 291.959 402.798 291.35C404.401 290.733 405.59 290.484 406.417 290.491C407.206 290.497 407.488 290.724 407.625 290.91C407.814 291.166 408.024 291.753 407.925 292.965Z" stroke="#A5D936" stroke-width="3"/>
<path d="M13.0218 262.436L13.8098 262.42L14.2439 261.762C15.6083 259.694 16.9653 257.661 18.3116 255.644L18.333 255.612C19.6855 253.585 21.0273 251.575 22.35 249.569L23.8613 247.277L21.1162 247.243C3.70131 247.029 -13.6854 249.066 -30.7872 253.324L-31.5201 253.506L-31.8099 254.203C-33.784 258.953 -35.834 263.806 -37.9361 268.782C-44.909 285.289 -52.4549 303.152 -59.7034 323.097L-60.9097 326.416L-57.6835 324.979C-51.5402 322.244 -45.7064 319.913 -40.1821 317.983L-39.5501 317.762L-39.2923 317.145C-31.2602 297.893 -22.7917 280.957 -14.846 265.368C-5.6149 263.601 3.69421 262.622 13.0218 262.436Z" stroke="#A5D936" stroke-width="3"/>
<path d="M78.5846 266.962L81.1586 265.855L78.811 264.326C75.1614 261.95 71.4209 259.812 67.6032 257.922L66.9166 257.582L66.2387 257.939C56.9127 262.85 47.8151 268.456 38.9904 274.725C41.7045 267.301 44.1791 259.732 46.4077 252.038L46.8504 250.509L45.2987 250.157C39.8908 248.931 34.434 248.094 28.9534 247.65L27.4865 247.532L27.3399 248.996C26.0706 261.678 22.5386 275.013 18.4175 290.195C17.0426 291.29 15.5982 292.211 14.1039 292.949C13.0381 293.471 11.924 293.715 10.8161 293.682C9.68889 293.573 8.56937 293.211 7.50576 292.594L6.4176 291.964L5.60683 292.925C1.8084 297.43 -1.92143 302.149 -5.5829 307.082L-6.4536 308.255L-5.3039 309.156C-3.06016 310.915 -0.454126 311.9 2.24813 311.95L2.28458 311.951L2.32102 311.95C6.53609 311.824 10.6612 310.533 14.4209 308.19C19.432 305.198 24.2416 301.679 28.8022 297.669C44.3714 284.79 61.0933 274.478 78.5846 266.962Z" stroke="#A5D936" stroke-width="3"/>
<path d="M63.4318 334.811L63.4331 334.82L63.4346 334.828C64.3074 339.904 66.5801 344.467 69.9085 347.624C72.8665 350.528 76.3695 352.471 80.1183 353.226L80.1183 353.227L80.1301 353.229C84.0251 353.981 87.9957 353.716 91.8019 352.456L92.7867 352.13L92.8292 351.093C93.0129 346.604 93.365 342.193 93.8554 337.819L94.0934 335.697L92.016 336.193C87.0858 337.372 83.8093 336.627 81.5385 334.21L81.5186 334.189L81.498 334.169C80.2381 332.928 79.3374 331.02 79.082 328.815C78.8876 326.345 79.3465 323.882 80.3548 321.837L80.3603 321.826L80.3656 321.815C81.7455 318.897 83.5613 316.412 85.6803 314.502L85.7021 314.482L85.7231 314.461C87.9858 312.255 90.5129 310.615 93.1773 309.598L93.191 309.593L93.2045 309.587C95.4424 308.683 97.7897 308.441 100.09 308.867L100.097 308.868L100.105 308.87C101.901 309.182 103.651 310.205 105.099 311.9C107.289 314.526 107.727 318.175 106.042 323.213L105.362 325.249L107.507 325.188C110.319 325.109 113.121 325.135 115.965 325.162C117.406 325.175 118.857 325.189 120.326 325.189H121.311L121.703 324.285C123.375 320.424 123.949 315.953 123.349 311.63C122.751 307.321 121.012 303.357 118.366 300.447C114.989 296.454 110.74 293.769 106.111 292.807C100.915 291.663 95.5892 292.005 90.5151 293.802C84.9342 295.693 79.7279 299.004 75.1911 303.513C70.8788 307.517 67.4107 312.799 65.0586 318.881C63.136 323.812 62.5679 329.426 63.4318 334.811Z" stroke="#A5D936" stroke-width="3"/>
<path d="M97.2787 372.764L98.2021 373.639L99.2166 372.871C101.81 370.907 104.522 369.111 107.369 367.317C111.774 371.622 116.389 375.879 121.291 380.013C120.283 383.391 119.462 386.857 118.836 390.386L118.677 391.281L119.397 391.836C123.484 394.986 127.788 398.04 132.306 400.998L134.455 402.404L134.624 399.841C135.897 380.568 143.961 363.475 154.483 346.054L155.103 345.028L154.24 344.197C151.198 341.269 148.287 338.216 145.446 335.094L144.763 334.344L143.813 334.698C142.486 335.192 141.161 335.684 139.84 336.175C121.004 343.166 102.763 349.938 87.6414 360.904L86.2227 361.933L87.4582 363.176C90.629 366.366 93.9026 369.562 97.2787 372.764ZM126.749 365.595C124.72 363.714 122.738 361.799 120.803 359.855C124.574 357.976 128.436 356.184 132.426 354.425C130.402 358.033 128.508 361.761 126.749 365.595Z" stroke="#A5D936" stroke-width="3"/>
<path d="M211.699 386.708L211.701 386.782C211.758 388.736 211.51 390.689 210.968 392.526C210.431 394.345 209.613 396.025 208.548 397.46C206.074 401.291 202.877 404.306 199.216 406.187C194.991 408.367 190.469 409.494 185.893 409.492C180.711 409.552 175.563 408.524 170.651 406.457C170.65 406.457 170.65 406.457 170.65 406.457L171.232 405.074C168.031 403.733 164.943 402.338 161.968 400.89L211.699 386.708ZM211.699 386.708L211.689 386.634C211.458 384.836 210.929 383.109 210.129 381.571C209.332 380.041 208.276 378.719 207.012 377.716C203.744 374.978 200.132 372.948 196.32 371.727C189.493 369.16 182.839 365.845 176.431 361.815L175.437 361.19L174.591 362.005C160.371 375.711 147.631 388.692 139.981 404.148L139.361 405.399L140.565 406.106C145.182 408.821 150.022 411.437 155.144 413.892L156.542 414.562L157.166 413.142C158.753 409.528 160.547 406.079 162.531 402.826L211.699 386.708ZM189.496 391.285L189.487 391.296L189.479 391.307C188.113 393.158 186.378 394.274 184.593 394.606C182.137 395.056 179.628 394.735 177.26 393.651L177.239 393.641L177.216 393.631C175.079 392.734 172.989 391.805 170.948 390.843C173.553 387.517 176.345 384.189 179.282 380.934C181.451 381.956 183.675 382.919 185.95 383.848L185.958 383.852L185.966 383.855C188.786 384.969 190.096 386.119 190.532 387.19C190.947 388.212 190.832 389.543 189.496 391.285Z" stroke="#A5D936" stroke-width="3"/>
<path d="M223.959 430.777L223.98 430.787L224 430.797C231.569 434.352 239.551 436.253 247.62 436.411C256.793 436.9 265.968 435.662 274.859 432.739C282.685 430.295 290.074 426 296.662 420.094L296.67 420.087L296.678 420.08C302.521 414.691 306.123 408.4 307.481 402.039C308.217 399.193 308.292 396.136 307.699 393.239C307.106 390.341 305.861 387.689 304.078 385.635C300.563 381.37 295.36 378.798 288.88 377.45L288.857 377.445L288.834 377.441C281.559 376.164 274.189 376.052 266.892 377.108C259.17 377.961 251.516 379.623 244.004 382.077C237.375 384.167 230.939 387.154 224.801 390.985L224.789 390.993L224.777 391.001C219.191 394.641 214.778 398.797 212.175 403.798C209.57 408.805 209.057 413.838 211.241 418.724C213.384 423.516 217.689 427.596 223.959 430.777ZM262.224 418.901L262.215 418.904L262.206 418.908C258.288 420.265 254.251 420.906 250.209 420.817L250.184 420.817L250.159 420.817C246.67 420.854 243.191 420.132 239.863 418.67L239.823 418.652L239.781 418.637C237.78 417.895 235.946 416.218 234.678 413.779C234.282 412.803 234.092 411.684 234.144 410.549C234.197 409.393 234.498 408.302 234.988 407.4L235.004 407.371L235.019 407.34C236.45 404.402 238.42 402.048 240.699 400.473L240.723 400.457L240.746 400.44C243.691 398.232 246.834 396.549 250.093 395.426L250.093 395.426L250.106 395.422C253.739 394.134 257.461 393.353 261.212 393.09L261.237 393.088L261.263 393.086C264.551 392.742 267.863 393.049 271.09 393.999L271.125 394.009L271.16 394.017C273.179 394.506 275.103 395.902 276.556 398.101C277.075 399.061 277.404 400.207 277.492 401.426C277.58 402.665 277.413 403.905 277.018 405.012L277.008 405.04L276.999 405.069C275.948 408.429 274.155 411.234 271.913 413.148L271.899 413.161L271.885 413.173C268.929 415.829 265.656 417.761 262.224 418.901Z" stroke="#A5D936" stroke-width="3"/>
<path d="M424.4 366.377C427.785 363.722 430.942 360.61 433.819 357.093L433.833 357.076L433.846 357.059C437.355 352.508 439.267 347.87 439.269 343.414C439.301 339.565 437.978 336.547 435.219 334.601C432.556 332.723 428.787 332.015 424.261 332.15C415.167 332.421 402.893 336.433 388.306 342.588C368.667 350.803 350.675 357.527 334.156 362.844L333.348 363.104L333.155 363.931C327.895 386.469 324.046 407.99 322.851 429.719L322.751 431.53L324.549 431.288C344.022 428.666 365.143 424.794 388.08 419.493C405.185 415.562 419.401 409.767 429.782 402.501C440.102 395.276 445.861 387.178 445.861 378.959C445.861 376.208 445.217 373.798 443.862 371.821C442.505 369.842 440.515 368.414 438.027 367.492C434.457 366.166 429.852 365.853 424.4 366.377ZM384.564 361.954L384.566 361.954C389.505 360.099 392.941 359.408 395.014 359.648C396.006 359.762 396.504 360.069 396.764 360.379C397.025 360.69 397.25 361.245 397.193 362.278C397.085 364.25 395.963 366.277 393.485 368.287C391 370.303 387.274 372.193 382.285 373.853C375.489 376.1 368.876 378.196 362.446 380.14C362.886 376.562 363.334 372.967 363.792 369.357C370.529 367.086 377.453 364.618 384.564 361.954ZM401.901 390.495L401.871 391.332C401.577 393.145 400.425 394.923 398.169 396.62C395.556 398.586 391.584 400.339 386.219 401.753C377.105 404.153 368.286 406.322 359.761 408.259C360.018 404.493 360.316 400.715 360.656 396.924C369.369 394.638 378.399 392.079 387.747 389.247L387.754 389.245C393.075 387.604 396.857 387.063 399.2 387.439C400.337 387.622 400.978 387.996 401.337 388.409C401.685 388.808 401.938 389.438 401.901 390.495ZM386.601 403.203C396.487 400.598 402.181 396.755 403.26 392.048L359.656 409.821C368.335 407.854 377.317 405.648 386.601 403.203Z" stroke="#A5D936" stroke-width="3"/>
<path d="M25.9998 332.794L27.3977 331.22L25.4536 330.413C22.0919 329.017 18.674 327.853 15.2144 326.928L14.275 326.677L13.6623 327.432C5.82137 337.094 -1.26447 347.727 -7.49722 359.173C-6.42014 348.058 -4.7949 337.043 -2.63113 326.196L-2.27451 324.409L-4.09743 324.403C-8.65554 324.388 -13.21 324.716 -17.7382 325.385L-18.8589 325.55L-19.0064 326.673C-21.7279 347.4 -22.9282 368.416 -22.5911 389.437C-23.5359 391.535 -24.6767 393.461 -25.9829 395.17L-25.9891 395.178L-25.9952 395.186C-26.7311 396.176 -27.6325 396.736 -28.5163 396.902C-29.5401 396.952 -30.5863 396.647 -31.5521 395.963L-33.2364 394.771L-33.8508 396.741C-36.2278 404.363 -38.4485 412.353 -40.5137 420.71L-40.7147 421.523L-40.1281 422.12C-37.706 424.588 -34.5908 425.894 -31.3608 425.643L-31.3261 425.641L-31.2916 425.636C-27.2011 425.128 -23.571 421.807 -20.2303 416.677L-20.2147 416.653L-20.1999 416.628C-16.3261 410.15 -13.0527 403.109 -10.4439 395.65C-0.307735 369.058 12.0631 348.486 25.9998 332.794Z" stroke="#A5D936" stroke-width="3"/>
<path d="M53.0573 352.307L53.0389 352.31L53.0206 352.313C48.1207 353.207 43.6603 356.143 40.2759 360.558C35.9955 366.055 32.9409 372.906 31.3964 380.394C29.5269 388.74 29.2094 397.54 30.4676 406.073C31.5969 414.084 34.168 421.653 37.9877 428.159C41.1973 433.787 45.6699 438.102 50.8761 440.468C54.5323 442.344 58.632 442.338 62.2854 440.45L62.3454 440.418L62.4024 440.382C65.6713 438.3 68.2008 434.854 69.6372 430.716L69.8381 430.137L69.5764 429.583C66.6808 423.454 64.2423 417.46 62.0771 411.597L60.9692 408.597L59.3708 411.366C58.0178 413.711 56.7202 415.108 55.51 415.742C54.4228 416.311 53.2632 416.343 51.808 415.552C49.8144 414.43 48.0643 412.502 46.8457 409.959L46.8392 409.946L46.8325 409.932C45.2657 406.822 44.2573 403.267 43.8981 399.538L43.8973 399.53C43.464 395.274 43.6771 390.949 44.523 386.804L44.5262 386.788L44.529 386.773C45.212 383.03 46.5206 379.552 48.3451 376.586L48.3491 376.579L48.3531 376.573C49.6104 374.481 51.3115 373.085 53.127 372.491C54.5852 372.11 56.1411 372.464 57.4946 373.606L57.5116 373.621L57.529 373.635C60.1967 375.754 61.8593 379.919 62.796 386.983L63.1118 389.364L65.1128 388.035C68.1649 386.008 71.3147 384.252 74.5408 382.778L75.475 382.351L75.4148 381.325C75.1246 376.388 74.1445 371.554 72.5176 367.06L72.5145 367.052L72.5112 367.043C70.918 362.806 68.497 359.132 65.4487 356.403C61.9262 353.122 57.5029 351.61 53.0573 352.307Z" stroke="#A5D936" stroke-width="3"/>
<path d="M89.0948 454.153C89.0564 450.019 89.2329 445.888 89.6228 441.787C95.2854 444.903 101.266 448.072 107.461 451.227C109.847 457.07 112.453 462.759 115.271 468.27L115.514 468.745L116.003 468.96C121.231 471.258 126.617 473.557 132.205 475.837L136.371 477.536L134.058 473.677C116.109 443.724 109.363 418.978 110.046 397.598L110.071 396.825L109.455 396.356C105.613 393.432 101.92 390.489 98.3769 387.526L97.3404 386.66L96.3705 387.6C82.8328 400.728 74.0679 419.061 72.7567 447.701L72.7113 448.692L73.6064 449.122L86.9462 455.52L89.1172 456.561L89.0948 454.153ZM92.6672 424.996C93.8578 420.919 95.3807 417.03 97.2057 413.397C97.8799 418.897 98.9005 424.317 100.258 429.603C97.6798 428.064 95.154 426.527 92.6672 424.996Z" stroke="#A5D936" stroke-width="3"/>
<path d="M161.432 484.057C159.286 479.055 157.396 473.873 155.774 468.545C158.471 469.539 161.215 470.533 164.007 471.528C169.035 473.482 174.297 474.292 179.554 473.911L179.589 473.909L179.623 473.905C183.99 473.384 187.336 471.61 189.471 468.594L189.485 468.574L189.499 468.553C190.536 466.98 191.265 465.14 191.647 463.181C192.027 461.234 192.059 459.204 191.74 457.24C191.214 452.647 189.655 448.324 187.225 444.821L187.224 444.821C184.341 440.668 180.894 437.201 177.036 434.6C172.401 431.373 167.523 428.751 162.476 426.778C154.008 423.356 145.683 419.355 137.534 414.791L135.902 413.877L135.364 415.669C130.287 432.592 131.243 452.519 141.36 478.888L141.599 479.511L142.221 479.75C147.808 481.903 153.589 484.009 159.565 486.067L162.767 487.169L161.432 484.057ZM167.763 455.205L167.128 455.48C165.89 455.759 163.852 455.539 160.88 454.292L160.85 454.28L160.82 454.269C157.813 453.158 154.87 451.997 151.993 450.786C151.432 446.387 151.249 441.921 151.447 437.47C153.836 438.559 156.298 439.583 158.78 440.588L158.816 440.602L158.852 440.615C161.572 441.558 164.152 443.199 166.437 445.472L166.442 445.477C167.142 446.167 167.749 447.054 168.211 448.098C168.672 449.142 168.974 450.31 169.09 451.532L169.096 451.595L169.107 451.657C169.25 452.451 169.156 453.279 168.866 453.957C168.573 454.639 168.145 455.039 167.763 455.205Z" stroke="#A5D936" stroke-width="3"/>
<path d="M211.801 486.486L211.809 486.495L211.817 486.503C218.29 493.106 225.506 498.41 233.227 502.224C241.858 506.653 250.928 509.514 260.179 510.719C268.512 512.071 276.962 511.452 285.116 508.895L285.137 508.888L285.157 508.881C292.282 506.419 297.704 502.421 301.339 497.033C303.118 494.547 304.375 491.552 305.02 488.325C305.667 485.093 305.685 481.706 305.073 478.464C303.879 471.642 300.431 465.698 294.744 460.631L294.725 460.615L294.706 460.599C288.228 455.203 281.053 451.314 273.503 449.128C264.681 446.392 255.675 444.755 246.609 444.24C238.349 443.511 230.054 443.861 221.849 445.284L221.83 445.287L221.812 445.291C214.748 446.703 209.164 449.051 205.331 452.85C203.411 454.553 202.016 456.965 201.291 459.689C200.563 462.422 200.533 465.378 201.202 468.132C202.44 474.303 206.1 480.493 211.801 486.486ZM265.357 491.229L265.325 491.238L265.294 491.248C261.638 492.425 257.858 492.725 254.129 492.139L254.107 492.136L254.085 492.133C249.84 491.594 245.662 490.294 241.669 488.261L241.656 488.254L241.643 488.248C238.082 486.521 234.738 484.05 231.744 480.916L231.724 480.895L231.703 480.874C229.452 478.694 227.728 475.615 226.818 472.026L226.816 472.019L226.814 472.012C226.497 470.812 226.45 469.51 226.683 468.272C226.914 467.044 227.403 465.967 228.054 465.154C230.036 462.921 232.42 461.541 234.893 461.095L234.933 461.088L234.972 461.078C238.742 460.188 242.582 459.955 246.394 460.385L246.417 460.387L246.439 460.389C250.624 460.734 254.768 461.724 258.786 463.344L258.801 463.35L258.816 463.356C262.201 464.636 265.402 466.73 268.248 469.556L268.26 469.568L268.273 469.58C270.453 471.648 272.095 474.658 272.874 478.172L272.877 478.185L272.88 478.198C273.208 479.563 273.279 481.017 273.084 482.432C272.89 483.835 272.444 485.135 271.8 486.227C270.072 488.844 267.79 490.562 265.357 491.229Z" stroke="#A5D936" stroke-width="3"/>
<path d="M360.168 467.681C359.846 463.994 359.588 460.315 359.381 456.636C366.449 455.785 373.689 454.792 381.1 453.658L360.168 467.681ZM360.168 467.681C367.11 467.016 374.214 466.24 381.48 465.353L381.481 465.353C386.609 464.73 390.302 463.61 392.644 462.149C394.922 460.728 395.805 459.082 395.726 457.229C395.684 456.254 395.395 455.548 394.929 455.009C394.449 454.454 393.681 453.962 392.5 453.61C390.088 452.89 386.326 452.861 381.1 453.658L360.168 467.681ZM393.634 513.348L393.55 511.85L393.634 513.348C409.236 512.475 421.966 509.326 431.211 504.038C440.421 498.771 445.862 491.763 445.862 483.521C445.862 477.982 443.342 473.657 438.424 470.762C434.814 468.624 429.979 467.288 424.201 466.665C427.591 464.701 430.78 462.208 433.697 459.243L433.713 459.226L433.729 459.21C437.274 455.381 439.146 451.006 439.146 446.541V446.538C439.137 442.666 437.707 439.457 434.904 437.043C432.157 434.676 428.2 433.163 423.263 432.365C413.403 430.772 399.923 432.024 383.902 435.027L383.901 435.027C362.371 439.064 342.42 441.914 323.941 443.72L322.574 443.854L322.587 445.227C322.798 468.678 326.425 491.869 333.278 513.569L333.604 514.601L334.686 514.618C353.127 514.9 372.725 514.517 393.634 513.348ZM388.547 482.197L388.556 482.196L388.565 482.195C393.823 481.589 397.642 481.797 400.122 482.677C401.339 483.108 402.167 483.678 402.707 484.331C403.164 484.884 403.47 485.564 403.59 486.42L403.617 486.855C403.749 488.949 402.88 490.652 400.749 492.02C398.524 493.447 394.951 494.468 389.895 494.883C380.989 495.57 372.35 496.112 363.923 496.509C363.231 492.477 362.609 488.482 362.057 484.505C370.633 483.902 379.462 483.133 388.547 482.197Z" stroke="#A5D936" stroke-width="3"/>
<path d="M-16.8408 615.981C-13.891 615.992 -11.3773 614.692 -9.3563 612.327C-7.37354 610.006 -5.85413 606.658 -4.72149 602.457C-2.45349 594.046 -1.8133 581.951 -2.19969 567.123C-3.22764 521.212 -1.25712 482.314 3.69653 450.413L3.93867 448.853L2.36894 448.691C-1.74054 448.265 -5.87748 447.979 -9.96087 447.918L-11.254 447.899L-11.4635 449.175C-14.7203 469.014 -16.9584 489.109 -18.1643 509.327C-23.2858 489.993 -27.3065 470.187 -30.1914 450.07L-30.398 448.63L-31.844 448.793C-36.5407 449.321 -41.3112 450.093 -46.1864 451.108L-47.5731 451.397L-47.3644 452.798C-42.9447 482.461 -35.1499 517.251 -21.1419 558.508C-21.2714 561.852 -21.8558 565.134 -22.8644 568.199L-22.8664 568.205C-23.1179 568.981 -23.5174 569.596 -23.9745 570.009C-24.396 570.39 -24.8415 570.58 -25.2599 570.624C-27.1555 570.445 -29.0258 569.641 -30.6904 568.228L-33.2854 566.027L-33.1598 569.428C-32.7062 581.704 -32.0259 594.409 -31.1191 607.542L-31.0789 608.124L-30.6566 608.526C-25.7387 613.205 -21.0326 615.98 -16.8408 615.981ZM-16.8408 615.981C-16.84 615.981 -16.8393 615.981 -16.8385 615.981V614.481L-16.8447 615.981C-16.8434 615.981 -16.8421 615.981 -16.8408 615.981Z" stroke="#A5D936" stroke-width="3"/>
<path d="M110.22 614.875C113.443 614.874 116.212 614.048 118.426 612.353C120.637 610.66 122.164 608.2 123.089 605.16C124.92 599.141 124.383 590.896 122.176 581.134L122.088 580.748L121.821 580.455C113.603 571.431 105.899 562.551 98.7112 553.813L95.299 549.665L96.0683 554.981C96.903 560.749 96.8669 564.957 96.0683 567.607C95.6761 568.909 95.1357 569.712 94.5435 570.178C93.9769 570.623 93.2193 570.873 92.1336 570.794L92.1274 570.794C89.4382 570.61 86.018 568.758 82.0155 564.706C77.505 559.987 73.5403 554.418 70.255 548.172L70.251 548.165L70.2469 548.157C66.361 540.973 63.1087 533.232 60.5544 525.083L60.5494 525.067L60.5439 525.051C58.2891 518.389 56.7538 511.345 55.9845 504.122C55.4997 498.4 56.0045 494.585 57.0959 492.295L57.0995 492.288C57.5764 491.273 58.2589 490.586 58.9658 490.243C59.6528 489.91 60.3768 489.891 61.0628 490.177L61.1484 490.213L61.2378 490.238C63.107 490.758 65.2967 492.288 67.9501 495.211C70.5823 498.11 73.5425 502.235 76.9838 507.7L79.3242 511.417L79.7462 507.045C80.3606 500.68 81.1435 494.8 82.0637 489.344L82.1534 488.812L81.8836 488.345C77.8425 481.345 73.2775 474.876 68.2529 469.035C64.5175 464.508 60.0158 461.103 55.0663 459.113L55.0307 459.099L54.9943 459.086C52.4132 458.199 49.9316 458.001 47.6336 458.724C45.3272 459.45 43.3941 461.043 41.8083 463.386C38.6788 468.009 36.8892 475.321 36.7487 485.634C36.6074 496.005 38.2406 508.703 42.4685 524.137C46.7923 539.922 52.8186 554.833 60.371 568.424C67.3325 581.298 75.827 592.666 85.5458 602.098L85.5544 602.106L85.5631 602.114C94.4055 610.426 102.903 614.938 110.22 614.875ZM110.22 614.875C110.218 614.875 110.216 614.875 110.213 614.875V613.375M110.22 614.875C110.222 614.875 110.225 614.875 110.227 614.875L110.213 613.375M110.213 613.375C103.482 613.435 95.3448 609.25 86.5905 601.021L80.9397 565.751C85.0312 569.896 88.7829 572.069 92.0253 572.29C97.1233 572.659 98.9353 567.392 97.902 557.544C97.397 556.935 96.8945 556.327 96.3944 555.719L97.5528 554.766L99.0374 554.551C99.1555 555.367 99.2581 556.162 99.3447 556.934C106.034 564.992 113.157 573.169 120.712 581.465C122.905 591.163 123.368 599.09 121.654 604.723C119.94 610.357 116.142 613.375 110.213 613.375Z" stroke="#A5D936" stroke-width="3"/>
<path d="M162.308 609.54C157.669 599.631 153.378 590.202 149.438 581.251C157.055 581.869 164.761 582.509 172.554 583.168C180.245 592.317 188.508 601.776 197.341 611.544L197.781 612.031L198.439 612.038L217.476 612.219L221.08 612.253L218.565 609.672C171.317 561.189 138.411 519.939 117.76 484.972L117.491 484.516L116.995 484.33C111.984 482.453 107.087 480.603 102.304 478.78L99.9449 477.881L100.283 480.383C104.447 511.179 117.275 552.909 141.035 610.586L141.414 611.506L142.409 611.515L160.937 611.676L163.318 611.696L162.308 609.54ZM135.86 548.974C132.377 540.164 129.136 531.196 126.145 522.086C132.324 531.265 139.154 540.802 146.672 550.716L135.86 548.974Z" stroke="#A5D936" stroke-width="3"/>
<path d="M247.893 610.072C238.942 599.493 230.691 589.449 223.142 579.941L231.092 580.762C231.095 580.762 231.098 580.762 231.1 580.763C237.311 581.469 241.787 580.22 244.219 576.801C246.628 573.415 246.269 568.734 244.411 563.48C242.517 558.128 238.884 551.975 233.816 545.087C224.166 531.804 212.585 521.095 199.719 513.593C193.713 510.075 187.431 507.387 180.979 505.577L180.974 505.576C170.827 502.766 161.153 499.776 151.906 496.743L148.493 495.624L150.096 498.838C164.756 528.231 189.366 564.825 227.223 611.781L227.667 612.332L228.374 612.339L246.732 612.54L250.013 612.576L247.893 610.072ZM215.591 552.206L215.589 552.249V552.291C215.589 552.626 215.515 552.789 215.462 552.869C215.411 552.944 215.306 553.055 215.041 553.157C214.439 553.39 213.291 553.467 211.41 553.128L211.403 553.127L211.396 553.126L201.593 551.458C195.015 542.382 189.186 533.842 184.043 525.796C186.277 526.344 188.536 526.883 190.818 527.413C194.558 528.323 198.164 530.102 201.464 532.687C205.069 535.517 208.358 539.017 211.225 543.086C212.745 545.306 213.882 547.195 214.619 548.766C215.373 550.372 215.632 551.486 215.591 552.206Z" stroke="#A5D936" stroke-width="3"/>
<path d="M309.436 607.953L309.436 607.953L309.448 607.959C319.482 612.913 328.046 615.478 335.264 615.478C338.864 615.478 341.86 614.879 344.287 613.645C346.737 612.398 348.524 610.545 349.749 608.191C352.156 603.564 352.31 597.587 350.956 590.634L350.952 590.612L350.947 590.591C349.058 582.207 345.841 574.41 341.488 567.706C336.157 559.009 329.719 551.535 322.439 545.614C314.267 538.944 305.471 533.635 296.258 529.822C287.015 525.866 277.464 523.219 267.773 521.931L267.772 521.931C258.535 520.713 251.141 521.109 246.018 523.509C243.419 524.726 241.429 526.467 240.24 528.824C239.057 531.169 238.748 533.964 239.211 537.154C240.133 543.508 244.241 551.288 251.525 560.617L251.531 560.625L251.536 560.632C259.731 570.871 268.757 579.935 278.46 587.661C288.255 595.7 298.628 602.496 309.436 607.953ZM315.116 567.569L315.132 567.593L315.149 567.615C317.765 571.107 319.867 575.225 321.335 579.761C322.25 583.102 322.136 585.376 321.349 586.856L321.183 587.117C320.315 588.48 318.638 589.362 315.32 589.183C311.165 588.781 307.075 587.488 303.213 585.344L303.197 585.335L303.181 585.326C298.04 582.633 293.106 579.293 288.447 575.35L288.441 575.345L288.436 575.34C283.63 571.352 279.151 566.711 275.076 561.491C271.246 556.519 269.103 552.542 268.389 549.439C267.677 546.345 268.389 544.653 269.706 543.749C271.288 542.663 274.011 542.109 278.066 542.611C282.482 543.22 286.828 544.569 290.996 546.633L291.004 546.636L291.011 546.64C295.615 548.858 300.018 551.761 304.132 555.299L304.136 555.302C308.175 558.751 311.867 562.872 315.116 567.569Z" stroke="#A5D936" stroke-width="3"/>
<path d="M429.949 568.061C432.512 566.467 434.844 564.338 436.851 561.767C438.087 560.194 439.047 558.328 439.685 556.292C440.325 554.255 440.633 552.078 440.598 549.892L440.598 549.887C440.522 546.101 439.372 542.744 437.099 539.899C434.841 537.073 431.544 534.838 427.3 533.151C418.862 529.798 407.13 528.618 393.307 529.022C374.795 529.544 357.235 529.544 340.624 529.022L338.371 528.951L339.176 531.057C348.702 555.987 362.731 582.884 382.555 612.992L382.998 613.665L383.803 613.667L417.847 613.788H417.853C426.518 613.788 432.853 611.58 437.823 606.973C440.285 604.89 442.283 602.083 443.672 598.823C445.066 595.551 445.814 591.901 445.862 588.191C445.92 585.624 445.512 583.066 444.664 580.723C443.818 578.386 442.549 576.306 440.936 574.671C438.243 571.797 434.536 569.641 429.949 568.061ZM393.828 548.057V548.057L393.842 548.057C398.037 548.018 401.119 548.613 403.219 549.728C405.24 550.801 406.412 552.38 406.821 554.595C407.241 556.873 406.687 558.254 405.505 559.167C404.167 560.2 401.736 560.871 397.891 560.871C392.303 560.858 386.801 560.798 381.387 560.691C379.827 556.453 378.358 552.241 376.981 548.057H376.985H377.022H377.058H377.094H377.131H377.167H377.204H377.24H377.277H377.313H377.349H377.386H377.422H377.459H377.495H377.532H377.568H377.604H377.641H377.677H377.714H377.75H377.787H377.823H377.86H377.896H377.933H377.969H378.006H378.042H378.079H378.115H378.151H378.188H378.224H378.261H378.297H378.334H378.37H378.407H378.443H378.48H378.517H378.553H378.59H378.626H378.663H378.699H378.736H378.772H378.809H378.845H378.882H378.918H378.955H378.991H379.028H379.065H379.101H379.138H379.174H379.211H379.247H379.284H379.32H379.357H379.394H379.43H379.467H379.503H379.54H379.577H379.613H379.65H379.686H379.723H379.76H379.796H379.833H379.869H379.906H379.943H379.979H380.016H380.053H380.089H380.126H380.162H380.199H380.236H380.272H380.309H380.346H380.382H380.419H380.456H380.492H380.529H380.566H380.602H380.639H380.676H380.712H380.749H380.786H380.822H380.859H380.896H380.932H380.969H381.006H381.043H381.079H381.116H381.153H381.189H381.226H381.263H381.299H381.336H381.373H381.41H381.446H381.483H381.52H381.557H381.593H381.63H381.667H381.704H381.74H381.777H381.814H381.851H381.887H381.924H381.961H381.998H382.034H382.071H382.108H382.145H382.182H382.218H382.255H382.292H382.329H382.366H382.402H382.439H382.476H382.513H382.55H382.586H382.623H382.66H382.697H382.734H382.771H382.807H382.844H382.881H382.918H382.955H382.992H383.028H383.065H383.102H383.139H383.176H383.213H383.25H383.286H383.323H383.36H383.397H383.434H383.471H383.508H383.545H383.581H383.618H383.655H383.692H383.729H383.766H383.803H383.84H383.877H383.914H383.95H383.987H384.024H384.061H384.098H384.135H384.172H384.209H384.246H384.283H384.32H384.357H384.394H384.431H384.468H384.505H384.541H384.578H384.615H384.652H384.689H384.726H384.763H384.8H384.837H384.874H384.911H384.948H384.985H385.022H385.059H385.096H385.133H385.17H385.207H385.244H385.281H385.318H385.355H385.392H385.429H385.466H385.503H385.54H385.577H385.614H385.651H385.689H385.726H385.763H385.8H385.837H385.874H385.911H385.948H385.985H386.022H386.059H386.096H386.133H386.17H386.207H386.244H386.282H386.319H386.356H386.393H386.43H386.467H386.504H386.541H386.578H386.615H386.653H386.69H386.727H386.764H386.801H386.838H386.875H386.912H386.95H386.987H387.024H387.061H387.098H387.135H387.172H387.21H387.247H387.284H387.321H387.358H387.395H387.433H387.47H387.507H387.544H387.581H387.618H387.656H387.693H387.73H387.767H387.804H387.842H387.879H387.916H387.953H387.99H388.028H388.065H388.102H388.139H388.177H388.214H388.251H388.288H388.325H388.363H388.4H388.437H388.474H388.512H388.549H388.586H388.623H388.661H388.698H388.735H388.772H388.81H388.847H388.884H388.922H388.959H388.996H389.033H389.071H389.108H389.145H389.183H389.22H389.257H389.295H389.332H389.369H389.406H389.444H389.481H389.518H389.556H389.593H389.63H389.668H389.705H389.742H389.78H389.817H389.854H389.892H389.929H389.966H390.004H390.041H390.079H390.116H390.153H390.191H390.228H390.265H390.303H390.34H390.378H390.415H390.452H390.49H390.527H390.564H390.602H390.639H390.677H390.714H390.752H390.789H390.826H390.864H390.901H390.939H390.976H391.013H391.051H391.088H391.126H391.163H391.201H391.238H391.276H391.313H391.35H391.388H391.425H391.463H391.5H391.538H391.575H391.613H391.65H391.688H391.725H391.763H391.8H391.838H391.875H391.913H391.95H391.988H392.025H392.063H392.1H392.138H392.175H392.213H392.25H392.288H392.325H392.363H392.4H392.438H392.475H392.513H392.55H392.588H392.626H392.663H392.701H392.738H392.776H392.813H392.851H392.888H392.926H392.964H393.001H393.039H393.076H393.114H393.151H393.189H393.227H393.264H393.302H393.339H393.377H393.415H393.452H393.49H393.527H393.565H393.603H393.64H393.678H393.716H393.753H393.791H393.828ZM417.787 586.769L417.788 586.777C418.337 589.442 417.918 591.033 417.067 591.969C416.181 592.943 414.453 593.634 411.416 593.606C405.838 593.53 400.335 593.454 394.863 593.344C392.693 588.587 390.635 583.885 388.689 579.238C394.462 579.378 400.341 579.504 406.282 579.504C409.863 579.534 412.504 580.215 414.342 581.407C416.132 582.57 417.294 584.303 417.787 586.769Z" stroke="#A5D936" stroke-width="3"/>
</svg>
