<svg width="291" height="89" viewBox="0 0 291 89" fill="none" xmlns="http://www.w3.org/2000/svg">
<g opacity="0.1">
<path d="M13.5695 18.6098C12.5537 19.9731 11.5544 21.0224 10.5797 21.6009C9.60505 22.1794 8.64684 22.444 7.70509 22.3946C6.60638 22.337 5.68931 21.8168 5.10261 20.9991C4.5159 20.1814 4.26778 18.9093 4.35004 17.3397C4.44052 15.6131 4.84495 13.903 5.712 12.3746C6.42209 10.8379 7.42963 9.63157 8.73465 8.75562C10.0397 7.87968 11.32 7.47462 12.8896 7.55688C13.5175 7.58978 14.1453 7.62269 14.6079 7.80433C15.0706 7.98597 15.6902 8.17582 16.1446 8.51441L17.1186 4.94551C17.292 4.63982 17.3167 4.16893 17.3331 3.85501C17.3578 3.38413 17.5312 3.07842 17.5477 2.76451C17.5641 2.45059 17.5724 2.29364 17.4236 2.12845C17.2749 1.96327 17.1262 1.79811 16.9692 1.78989C16.8122 1.78166 16.3496 1.60002 15.8787 1.57534L16.0768 0.798772L19.852 0.839224L20.7938 0.888579L16.1384 17.6427C15.9321 18.5762 15.734 19.3528 15.7093 19.8237C15.6846 20.2946 15.6764 20.4515 15.8169 20.7736C15.9657 20.9388 16.1144 21.104 16.4283 21.1205C16.7422 21.1369 17.0644 20.9964 17.3865 20.8559C17.7169 20.5584 18.2124 20.1122 18.8732 19.5173L19.7738 20.3514C18.7827 21.2438 17.9568 21.9875 17.3125 22.2685C16.66 22.7065 15.8669 22.8223 15.2391 22.7894C14.6113 22.7565 14.1486 22.5749 13.7024 22.0794C13.4132 21.592 13.124 21.1047 13.1651 20.3199C13.198 19.6921 13.3796 19.2294 13.5695 18.6098ZM14.9561 13.1738C15.1542 12.3973 15.1871 11.7694 15.22 11.1416C15.2611 10.3568 15.1371 9.72074 14.8396 9.39037C14.5421 9.06 13.9225 8.87011 13.1377 8.82898C12.039 8.7714 11.0726 9.19295 10.2467 9.93661C9.42074 10.6803 8.7271 11.903 8.18219 13.291C7.63728 14.6789 7.24933 16.0751 7.1753 17.4877C7.11772 18.5864 7.23355 19.3795 7.52279 19.8668C7.81203 20.3541 8.26645 20.6927 8.89428 20.7256C9.2082 20.7421 9.52213 20.7585 9.84427 20.618C10.1664 20.4775 10.4886 20.337 10.8189 20.0395C11.1493 19.7421 11.4797 19.4446 11.9752 18.9984C12.3138 18.544 12.6524 18.0896 12.9828 17.7921C13.3214 17.3377 13.66 16.8832 13.8498 16.2636C14.1966 15.6523 14.3947 14.8757 14.5928 14.0991L14.9561 13.1738Z" fill="white"/>
<path d="M45.0728 3.10535L44.8747 3.88192C44.5526 4.02242 44.2386 4.00594 44.0735 4.15468C43.9083 4.30341 43.7431 4.45217 43.5779 4.6009C43.4127 4.74964 43.2393 5.05534 43.0577 5.51799C42.876 5.98064 42.6862 6.60024 42.4716 7.69072L38.0061 23.8252L35.9656 23.7183L32.2618 10.3034C31.8731 8.70918 31.4845 7.11491 31.0959 5.52065L30.9389 5.51242C30.9143 5.9833 30.6997 7.07377 30.3118 8.46995C29.9238 9.86613 29.5359 11.2623 29.1479 12.6585L27.4145 18.7058C27.2082 19.6394 27.0101 20.4159 26.9772 21.0438C26.9525 21.5146 27.093 21.8368 27.2418 22.002C27.3905 22.1672 27.8531 22.3488 28.324 22.3735L28.1259 23.15L22.7893 22.8703L22.9874 22.0938C23.3013 22.1102 23.6235 21.9698 23.9456 21.8292C24.1108 21.6805 24.276 21.5317 24.4494 21.226C24.6228 20.9204 24.788 20.7717 24.8127 20.3008C24.9861 19.9951 25.1842 19.2185 25.3905 18.285L28.6757 6.65291C28.8574 6.19026 28.8738 5.87636 29.0554 5.41371C29.0801 4.94283 29.2535 4.63712 29.2782 4.16624C29.3029 3.69536 29.1624 3.37326 29.0137 3.20807C28.708 3.03466 28.4023 2.86123 27.9314 2.83656L28.1295 2.05999L32.9952 2.31499L36.451 14.4577C36.9883 16.2172 37.3852 17.6545 37.6333 18.9266L37.7902 18.9348C37.9801 18.3152 38.1946 17.2247 38.5826 15.8285C38.9705 14.4324 39.3503 13.1932 39.5648 12.1027L40.9185 7.29453C41.1248 6.361 41.3311 5.42746 41.364 4.79963C41.3887 4.32875 41.2482 4.00665 41.0995 3.84146C40.7938 3.66805 40.4881 3.49463 40.0172 3.46995L40.2153 2.69338L45.081 2.94838L45.0728 3.10535Z" fill="white"/>
<path d="M44.3741 19.4373L44.4893 17.2398C45.4475 16.9753 46.2488 16.7025 47.0418 16.5867C47.8348 16.4708 48.6278 16.355 49.2556 16.3879C49.8835 16.4208 50.3544 16.4455 50.974 16.6353C51.4366 16.817 51.8993 16.9986 52.3537 17.3372C52.6511 17.6676 52.9486 17.9979 53.2461 18.3283C53.3866 18.6505 53.5189 19.1295 53.4942 19.6004C53.4695 20.0713 53.4448 20.5422 53.2714 20.8479C53.098 21.1536 52.9246 21.4593 52.5943 21.7567C52.2639 22.0542 51.9335 22.3517 51.4544 22.484C50.9671 22.7732 50.488 22.9055 50.0089 23.0378L50.0007 23.1947C50.4633 23.3764 50.9342 23.401 51.3886 23.7396C51.8512 23.9212 52.1487 24.2516 52.4462 24.582C52.7437 24.9124 53.0411 25.2427 53.1734 25.7218C53.3057 26.2009 53.4462 26.5231 53.4215 26.9939C53.3886 27.6218 53.207 28.0844 53.0171 28.7041C52.8355 29.1667 52.3399 29.6129 52.0095 29.9103C51.5222 30.1996 51.0349 30.4888 50.3906 30.7698C49.7545 30.8939 48.9615 31.0098 48.0198 30.9604C47.3919 30.9275 46.6071 30.8864 45.9875 30.6965C45.211 30.4984 44.5914 30.3085 43.9717 30.1187L44.0951 27.7643L45.5077 27.8383C45.6483 28.1604 45.7888 28.4826 45.9293 28.8047C46.0698 29.1269 46.2185 29.2921 46.5242 29.4655C46.673 29.6307 46.9786 29.8041 47.2926 29.8205C47.6065 29.837 47.9122 30.0104 48.2261 30.0269C49.1678 30.0762 49.9609 29.9604 50.4564 29.5142C50.952 29.068 51.2988 28.4566 51.3481 27.5148C51.3975 26.5731 51.1247 25.7718 50.5215 25.2681C49.9184 24.7643 48.9931 24.401 47.7374 24.3352L46.7957 24.2859L46.8533 23.1871C47.638 23.2283 48.2741 23.1042 48.9101 22.9802C49.5462 22.8561 50.0335 22.5669 50.3557 22.4264C50.686 22.1289 51.0164 21.8314 51.1898 21.5257C51.3632 21.2201 51.5449 20.7574 51.5696 20.2865C51.6107 19.5017 51.4784 19.0226 51.0322 18.5271C50.586 18.0315 49.9664 17.8416 49.1816 17.8005C48.5538 17.7676 47.9177 17.8917 47.4222 18.3379C46.9348 18.6271 46.588 19.2385 46.233 20.0068L44.3495 19.9081L44.3741 19.4373Z" fill="white"/>
<path d="M22.0548 63.9106C21.039 65.2738 20.0397 66.3232 19.065 66.9017C18.0904 67.4802 17.1322 67.7447 16.1904 67.6953C15.0917 67.6377 14.1746 67.1175 13.5879 66.2998C13.0012 65.4821 12.7531 64.21 12.8354 62.6405C12.9259 60.9139 13.3303 59.2038 14.1973 57.6753C14.9074 56.1387 15.915 54.9324 17.22 54.0565C18.525 53.1805 19.8054 52.7754 21.3749 52.8577C22.0028 52.8906 22.6306 52.9234 23.0933 53.1051C23.5559 53.2867 24.1755 53.4766 24.63 53.8152L25.6039 50.2463C25.7774 49.9406 25.802 49.4697 25.8185 49.1558C25.8432 48.6849 26.0166 48.3792 26.033 48.0653C26.0495 47.7514 26.0577 47.5945 25.909 47.4293C25.7602 47.2641 25.6115 47.0989 25.4546 47.0907C25.2976 47.0824 24.835 46.9007 24.3641 46.8761L24.5621 46.0995L28.3374 46.14L29.2791 46.1894L24.6237 62.9435C24.4174 63.877 24.2193 64.6536 24.1947 65.1245C24.17 65.5953 24.1617 65.7523 24.3023 66.0744C24.451 66.2396 24.5997 66.4048 24.9137 66.4212C25.2276 66.4377 25.5497 66.2972 25.8718 66.1567C26.2022 65.8592 26.6978 65.4131 27.3585 64.8181L28.2591 65.6523C27.268 66.5447 26.4421 67.2883 25.7978 67.5693C25.1453 68.0073 24.3523 68.1231 23.7244 68.0902C23.0966 68.0573 22.634 67.8757 22.1878 67.3801C21.8985 66.8928 21.6093 66.4054 21.6504 65.6206C21.6833 64.9928 21.8649 64.5302 22.0548 63.9106ZM23.4332 58.6315C23.6313 57.855 23.6642 57.2271 23.6971 56.5993C23.7382 55.8145 23.6142 55.1785 23.3167 54.8481C23.0192 54.5177 22.3996 54.3279 21.6148 54.2868C20.5161 54.2292 19.5497 54.6507 18.7238 55.3944C17.8979 56.138 17.2042 57.3608 16.6593 58.7488C16.1144 60.1367 15.7265 61.5328 15.6524 62.9454C15.5948 64.0442 15.7107 64.8372 15.9999 65.3245C16.2891 65.8118 16.7436 66.1504 17.3714 66.1833C17.6853 66.1998 17.9992 66.2163 18.3214 66.0758C18.6435 65.9353 18.9657 65.7947 19.296 65.4972C19.6264 65.1998 19.9568 64.9024 20.4523 64.4562C20.7909 64.0018 21.1295 63.5473 21.4599 63.2498C21.7985 62.7954 22.1371 62.3409 22.3269 61.7213C22.6738 61.11 22.8718 60.3334 23.0699 59.5569L23.4332 58.6315ZM41.1462 66.0129C40.1468 67.0622 39.3209 67.8059 38.5115 68.2356C37.702 68.6654 36.7438 68.9299 35.959 68.8888C33.7616 68.7736 32.8774 67.6255 32.9926 65.4281C33.0255 64.8003 33.2235 64.0238 33.4216 63.2472L35.7247 55.3409L33.2133 55.2093L33.4279 54.1189C34.0557 54.1518 34.5266 54.1764 34.8487 54.0359C35.1709 53.8954 35.4848 53.9119 35.65 53.7631C35.8152 53.6144 36.1373 53.4739 36.3107 53.1683C36.4841 52.8626 36.6575 52.5568 36.8309 52.2511C37.0126 51.7885 37.3594 51.1772 37.7309 50.0949L39.7714 50.2018L38.7891 53.9276L43.4979 54.1744L43.1017 55.7276L38.393 55.4808L36.6677 61.3713C36.2962 62.4535 36.09 63.387 36.0653 63.8579C36.0406 64.3288 35.859 64.7914 35.8425 65.1053C35.7767 66.361 36.2147 67.0135 37.3134 67.0711C37.7843 67.0958 38.2633 66.9635 38.7507 66.6743C39.238 66.385 39.8988 65.79 40.5677 65.0381L41.1462 66.0129Z" fill="white"/>
<path d="M55.9596 38.6163L1.96582 35.7866L1.85889 37.8271L55.8527 40.6568L55.9596 38.6163Z" fill="white"/>
<path d="M67.0132 37.9364L67.1201 35.896L85.9552 36.8831L85.8482 38.9235L67.0132 37.9364ZM66.6759 44.3717L66.7829 42.3313L85.6179 43.3184L85.511 45.3588L66.6759 44.3717Z" fill="white"/>
<path d="M110.997 51.5738L111.581 40.4296C111.68 38.5461 111.778 36.6627 112.034 34.7874L111.877 34.7792L102.827 51.3029L100.472 51.1795L100.576 34.1869C100.617 33.4021 100.501 32.6091 100.361 32.2869C100.229 31.8078 100.088 31.4857 99.7824 31.3123C99.6336 31.1471 99.171 30.9655 98.8653 30.792L99.0634 30.0155L105.499 30.3527L105.301 31.1293C104.83 31.1046 104.508 31.2452 104.177 31.5426C103.847 31.8401 103.673 32.1457 103.657 32.4597C103.475 32.9223 103.451 33.3932 103.41 34.178L103.385 34.6489C103.377 34.8059 103.368 34.9628 103.352 35.2767L103.196 41.2494C103.172 41.7203 103.114 42.819 103.024 44.5455L102.859 47.6847L103.016 47.6929L112.405 30.7147L114.759 30.8381L114.225 41.0404C114.134 42.767 114.011 45.1213 113.689 48.2523L113.846 48.2605L120.593 36.6524C120.774 36.1898 121.113 35.7353 121.46 35.124C121.807 34.5126 121.831 34.0417 121.856 33.5708C121.897 32.786 121.459 32.1335 120.369 31.919L120.567 31.1424L126.845 31.4715L126.647 32.248C126.176 32.2233 125.689 32.5126 125.193 32.9588C124.698 33.405 124.177 34.3221 123.327 35.5366L113.178 52.0029L110.98 51.8877L110.997 51.5738ZM127.213 51.4792C127.527 51.4957 127.849 51.3552 128.171 51.2147C128.336 51.066 128.502 50.9172 128.675 50.6115C128.848 50.3058 129.014 50.1571 129.038 49.6863C129.212 49.3806 129.41 48.6039 129.616 47.6704L132.901 36.0384C133.108 35.1049 133.314 34.1713 133.347 33.5435C133.371 33.0726 133.231 32.7505 133.082 32.5853C132.777 32.4119 132.471 32.2385 132 32.2138L132.198 31.4372L138.319 31.758L138.121 32.5346C137.799 32.6751 137.485 32.6586 137.32 32.8074C137.155 32.9561 136.99 33.1049 136.825 33.2536C136.659 33.4023 136.486 33.708 136.304 34.1706C136.123 34.6333 135.933 35.2529 135.718 36.3434L131.641 51.0818L135.408 51.2792C136.036 51.3121 136.663 51.3449 136.986 51.2044C137.465 51.0721 137.787 50.9316 138.125 50.4772C138.464 50.0228 138.794 49.7254 139.298 49.1222C139.645 48.5108 140 47.7424 140.512 46.9823L141.925 47.0564L140.042 52.9385L127.172 52.264L127.213 51.4792Z" fill="white"/>
<path d="M157.021 29.2756C156.625 30.8288 156.088 32.0598 155.568 32.9768C155.048 33.8939 154.23 34.4807 153.421 34.9104C152.611 35.3401 151.504 35.4395 150.249 35.3737C149.621 35.3408 149.15 35.3161 148.844 35.1427L149.389 33.7548C149.538 33.9199 150.009 33.9446 150.48 33.9693C151.421 34.0187 152.223 33.7459 152.892 32.994C153.561 32.2421 153.932 31.1598 154.485 29.6149L158.942 13.6374C159.149 12.7038 159.355 11.7703 159.388 11.1425C159.413 10.6716 159.272 10.3494 159.123 10.1843C158.818 10.0108 158.512 9.83746 158.041 9.81279L158.239 9.03622L164.361 9.35703L164.163 10.1336C163.84 10.2741 163.527 10.2576 163.361 10.4064C163.196 10.5551 163.031 10.7038 162.866 10.8526C162.701 11.0013 162.527 11.307 162.346 11.7697C162.164 12.2323 161.974 12.8519 161.759 13.9424L157.021 29.2756Z" fill="white"/>
<path d="M160.443 72.1073C159.444 73.1567 158.304 73.884 157.329 74.4624C156.354 75.0409 155.09 75.1321 153.678 75.058C152.265 74.984 151.034 74.4473 150.299 73.4644C149.563 72.4815 149.158 71.2012 149.241 69.6316C149.298 68.5329 149.513 67.4424 150.049 66.2114C150.586 64.9804 151.115 63.9063 151.949 63.0057C152.783 62.1051 153.766 61.3697 154.897 60.7994C156.021 60.3861 157.293 60.138 158.548 60.2038C159.804 60.2696 160.729 60.6329 161.333 61.1367C161.936 61.6404 162.209 62.4417 162.151 63.5404C162.06 65.267 161.21 66.4815 159.434 67.3328C157.815 68.1923 155.287 68.3746 152.148 68.2101C151.958 68.8297 151.925 69.4575 151.884 70.2423C151.827 71.341 151.942 72.1341 152.389 72.6296C152.835 73.1252 153.446 73.472 154.388 73.5213C155.33 73.5707 156.123 73.4548 156.932 73.0251C157.742 72.5953 158.559 72.0086 159.385 71.265L160.443 72.1073ZM152.693 66.8221C154.106 66.8962 155.37 66.805 156.476 66.7056C157.592 66.4493 158.393 66.1765 158.897 65.5733C159.549 65.1354 159.747 64.3588 159.797 63.417C159.829 62.7892 159.697 62.3101 159.4 61.9798C159.102 61.6494 158.64 61.4678 158.169 61.4431C157.07 61.3855 156.104 61.807 155.104 62.8564C153.964 63.5836 153.263 64.9633 152.693 66.8221Z" fill="white"/>
<path d="M165.517 44.3579L149.193 43.5024L149.086 45.5429L165.41 46.3984L165.517 44.3579Z" fill="white"/>
<path d="M193.456 45.8221L174.621 44.835L174.514 46.8754L193.349 47.8625L193.456 45.8221Z" fill="white"/>
<path d="M226.674 12.6224L226.476 13.3989C226.154 13.5394 225.84 13.523 225.675 13.6717C225.51 13.8204 225.344 13.9692 225.179 14.1179C225.014 14.2667 224.841 14.5724 224.659 15.035C224.477 15.4977 224.287 16.1173 224.073 17.2077L219.607 33.3422L217.567 33.2353L213.863 19.8205C213.474 18.2262 213.086 16.6319 212.697 15.0377L212.383 15.0212C212.359 15.4921 212.144 16.5826 211.756 17.9787C211.368 19.3749 210.98 20.7711 210.592 22.1673L208.859 28.2146C208.653 29.1482 208.454 29.9247 208.422 30.5526C208.397 31.0234 208.537 31.3456 208.686 31.5108C208.835 31.676 209.297 31.8576 209.768 31.8822L209.57 32.6588L204.234 32.3791L204.432 31.6026C204.746 31.619 205.068 31.4785 205.39 31.338C205.555 31.1893 205.72 31.0405 205.894 30.7348C206.067 30.4291 206.232 30.2805 206.257 29.8096C206.43 29.5039 206.629 28.7273 206.835 27.7938L210.12 16.1617C210.302 15.699 210.318 15.3852 210.5 14.9225C210.524 14.4516 210.698 14.1459 210.723 13.675C210.747 13.2042 210.607 12.882 210.458 12.7169C210.152 12.5435 209.847 12.37 209.376 12.3453L209.574 11.5688L214.44 11.8238L217.895 23.9665C218.433 25.726 218.83 27.1633 219.078 28.4354L219.235 28.4436C219.424 27.824 219.639 26.7335 220.027 25.3373C220.415 23.9412 220.795 22.7019 221.009 21.6115L222.363 16.8033C222.569 15.8698 222.775 14.9363 222.808 14.3084C222.833 13.8375 222.693 13.5154 222.544 13.3503C222.238 13.1768 221.932 13.0034 221.462 12.9787L221.66 12.2022L226.682 12.4654L226.674 12.6224Z" fill="white"/>
<path d="M225.975 28.9543L226.09 26.7569C227.048 26.4924 227.849 26.2196 228.642 26.1038C229.435 25.9879 230.228 25.8721 230.856 25.905C231.484 25.9379 231.955 25.9626 232.575 26.1524C233.037 26.3341 233.5 26.5157 233.954 26.8543C234.252 27.1847 234.549 27.515 234.847 27.8454C234.987 28.1675 235.119 28.6466 235.095 29.1175C235.07 29.5884 235.045 30.0593 234.872 30.365C234.699 30.6707 234.525 30.9764 234.195 31.2738C233.864 31.5713 233.534 31.8688 233.055 32.0011C232.568 32.2903 232.089 32.4226 231.609 32.5548L231.601 32.7118C232.064 32.8934 232.535 32.9181 232.989 33.2567C233.452 33.4383 233.749 33.7687 234.047 34.0991C234.344 34.4294 234.642 34.7598 234.774 35.2389C234.906 35.718 235.047 36.0402 235.022 36.511C234.989 37.1389 234.808 37.6015 234.618 38.2211C234.436 38.6838 233.94 39.13 233.61 39.4274C233.123 39.7167 232.635 40.0059 231.991 40.2869C231.355 40.411 230.562 40.5268 229.62 40.4775C228.992 40.4446 228.208 40.4034 227.588 40.2136C226.812 40.0155 226.192 39.8256 225.572 39.6357L225.696 37.2814L227.108 37.3554C227.249 37.6775 227.389 37.9997 227.53 38.3218C227.67 38.644 227.819 38.8091 228.125 38.9826C228.273 39.1477 228.579 39.3212 228.893 39.3376C229.207 39.3541 229.513 39.5275 229.827 39.5439C230.768 39.5933 231.561 39.4775 232.057 39.0313C232.553 38.5851 232.899 37.9737 232.949 37.0319C232.998 36.0902 232.725 35.2889 232.122 34.7852C231.519 34.2814 230.594 33.9181 229.338 33.8523L228.396 33.8029L228.454 32.7042C229.239 32.7453 229.875 32.6213 230.511 32.4973C231.147 32.3732 231.634 32.084 231.956 31.9435C232.287 31.646 232.617 31.3485 232.79 31.0428C232.964 30.7371 233.145 30.2745 233.17 29.8036C233.211 29.0188 233.079 28.5397 232.633 28.0442C232.187 27.5486 231.567 27.3587 230.782 27.3176C230.154 27.2847 229.518 27.4088 229.023 27.855C228.535 28.1442 228.189 28.7556 227.834 29.5239L225.95 29.4252L225.975 28.9543Z" fill="white"/>
<path d="M209.43 71.3693C209.629 70.5927 209.992 69.6674 210.372 68.4282C210.751 67.189 211.123 66.1067 211.486 65.1814L211.494 65.0245L210.239 64.9587C209.611 64.9258 208.983 64.8929 208.661 65.0334C208.339 65.1739 207.86 65.3062 207.529 65.6037C207.199 65.9011 206.711 66.1903 206.373 66.6447L205.472 65.8106C206.133 65.2156 206.637 64.6125 206.967 64.315C207.454 64.0258 207.785 63.7283 208.272 63.4391C208.594 63.2986 209.073 63.1663 209.552 63.034C210.032 62.9018 210.502 62.9264 211.287 62.9675L219.292 63.387L218.714 65.4029L213.849 65.1479L211.719 72.7483C211.513 73.6819 211.315 74.4585 211.29 74.9293C211.265 75.4002 211.257 75.5571 211.398 75.8793C211.546 76.0445 211.695 76.2097 212.009 76.2261C212.323 76.2426 212.802 76.1103 213.132 75.8128C213.62 75.5236 214.115 75.0774 214.619 74.4742L215.52 75.3084C214.528 76.2008 213.703 76.9444 213.058 77.2254C212.406 77.6634 211.613 77.7793 210.828 77.7381C210.043 77.697 209.589 77.3584 209.143 76.8628C208.696 76.3673 208.572 75.7312 208.613 74.9464C208.646 74.3186 208.861 73.2282 209.241 71.9889L209.43 71.3693Z" fill="white"/>
<path d="M220.806 73.5397L220.921 71.3423C221.879 71.0777 222.68 70.8049 223.473 70.6891C224.266 70.5733 225.059 70.4575 225.687 70.4904C226.315 70.5233 226.786 70.548 227.406 70.7378C227.868 70.9195 228.331 71.1011 228.785 71.4397C229.24 71.7783 229.38 72.1004 229.678 72.4308C229.818 72.753 229.951 73.232 229.926 73.7029C229.901 74.1738 229.876 74.6446 229.703 74.9503C229.53 75.256 229.356 75.5618 229.026 75.8592C228.696 76.1567 228.365 76.4542 227.886 76.5865C227.399 76.8757 226.92 77.0079 226.441 77.1402L226.432 77.2972C226.895 77.4789 227.366 77.5035 227.82 77.8421C228.283 78.0237 228.58 78.3541 228.878 78.6845C229.175 79.0148 229.473 79.3452 229.605 79.8243C229.737 80.3034 229.878 80.6256 229.853 81.0964C229.82 81.7243 229.639 82.1869 229.449 82.8065C229.267 83.2691 228.772 83.7154 228.441 84.0129C228.111 84.3104 227.467 84.5913 226.822 84.8723C226.186 84.9964 225.393 85.1122 224.451 85.0629C223.824 85.03 223.039 84.9888 222.419 84.7989C221.643 84.6009 221.023 84.411 220.403 84.2211L220.527 81.8668L221.939 81.9408C222.08 82.2629 222.22 82.5851 222.361 82.9073C222.501 83.2294 222.65 83.3946 222.956 83.568C223.105 83.7331 223.41 83.9066 223.724 83.923C224.038 83.9395 224.344 84.1129 224.658 84.1293C225.599 84.1787 226.393 84.0629 226.888 83.6167C227.384 83.1705 227.73 82.5591 227.78 81.6174C227.829 80.6756 227.556 79.8743 226.953 79.3706C226.35 78.8668 225.425 78.5035 224.169 78.4377L223.227 78.3883L223.285 77.2896C224.07 77.3307 224.706 77.2067 225.342 77.0826C225.978 76.9586 226.465 76.6693 226.796 76.3719C227.126 76.0744 227.456 75.777 227.63 75.4713C227.803 75.1656 227.985 74.7029 228.009 74.2321C228.051 73.4473 227.918 72.9681 227.472 72.4726C227.026 71.977 226.406 71.7872 225.621 71.7461C224.994 71.7132 224.358 71.8372 223.862 72.2834C223.375 72.5726 223.028 73.1841 222.673 73.9524L220.789 73.8537L220.806 73.5397Z" fill="white"/>
<path d="M237.718 48.1416L202.873 46.3154L202.766 48.3559L237.611 50.182L237.718 48.1416Z" fill="white"/>
<path d="M246.715 50.6595L246.822 48.6191L265.657 49.6062L265.55 51.6466L246.715 50.6595ZM286.582 49.7585C286.474 48.8085 286.193 48.1642 285.747 47.6687C285.301 47.1731 284.524 46.975 283.426 46.9175C282.641 46.8763 282.005 47.0004 281.509 47.4466C281.014 47.8928 280.675 48.3473 280.642 48.9751C280.626 49.289 280.609 49.6029 280.75 49.925C280.89 50.2472 281.031 50.5693 281.485 50.9079C281.783 51.2382 282.386 51.7421 283.303 52.2623C283.914 52.6091 284.361 53.1046 284.815 53.4432C285.112 53.7736 285.41 54.104 285.707 54.4344C285.848 54.7565 285.988 55.0786 286.129 55.4008C286.269 55.7229 286.245 56.1938 286.22 56.6646C286.171 57.6064 285.816 58.3747 285.312 58.9779C284.808 59.5811 284.156 60.0191 283.197 60.2836C282.396 60.5564 281.446 60.664 280.348 60.6064C279.563 60.5653 278.621 60.516 277.844 60.3179C277.068 60.1198 276.134 59.9134 275.209 59.5502L276.167 56.2952L277.422 56.361C277.373 57.3028 277.646 58.104 278.092 58.5995C278.538 59.0951 279.306 59.4501 280.562 59.5159C281.504 59.5653 282.297 59.4495 282.792 59.0033C283.288 58.5571 283.635 57.9457 283.676 57.1609C283.701 56.69 283.717 56.3761 283.585 55.897C283.444 55.5749 283.147 55.2445 282.849 54.9141C282.552 54.5837 281.94 54.237 281.18 53.725C280.42 53.213 279.817 52.7091 279.363 52.3705C278.908 52.0319 278.619 51.5446 278.487 51.0655C278.354 50.5864 278.222 50.1073 278.255 49.4795C278.296 48.6947 278.494 47.9181 278.998 47.315C279.502 46.7118 280.154 46.2738 280.956 46.0011C281.757 45.7283 282.707 45.6207 283.805 45.6783C284.747 45.7276 285.689 45.7769 286.466 45.975C287.242 46.1731 288.019 46.3712 288.787 46.7263L287.995 49.8326L286.582 49.7585Z" fill="white"/>
</g>
</svg>
