<svg width="229" height="91" viewBox="0 0 229 91" fill="none" xmlns="http://www.w3.org/2000/svg">
<g opacity="0.1">
<path d="M9.49651 39.4399C9.39179 38.9649 9.40785 38.812 9.27097 38.643C9.1341 38.4739 9.15018 38.321 8.99723 38.3049C8.84428 38.2888 8.69134 38.2728 8.38543 38.2406L7.31478 38.1281L5.01364 45.309L2.41345 45.0357L8.02164 28.46C8.23889 27.8643 8.28714 27.4054 8.47224 27.1156C8.50439 26.8097 8.68948 26.5199 8.72163 26.214C8.76986 25.7551 8.64906 25.4331 8.51219 25.2641C8.22236 25.079 7.7796 24.8778 7.16779 24.8135L7.40111 24.0649L11.241 24.3138L12.1587 24.4103L7.88615 37.1057L8.345 37.1539C9.10976 37.2343 9.90667 37.0087 10.8887 36.4934C11.8707 35.978 12.6997 35.4466 13.3759 34.8991C14.052 34.3516 14.2531 33.9088 14.3174 33.297C14.3657 32.8382 14.0919 32.5001 13.3272 32.4197L13.5605 31.6711L18.4549 32.1855L18.6804 32.9824C17.8353 33.6668 16.8372 34.3351 15.8552 34.8504L11.879 37.3707L12.8458 42.8847C12.9505 43.3596 12.9184 43.6655 13.0553 43.8346C13.1921 44.0036 13.176 44.1565 13.3129 44.3256C13.4498 44.4946 13.6028 44.5107 13.7557 44.5267C14.0616 44.5589 14.3836 44.4381 14.7216 44.1643C15.0597 43.8906 15.5507 43.6329 16.0739 43.0693L16.9112 43.9305C15.897 44.7518 15.068 45.2832 14.4079 45.6778C13.764 45.9194 13.12 46.161 12.6612 46.1128C12.0494 46.0485 11.4536 45.8312 11.043 45.3241C10.6324 44.817 10.3908 44.1731 10.3343 43.2393L9.49651 39.4399Z" fill="white"/>
<path d="M30.6284 37.0216L30.8374 35.0332L49.1915 36.9623L48.9825 38.9507L30.6284 37.0216ZM29.9854 43.1396L30.1944 41.1512L48.5485 43.0803L48.3395 45.0687L29.9854 43.1396Z" fill="white"/>
<path d="M77.1329 40.363L72.2385 39.8486L72.2224 40.0016C72.7699 40.6777 72.9954 41.4746 73.237 42.1185C73.4786 42.7625 73.3982 43.5272 73.3018 44.4449C73.141 45.9744 72.6904 47.3189 71.95 48.4782C71.2096 49.6375 70.1793 50.6117 69.0444 51.1109C67.8934 51.7632 66.4846 51.9244 65.1081 51.7797C63.4256 51.6029 62.2502 51.0154 61.429 50.0012C60.6077 48.9871 60.4305 47.7313 60.5912 46.2018C60.7038 45.1311 60.9692 44.0766 61.3877 43.0381C61.79 42.1525 62.3453 41.283 63.2065 40.4457C63.8987 39.7453 64.7438 39.0609 65.5568 38.6824C66.3698 38.3039 67.4887 37.9576 68.5915 37.7642C69.6943 37.5709 71.2399 37.5787 73.0753 37.7716L77.8168 38.27L77.1329 40.363ZM70.798 43.2539C70.9427 41.8774 70.7494 40.7746 70.387 39.8087C69.0104 39.664 67.7386 39.9942 66.7405 40.6625C65.5895 41.3147 64.7282 42.1521 63.9878 43.3114C63.2474 44.4707 62.7968 45.8151 62.6361 47.3446C62.5557 48.1093 62.6444 48.7372 62.7491 49.2121C63.0068 49.7031 63.2805 50.0412 63.5703 50.2263C63.8601 50.4114 64.3029 50.6126 64.7618 50.6608C65.8324 50.7733 66.6293 50.5478 67.4584 50.0164C68.2874 49.485 69.0118 48.4786 69.6153 47.1503C70.3718 45.838 70.6694 44.4776 70.798 43.2539Z" fill="white"/>
<path d="M84.2552 38.7918L88.2338 50.9627L98.2601 26.1915L102.084 26.5934L101.875 28.5818L99.1218 28.2924L88.2908 54.8347L86.7613 54.6739L82.0258 40.8771L79.466 41.6906L79.1197 40.5717L84.2552 38.7918Z" fill="white"/>
<path d="M108.198 49.3497C108.431 48.6011 108.833 47.7155 109.268 46.5241C109.686 45.4856 110.089 44.6 110.306 44.0043L110.322 43.8513L105.886 43.3851L103.167 51.6045C102.949 52.2002 102.716 52.9489 102.483 53.6976C102.25 54.4463 102.032 55.042 101.847 55.3318L98.6352 54.9942L98.8685 54.2456C100.052 53.2874 101.227 50.9367 102.546 47.2094L103.914 43.0232L103.455 42.975C102.69 42.8946 102.063 42.9832 101.588 43.088C101.097 43.3456 100.437 43.7402 99.9134 44.3038L99.0761 43.4425C99.5992 42.879 100.106 42.4684 100.444 42.1946C100.782 41.9209 101.12 41.6471 101.595 41.5424C101.917 41.4216 102.408 41.1639 102.867 41.2121C103.342 41.1074 103.801 41.1556 104.413 41.2199L116.649 42.506L115.981 44.4461L112.463 44.0764L109.993 51.3941C109.744 52.2958 109.51 53.0445 109.462 53.5033C109.414 53.9622 109.398 54.1151 109.519 54.4371C109.655 54.6061 109.792 54.7752 110.098 54.8073C110.71 54.8716 111.37 54.477 112.384 53.6558L113.222 54.517C112.376 55.2014 111.7 55.7489 110.887 56.1273C110.243 56.3689 109.599 56.6106 108.835 56.5302C108.223 56.4659 107.643 56.0957 107.386 55.6047C106.975 55.0976 106.886 54.4697 106.967 53.705C107.031 53.0932 107.296 52.0386 107.731 50.8471L108.198 49.3497ZM122.445 40.3316C122.646 39.8888 122.694 39.43 122.879 39.1402C122.911 38.8343 122.943 38.5284 122.975 38.2225C123.008 37.9165 123.024 37.7636 122.887 37.5946C122.75 37.4256 122.613 37.2565 122.46 37.2404C122.307 37.2244 121.864 37.0232 121.406 36.975L121.639 36.2263L125.479 36.4752L126.396 36.5717L120.989 52.7046C120.74 53.6062 120.507 54.3549 120.458 54.8137C120.41 55.2726 120.394 55.4255 120.515 55.7475C120.652 55.9165 120.789 56.0855 121.095 56.1177C121.401 56.1498 121.722 56.0291 122.044 55.9083C122.383 55.6345 122.89 55.2239 123.566 54.6764L124.403 55.5376C123.373 56.5118 122.544 57.0432 121.884 57.4378C121.24 57.6794 120.596 57.921 119.831 57.8406C119.219 57.7763 118.64 57.4061 118.382 56.9151C117.971 56.408 117.883 55.7801 117.963 55.0154C118.027 54.4035 118.293 53.349 118.727 52.1575L122.445 40.3316Z" fill="white"/>
<path d="M129.005 29.4231L100.25 26.4009L100.041 28.3892L128.796 31.4115L129.005 29.4231Z" fill="white"/>
<path d="M146.284 53.3529L145.19 54.9389L141.655 51.7839L141.616 56.5736L139.627 56.3647L140.585 51.6714L136.471 54.0226L135.731 52.2437L140.222 50.7055L136.149 48.267L137.243 46.681L140.777 49.836L140.817 45.0463L142.805 45.2553L141.848 49.9485L145.961 47.5973L146.702 49.3762L142.211 50.9144L146.284 53.3529ZM160.726 57.1905C160.477 58.0921 160.244 58.8408 160.179 59.4526C160.147 59.7585 160.115 60.0644 160.252 60.2334C160.389 60.4024 160.526 60.5715 160.678 60.5875C160.815 60.7566 161.274 60.8048 161.733 60.853L161.5 61.6017L155.382 60.9587L155.615 60.21C155.921 60.2421 156.243 60.1213 156.565 60.0005C156.734 59.8637 156.903 59.7268 157.088 59.437C157.273 59.1471 157.442 59.0103 157.49 58.5514C157.676 58.2616 157.909 57.5129 158.158 56.6113L161.964 45.4133C162.214 44.5116 162.463 43.61 162.511 43.1511C162.559 42.6923 162.439 42.3703 162.318 42.0483C162.181 41.8793 161.738 41.6781 161.279 41.6299L161.513 40.8812L174.972 42.2959L173.419 46.7719L172.043 46.6272C172.123 45.8625 172.035 45.2346 172.083 44.7757C171.978 44.3008 172.01 43.9949 171.873 43.8259C171.736 43.6568 171.6 43.4878 171.31 43.3027C171.157 43.2866 170.714 43.0854 170.408 43.0533L165.82 42.571L163.132 50.4845L165.885 50.7739C166.344 50.8221 166.65 50.8543 166.972 50.7335C167.294 50.6127 167.616 50.4919 167.801 50.202C168.139 49.9283 168.509 49.3486 168.879 48.769L170.256 48.9137L168.22 55.04L166.844 54.8953C166.956 53.8246 167.021 53.2128 166.884 53.0438C166.916 52.7379 166.779 52.5689 166.626 52.5528C166.489 52.3838 166.03 52.3355 165.572 52.2873L162.665 51.9819L160.726 57.1905ZM182.895 55.1906C183.699 47.5431 185.445 41.2317 188.117 36.4093C190.789 31.587 193.622 28.1734 196.769 26.1846L197.574 27.3517C194.886 29.3888 192.359 32.8345 190.162 37.5521C187.965 42.2697 186.557 48.3074 185.785 55.649C185.014 62.9906 185.135 69.189 186.304 74.2603C187.472 79.3316 189.074 83.2114 191.433 85.7789L190.403 86.7531C187.738 84.1534 185.677 80.2254 184.066 74.953C182.503 69.2217 182.092 62.8381 182.895 55.1906Z" fill="white"/>
<path d="M207.176 25.732C207.377 25.2892 207.425 24.8304 207.61 24.5405C207.642 24.2346 207.674 23.9287 207.707 23.6228C207.739 23.3169 207.755 23.164 207.618 22.995C207.481 22.8259 207.344 22.6569 207.191 22.6408C207.038 22.6247 206.596 22.4236 206.137 22.3753L206.37 21.6267L210.21 21.8756L211.128 21.9721L205.721 38.1049C205.471 39.0066 205.238 39.7552 205.19 40.2141C205.141 40.6729 205.125 40.8259 205.246 41.1479C205.383 41.3169 205.52 41.4859 205.826 41.5181C206.132 41.5502 206.454 41.4294 206.776 41.3086C207.114 41.0349 207.621 40.6242 208.297 40.0767L209.134 40.938C208.104 41.9122 207.275 42.4436 206.615 42.8381C205.971 43.0797 205.327 43.3213 204.562 43.241C203.95 43.1766 203.371 42.8064 203.113 42.3154C202.702 41.8084 202.614 41.1805 202.694 40.4157C202.758 39.8039 203.024 38.7494 203.458 37.5579L207.176 25.732Z" fill="white"/>
<path d="M199.692 86.6467C198.315 86.502 197.277 86.0836 196.271 85.3592L194.798 86.1323L193.912 85.7299L199.52 69.1542C199.786 68.0997 200.003 67.5039 200.051 67.0451C200.099 66.5862 199.979 66.2643 199.842 66.0952C199.552 65.9101 199.109 65.709 198.497 65.6447L198.731 64.896L202.57 65.1449L203.488 65.2414L199.795 75.3687L199.948 75.3848C200.994 74.2577 202.024 73.2835 202.99 72.9211C203.972 72.4057 204.769 72.1802 205.687 72.2766C206.758 72.3892 207.627 72.9445 208.158 73.7735C208.69 74.6026 208.867 75.8584 208.706 77.3879C208.53 79.0703 208.063 80.5677 207.274 82.1858C206.502 83.651 205.439 84.9311 204.119 85.7202C202.493 86.4772 201.068 86.7914 199.692 86.6467ZM197.976 80.8993C197.743 81.648 197.679 82.2598 197.614 82.8716C197.534 83.6364 197.623 84.2642 197.896 84.6023C198.17 84.9403 198.766 85.1576 199.531 85.238C199.99 85.2862 200.295 85.3184 200.77 85.2136C201.092 85.0928 201.567 84.9881 201.905 84.7143C202.396 84.4567 202.75 84.03 203.105 83.6033C203.459 83.1766 203.829 82.5969 204.215 81.8643C204.602 81.1317 204.835 80.383 205.068 79.6344C205.301 78.8857 205.551 77.9841 205.631 77.2193C205.744 76.1486 205.671 75.3678 205.414 74.8768C205.156 74.3858 204.729 74.0317 204.117 73.9674C203.659 73.9192 203.184 74.0239 202.693 74.2815C202.202 74.5392 201.695 74.9498 201.002 75.6503C200.31 76.3507 199.787 76.9143 199.401 77.6469C199.014 78.3795 198.612 79.2651 198.194 80.3036L197.976 80.8993Z" fill="white"/>
<path d="M212.678 57.2385L195.548 55.438L195.339 57.4264L212.469 59.2268L212.678 57.2385Z" fill="white"/>
<path d="M225.108 59.6272C224.304 67.2748 222.558 73.5862 219.886 78.4085C217.215 83.2308 214.382 86.6444 211.234 88.6333L210.429 87.4661C213.117 85.4291 215.645 81.9833 217.842 77.2657C220.038 72.5481 221.446 66.5105 222.218 59.1689C222.989 51.8272 222.868 45.6288 221.7 40.5575C220.532 35.4863 218.929 31.6065 216.57 29.0389L217.6 28.0647C220.265 30.6644 222.327 34.5924 223.937 39.8649C225.516 45.4432 225.912 51.9797 225.108 59.6272Z" fill="white"/>
</g>
</svg>
