<svg width="557" height="200" viewBox="0 0 557 200" fill="none" xmlns="http://www.w3.org/2000/svg">
<path d="M57.5315 91.611L57.2246 93.5506L58.9738 92.6581C63.8161 90.1871 68.4939 87.9207 73.007 85.8586L73.4857 85.6399L73.5764 85.1214C77.4444 63.018 83.2817 41.3047 91.0182 20.2413L91.8276 18.0375L89.6777 18.9807C84.8906 21.0811 79.8846 23.3726 74.6734 25.8964L74.453 26.0031L74.3069 26.1996C63.3185 40.9739 53.1985 56.3743 43.9982 72.3226C38.2571 65.0578 31.1411 58.9879 23.0517 54.4624L22.5493 54.1813L22.0539 54.4747C15.4609 58.3797 8.60086 62.5385 1.47361 66.951L1 67.2443V67.8013V124.96V126.802L2.54459 125.799C8.6445 121.838 14.5351 118.109 20.2164 114.612L20.6524 114.343L20.6895 113.832C21.423 103.735 22.2124 93.8295 23.0581 84.1171C28.0039 88.1255 32.3545 92.8217 35.976 98.0651L36.5036 98.829L37.3045 98.3595C39.9323 96.8191 42.5099 95.3286 45.0376 93.8882L45.2921 93.7431L45.4281 93.4837C51.0642 82.7343 57.0066 72.0883 63.2633 61.7994C61.1265 71.2489 59.1851 81.1607 57.5315 91.611Z" fill="#A5D936" stroke="#A5D936" stroke-width="2"/>
<path d="M136.036 16.9189L136.538 16.8243L136.756 16.3618C138.8 12.0164 140.953 7.87333 143.174 3.91889L144.2 2.09125L142.134 2.44341C129.689 4.56431 117.491 7.9382 105.725 12.5136L105.334 12.6658L105.169 13.0518C96.097 34.2217 89.4287 56.3424 85.2887 78.9989L84.9649 80.7714L86.6403 80.1086C91.1875 78.3096 95.5968 76.7058 99.8684 75.2971L100.433 75.1107L100.539 74.5255C103.793 56.546 108.951 38.9643 115.927 22.0777C122.511 19.924 129.228 18.2008 136.036 16.9189Z" fill="#A5D936" stroke="#A5D936" stroke-width="2"/>
<path d="M185.893 6.74454L187.244 5.57723L185.543 5.03508C182.599 4.09686 179.607 3.31561 176.58 2.69466L176.07 2.59006L175.692 2.94767C168.452 9.7944 161.938 17.3662 156.253 25.5418C157.199 17.69 158.671 9.90904 160.662 2.25189L160.987 1.00342L159.697 1.0003C155.707 0.990674 151.72 1.21092 147.755 1.65991L147.009 1.74445L146.882 2.48491C144.484 16.499 143.425 30.7092 143.718 44.9235C142.893 46.3225 141.896 47.6128 140.749 48.7639L140.749 48.7638L140.739 48.7739C140.071 49.4641 139.19 49.909 138.239 50.0378C137.185 50.0843 136.139 49.843 135.212 49.3394L134.229 48.8056L133.808 49.8417C131.711 55.0014 129.753 60.4096 127.931 66.0659L127.717 66.7303L128.267 67.1602C130.358 68.7953 132.974 69.6106 135.624 69.4529L135.642 69.4518L135.66 69.4501C139.027 69.1287 142.157 67.0011 145.133 63.4946L145.146 63.4787L145.159 63.4623C148.573 59.0808 151.462 54.3141 153.765 49.2598C162.692 31.2891 173.593 17.3717 185.893 6.74454Z" fill="#A5D936" stroke="#A5D936" stroke-width="2"/>
<path d="M210.16 19.8697L210.15 19.8708L210.141 19.8722C205.978 20.4546 202.12 22.3784 199.15 25.3518C195.388 29.059 192.682 33.7017 191.311 38.8019C189.655 44.4763 189.373 50.4633 190.489 56.2682C191.49 61.7206 193.769 66.8583 197.137 71.2611C199.973 75.0774 203.89 77.9538 208.38 79.5173C211.461 80.7338 214.89 80.7311 217.97 79.5092L218.006 79.495L218.04 79.4781C220.836 78.1113 223.068 75.812 224.351 72.9765L224.57 72.4925L224.291 72.0401C221.74 67.8968 219.593 63.8451 217.686 59.8823L216.973 58.4016L215.985 59.7149C214.806 61.2832 213.64 62.2718 212.477 62.7394C211.351 63.192 210.132 63.1954 208.724 62.6072C206.878 61.8108 205.32 60.4707 204.255 58.7656L204.249 58.756L204.243 58.7465C202.867 56.6509 201.989 54.2681 201.677 51.7808L201.677 51.7808L201.676 51.7739C201.298 48.9236 201.484 46.0269 202.223 43.2483L202.226 43.2355L202.229 43.2227C202.824 40.7211 203.967 38.3828 205.575 36.3766L205.575 36.3766L205.582 36.3677C206.69 34.9529 208.239 33.9488 209.983 33.5149C211.471 33.2123 213.019 33.5052 214.295 34.3313L214.306 34.3387L214.318 34.3458C216.731 35.8171 218.169 38.635 218.984 43.3521L219.215 44.6887L220.423 44.0728C223.13 42.6934 225.926 41.4971 228.792 40.4918L229.517 40.2376L229.458 39.4718C229.201 36.1045 228.33 32.8126 226.889 29.7583L226.886 29.7516L226.882 29.7449C225.467 26.8565 223.33 24.3822 220.679 22.5613C217.632 20.3824 213.879 19.4221 210.16 19.8697Z" fill="#A5D936" stroke="#A5D936" stroke-width="2"/>
<path d="M241.525 88.7472C241.49 85.8855 241.655 83.0254 242.017 80.1876C247.193 82.3793 252.676 84.6118 258.365 86.8339C260.473 90.7977 262.775 94.6548 265.265 98.3912L265.454 98.6752L265.777 98.7843C270.383 100.338 275.126 101.891 280.047 103.432L283.108 104.39L281.134 101.862C265.306 81.5932 259.393 64.8916 259.992 50.5042L260.017 49.9027L259.497 49.5991C256.106 47.6188 252.847 45.6255 249.721 43.6193L249.138 43.2458L248.584 43.6587C236.695 52.5056 228.929 64.9179 227.768 84.372L227.724 85.1134L228.421 85.37L240.18 89.6977L241.542 90.1994L241.525 88.7472ZM244.708 68.9768C245.865 65.9658 247.374 63.1045 249.204 60.4523C249.806 64.5153 250.771 68.5165 252.086 72.4078C249.574 71.2615 247.12 70.1162 244.708 68.9768Z" fill="#A5D936" stroke="#A5D936" stroke-width="2"/>
<path d="M305.258 108.89C303.355 105.488 301.682 101.963 300.249 98.3402C302.803 99.0648 305.405 99.7893 308.056 100.514C312.423 101.818 316.983 102.355 321.534 102.102L321.552 102.101L321.569 102.1C325.277 101.76 328.124 100.613 329.97 98.6108L329.982 98.5978L329.994 98.5845C330.906 97.5232 331.559 96.2654 331.904 94.9096C332.247 93.5645 332.276 92.1587 331.989 90.8006C331.518 87.6504 330.127 84.7093 327.99 82.3463L327.99 82.346C325.452 79.5411 322.432 77.2145 319.072 75.4768C315.008 73.305 310.737 71.5441 306.323 70.2203C298.839 67.8991 291.483 65.1861 284.284 62.0925L283.334 61.6843L282.958 62.6471C278.455 74.1634 279.319 87.7086 288.248 105.566L288.442 105.954L288.859 106.077C293.777 107.532 298.867 108.955 304.129 110.345L306.408 110.947L305.258 108.89ZM311.391 89.4444L310.787 89.6453C309.526 89.8764 307.576 89.6872 304.909 88.8288L304.892 88.8235L304.875 88.8187C302.175 88.0531 299.534 87.2525 296.952 86.4168C296.453 83.4046 296.297 80.3463 296.487 77.3004C298.748 78.1033 301.091 78.8532 303.462 79.5897L303.482 79.5958L303.502 79.6012C305.978 80.2597 308.301 81.3991 310.337 82.9543L310.341 82.957C310.981 83.4413 311.517 84.049 311.918 84.7441C312.319 85.4392 312.575 86.2078 312.674 87.0043L312.68 87.0583L312.693 87.1113C312.806 87.5927 312.735 88.0989 312.495 88.5305L313.368 89.0179L312.495 88.5305C312.254 88.9622 311.86 89.2882 311.391 89.4444Z" fill="#A5D936" stroke="#A5D936" stroke-width="2"/>
<path d="M350.325 110.701L350.331 110.705L350.336 110.71C356.027 115.164 362.357 118.732 369.114 121.293C376.682 124.274 384.624 126.195 392.717 127.002C399.978 127.908 407.343 127.495 414.457 125.783L414.468 125.781L414.479 125.778C420.66 124.139 425.385 121.475 428.573 117.847C430.135 116.173 431.256 114.135 431.834 111.919C432.412 109.7 432.428 107.373 431.881 105.146C430.815 100.471 427.75 96.4565 422.789 93.0651L422.776 93.0563L422.763 93.048C417.082 89.4169 410.808 86.8111 404.226 85.3492C396.485 83.5068 388.586 82.4051 380.636 82.0591C373.401 81.5684 366.134 81.8033 358.946 82.7604L358.936 82.7617L358.926 82.7632C352.758 83.7089 347.927 85.2746 344.612 87.798C342.962 88.9195 341.717 90.5435 341.063 92.429C340.409 94.3151 340.381 96.3617 340.982 98.2647C342.087 102.486 345.332 106.674 350.325 110.701ZM397.345 113.83L397.328 113.833L397.311 113.837C394.012 114.652 390.593 114.862 387.219 114.455L387.208 114.454L387.196 114.452C383.388 114.081 379.649 113.187 376.086 111.794L376.078 111.792L376.071 111.789C372.879 110.601 369.898 108.908 367.244 106.775L367.229 106.763L367.214 106.752C365.195 105.251 363.688 103.164 362.899 100.776L362.899 100.776L362.895 100.764C362.627 99.9872 362.589 99.1496 362.784 98.3516C362.978 97.5604 363.394 96.8409 363.983 96.2777C365.754 94.7456 367.932 93.7593 370.252 93.4386L370.273 93.4357L370.293 93.432C373.675 92.8186 377.124 92.658 380.549 92.9543L380.56 92.9553L380.572 92.9561C384.318 93.1929 388.022 93.873 391.608 94.982L391.616 94.9846L391.625 94.9871C394.68 95.8738 397.545 97.3174 400.075 99.2452L400.084 99.2518L400.093 99.2582C402.054 100.686 403.484 102.725 404.157 105.056L404.16 105.066L404.164 105.077C404.444 105.971 404.504 106.919 404.338 107.841C404.173 108.755 403.792 109.616 403.226 110.352C401.701 112.126 399.635 113.348 397.345 113.83Z" fill="#A5D936" stroke="#A5D936" stroke-width="2"/>
<path d="M457.408 129.016L457.66 129.627L458.321 129.635C474.562 129.826 491.824 129.567 510.241 128.777C523.941 128.189 535.074 126.068 543.14 122.529C551.111 119.03 555.986 114.323 555.986 108.616C555.986 106.72 555.431 105.012 554.309 103.535C553.199 102.073 551.57 100.886 549.493 99.948C546.36 98.5241 542.132 97.6291 537.034 97.2165C539.96 95.9084 542.722 94.2488 545.258 92.2703L545.27 92.2612L545.281 92.2518C548.366 89.6952 550.066 86.7156 550.066 83.602L550.066 83.5991C550.058 80.8762 548.739 78.699 546.338 77.1115C543.987 75.5573 540.591 74.5541 536.301 74.0222C527.71 72.9569 515.908 73.7913 501.795 75.8211L501.795 75.8211C482.803 78.5537 465.202 80.4836 448.895 81.7066L447.959 81.7768L447.97 82.7156C448.157 98.6073 451.36 114.319 457.408 129.016ZM480.457 97.9413C480.171 95.4377 479.943 92.9404 479.759 90.4424C486.064 89.862 492.525 89.1832 499.141 88.4059C503.768 87.8647 507.184 87.8723 509.427 88.3857C510.544 88.6414 511.289 89.0048 511.75 89.4141C512.183 89.7985 512.406 90.2552 512.438 90.8434C512.5 91.9539 511.819 93.0888 509.668 94.1182C507.523 95.1445 504.185 95.9133 499.626 96.3382L499.626 96.3382C493.088 96.9506 486.699 97.4849 480.457 97.9413ZM505.731 107.708L505.731 107.708L505.74 107.707C510.402 107.295 513.869 107.427 516.17 108.053C517.314 108.365 518.102 108.78 518.608 109.25C519.023 109.635 519.273 110.078 519.372 110.606L519.395 110.889C519.451 111.572 519.287 112.166 518.901 112.708C518.503 113.269 517.834 113.82 516.816 114.321C514.765 115.331 511.521 116.031 507.021 116.314C499.047 116.786 491.313 117.157 483.772 117.427C483.159 114.691 482.609 111.981 482.121 109.283C489.761 108.873 497.631 108.348 505.731 107.708Z" fill="#A5D936" stroke="#A5D936" stroke-width="2"/>
<path d="M52.441 194.815L52.4923 195.784L53.4626 195.762L68.2561 195.422L69.321 195.397L69.2294 194.336C66.6139 164.04 67.1008 133.555 70.6824 103.358L70.8859 101.642L69.2967 102.32C65.3135 104.021 61.222 105.839 57.0223 107.775L56.6848 107.931L56.5308 108.269C48.9081 125.016 41.9493 142.109 35.3971 158.301C29.6845 146.156 24.2159 136.631 17.7824 129.075L17.2425 128.441L16.5212 128.857C11.6557 131.665 6.6682 134.622 1.53163 137.742L1.05078 138.034V138.597V195.756V196.778L2.07278 196.756L16.9208 196.429L17.9017 196.407L17.8988 195.426C17.8661 184.553 17.984 173.915 18.2526 163.514C22.8144 171.29 26.9191 179.327 30.5451 187.584L30.8331 188.24L31.5469 188.178L38.6237 187.566L39.2573 187.511L39.4763 186.914C41.1303 182.404 42.802 177.796 44.499 173.119C46.8837 166.545 49.3183 159.834 51.8236 153.066C51.4863 166.232 51.6627 180.122 52.441 194.815Z" stroke="#A5D936" stroke-width="2"/>
<path d="M116.222 110.01L117.045 109.876L117.06 109.042C117.187 101.996 117.539 95.2328 118.118 88.753L118.236 87.4276L116.93 87.6826C105.407 89.9323 94.0768 93.0767 83.0425 97.0874L82.4668 97.2967L82.3917 97.9046C78.9928 125.409 78.4492 157.17 82.5399 194.422L82.6387 195.322L83.5434 195.313L99.3437 195.163L100.495 195.153L100.323 194.014C96.3401 167.598 94.9065 140.86 96.0413 114.169C102.939 112.47 109.666 111.084 116.222 110.01Z" stroke="#A5D936" stroke-width="2"/>
<path d="M166.454 85.1576L166.23 86.2633C161.868 107.821 160.131 134.114 161.037 165.158C161.377 175.193 160.815 183.408 158.803 189.133C157.796 192.001 156.448 194.269 154.714 195.826C152.96 197.401 150.857 198.206 148.455 198.199C148.454 198.199 148.453 198.199 148.453 198.199L148.456 197.199C145.298 197.199 141.474 195.566 137.187 192.435L166.454 85.1576ZM166.454 85.1576L165.329 85.0682C161.719 84.781 158.089 84.5891 154.51 84.5479L153.691 84.5385L153.52 85.3387C150.542 99.2591 148.53 113.367 147.496 127.561M166.454 85.1576L147.496 127.561M147.496 127.561C142.726 113.998 139.002 100.087 136.36 85.9493L136.194 85.0588L135.291 85.1368C131.169 85.4928 126.981 86.013 122.699 86.697L121.678 86.8601L121.875 87.8751C125.772 107.946 132.642 131.478 144.982 159.377C144.865 161.594 144.357 163.774 143.481 165.816L143.479 165.821C143.27 166.316 142.924 166.742 142.482 167.049C142.054 167.346 141.552 167.519 141.032 167.549L147.496 127.561Z" stroke="#A5D936" stroke-width="2"/>
<path d="M260.46 197.45C263.197 197.45 265.527 196.915 267.398 195.815C269.284 194.707 270.639 193.063 271.47 190.967C273.109 186.833 272.618 181.195 270.67 174.583L270.585 174.295L270.355 174.101C263.108 167.996 256.316 161.987 249.979 156.075L247.749 153.995L248.314 156.991C249.048 160.883 249.007 163.679 248.323 165.419C247.993 166.26 247.526 166.822 246.945 167.173C246.356 167.527 245.559 167.721 244.48 167.661L244.477 167.661C241.907 167.527 238.797 166.19 235.272 163.452C231.282 160.248 227.783 156.475 224.89 152.253L224.89 152.253L224.882 152.243C221.458 147.385 218.596 142.155 216.348 136.654L216.343 136.641L216.338 136.628C214.356 132.135 213.008 127.388 212.332 122.523C211.908 118.68 212.353 116.153 213.292 114.641L213.292 114.641L213.295 114.636C213.703 113.969 214.323 113.459 215.056 113.186C215.789 112.914 216.592 112.895 217.337 113.134L217.384 113.149L217.432 113.159C219.213 113.539 221.202 114.63 223.537 116.604C225.867 118.574 228.48 121.368 231.512 125.064L232.987 126.862L233.277 124.554C233.818 120.255 234.507 116.284 235.317 112.6L235.415 112.151L235.139 111.784C231.576 107.048 227.555 102.676 223.132 98.7308C219.853 95.6813 215.927 93.4115 211.648 92.091L211.629 92.0849L211.609 92.0796C209.406 91.4984 207.344 91.3826 205.457 91.838C203.558 92.2964 201.903 93.3184 200.506 94.9027C197.739 98.0394 196.148 103.024 196.023 110.04C195.898 117.089 197.345 125.703 201.076 136.157L202.018 135.821L201.076 136.157C204.893 146.849 210.21 156.943 216.868 166.138C223.007 174.85 230.489 182.531 239.036 188.896L239.043 188.901L239.049 188.905C246.846 194.53 254.225 197.492 260.46 197.45ZM260.46 197.45C260.458 197.45 260.457 197.45 260.456 197.45V196.45M260.46 197.45C260.461 197.45 260.462 197.45 260.463 197.45L260.456 196.45M260.456 196.45C254.522 196.491 247.35 193.66 239.634 188.094L234.653 164.237C238.259 167.04 241.566 168.51 244.424 168.66C248.976 168.913 250.556 165.253 249.567 158.424C249.249 158.128 248.931 157.833 248.614 157.537L249.297 156.806L250.279 156.621C250.363 157.066 250.438 157.502 250.504 157.929C256.508 163.491 262.91 169.137 269.711 174.866C271.643 181.425 272.051 186.788 270.54 190.598C269.03 194.409 265.682 196.45 260.456 196.45Z" stroke="#A5D936" stroke-width="2"/>
<path d="M306.033 193.765C301.955 187.083 298.184 180.724 294.719 174.686C301.615 175.115 308.592 175.559 315.651 176.018C322.456 182.232 329.769 188.657 337.589 195.294L337.866 195.529L338.229 195.531L355.009 195.654L357.93 195.675L355.635 193.868C313.979 161.066 284.969 133.157 266.763 109.503L266.563 109.242L266.247 109.152C261.83 107.882 257.513 106.63 253.295 105.397L251.751 104.945L252.03 106.53C255.706 127.393 267.024 155.638 287.967 194.65L288.247 195.173L288.841 195.177L305.172 195.286L306.968 195.298L306.033 193.765ZM282.757 152.871C279.477 146.509 276.441 140.024 273.657 133.432C279.403 140.048 285.806 146.94 292.905 154.125L282.757 152.871Z" stroke="#A5D936" stroke-width="2"/>
<path d="M353.658 155.096L353.661 155.059C353.691 154.644 353.494 153.933 352.825 152.839C352.177 151.78 351.176 150.503 349.834 148.999C347.304 146.242 344.392 143.862 341.187 141.931L353.658 155.096ZM353.658 155.096V155.133M353.658 155.096V155.133M353.658 155.133C353.658 155.302 353.614 155.379 353.569 155.431C353.509 155.499 353.367 155.611 353.045 155.706C352.376 155.904 351.24 155.94 349.555 155.707L349.555 155.707M353.658 155.133L349.555 155.707M349.555 155.707L349.548 155.706M349.555 155.707L349.548 155.706M349.548 155.706L340.728 154.554C334.9 148.387 329.738 142.584 325.185 137.119M349.548 155.706L325.185 137.119M325.185 137.119C327.309 137.52 329.456 137.914 331.628 138.302C335.005 138.932 338.242 140.161 341.186 141.931L325.185 137.119ZM381.473 194.131C373.601 186.992 366.345 180.214 359.703 173.796L367.064 174.379C367.066 174.379 367.067 174.379 367.068 174.379C372.425 174.847 376.167 174.027 378.228 171.803C380.392 169.469 380.051 166.196 378.403 162.621C376.727 158.986 373.52 154.821 369.06 150.17C360.559 141.19 350.376 133.97 339.09 128.92C333.825 126.554 328.325 124.749 322.682 123.534L322.68 123.533C313.726 121.631 305.192 119.606 297.035 117.554L294.564 116.932L295.953 119.068C308.876 138.953 330.567 163.703 363.931 195.46L364.217 195.732L364.612 195.736L380.793 195.872L383.417 195.894L381.473 194.131Z" stroke="#A5D936" stroke-width="2"/>
<path d="M436.291 192.809L436.291 192.809L436.298 192.812C445.119 196.154 452.582 197.858 458.822 197.858C465.03 197.858 469.053 196.27 471.245 193.037C473.396 189.864 473.527 185.752 472.325 181.016L472.321 180.998L472.315 180.98C470.643 175.283 467.798 169.998 463.963 165.466C459.264 159.583 453.6 154.541 447.213 150.555C440.032 146.056 432.311 142.482 424.235 139.918C416.125 137.254 407.752 135.473 399.26 134.608L399.259 134.607C391.15 133.787 384.761 134.066 380.379 135.641C378.177 136.433 376.456 137.572 375.408 139.166C374.346 140.781 374.064 142.727 374.482 144.934C375.306 149.287 378.952 154.563 385.352 160.853L385.352 160.853L385.361 160.862C392.579 167.783 400.523 173.903 409.056 179.118C417.674 184.545 426.794 189.13 436.291 192.809ZM441.407 165.559L441.421 165.574L441.435 165.588C443.746 167.956 445.593 170.737 446.879 173.786C447.671 176.007 447.563 177.464 446.902 178.42L446.756 178.595C445.934 179.585 444.281 180.229 441.201 180.1C437.454 179.823 433.778 178.93 430.321 177.457L430.312 177.453L430.302 177.449C425.741 175.615 421.368 173.343 417.246 170.665L417.246 170.665L417.238 170.66C412.984 167.951 409.025 164.802 405.428 161.266C402.037 157.889 400.163 155.206 399.545 153.143C399.237 152.12 399.254 151.353 399.452 150.791C399.643 150.246 400.046 149.776 400.754 149.402C402.28 148.599 404.834 148.227 408.476 148.574C412.431 148.991 416.316 149.918 420.034 151.331L420.034 151.331L420.042 151.334C424.138 152.848 428.047 154.827 431.692 157.232L431.695 157.234C435.276 159.58 438.541 162.379 441.407 165.559Z" stroke="#A5D936" stroke-width="2"/>
<path d="M551.634 170.192C549.302 168.281 546.095 166.847 542.109 165.793C544.287 164.741 546.286 163.337 548.022 161.631C549.102 160.576 549.954 159.311 550.525 157.913C551.097 156.515 551.375 155.015 551.343 153.505L551.343 153.5C551.203 148.135 547.076 144.407 539.747 142.172C532.407 139.934 522.154 139.134 509.996 139.407C493.67 139.761 478.18 139.761 463.526 139.407L461.867 139.367L462.607 140.853C471.009 157.726 483.377 175.922 500.849 196.285L501.147 196.632L501.605 196.634L531.614 196.715H531.617C539.139 196.715 544.601 195.251 548.905 192.188C551.038 190.804 552.799 188.918 554.033 186.695C555.27 184.467 555.94 181.968 555.984 179.42C556.035 177.647 555.668 175.887 554.911 174.283C554.155 172.681 553.032 171.279 551.634 170.192ZM510.441 152.254L510.448 152.254C514.191 152.227 517.009 152.633 518.96 153.428C520.876 154.209 521.879 155.323 522.22 156.741C522.402 157.497 522.357 158.068 522.178 158.509C522.001 158.945 521.651 159.359 521.031 159.726C519.74 160.491 517.459 160.951 514.021 160.951C508.994 160.942 504.047 160.9 499.179 160.824C497.798 157.949 496.499 155.092 495.281 152.254H495.305H495.337H495.37H495.402H495.434H495.466H495.498H495.53H495.562H495.594H495.626H495.658H495.69H495.722H495.755H495.787H495.819H495.851H495.883H495.915H495.947H495.979H496.011H496.044H496.076H496.108H496.14H496.172H496.204H496.236H496.268H496.301H496.333H496.365H496.397H496.429H496.461H496.493H496.526H496.558H496.59H496.622H496.654H496.686H496.719H496.751H496.783H496.815H496.847H496.879H496.912H496.944H496.976H497.008H497.04H497.073H497.105H497.137H497.169H497.201H497.234H497.266H497.298H497.33H497.362H497.395H497.427H497.459H497.491H497.524H497.556H497.588H497.62H497.653H497.685H497.717H497.749H497.781H497.814H497.846H497.878H497.91H497.943H497.975H498.007H498.04H498.072H498.104H498.136H498.169H498.201H498.233H498.265H498.298H498.33H498.362H498.395H498.427H498.459H498.492H498.524H498.556H498.588H498.621H498.653H498.685H498.718H498.75H498.782H498.815H498.847H498.879H498.912H498.944H498.976H499.009H499.041H499.073H499.106H499.138H499.17H499.203H499.235H499.267H499.3H499.332H499.365H499.397H499.429H499.462H499.494H499.526H499.559H499.591H499.624H499.656H499.688H499.721H499.753H499.785H499.818H499.85H499.883H499.915H499.947H499.98H500.012H500.045H500.077H500.11H500.142H500.174H500.207H500.239H500.272H500.304H500.337H500.369H500.401H500.434H500.466H500.499H500.531H500.564H500.596H500.629H500.661H500.694H500.726H500.758H500.791H500.823H500.856H500.888H500.921H500.953H500.986H501.018H501.051H501.083H501.116H501.148H501.181H501.213H501.246H501.278H501.311H501.343H501.376H501.408H501.441H501.473H501.506H501.538H501.571H501.603H501.636H501.669H501.701H501.734H501.766H501.799H501.831H501.864H501.896H501.929H501.961H501.994H502.027H502.059H502.092H502.124H502.157H502.189H502.222H502.255H502.287H502.32H502.352H502.385H502.417H502.45H502.483H502.515H502.548H502.58H502.613H502.646H502.678H502.711H502.743H502.776H502.809H502.841H502.874H502.907H502.939H502.972H503.004H503.037H503.07H503.102H503.135H503.168H503.2H503.233H503.266H503.298H503.331H503.364H503.396H503.429H503.462H503.494H503.527H503.56H503.592H503.625H503.658H503.69H503.723H503.756H503.788H503.821H503.854H503.886H503.919H503.952H503.985H504.017H504.05H504.083H504.115H504.148H504.181H504.214H504.246H504.279H504.312H504.344H504.377H504.41H504.443H504.475H504.508H504.541H504.574H504.606H504.639H504.672H504.705H504.737H504.77H504.803H504.836H504.868H504.901H504.934H504.967H505H505.032H505.065H505.098H505.131H505.163H505.196H505.229H505.262H505.295H505.327H505.36H505.393H505.426H505.459H505.491H505.524H505.557H505.59H505.623H505.656H505.688H505.721H505.754H505.787H505.82H505.853H505.885H505.918H505.951H505.984H506.017H506.05H506.083H506.115H506.148H506.181H506.214H506.247H506.28H506.313H506.345H506.378H506.411H506.444H506.477H506.51H506.543H506.576H506.609H506.641H506.674H506.707H506.74H506.773H506.806H506.839H506.872H506.905H506.938H506.971H507.003H507.036H507.069H507.102H507.135H507.168H507.201H507.234H507.267H507.3H507.333H507.366H507.399H507.432H507.465H507.498H507.531H507.564H507.596H507.629H507.662H507.695H507.728H507.761H507.794H507.827H507.86H507.893H507.926H507.959H507.992H508.025H508.058H508.091H508.124H508.157H508.19H508.223H508.256H508.289H508.322H508.355H508.388H508.421H508.454H508.487H508.521H508.554H508.587H508.62H508.653H508.686H508.719H508.752H508.785H508.818H508.851H508.884H508.917H508.95H508.983H509.016H509.049H509.082H509.116H509.149H509.182H509.215H509.248H509.281H509.314H509.347H509.38H509.413H509.446H509.479H509.513H509.546H509.579H509.612H509.645H509.678H509.711H509.744H509.778H509.811H509.844H509.877H509.91H509.943H509.976H510.009H510.043H510.076H510.109H510.142H510.175H510.208H510.242H510.275H510.308H510.341H510.374H510.407L510.441 152.254ZM531.887 178.507L531.889 178.514C532.352 180.24 532.017 181.249 531.257 181.89C530.385 182.626 528.701 183.113 525.938 183.093C520.928 183.041 515.985 182.988 511.068 182.911C509.148 179.683 507.327 176.492 505.605 173.339C510.796 173.437 516.08 173.525 521.42 173.525C524.644 173.545 527.08 174.016 528.796 174.871C530.473 175.707 531.471 176.909 531.887 178.507Z" stroke="#A5D936" stroke-width="2"/>
</svg>
