<svg width="96" height="57" viewBox="0 0 96 57" fill="none" xmlns="http://www.w3.org/2000/svg">
<line y1="-1" x2="21.0754" y2="-1" transform="matrix(4.34171e-08 1 1 -4.40077e-08 76.5039 35.3193)" stroke="#A5D936" stroke-width="2"/>
<line y1="-1" x2="20.9335" y2="-1" transform="matrix(1 -8.83117e-08 -8.65399e-08 -1 65.9531 45.376)" stroke="#A5D936" stroke-width="2"/>
<line y1="-1" x2="21.0754" y2="-1" transform="matrix(4.34171e-08 1 1 -4.40077e-08 43.3828 35.3174)" stroke="#A5D936" stroke-width="2"/>
<line y1="-1" x2="20.9335" y2="-1" transform="matrix(1 -8.83117e-08 -8.65399e-08 -1 32.832 45.374)" stroke="#A5D936" stroke-width="2"/>
<line y1="-1" x2="21.0754" y2="-1" transform="matrix(4.34171e-08 1 1 -4.40077e-08 76.5039 0.000976562)" stroke="#A5D936" stroke-width="2"/>
<line y1="-1" x2="20.9335" y2="-1" transform="matrix(1 -8.83117e-08 -8.65399e-08 -1 65.9531 10.0576)" stroke="#A5D936" stroke-width="2"/>
<line y1="-1" x2="21.0754" y2="-1" transform="matrix(4.34171e-08 1 1 -4.40077e-08 43.3828 0.000976562)" stroke="#A5D936" stroke-width="2"/>
<line y1="-1" x2="20.9335" y2="-1" transform="matrix(1 -8.83117e-08 -8.65399e-08 -1 32.832 10.0576)" stroke="#A5D936" stroke-width="2"/>
<line y1="-1" x2="21.0754" y2="-1" transform="matrix(4.34171e-08 1 1 -4.40077e-08 10.5508 0.000976562)" stroke="#A5D936" stroke-width="2"/>
<line y1="-1" x2="20.9335" y2="-1" transform="matrix(1 -8.83117e-08 -8.65399e-08 -1 0 10.0576)" stroke="#A5D936" stroke-width="2"/>
</svg>
