<svg width="93" height="77" viewBox="0 0 93 77" fill="none" xmlns="http://www.w3.org/2000/svg">
<path opacity="0.1" d="M1.13692 35.5475C-2.77454 50.1452 4.56021 61.0167 15.2597 63.8836C25.0487 66.5065 35.4104 60.6176 37.998 50.9606C40.5855 41.3036 35.5012 32.9608 26.8505 30.6429C25.0293 30.1549 22.9203 29.8305 22.117 30.0966C26.3322 22.5607 37.2826 15.3852 45.5904 13.5193L35.7174 0.282844C19.0156 6.15793 5.65014 18.7039 1.13692 35.5475ZM47.5774 47.9912C43.6659 62.5889 50.773 73.3994 61.4726 76.2663C71.4891 78.9502 81.6232 73.0003 84.2108 63.3433C86.7984 53.6863 81.714 45.3435 73.291 43.0866C71.4698 42.5986 69.3608 42.2742 68.5575 42.5403C72.545 34.9434 83.7231 27.8289 92.0309 25.963L81.9303 12.6655C65.2284 18.5406 52.0906 31.1476 47.5774 47.9912Z" fill="white"/>
</svg>
