<svg width="734" height="339" viewBox="0 0 734 339" fill="none" xmlns="http://www.w3.org/2000/svg">
<path d="M-2.43542 140.247L-2.43352 140.249C1.23896 144.057 5.81276 146.876 10.8645 148.446C15.0972 149.923 19.6085 150.428 24.063 149.922L24.068 149.922C28.1713 149.435 32.0802 147.9 35.4183 145.465L36.1793 144.91L35.6704 144.117C33.4202 140.611 31.1825 137.058 28.9574 133.458L28.3806 132.525L27.5047 133.185C25.7837 134.483 23.7738 135.344 21.6471 135.694C19.5204 136.044 17.3404 135.873 15.2943 135.195L15.2866 135.193L15.2788 135.19C12.9218 134.452 10.7944 133.119 9.10152 131.321C7.49073 129.585 6.38057 127.445 5.88887 125.128C5.36706 122.63 5.45963 120.041 6.15858 117.586L6.164 117.567L6.16866 117.548C6.74546 115.167 7.93088 112.978 9.60871 111.194C11.1163 109.625 13.0731 108.563 15.2097 108.152C17.5651 107.718 19.9933 107.909 22.2518 108.706L22.2607 108.709L22.2695 108.712C24.3907 109.417 26.3312 110.578 27.9544 112.115C29.5775 113.651 30.8437 115.526 31.6632 117.605L32.0606 118.614L33.0338 118.136C36.7128 116.332 40.396 114.513 44.0834 112.677L44.9292 112.256L44.5568 111.388C42.8968 107.517 40.3529 104.09 37.1288 101.381L37.1244 101.377C33.644 98.4869 29.6349 96.3006 25.3205 94.9399C20.4734 93.2537 15.2908 92.7632 10.2133 93.5102L10.2117 93.5104C5.55318 94.2034 1.20423 96.2604 -2.28662 99.422L-2.29248 99.4274L-2.29825 99.4327C-5.90869 102.808 -8.45255 107.166 -9.61647 111.969C-10.9938 116.922 -11.037 122.152 -9.74145 127.128C-8.47436 132.056 -5.95805 136.575 -2.43542 140.247Z" stroke="#A5D936" stroke-width="2"/>
<path d="M51.4008 159.321L52.048 159.488L52.4495 158.954L58.5516 150.833C65.1511 152.484 71.7748 154.045 78.4226 155.516L79.6937 165.349L79.7843 166.05L80.4754 166.198C85.4188 167.26 90.3736 168.279 95.3403 169.255L96.7585 169.533L96.5192 168.108C93.4928 150.078 90.4918 131.953 87.516 113.734L87.4072 113.067L86.7481 112.919C82.0921 111.874 77.4488 110.782 72.8181 109.642L72.1969 109.49L71.7977 109.989C60.0102 124.751 48.2576 139.383 36.5398 153.884L35.5835 155.068L37.0492 155.476C41.8205 156.805 46.6042 158.087 51.4008 159.321ZM66.7419 139.754L75.0442 128.609L76.743 142.108C73.4131 141.347 70.0794 140.562 66.7419 139.754Z" stroke="#A5D936" stroke-width="2"/>
<path d="M149.425 138.177L150.307 138.308L150.538 137.447L153.516 126.331L153.807 125.247L152.696 125.083C137.544 122.846 122.383 120.265 107.38 117.296L106.462 117.114L106.219 118.018L103.235 129.157L102.957 130.195L104.011 130.398C108.842 131.33 113.68 132.235 118.525 133.112L108.483 170.59L108.201 171.642L109.273 171.833C113.995 172.676 118.726 173.487 123.465 174.266L124.358 174.413L124.593 173.538L134.682 135.884C139.587 136.684 144.502 137.448 149.425 138.177Z" stroke="#A5D936" stroke-width="2"/>
<path d="M159.005 176.943L159.005 176.943L159.016 176.951C163.227 179.944 168.158 181.765 173.304 182.227C178.722 182.93 184.229 182.356 189.386 180.552C194.365 178.84 198.867 175.972 202.523 172.184C206.132 168.47 208.716 163.884 210.023 158.872C211.412 154.227 211.356 149.269 209.863 144.656L209.86 144.648L209.858 144.64C208.355 140.25 205.492 136.453 201.683 133.802L201.683 133.802L201.676 133.797C197.417 130.887 192.485 129.113 187.348 128.643C181.958 127.943 176.48 128.465 171.319 130.171C166.378 131.779 161.895 134.551 158.249 138.254L158.248 138.255C154.645 141.92 152.068 146.469 150.777 151.444C149.391 156.132 149.433 161.127 150.896 165.792L150.899 165.799L150.901 165.806C152.374 170.273 155.207 174.167 159.005 176.943ZM183.685 167.814L183.679 167.816C181.434 168.704 179.002 169.018 176.604 168.73L176.593 168.729L176.583 168.728C174.37 168.51 172.265 167.668 170.514 166.299C168.893 164.991 167.732 163.199 167.201 161.186C166.6 158.845 166.648 156.385 167.341 154.07L167.346 154.051L167.351 154.031C167.992 151.523 169.227 149.205 170.952 147.274L170.952 147.274C172.578 145.453 174.618 144.05 176.901 143.183L176.901 143.183C179.151 142.328 181.577 142.037 183.966 142.334L183.979 142.336L183.992 142.337C186.206 142.553 188.313 143.388 190.073 144.747C191.695 146.027 192.861 147.795 193.4 149.789C194 152.099 193.958 154.53 193.28 156.819L193.274 156.838L193.269 156.858C192.631 159.379 191.393 161.709 189.66 163.649L189.657 163.652C188.026 165.495 185.978 166.922 183.685 167.814Z" stroke="#A5D936" stroke-width="2"/>
<path d="M259.11 188.506L258.804 189.661L259.995 189.759L273.61 190.885L274.444 190.954L274.659 190.144L287.825 140.439L288.131 139.283L286.939 139.186L274.806 138.204L274.326 138.165L273.997 138.516C265.86 147.182 257.725 155.841 249.591 164.493C246.239 154.928 242.891 145.346 239.549 135.746L239.337 135.139L238.698 135.079L226.606 133.943L225.765 133.864L225.547 134.68L212.238 184.347L211.933 185.488L213.108 185.602C217.606 186.038 222.108 186.462 226.613 186.875L227.452 186.951L227.67 186.138L233.736 163.5L240.44 182.514L240.655 183.123L241.298 183.178L247.84 183.74L248.321 183.781L248.653 183.429L265.079 165.99L259.11 188.506Z" stroke="#A5D936" stroke-width="2"/>
<path d="M364.679 147.862L364.679 147.862L364.675 147.859C360.949 145.849 356.823 144.693 352.595 144.475C344.665 143.811 336.731 143.163 328.793 142.531L327.963 142.465L327.747 143.269L314.439 192.936L314.128 194.096L315.325 194.192L330.064 195.378L330.895 195.445L331.11 194.64L334.379 182.439L342.613 183.128C347.061 183.574 351.554 183.161 355.847 181.913C359.654 180.809 363.135 178.792 365.986 176.038L365.986 176.038L365.994 176.03C368.754 173.303 370.719 169.877 371.681 166.119C372.745 162.649 372.665 158.929 371.452 155.508L371.446 155.489L371.438 155.47C370.135 152.227 367.746 149.537 364.679 147.862ZM351.605 168.831L351.409 168.95C349.402 169.944 347.139 170.311 344.917 169.998L344.889 169.994L344.861 169.992L337.871 169.408L341.243 156.825L348.592 157.44L348.592 157.44C351.499 157.683 353.281 158.465 354.225 159.566C354.719 160.212 355.042 160.971 355.165 161.774C355.29 162.585 355.207 163.414 354.924 164.184L354.902 164.242L354.888 164.302C354.671 165.238 354.268 166.121 353.705 166.899C353.141 167.676 352.427 168.333 351.605 168.831Z" stroke="#A5D936" stroke-width="2"/>
<path d="M384.312 197.742L384.317 197.746C388.591 200.634 393.533 202.379 398.673 202.814C404.09 203.454 409.581 202.874 414.746 201.117C419.707 199.445 424.2 196.617 427.854 192.868C431.459 189.184 434.037 184.623 435.335 179.635C436.721 174.961 436.675 169.979 435.203 165.331L435.2 165.324L435.198 165.316C433.718 160.888 430.871 157.044 427.068 154.336L427.068 154.335L427.061 154.33C422.821 151.368 417.869 149.587 412.714 149.17C407.273 148.521 401.756 149.144 396.597 150.99C391.612 152.739 387.107 155.634 383.443 159.44C379.838 163.171 377.253 167.766 375.936 172.784C374.54 177.422 374.598 182.377 376.102 186.981L376.105 186.99L376.108 186.999C377.624 191.365 380.499 195.13 384.312 197.742ZM409.062 188.251L409.055 188.254C406.802 189.142 404.366 189.467 401.959 189.203L401.948 189.202L401.937 189.201C399.724 189.007 397.611 188.195 395.838 186.856C394.212 185.601 393.042 183.849 392.507 181.866C391.896 179.559 391.937 177.127 392.626 174.842L392.631 174.822L392.637 174.803C393.286 172.279 394.526 169.945 396.253 167.993L396.255 167.991C397.89 166.134 399.942 164.691 402.243 163.782L402.245 163.782C404.493 162.889 406.927 162.567 409.33 162.845L409.346 162.846L409.361 162.848C411.572 163.034 413.683 163.849 415.445 165.198C417.063 166.485 418.227 168.255 418.768 170.251C419.365 172.562 419.323 174.993 418.648 177.283L418.643 177.3L418.638 177.318C417.995 179.835 416.758 182.16 415.03 184.1L415.028 184.103C413.401 185.944 411.354 187.367 409.062 188.251Z" stroke="#A5D936" stroke-width="2"/>
<path d="M449.578 205.759L449.582 205.762C453.703 208.825 458.53 210.799 463.617 211.503C468.122 212.296 472.739 212.204 477.21 211.234L477.213 211.233C481.422 210.304 485.369 208.44 488.76 205.778L489.51 205.19L488.958 204.413C486.638 201.145 484.313 197.893 481.985 194.657L481.357 193.784L480.532 194.473C478.777 195.939 476.731 197.016 474.529 197.632C472.327 198.247 470.02 198.388 467.759 198.045L467.759 198.045L467.746 198.043C465.393 197.719 463.17 196.77 461.308 195.295C459.657 193.956 458.481 192.122 457.952 190.064C457.383 187.7 457.447 185.229 458.138 182.898L458.144 182.879L458.149 182.86C458.781 180.368 460.001 178.064 461.704 176.138C463.311 174.326 465.362 172.965 467.655 172.189C470.033 171.395 472.572 171.205 475.042 171.637L475.054 171.639L475.067 171.641C477.16 171.952 479.142 172.782 480.832 174.056C482.523 175.33 483.867 177.007 484.743 178.933L485.198 179.934L486.151 179.387C489.923 177.222 493.689 175.081 497.448 172.964L498.26 172.507L497.862 171.665C496.132 168.009 493.45 164.886 490.099 162.622L490.094 162.619C486.371 160.133 482.141 158.506 477.711 157.858C472.445 156.951 467.038 157.326 461.948 158.95C457.038 160.506 452.59 163.255 449.002 166.951C445.397 170.644 442.817 175.213 441.516 180.207C440.129 184.917 440.163 189.932 441.615 194.623L441.617 194.63L441.62 194.637C443.066 199.074 445.845 202.958 449.578 205.759Z" stroke="#A5D936" stroke-width="2"/>
<path d="M505.1 218.149L505.726 218.281L506.108 217.767L512.266 209.479C518.916 210.918 525.54 212.447 532.141 214.067L533.403 223.963L533.488 224.629L534.136 224.803L534.165 224.81L534.194 224.818L534.222 224.826L534.251 224.833L534.279 224.841L534.308 224.849L534.336 224.856L534.365 224.864L534.393 224.872L534.422 224.879L534.45 224.887L534.479 224.894L534.508 224.902L534.536 224.91L534.565 224.917L534.593 224.925L534.622 224.933L534.65 224.94L534.679 224.948L534.707 224.956L534.736 224.963L534.764 224.971L534.793 224.979L534.822 224.986L534.85 224.994L534.879 225.002L534.907 225.009L534.936 225.017L534.964 225.025L534.993 225.032L535.021 225.04L535.05 225.047L535.078 225.055L535.107 225.063L535.136 225.07L535.164 225.078L535.193 225.086L535.221 225.093L535.25 225.101L535.278 225.109L535.307 225.116L535.335 225.124L535.364 225.132L535.393 225.139L535.421 225.147L535.45 225.155L535.478 225.162L535.507 225.17L535.535 225.178L535.564 225.185L535.592 225.193L535.621 225.2L535.649 225.208L535.678 225.216L535.707 225.223L535.735 225.231L535.764 225.239L535.792 225.246L535.821 225.254L535.849 225.262L535.878 225.269L535.906 225.277L535.935 225.285L535.963 225.292L535.992 225.3L536.021 225.308L536.049 225.315L536.078 225.323L536.106 225.331L536.135 225.338L536.163 225.346L536.192 225.353L536.22 225.361L536.249 225.369L536.277 225.376L536.306 225.384L536.335 225.392L536.363 225.399L536.392 225.407L536.42 225.415L536.449 225.422L536.477 225.43L536.506 225.438L536.534 225.445L536.563 225.453L536.592 225.461L536.62 225.468L536.649 225.476L536.677 225.483L536.706 225.491L536.734 225.499L536.763 225.506L536.791 225.514L536.82 225.522L536.848 225.529L536.877 225.537L536.906 225.545L536.934 225.552L536.963 225.56L536.991 225.568L537.02 225.575L537.048 225.583L537.077 225.591L537.105 225.598L537.134 225.606L537.162 225.614L537.191 225.621L537.22 225.629L537.248 225.636L537.277 225.644L537.305 225.652L537.334 225.659L537.362 225.667L537.391 225.675L537.419 225.682L537.448 225.69L537.476 225.698L537.505 225.705L537.534 225.713L537.562 225.721L537.591 225.728L537.619 225.736L537.648 225.744L537.676 225.751L537.705 225.759L537.733 225.767L537.762 225.774L537.791 225.782L537.819 225.789L537.848 225.797L537.876 225.805L537.905 225.812L537.933 225.82L537.962 225.828L537.99 225.835L538.019 225.843L538.047 225.851L538.076 225.858L538.105 225.866L538.133 225.874L538.162 225.881L538.19 225.889L538.219 225.897L538.247 225.904L538.276 225.912L538.304 225.919L538.333 225.927L538.361 225.935L538.39 225.942L538.419 225.95L538.447 225.958L538.476 225.965L538.504 225.973L538.533 225.981L538.561 225.988L538.59 225.996L538.618 226.004L538.647 226.011L538.675 226.019L538.704 226.027L538.733 226.034L538.761 226.042L538.79 226.05L538.818 226.057L538.847 226.065L538.875 226.072L538.904 226.08L538.932 226.088L538.961 226.095L538.989 226.103L539.018 226.111L539.047 226.118L539.075 226.126L539.104 226.134L539.132 226.141L539.161 226.149L539.189 226.157L539.218 226.164L539.246 226.172L539.275 226.18L539.304 226.187L539.332 226.195L539.361 226.203L539.389 226.21L539.418 226.218L539.446 226.225L539.475 226.233L539.503 226.241L539.532 226.248L539.56 226.256L539.589 226.264L539.618 226.271L539.646 226.279L539.675 226.287L539.703 226.294L539.732 226.302L539.76 226.31L539.789 226.317L539.817 226.325L539.846 226.333L539.874 226.34L539.903 226.348L539.932 226.356L539.96 226.363L539.989 226.371L540.017 226.378L540.046 226.386L540.074 226.394L540.103 226.401L540.131 226.409L540.16 226.417L540.188 226.424L540.217 226.432L540.246 226.44L540.274 226.447L540.303 226.455L540.331 226.463L540.36 226.47L540.388 226.478L540.417 226.486L540.445 226.493L540.474 226.501L540.502 226.508L540.531 226.516L540.56 226.524L540.588 226.531L540.617 226.539L540.645 226.547L540.674 226.554L540.702 226.562L540.731 226.57L540.759 226.577L540.788 226.585L540.817 226.593L540.845 226.6L540.874 226.608L540.902 226.616L540.931 226.623L540.959 226.631L540.988 226.639L541.016 226.646L541.045 226.654L541.073 226.661L541.102 226.669L541.131 226.677L541.159 226.684L541.188 226.692L541.216 226.7L541.245 226.707L541.273 226.715L541.302 226.723L541.33 226.73L541.359 226.738L541.387 226.746L541.416 226.753L541.445 226.761L541.473 226.769L541.502 226.776L541.53 226.784L541.559 226.792L541.587 226.799L541.616 226.807L541.644 226.814L541.673 226.822L541.701 226.83L541.73 226.837L541.759 226.845L541.787 226.853L541.816 226.86L541.844 226.868L541.873 226.876L541.901 226.883L541.93 226.891L541.958 226.899L541.987 226.906L542.016 226.914L542.044 226.922L542.073 226.929L542.101 226.937L542.13 226.944L542.158 226.952L542.187 226.96L542.215 226.967L542.244 226.975L542.272 226.983L542.301 226.99L542.33 226.998L542.358 227.006L542.387 227.013L542.415 227.021L542.444 227.029L542.472 227.036L542.501 227.044L542.529 227.052L542.558 227.059L542.586 227.067L542.615 227.075L542.644 227.082L542.672 227.09L542.701 227.097L542.729 227.105L542.758 227.113L542.786 227.12L542.815 227.128L542.843 227.136L542.872 227.143L542.9 227.151L542.929 227.159L542.958 227.166L542.986 227.174L543.015 227.182L543.043 227.189L543.072 227.197L543.1 227.205L543.129 227.212L543.157 227.22L543.186 227.228L543.214 227.235L543.243 227.243L543.272 227.25L543.3 227.258L543.329 227.266L543.357 227.273L543.386 227.281L543.414 227.289L543.443 227.296L543.471 227.304L543.5 227.312L543.529 227.319L543.557 227.327L543.586 227.335L543.614 227.342L543.643 227.35L543.671 227.358L543.7 227.365L543.728 227.373L543.757 227.38L543.785 227.388L543.814 227.396L543.843 227.403L543.871 227.411L543.9 227.419L543.928 227.426L543.957 227.434L543.985 227.442L544.014 227.449L544.042 227.457L544.071 227.465L544.099 227.472L544.128 227.48L544.157 227.488L544.185 227.495L544.214 227.503L544.242 227.511L544.271 227.518L544.299 227.526L544.328 227.533L544.356 227.541L544.385 227.549L544.413 227.556L544.442 227.564L544.471 227.572L544.499 227.579L544.528 227.587L544.556 227.595L544.585 227.602L544.613 227.61L544.642 227.618L544.67 227.625L544.699 227.633L544.727 227.641L544.756 227.648L544.785 227.656L544.813 227.664L544.842 227.671L544.87 227.679L544.899 227.686L544.927 227.694L544.956 227.702L544.984 227.709L545.013 227.717L545.042 227.725L545.07 227.732L545.099 227.74L545.127 227.748L545.156 227.755L545.184 227.763L545.213 227.771L545.241 227.778L545.27 227.786L545.298 227.794L545.327 227.801L545.356 227.809L545.384 227.817L545.413 227.824L545.441 227.832L545.47 227.839L545.498 227.847L545.527 227.855L545.555 227.862L545.584 227.87L545.612 227.878L545.641 227.885L545.67 227.893L545.698 227.901L545.727 227.908L545.755 227.916L545.784 227.924L545.812 227.931L545.841 227.939L545.869 227.947L545.898 227.954L545.926 227.962L545.955 227.969L545.984 227.977L546.012 227.985L546.041 227.992L546.069 228L546.098 228.008L546.126 228.015L546.155 228.023L546.183 228.031L546.212 228.038L546.241 228.046L546.269 228.054L546.298 228.061L546.326 228.069L546.355 228.077L546.383 228.084L546.412 228.092L546.44 228.1L546.469 228.107L546.497 228.115L546.526 228.122L546.555 228.13L546.583 228.138L546.612 228.145L546.64 228.153L546.669 228.161L546.697 228.168L546.726 228.176L546.754 228.184L546.783 228.191L546.811 228.199L546.84 228.207L546.869 228.214L546.897 228.222L546.926 228.23L546.954 228.237L546.983 228.245L547.011 228.253L547.04 228.26L547.068 228.268L547.097 228.275L547.125 228.283L547.154 228.291L547.183 228.298L547.211 228.306L547.24 228.314L547.268 228.321L547.297 228.329L547.325 228.337L547.354 228.344L547.382 228.352L547.411 228.36L547.439 228.367L547.468 228.375L547.497 228.383L547.525 228.39L547.554 228.398L547.582 228.405L547.611 228.413L547.639 228.421L547.668 228.428L547.696 228.436L547.725 228.444L547.754 228.451L547.782 228.459L547.811 228.467L547.839 228.474L547.868 228.482L547.896 228.49L547.925 228.497L547.953 228.505L547.982 228.513L548.01 228.52L548.039 228.528L548.068 228.536L548.096 228.543L548.125 228.551L548.153 228.558L548.182 228.566L548.21 228.574L548.239 228.581L548.267 228.589L548.296 228.597L548.324 228.604L548.353 228.612L548.382 228.62L548.41 228.627L548.439 228.635L548.467 228.643L548.496 228.65L548.524 228.658L548.553 228.666L548.581 228.673L548.61 228.681L548.638 228.689L548.667 228.696L548.696 228.704L548.724 228.711L548.753 228.719L550.235 229.116L550 227.6C547.118 209.023 544.205 190.564 541.261 172.223L541.155 171.565L540.507 171.409C535.858 170.29 531.197 169.215 526.524 168.182L525.913 168.047L525.524 168.538C513.69 183.467 501.831 198.492 489.947 213.611L488.934 214.899L490.543 215.211C495.406 216.151 500.258 217.13 505.1 218.149ZM520.511 198.278L528.821 187.076L530.51 200.584C527.193 199.794 523.86 199.025 520.511 198.278Z" stroke="#A5D936" stroke-width="2"/>
<path d="M601.166 203.443L602.186 203.805L602.467 202.76L605.451 191.62L605.69 190.729L604.821 190.419C590.401 185.286 575.73 180.72 560.972 176.677L560.002 176.411L559.742 177.382L556.757 188.522L556.5 189.482L557.458 189.745C562.215 191.051 566.959 192.41 571.688 193.82L561.616 231.409L561.364 232.349L562.297 232.627C566.866 233.986 571.419 235.408 575.955 236.893L576.958 237.222L577.232 236.202L587.282 198.695C591.924 200.223 596.553 201.806 601.166 203.443Z" stroke="#A5D936" stroke-width="2"/>
<path d="M602.315 233.007L602.316 233.009C603.646 237.986 606.163 242.567 609.651 246.358C613.307 250.353 617.789 253.504 622.786 255.591C627.46 257.739 632.59 258.704 637.725 258.4L637.73 258.4C642.297 258.11 646.65 256.364 650.153 253.419L650.163 253.41L650.173 253.401C653.771 250.206 656.293 245.975 657.392 241.29C658.759 236.254 658.828 230.953 657.592 225.882C656.351 220.692 653.919 215.862 650.487 211.776C646.971 207.554 642.494 204.238 637.431 202.106C632.712 199.934 627.486 199.103 622.326 199.704L622.326 199.704L622.32 199.704C617.62 200.277 613.215 202.298 609.716 205.487L609.716 205.487L609.708 205.494C606.108 208.841 603.571 213.172 602.41 217.949C601.04 222.87 601.007 228.068 602.315 233.007ZM641.946 234.304L641.94 234.324L641.936 234.343C641.388 236.665 640.209 238.791 638.528 240.484C637.069 241.921 635.183 242.845 633.153 243.118C630.945 243.391 628.706 243.05 626.68 242.131L626.668 242.125L626.656 242.12C624.439 241.184 622.483 239.723 620.957 237.862L620.955 237.86C619.408 235.985 618.34 233.762 617.843 231.382L617.842 231.38C617.31 228.855 617.397 226.239 618.097 223.755L618.102 223.735L618.107 223.716C618.67 221.357 619.86 219.195 621.552 217.457C623.021 215.968 624.926 214.986 626.991 214.651C629.189 214.325 631.435 214.644 633.455 215.569L633.468 215.575L633.482 215.581C635.704 216.523 637.653 218.011 639.146 219.907L639.147 219.908C640.685 221.854 641.739 224.138 642.223 226.571L642.224 226.574C642.743 229.136 642.647 231.785 641.946 234.304Z" stroke="#A5D936" stroke-width="2"/>
<path d="M699.946 295.218L699.76 295.912L700.358 296.309C704.278 298.916 708.202 301.6 712.096 304.314L713.268 305.131L713.634 303.75C718.031 287.183 722.42 270.615 726.801 254.044L726.978 253.374L726.413 252.973C722.934 250.499 719.438 248.093 715.922 245.753L715.318 245.351L714.749 245.801C707.446 251.562 700.111 257.447 692.743 263.455C690.058 251.16 687.344 238.973 684.601 226.895L684.502 226.462L684.115 226.245C680.517 224.222 676.903 222.255 673.274 220.342L672.166 219.758L671.842 220.968L658.534 270.636L658.327 271.407L659.033 271.779C663.067 273.905 667.083 276.099 671.081 278.359L672.205 278.994L672.539 277.747L678.397 255.888C680.193 263.782 681.976 271.726 683.746 279.719L683.838 280.137L684.205 280.359C686.122 281.519 688.047 282.692 689.944 283.871L690.548 284.246L691.101 283.799C696.136 279.728 701.158 275.709 706.165 271.744C704.114 279.575 702.041 287.399 699.946 295.218Z" stroke="#A5D936" stroke-width="2"/>
<path d="M-21.1586 210.123L-21.1567 210.125C-17.4842 213.932 -12.9104 216.752 -7.85867 218.321C-3.62599 219.798 0.885306 220.303 5.33989 219.798L5.34488 219.797C9.4482 219.311 13.357 217.776 16.6951 215.34L17.4562 214.785L16.9473 213.992C14.697 210.487 12.4593 206.934 10.2342 203.333L9.65748 202.4L8.78152 203.061C7.06055 204.358 5.05068 205.219 2.92398 205.569C0.797246 205.919 -1.38275 205.748 -3.42883 205.071L-3.43655 205.068L-3.44431 205.066C-5.80137 204.327 -7.92879 202.995 -9.62162 201.196C-11.2324 199.46 -12.3426 197.32 -12.8343 195.004C-13.3561 192.505 -13.2635 189.917 -12.5646 187.461L-12.5591 187.442L-12.5545 187.423C-11.9777 185.043 -10.7923 182.854 -9.11443 181.07C-7.60682 179.501 -5.65005 178.438 -3.5134 178.028C-1.15807 177.593 1.27017 177.784 3.52869 178.581L3.53751 178.585L3.54638 178.588C5.66757 179.292 7.60807 180.454 9.23123 181.99C10.8544 183.527 12.1205 185.401 12.94 187.481L13.3375 188.489L14.3107 188.012C17.9896 186.208 21.6728 184.388 25.3602 182.552L26.2061 182.131L25.8336 181.263C24.1737 177.393 21.6297 173.966 18.4057 171.256L18.4012 171.253C14.9208 168.362 10.9117 166.176 6.59731 164.815C1.75022 163.129 -3.43235 162.639 -8.50987 163.386L-8.51146 163.386C-13.17 164.079 -17.5189 166.136 -21.0098 169.298L-21.0156 169.303L-21.0214 169.308C-24.6318 172.684 -27.1757 177.041 -28.3396 181.845C-29.717 186.798 -29.7601 192.028 -28.4646 197.003C-27.1975 201.932 -24.6812 206.45 -21.1586 210.123Z" stroke="#A5D936" stroke-width="2"/>
<path d="M32.6777 229.197L33.3249 229.363L33.7264 228.829L39.8284 220.709C46.4279 222.36 53.0516 223.92 59.6994 225.391L60.9706 235.224L61.0612 235.925L61.7522 236.074C66.6956 237.136 71.6505 238.155 76.6172 239.13L78.0353 239.409L77.7961 237.984C74.7696 219.953 71.7687 201.829 68.7929 183.609L68.684 182.943L68.025 182.795C63.369 181.75 58.7256 180.657 54.095 179.518L53.4738 179.365L53.0746 179.865C41.2871 194.627 29.5344 209.258 17.8167 223.76L16.8604 224.943L18.3261 225.351C23.0973 226.681 27.8811 227.962 32.6777 229.197ZM48.0188 209.629L56.3211 198.485L58.0199 211.983C54.69 211.223 51.3563 210.438 48.0188 209.629Z" stroke="#A5D936" stroke-width="2"/>
<path d="M130.702 208.053L131.584 208.184L131.815 207.323L134.793 196.207L135.084 195.123L133.973 194.959C118.82 192.722 103.66 190.141 88.6564 187.172L87.7385 186.99L87.4963 187.894L84.5114 199.033L84.2335 200.071L85.2879 200.274C90.1186 201.206 94.9566 202.111 99.8019 202.988L89.7597 240.466L89.4778 241.518L90.55 241.709C95.2721 242.552 100.003 243.363 104.741 244.142L105.635 244.289L105.87 243.414L115.959 205.76C120.864 206.56 125.778 207.324 130.702 208.053Z" stroke="#A5D936" stroke-width="2"/>
<path d="M140.282 246.819L140.282 246.819L140.292 246.826C144.504 249.82 149.435 251.641 154.581 252.102C159.999 252.805 165.506 252.232 170.663 250.427C175.642 248.715 180.143 245.848 183.799 242.06C187.409 238.346 189.993 233.759 191.299 228.748C192.688 224.103 192.633 219.144 191.14 214.531L191.137 214.523L191.135 214.515C189.632 210.125 186.769 206.328 182.96 203.677L182.96 203.677L182.953 203.672C178.694 200.762 173.762 198.988 168.625 198.519C163.235 197.818 157.757 198.34 152.596 200.046C147.655 201.655 143.172 204.427 139.525 208.13L139.525 208.13C135.921 211.796 133.345 216.344 132.054 221.319C130.668 226.008 130.71 231.003 132.173 235.667L132.175 235.674L132.178 235.681C133.65 240.148 136.484 244.043 140.282 246.819ZM164.962 237.689L164.956 237.691C162.71 238.58 160.279 238.894 157.881 238.606L157.87 238.604L157.859 238.603C155.647 238.386 153.542 237.543 151.79 236.174C150.17 234.866 149.009 233.075 148.478 231.061C147.877 228.721 147.925 226.261 148.617 223.946L148.623 223.926L148.628 223.907C149.269 221.398 150.504 219.081 152.229 217.15L152.229 217.149C153.855 215.328 155.895 213.925 158.178 213.059L158.178 213.059C160.428 212.203 162.854 211.912 165.243 212.209L165.256 212.211L165.269 212.212C167.482 212.428 169.59 213.264 171.35 214.623C172.972 215.902 174.138 217.67 174.676 219.664C175.277 221.975 175.235 224.406 174.557 226.695L174.551 226.714L174.546 226.733C173.908 229.255 172.669 231.584 170.937 233.524L170.933 233.528C169.302 235.37 167.255 236.797 164.962 237.689Z" stroke="#A5D936" stroke-width="2"/>
<path d="M240.387 258.382L240.081 259.537L241.271 259.635L254.886 260.761L255.721 260.83L255.936 260.02L269.102 210.315L269.408 209.159L268.216 209.062L256.083 208.08L255.603 208.041L255.274 208.392C247.136 217.058 239.001 225.717 230.868 234.369C227.516 224.804 224.168 215.222 220.825 205.622L220.614 205.015L219.975 204.955L207.883 203.819L207.042 203.74L206.824 204.556L193.515 254.223L193.21 255.364L194.385 255.478C198.883 255.914 203.385 256.338 207.89 256.751L208.729 256.827L208.947 256.014L215.013 233.376L221.717 252.39L221.932 252.999L222.575 253.054L229.116 253.616L229.598 253.657L229.93 253.305L246.355 235.866L240.387 258.382Z" stroke="#A5D936" stroke-width="2"/>
<path d="M345.956 217.737L345.956 217.737L345.952 217.735C342.226 215.724 338.1 214.568 333.872 214.35C325.942 213.686 318.008 213.038 310.069 212.406L309.24 212.34L309.024 213.144L295.716 262.812L295.405 263.971L296.601 264.067L311.341 265.254L312.171 265.32L312.387 264.516L315.656 252.315L323.89 253.003C328.338 253.449 332.831 253.037 337.124 251.788C340.931 250.684 344.411 248.668 347.263 245.914L347.263 245.914L347.271 245.906C350.03 243.179 351.996 239.752 352.958 235.994C354.022 232.525 353.942 228.805 352.729 225.384L352.722 225.364L352.715 225.345C351.412 222.102 349.023 219.413 345.956 217.737ZM332.882 238.707L332.686 238.825C330.679 239.82 328.416 240.186 326.194 239.874L326.166 239.87L326.138 239.868L319.148 239.283L322.52 226.701L329.869 227.315L329.869 227.315C332.776 227.558 334.558 228.34 335.502 229.442C335.995 230.087 336.318 230.847 336.442 231.65C336.566 232.46 336.483 233.289 336.201 234.059L336.179 234.118L336.165 234.178C335.947 235.114 335.545 235.997 334.982 236.774C334.418 237.552 333.704 238.209 332.882 238.707Z" stroke="#A5D936" stroke-width="2"/>
<path d="M365.589 267.618L365.594 267.622C369.867 270.51 374.81 272.255 379.949 272.69C385.366 273.33 390.858 272.75 396.022 270.993C400.983 269.321 405.476 266.493 409.131 262.744C412.735 259.06 415.314 254.499 416.612 249.511C417.997 244.837 417.951 239.855 416.479 235.207L416.477 235.2L416.474 235.192C414.994 230.764 412.148 226.92 408.344 224.212L408.344 224.211L408.337 224.206C404.097 221.244 399.145 219.463 393.99 219.046C388.549 218.397 383.032 219.02 377.873 220.866C372.888 222.615 368.383 225.51 364.72 229.316C361.114 233.047 358.529 237.642 357.212 242.66C355.816 247.298 355.874 252.253 357.378 256.857L357.381 256.866L357.384 256.875C358.9 261.241 361.776 265.006 365.589 267.618ZM390.338 258.127L390.331 258.13C388.078 259.018 385.643 259.343 383.235 259.079L383.224 259.078L383.213 259.077C381.001 258.883 378.887 258.07 377.115 256.732C375.489 255.477 374.318 253.725 373.783 251.742C373.173 249.435 373.214 247.003 373.902 244.718L373.908 244.698L373.913 244.679C374.562 242.154 375.802 239.821 377.53 237.869L377.532 237.867C379.166 236.009 381.218 234.567 383.52 233.658L383.522 233.658C385.769 232.765 388.204 232.443 390.607 232.721L390.622 232.722L390.638 232.724C392.848 232.91 394.959 233.725 396.721 235.074C398.339 236.361 399.503 238.131 400.044 240.127C400.641 242.438 400.599 244.869 399.924 247.159L399.919 247.176L399.915 247.194C399.271 249.711 398.034 252.036 396.307 253.976L396.304 253.979C394.677 255.82 392.631 257.243 390.338 258.127Z" stroke="#A5D936" stroke-width="2"/>
<path d="M430.855 275.635L430.859 275.638C434.98 278.701 439.807 280.675 444.894 281.379C449.399 282.172 454.016 282.08 458.486 281.11L458.49 281.109C462.699 280.18 466.646 278.316 470.037 275.654L470.787 275.066L470.235 274.289C467.915 271.021 465.59 267.769 463.262 264.533L462.634 263.66L461.809 264.349C460.054 265.815 458.008 266.892 455.806 267.508C453.604 268.123 451.297 268.264 449.036 267.921L449.036 267.921L449.023 267.919C446.67 267.595 444.447 266.646 442.585 265.171C440.934 263.832 439.758 261.998 439.229 259.94C438.66 257.576 438.723 255.105 439.415 252.774L439.42 252.755L439.425 252.736C440.058 250.244 441.278 247.94 442.981 246.014C444.588 244.202 446.639 242.841 448.932 242.065C451.31 241.271 453.849 241.081 456.318 241.513L456.331 241.515L456.344 241.517C458.437 241.828 460.419 242.658 462.109 243.932C463.8 245.206 465.144 246.883 466.02 248.809L466.475 249.81L467.428 249.263C471.2 247.098 474.966 244.957 478.725 242.84L479.537 242.383L479.139 241.541C477.409 237.885 474.727 234.762 471.376 232.498L471.371 232.495C467.648 230.009 463.417 228.382 458.987 227.734C453.721 226.827 448.315 227.202 443.225 228.826C438.314 230.382 433.867 233.131 430.279 236.827C426.674 240.52 424.093 245.089 422.793 250.083C421.406 254.793 421.44 259.808 422.892 264.499L422.894 264.506L422.897 264.513C424.343 268.95 427.122 272.834 430.855 275.635Z" stroke="#A5D936" stroke-width="2"/>
<path d="M486.377 288.024L487.003 288.156L487.385 287.642L493.543 279.354C500.193 280.793 506.817 282.323 513.418 283.942L514.68 293.839L514.765 294.504L515.413 294.678L515.442 294.686L515.47 294.693L515.499 294.701L515.527 294.709L515.556 294.716L515.585 294.724L515.613 294.732L515.642 294.739L515.67 294.747L515.699 294.755L515.727 294.762L515.756 294.77L515.784 294.778L515.813 294.785L515.841 294.793L515.87 294.801L515.899 294.808L515.927 294.816L515.956 294.824L515.984 294.831L516.013 294.839L516.041 294.846L516.07 294.854L516.098 294.862L516.127 294.869L516.156 294.877L516.184 294.885L516.213 294.892L516.241 294.9L516.27 294.908L516.298 294.915L516.327 294.923L516.355 294.931L516.384 294.938L516.412 294.946L516.441 294.954L516.47 294.961L516.498 294.969L516.527 294.977L516.555 294.984L516.584 294.992L516.612 294.999L516.641 295.007L516.669 295.015L516.698 295.022L516.726 295.03L516.755 295.038L516.784 295.045L516.812 295.053L516.841 295.061L516.869 295.068L516.898 295.076L516.926 295.084L516.955 295.091L516.983 295.099L517.012 295.107L517.04 295.114L517.069 295.122L517.098 295.13L517.126 295.137L517.155 295.145L517.183 295.152L517.212 295.16L517.24 295.168L517.269 295.175L517.297 295.183L517.326 295.191L517.355 295.198L517.383 295.206L517.412 295.214L517.44 295.221L517.469 295.229L517.497 295.237L517.526 295.244L517.554 295.252L517.583 295.26L517.611 295.267L517.64 295.275L517.669 295.282L517.697 295.29L517.726 295.298L517.754 295.305L517.783 295.313L517.811 295.321L517.84 295.328L517.868 295.336L517.897 295.344L517.925 295.351L517.954 295.359L517.983 295.367L518.011 295.374L518.04 295.382L518.068 295.39L518.097 295.397L518.125 295.405L518.154 295.413L518.182 295.42L518.211 295.428L518.239 295.435L518.268 295.443L518.297 295.451L518.325 295.458L518.354 295.466L518.382 295.474L518.411 295.481L518.439 295.489L518.468 295.497L518.496 295.504L518.525 295.512L518.554 295.52L518.582 295.527L518.611 295.535L518.639 295.543L518.668 295.55L518.696 295.558L518.725 295.566L518.753 295.573L518.782 295.581L518.81 295.588L518.839 295.596L518.868 295.604L518.896 295.611L518.925 295.619L518.953 295.627L518.982 295.634L519.01 295.642L519.039 295.65L519.067 295.657L519.096 295.665L519.124 295.673L519.153 295.68L519.182 295.688L519.21 295.696L519.239 295.703L519.267 295.711L519.296 295.718L519.324 295.726L519.353 295.734L519.381 295.741L519.41 295.749L519.438 295.757L519.467 295.764L519.496 295.772L519.524 295.78L519.553 295.787L519.581 295.795L519.61 295.803L519.638 295.81L519.667 295.818L519.695 295.826L519.724 295.833L519.752 295.841L519.781 295.849L519.81 295.856L519.838 295.864L519.867 295.871L519.895 295.879L519.924 295.887L519.952 295.894L519.981 295.902L520.009 295.91L520.038 295.917L520.067 295.925L520.095 295.933L520.124 295.94L520.152 295.948L520.181 295.956L520.209 295.963L520.238 295.971L520.266 295.979L520.295 295.986L520.323 295.994L520.352 296.002L520.381 296.009L520.409 296.017L520.438 296.024L520.466 296.032L520.495 296.04L520.523 296.047L520.552 296.055L520.58 296.063L520.609 296.07L520.637 296.078L520.666 296.086L520.695 296.093L520.723 296.101L520.752 296.109L520.78 296.116L520.809 296.124L520.837 296.132L520.866 296.139L520.894 296.147L520.923 296.154L520.951 296.162L520.98 296.17L521.009 296.177L521.037 296.185L521.066 296.193L521.094 296.2L521.123 296.208L521.151 296.216L521.18 296.223L521.208 296.231L521.237 296.239L521.266 296.246L521.294 296.254L521.323 296.262L521.351 296.269L521.38 296.277L521.408 296.285L521.437 296.292L521.465 296.3L521.494 296.307L521.522 296.315L521.551 296.323L521.58 296.33L521.608 296.338L521.637 296.346L521.665 296.353L521.694 296.361L521.722 296.369L521.751 296.376L521.779 296.384L521.808 296.392L521.836 296.399L521.865 296.407L521.894 296.415L521.922 296.422L521.951 296.43L521.979 296.438L522.008 296.445L522.036 296.453L522.065 296.46L522.093 296.468L522.122 296.476L522.15 296.483L522.179 296.491L522.208 296.499L522.236 296.506L522.265 296.514L522.293 296.522L522.322 296.529L522.35 296.537L522.379 296.545L522.407 296.552L522.436 296.56L522.464 296.568L522.493 296.575L522.522 296.583L522.55 296.591L522.579 296.598L522.607 296.606L522.636 296.613L522.664 296.621L522.693 296.629L522.721 296.636L522.75 296.644L522.779 296.652L522.807 296.659L522.836 296.667L522.864 296.675L522.893 296.682L522.921 296.69L522.95 296.698L522.978 296.705L523.007 296.713L523.035 296.721L523.064 296.728L523.093 296.736L523.121 296.743L523.15 296.751L523.178 296.759L523.207 296.766L523.235 296.774L523.264 296.782L523.292 296.789L523.321 296.797L523.349 296.805L523.378 296.812L523.407 296.82L523.435 296.828L523.464 296.835L523.492 296.843L523.521 296.851L523.549 296.858L523.578 296.866L523.606 296.874L523.635 296.881L523.663 296.889L523.692 296.896L523.721 296.904L523.749 296.912L523.778 296.919L523.806 296.927L523.835 296.935L523.863 296.942L523.892 296.95L523.92 296.958L523.949 296.965L523.977 296.973L524.006 296.981L524.035 296.988L524.063 296.996L524.092 297.004L524.12 297.011L524.149 297.019L524.177 297.027L524.206 297.034L524.234 297.042L524.263 297.049L524.292 297.057L524.32 297.065L524.349 297.072L524.377 297.08L524.406 297.088L524.434 297.095L524.463 297.103L524.491 297.111L524.52 297.118L524.548 297.126L524.577 297.134L524.606 297.141L524.634 297.149L524.663 297.157L524.691 297.164L524.72 297.172L524.748 297.179L524.777 297.187L524.805 297.195L524.834 297.202L524.862 297.21L524.891 297.218L524.92 297.225L524.948 297.233L524.977 297.241L525.005 297.248L525.034 297.256L525.062 297.264L525.091 297.271L525.119 297.279L525.148 297.287L525.176 297.294L525.205 297.302L525.234 297.31L525.262 297.317L525.291 297.325L525.319 297.332L525.348 297.34L525.376 297.348L525.405 297.355L525.433 297.363L525.462 297.371L525.49 297.378L525.519 297.386L525.548 297.394L525.576 297.401L525.605 297.409L525.633 297.417L525.662 297.424L525.69 297.432L525.719 297.44L525.747 297.447L525.776 297.455L525.805 297.463L525.833 297.47L525.862 297.478L525.89 297.485L525.919 297.493L525.947 297.501L525.976 297.508L526.004 297.516L526.033 297.524L526.061 297.531L526.09 297.539L526.119 297.547L526.147 297.554L526.176 297.562L526.204 297.57L526.233 297.577L526.261 297.585L526.29 297.593L526.318 297.6L526.347 297.608L526.375 297.615L526.404 297.623L526.433 297.631L526.461 297.638L526.49 297.646L526.518 297.654L526.547 297.661L526.575 297.669L526.604 297.677L526.632 297.684L526.661 297.692L526.689 297.7L526.718 297.707L526.747 297.715L526.775 297.723L526.804 297.73L526.832 297.738L526.861 297.746L526.889 297.753L526.918 297.761L526.946 297.768L526.975 297.776L527.004 297.784L527.032 297.791L527.061 297.799L527.089 297.807L527.118 297.814L527.146 297.822L527.175 297.83L527.203 297.837L527.232 297.845L527.26 297.853L527.289 297.86L527.318 297.868L527.346 297.876L527.375 297.883L527.403 297.891L527.432 297.899L527.46 297.906L527.489 297.914L527.517 297.921L527.546 297.929L527.574 297.937L527.603 297.944L527.632 297.952L527.66 297.96L527.689 297.967L527.717 297.975L527.746 297.983L527.774 297.99L527.803 297.998L527.831 298.006L527.86 298.013L527.888 298.021L527.917 298.029L527.946 298.036L527.974 298.044L528.003 298.052L528.031 298.059L528.06 298.067L528.088 298.074L528.117 298.082L528.145 298.09L528.174 298.097L528.202 298.105L528.231 298.113L528.26 298.12L528.288 298.128L528.317 298.136L528.345 298.143L528.374 298.151L528.402 298.159L528.431 298.166L528.459 298.174L528.488 298.182L528.517 298.189L528.545 298.197L528.574 298.204L528.602 298.212L528.631 298.22L528.659 298.227L528.688 298.235L528.716 298.243L528.745 298.25L528.773 298.258L528.802 298.266L528.831 298.273L528.859 298.281L528.888 298.289L528.916 298.296L528.945 298.304L528.973 298.312L529.002 298.319L529.03 298.327L529.059 298.335L529.087 298.342L529.116 298.35L529.145 298.357L529.173 298.365L529.202 298.373L529.23 298.38L529.259 298.388L529.287 298.396L529.316 298.403L529.344 298.411L529.373 298.419L529.401 298.426L529.43 298.434L529.459 298.442L529.487 298.449L529.516 298.457L529.544 298.465L529.573 298.472L529.601 298.48L529.63 298.488L529.658 298.495L529.687 298.503L529.716 298.51L529.744 298.518L529.773 298.526L529.801 298.533L529.83 298.541L529.858 298.549L529.887 298.556L529.915 298.564L529.944 298.572L529.972 298.579L530.001 298.587L530.03 298.595L531.512 298.992L531.277 297.475C528.395 278.898 525.482 260.439 522.538 242.098L522.432 241.44L521.784 241.284C517.135 240.166 512.474 239.09 507.8 238.058L507.19 237.923L506.801 238.413C494.967 253.343 483.108 268.367 471.223 283.486L470.21 284.775L471.82 285.086C476.683 286.026 481.535 287.006 486.377 288.024ZM501.788 268.153L510.098 256.951L511.787 270.459C508.47 269.669 505.137 268.901 501.788 268.153Z" stroke="#A5D936" stroke-width="2"/>
<path d="M582.443 273.319L583.463 273.681L583.743 272.635L586.728 261.495L586.967 260.604L586.098 260.295C571.678 255.161 557.007 250.595 542.249 246.552L541.279 246.286L541.019 247.258L538.034 258.397L537.777 259.357L538.735 259.621C543.492 260.927 548.235 262.285 552.965 263.696L542.893 301.285L542.641 302.225L543.573 302.502C548.143 303.861 552.696 305.284 557.231 306.769L558.235 307.098L558.509 306.077L568.558 268.571C573.201 270.098 577.829 271.681 582.443 273.319Z" stroke="#A5D936" stroke-width="2"/>
<path d="M583.592 302.883L583.593 302.885C584.923 307.862 587.44 312.443 590.928 316.234C594.583 320.229 599.066 323.38 604.063 325.467C608.737 327.615 613.867 328.58 619.002 328.276L619.007 328.276C623.574 327.986 627.927 326.24 631.43 323.295L631.44 323.286L631.45 323.277C635.048 320.082 637.57 315.851 638.668 311.166C640.036 306.13 640.105 300.829 638.869 295.758C637.628 290.568 635.195 285.738 631.764 281.651C628.248 277.43 623.771 274.114 618.708 271.982C613.989 269.81 608.763 268.979 603.602 269.58L603.602 269.58L603.597 269.58C598.897 270.153 594.492 272.174 590.993 275.363L590.993 275.363L590.985 275.37C587.385 278.717 584.847 283.048 583.687 287.825C582.317 292.746 582.284 297.944 583.592 302.883ZM623.222 304.18L623.217 304.2L623.212 304.219C622.665 306.541 621.486 308.667 619.805 310.36C618.346 311.797 616.459 312.721 614.43 312.994C612.222 313.267 609.982 312.926 607.957 312.007L607.945 312.001L607.933 311.996C605.716 311.06 603.76 309.599 602.234 307.738L602.232 307.736C600.685 305.861 599.616 303.638 599.12 301.258L599.119 301.256C598.587 298.731 598.674 296.115 599.373 293.631L599.379 293.611L599.383 293.592C599.946 291.233 601.137 289.071 602.828 287.333C604.298 285.844 606.203 284.862 608.268 284.527C610.466 284.201 612.712 284.52 614.732 285.445L614.745 285.451L614.758 285.457C616.981 286.399 618.929 287.887 620.423 289.783L620.424 289.784C621.961 291.73 623.016 294.014 623.5 296.447L623.501 296.449C624.019 299.012 623.924 301.661 623.222 304.18Z" stroke="#A5D936" stroke-width="2"/>
<path d="M681.223 365.094L681.037 365.788L681.635 366.185C685.554 368.792 689.479 371.476 693.372 374.19L694.544 375.007L694.911 373.626C699.308 357.059 703.696 340.491 708.077 323.92L708.254 323.25L707.69 322.849C704.211 320.375 700.714 317.969 697.199 315.629L696.595 315.227L696.026 315.677C688.723 321.438 681.388 327.323 674.02 333.331C671.335 321.036 668.621 308.849 665.877 296.771L665.779 296.338L665.392 296.121C661.793 294.098 658.18 292.131 654.551 290.218L653.443 289.634L653.119 290.844L639.811 340.512L639.604 341.283L640.31 341.655C644.344 343.781 648.36 345.975 652.358 348.235L653.482 348.87L653.816 347.623L659.674 325.764C661.47 333.658 663.253 341.602 665.022 349.595L665.115 350.013L665.481 350.235C667.399 351.395 669.324 352.568 671.221 353.747L671.825 354.122L672.377 353.675C677.413 349.604 682.435 345.585 687.442 341.62C685.391 349.451 683.318 357.275 681.223 365.094Z" stroke="#A5D936" stroke-width="2"/>
<path d="M-39.8817 279.999L-39.8798 280.001C-36.2073 283.808 -31.6335 286.628 -26.5818 288.197C-22.3491 289.674 -17.8378 290.179 -13.3833 289.674L-13.3783 289.673C-9.27494 289.187 -5.3661 287.652 -2.02802 285.216L-1.26697 284.661L-1.77586 283.868C-4.02611 280.363 -6.26384 276.81 -8.48891 273.209L-9.06567 272.276L-9.94163 272.936C-11.6626 274.234 -13.6725 275.095 -15.7992 275.445C-17.9259 275.795 -20.1059 275.624 -22.152 274.947L-22.1597 274.944L-22.1675 274.942C-24.5245 274.203 -26.6519 272.871 -28.3448 271.072C-29.9556 269.336 -31.0657 267.196 -31.5574 264.88C-32.0792 262.381 -31.9867 259.793 -31.2877 257.337L-31.2823 257.318L-31.2776 257.299C-30.7008 254.919 -29.5154 252.73 -27.8376 250.946C-26.33 249.377 -24.3732 248.314 -22.2365 247.904C-19.8812 247.469 -17.453 247.66 -15.1945 248.457L-15.1856 248.461L-15.1768 248.463C-13.0556 249.168 -11.1151 250.33 -9.49191 251.866C-7.86875 253.403 -6.60264 255.277 -5.78311 257.357L-5.38569 258.365L-4.41248 257.888C-0.733536 256.084 2.9497 254.264 6.63708 252.428L7.48291 252.007L7.11049 251.139C5.45055 247.269 2.90657 243.842 -0.317462 241.132L-0.321933 241.129C-3.80232 238.238 -7.8114 236.052 -12.1258 234.691C-16.9729 233.005 -22.1555 232.515 -27.233 233.262L-27.2346 233.262C-31.8931 233.955 -36.2421 236.012 -39.7329 239.174L-39.7388 239.179L-39.7445 239.184C-43.355 242.559 -45.8988 246.917 -47.0628 251.721C-48.4401 256.674 -48.4833 261.904 -47.1877 266.879C-45.9207 271.808 -43.4043 276.326 -39.8817 279.999Z" stroke="#A5D936" stroke-width="2"/>
<path d="M13.9545 299.073L14.6018 299.239L15.0032 298.705L21.1053 290.585C27.7048 292.236 34.3285 293.796 40.9763 295.267L42.2474 305.1L42.338 305.801L43.0291 305.95C47.9725 307.012 52.9273 308.031 57.894 309.006L59.3122 309.285L59.0729 307.86C56.0465 289.829 53.0455 271.705 50.0697 253.485L49.9609 252.819L49.3018 252.671C44.6458 251.626 40.0025 250.533 35.3718 249.394L34.7506 249.241L34.3514 249.741C22.5639 264.503 10.8113 279.134 -0.906492 293.636L-1.86279 294.819L-0.397052 295.227C4.37417 296.557 9.15793 297.838 13.9545 299.073ZM29.2956 279.505L37.5979 268.361L39.2967 281.859C35.9668 281.099 32.6331 280.314 29.2956 279.505Z" stroke="#A5D936" stroke-width="2"/>
<path d="M111.979 277.929L112.861 278.06L113.091 277.199L116.07 266.083L116.36 264.999L115.25 264.835C100.097 262.598 84.9371 260.017 69.9332 257.047L69.0153 256.866L68.7732 257.77L65.7883 268.909L65.5104 269.947L66.5648 270.15C71.3955 271.082 76.2334 271.987 81.0788 272.864L71.0366 310.342L70.7547 311.394L71.8269 311.585C76.5489 312.428 81.2794 313.239 86.0183 314.018L86.9121 314.165L87.1465 313.29L97.2358 275.636C102.141 276.436 107.055 277.2 111.979 277.929Z" stroke="#A5D936" stroke-width="2"/>
<path d="M121.558 316.694L121.558 316.695L121.569 316.702C125.781 319.696 130.712 321.517 135.858 321.978C141.276 322.681 146.783 322.108 151.94 320.303C156.919 318.591 161.42 315.724 165.076 311.936C168.686 308.222 171.27 303.635 172.576 298.624C173.965 293.979 173.91 289.02 172.417 284.407L172.414 284.399L172.411 284.391C170.909 280.001 168.045 276.204 164.237 273.553L164.237 273.553L164.23 273.548C159.971 270.638 155.039 268.864 149.902 268.395C144.512 267.694 139.034 268.216 133.873 269.922C128.931 271.531 124.449 274.303 120.802 278.006L120.802 278.006C117.198 281.672 114.622 286.22 113.331 291.195C111.945 295.884 111.986 300.879 113.45 305.543L113.452 305.55L113.455 305.557C114.927 310.024 117.761 313.919 121.558 316.694ZM146.238 307.565L146.233 307.567C143.987 308.456 141.555 308.77 139.158 308.482L139.147 308.48L139.136 308.479C136.924 308.262 134.819 307.419 133.067 306.05C131.446 304.742 130.286 302.951 129.754 300.937C129.154 298.597 129.202 296.137 129.894 293.822L129.9 293.802L129.905 293.783C130.546 291.274 131.781 288.957 133.506 287.026L133.506 287.025C135.132 285.204 137.172 283.801 139.455 282.935L139.455 282.934C141.705 282.079 144.131 281.788 146.52 282.085L146.533 282.087L146.546 282.088C148.759 282.304 150.867 283.14 152.627 284.499C154.249 285.778 155.415 287.546 155.953 289.54C156.553 291.851 156.512 294.282 155.834 296.571L155.828 296.59L155.823 296.609C155.185 299.131 153.946 301.46 152.213 303.4L152.21 303.403C150.579 305.246 148.532 306.673 146.238 307.565Z" stroke="#A5D936" stroke-width="2"/>
<path d="M221.664 328.258L221.358 329.413L222.548 329.511L236.163 330.637L236.998 330.706L237.212 329.896L250.379 280.191L250.685 279.035L249.493 278.938L237.36 277.956L236.88 277.917L236.55 278.268C228.413 286.934 220.278 295.593 212.145 304.245C208.793 294.68 205.445 285.098 202.102 275.498L201.891 274.891L201.251 274.831L189.16 273.695L188.319 273.616L188.101 274.432L174.792 324.099L174.487 325.24L175.662 325.354C180.16 325.79 184.662 326.214 189.167 326.627L190.006 326.703L190.224 325.89L196.29 303.252L202.994 322.266L203.208 322.875L203.851 322.93L210.393 323.492L210.875 323.533L211.207 323.181L227.632 305.742L221.664 328.258Z" stroke="#A5D936" stroke-width="2"/>
<path d="M327.233 287.613L327.233 287.613L327.229 287.611C323.503 285.6 319.376 284.444 315.149 284.226C307.219 283.562 299.285 282.914 291.346 282.282L290.516 282.216L290.301 283.02L276.993 332.688L276.682 333.847L277.878 333.943L292.618 335.13L293.448 335.196L293.664 334.392L296.933 322.191L305.167 322.879C309.615 323.325 314.108 322.913 318.401 321.664C322.208 320.56 325.688 318.544 328.54 315.79L328.54 315.79L328.548 315.782C331.307 313.055 333.273 309.628 334.235 305.87C335.299 302.4 335.219 298.681 334.006 295.26L333.999 295.24L333.992 295.221C332.689 291.978 330.3 289.289 327.233 287.613ZM314.159 308.583L313.963 308.701C311.956 309.696 309.693 310.062 307.471 309.75L307.443 309.746L307.415 309.744L300.425 309.159L303.796 296.577L311.146 297.191L311.146 297.191C314.053 297.434 315.835 298.216 316.779 299.318C317.272 299.963 317.595 300.722 317.719 301.526C317.843 302.336 317.76 303.165 317.477 303.935L317.456 303.993L317.442 304.054C317.224 304.99 316.822 305.873 316.258 306.65C315.695 307.428 314.98 308.085 314.159 308.583Z" stroke="#A5D936" stroke-width="2"/>
<path d="M346.865 337.494L346.871 337.498C351.144 340.386 356.086 342.131 361.226 342.566C366.643 343.206 372.135 342.626 377.299 340.869C382.26 339.197 386.753 336.369 390.408 332.62C394.012 328.936 396.591 324.375 397.889 319.387C399.274 314.713 399.228 309.731 397.756 305.083L397.754 305.075L397.751 305.068C396.271 300.64 393.424 296.796 389.621 294.087L389.621 294.087L389.614 294.082C385.374 291.12 380.422 289.339 375.267 288.922C369.826 288.273 364.309 288.896 359.15 290.742C354.165 292.491 349.66 295.386 345.996 299.192C342.391 302.923 339.806 307.518 338.489 312.536C337.093 317.174 337.151 322.129 338.655 326.733L338.658 326.742L338.661 326.751C340.177 331.117 343.052 334.882 346.865 337.494ZM371.615 328.003L371.608 328.006C369.355 328.894 366.92 329.219 364.512 328.955L364.501 328.954L364.49 328.953C362.278 328.759 360.164 327.946 358.391 326.608C356.765 325.353 355.595 323.601 355.06 321.618C354.449 319.311 354.491 316.879 355.179 314.594L355.185 314.574L355.19 314.555C355.839 312.03 357.079 309.697 358.807 307.745L358.809 307.743C360.443 305.885 362.495 304.443 364.796 303.534L364.798 303.534C367.046 302.641 369.481 302.319 371.883 302.597L371.899 302.598L371.914 302.6C374.125 302.786 376.236 303.601 377.998 304.95C379.616 306.237 380.78 308.007 381.321 310.003C381.918 312.314 381.876 314.745 381.201 317.035L381.196 317.052L381.192 317.07C380.548 319.586 379.311 321.912 377.583 323.852L377.581 323.855C375.954 325.696 373.908 327.119 371.615 328.003Z" stroke="#A5D936" stroke-width="2"/>
<path d="M412.132 345.511L412.135 345.514C416.257 348.577 421.084 350.551 426.171 351.255C430.676 352.048 435.293 351.956 439.763 350.986L439.767 350.985C443.976 350.056 447.923 348.192 451.314 345.53L452.063 344.942L451.512 344.165C449.192 340.897 446.867 337.645 444.539 334.409L443.911 333.536L443.086 334.225C441.331 335.691 439.285 336.768 437.083 337.384C434.881 337.999 432.574 338.14 430.313 337.797L430.313 337.797L430.299 337.795C427.947 337.471 425.723 336.522 423.862 335.047C422.211 333.708 421.035 331.874 420.506 329.816C419.936 327.452 420 324.981 420.692 322.65L420.697 322.631L420.702 322.612C421.335 320.12 422.554 317.816 424.258 315.89C425.864 314.078 427.915 312.717 430.209 311.941C432.587 311.147 435.126 310.957 437.595 311.389L437.608 311.391L437.621 311.393C439.714 311.704 441.696 312.534 443.386 313.808C445.076 315.082 446.421 316.759 447.297 318.685L447.752 319.686L448.705 319.139C452.477 316.974 456.243 314.833 460.002 312.716L460.814 312.259L460.415 311.417C458.686 307.761 456.004 304.638 452.652 302.374L452.648 302.371C448.925 299.885 444.694 298.258 440.264 297.61C434.998 296.703 429.592 297.078 424.501 298.702C419.591 300.258 415.143 303.007 411.556 306.703C407.951 310.396 405.37 314.965 404.07 319.959C402.683 324.669 402.717 329.684 404.169 334.375L404.171 334.382L404.173 334.389C405.619 338.826 408.398 342.71 412.132 345.511Z" stroke="#A5D936" stroke-width="2"/>
<path d="M467.653 357.9L468.28 358.032L468.662 357.518L474.82 349.23C481.469 350.669 488.094 352.199 494.695 353.818L495.957 363.715L496.042 364.38L496.69 364.554L496.719 364.562L496.747 364.569L496.776 364.577L496.804 364.585L496.833 364.592L496.861 364.6L496.89 364.608L496.919 364.615L496.947 364.623L496.976 364.631L497.004 364.638L497.033 364.646L497.061 364.654L497.09 364.661L497.118 364.669L497.147 364.677L497.175 364.684L497.204 364.692L497.233 364.7L497.261 364.707L497.29 364.715L497.318 364.722L497.347 364.73L497.375 364.738L497.404 364.745L497.432 364.753L497.461 364.761L497.489 364.768L497.518 364.776L497.547 364.784L497.575 364.791L497.604 364.799L497.632 364.807L497.661 364.814L497.689 364.822L497.718 364.83L497.746 364.837L497.775 364.845L497.803 364.852L497.832 364.86L497.861 364.868L497.889 364.875L497.918 364.883L497.946 364.891L497.975 364.898L498.003 364.906L498.032 364.914L498.06 364.921L498.089 364.929L498.118 364.937L498.146 364.944L498.175 364.952L498.203 364.96L498.232 364.967L498.26 364.975L498.289 364.983L498.317 364.99L498.346 364.998L498.374 365.005L498.403 365.013L498.432 365.021L498.46 365.028L498.489 365.036L498.517 365.044L498.546 365.051L498.574 365.059L498.603 365.067L498.631 365.074L498.66 365.082L498.688 365.09L498.717 365.097L498.746 365.105L498.774 365.113L498.803 365.12L498.831 365.128L498.86 365.136L498.888 365.143L498.917 365.151L498.945 365.158L498.974 365.166L499.002 365.174L499.031 365.181L499.06 365.189L499.088 365.197L499.117 365.204L499.145 365.212L499.174 365.22L499.202 365.227L499.231 365.235L499.259 365.243L499.288 365.25L499.317 365.258L499.345 365.266L499.374 365.273L499.402 365.281L499.431 365.289L499.459 365.296L499.488 365.304L499.516 365.311L499.545 365.319L499.573 365.327L499.602 365.334L499.631 365.342L499.659 365.35L499.688 365.357L499.716 365.365L499.745 365.373L499.773 365.38L499.802 365.388L499.83 365.396L499.859 365.403L499.887 365.411L499.916 365.419L499.945 365.426L499.973 365.434L500.002 365.441L500.03 365.449L500.059 365.457L500.087 365.464L500.116 365.472L500.144 365.48L500.173 365.487L500.201 365.495L500.23 365.503L500.259 365.51L500.287 365.518L500.316 365.526L500.344 365.533L500.373 365.541L500.401 365.549L500.43 365.556L500.458 365.564L500.487 365.572L500.516 365.579L500.544 365.587L500.573 365.594L500.601 365.602L500.63 365.61L500.658 365.617L500.687 365.625L500.715 365.633L500.744 365.64L500.772 365.648L500.801 365.656L500.83 365.663L500.858 365.671L500.887 365.679L500.915 365.686L500.944 365.694L500.972 365.702L501.001 365.709L501.029 365.717L501.058 365.725L501.086 365.732L501.115 365.74L501.144 365.747L501.172 365.755L501.201 365.763L501.229 365.77L501.258 365.778L501.286 365.786L501.315 365.793L501.343 365.801L501.372 365.809L501.4 365.816L501.429 365.824L501.458 365.832L501.486 365.839L501.515 365.847L501.543 365.855L501.572 365.862L501.6 365.87L501.629 365.877L501.657 365.885L501.686 365.893L501.714 365.9L501.743 365.908L501.772 365.916L501.8 365.923L501.829 365.931L501.857 365.939L501.886 365.946L501.914 365.954L501.943 365.962L501.971 365.969L502 365.977L502.029 365.985L502.057 365.992L502.086 366L502.114 366.008L502.143 366.015L502.171 366.023L502.2 366.03L502.228 366.038L502.257 366.046L502.285 366.053L502.314 366.061L502.343 366.069L502.371 366.076L502.4 366.084L502.428 366.092L502.457 366.099L502.485 366.107L502.514 366.115L502.542 366.122L502.571 366.13L502.599 366.138L502.628 366.145L502.657 366.153L502.685 366.161L502.714 366.168L502.742 366.176L502.771 366.183L502.799 366.191L502.828 366.199L502.856 366.206L502.885 366.214L502.913 366.222L502.942 366.229L502.971 366.237L502.999 366.245L503.028 366.252L503.056 366.26L503.085 366.268L503.113 366.275L503.142 366.283L503.17 366.291L503.199 366.298L503.227 366.306L503.256 366.313L503.285 366.321L503.313 366.329L503.342 366.336L503.37 366.344L503.399 366.352L503.427 366.359L503.456 366.367L503.484 366.375L503.513 366.382L503.542 366.39L503.57 366.398L503.599 366.405L503.627 366.413L503.656 366.421L503.684 366.428L503.713 366.436L503.741 366.444L503.77 366.451L503.798 366.459L503.827 366.466L503.856 366.474L503.884 366.482L503.913 366.489L503.941 366.497L503.97 366.505L503.998 366.512L504.027 366.52L504.055 366.528L504.084 366.535L504.112 366.543L504.141 366.551L504.17 366.558L504.198 366.566L504.227 366.574L504.255 366.581L504.284 366.589L504.312 366.597L504.341 366.604L504.369 366.612L504.398 366.619L504.426 366.627L504.455 366.635L504.484 366.642L504.512 366.65L504.541 366.658L504.569 366.665L504.598 366.673L504.626 366.681L504.655 366.688L504.683 366.696L504.712 366.704L504.74 366.711L504.769 366.719L504.798 366.727L504.826 366.734L504.855 366.742L504.883 366.75L504.912 366.757L504.94 366.765L504.969 366.772L504.997 366.78L505.026 366.788L505.055 366.795L505.083 366.803L505.112 366.811L505.14 366.818L505.169 366.826L505.197 366.834L505.226 366.841L505.254 366.849L505.283 366.857L505.311 366.864L505.34 366.872L505.369 366.88L505.397 366.887L505.426 366.895L505.454 366.902L505.483 366.91L505.511 366.918L505.54 366.925L505.568 366.933L505.597 366.941L505.625 366.948L505.654 366.956L505.683 366.964L505.711 366.971L505.74 366.979L505.768 366.987L505.797 366.994L505.825 367.002L505.854 367.01L505.882 367.017L505.911 367.025L505.939 367.033L505.968 367.04L505.997 367.048L506.025 367.055L506.054 367.063L506.082 367.071L506.111 367.078L506.139 367.086L506.168 367.094L506.196 367.101L506.225 367.109L506.254 367.117L506.282 367.124L506.311 367.132L506.339 367.14L506.368 367.147L506.396 367.155L506.425 367.163L506.453 367.17L506.482 367.178L506.51 367.186L506.539 367.193L506.568 367.201L506.596 367.208L506.625 367.216L506.653 367.224L506.682 367.231L506.71 367.239L506.739 367.247L506.767 367.254L506.796 367.262L506.824 367.27L506.853 367.277L506.882 367.285L506.91 367.293L506.939 367.3L506.967 367.308L506.996 367.316L507.024 367.323L507.053 367.331L507.081 367.338L507.11 367.346L507.138 367.354L507.167 367.361L507.196 367.369L507.224 367.377L507.253 367.384L507.281 367.392L507.31 367.4L507.338 367.407L507.367 367.415L507.395 367.423L507.424 367.43L507.452 367.438L507.481 367.446L507.51 367.453L507.538 367.461L507.567 367.469L507.595 367.476L507.624 367.484L507.652 367.491L507.681 367.499L507.709 367.507L507.738 367.514L507.767 367.522L507.795 367.53L507.824 367.537L507.852 367.545L507.881 367.553L507.909 367.56L507.938 367.568L507.966 367.576L507.995 367.583L508.023 367.591L508.052 367.599L508.081 367.606L508.109 367.614L508.138 367.622L508.166 367.629L508.195 367.637L508.223 367.644L508.252 367.652L508.28 367.66L508.309 367.667L508.337 367.675L508.366 367.683L508.395 367.69L508.423 367.698L508.452 367.706L508.48 367.713L508.509 367.721L508.537 367.729L508.566 367.736L508.594 367.744L508.623 367.752L508.651 367.759L508.68 367.767L508.709 367.774L508.737 367.782L508.766 367.79L508.794 367.797L508.823 367.805L508.851 367.813L508.88 367.82L508.908 367.828L508.937 367.836L508.965 367.843L508.994 367.851L509.023 367.859L509.051 367.866L509.08 367.874L509.108 367.882L509.137 367.889L509.165 367.897L509.194 367.905L509.222 367.912L509.251 367.92L509.28 367.927L509.308 367.935L509.337 367.943L509.365 367.95L509.394 367.958L509.422 367.966L509.451 367.973L509.479 367.981L509.508 367.989L509.536 367.996L509.565 368.004L509.594 368.012L509.622 368.019L509.651 368.027L509.679 368.035L509.708 368.042L509.736 368.05L509.765 368.058L509.793 368.065L509.822 368.073L509.85 368.08L509.879 368.088L509.908 368.096L509.936 368.103L509.965 368.111L509.993 368.119L510.022 368.126L510.05 368.134L510.079 368.142L510.107 368.149L510.136 368.157L510.164 368.165L510.193 368.172L510.222 368.18L510.25 368.188L510.279 368.195L510.307 368.203L510.336 368.211L510.364 368.218L510.393 368.226L510.421 368.233L510.45 368.241L510.479 368.249L510.507 368.256L510.536 368.264L510.564 368.272L510.593 368.279L510.621 368.287L510.65 368.295L510.678 368.302L510.707 368.31L510.735 368.318L510.764 368.325L510.793 368.333L510.821 368.341L510.85 368.348L510.878 368.356L510.907 368.363L510.935 368.371L510.964 368.379L510.992 368.386L511.021 368.394L511.049 368.402L511.078 368.409L511.107 368.417L511.135 368.425L511.164 368.432L511.192 368.44L511.221 368.448L511.249 368.455L511.278 368.463L511.306 368.471L512.789 368.868L512.553 367.351C509.672 348.774 506.759 330.315 503.815 311.974L503.709 311.316L503.061 311.16C498.411 310.041 493.75 308.966 489.077 307.934L488.467 307.799L488.078 308.289C476.244 323.219 464.385 338.243 452.5 353.362L451.487 354.651L453.097 354.962C457.96 355.902 462.812 356.882 467.653 357.9ZM483.065 338.029L491.375 326.827L493.064 340.335C489.747 339.545 486.414 338.777 483.065 338.029Z" stroke="#A5D936" stroke-width="2"/>
<path d="M563.72 343.195L564.74 343.557L565.02 342.511L568.005 331.371L568.244 330.48L567.375 330.17C552.955 325.037 538.284 320.471 523.526 316.428L522.556 316.162L522.296 317.134L519.311 328.273L519.054 329.233L520.012 329.497C524.769 330.803 529.512 332.161 534.241 333.572L524.169 371.161L523.918 372.101L524.85 372.378C529.42 373.737 533.973 375.16 538.508 376.645L539.512 376.974L539.785 375.953L549.835 338.447C554.478 339.974 559.106 341.557 563.72 343.195Z" stroke="#A5D936" stroke-width="2"/>
<path d="M564.869 372.759L564.87 372.761C566.2 377.738 568.716 382.319 572.205 386.11C575.86 390.105 580.343 393.256 585.339 395.343C590.013 397.491 595.144 398.456 600.279 398.152L600.283 398.152C604.85 397.862 609.204 396.116 612.706 393.171L612.717 393.162L612.727 393.153C616.325 389.958 618.846 385.727 619.945 381.042C621.313 376.006 621.382 370.705 620.145 365.634C618.905 360.444 616.472 355.614 613.041 351.527C609.525 347.306 605.048 343.99 599.985 341.858C595.266 339.686 590.04 338.855 584.879 339.456L584.879 339.456L584.874 339.456C580.174 340.029 575.769 342.05 572.269 345.239L572.269 345.239L572.262 345.246C568.662 348.593 566.124 352.924 564.964 357.701C563.594 362.622 563.561 367.82 564.869 372.759ZM604.499 374.056L604.494 374.076L604.489 374.095C603.942 376.417 602.762 378.543 601.082 380.236C599.623 381.673 597.736 382.597 595.707 382.87C593.499 383.143 591.259 382.802 589.234 381.883L589.222 381.877L589.21 381.872C586.993 380.936 585.037 379.475 583.511 377.614L583.509 377.612C581.961 375.737 580.893 373.514 580.397 371.134L580.396 371.132C579.864 368.607 579.951 365.991 580.65 363.507L580.656 363.487L580.66 363.468C581.223 361.109 582.414 358.947 584.105 357.209C585.575 355.72 587.48 354.738 589.545 354.403C591.743 354.077 593.989 354.396 596.009 355.321L596.022 355.327L596.035 355.333C598.258 356.275 600.206 357.762 601.7 359.659L601.701 359.66C603.238 361.606 604.293 363.89 604.777 366.323L604.778 366.325C605.296 368.888 605.201 371.537 604.499 374.056Z" stroke="#A5D936" stroke-width="2"/>
</svg>
