<svg width="152" height="152" viewBox="0 0 152 152" fill="none" xmlns="http://www.w3.org/2000/svg">
<path d="M78.5315 18.5736C77.3687 18.1395 76.2905 17.506 75.3452 16.7016L77.4991 13.1416C78.3046 13.8169 79.204 14.3716 80.1691 14.7881C81.1514 15.2376 82.1954 15.5375 83.2664 15.6781C85.2442 15.9214 86.2905 15.5515 86.4052 14.5686C86.4705 14.0494 86.2361 13.6311 85.708 13.3107C84.8741 12.8558 84.0002 12.4785 83.0973 12.1833C81.9664 11.8029 80.8631 11.3449 79.7953 10.8127C78.9271 10.3661 78.1853 9.70803 77.6385 8.89914C77.0748 8.07439 76.8771 7.03208 77.0452 5.77221C77.1658 4.70355 77.6122 3.69785 78.3238 2.89151C79.121 2.02519 80.151 1.40715 81.2905 1.11148C82.7648 0.730561 84.3011 0.653845 85.8059 0.886006C86.9861 1.03409 88.1456 1.31576 89.2621 1.72559C90.3044 2.095 91.2846 2.62013 92.1696 3.28312L90.1166 6.8966C88.694 5.82526 87.0251 5.12851 85.263 4.87032C84.2454 4.74572 83.4829 4.80209 82.9816 5.04833C82.7562 5.13903 82.559 5.28787 82.41 5.47966C82.2609 5.67145 82.1654 5.89933 82.1331 6.14008C82.0738 6.62366 82.3052 7.0301 82.8273 7.32677C83.6496 7.76818 84.5118 8.13075 85.4024 8.40963C86.538 8.78883 87.6454 9.24784 88.7163 9.78323C89.5799 10.2312 90.3205 10.8842 90.8731 11.6849C91.4486 12.5017 91.6573 13.5401 91.4991 14.8C91.379 15.8553 90.9343 16.8473 90.2263 17.6391C89.4205 18.5035 88.3854 19.1209 87.2418 19.4192C85.7731 19.8074 84.2403 19.8902 82.7383 19.6624C81.2952 19.4811 79.8814 19.1152 78.5315 18.5736Z" fill="#A5D936"/>
<path d="M95.8906 21.4555C94.851 20.1416 94.1958 18.5653 93.9978 16.9016C93.8005 15.1874 94.0819 13.452 94.8107 11.8878C95.4939 10.3078 96.6007 8.94733 98.0088 7.95693C99.3827 6.99903 100.995 6.43948 102.667 6.34007C104.457 6.23582 106.245 6.57837 107.87 7.33689C109.296 7.95397 110.577 8.86361 111.629 10.0069C112.59 11.0571 113.278 12.3277 113.632 13.7065L109.413 15.08C108.916 13.3 107.898 12.0619 106.357 11.3657C105.525 10.9741 104.605 10.8054 103.687 10.8762C102.814 10.9531 101.981 11.2807 101.29 11.8196C100.546 12.4093 99.9628 13.1765 99.593 14.0506C99.1865 14.9077 99.0038 15.8539 99.062 16.8008C99.1188 17.6749 99.428 18.5138 99.952 19.2157C100.51 19.9548 101.253 20.5339 102.106 20.8948C103.647 21.5851 105.249 21.5208 106.912 20.702L108.692 24.7634C107.426 25.4165 106.019 25.7487 104.595 25.7306C103.044 25.706 101.517 25.3531 100.112 24.6952C98.4568 23.9844 97.0055 22.8707 95.8906 21.4555Z" fill="#A5D936"/>
<path d="M119.246 14.3281L123.358 17.4491L112.286 31.9861L108.174 28.8562L119.246 14.3281Z" fill="#A5D936"/>
<path d="M127.167 42.1389L124.126 44.7288L114.612 33.5591L128.526 21.71L137.818 32.6216L134.777 35.2115L128.796 28.1952L126.452 30.1948L131.715 36.3745L128.775 38.8814L123.509 32.6987L120.967 34.8644L127.167 42.1389Z" fill="#A5D936"/>
<path d="M148.607 55.1274L131.697 62.0784L130.08 58.1416L136.013 46.9778L127.018 50.6951L125.093 46.0106L142.003 39.0596L143.623 42.9935L137.689 54.1602L146.696 50.4548L148.607 55.1274Z" fill="#A5D936"/>
<path d="M133.156 68.2906C133.84 66.7613 134.934 65.451 136.316 64.5051C137.745 63.5378 139.413 62.9854 141.137 62.909C142.858 62.7785 144.582 63.1287 146.115 63.9206C147.602 64.6935 148.845 65.8644 149.705 67.3027C150.623 68.8419 151.145 70.5851 151.224 72.3758C151.339 73.9232 151.129 75.4775 150.607 76.9386C150.12 78.2764 149.311 79.4736 148.251 80.4245L145.086 77.3184C146.439 76.0506 147.065 74.5752 146.964 72.892C146.925 71.9686 146.647 71.071 146.157 70.2872C145.685 69.5475 145.009 68.9602 144.211 68.5962C143.344 68.2093 142.394 68.0461 141.448 68.1215C140.501 68.1608 139.578 68.4362 138.764 68.9225C138.015 69.3776 137.414 70.0403 137.034 70.8301C136.639 71.6669 136.469 72.5924 136.542 73.515C136.642 75.2001 137.44 76.5905 138.936 77.6863L136.159 81.1484C134.994 80.3286 134.049 79.2355 133.406 77.9651C132.713 76.5791 132.32 75.0629 132.252 73.515C132.114 71.7254 132.425 69.9296 133.156 68.2906Z" fill="#A5D936"/>
<path d="M133.071 97.5846L129.19 96.6382L132.67 82.3979L150.423 86.7323L147.023 100.655L143.143 99.7088L145.329 90.7552L142.336 90.0254L140.411 97.911L136.658 96.9942L138.583 89.1087L135.338 88.3166L133.071 97.5846Z" fill="#A5D936"/>
<path d="M124.08 106.28C125.035 105.487 126.121 104.867 127.29 104.449L129.31 108.101C128.325 108.461 127.397 108.961 126.554 109.585C125.675 110.214 124.895 110.971 124.24 111.83C123.053 113.413 122.856 114.5 123.647 115.094C124.062 115.408 124.537 115.414 125.083 115.115C125.893 114.619 126.656 114.051 127.364 113.418C128.257 112.627 129.205 111.899 130.2 111.24C131.019 110.709 131.959 110.395 132.932 110.326C133.921 110.249 134.926 110.593 135.947 111.359C136.813 111.996 137.462 112.885 137.804 113.904C138.156 115.028 138.176 116.229 137.86 117.363C137.454 118.83 136.754 120.2 135.804 121.389C135.085 122.344 134.259 123.213 133.342 123.979C132.502 124.7 131.556 125.288 130.538 125.724L128.435 122.14C130.071 121.44 131.506 120.342 132.609 118.945C133.23 118.126 133.559 117.434 133.597 116.868C133.632 116.628 133.602 116.383 133.51 116.159C133.418 115.935 133.268 115.739 133.075 115.592C132.683 115.296 132.226 115.296 131.695 115.592C130.903 116.085 130.158 116.652 129.47 117.283C128.576 118.079 127.626 118.809 126.628 119.47C125.808 119.993 124.874 120.31 123.905 120.392C122.916 120.481 121.911 120.143 120.891 119.378C120.036 118.746 119.399 117.865 119.066 116.856C118.723 115.727 118.706 114.523 119.019 113.385C119.417 111.919 120.111 110.55 121.057 109.362C121.928 108.209 122.944 107.173 124.08 106.28Z" fill="#A5D936"/>
<path d="M112.926 119.899C114.582 119.65 116.275 119.862 117.818 120.514C119.405 121.193 120.772 122.299 121.767 123.709C122.807 125.09 123.443 126.734 123.603 128.455C123.761 130.123 123.453 131.801 122.713 133.303C121.908 134.903 120.718 136.278 119.251 137.305C118.011 138.238 116.589 138.901 115.077 139.251C113.688 139.564 112.243 139.53 110.87 139.154L111.76 134.81C113.558 135.263 115.14 134.993 116.507 134C117.262 133.472 117.866 132.756 118.26 131.924C118.628 131.128 118.757 130.243 118.631 129.375C118.49 128.437 118.115 127.549 117.539 126.794C116.995 126.017 116.265 125.388 115.415 124.967C114.627 124.581 113.743 124.434 112.873 124.542C111.955 124.662 111.085 125.019 110.348 125.578C108.987 126.567 108.248 127.99 108.132 129.847L103.72 129.381C103.779 127.958 104.187 126.572 104.907 125.343C105.702 124.012 106.766 122.861 108.031 121.964C109.466 120.88 111.148 120.171 112.926 119.899Z" fill="#A5D936"/>
<path d="M107.515 143.714L102.768 145.728L95.6479 128.901L100.395 126.884L107.515 143.714Z" fill="#A5D936"/>
<path d="M79.4437 136.747L78.7139 132.822L93.1411 130.152L96.4727 148.119L82.3807 150.733L81.6539 146.805L90.7143 145.125L90.1506 142.096L82.1701 143.58L81.464 139.782L89.4475 138.299L88.8363 135.015L79.4437 136.747Z" fill="#A5D936"/>
<path d="M57.5093 148.876L59.8827 130.755L64.1014 131.304L70.8418 142.005L72.0997 132.348L77.1223 133.001L74.7489 151.124L70.5303 150.573L63.7899 139.875L62.529 149.531L57.5093 148.876Z" fill="#A5D936"/>
<path d="M53.7627 128.949C54.75 130.303 55.3426 131.904 55.4746 133.574C55.6057 135.295 55.2554 137.019 54.4629 138.552C53.7197 140.11 52.5593 141.43 51.1105 142.368C49.7005 143.271 48.0677 143.766 46.3934 143.797C44.6003 143.831 42.8271 143.417 41.2343 142.593C39.8332 141.926 38.5887 140.971 37.5822 139.789C36.6648 138.701 36.0282 137.404 35.728 136.013L39.9971 134.808C40.4243 136.616 41.3935 137.894 42.9045 138.641C43.727 139.07 44.6479 139.275 45.5746 139.235C46.4494 139.194 47.2936 138.901 48.0044 138.389C48.7692 137.83 49.3813 137.087 49.7844 136.229C50.2209 135.387 50.4401 134.449 50.4222 133.5C50.4005 132.624 50.1243 131.774 49.6271 131.052C49.1016 130.293 48.3854 129.685 47.5504 129.29C46.0374 128.539 44.4344 128.539 42.7413 129.29L41.1186 125.163C42.4079 124.559 43.8263 124.282 45.2483 124.357C46.8002 124.445 48.3164 124.858 49.6983 125.57C51.3118 126.343 52.7083 127.504 53.7627 128.949Z" fill="#A5D936"/>
<path d="M28.4149 114.281L31.168 111.389L41.7948 121.508L29.1892 134.743L18.8057 124.858L21.5588 121.965L28.2339 128.32L30.3581 126.089L24.478 120.491L27.1481 117.693L33.0281 123.291L35.3333 120.87L28.4149 114.281Z" fill="#A5D936"/>
<path d="M25.3216 102.167C25.5383 103.389 25.5383 104.639 25.3216 105.861L21.1504 105.804C21.3249 104.77 21.3509 103.716 21.2275 102.675C21.1174 101.599 20.8484 100.547 20.4295 99.5506C19.6384 97.729 18.7919 97.013 17.89 97.4027C17.4094 97.6004 17.1641 98.0128 17.1542 98.6398C17.1833 99.5887 17.2984 100.533 17.4984 101.461C17.7403 102.629 17.9009 103.813 17.979 105.003C18.0329 105.978 17.839 106.951 17.4153 107.831C16.9881 108.733 16.191 109.434 15.0241 109.934C14.0402 110.368 12.9467 110.491 11.8912 110.284C10.7422 110.03 9.69069 109.45 8.86221 108.614C7.78811 107.535 6.9461 106.248 6.38797 104.831C5.91561 103.733 5.5712 102.585 5.36149 101.408C5.15346 100.321 5.11243 99.2082 5.23985 98.1087L9.39326 98.0613C9.18761 99.829 9.42832 101.62 10.0934 103.271C10.489 104.214 10.9241 104.842 11.3988 105.155C11.5905 105.303 11.818 105.398 12.0582 105.429C12.2984 105.461 12.5428 105.429 12.7664 105.336C13.2144 105.143 13.4429 104.742 13.4458 104.134C13.4117 103.202 13.2905 102.276 13.0839 101.366C12.8364 100.193 12.6728 99.0029 12.5944 97.8061C12.5462 96.8345 12.7366 95.8658 13.1492 94.9848C13.5645 94.0799 14.3566 93.3738 15.5225 92.8754C16.4957 92.4472 17.5775 92.3301 18.6198 92.5402C19.7703 92.8022 20.8228 93.3855 21.6547 94.2223C22.7304 95.2943 23.5745 96.5757 24.1349 97.9871C24.7073 99.3241 25.1061 100.729 25.3216 102.167Z" fill="#A5D936"/>
<path d="M19.0536 85.7313C18.446 87.2909 17.4193 88.6522 16.0869 89.6652C14.7039 90.7012 13.0608 91.3338 11.3401 91.4927C9.62705 91.7052 7.88862 91.4392 6.31745 90.7243C4.79664 90.0226 3.49976 88.9137 2.57047 87.5202C1.57657 86.0275 0.970838 84.3103 0.808217 82.5243C0.615961 80.9847 0.750432 79.4218 1.20282 77.9377C1.62472 76.5782 2.37459 75.3433 3.38632 74.342L6.70013 77.2909C5.40664 78.62 4.85187 80.1242 5.0358 81.8033C5.11863 82.7246 5.44079 83.6082 5.97033 84.3666C6.47607 85.0825 7.17905 85.636 7.99366 85.9597C8.87825 86.3039 9.83488 86.4212 10.7764 86.3009C11.7213 86.217 12.6301 85.8978 13.4198 85.3723C14.1451 84.8802 14.7128 84.1889 15.0545 83.3816C15.4089 82.5267 15.5337 81.594 15.4164 80.676C15.2364 79.0008 14.3721 77.6509 12.8235 76.6264L15.4283 73.0337C16.6319 73.7953 17.6295 74.8418 18.3327 76.0805C19.0924 77.4329 19.5594 78.9298 19.7033 80.4743C19.9252 82.2534 19.7019 84.0597 19.0536 85.7313Z" fill="#A5D936"/>
<path d="M1.09766 69.1954L1.71179 64.063L19.8563 66.2376L19.2422 71.37L1.09766 69.1954Z" fill="#A5D936"/>
<path d="M21.1008 48.2833L24.8715 49.6006L20.0328 63.4522L2.77832 57.4238L7.5073 43.8926L11.278 45.2098L8.23711 53.9112L11.1474 54.9258L13.8175 47.2628L17.4666 48.5355L14.7965 56.2015L17.9531 57.3022L21.1008 48.2833Z" fill="#A5D936"/>
<path d="M21.5141 23.2168L36.051 34.3064L33.467 37.6885L20.8317 38.1928L28.5719 44.0996L25.4984 48.1254L10.9614 37.0358L13.5454 33.6537L26.1807 33.1524L18.4346 27.2397L21.5141 23.2168Z" fill="#A5D936"/>
<path d="M40.6488 29.9094C38.9836 30.0955 37.2994 29.8161 35.7834 29.1024C34.2253 28.3621 32.9034 27.2036 31.9652 25.756C30.9752 24.3372 30.3989 22.6712 30.3009 20.9439C30.2174 19.2714 30.5972 17.6083 31.3985 16.1378C32.2631 14.5631 33.5072 13.2293 35.018 12.2573C36.2914 11.3726 37.7369 10.7661 39.2604 10.4773C40.6609 10.2189 42.1035 10.3085 43.4613 10.7384L42.3873 15.0431C40.6073 14.519 39.0181 14.7267 37.6198 15.6661C36.8422 16.1669 36.2091 16.8624 35.7834 17.6835C35.3838 18.4644 35.22 19.3447 35.3117 20.2171C35.4156 21.1604 35.7553 22.0623 36.2996 22.8397C36.8134 23.6374 37.5193 24.2933 38.3526 24.7473C39.1242 25.1638 40.0005 25.3462 40.8743 25.2724C41.7952 25.1881 42.6785 24.8661 43.4375 24.3379C44.8378 23.3984 45.629 22.006 45.8109 20.1607L50.1987 20.7986C50.0829 22.2183 49.6194 23.5877 48.8489 24.7858C48.0033 26.0916 46.8912 27.2037 45.5855 28.0492C44.1192 29.0682 42.4229 29.7074 40.6488 29.9094Z" fill="#A5D936"/>
<path d="M65.9642 15.1861L67.1034 19.0162L53.0411 23.1963L47.8315 5.69261L61.5705 1.60742L62.7097 5.43747L53.8748 8.06302L54.7648 11.0298L62.5465 8.7157L63.6502 12.4211L55.8655 14.7322L56.8178 17.9363L65.9642 15.1861Z" fill="#A5D936"/>
</svg>
