<svg width="53" height="153" viewBox="0 0 53 153" fill="none" xmlns="http://www.w3.org/2000/svg">
<path d="M55.6678 130.052C56.704 131.425 57.326 133.049 57.4645 134.744C57.6021 136.49 57.2345 138.239 56.4027 139.794C55.6226 141.374 54.4046 142.714 52.8839 143.665C51.404 144.581 49.6902 145.083 47.9328 145.115C46.0507 145.15 44.1895 144.73 42.5177 143.893C41.0471 143.217 39.7409 142.247 38.6845 141.049C37.7216 139.945 37.0534 138.63 36.7383 137.218L41.2192 135.996C41.6676 137.83 42.6848 139.126 44.2708 139.884C45.1342 140.319 46.1007 140.527 47.0734 140.486C47.9915 140.446 48.8776 140.148 49.6237 139.629C50.4265 139.061 51.0689 138.308 51.492 137.438C51.9502 136.583 52.1803 135.631 52.1615 134.669C52.1388 133.78 51.8488 132.917 51.327 132.186C50.7754 131.415 50.0236 130.799 49.1472 130.398C47.5591 129.635 45.8766 129.635 44.0996 130.398L42.3962 126.211C43.7496 125.599 45.2383 125.317 46.7308 125.393C48.3598 125.482 49.9512 125.902 51.4017 126.624C53.0952 127.408 54.561 128.586 55.6678 130.052Z" fill="#A5D936"/>
<path d="M29.0665 115.171L31.9562 112.236L43.1102 122.502L29.8792 135.929L18.9805 125.9L21.8702 122.966L28.8765 129.413L31.1061 127.149L24.9343 121.47L27.7368 118.632L33.9086 124.311L36.3281 121.855L29.0665 115.171Z" fill="#A5D936"/>
<path d="M25.8181 102.881C26.0456 104.121 26.0456 105.389 25.8181 106.628L21.44 106.571C21.6231 105.522 21.6504 104.453 21.5209 103.396C21.4053 102.305 21.123 101.237 20.6833 100.227C19.8529 98.3789 18.9644 97.6525 18.0178 98.0478C17.5133 98.2484 17.2559 98.6668 17.2455 99.3028C17.276 100.266 17.3969 101.224 17.6067 102.165C17.8607 103.35 18.0292 104.551 18.1112 105.759C18.1678 106.748 17.9643 107.734 17.5196 108.627C17.0711 109.542 16.2345 110.253 15.0097 110.761C13.977 111.201 12.8293 111.325 11.7214 111.116C10.5154 110.858 9.41168 110.269 8.5421 109.421C7.41471 108.327 6.53093 107.021 5.9451 105.584C5.44931 104.47 5.08781 103.305 4.8677 102.111C4.64934 101.008 4.60628 99.8795 4.74002 98.7641L9.0995 98.7159C8.88364 100.509 9.1363 102.326 9.83438 104.001C10.2496 104.958 10.7063 105.595 11.2045 105.912C11.4058 106.062 11.6446 106.158 11.8967 106.191C12.1488 106.223 12.4053 106.19 12.64 106.096C13.1102 105.9 13.35 105.494 13.3531 104.877C13.3173 103.931 13.19 102.991 12.9732 102.069C12.7134 100.878 12.5418 99.6712 12.4594 98.4571C12.4088 97.4714 12.6087 96.4887 13.0417 95.5949C13.4777 94.6769 14.3091 93.9606 15.5329 93.455C16.5544 93.0206 17.6898 92.9018 18.7838 93.1149C19.9914 93.3807 21.0961 93.9725 21.9693 94.8214C23.0983 95.9089 23.9844 97.2088 24.5725 98.6407C25.1734 99.9971 25.592 101.422 25.8181 102.881Z" fill="#A5D936"/>
<path d="M19.2399 86.2057C18.6021 87.7879 17.5245 89.169 16.126 90.1966C14.6744 91.2476 12.9498 91.8893 11.1437 92.0505C9.34566 92.2661 7.52098 91.9963 5.87186 91.271C4.2756 90.5592 2.91438 89.4342 1.93898 88.0206C0.895762 86.5062 0.259982 84.7641 0.0892933 82.9522C-0.112501 81.3903 0.0286418 79.8049 0.503469 78.2992C0.946309 76.9201 1.73338 75.6673 2.79531 74.6515L6.27353 77.6431C4.91586 78.9915 4.33356 80.5174 4.52663 82.2209C4.61356 83.1555 4.9517 84.0519 5.50752 84.8212C6.03835 85.5476 6.77621 86.1091 7.63123 86.4375C8.55971 86.7866 9.56381 86.9056 10.5521 86.7836C11.5438 86.6985 12.4977 86.3746 13.3266 85.8415C14.0879 85.3422 14.6837 84.6409 15.0423 83.822C15.4144 82.9547 15.5454 82.0085 15.4222 81.0772C15.2333 79.3777 14.3261 78.0083 12.7007 76.969L15.4347 73.3242C16.6981 74.0969 17.7451 75.1585 18.4832 76.4152C19.2806 77.7871 19.7707 79.3057 19.9219 80.8725C20.1547 82.6774 19.9204 84.5099 19.2399 86.2057Z" fill="#A5D936"/>
<path d="M0.394531 69.4314L1.03913 64.2246L20.0839 66.4307L19.4393 71.6375L0.394531 69.4314Z" fill="#A5D936"/>
<path d="M21.3878 48.218L25.3456 49.5543L20.2668 63.6066L2.15625 57.4909L7.11986 43.7637L11.0776 45.1L7.88587 53.9274L10.9406 54.9567L13.7431 47.1827L17.5733 48.4738L14.7707 56.2509L18.084 57.3675L21.3878 48.218Z" fill="#A5D936"/>
<path d="M21.8262 22.7852L37.0844 34.0354L34.3722 37.4664L21.11 37.9781L29.2342 43.9704L26.0082 48.0545L10.75 36.8043L13.4622 33.3733L26.7244 32.8646L18.5939 26.8663L21.8262 22.7852Z" fill="#A5D936"/>
<path d="M41.9123 29.5767C40.1644 29.7655 38.3967 29.4821 36.8055 28.758C35.17 28.007 33.7826 26.8317 32.7978 25.3631C31.7587 23.9238 31.1539 22.2337 31.0509 20.4814C30.9633 18.7846 31.362 17.0974 32.2031 15.6057C33.1105 14.0082 34.4164 12.655 36.0021 11.669C37.3387 10.7715 38.8559 10.1562 40.455 9.86319C41.925 9.60102 43.4391 9.69197 44.8643 10.128L43.737 14.4951C41.8687 13.9634 40.2007 14.1741 38.733 15.1271C37.9168 15.6352 37.2523 16.3407 36.8055 17.1737C36.3861 17.966 36.2141 18.859 36.3104 19.744C36.4194 20.7009 36.776 21.6159 37.3473 22.4046C37.8866 23.2139 38.6275 23.8793 39.5021 24.3398C40.312 24.7623 41.2319 24.9475 42.149 24.8725C43.1156 24.787 44.0426 24.4603 44.8394 23.9245C46.3092 22.9714 47.1395 21.5589 47.3305 19.6868L51.936 20.3339C51.8145 21.7742 51.3279 23.1635 50.5192 24.3789C49.6317 25.7036 48.4644 26.8318 47.0939 27.6896C45.5548 28.7233 43.7744 29.3717 41.9123 29.5767Z" fill="#A5D936"/>
<path d="M68.4776 14.6406L69.6734 18.5261L54.9134 22.7668L49.4453 5.00958L63.8659 0.865234L65.0616 4.75075L55.7884 7.41433L56.7225 10.424L64.8903 8.07646L66.0488 11.8356L57.8778 14.1801L58.8774 17.4306L68.4776 14.6406Z" fill="#A5D936"/>
</svg>
