<svg width="313" height="101" viewBox="0 0 313 101" fill="none" xmlns="http://www.w3.org/2000/svg">
<g opacity="0.2">
<path d="M13.8392 27.8003C12.9598 28.933 12.0968 29.8007 11.2584 30.2709C10.4199 30.741 9.59788 30.9461 8.79223 30.8862C7.8523 30.8163 7.07123 30.3588 6.57511 29.6563C6.07898 28.9538 5.87598 27.8737 5.95793 26.5485C6.04807 25.0908 6.40679 23.653 7.16011 22.3778C7.77917 21.0925 8.65036 20.0923 9.77374 19.3771C10.8971 18.6619 11.9959 18.3442 13.3387 18.4441C13.8758 18.484 14.4129 18.5239 14.8075 18.6864C15.2022 18.8489 15.7311 19.0214 16.1175 19.3164L16.9774 16.3184C17.128 16.0633 17.1526 15.6658 17.169 15.4007C17.1936 15.0032 17.3442 14.7481 17.3606 14.4831C17.377 14.218 17.3852 14.0855 17.2591 13.943C17.1331 13.8005 17.007 13.658 16.8727 13.648C16.7384 13.638 16.3438 13.4756 15.941 13.4456L16.1162 12.793L19.347 12.9002L20.1527 12.9601L16.1711 27.1749C15.9876 27.96 15.8124 28.6126 15.7878 29.0102C15.7632 29.4077 15.755 29.5403 15.8729 29.8153C15.999 29.9578 16.1251 30.1003 16.3936 30.1203C16.6622 30.1402 16.9389 30.0277 17.2157 29.9151C17.5006 29.6701 17.928 29.3025 18.4979 28.8124L19.2626 29.5349C18.4078 30.2701 17.6954 30.8827 17.1419 31.1078C16.5802 31.4654 15.9007 31.548 15.3636 31.5081C14.8265 31.4681 14.4318 31.3056 14.0536 30.8781C13.8096 30.4606 13.5656 30.0431 13.6066 29.3805C13.6394 28.8504 13.7982 28.4628 13.9653 27.9427L13.8392 27.8003ZM15.0578 23.3645C15.233 22.7119 15.2658 22.1818 15.2986 21.6518C15.3396 20.9892 15.2381 20.4491 14.9859 20.1641C14.7338 19.8791 14.2048 19.7066 13.5335 19.6567C12.5935 19.5868 11.7633 19.9244 11.0509 20.5371C10.3386 21.1498 9.73592 22.17 9.25934 23.3327C8.78276 24.4954 8.44045 25.6681 8.3667 26.8607C8.30933 27.7884 8.40264 28.4609 8.64661 28.8785C8.89057 29.296 9.277 29.591 9.8141 29.6309C10.0827 29.6509 10.3512 29.6709 10.628 29.5583C10.9047 29.4458 11.1815 29.3332 11.4664 29.0882C11.7513 28.8431 12.0363 28.5981 12.4637 28.2305C12.7568 27.8529 13.05 27.4753 13.3349 27.2302C13.628 26.8526 13.9212 26.4751 14.0882 25.955C14.3896 25.4449 14.5648 24.7923 14.7401 24.1397L15.0578 23.3645ZM36.714 22.1794L32.4172 21.8599L32.409 21.9924C32.9133 22.5624 33.1409 23.245 33.3767 23.795C33.6124 24.3451 33.5715 25.0077 33.5223 25.8028C33.4403 27.128 33.098 28.3006 32.4954 29.3209C31.8927 30.3411 31.0297 31.2088 30.057 31.6689C29.0761 32.2616 27.8512 32.4368 26.6427 32.3469C25.1657 32.2371 24.1161 31.7596 23.3596 30.9046C22.6031 30.0496 22.4001 28.9694 22.482 27.6443C22.5394 26.7166 22.7311 25.799 23.057 24.8913C23.3747 24.1162 23.8267 23.351 24.5472 22.6059C25.1253 21.9832 25.8377 21.3706 26.5336 21.0229C27.2296 20.6753 28.1941 20.3476 29.1504 20.1525C30.1068 19.9574 31.4577 19.9247 33.069 20.0446L37.2316 20.3541L36.714 22.1794ZM31.297 24.7054C31.3707 23.5127 31.1595 22.5651 30.8059 21.74C29.5974 21.6502 28.4986 21.9678 27.652 22.5705C26.6711 23.1632 25.9505 23.9084 25.3478 24.9286C24.7452 25.9488 24.4029 27.1215 24.3209 28.4467C24.28 29.1092 24.3815 29.6493 24.4911 30.0568C24.7351 30.4744 24.9873 30.7594 25.2476 30.9119C25.508 31.0644 25.9026 31.2268 26.3054 31.2568C27.2454 31.3267 27.9331 31.1116 28.6373 30.6315C29.3415 30.1513 29.9359 29.2636 30.4125 28.1009C31.0234 26.9482 31.2232 25.898 31.297 24.7054Z" fill="black"/>
<path d="M9.96305 65.9108C9.08386 67.0432 8.22106 67.9107 7.38282 68.3807C6.54458 68.8508 5.72271 69.0558 4.91723 68.996C3.9775 68.9261 3.1966 68.4688 2.70056 67.7664C2.20453 67.0641 2.00155 65.9843 2.08345 64.6596C2.17354 63.2023 2.53212 61.765 3.28526 60.4901C3.90415 59.2052 4.77516 58.2053 5.89827 57.4903C7.02139 56.7753 8.11994 56.4577 9.46241 56.5575C9.9994 56.5974 10.5364 56.6373 10.9309 56.7998C11.3255 56.9622 11.8543 57.1346 12.2406 57.4295L13.1002 54.4324C13.2509 54.1774 13.2754 53.78 13.2918 53.515C13.3164 53.1176 13.467 52.8626 13.4834 52.5976C13.4998 52.3327 13.508 52.2002 13.3819 52.0578C13.2559 51.9153 13.1298 51.7728 12.9956 51.7628C12.8613 51.7529 12.4668 51.5905 12.064 51.5605L12.2392 50.9081L15.4693 51.0152L16.2748 51.075L12.1683 65.1432C11.985 65.9281 11.8098 66.5805 11.7852 66.9779C11.7606 67.3753 11.7524 67.5078 11.8703 67.7828C11.9963 67.9252 12.1224 68.0677 12.3909 68.0876C12.6594 68.1076 12.9361 67.9951 13.2127 67.8826C13.4976 67.6376 13.9249 67.2701 14.4947 66.7801L15.2592 67.5024C14.4046 68.2374 13.6924 68.8498 13.139 69.0749C12.5775 69.4324 11.8981 69.515 11.3611 69.4751C10.8241 69.4351 10.4295 69.2727 10.0514 68.8453C9.80745 68.4279 9.56352 68.0105 9.60447 67.3481C9.63723 66.8182 9.79604 66.4308 9.96305 65.9108ZM11.0552 61.334C11.2304 60.6816 11.2632 60.1516 11.2959 59.6217C11.3369 58.9593 11.2354 58.4194 10.9833 58.1345C10.7312 57.8496 10.2024 57.6772 9.53112 57.6273C8.59139 57.5574 7.76134 57.895 7.04915 58.5075C6.33697 59.12 5.73446 60.1399 5.25801 61.3022C4.78156 62.4646 4.43935 63.6369 4.36564 64.8292C4.30831 65.7566 4.40161 66.429 4.64553 66.8464C4.88945 67.2637 5.27581 67.5586 5.81279 67.5986C6.08129 67.6185 6.34979 67.6385 6.62647 67.526C6.90316 67.4135 7.17985 67.3009 7.46472 67.056C7.7496 66.811 8.03447 66.566 8.46178 66.1985C8.75484 65.821 9.0479 65.4435 9.33277 65.1985C9.62583 64.8211 9.9189 64.4436 10.0859 63.9236C10.3872 63.4137 10.5624 62.7613 10.7376 62.1089L11.0552 61.334ZM21.8291 68.1239L21.8455 67.859C21.3659 66.8917 21.1629 65.8119 20.9599 64.7321C20.7569 63.6523 20.6882 62.5825 20.7537 61.5227C20.852 59.933 21.353 58.3732 22.1144 56.9658C22.8757 55.5584 23.8891 54.436 25.2807 53.7409C26.5381 53.0359 28.0394 52.7483 29.6503 52.868C31.3956 52.9978 32.5792 53.485 33.4616 54.4823C34.344 55.4795 34.6648 56.8342 34.5666 58.4239C34.4601 60.1462 33.9427 61.9709 33.0389 63.5008C32.127 65.1631 30.678 66.7855 28.6839 68.5005L28.6675 68.7654L29.8757 68.8553C30.547 68.9052 30.9579 68.8026 31.377 68.5676C31.7961 68.3326 32.0892 67.9551 32.3987 67.3127L33.6069 67.4025L32.1775 70.8896L26.4049 70.4604L26.7799 68.7582C28.07 67.5232 28.9574 66.2583 29.7023 65.1159C30.4473 63.9735 30.9237 62.8112 31.4002 61.6488C31.7424 60.4765 32.0846 59.3041 32.1501 58.2443C32.3221 55.4622 31.4725 53.9351 29.4588 53.7854C28.6533 53.7255 27.8314 53.9306 27.1356 54.2781C26.4398 54.6256 25.8537 55.3806 25.2594 56.268C24.6651 57.1554 24.1968 58.1853 23.8546 59.3577C23.5124 60.53 23.3044 61.7123 23.2307 62.9046C23.1816 63.6995 23.2585 64.6368 23.3272 65.7067C23.3959 66.7765 23.4728 67.7138 23.6922 68.5286L23.183 70.2209L17.4104 69.7917L18.1685 66.2547L19.2425 66.3346C19.2097 66.8645 19.1851 67.2619 19.303 67.5368C19.4291 67.6793 19.5469 67.9543 19.6812 67.9642C19.8072 68.1067 20.21 68.1366 20.747 68.1766L21.8209 68.2564L21.8291 68.1239Z" fill="black"/>
<path d="M37.4832 44.7226L2.32812 42.2466L2.23454 43.9638L37.3896 46.4399L37.4832 44.7226Z" fill="black"/>
<path d="M46.9722 44.4137L47.0781 42.6948L63.1686 43.8874L63.0626 45.6063L46.9722 44.4137ZM46.6462 49.7026L46.7521 47.9837L62.8426 49.1763L62.7366 50.8952L46.6462 49.7026Z" fill="black"/>
<path d="M88.366 15.1522L89.0122 16.1356C85.5946 18.9803 82.7908 23.3424 80.7495 29.098C78.5677 34.8439 77.3373 41.1922 76.9016 48.4002C76.474 55.4747 76.9299 61.9405 78.3936 68.0745C79.7249 74.0652 81.98 78.7799 85.0184 82.2087L84.2593 83.0941C80.6507 79.7596 77.974 75.0155 76.0968 68.7187C74.2196 62.4218 73.5069 55.5359 73.9507 48.1945C74.4025 40.7195 75.9381 33.9904 78.5496 28.1404C81.3015 22.3003 84.5269 17.9676 88.366 15.1522Z" fill="black"/>
<path d="M91.9619 35.4374L96.143 35.7479C96.5476 35.778 96.9522 35.808 97.2302 35.6951C97.5082 35.5822 97.7779 35.6022 97.921 35.4792C98.199 35.3663 98.3503 35.1103 98.6282 34.9974C98.9144 34.7515 99.0657 34.4955 99.3601 34.1166C99.6546 33.7377 99.9572 33.2258 100.268 32.581L101.482 32.6711L100.115 37.2453L88.5161 36.3838L88.6921 35.7289L101.674 20.7957L97.6278 20.4952C97.0883 20.4551 96.6837 20.4251 96.4057 20.538C96.1278 20.6509 95.8498 20.7639 95.5718 20.8768C95.2856 21.1228 94.9994 21.3687 94.705 21.7476C94.4106 22.1265 94.108 22.6384 93.6541 23.4062L92.4402 23.3161L93.6556 18.9978L104.985 19.8393L104.809 20.4942L91.9619 35.4374Z" fill="black"/>
<path d="M109.594 40.8796C109.586 41.0127 109.569 41.279 109.561 41.4121C109.553 41.5452 109.544 41.6783 109.536 41.8114C109.528 41.9446 109.528 41.9446 109.655 42.0877C109.647 42.2208 109.782 42.2308 109.782 42.2308C109.909 42.374 109.909 42.3739 110.044 42.3839C110.18 42.394 110.307 42.5371 110.577 42.5571C110.712 42.5671 110.983 42.5871 111.253 42.6072C111.524 42.6272 111.93 42.6572 112.2 42.6772L112.151 43.476L104.577 42.9154L104.627 42.1167C105.032 42.1467 105.303 42.1667 105.573 42.1868C105.844 42.2068 106.114 42.2268 106.249 42.2368C106.385 42.2468 106.52 42.2568 106.663 42.1337C106.799 42.1437 106.942 42.0206 106.942 42.0206C107.077 42.0306 107.086 41.8975 107.221 41.9075C107.221 41.9075 107.364 41.7844 107.372 41.6513C107.381 41.5182 107.524 41.3951 107.532 41.2619C107.541 41.1288 107.549 40.9957 107.565 40.7295L107.984 33.9403C108 33.6741 108.009 33.541 107.882 33.3979C107.755 33.2547 107.619 33.2447 107.484 33.2347C107.349 33.2247 106.935 33.3278 106.521 33.4309C106.099 33.6671 105.541 33.8933 104.976 34.2526C104.849 34.1095 104.857 33.9764 104.73 33.8332C104.603 33.6901 104.611 33.557 104.484 33.4139C105.32 33.0746 106.156 32.7353 106.865 32.2528C107.701 31.9135 108.538 31.5742 109.247 31.0918L109.788 31.1318C109.763 31.5312 109.746 31.7974 109.73 32.0637C109.714 32.3299 109.697 32.5961 109.681 32.8624C109.664 33.1286 109.648 33.3948 109.631 33.6611L109.188 40.8496L109.594 40.8796Z" fill="black"/>
<path d="M118.681 37.305L122.862 37.6156C123.266 37.6457 123.671 37.6757 123.949 37.5628C124.227 37.4498 124.497 37.4699 124.64 37.3469C124.918 37.2339 125.069 36.978 125.347 36.8651C125.633 36.6191 125.784 36.3632 126.079 35.9843C126.373 35.6054 126.676 35.0935 126.987 34.4486L128.201 34.5388L126.834 39.113L115.235 38.2514L115.411 37.5965L128.393 22.6634L124.347 22.3629C123.807 22.3228 123.402 22.2927 123.124 22.4057C122.847 22.5186 122.569 22.6316 122.291 22.7445C122.004 22.9904 121.718 23.2364 121.424 23.6153C121.129 23.9942 120.827 24.5061 120.373 25.2739L119.159 25.1837L120.374 20.8655L131.704 21.707L131.528 22.3619L118.681 37.305Z" fill="black"/>
<path d="M136.798 43.7173C137.069 43.7373 137.339 43.7574 137.474 43.7674C137.61 43.7774 137.753 43.6543 137.888 43.6643C138.032 43.5412 138.167 43.5512 138.183 43.285C138.327 43.1619 138.343 42.8956 138.495 42.6394L139.441 42.7095C139.417 43.1088 139.384 43.6413 139.224 44.0306C139.199 44.43 139.167 44.9624 139.007 45.3518L130.893 44.7512L130.926 44.2187C131.086 43.8294 131.237 43.5732 131.532 43.1938C131.819 42.9476 131.979 42.5583 132.274 42.1789C132.569 41.7996 132.856 41.5534 133.151 41.1741C133.446 40.7947 133.877 40.4254 134.299 40.1892C134.873 39.6968 135.446 39.2043 135.877 38.835C136.307 38.4657 136.602 38.0864 136.889 37.8401C137.176 37.5939 137.336 37.2046 137.352 36.9383C137.504 36.6821 137.52 36.4159 137.545 36.0165C137.561 35.7503 137.586 35.3509 137.467 35.0747C137.348 34.7985 137.23 34.5222 137.103 34.3791C136.976 34.236 136.721 33.9497 136.451 33.9297C136.189 33.7765 135.918 33.7565 135.513 33.7265C134.972 33.6865 134.423 33.7795 133.992 34.1489C133.57 34.3851 133.267 34.8975 132.964 35.41L131.746 35.3199L131.861 33.4563C132.697 33.117 133.517 33.0439 134.201 32.9608C134.886 32.8778 135.57 32.7947 136.111 32.8347C136.787 32.8848 137.32 33.0579 137.853 33.2311C138.25 33.3942 138.639 33.6905 138.902 33.8436C139.156 34.1299 139.41 34.4161 139.52 34.8255C139.631 35.2349 139.606 35.6342 139.582 36.0336C139.565 36.2998 139.549 36.566 139.541 36.6992C139.524 36.9654 139.381 37.0885 139.364 37.3547C139.213 37.611 139.204 37.7441 138.917 37.9903C138.766 38.2465 138.622 38.3696 138.336 38.6158C138.184 38.8721 137.905 38.9852 137.618 39.2314C137.331 39.4776 137.045 39.7238 136.758 39.97C136.471 40.2162 136.04 40.5855 135.754 40.8318C135.467 41.078 135.036 41.4473 134.749 41.6935C134.463 41.9397 134.167 42.3191 133.881 42.5653C133.594 42.8115 133.307 43.0577 133.155 43.3139L136.806 43.5842L136.798 43.7173Z" fill="black"/>
<path d="M153.682 38.4688C152.815 39.3398 151.83 39.9347 150.988 40.4066C150.145 40.8785 149.058 40.9314 147.844 40.8412C146.63 40.7511 145.575 40.2719 144.95 39.4238C144.325 38.5757 143.986 37.4816 144.068 36.1516C144.126 35.2205 144.318 34.2995 144.789 33.2655C145.259 32.2315 145.721 31.3305 146.445 30.5826C147.169 29.8346 148.019 29.2297 148.997 28.7678C149.966 28.4389 151.061 28.253 152.14 28.3332C153.22 28.4133 154.013 28.7394 154.528 29.1785C155.043 29.6176 155.271 30.3027 155.214 31.2337C155.123 32.6967 154.383 33.7107 152.85 34.3986C151.451 35.0964 149.277 35.2022 146.579 35.0018C146.411 35.5238 146.378 36.0558 146.337 36.7209C146.279 37.6519 146.373 38.3269 146.753 38.756C147.133 39.1851 147.656 39.4912 148.466 39.5513C149.275 39.6114 149.958 39.5284 150.657 39.1795C151.356 38.8306 152.064 38.3486 152.779 37.7337L153.682 38.4688ZM146.922 33.8248C148.136 33.915 149.224 33.8621 150.176 33.7992C151.137 33.6033 151.828 33.3874 152.266 32.8854C152.83 32.5265 153.006 31.8715 153.055 31.0734C153.088 30.5414 152.978 30.1324 152.725 29.8463C152.471 29.5603 152.075 29.3972 151.67 29.3672C150.726 29.2971 149.892 29.636 149.025 30.5069C148.174 31.1118 147.426 32.2588 146.922 33.8248Z" fill="black"/>
<path d="M164.978 30.3868C165.248 30.4068 165.519 30.4268 165.654 30.4368C165.789 30.4468 165.933 30.3237 166.068 30.3337C166.211 30.2106 166.347 30.2206 166.363 29.9544C166.506 29.8313 166.523 29.565 166.675 29.3088L167.621 29.3789C167.596 29.7782 167.564 30.3107 167.404 30.7C167.379 31.0994 167.346 31.6319 167.186 32.0212L159.073 31.4206L159.105 30.8882C159.265 30.4988 159.417 30.2426 159.712 29.8633C159.999 29.617 160.159 29.2277 160.454 28.8484C160.749 28.469 161.036 28.2228 161.331 27.8435C161.626 27.4641 162.056 27.0948 162.479 26.8586C163.052 26.3662 163.626 25.8738 164.056 25.5044C164.487 25.1351 164.782 24.7558 165.069 24.5096C165.356 24.2633 165.515 23.874 165.532 23.6078C165.684 23.3515 165.7 23.0853 165.725 22.686C165.741 22.4197 165.766 22.0204 165.647 21.7441C165.528 21.4679 165.409 21.1916 165.282 21.0485C165.155 20.9054 164.901 20.6191 164.631 20.5991C164.368 20.446 164.098 20.426 163.692 20.3959C163.151 20.3559 162.602 20.449 162.172 20.8183C161.75 21.0545 161.446 21.567 161.143 22.0794L159.926 21.9893L160.041 20.1257C160.877 19.7864 161.697 19.7133 162.381 19.6302C163.065 19.5472 163.75 19.4641 164.291 19.5041C164.967 19.5542 165.5 19.7273 166.032 19.9005C166.43 20.0636 166.819 20.3599 167.081 20.5131C167.335 20.7993 167.589 21.0856 167.7 21.4949C167.811 21.9043 167.786 22.3036 167.761 22.703C167.745 22.9692 167.728 23.2355 167.72 23.3686C167.704 23.6348 167.56 23.7579 167.544 24.0241C167.392 24.2804 167.384 24.4135 167.097 24.6597C166.945 24.9159 166.802 25.039 166.515 25.2853C166.364 25.5415 166.085 25.6546 165.798 25.9008C165.511 26.147 165.224 26.3932 164.937 26.6394C164.65 26.8857 164.22 27.255 163.933 27.5012C163.646 27.7474 163.216 28.1167 162.929 28.3629C162.642 28.6092 162.347 28.9885 162.06 29.2347C161.773 29.4809 161.486 29.7271 161.335 29.9834L164.986 30.2536L164.978 30.3868Z" fill="black"/>
<path d="M116.813 76.1169C117.361 76.0238 117.775 75.9208 117.918 75.7977C118.062 75.6746 118.213 75.4185 118.365 75.1623C118.517 74.9062 118.549 74.3738 118.591 73.7084L118.722 71.579L111.424 71.0383L111.481 70.1067L119.891 59.2321L121.784 59.3723L121.094 70.5515L121.364 70.5715C121.904 70.6116 122.175 70.6316 122.453 70.5185C122.732 70.4055 122.875 70.2824 123.019 70.1593C123.162 70.0362 123.322 69.647 123.482 69.2578L124.428 69.3279L124.128 71.9796L121.02 71.7493L120.888 73.8786C120.855 74.411 120.822 74.9433 120.806 75.2095C120.79 75.4757 120.908 75.7518 120.9 75.8849C120.892 76.018 121.154 76.1711 121.281 76.3142C121.408 76.4573 121.67 76.6104 122.075 76.6405L122.034 77.3059L116.628 76.9054L116.677 76.1069L116.813 76.1169ZM113.668 69.8677L118.804 70.2482L119.001 67.0541C119.051 66.2556 119.108 65.324 119.174 64.2593C119.239 63.1946 119.281 62.5292 119.449 62.0069L119.313 61.9969L113.676 69.7346L113.668 69.8677Z" fill="black"/>
<path d="M142.143 60.6873L140.952 64.6064L139.738 64.5162C139.788 63.7184 139.686 63.1765 139.71 62.7775C139.6 62.3686 139.482 62.0926 139.355 61.9496C139.228 61.8066 139.102 61.6636 138.832 61.6436C138.697 61.6336 138.436 61.4806 138.031 61.4505L133.715 61.1299L131.813 67.8015L134.375 67.9918C135.049 68.0419 135.462 67.939 135.883 67.7031C136.169 67.4572 136.607 66.9553 136.918 66.3105L138.131 66.4007L136.614 71.2306L135.535 71.1504C135.576 70.4855 135.609 69.9536 135.49 69.6777C135.372 69.4017 135.245 69.2587 135.119 69.1157C134.984 69.1057 134.587 68.9427 134.183 68.9126L131.486 68.7122L129.407 76.0386L133.318 76.3292C133.857 76.3692 134.262 76.3993 134.54 76.2863C134.818 76.1734 135.096 76.0605 135.382 75.8146C135.668 75.5686 135.954 75.3227 136.249 74.9439C136.543 74.565 136.846 74.0531 137.299 73.2853L138.513 73.3755L137.02 77.8064L125.422 76.9449L125.598 76.29C125.868 76.3101 126.146 76.1971 126.423 76.0842C126.567 75.9612 126.71 75.8383 126.861 75.5823C127.012 75.3264 127.155 75.2035 127.18 74.8045C127.331 74.5486 127.507 73.8937 127.691 73.1059L130.601 63.3031C130.785 62.5152 130.969 61.7274 131.002 61.1955C131.026 60.7966 130.908 60.5206 130.781 60.3776C130.52 60.2246 130.258 60.0716 129.854 60.0416L130.03 59.3867L142.167 60.2883L142.143 60.6873Z" fill="black"/>
<path d="M168.639 53.8706L87.5312 48.2058L87.4442 49.9462L168.552 55.611L168.639 53.8706Z" fill="black"/>
<path d="M171.937 20.9984C175.546 24.333 178.222 29.077 180.107 35.2404C181.993 41.4037 182.705 48.2896 182.254 55.7646C181.81 63.106 180.274 69.8352 177.655 75.8186C175.035 81.802 171.81 86.1347 167.83 88.9403L167.184 87.9569C170.602 85.1122 173.405 80.7501 175.455 74.861C177.496 69.1054 178.875 62.6334 179.303 55.5589C179.738 48.3509 179.291 41.7516 177.811 35.8845C176.339 29.884 174.216 25.3127 171.178 21.8838L171.937 20.9984Z" fill="black"/>
<path d="M193.056 26.1761C193.326 26.1961 193.597 26.2161 193.732 26.2261C193.867 26.2361 194.011 26.113 194.146 26.123C194.289 25.9999 194.425 26.0099 194.441 25.7437C194.585 25.6206 194.601 25.3544 194.753 25.0981L195.699 25.1682C195.675 25.5675 195.642 26.1 195.482 26.4894C195.457 26.8887 195.424 27.4212 195.265 27.8105L187.151 27.2099L187.184 26.6775C187.343 26.2881 187.495 26.0319 187.79 25.6526C188.077 25.4063 188.237 25.017 188.532 24.6377C188.827 24.2584 189.114 24.0121 189.409 23.6328C189.704 23.2535 190.135 22.8841 190.557 22.6479C191.13 22.1555 191.704 21.6631 192.135 21.2937C192.565 20.9244 192.86 20.5451 193.147 20.2989C193.434 20.0527 193.594 19.6633 193.61 19.3971C193.762 19.1409 193.778 18.8746 193.803 18.4753C193.819 18.209 193.844 17.8097 193.725 17.5334C193.606 17.2572 193.487 16.981 193.36 16.8378C193.233 16.6947 192.979 16.4084 192.709 16.3884C192.447 16.2353 192.176 16.2153 191.77 16.1853C191.23 16.1452 190.68 16.2383 190.25 16.6076C189.828 16.8438 189.525 17.3563 189.221 17.8687L188.004 17.7786L188.119 15.915C188.955 15.5757 189.775 15.5026 190.459 15.4196C191.144 15.3365 191.828 15.2534 192.369 15.2935C193.045 15.3435 193.578 15.5167 194.11 15.6898C194.508 15.853 194.897 16.1492 195.159 16.3024C195.413 16.5886 195.667 16.8749 195.778 17.2842C195.889 17.6936 195.864 18.093 195.839 18.4923C195.823 18.7585 195.807 19.0248 195.798 19.1579C195.782 19.4241 195.638 19.5472 195.622 19.8135C195.47 20.0697 195.462 20.2028 195.175 20.449C195.024 20.7053 194.88 20.8284 194.593 21.0746C194.442 21.3308 194.163 21.4439 193.876 21.6901C193.589 21.9363 193.302 22.1825 193.015 22.4288C192.729 22.675 192.298 23.0443 192.011 23.2905C191.724 23.5367 191.294 23.9061 191.007 24.1523C190.72 24.3985 190.425 24.7778 190.138 25.024C189.851 25.2702 189.565 25.5165 189.413 25.7727L193.064 26.0429L193.056 26.1761Z" fill="black"/>
<path d="M258.312 44.9657C258.279 45.4985 258.254 45.898 258.373 46.1744C258.357 46.4408 258.484 46.5839 258.604 46.8603C258.723 47.1367 258.994 47.1567 259.257 47.3099C259.52 47.4631 259.926 47.4931 260.325 47.6562C260.732 47.6862 261.266 47.8594 261.943 47.9094L261.886 48.8417L252.125 48.1218L252.183 47.1895C253.132 47.2595 253.818 47.1763 254.224 47.2063C254.631 47.2363 254.91 47.1231 255.19 47.0099C255.469 46.8967 255.621 46.6403 255.773 46.384C255.925 46.1276 255.95 45.728 255.991 45.0621L256.639 34.5403C256.663 34.1407 256.671 34.0076 256.552 33.7312C256.425 33.588 256.297 33.4448 256.026 33.4248C255.755 33.4048 255.34 33.508 254.782 33.7344C254.223 33.9608 253.521 34.3103 252.81 34.7931L252.333 33.6876L258.791 30.5515L259.468 30.6015C259.419 31.4006 259.21 32.5893 259.12 34.0543L258.447 44.9757L258.312 44.9657Z" fill="black"/>
<path d="M209.336 73.8702C209.251 73.0662 209.016 72.517 208.638 72.0901C208.26 71.6632 207.597 71.481 206.658 71.4113C205.987 71.3615 205.442 71.454 205.015 71.8211C204.588 72.1883 204.295 72.5654 204.263 73.0947C204.246 73.3594 204.23 73.6241 204.348 73.8987C204.466 74.1733 204.584 74.448 204.97 74.7425C205.222 75.0271 205.734 75.464 206.514 75.9207C207.035 76.2253 207.412 76.6522 207.799 76.9467C208.051 77.2313 208.303 77.5159 208.555 77.8005C208.672 78.0751 208.79 78.3498 208.908 78.6244C209.026 78.899 209.001 79.2961 208.977 79.6931C208.928 80.4871 208.619 81.1289 208.183 81.6283C207.748 82.1278 207.187 82.485 206.366 82.6899C205.679 82.9047 204.866 82.9773 203.926 82.9076C203.256 82.8578 202.451 82.798 201.788 82.6159C201.125 82.4337 200.329 82.2416 199.54 81.9172L200.382 79.1879L201.456 79.2676C201.407 80.0616 201.634 80.7432 202.012 81.1701C202.39 81.597 203.045 81.9115 204.118 81.9912C204.923 82.051 205.602 81.9684 206.029 81.6013C206.456 81.2342 206.757 80.7247 206.798 80.063C206.822 79.666 206.838 79.4014 206.729 78.9944C206.611 78.7197 206.359 78.4352 206.107 78.1506C205.855 77.866 205.335 77.5614 204.688 77.1146C204.042 76.6678 203.53 76.231 203.144 75.9364C202.758 75.6419 202.514 75.2249 202.404 74.8179C202.295 74.411 202.185 74.004 202.218 73.4747C202.259 72.813 202.434 72.1612 202.869 71.6618C203.304 71.1623 203.865 70.8051 204.552 70.5903C205.239 70.3754 206.052 70.3028 206.992 70.3725C207.797 70.4323 208.601 70.4921 209.264 70.6742C209.927 70.8564 210.589 71.0385 211.244 71.353L210.544 73.9599L209.336 73.8702ZM215.072 74.8279C215.256 74.0438 215.431 73.3921 215.463 72.8628C215.488 72.4657 215.37 72.1911 215.244 72.0488C215.118 71.9065 214.724 71.7443 214.187 71.7044L214.362 71.0527L217.59 71.1594L218.395 71.2192L216.002 79.417C215.819 80.2011 215.644 80.8528 215.619 81.2498C215.595 81.6468 215.587 81.7791 215.704 82.0538C215.83 82.1961 215.956 82.3384 216.225 82.3583C216.493 82.3782 216.77 82.2658 217.046 82.1534C217.331 81.9086 217.758 81.5415 218.327 81.052L219.091 81.7735C218.229 82.6401 217.391 83.1096 216.83 83.4668C216.277 83.6916 215.724 83.9165 215.053 83.8667C214.517 83.8268 213.997 83.5223 213.753 83.1054C213.375 82.6785 213.273 82.1392 213.314 81.4775C213.355 80.8158 213.538 80.0317 213.872 78.993L215.072 74.8279ZM219.771 66.4024L219.079 68.877L216.798 68.7076L217.49 66.2331L219.771 66.4024ZM223.894 76.0146C224.077 75.2306 224.252 74.5789 224.277 74.1818C224.301 73.7848 224.31 73.6525 224.192 73.3778C224.066 73.2356 223.94 73.0933 223.672 73.0733C223.403 73.0534 223.127 73.1658 222.85 73.2782C222.566 73.523 222.139 73.8901 221.569 74.3796L220.805 73.6582C221.659 72.9239 222.371 72.312 222.924 72.0872C223.485 71.73 224.03 71.6375 224.701 71.6873C225.237 71.7272 225.631 71.8894 226.009 72.3163C226.253 72.7332 226.497 73.1502 226.456 73.8119C226.432 74.2089 226.265 74.7282 226.09 75.38L226.224 75.3899C227.102 74.2587 227.965 73.3921 228.802 72.9225C229.64 72.4529 230.461 72.248 231.266 72.3078C232.071 72.3675 232.726 72.682 233.104 73.1089C233.481 73.5358 233.709 74.2174 233.66 75.0114C233.627 75.5408 233.444 76.3248 233.119 77.2313L232.101 80.6123C231.776 81.5187 231.601 82.1704 231.576 82.5675C231.552 82.9645 231.543 83.0968 231.661 83.3714C231.787 83.5137 231.913 83.656 232.182 83.676C232.45 83.6959 232.726 83.5835 233.003 83.4711C233.287 83.2263 233.714 82.8592 234.284 82.3696L235.048 83.0911C234.194 83.8254 233.625 84.3149 232.929 84.6621C232.368 85.0192 231.689 85.1018 231.018 85.052C230.482 85.0121 229.961 84.7076 229.718 84.2907C229.34 83.8638 229.238 83.3245 229.279 82.6628C229.312 82.1334 229.495 81.3494 229.837 80.1783L230.512 77.9684C230.83 77.1943 231.005 76.5425 231.029 76.1455C231.054 75.7485 231.204 75.4938 231.221 75.2291C231.253 74.6998 231.152 74.1605 231.034 73.8858C230.916 73.6112 230.522 73.449 230.119 73.4191C229.717 73.3892 229.306 73.4917 228.887 73.7265C228.469 73.9613 227.907 74.3184 227.464 74.9502C226.895 75.4397 226.586 76.0815 226.15 76.581C225.849 77.0904 225.54 77.7322 225.357 78.5162L223.806 83.9848L221.526 83.8154L223.894 76.0146Z" fill="black"/>
<path d="M241.167 76.7698C241.302 76.7798 241.58 76.6668 241.715 76.6768C241.85 76.6868 241.993 76.5638 241.993 76.5638C242.128 76.5738 242.137 76.4408 242.137 76.4408C242.145 76.3077 242.28 76.3178 242.288 76.1847C242.296 76.0517 242.304 75.9186 242.313 75.7856C242.321 75.6526 242.337 75.3865 242.354 75.1204L242.428 73.9231L237.029 73.5225L237.078 72.7243C238.105 71.464 239.124 70.3369 240.151 69.0766C241.178 67.8164 242.197 66.6892 243.224 65.429L244.708 65.5392L244.248 72.9891L244.383 72.9991C244.653 73.0191 244.923 73.0391 245.058 73.0492C245.193 73.0592 245.336 72.9362 245.471 72.9462C245.614 72.8232 245.614 72.8232 245.757 72.7001C245.766 72.5671 245.909 72.4441 246.06 72.188L246.87 72.2481C246.846 72.6472 246.829 72.9133 246.804 73.3124C246.78 73.7115 246.763 73.9776 246.739 74.3767L244.444 74.2064L244.37 75.4037C244.345 75.8028 244.329 76.0689 244.321 76.2019C244.304 76.468 244.296 76.601 244.423 76.7441C244.55 76.8871 244.55 76.8871 244.811 77.0402C244.946 77.0502 245.208 77.2033 245.478 77.2233L245.445 77.7554L241.261 77.4449L241.302 76.7798L241.167 76.7698ZM238.849 72.5884L242.493 72.8589L242.608 70.9964C242.625 70.7303 242.641 70.4642 242.658 70.1982C242.674 69.9321 242.699 69.533 242.715 69.2669C242.732 69.0009 242.756 68.6018 242.773 68.3357C242.789 68.0696 242.806 67.8036 242.822 67.5375L242.687 67.5275C241.955 68.4086 241.366 69.1668 240.633 70.0479C240.179 70.8161 239.581 71.7073 238.849 72.5884Z" fill="black"/>
<path d="M257.584 86.6951C256.24 86.5951 255.324 86.1271 254.701 85.2812C254.078 84.4353 253.883 83.2215 253.982 81.6297C254.031 80.8338 254.231 79.7827 254.448 78.4662C254.656 77.2823 255.141 75.9859 255.626 74.6894C256.112 73.3929 256.857 72.2491 257.587 71.3705C258.324 70.3594 259.18 69.6235 260.154 69.1629C261.127 68.7023 262.084 68.507 263.159 68.587C265.713 68.777 266.824 70.4588 266.627 73.6424C266.569 74.5709 266.369 75.6221 266.161 76.8059C265.818 77.9798 265.467 79.2863 264.982 80.5827C264.497 81.8792 263.759 82.8904 263.022 83.9016C262.284 84.9127 261.437 85.516 260.463 85.9766C259.616 86.5798 258.659 86.7751 257.584 86.6951ZM263.358 78.463L257.042 77.993C256.524 79.82 256.157 81.3918 256.075 82.7183C256.017 83.6468 256.102 84.4527 256.346 84.8707C256.591 85.2886 257.112 85.5939 257.784 85.6439C258.724 85.7139 259.706 85.1207 260.729 83.8642C261.743 82.7404 262.53 80.9333 263.358 78.463ZM257.393 76.6865L263.709 77.1565C264.227 75.3294 264.594 73.7577 264.668 72.5638C264.726 71.6353 264.632 70.9621 264.388 70.5441C264.144 70.1262 263.623 69.8209 263.085 69.7809C262.01 69.7009 261.029 70.2941 260.148 71.4279C258.991 72.6744 258.204 74.4815 257.393 76.6865ZM288.44 70.2019L276.204 93.4112L274.457 93.2812L286.693 70.0719L288.44 70.2019Z" fill="black"/>
<path d="M302.995 87.6789C303.401 87.7089 303.808 87.7389 304.087 87.6258C304.358 87.6458 304.637 87.5326 304.78 87.4095C304.924 87.2863 305.068 87.1631 305.22 86.9068C305.363 86.7837 305.523 86.3942 305.683 86.0047L306.767 86.0847L306.266 89.7932L295.431 88.9929L295.472 88.3271C295.936 87.425 296.535 86.5329 297.134 85.6408C297.869 84.7587 298.756 83.6203 300.048 82.5119C301.197 81.5266 301.932 80.6445 302.371 80.1419C302.954 79.5161 303.258 79.0035 303.553 78.624C303.849 78.2446 304.017 77.7219 304.177 77.3325C304.337 76.943 304.362 76.5435 304.386 76.144C304.427 75.4782 304.325 74.9356 304.222 74.3929C303.984 73.8403 303.738 73.4208 303.348 73.1245C302.958 72.8281 302.424 72.655 301.747 72.6049C300.122 72.4849 298.981 73.337 298.197 75.018L296.572 74.898L296.728 72.368C297.844 71.9154 298.809 71.7191 299.773 71.5228C300.738 71.3265 301.55 71.3865 302.227 71.4365C303.853 71.5566 305.047 72.0461 305.818 72.7719C306.59 73.4977 306.931 74.593 306.849 75.9246C306.824 76.3241 306.791 76.8567 306.631 77.2462C306.471 77.6357 306.311 78.0252 306.151 78.4146C305.991 78.8041 305.695 79.1836 305.265 79.553C304.969 79.9325 304.53 80.4351 304.099 80.8046C303.668 81.1741 302.942 81.923 301.793 82.9083C300.061 84.5193 298.751 85.894 297.857 87.1656L303.003 87.5457L302.995 87.6789Z" fill="black"/>
<path d="M310.356 63.7703L200.797 56.1252L200.712 57.8748L310.271 65.5198L310.356 63.7703Z" fill="black"/>
</g>
</svg>
