<svg width="185" height="172" viewBox="0 0 185 172" fill="none" xmlns="http://www.w3.org/2000/svg">
<path opacity="0.1" d="M36.3918 137.01C49.1781 159.156 70.962 163.388 87.1945 154.016C102.045 145.442 107.397 125.998 98.9385 111.347C90.4799 96.6964 74.4141 92.7977 61.29 100.375C58.527 101.97 55.6154 104.105 54.9727 105.385C50.9994 91.3247 55.5162 69.6368 63.224 57.4638L35.5732 53.4393C22.6188 80.4529 21.6384 111.456 36.3918 137.01ZM106.847 96.3324C119.634 118.479 141.072 122.91 157.305 113.538C172.501 104.765 177.507 85.5198 169.049 70.869C160.59 56.2182 144.524 52.3195 131.746 59.6973C128.983 61.2925 126.071 63.4278 125.428 64.7074C121.11 50.8465 125.972 28.9592 133.68 16.7862L105.684 12.9611C92.7291 39.9747 92.094 70.7787 106.847 96.3324Z" fill="black"/>
</svg>
