<svg width="416" height="416" viewBox="0 0 416 416" fill="none" xmlns="http://www.w3.org/2000/svg">
<g opacity="0.2">
<path d="M215.024 49.243C211.811 48.0433 208.831 46.2926 206.219 44.0696L212.171 34.2312C214.397 36.0975 216.883 37.6303 219.55 38.7814C222.264 40.0235 225.149 40.8526 228.109 41.241C233.575 41.9133 236.466 40.8912 236.783 38.1747C236.964 36.74 236.316 35.5839 234.857 34.6985C232.552 33.4415 230.137 32.3987 227.642 31.583C224.517 30.5316 221.468 29.266 218.517 27.7952C216.117 26.5611 214.068 24.7424 212.556 22.507C210.999 20.2278 210.452 17.3473 210.917 13.8656C211.25 10.9123 212.484 8.13303 214.45 5.90468C216.653 3.51055 219.5 1.80256 222.649 0.985466C226.723 -0.0672134 230.969 -0.279221 235.127 0.362366C238.389 0.771613 241.593 1.55001 244.679 2.68259C247.559 3.70347 250.268 5.1547 252.714 6.98691L247.04 16.9729C243.109 14.0122 238.497 12.0867 233.627 11.3732C230.815 11.0289 228.708 11.1846 227.322 11.8651C226.699 12.1158 226.154 12.5271 225.742 13.0571C225.331 13.5872 225.067 14.2169 224.977 14.8822C224.813 16.2186 225.453 17.3419 226.896 18.1617C229.168 19.3816 231.551 20.3836 234.012 21.1542C237.151 22.2022 240.211 23.4707 243.17 24.9502C245.557 26.1882 247.604 27.9927 249.131 30.2056C250.721 32.463 251.298 35.3325 250.861 38.8142C250.529 41.7307 249.3 44.4722 247.343 46.6604C245.116 49.0492 242.256 50.7553 239.096 51.5796C235.037 52.6524 230.801 52.8812 226.65 52.2519C222.662 51.7507 218.755 50.7395 215.024 49.243Z" fill="#A5D936"/>
<path d="M263.002 57.2069C260.129 53.5758 258.318 49.2196 257.771 44.6219C257.226 39.8845 258.003 35.0886 260.017 30.7661C261.905 26.3995 264.964 22.6399 268.855 19.9029C272.652 17.2557 277.107 15.7093 281.728 15.4346C286.675 15.1465 291.617 16.0931 296.108 18.1893C300.049 19.8947 303.588 22.4085 306.496 25.5682C309.151 28.4704 311.052 31.9816 312.03 35.7919L300.371 39.5879C298.999 34.6687 296.184 31.2471 291.927 29.3232C289.626 28.2409 287.083 27.7748 284.548 27.9704C282.135 28.1828 279.834 29.0882 277.923 30.5776C275.868 32.2073 274.255 34.3273 273.234 36.743C272.11 39.1116 271.605 41.7264 271.766 44.3432C271.923 46.7588 272.777 49.0771 274.226 51.0169C275.768 53.0594 277.821 54.6599 280.178 55.6573C284.436 57.5649 288.863 57.3873 293.46 55.1244L298.379 66.3484C294.881 68.1533 290.993 69.0711 287.057 69.0212C282.771 68.9532 278.549 67.978 274.668 66.1599C270.093 64.1954 266.083 61.1177 263.002 57.2069Z" fill="#A5D936"/>
<path d="M327.535 37.5107L338.898 46.1358L308.301 86.3093L296.938 77.6597L327.535 37.5107Z" fill="#A5D936"/>
<path d="M349.439 114.367L341.035 121.524L314.742 90.6562L353.194 57.9106L378.872 88.0654L370.469 95.2229L353.94 75.833L347.463 81.3589L362.008 98.4368L353.883 105.365L339.33 88.2786L332.304 94.2636L349.439 114.367Z" fill="#A5D936"/>
<path d="M408.694 150.261L361.961 169.471L357.493 158.591L373.89 127.739L349.032 138.012L343.711 125.066L390.443 105.857L394.92 116.728L378.523 147.588L403.414 137.348L408.694 150.261Z" fill="#A5D936"/>
<path d="M365.979 186.639C367.868 182.413 370.89 178.792 374.711 176.177C378.659 173.504 383.271 171.978 388.034 171.767C392.79 171.406 397.553 172.374 401.791 174.562C405.9 176.698 409.335 179.934 411.712 183.909C414.25 188.162 415.692 192.98 415.909 197.929C416.227 202.205 415.647 206.5 414.204 210.538C412.858 214.235 410.622 217.543 407.694 220.172L398.946 211.588C402.685 208.084 404.415 204.007 404.136 199.355C404.028 196.803 403.26 194.323 401.906 192.157C400.602 190.112 398.734 188.489 396.528 187.483C394.133 186.414 391.509 185.963 388.895 186.172C386.276 186.28 383.725 187.041 381.475 188.385C379.405 189.643 377.745 191.474 376.695 193.657C375.602 195.969 375.133 198.527 375.334 201.077C375.613 205.734 377.818 209.576 381.95 212.604L374.276 222.172C371.059 219.906 368.446 216.886 366.668 213.375C364.754 209.545 363.668 205.355 363.479 201.077C363.097 196.131 363.957 191.168 365.979 186.639Z" fill="#A5D936"/>
<path d="M365.747 267.594L355.023 264.978L364.641 225.625L413.702 237.603L404.306 276.079L393.582 273.464L399.624 248.72L391.352 246.704L386.031 268.496L375.66 265.962L380.981 244.17L372.011 241.981L365.747 267.594Z" fill="#A5D936"/>
<path d="M340.915 291.623C343.553 289.431 346.556 287.719 349.786 286.564L355.369 296.657C352.647 297.651 350.082 299.032 347.752 300.756C345.323 302.494 343.167 304.586 341.357 306.962C338.078 311.335 337.531 314.341 339.718 315.981C340.866 316.85 342.177 316.866 343.686 316.038C345.924 314.668 348.035 313.098 349.991 311.349C352.46 309.162 355.079 307.151 357.829 305.331C360.091 303.863 362.689 302.994 365.38 302.806C368.112 302.592 370.889 303.543 373.709 305.659C376.103 307.419 377.896 309.876 378.842 312.693C379.815 315.798 379.869 319.118 378.998 322.253C377.874 326.307 375.942 330.092 373.316 333.378C371.328 336.016 369.045 338.418 366.511 340.536C364.189 342.528 361.577 344.154 358.763 345.357L352.95 335.453C357.473 333.519 361.438 330.483 364.486 326.623C366.202 324.36 367.112 322.447 367.216 320.884C367.312 320.221 367.229 319.544 366.975 318.924C366.721 318.305 366.306 317.764 365.773 317.358C364.691 316.538 363.428 316.538 361.961 317.358C359.77 318.721 357.712 320.286 355.812 322.031C353.34 324.229 350.715 326.248 347.957 328.074C345.692 329.521 343.109 330.396 340.431 330.624C337.698 330.87 334.921 329.935 332.101 327.82C329.741 326.074 327.979 323.639 327.059 320.851C326.11 317.73 326.065 314.404 326.928 311.258C328.029 307.208 329.946 303.425 332.56 300.141C334.968 296.954 337.775 294.091 340.915 291.623Z" fill="#A5D936"/>
<path d="M310.073 329.262C314.65 328.572 319.329 329.159 323.593 330.959C327.978 332.836 331.755 335.892 334.506 339.789C337.381 343.606 339.138 348.148 339.58 352.907C340.016 357.514 339.164 362.151 337.121 366.303C334.895 370.724 331.607 374.524 327.553 377.363C324.126 379.942 320.196 381.775 316.017 382.742C312.179 383.605 308.186 383.512 304.392 382.471L306.851 370.468C311.82 371.72 316.192 370.974 319.969 368.23C322.055 366.77 323.725 364.792 324.815 362.491C325.831 360.292 326.187 357.846 325.839 355.448C325.45 352.855 324.413 350.401 322.822 348.315C321.319 346.167 319.301 344.431 316.952 343.265C314.774 342.2 312.332 341.793 309.926 342.093C307.391 342.422 304.985 343.409 302.949 344.954C299.188 347.687 297.147 351.619 296.824 356.752L284.633 355.465C284.795 351.533 285.922 347.701 287.912 344.306C290.109 340.626 293.049 337.446 296.546 334.968C300.511 331.972 305.16 330.011 310.073 329.262Z" fill="#A5D936"/>
<path d="M295.123 395.073L282.005 400.64L262.328 354.137L275.446 348.562L295.123 395.073Z" fill="#A5D936"/>
<path d="M217.548 375.821L215.531 364.974L255.401 357.595L264.609 407.246L225.665 414.469L223.656 403.614L248.695 398.974L247.137 390.603L225.083 394.702L223.131 384.208L245.194 380.109L243.505 371.033L217.548 375.821Z" fill="#A5D936"/>
<path d="M156.93 409.339L163.489 359.261L175.147 360.778L193.775 390.351L197.251 363.664L211.131 365.468L204.572 415.554L192.914 414.029L174.286 384.464L170.802 411.151L156.93 409.339Z" fill="#A5D936"/>
<path d="M146.582 354.269C149.31 358.011 150.948 362.435 151.313 367.051C151.675 371.807 150.707 376.571 148.517 380.808C146.463 385.112 143.256 388.762 139.252 391.352C135.356 393.849 130.843 395.217 126.216 395.304C121.261 395.397 116.361 394.253 111.959 391.975C108.087 390.132 104.648 387.491 101.866 384.227C99.3311 381.219 97.5718 377.636 96.7422 373.79L108.54 370.462C109.721 375.457 112.399 378.988 116.575 381.054C118.848 382.239 121.393 382.805 123.954 382.694C126.371 382.583 128.704 381.771 130.668 380.358C132.782 378.811 134.474 376.759 135.588 374.389C136.794 372.061 137.4 369.468 137.35 366.846C137.29 364.426 136.527 362.076 135.153 360.082C133.701 357.983 131.721 356.304 129.414 355.212C125.233 353.135 120.803 353.135 116.124 355.212L111.639 343.808C115.202 342.138 119.122 341.373 123.052 341.578C127.341 341.821 131.531 342.964 135.35 344.931C139.809 347.067 143.668 350.275 146.582 354.269Z" fill="#A5D936"/>
<path d="M76.5165 313.735L84.1249 305.741L113.493 333.707L78.6563 370.281L49.9609 342.963L57.5693 334.97L76.0164 352.531L81.8866 346.366L65.6368 330.895L73.0156 323.163L89.2654 338.634L95.6358 331.944L76.5165 313.735Z" fill="#A5D936"/>
<path d="M67.9781 280.257C68.577 283.634 68.577 287.089 67.9781 290.465L56.4508 290.309C56.933 287.451 57.0048 284.538 56.664 281.659C56.3594 278.688 55.6162 275.779 54.4585 273.026C52.2722 267.992 49.9329 266.014 47.4405 267.09C46.1123 267.637 45.4345 268.777 45.4072 270.509C45.4875 273.132 45.8057 275.741 46.3582 278.306C47.0268 281.535 47.4706 284.805 47.6864 288.095C47.8355 290.79 47.2996 293.478 46.1287 295.909C44.9481 298.401 42.7453 300.339 39.5205 301.722C36.8013 302.922 33.7796 303.259 30.8626 302.689C27.6872 301.986 24.7813 300.383 22.4918 298.073C19.5235 295.092 17.1965 291.534 15.6541 287.62C14.3488 284.585 13.3969 281.411 12.8174 278.159C12.2425 275.154 12.1291 272.08 12.4812 269.042L23.9594 268.91C23.3911 273.796 24.0563 278.745 25.8943 283.307C26.9874 285.915 28.1899 287.65 29.5017 288.514C30.0316 288.923 30.6603 289.185 31.3241 289.272C31.9879 289.36 32.6632 289.271 33.2813 289.014C34.5193 288.481 35.1506 287.374 35.1588 285.693C35.0644 283.118 34.7295 280.557 34.1585 278.044C33.4746 274.801 33.0226 271.513 32.8058 268.205C32.6726 265.52 33.1989 262.843 34.339 260.408C35.4868 257.908 37.6758 255.957 40.8979 254.579C43.5874 253.396 46.5769 253.072 49.4573 253.653C52.6369 254.377 55.5454 255.989 57.8445 258.301C60.8172 261.264 63.15 264.805 64.6986 268.705C66.2805 272.4 67.3826 276.283 67.9781 280.257Z" fill="#A5D936"/>
<path d="M50.657 234.836C48.9779 239.146 46.1406 242.909 42.4584 245.708C38.6364 248.571 34.0957 250.319 29.3404 250.758C24.6063 251.346 19.8021 250.611 15.4601 248.635C11.2573 246.696 7.67331 243.631 5.10518 239.78C2.35847 235.655 0.684512 230.909 0.235102 225.974C-0.296205 221.719 0.0754114 217.4 1.32559 213.299C2.49155 209.541 4.56384 206.129 7.35982 203.362L16.5177 211.511C12.9431 215.184 11.4099 219.341 11.9182 223.981C12.1471 226.527 13.0374 228.969 14.5008 231.065C15.8985 233.044 17.8412 234.573 20.0924 235.468C22.537 236.419 25.1807 236.743 27.7827 236.411C30.3938 236.179 32.9053 235.297 35.0877 233.844C37.0922 232.484 38.661 230.574 39.6052 228.343C40.5848 225.981 40.9296 223.403 40.6054 220.866C40.1081 216.236 37.7195 212.506 33.4398 209.675L40.6383 199.746C43.9647 201.851 46.7215 204.743 48.6648 208.166C50.7642 211.903 52.0547 216.04 52.4526 220.308C53.0657 225.225 52.4487 230.217 50.657 234.836Z" fill="#A5D936"/>
<path d="M1.03906 189.139L2.73625 174.955L52.8795 180.965L51.1823 195.149L1.03906 189.139Z" fill="#A5D936"/>
<path d="M56.3148 131.347L66.7353 134.988L53.3633 173.267L5.67969 156.608L18.7485 119.213L29.169 122.854L20.7653 146.9L28.8082 149.704L36.187 128.527L46.2714 132.044L38.8926 153.23L47.616 156.271L56.3148 131.347Z" fill="#A5D936"/>
<path d="M57.4518 62.0745L97.6253 92.7212L90.4843 102.068L55.566 103.461L76.9565 119.785L68.4626 130.911L28.2891 100.264L35.4301 90.9174L70.3483 89.5319L48.9415 73.1919L57.4518 62.0745Z" fill="#A5D936"/>
<path d="M110.331 80.5694C105.729 81.0837 101.075 80.3117 96.8856 78.3394C92.5796 76.2935 88.9266 73.0918 86.3338 69.0913C83.5978 65.1705 82.0054 60.5664 81.7344 55.793C81.5037 51.1709 82.5533 46.5748 84.7679 42.5111C87.157 38.1594 90.5953 34.4732 94.7703 31.7872C98.2895 29.3423 102.284 27.6662 106.494 26.868C110.365 26.1539 114.352 26.4016 118.104 27.5895L115.136 39.4858C110.217 38.0374 105.825 38.6113 101.961 41.2075C99.8116 42.5914 98.0619 44.5134 96.8856 46.7826C95.7814 48.9408 95.3286 51.3734 95.582 53.7843C95.8691 56.3911 96.808 58.8836 98.3121 61.032C99.7321 63.2365 101.683 65.0492 103.986 66.3037C106.118 67.4547 108.54 67.959 110.955 67.7549C113.5 67.5219 115.94 66.632 118.038 65.1723C121.908 62.576 124.094 58.7281 124.597 53.6285L136.723 55.3913C136.403 59.3149 135.122 63.0993 132.993 66.4103C130.656 70.0188 127.583 73.0922 123.974 75.4289C119.922 78.2448 115.234 80.0111 110.331 80.5694Z" fill="#A5D936"/>
<path d="M180.298 39.8816L183.446 50.4661L144.584 62.0181L130.188 13.6458L168.156 2.3562L171.304 12.9407L146.888 20.1965L149.348 28.3952L170.853 22.0003L173.903 32.2404L152.39 38.6272L155.021 47.4818L180.298 39.8816Z" fill="#A5D936"/>
</g>
</svg>
