<svg width="1634" height="335" viewBox="0 0 1634 335" fill="none" xmlns="http://www.w3.org/2000/svg">
<path d="M55.4547 350.285L55.324 349.545L54.5759 349.465C49.8257 348.958 45.0448 348.31 40.2332 347.521L38.8417 347.292L39.0865 348.681L42.0327 365.39C36.1484 364.381 30.2201 363.139 24.2478 361.666L21.1665 344.191L21.0537 343.552L20.4233 343.395C15.546 342.181 10.6373 340.801 5.69717 339.254L4.12813 338.763L4.41363 340.382L12.9085 388.559L13.0145 389.16L13.5973 389.34C18.5667 390.88 23.5116 392.271 28.4321 393.511L29.9295 393.889L29.6614 392.368L26.6149 375.091C32.5782 376.536 38.503 377.757 44.3892 378.754L47.5794 396.846L47.7023 397.544L48.401 397.659C53.2451 398.461 58.0642 399.118 62.8584 399.63L64.1804 399.772L63.9495 398.462L55.4547 350.285Z" stroke="#A5D936" stroke-width="2"/>
<path d="M192.843 349.883L189.744 332.31L189.543 331.165L188.441 331.536C184.05 333.012 179.648 334.42 175.236 335.759L174.388 336.016L174.541 336.889L183.037 385.07L183.233 386.181L184.313 385.853C188.743 384.506 193.164 383.092 197.573 381.612L198.389 381.338L198.24 380.491L195.137 362.891C196.673 362.374 198.208 361.849 199.741 361.316C204.216 366.073 208.691 370.793 213.166 375.476L213.62 375.951L214.237 375.723C219.193 373.884 224.14 371.984 229.077 370.025L230.49 369.464L229.416 368.389C223.218 362.181 217.008 355.909 210.785 349.572C214.208 340.206 217.621 330.785 221.023 321.312L221.771 319.226L219.712 320.044C215.12 321.869 210.52 323.637 205.911 325.349L205.467 325.514L205.313 325.961C202.746 333.417 200.184 340.843 197.629 348.242C196.034 348.796 194.439 349.344 192.843 349.883Z" stroke="#A5D936" stroke-width="2"/>
<path d="M246.228 363.026L246.729 362.815L246.824 362.28C247.442 358.827 248.07 355.372 248.708 351.915C254.805 349.308 260.892 346.656 266.969 343.958C268.569 346.307 270.168 348.655 271.766 351.001L272.237 351.693L273.001 351.351C277.52 349.33 282.036 347.296 286.548 345.247L287.675 344.735L286.937 343.741C277.32 330.776 267.694 317.769 258.058 304.718L257.582 304.073L256.849 304.398C252.575 306.29 248.295 308.157 244.01 309.999L243.532 310.205L243.426 310.714C239.466 329.701 235.489 348.598 231.495 367.405L231.105 369.242L232.847 368.54C237.314 366.74 241.774 364.902 246.228 363.026ZM253.641 324.134C255.837 327.39 258.033 330.645 260.228 333.9C257.215 335.23 254.201 336.55 251.186 337.86C252.003 333.289 252.822 328.713 253.641 324.134Z" stroke="#A5D936" stroke-width="2"/>
<path d="M350.8 263.84L350.583 262.609L349.43 263.091C345.063 264.915 340.702 266.768 336.348 268.65L335.622 268.964L335.76 269.742L338.814 287.065C333.509 289.37 328.211 291.702 322.92 294.063L319.951 277.225L319.728 275.961L318.556 276.486C314.217 278.433 309.877 280.39 305.537 282.355L304.831 282.675L304.965 283.44L313.46 331.616L313.684 332.886L314.858 332.353C319.192 330.387 323.529 328.432 327.869 326.488L328.581 326.169L328.445 325.401L325.268 307.381C330.559 305.007 335.857 302.673 341.161 300.377L344.254 317.919L344.474 319.166L345.636 318.663C349.982 316.781 354.335 314.932 358.695 313.114L359.434 312.805L359.295 312.017L350.8 263.84Z" stroke="#A5D936" stroke-width="2"/>
<path d="M377.808 305.42L378.33 305.218L378.431 304.667C379.054 301.263 379.687 297.86 380.331 294.458C386.464 292.122 392.617 289.898 398.791 287.786L403.701 295.257L404.123 295.9L404.853 295.657C409.444 294.127 414.049 292.671 418.669 291.291L419.998 290.894L419.202 289.759C409.405 275.788 399.635 261.975 389.892 248.321L389.457 247.711L388.75 247.957C384.397 249.472 380.054 251.041 375.718 252.666L375.207 252.857L375.092 253.391C371.067 272.027 367.061 290.769 363.076 309.616L362.685 311.466L364.434 310.748C368.882 308.923 373.34 307.147 377.808 305.42ZM382.846 280.667C383.68 276.179 384.513 271.696 385.347 267.218C387.568 270.59 389.789 273.969 392.012 277.356C388.953 278.434 385.897 279.537 382.846 280.667Z" stroke="#A5D936" stroke-width="2"/>
<path d="M462.401 230.837L462.919 229.294L461.308 229.53C456.845 230.182 452.397 230.927 447.964 231.764L447.363 231.877L447.191 232.464C444.88 240.313 442.578 248.216 440.286 256.174C435.61 249.808 430.944 243.491 426.288 237.222L425.887 236.682L425.236 236.85C420.497 238.07 415.772 239.375 411.061 240.767L409.599 241.199L410.577 242.368C418.603 251.961 426.652 261.704 434.725 271.595C434.267 272.575 433.639 273.467 432.867 274.23C432.053 274.978 431.063 275.51 429.99 275.778C428.478 276.127 426.925 276.269 425.375 276.201L424.457 276.16L424.339 277.072C423.87 280.713 423.403 284.36 422.935 288.011L422.808 289.005L423.803 289.13C426.834 289.511 429.909 289.335 432.876 288.609L432.884 288.607L432.891 288.605C436.647 287.627 440.05 285.609 442.71 282.784C445.494 279.891 447.589 276.154 449.021 271.611C453.449 257.82 457.909 244.229 462.401 230.837Z" stroke="#A5D936" stroke-width="2"/>
<path d="M490.454 276.336L487.393 258.977C488.951 258.858 490.51 258.757 492.072 258.672C496.774 264.483 501.489 270.374 506.217 276.344L506.522 276.73L507.015 276.723C512.254 276.652 517.524 276.744 522.825 277L525.014 277.105L523.659 275.383C517.055 266.985 510.477 258.744 503.925 250.66C507.633 243.046 511.365 235.581 515.123 228.263L515.833 226.881L514.28 226.808C509.302 226.573 504.347 226.479 499.415 226.526L498.778 226.533L498.514 227.112C495.74 233.212 492.991 239.392 490.267 245.653C488.542 245.75 486.821 245.861 485.103 245.987L481.959 228.16L481.802 227.266L480.897 227.336C476.283 227.697 471.69 228.165 467.117 228.742L466.075 228.874L466.257 229.908L474.752 278.085L474.918 279.023L475.862 278.904C480.406 278.33 484.968 277.864 489.547 277.507L490.646 277.421L490.454 276.336Z" stroke="#A5D936" stroke-width="2"/>
<path d="M541.406 278.576L542.273 278.683L542.495 277.839C543.198 275.172 543.903 272.513 544.608 269.862C551.328 270.817 558.1 272.072 564.925 273.627C566.76 276.929 568.596 280.241 570.432 283.562L570.643 283.945L571.067 284.049C576.143 285.302 581.248 286.731 586.385 288.337L588.819 289.098L587.551 286.885C576.959 268.405 566.435 250.316 555.978 232.618L555.755 232.241L555.326 232.149C550.517 231.123 545.731 230.239 540.968 229.497L540.118 229.365L539.86 230.186C535.178 245.1 530.555 260.35 525.989 275.934L525.638 277.133L526.885 277.213C531.697 277.523 536.537 277.978 541.406 278.576ZM547.578 258.514C548.554 254.876 549.533 251.255 550.515 247.652C552.872 251.861 555.231 256.089 557.593 260.336C554.243 259.657 550.905 259.05 547.578 258.514Z" stroke="#A5D936" stroke-width="2"/>
<path d="M362.394 329.588L362.177 328.358L361.024 328.839C356.657 330.663 352.296 332.516 347.941 334.399L347.216 334.712L347.353 335.49L350.408 352.814C345.103 355.118 339.805 357.451 334.513 359.811L331.544 342.973L331.321 341.709L330.15 342.234C325.81 344.182 321.471 346.138 317.131 348.103L316.424 348.424L316.559 349.188L325.054 397.365L325.278 398.634L326.452 398.102C330.786 396.135 335.123 394.18 339.463 392.236L340.175 391.917L340.039 391.15L336.862 373.129C342.153 370.756 347.451 368.421 352.755 366.126L355.848 383.667L356.068 384.914L357.23 384.411C361.576 382.53 365.929 380.68 370.289 378.862L371.028 378.554L370.889 377.765L362.394 329.588Z" stroke="#A5D936" stroke-width="2"/>
<path d="M389.402 371.169L389.924 370.967L390.025 370.416C390.647 367.011 391.281 363.608 391.925 360.207C398.058 357.87 404.211 355.646 410.385 353.534L415.295 361.006L415.717 361.649L416.447 361.405C421.038 359.875 425.643 358.42 430.263 357.039L431.591 356.642L430.795 355.507C420.999 341.536 411.229 327.724 401.486 314.069L401.051 313.46L400.343 313.706C395.991 315.22 391.647 316.79 387.312 318.414L386.801 318.606L386.686 319.14C382.66 337.776 378.655 356.517 374.67 375.365L374.278 377.214L376.028 376.497C380.476 374.671 384.934 372.895 389.402 371.169ZM394.44 346.416C395.273 341.927 396.107 337.444 396.941 332.967C399.161 336.339 401.383 339.718 403.605 343.105C400.546 344.182 397.491 345.286 394.44 346.416Z" stroke="#A5D936" stroke-width="2"/>
<path d="M473.995 296.585L474.513 295.042L472.902 295.278C468.439 295.93 463.991 296.675 459.558 297.512L458.957 297.626L458.784 298.212C456.473 306.061 454.172 313.964 451.88 321.922C447.204 315.556 442.538 309.239 437.882 302.97L437.481 302.431L436.83 302.598C432.091 303.818 427.366 305.124 422.654 306.515L421.193 306.947L422.171 308.116C430.196 317.71 438.246 327.452 446.319 337.343C445.861 338.323 445.232 339.215 444.461 339.978C443.646 340.726 442.657 341.259 441.583 341.527C440.071 341.875 438.519 342.017 436.969 341.949L436.05 341.909L435.933 342.82C435.464 346.462 434.996 350.108 434.529 353.759L434.402 354.753L435.396 354.878C438.427 355.259 441.503 355.083 444.47 354.357L444.477 354.356L444.485 354.354C448.24 353.375 451.644 351.358 454.304 348.532C457.088 345.639 459.183 341.902 460.615 337.359C465.042 323.569 469.502 309.977 473.995 296.585Z" stroke="#A5D936" stroke-width="2"/>
<path d="M502.048 342.085L498.987 324.725C500.544 324.607 502.104 324.505 503.666 324.421C508.368 330.232 513.083 336.122 517.811 342.092L518.116 342.478L518.608 342.471C523.848 342.4 529.118 342.492 534.418 342.748L536.607 342.854L535.253 341.131C528.648 332.733 522.071 324.493 515.519 316.408C519.227 308.794 522.959 301.329 526.716 294.012L527.426 292.629L525.874 292.556C520.896 292.321 515.94 292.228 511.008 292.275L510.372 292.281L510.108 292.861C507.333 298.96 504.584 305.14 501.861 311.402C500.136 311.498 498.415 311.609 496.697 311.736L493.553 293.908L493.396 293.014L492.49 293.085C487.877 293.445 483.284 293.914 478.711 294.491L477.669 294.622L477.851 295.657L486.346 343.833L486.511 344.771L487.456 344.652C492 344.078 496.562 343.613 501.141 343.255L502.239 343.17L502.048 342.085Z" stroke="#A5D936" stroke-width="2"/>
<path d="M553 344.325L553.867 344.431L554.089 343.587C554.792 340.92 555.496 338.261 556.202 335.611C562.921 336.566 569.693 337.82 576.519 339.375C578.354 342.678 580.189 345.989 582.026 349.311L582.237 349.693L582.661 349.798C587.736 351.05 592.842 352.48 597.979 354.086L600.413 354.847L599.145 352.634C588.553 334.154 578.029 316.065 567.572 298.367L567.349 297.989L566.92 297.898C562.111 296.872 557.325 295.988 552.562 295.246L551.711 295.113L551.454 295.934C546.772 310.849 542.149 326.098 537.583 341.683L537.232 342.882L538.479 342.962C543.291 343.272 548.131 343.726 553 344.325ZM559.172 324.263C560.148 320.624 561.127 317.003 562.109 313.4C564.466 317.609 566.825 321.837 569.187 326.085C565.837 325.406 562.499 324.798 559.172 324.263Z" stroke="#A5D936" stroke-width="2"/>
<path d="M652.867 244.945L652.736 244.204L651.988 244.125C647.238 243.618 642.457 242.97 637.645 242.181L636.254 241.952L636.499 243.341L639.445 260.05C633.561 259.04 627.632 257.799 621.66 256.326L618.579 238.851L618.466 238.212L617.835 238.055C612.958 236.841 608.049 235.46 603.109 233.914L601.54 233.423L601.826 235.042L610.321 283.219L610.427 283.82L611.009 284C615.979 285.54 620.924 286.931 625.844 288.171L627.342 288.549L627.073 287.028L624.027 269.75C629.99 271.196 635.915 272.417 641.801 273.414L644.991 291.506L645.114 292.204L645.813 292.319C650.657 293.121 655.476 293.778 660.271 294.29L661.592 294.431L661.362 293.122L652.867 244.945Z" stroke="#A5D936" stroke-width="2"/>
<path d="M681.084 295.662L681.892 295.682L682.081 294.897C682.765 292.066 683.457 289.225 684.157 286.374C690.721 286.412 697.245 286.218 703.73 285.791C705.454 288.651 707.185 291.502 708.922 294.344L709.243 294.869L709.857 294.819C714.677 294.422 719.476 293.907 724.252 293.273L725.837 293.062L724.955 291.729C714.962 276.631 704.92 261.256 694.827 245.606L694.512 245.117L693.932 245.149C689.382 245.399 684.81 245.537 680.217 245.562L679.461 245.566L679.259 246.294C674.791 262.389 670.265 278.159 665.68 293.604L665.33 294.785L666.558 294.886C671.423 295.283 676.265 295.541 681.084 295.662ZM686.987 274.317C687.921 270.374 688.853 266.415 689.781 262.44C692.097 266.323 694.409 270.191 696.718 274.044C693.485 274.192 690.242 274.283 686.987 274.317Z" stroke="#A5D936" stroke-width="2"/>
<path d="M768.253 233.334L768.788 231.57L767.017 232.084C762.687 233.34 758.343 234.518 753.988 235.619L753.427 235.761L753.271 236.317C750.997 244.38 748.715 252.388 746.425 260.342C741.745 253.945 737.056 247.493 732.36 240.988L731.989 240.475L731.367 240.59C726.596 241.473 721.804 242.247 716.992 242.912L715.276 243.15L716.34 244.517C724.537 255.048 732.7 265.403 740.83 275.584C740.376 276.515 739.751 277.353 738.984 278.054C738.16 278.741 737.167 279.193 736.108 279.364C734.559 279.591 732.986 279.59 731.438 279.361L730.441 279.214L730.302 280.212C729.81 283.736 729.318 287.255 728.827 290.768L728.699 291.684L729.602 291.883C732.95 292.622 736.04 292.759 738.856 292.263L738.858 292.262C742.664 291.582 746.156 289.714 748.834 286.927C751.631 284.076 753.727 280.329 755.152 275.731C759.547 261.781 763.914 247.649 768.253 233.334Z" stroke="#A5D936" stroke-width="2"/>
<path d="M790.255 244.543L787.156 226.97L786.955 225.825L785.853 226.196C781.462 227.672 777.06 229.08 772.648 230.419L771.8 230.676L771.954 231.549L780.449 279.73L780.645 280.841L781.725 280.513C786.156 279.166 790.576 277.752 794.985 276.272L795.801 275.998L795.652 275.151L792.549 257.551C794.086 257.034 795.62 256.509 797.153 255.976C801.628 260.733 806.103 265.453 810.578 270.136L811.032 270.611L811.649 270.382C816.605 268.543 821.552 266.644 826.489 264.685L827.902 264.124L826.828 263.049C820.63 256.841 814.42 250.569 808.197 244.232C811.62 234.866 815.033 225.445 818.435 215.971L819.184 213.886L817.124 214.704C812.532 216.529 807.932 218.297 803.323 220.009L802.879 220.174L802.725 220.621C800.158 228.076 797.596 235.503 795.041 242.901C793.446 243.456 791.851 244.003 790.255 244.543Z" stroke="#A5D936" stroke-width="2"/>
<path d="M843.64 257.686L844.141 257.475L844.236 256.94C844.854 253.487 845.482 250.032 846.12 246.575C852.217 243.968 858.304 241.316 864.381 238.618C865.981 240.967 867.58 243.315 869.178 245.662L869.649 246.353L870.413 246.012C874.932 243.991 879.448 241.956 883.96 239.907L885.087 239.395L884.349 238.401C874.732 225.436 865.106 212.429 855.471 199.378L854.994 198.733L854.261 199.058C849.987 200.95 845.707 202.817 841.422 204.659L840.944 204.865L840.838 205.374C836.878 224.361 832.901 243.258 828.907 262.065L828.517 263.902L830.259 263.2C834.726 261.4 839.187 259.562 843.64 257.686ZM851.053 218.794C853.249 222.05 855.445 225.306 857.64 228.56C854.627 229.89 851.613 231.21 848.598 232.52C849.416 227.949 850.234 223.374 851.053 218.794Z" stroke="#A5D936" stroke-width="2"/>
<path d="M948.212 158.5L947.995 157.27L946.842 157.751C942.475 159.575 938.114 161.428 933.76 163.31L933.034 163.624L933.172 164.402L936.226 181.725C930.921 184.03 925.623 186.362 920.332 188.723L917.363 171.885L917.14 170.621L915.969 171.146C911.629 173.093 907.289 175.05 902.95 177.015L902.243 177.335L902.377 178.1L910.872 226.277L911.096 227.546L912.27 227.014C916.604 225.047 920.941 223.092 925.282 221.148L925.993 220.829L925.858 220.062L922.68 202.041C927.971 199.668 933.269 197.333 938.574 195.037L941.667 212.579L941.886 213.826L943.049 213.323C947.395 211.442 951.748 209.592 956.107 207.774L956.846 207.466L956.707 206.677L948.212 158.5Z" stroke="#A5D936" stroke-width="2"/>
<path d="M975.22 200.08L975.742 199.878L975.843 199.327C976.466 195.923 977.099 192.52 977.743 189.118C983.876 186.782 990.029 184.558 996.204 182.446L1001.11 189.918L1001.54 190.56L1002.27 190.317C1006.86 188.787 1011.46 187.332 1016.08 185.951L1017.41 185.554L1016.61 184.419C1006.82 170.448 997.048 156.636 987.304 142.981L986.869 142.371L986.162 142.617C981.81 144.132 977.466 145.701 973.13 147.326L972.619 147.518L972.504 148.051C968.479 166.687 964.473 185.429 960.488 204.276L960.097 206.126L961.846 205.408C966.294 203.583 970.752 201.807 975.22 200.08ZM980.258 175.327C981.092 170.839 981.926 166.356 982.76 161.879C984.98 165.25 987.201 168.63 989.424 172.016C986.365 173.094 983.31 174.198 980.258 175.327Z" stroke="#A5D936" stroke-width="2"/>
<path d="M1059.81 125.497L1060.33 123.954L1058.72 124.189C1054.26 124.842 1049.81 125.587 1045.38 126.424L1044.78 126.537L1044.6 127.124C1042.29 134.973 1039.99 142.876 1037.7 150.834C1033.02 144.468 1028.36 138.151 1023.7 131.882L1023.3 131.342L1022.65 131.51C1017.91 132.73 1013.18 134.035 1008.47 135.427L1007.01 135.858L1007.99 137.027C1016.01 146.621 1024.06 156.364 1032.14 166.255C1031.68 167.234 1031.05 168.127 1030.28 168.89C1029.46 169.638 1028.48 170.17 1027.4 170.438C1025.89 170.787 1024.34 170.929 1022.79 170.861L1021.87 170.82L1021.75 171.732C1021.28 175.373 1020.81 179.02 1020.35 182.671L1020.22 183.665L1021.21 183.79C1024.25 184.171 1027.32 183.994 1030.29 183.269L1030.3 183.267L1030.3 183.265C1034.06 182.287 1037.46 180.269 1040.12 177.443C1042.91 174.551 1045 170.813 1046.43 166.271C1050.86 152.48 1055.32 138.889 1059.81 125.497Z" stroke="#A5D936" stroke-width="2"/>
<path d="M1087.87 170.996L1084.81 153.637C1086.36 153.518 1087.92 153.417 1089.48 153.332C1094.19 159.143 1098.9 165.034 1103.63 171.004L1103.93 171.39L1104.43 171.383C1109.67 171.312 1114.94 171.404 1120.24 171.66L1122.43 171.765L1121.07 170.043C1114.47 161.645 1107.89 153.404 1101.34 145.32C1105.05 137.706 1108.78 130.24 1112.53 122.923L1113.24 121.541L1111.69 121.467C1106.71 121.233 1101.76 121.139 1096.83 121.186L1096.19 121.192L1095.93 121.772C1093.15 127.872 1090.4 134.052 1087.68 140.313C1085.95 140.41 1084.23 140.521 1082.52 140.647L1079.37 122.82L1079.21 121.926L1078.31 121.996C1073.7 122.357 1069.1 122.825 1064.53 123.402L1063.49 123.534L1063.67 124.568L1072.16 172.745L1072.33 173.683L1073.27 173.563C1077.82 172.99 1082.38 172.524 1086.96 172.167L1088.06 172.081L1087.87 170.996Z" stroke="#A5D936" stroke-width="2"/>
<path d="M1138.82 173.236L1139.68 173.343L1139.91 172.499C1140.61 169.832 1141.31 167.173 1142.02 164.523C1148.74 165.477 1155.51 166.732 1162.34 168.287C1164.17 171.589 1166.01 174.901 1167.84 178.222L1168.06 178.605L1168.48 178.71C1173.55 179.962 1178.66 181.391 1183.8 182.997L1186.23 183.758L1184.96 181.545C1174.37 163.065 1163.85 144.976 1153.39 127.278L1153.17 126.901L1152.74 126.809C1147.93 125.783 1143.14 124.899 1138.38 124.157L1137.53 124.025L1137.27 124.846C1132.59 139.76 1127.97 155.01 1123.4 170.594L1123.05 171.793L1124.3 171.873C1129.11 172.184 1133.95 172.638 1138.82 173.236ZM1144.99 153.174C1145.97 149.536 1146.95 145.915 1147.93 142.312C1150.28 146.521 1152.64 150.749 1155.01 154.996C1151.66 154.317 1148.32 153.71 1144.99 153.174Z" stroke="#A5D936" stroke-width="2"/>
<path d="M664.461 310.694L664.33 309.953L663.582 309.873C658.832 309.366 654.051 308.718 649.239 307.929L647.848 307.701L648.092 309.09L651.039 325.798C645.154 324.789 639.226 323.548 633.254 322.075L630.172 304.6L630.06 303.96L629.429 303.803C624.552 302.589 619.643 301.209 614.703 299.663L613.134 299.171L613.419 300.791L621.914 348.967L622.02 349.568L622.603 349.749C627.573 351.289 632.517 352.679 637.438 353.92L638.935 354.298L638.667 352.777L635.621 335.499C641.584 336.944 647.509 338.165 653.395 339.163L656.585 357.255L656.708 357.952L657.407 358.068C662.251 358.869 667.07 359.526 671.864 360.039L673.186 360.18L672.955 358.871L664.461 310.694Z" stroke="#A5D936" stroke-width="2"/>
<path d="M692.678 361.41L693.485 361.43L693.675 360.645C694.359 357.815 695.051 354.974 695.75 352.123C702.314 352.161 708.839 351.966 715.324 351.539C717.048 354.399 718.778 357.25 720.515 360.092L720.837 360.618L721.451 360.567C726.271 360.171 731.07 359.655 735.846 359.021L737.431 358.811L736.548 357.478C726.556 342.379 716.514 327.005 706.421 311.354L706.106 310.866L705.526 310.898C700.975 311.148 696.404 311.285 691.811 311.31L691.055 311.314L690.852 312.043C686.385 328.138 681.859 343.908 677.274 359.353L676.923 360.534L678.151 360.634C683.016 361.031 687.859 361.29 692.678 361.41ZM698.581 340.066C699.515 336.122 700.446 332.163 701.375 328.189C703.691 332.071 706.003 335.939 708.312 339.793C705.079 339.94 701.835 340.032 698.581 340.066Z" stroke="#A5D936" stroke-width="2"/>
<path d="M779.847 299.083L780.381 297.319L778.611 297.832C774.28 299.088 769.937 300.267 765.582 301.367L765.021 301.509L764.864 302.066C762.591 310.129 760.309 318.137 758.018 326.091C753.339 319.693 748.65 313.242 743.953 306.736L743.583 306.223L742.961 306.338C738.19 307.221 733.398 307.996 728.586 308.661L726.87 308.898L727.934 310.266C736.131 320.796 744.294 331.152 752.424 341.333C751.97 342.263 751.344 343.101 750.578 343.802C749.754 344.489 748.761 344.942 747.702 345.113C746.153 345.339 744.58 345.338 743.032 345.11L742.035 344.962L741.896 345.961C741.404 349.485 740.912 353.004 740.421 356.517L740.293 357.433L741.196 357.632C744.544 358.37 747.633 358.508 750.45 358.011L750.452 358.011C754.257 357.33 757.749 355.463 760.428 352.676C763.225 349.824 765.321 346.077 766.745 341.48C771.141 327.53 775.508 313.398 779.847 299.083Z" stroke="#A5D936" stroke-width="2"/>
<path d="M801.849 310.292L798.75 292.719L798.548 291.574L797.447 291.944C793.056 293.421 788.654 294.828 784.242 296.167L783.393 296.425L783.547 297.298L792.043 345.478L792.239 346.59L793.319 346.262C797.749 344.915 802.169 343.501 806.579 342.021L807.395 341.747L807.246 340.899L804.142 323.299C805.679 322.782 807.214 322.257 808.746 321.724C813.222 326.481 817.697 331.201 822.172 335.884L822.626 336.36L823.242 336.131C828.199 334.292 833.146 332.393 838.083 330.433L839.496 329.873L838.422 328.797C832.224 322.589 826.014 316.317 819.791 309.981C823.214 300.614 826.627 291.194 830.028 281.72L830.777 279.635L828.718 280.453C824.126 282.277 819.526 284.045 814.916 285.757L814.473 285.922L814.319 286.369C811.752 293.825 809.19 301.252 806.635 308.65C805.04 309.205 803.445 309.752 801.849 310.292Z" stroke="#A5D936" stroke-width="2"/>
<path d="M855.234 323.434L855.734 323.224L855.83 322.689C856.447 319.236 857.075 315.781 857.714 312.324C863.811 309.717 869.898 307.064 875.975 304.367C877.575 306.715 879.174 309.063 880.772 311.41L881.243 312.102L882.007 311.76C886.526 309.739 891.042 307.704 895.554 305.656L896.681 305.144L895.943 304.149C886.326 291.185 876.7 278.177 867.064 265.127L866.588 264.482L865.855 264.806C861.581 266.699 857.301 268.566 853.016 270.408L852.538 270.613L852.432 271.123C848.472 290.11 844.495 309.007 840.501 327.813L840.111 329.65L841.853 328.949C846.32 327.149 850.78 325.311 855.234 323.434ZM862.647 284.543C864.843 287.799 867.039 291.054 869.233 294.309C866.221 295.639 863.207 296.959 860.192 298.269C861.009 293.697 861.827 289.122 862.647 284.543Z" stroke="#A5D936" stroke-width="2"/>
<path d="M959.806 224.249L959.589 223.018L958.436 223.5C954.069 225.324 949.708 227.177 945.353 229.059L944.628 229.372L944.765 230.151L947.82 247.474C942.515 249.778 937.217 252.111 931.926 254.472L928.956 237.633L928.734 236.369L927.562 236.895C923.222 238.842 918.883 240.798 914.543 242.764L913.836 243.084L913.971 243.848L922.466 292.025L922.69 293.295L923.864 292.762C928.198 290.796 932.535 288.84 936.875 286.896L937.587 286.578L937.451 285.81L934.274 267.789C939.565 265.416 944.863 263.082 950.167 260.786L953.26 278.327L953.48 279.574L954.642 279.071C958.988 277.19 963.341 275.34 967.701 273.522L968.44 273.214L968.301 272.426L959.806 224.249Z" stroke="#A5D936" stroke-width="2"/>
<path d="M986.814 265.829L987.336 265.627L987.437 265.076C988.059 261.671 988.693 258.268 989.337 254.867C995.47 252.53 1001.62 250.306 1007.8 248.195L1012.71 255.666L1013.13 256.309L1013.86 256.066C1018.45 254.536 1023.06 253.08 1027.68 251.7L1029 251.303L1028.21 250.167C1018.41 236.197 1008.64 222.384 998.898 208.73L998.463 208.12L997.755 208.366C993.403 209.88 989.06 211.45 984.724 213.074L984.213 213.266L984.098 213.8C980.072 232.436 976.067 251.178 972.082 270.025L971.691 271.875L973.44 271.157C977.888 269.331 982.346 267.555 986.814 265.829ZM991.852 241.076C992.686 236.588 993.519 232.105 994.353 227.627C996.573 230.999 998.795 234.378 1001.02 237.765C997.958 238.842 994.903 239.946 991.852 241.076Z" stroke="#A5D936" stroke-width="2"/>
<path d="M1071.41 191.245L1071.92 189.702L1070.31 189.938C1065.85 190.591 1061.4 191.335 1056.97 192.172L1056.37 192.286L1056.2 192.872C1053.89 200.721 1051.58 208.625 1049.29 216.582C1044.62 210.217 1039.95 203.899 1035.29 197.63L1034.89 197.091L1034.24 197.258C1029.5 198.478 1024.78 199.784 1020.07 201.175L1018.6 201.607L1019.58 202.776C1027.61 212.37 1035.66 222.112 1043.73 232.003C1043.27 232.983 1042.64 233.875 1041.87 234.638C1041.06 235.386 1040.07 235.919 1039 236.187C1037.48 236.535 1035.93 236.677 1034.38 236.609L1033.46 236.569L1033.35 237.481C1032.88 241.122 1032.41 244.768 1031.94 248.419L1031.81 249.413L1032.81 249.538C1035.84 249.92 1038.91 249.743 1041.88 249.018L1041.89 249.016L1041.9 249.014C1045.65 248.036 1049.06 246.018 1051.72 243.192C1054.5 240.299 1056.59 236.562 1058.03 232.019C1062.45 218.229 1066.91 204.638 1071.41 191.245Z" stroke="#A5D936" stroke-width="2"/>
<path d="M1099.46 236.745L1096.4 219.385C1097.96 219.267 1099.52 219.165 1101.08 219.081C1105.78 224.892 1110.5 230.782 1115.22 236.752L1115.53 237.138L1116.02 237.132C1121.26 237.06 1126.53 237.153 1131.83 237.408L1134.02 237.514L1132.66 235.791C1126.06 227.394 1119.48 219.153 1112.93 211.068C1116.64 203.455 1120.37 195.989 1124.13 188.672L1124.84 187.289L1123.29 187.216C1118.31 186.981 1113.35 186.888 1108.42 186.935L1107.78 186.941L1107.52 187.521C1104.75 193.62 1102 199.801 1099.27 206.062C1097.55 206.158 1095.83 206.269 1094.11 206.396L1090.97 188.568L1090.81 187.674L1089.9 187.745C1085.29 188.105 1080.7 188.574 1076.12 189.151L1075.08 189.282L1075.26 190.317L1083.76 238.493L1083.92 239.431L1084.87 239.312C1089.41 238.738 1093.97 238.273 1098.55 237.916L1099.65 237.83L1099.46 236.745Z" stroke="#A5D936" stroke-width="2"/>
<path d="M1150.41 238.985L1151.28 239.091L1151.5 238.247C1152.2 235.58 1152.91 232.922 1153.61 230.271C1160.33 231.226 1167.11 232.48 1173.93 234.036C1175.77 237.338 1177.6 240.65 1179.44 243.971L1179.65 244.353L1180.07 244.458C1185.15 245.71 1190.25 247.14 1195.39 248.746L1197.83 249.507L1196.56 247.294C1185.97 228.814 1175.44 210.725 1164.98 193.027L1164.76 192.649L1164.33 192.558C1159.52 191.532 1154.74 190.648 1149.97 189.906L1149.12 189.773L1148.87 190.594C1144.18 205.509 1139.56 220.758 1135 236.343L1134.64 237.542L1135.89 237.622C1140.7 237.932 1145.54 238.386 1150.41 238.985ZM1156.58 218.923C1157.56 215.284 1158.54 211.664 1159.52 208.061C1161.88 212.269 1164.24 216.498 1166.6 220.745C1163.25 220.066 1159.91 219.458 1156.58 218.923Z" stroke="#A5D936" stroke-width="2"/>
<path d="M866.826 389.183L867.326 388.972L867.422 388.437C868.039 384.984 868.667 381.529 869.305 378.072C875.403 375.465 881.49 372.813 887.567 370.115C889.167 372.464 890.766 374.812 892.364 377.159L892.835 377.85L893.599 377.509C898.118 375.488 902.633 373.453 907.145 371.404L908.273 370.892L907.535 369.898C897.918 356.933 888.291 343.926 878.656 330.875L878.18 330.23L877.447 330.555C873.173 332.447 868.893 334.315 864.608 336.157L864.13 336.362L864.023 336.871C860.064 355.858 856.087 374.755 852.093 393.562L851.702 395.399L853.444 394.697C857.912 392.897 862.372 391.059 866.826 389.183ZM874.238 350.291C876.435 353.547 878.63 356.803 880.825 360.057C877.812 361.387 874.799 362.707 871.784 364.017C872.601 359.446 873.419 354.871 874.238 350.291Z" stroke="#A5D936" stroke-width="2"/>
<path d="M971.398 289.997L971.181 288.767L970.028 289.248C965.66 291.072 961.3 292.925 956.945 294.808L956.22 295.121L956.357 295.899L959.412 313.222C954.107 315.527 948.808 317.859 943.517 320.22L940.548 303.382L940.325 302.118L939.154 302.643C934.814 304.59 930.475 306.547 926.135 308.512L925.428 308.833L925.563 309.597L934.058 357.774L934.282 359.043L935.456 358.511C939.79 356.544 944.127 354.589 948.467 352.645L949.178 352.326L949.043 351.559L945.866 333.538C951.157 331.165 956.454 328.83 961.759 326.534L964.852 344.076L965.072 345.323L966.234 344.82C970.58 342.939 974.933 341.089 979.293 339.271L980.032 338.963L979.893 338.174L971.398 289.997Z" stroke="#A5D936" stroke-width="2"/>
<path d="M998.406 331.577L998.928 331.375L999.029 330.824C999.651 327.42 1000.28 324.017 1000.93 320.615C1007.06 318.279 1013.21 316.055 1019.39 313.943L1024.3 321.415L1024.72 322.057L1025.45 321.814C1030.04 320.284 1034.65 318.829 1039.27 317.448L1040.6 317.051L1039.8 315.916C1030 301.945 1020.23 288.133 1010.49 274.478L1010.05 273.868L1009.35 274.114C1005 275.629 1000.65 277.198 996.316 278.823L995.805 279.015L995.689 279.548C991.664 298.184 987.659 316.926 983.673 335.773L983.282 337.623L985.031 336.905C989.48 335.08 993.938 333.304 998.406 331.577ZM1003.44 306.824C1004.28 302.336 1005.11 297.853 1005.95 293.376C1008.17 296.747 1010.39 300.127 1012.61 303.513C1009.55 304.591 1006.5 305.695 1003.44 306.824Z" stroke="#A5D936" stroke-width="2"/>
<path d="M1083 256.994L1083.52 255.451L1081.91 255.687C1077.44 256.339 1073 257.084 1068.56 257.921L1067.96 258.034L1067.79 258.621C1065.48 266.47 1063.18 274.373 1060.88 282.331C1056.21 275.965 1051.54 269.648 1046.89 263.379L1046.48 262.839L1045.83 263.007C1041.09 264.227 1036.37 265.532 1031.66 266.924L1030.2 267.356L1031.17 268.525C1039.2 278.118 1047.25 287.861 1055.32 297.752C1054.86 298.732 1054.24 299.624 1053.47 300.387C1052.65 301.135 1051.66 301.667 1050.59 301.935C1049.08 302.284 1047.52 302.426 1045.97 302.358L1045.05 302.317L1044.94 303.229C1044.47 306.87 1044 310.517 1043.53 314.168L1043.41 315.162L1044.4 315.287C1047.43 315.668 1050.51 315.491 1053.47 314.766L1053.48 314.764L1053.49 314.762C1057.24 313.784 1060.65 311.766 1063.31 308.941C1066.09 306.048 1068.19 302.311 1069.62 297.768C1074.05 283.977 1078.51 270.386 1083 256.994Z" stroke="#A5D936" stroke-width="2"/>
<path d="M1111.05 302.493L1107.99 285.134C1109.55 285.015 1111.11 284.914 1112.67 284.829C1117.37 290.64 1122.09 296.531 1126.81 302.501L1127.12 302.887L1127.61 302.88C1132.85 302.809 1138.12 302.901 1143.42 303.157L1145.61 303.262L1144.26 301.54C1137.65 293.142 1131.07 284.901 1124.52 276.817C1128.23 269.203 1131.96 261.738 1135.72 254.42L1136.43 253.038L1134.88 252.965C1129.9 252.73 1124.94 252.636 1120.01 252.683L1119.38 252.689L1119.11 253.269C1116.34 259.369 1113.59 265.549 1110.86 271.81C1109.14 271.907 1107.42 272.018 1105.7 272.144L1102.56 254.317L1102.4 253.423L1101.49 253.493C1096.88 253.854 1092.29 254.322 1087.71 254.899L1086.67 255.031L1086.86 256.065L1095.35 304.242L1095.52 305.18L1096.46 305.061C1101 304.487 1105.57 304.021 1110.14 303.664L1111.24 303.578L1111.05 302.493Z" stroke="#A5D936" stroke-width="2"/>
<path d="M1162 304.733L1162.87 304.84L1163.09 303.996C1163.8 301.329 1164.5 298.67 1165.21 296.02C1171.93 296.974 1178.7 298.229 1185.52 299.784C1187.36 303.086 1189.19 306.398 1191.03 309.72L1191.24 310.102L1191.67 310.207C1196.74 311.459 1201.85 312.888 1206.98 314.494L1209.42 315.255L1208.15 313.043C1197.56 294.563 1187.03 276.473 1176.58 258.776L1176.35 258.398L1175.92 258.306C1171.11 257.28 1166.33 256.396 1161.57 255.654L1160.72 255.522L1160.46 256.343C1155.78 271.258 1151.15 286.507 1146.59 302.091L1146.24 303.29L1147.48 303.371C1152.29 303.681 1157.13 304.135 1162 304.733ZM1168.18 284.671C1169.15 281.033 1170.13 277.412 1171.11 273.809C1173.47 278.018 1175.83 282.246 1178.19 286.493C1174.84 285.814 1171.5 285.207 1168.18 284.671Z" stroke="#A5D936" stroke-width="2"/>
<path d="M1250.28 139.605L1250.15 138.864L1249.4 138.785C1244.65 138.278 1239.87 137.63 1235.06 136.841L1233.67 136.612L1233.91 138.001L1236.86 154.71C1230.97 153.7 1225.04 152.459 1219.07 150.986L1215.99 133.511L1215.88 132.871L1215.25 132.715C1210.37 131.501 1205.46 130.12 1200.52 128.574L1198.95 128.083L1199.24 129.702L1207.73 177.879L1207.84 178.48L1208.42 178.66C1213.39 180.2 1218.34 181.591 1223.26 182.831L1224.75 183.209L1224.49 181.688L1221.44 164.41C1227.4 165.855 1233.33 167.077 1239.21 168.074L1242.4 186.166L1242.53 186.864L1243.23 186.979C1248.07 187.781 1252.89 188.437 1257.68 188.95L1259 189.091L1258.77 187.782L1250.28 139.605Z" stroke="#A5D936" stroke-width="2"/>
<path d="M1278.5 190.322L1279.3 190.342L1279.49 189.557C1280.18 186.726 1280.87 183.885 1281.57 181.034C1288.13 181.073 1294.66 180.878 1301.14 180.451C1302.87 183.311 1304.6 186.162 1306.33 189.004L1306.66 189.529L1307.27 189.479C1312.09 189.082 1316.89 188.567 1321.66 187.933L1323.25 187.722L1322.37 186.39C1312.37 171.291 1302.33 155.917 1292.24 140.266L1291.92 139.777L1291.34 139.809C1286.79 140.06 1282.22 140.197 1277.63 140.222L1276.87 140.226L1276.67 140.954C1272.2 157.049 1267.68 172.819 1263.09 188.265L1262.74 189.446L1263.97 189.546C1268.83 189.943 1273.68 190.201 1278.5 190.322ZM1284.4 168.978C1285.33 165.034 1286.26 161.075 1287.19 157.1C1289.51 160.983 1291.82 164.851 1294.13 168.704C1290.9 168.852 1287.65 168.943 1284.4 168.978Z" stroke="#A5D936" stroke-width="2"/>
<path d="M1365.67 127.994L1366.2 126.23L1364.43 126.744C1360.1 128 1355.76 129.178 1351.4 130.279L1350.84 130.421L1350.68 130.977C1348.41 139.04 1346.13 147.048 1343.84 155.002C1339.16 148.605 1334.47 142.153 1329.77 135.648L1329.4 135.134L1328.78 135.25C1324.01 136.133 1319.22 136.907 1314.4 137.572L1312.69 137.809L1313.75 139.177C1321.95 149.708 1330.11 160.063 1338.24 170.244C1337.79 171.175 1337.16 172.013 1336.4 172.714C1335.57 173.401 1334.58 173.853 1333.52 174.024C1331.97 174.251 1330.4 174.249 1328.85 174.021L1327.85 173.874L1327.71 174.872C1327.22 178.396 1326.73 181.915 1326.24 185.428L1326.11 186.344L1327.01 186.543C1330.36 187.282 1333.45 187.419 1336.27 186.923L1336.27 186.922C1340.08 186.242 1343.57 184.374 1346.25 181.587C1349.04 178.736 1351.14 174.988 1352.56 170.391C1356.96 156.441 1361.33 142.309 1365.67 127.994Z" stroke="#A5D936" stroke-width="2"/>
<path d="M1387.67 139.204L1384.57 121.63L1384.37 120.485L1383.27 120.856C1378.87 122.332 1374.47 123.74 1370.06 125.079L1369.21 125.336L1369.37 126.209L1377.86 174.39L1378.06 175.501L1379.14 175.173C1383.57 173.826 1387.99 172.413 1392.4 170.932L1393.21 170.658L1393.06 169.811L1389.96 152.211C1391.5 151.694 1393.03 151.169 1394.56 150.636C1399.04 155.393 1403.52 160.113 1407.99 164.796L1408.44 165.271L1409.06 165.043C1414.02 163.204 1418.96 161.304 1423.9 159.345L1425.31 158.785L1424.24 157.709C1418.04 151.501 1411.83 145.229 1405.61 138.893C1409.03 129.526 1412.44 120.105 1415.85 110.632L1416.6 108.546L1414.54 109.364C1409.94 111.189 1405.34 112.957 1400.73 114.669L1400.29 114.834L1400.14 115.281C1397.57 122.737 1395.01 130.164 1392.45 137.562C1390.86 138.116 1389.26 138.664 1387.67 139.204Z" stroke="#A5D936" stroke-width="2"/>
<path d="M1441.05 152.346L1441.55 152.135L1441.65 151.6C1442.27 148.147 1442.89 144.692 1443.53 141.235C1449.63 138.628 1455.72 135.976 1461.79 133.278C1463.39 135.627 1464.99 137.975 1466.59 140.321L1467.06 141.013L1467.83 140.672C1472.34 138.65 1476.86 136.616 1481.37 134.567L1482.5 134.055L1481.76 133.061C1472.14 120.096 1462.52 107.089 1452.88 94.0382L1452.41 93.3932L1451.67 93.7178C1447.4 95.6102 1443.12 97.4774 1438.83 99.3194L1438.36 99.5248L1438.25 100.034C1434.29 119.021 1430.31 137.918 1426.32 156.725L1425.93 158.562L1427.67 157.86C1432.14 156.06 1436.6 154.222 1441.05 152.346ZM1448.46 113.454C1450.66 116.71 1452.86 119.966 1455.05 123.22C1452.04 124.55 1449.03 125.87 1446.01 127.18C1446.83 122.609 1447.65 118.033 1448.46 113.454Z" stroke="#A5D936" stroke-width="2"/>
<path d="M1545.62 53.1602L1545.41 51.9294L1544.25 52.4111C1539.89 54.2351 1535.53 56.0882 1531.17 57.9704L1530.45 58.2838L1530.58 59.0619L1533.64 76.3853C1528.33 78.6898 1523.03 81.0223 1517.74 83.383L1514.77 66.5448L1514.55 65.2806L1513.38 65.8061C1509.04 67.7533 1504.7 69.7096 1500.36 71.6752L1499.65 71.9954L1499.79 72.7597L1508.28 120.937L1508.51 122.206L1509.68 121.673C1514.02 119.707 1518.35 117.752 1522.69 115.808L1523.41 115.489L1523.27 114.721L1520.09 96.7007C1525.38 94.3275 1530.68 91.9931 1535.99 89.6973L1539.08 107.239L1539.3 108.486L1540.46 107.983C1544.81 106.101 1549.16 104.252 1553.52 102.434L1554.26 102.125L1554.12 101.337L1545.62 53.1602Z" stroke="#A5D936" stroke-width="2"/>
<path d="M1572.63 94.7402L1573.15 94.5383L1573.26 93.9872C1573.88 90.5826 1574.51 87.1796 1575.16 83.7782C1581.29 81.4417 1587.44 79.2176 1593.62 77.106L1598.53 84.5775L1598.95 85.2202L1599.68 84.977C1604.27 83.4469 1608.87 81.9915 1613.49 80.6109L1614.82 80.2139L1614.03 79.0786C1604.23 65.1079 1594.46 51.2954 1584.72 37.6409L1584.28 37.0311L1583.57 37.2773C1579.22 38.7918 1574.88 40.3613 1570.54 41.9859L1570.03 42.1775L1569.92 42.7111C1565.89 61.3473 1561.89 80.089 1557.9 98.9361L1557.51 100.786L1559.26 100.068C1563.71 98.2427 1568.16 96.4667 1572.63 94.7402ZM1577.67 69.9871C1578.5 65.4989 1579.34 61.016 1580.17 56.5384C1582.39 59.9103 1584.61 63.2896 1586.84 66.6763C1583.78 67.7538 1580.72 68.8575 1577.67 69.9871Z" stroke="#A5D936" stroke-width="2"/>
<path d="M1657.23 20.1571L1657.74 18.6141L1656.13 18.8496C1651.67 19.5022 1647.22 20.247 1642.79 21.0839L1642.19 21.1974L1642.01 21.7841C1639.7 29.633 1637.4 37.5362 1635.11 45.4938C1630.43 39.1281 1625.77 32.8109 1621.11 26.5421L1620.71 26.0023L1620.06 26.1699C1615.32 27.3898 1610.6 28.6955 1605.88 30.0869L1604.42 30.5186L1605.4 31.6876C1613.43 41.2814 1621.48 51.0238 1629.55 60.9147C1629.09 61.8946 1628.46 62.787 1627.69 63.5497C1626.88 64.298 1625.89 64.8304 1624.81 65.0985C1623.3 65.447 1621.75 65.5891 1620.2 65.5209L1619.28 65.4805L1619.16 66.3922C1618.69 70.0334 1618.23 73.6797 1617.76 77.331L1617.63 78.3251L1618.63 78.4501C1621.66 78.8312 1624.73 78.6546 1627.7 77.9291L1627.71 77.9273L1627.72 77.9254C1631.47 76.9472 1634.87 74.9293 1637.53 72.1036C1640.32 69.211 1642.41 65.4736 1643.85 60.9309C1648.27 47.1404 1652.73 33.5492 1657.23 20.1571Z" stroke="#A5D936" stroke-width="2"/>
<path d="M1261.87 205.354L1261.74 204.613L1260.99 204.533C1256.24 204.026 1251.46 203.378 1246.65 202.589L1245.26 202.361L1245.5 203.75L1248.45 220.458C1242.57 219.449 1236.64 218.208 1230.67 216.735L1227.58 199.26L1227.47 198.62L1226.84 198.463C1221.96 197.249 1217.06 195.869 1212.12 194.323L1210.55 193.831L1210.83 195.451L1219.33 243.627L1219.43 244.228L1220.02 244.409C1224.98 245.949 1229.93 247.339 1234.85 248.58L1236.35 248.957L1236.08 247.437L1233.03 230.159C1239 231.604 1244.92 232.825 1250.81 233.823L1254 251.915L1254.12 252.612L1254.82 252.728C1259.66 253.529 1264.48 254.186 1269.28 254.699L1270.6 254.84L1270.37 253.531L1261.87 205.354Z" stroke="#A5D936" stroke-width="2"/>
<path d="M1290.09 256.07L1290.9 256.091L1291.09 255.305C1291.77 252.475 1292.46 249.634 1293.16 246.783C1299.73 246.821 1306.25 246.627 1312.74 246.199C1314.46 249.06 1316.19 251.911 1317.93 254.752L1318.25 255.278L1318.86 255.227C1323.68 254.831 1328.48 254.315 1333.26 253.681L1334.84 253.471L1333.96 252.138C1323.97 237.04 1313.93 221.665 1303.83 206.014L1303.52 205.526L1302.94 205.558C1298.39 205.808 1293.82 205.946 1289.22 205.97L1288.47 205.975L1288.26 206.703C1283.8 222.798 1279.27 238.568 1274.69 254.013L1274.34 255.194L1275.56 255.294C1280.43 255.691 1285.27 255.95 1290.09 256.07ZM1295.99 234.726C1296.93 230.783 1297.86 226.824 1298.79 222.849C1301.1 226.732 1303.42 230.6 1305.72 234.453C1302.49 234.601 1299.25 234.692 1295.99 234.726Z" stroke="#A5D936" stroke-width="2"/>
<path d="M1377.26 193.743L1377.79 191.979L1376.02 192.492C1371.69 193.748 1367.35 194.927 1362.99 196.027L1362.43 196.169L1362.28 196.726C1360 204.788 1357.72 212.797 1355.43 220.751C1350.75 214.353 1346.06 207.902 1341.37 201.396L1341 200.883L1340.37 200.998C1335.6 201.881 1330.81 202.655 1326 203.321L1324.28 203.558L1325.35 204.926C1333.54 215.456 1341.71 225.812 1349.84 235.993C1349.38 236.923 1348.76 237.761 1347.99 238.462C1347.17 239.149 1346.17 239.602 1345.11 239.773C1343.57 239.999 1341.99 239.998 1340.44 239.769L1339.45 239.622L1339.31 240.62C1338.82 244.145 1338.32 247.663 1337.83 251.177L1337.7 252.093L1338.61 252.292C1341.96 253.03 1345.05 253.168 1347.86 252.671L1347.86 252.671C1351.67 251.99 1355.16 250.123 1357.84 247.336C1360.64 244.484 1362.73 240.737 1364.16 236.139C1368.55 222.19 1372.92 208.058 1377.26 193.743Z" stroke="#A5D936" stroke-width="2"/>
<path d="M1399.26 204.952L1396.16 187.379L1395.96 186.234L1394.86 186.604C1390.47 188.081 1386.07 189.489 1381.65 190.827L1380.81 191.085L1380.96 191.958L1389.45 240.139L1389.65 241.25L1390.73 240.922C1395.16 239.575 1399.58 238.161 1403.99 236.681L1404.81 236.407L1404.66 235.559L1401.55 217.959C1403.09 217.442 1404.63 216.918 1406.16 216.385C1410.63 221.141 1415.11 225.861 1419.58 230.544L1420.04 231.02L1420.65 230.791C1425.61 228.952 1430.56 227.053 1435.5 225.094L1436.91 224.533L1435.83 223.458C1429.64 217.25 1423.43 210.977 1417.2 204.641C1420.63 195.274 1424.04 185.854 1427.44 176.38L1428.19 174.295L1426.13 175.113C1421.54 176.937 1416.94 178.705 1412.33 180.418L1411.89 180.582L1411.73 181.029C1409.16 188.485 1406.6 195.912 1404.05 203.31C1402.45 203.865 1400.86 204.412 1399.26 204.952Z" stroke="#A5D936" stroke-width="2"/>
<path d="M1452.65 218.094L1453.15 217.883L1453.24 217.349C1453.86 213.896 1454.49 210.441 1455.13 206.984C1461.22 204.377 1467.31 201.724 1473.39 199.027C1474.99 201.375 1476.59 203.723 1478.18 206.07L1478.65 206.762L1479.42 206.42C1483.94 204.399 1488.45 202.364 1492.97 200.316L1494.09 199.804L1493.36 198.809C1483.74 185.845 1474.11 172.837 1464.48 159.787L1464 159.142L1463.27 159.466C1458.99 161.359 1454.71 163.226 1450.43 165.068L1449.95 165.273L1449.84 165.782C1445.88 184.77 1441.91 203.666 1437.91 222.473L1437.52 224.31L1439.26 223.608C1443.73 221.809 1448.19 219.971 1452.65 218.094ZM1460.06 179.203C1462.26 182.459 1464.45 185.714 1466.65 188.969C1463.63 190.299 1460.62 191.619 1457.6 192.929C1458.42 188.357 1459.24 183.782 1460.06 179.203Z" stroke="#A5D936" stroke-width="2"/>
<path d="M1557.22 118.909L1557 117.678L1555.85 118.16C1551.48 119.984 1547.12 121.837 1542.77 123.719L1542.04 124.032L1542.18 124.81L1545.23 142.134C1539.93 144.438 1534.63 146.771 1529.34 149.132L1526.37 132.293L1526.15 131.029L1524.97 131.555C1520.63 133.502 1516.29 135.458 1511.96 137.424L1511.25 137.744L1511.38 138.508L1519.88 186.685L1520.1 187.955L1521.28 187.422C1525.61 185.456 1529.95 183.5 1534.29 181.556L1535 181.238L1534.86 180.47L1531.69 162.449C1536.98 160.076 1542.27 157.742 1547.58 155.446L1550.67 172.987L1550.89 174.234L1552.05 173.731C1556.4 171.85 1560.75 170 1565.11 168.182L1565.85 167.874L1565.71 167.086L1557.22 118.909Z" stroke="#A5D936" stroke-width="2"/>
<path d="M1584.23 160.489L1584.75 160.287L1584.85 159.736C1585.47 156.331 1586.1 152.928 1586.75 149.527C1592.88 147.19 1599.04 144.966 1605.21 142.855L1610.12 150.326L1610.54 150.969L1611.27 150.726C1615.86 149.195 1620.47 147.74 1625.09 146.359L1626.42 145.962L1625.62 144.827C1615.82 130.856 1606.05 117.044 1596.31 103.389L1595.88 102.78L1595.17 103.026C1590.82 104.54 1586.47 106.11 1582.14 107.734L1581.63 107.926L1581.51 108.46C1577.48 127.096 1573.48 145.838 1569.49 164.685L1569.1 166.534L1570.85 165.817C1575.3 163.991 1579.76 162.215 1584.23 160.489ZM1589.26 135.736C1590.1 131.247 1590.93 126.765 1591.77 122.287C1593.99 125.659 1596.21 129.038 1598.43 132.425C1595.37 133.502 1592.32 134.606 1589.26 135.736Z" stroke="#A5D936" stroke-width="2"/>
<path d="M1668.82 85.9056L1669.34 84.3626L1667.73 84.5981C1663.26 85.2507 1658.82 85.9955 1654.38 86.8325L1653.78 86.9459L1653.61 87.5326C1651.3 95.3815 1649 103.285 1646.7 111.242C1642.03 104.877 1637.36 98.5594 1632.71 92.2906L1632.3 91.7508L1631.65 91.9184C1626.91 93.1384 1622.19 94.4441 1617.48 95.8354L1616.02 96.2671L1616.99 97.4361C1625.02 107.03 1633.07 116.772 1641.14 126.663C1640.69 127.643 1640.06 128.536 1639.29 129.298C1638.47 130.047 1637.48 130.579 1636.41 130.847C1634.9 131.196 1633.34 131.338 1631.79 131.269L1630.87 131.229L1630.76 132.141C1630.29 135.782 1629.82 139.428 1629.35 143.08L1629.23 144.074L1630.22 144.199C1633.25 144.58 1636.33 144.403 1639.29 143.678L1639.3 143.676L1639.31 143.674C1643.06 142.696 1646.47 140.678 1649.13 137.852C1651.91 134.96 1654.01 131.222 1655.44 126.679C1659.87 112.889 1664.33 99.2978 1668.82 85.9056Z" stroke="#A5D936" stroke-width="2"/>
<path d="M1273.46 271.102L1273.33 270.361L1272.59 270.282C1267.84 269.775 1263.05 269.127 1258.24 268.338L1256.85 268.109L1257.1 269.498L1260.04 286.207C1254.16 285.197 1248.23 283.956 1242.26 282.483L1239.18 265.008L1239.06 264.369L1238.43 264.212C1233.56 262.998 1228.65 261.617 1223.71 260.071L1222.14 259.58L1222.42 261.199L1230.92 309.376L1231.02 309.977L1231.61 310.157C1236.58 311.697 1241.52 313.088 1246.44 314.328L1247.94 314.706L1247.67 313.185L1244.62 295.907C1250.59 297.352 1256.51 298.574 1262.4 299.571L1265.59 317.663L1265.71 318.361L1266.41 318.476C1271.25 319.278 1276.07 319.935 1280.87 320.447L1282.19 320.588L1281.96 319.279L1273.46 271.102Z" stroke="#A5D936" stroke-width="2"/>
<path d="M1301.68 321.819L1302.49 321.839L1302.68 321.054C1303.36 318.223 1304.05 315.382 1304.75 312.531C1311.32 312.569 1317.84 312.375 1324.33 311.948C1326.05 314.808 1327.78 317.659 1329.52 320.501L1329.84 321.026L1330.45 320.976C1335.28 320.579 1340.07 320.064 1344.85 319.43L1346.43 319.219L1345.55 317.886C1335.56 302.788 1325.52 287.413 1315.42 271.763L1315.11 271.274L1314.53 271.306C1309.98 271.556 1305.41 271.694 1300.81 271.719L1300.06 271.723L1299.86 272.451C1295.39 288.546 1290.86 304.316 1286.28 319.761L1285.93 320.942L1287.16 321.043C1292.02 321.44 1296.86 321.698 1301.68 321.819ZM1307.58 300.474C1308.52 296.531 1309.45 292.572 1310.38 288.597C1312.69 292.48 1315.01 296.348 1317.32 300.201C1314.08 300.349 1310.84 300.44 1307.58 300.474Z" stroke="#A5D936" stroke-width="2"/>
<path d="M1388.85 259.491L1389.39 257.727L1387.62 258.241C1383.28 259.497 1378.94 260.675 1374.59 261.776L1374.03 261.918L1373.87 262.474C1371.59 270.537 1369.31 278.545 1367.02 286.499C1362.34 280.102 1357.65 273.65 1352.96 267.145L1352.59 266.632L1351.96 266.747C1347.19 267.63 1342.4 268.404 1337.59 269.069L1335.87 269.307L1336.94 270.674C1345.13 281.205 1353.3 291.56 1361.43 301.741C1360.97 302.672 1360.35 303.51 1359.58 304.211C1358.76 304.898 1357.76 305.35 1356.71 305.521C1355.16 305.748 1353.58 305.747 1352.04 305.518L1351.04 305.371L1350.9 306.369C1350.41 309.893 1349.92 313.412 1349.42 316.925L1349.3 317.841L1350.2 318.04C1353.55 318.779 1356.64 318.916 1359.45 318.42L1359.46 318.419C1363.26 317.739 1366.75 315.871 1369.43 313.084C1372.23 310.233 1374.32 306.485 1375.75 301.888C1380.14 287.938 1384.51 273.806 1388.85 259.491Z" stroke="#A5D936" stroke-width="2"/>
<path d="M1410.85 270.701L1407.75 253.127L1407.55 251.983L1406.45 252.353C1402.06 253.829 1397.66 255.237 1393.25 256.576L1392.4 256.833L1392.55 257.706L1401.05 305.887L1401.24 306.998L1402.32 306.67C1406.75 305.323 1411.17 303.91 1415.58 302.429L1416.4 302.156L1416.25 301.308L1413.15 283.708C1414.68 283.191 1416.22 282.666 1417.75 282.133C1422.23 286.89 1426.7 291.61 1431.18 296.293L1431.63 296.768L1432.25 296.54C1437.2 294.701 1442.15 292.801 1447.09 290.842L1448.5 290.282L1447.43 289.206C1441.23 282.998 1435.02 276.726 1428.79 270.39C1432.22 261.023 1435.63 251.602 1439.03 242.129L1439.78 240.043L1437.72 240.861C1433.13 242.686 1428.53 244.454 1423.92 246.166L1423.48 246.331L1423.32 246.778C1420.76 254.234 1418.19 261.661 1415.64 269.059C1414.04 269.613 1412.45 270.161 1410.85 270.701Z" stroke="#A5D936" stroke-width="2"/>
<path d="M1464.24 283.843L1464.74 283.632L1464.83 283.097C1465.45 279.644 1466.08 276.189 1466.72 272.732C1472.81 270.125 1478.9 267.473 1484.98 264.775C1486.58 267.124 1488.18 269.472 1489.78 271.819L1490.25 272.51L1491.01 272.169C1495.53 270.148 1500.05 268.113 1504.56 266.064L1505.68 265.552L1504.95 264.558C1495.33 251.593 1485.7 238.586 1476.07 225.535L1475.59 224.89L1474.86 225.215C1470.58 227.107 1466.31 228.974 1462.02 230.816L1461.54 231.022L1461.44 231.531C1457.48 250.518 1453.5 269.415 1449.5 288.222L1449.11 290.059L1450.86 289.357C1455.32 287.557 1459.78 285.719 1464.24 283.843ZM1471.65 244.951C1473.85 248.207 1476.04 251.463 1478.24 254.717C1475.22 256.047 1472.21 257.367 1469.2 258.677C1470.01 254.106 1470.83 249.531 1471.65 244.951Z" stroke="#A5D936" stroke-width="2"/>
<path d="M1568.81 184.657L1568.59 183.427L1567.44 183.908C1563.07 185.732 1558.71 187.585 1554.36 189.467L1553.63 189.781L1553.77 190.559L1556.82 207.882C1551.52 210.187 1546.22 212.519 1540.93 214.88L1537.96 198.042L1537.74 196.778L1536.57 197.303C1532.23 199.25 1527.89 201.207 1523.55 203.172L1522.84 203.492L1522.98 204.257L1531.47 252.434L1531.69 253.703L1532.87 253.171C1537.2 251.204 1541.54 249.249 1545.88 247.305L1546.59 246.986L1546.46 246.219L1543.28 228.198C1548.57 225.825 1553.87 223.49 1559.17 221.194L1562.26 238.736L1562.48 239.983L1563.65 239.48C1567.99 237.599 1572.35 235.749 1576.7 233.931L1577.44 233.622L1577.3 232.834L1568.81 184.657Z" stroke="#A5D936" stroke-width="2"/>
<path d="M1595.82 226.237L1596.34 226.035L1596.44 225.484C1597.06 222.08 1597.7 218.677 1598.34 215.275C1604.47 212.939 1610.63 210.715 1616.8 208.603L1621.71 216.075L1622.13 216.717L1622.86 216.474C1627.45 214.944 1632.06 213.489 1636.68 212.108L1638.01 211.711L1637.21 210.576C1627.42 196.605 1617.65 182.793 1607.9 169.138L1607.47 168.528L1606.76 168.774C1602.41 170.289 1598.06 171.858 1593.73 173.483L1593.22 173.675L1593.1 174.208C1589.08 192.844 1585.07 211.586 1581.09 230.433L1580.69 232.283L1582.44 231.565C1586.89 229.74 1591.35 227.964 1595.82 226.237ZM1600.86 201.484C1601.69 196.996 1602.52 192.513 1603.36 188.035C1605.58 191.407 1607.8 194.787 1610.02 198.173C1606.96 199.251 1603.91 200.355 1600.86 201.484Z" stroke="#A5D936" stroke-width="2"/>
<path d="M1680.41 151.654L1680.93 150.111L1679.32 150.347C1674.86 150.999 1670.41 151.744 1665.97 152.581L1665.37 152.694L1665.2 153.281C1662.89 161.13 1660.59 169.033 1658.3 176.991C1653.62 170.625 1648.95 164.308 1644.3 158.039L1643.9 157.499L1643.25 157.667C1638.51 158.887 1633.78 160.193 1629.07 161.584L1627.61 162.016L1628.59 163.185C1636.61 172.778 1644.66 182.521 1652.73 192.412C1652.28 193.392 1651.65 194.284 1650.88 195.047C1650.06 195.795 1649.07 196.328 1648 196.596C1646.49 196.944 1644.94 197.086 1643.38 197.018L1642.47 196.978L1642.35 197.889C1641.88 201.53 1641.41 205.177 1640.95 208.828L1640.82 209.822L1641.81 209.947C1644.84 210.328 1647.92 210.152 1650.89 209.426L1650.89 209.424L1650.9 209.423C1654.66 208.444 1658.06 206.426 1660.72 203.601C1663.5 200.708 1665.6 196.971 1667.03 192.428C1671.46 178.638 1675.92 165.046 1680.41 151.654Z" stroke="#A5D936" stroke-width="2"/>
</svg>
