<svg width="758" height="688" viewBox="0 0 758 688" fill="none" xmlns="http://www.w3.org/2000/svg">
<path d="M327.448 566.217L327.509 565.723L327.015 565.659L308.584 563.292L308.086 563.228L308.024 563.726L299.295 633.999L299.234 634.494L299.729 634.557L316.145 636.625L316.426 636.66L316.601 636.437L345.413 599.611L364.699 642.52L364.814 642.776L365.092 642.811L381.508 644.879L382.004 644.942L382.067 644.446L390.999 574.185L391.062 573.689L390.566 573.626L372.234 571.324L371.738 571.262L371.676 571.758L367.269 606.432L353.612 576.255L353.497 576L353.219 575.965L344.361 574.85L344.079 574.814L343.905 575.037L323.039 601.654L327.448 566.217Z" stroke="#C4C4C4"/>
<path d="M223.165 580.779L222.725 580.553L222.494 580.992L215.098 595.062L214.863 595.509L215.312 595.739L261.59 619.498L262.033 619.726L262.262 619.283L294.833 556.343L295.064 555.897L294.618 555.668L277.029 546.635L276.586 546.407L276.356 546.85L251.313 595.236L223.165 580.779Z" stroke="#C4C4C4"/>
<path d="M141.543 529.236L140.746 529.483L141.34 530.069L155.218 543.778L155.438 543.995L155.731 543.895L191.06 531.838L179.133 566.806L179.031 567.104L179.256 567.324L194.372 582.153L194.968 582.738L195.202 581.936L211.343 526.578C213.146 526.203 215.009 526.218 216.807 526.623C218.485 527.076 220.01 527.967 221.226 529.205C222.86 530.911 224.247 532.836 225.348 534.924L225.58 535.364L226.021 535.134L239.826 527.937L240.235 527.724L240.055 527.299C238.347 523.272 235.897 519.601 232.831 516.474L232.831 516.474L232.826 516.468C229.013 512.692 224.127 510.174 218.83 509.254L218.823 509.253C212.859 508.301 206.751 508.836 201.044 510.81L141.543 529.236Z" stroke="#C4C4C4"/>
<path d="M191.799 477.69L192.046 478.124L192.48 477.878L201.664 472.68L202.1 472.433L201.852 471.997L176.8 428.019L176.553 427.585L176.119 427.831L166.936 433.029L166.499 433.276L166.748 433.712L191.799 477.69Z" stroke="#C4C4C4"/>
<path d="M148.563 431.587L148.563 431.587L148.57 431.58C153.231 426.913 156.505 421.051 158.027 414.644C159.674 407.792 159.581 400.639 157.756 393.834C156.358 387.915 153.719 382.358 150.014 377.529L150.012 377.527C146.583 373.091 142.111 369.564 136.992 367.255L136.565 367.063L136.345 367.476L128.26 382.671L128.014 383.134L128.487 383.358C134.873 386.386 138.823 390.988 140.398 397.171L140.397 397.171L140.4 397.179C141.319 400.552 141.342 404.105 140.466 407.49C139.612 410.675 137.852 413.548 135.399 415.761C132.663 418.096 129.422 419.77 125.93 420.652C122.438 421.534 118.789 421.6 115.267 420.846C112.048 420.062 109.126 418.367 106.852 415.967C104.465 413.405 102.79 410.268 101.99 406.865L101.99 406.865L101.988 406.857C100.43 400.689 101.706 394.771 105.867 389.066L106.175 388.644L105.74 388.355L91.388 378.822L90.998 378.563L90.7139 378.935C87.3097 383.395 85.059 388.621 84.1605 394.152L84.1602 394.153C83.2065 400.164 83.5363 406.306 85.1277 412.18C86.7296 419.018 90.0117 425.353 94.6789 430.613L94.6805 430.615C99.0751 435.521 104.744 439.122 111.062 441.022L111.062 441.022L111.072 441.024C117.604 442.84 124.498 442.924 131.073 441.269C137.649 439.613 143.677 436.276 148.563 431.587Z" stroke="#C4C4C4"/>
<path d="M149.635 342.902L149.666 342.565L149.365 342.411L136.42 335.782L139.101 306.634L153.04 302.452L153.363 302.355L153.394 302.019L155.292 281.273L155.362 280.508L154.634 280.753L80.9986 305.563L80.6899 305.667L80.6603 305.991L78.8657 325.635L78.836 325.96L79.1217 326.118L147.023 363.669L147.693 364.04L147.763 363.277L149.635 342.902ZM121.21 328.079L101.164 317.859L122.775 311.414L121.21 328.079Z" stroke="#C4C4C4"/>
<path d="M136.967 215.222L136.941 215.208C135.74 214.559 134.409 214.185 133.044 214.114C131.682 214.043 130.32 214.276 129.059 214.796C126.671 215.856 124.587 218.153 122.86 221.817C122.86 221.817 122.86 221.817 122.86 221.817L118.327 231.44L136.265 239.822L140.799 230.196L136.967 215.222ZM136.967 215.222L136.995 215.233M136.967 215.222L136.995 215.233M136.995 215.233C138.257 215.733 139.391 216.51 140.31 217.507C141.228 218.501 141.91 219.689 142.306 220.981M136.995 215.233L142.306 220.981M142.306 220.981C142.989 223.483 142.516 226.541 140.799 230.196L142.306 220.981ZM118.28 199.672L118.277 199.674C113.967 203.55 110.534 208.295 108.205 213.594L94.3677 242.888L94.1534 243.342L94.608 243.554L158.927 273.638L159.379 273.85L159.591 273.398L168.103 255.269L168.315 254.815L167.862 254.603L151.501 246.953L156.554 236.232C159.143 231.042 160.597 225.364 160.822 219.574L160.822 219.571C160.988 214.589 159.684 209.669 157.073 205.419C154.462 201.169 150.658 197.776 146.131 195.659C141.604 193.542 136.554 192.793 131.604 193.507C126.654 194.22 122.022 196.363 118.28 199.672Z" stroke="#C4C4C4"/>
<path d="M200.645 194.371L200.645 194.372L200.654 194.368C207.395 192.127 213.523 188.357 218.553 183.355C223.584 178.353 227.381 172.255 229.644 165.543L229.644 165.543L229.647 165.533C231.665 159.142 231.888 152.324 230.293 145.817C228.698 139.31 225.346 133.364 220.6 128.622C215.854 123.88 209.895 120.524 203.37 118.917C196.845 117.311 190.003 117.515 183.585 119.508L183.585 119.508L183.575 119.511C176.832 121.75 170.702 125.52 165.67 130.522C160.637 135.524 156.838 141.623 154.573 148.337L154.573 148.337L154.57 148.347C152.561 154.738 152.344 161.555 153.943 168.059C155.541 174.562 158.895 180.506 163.64 185.246C168.385 189.985 174.342 193.341 180.864 194.949C187.386 196.558 194.226 196.358 200.645 194.371ZM210.915 152.851C211.863 155.983 211.917 159.315 211.071 162.477C210.159 165.661 208.446 168.561 206.093 170.901C203.74 173.241 200.826 174.942 197.628 175.845C194.448 176.676 191.1 176.611 187.956 175.657C184.531 174.537 181.42 172.628 178.875 170.087C176.329 167.545 174.42 164.442 173.302 161.029C172.36 157.896 172.307 154.565 173.147 151.402C174.053 148.214 175.766 145.31 178.122 142.969C180.478 140.628 183.398 138.929 186.602 138.035C189.776 137.2 193.12 137.261 196.261 138.211C199.687 139.331 202.8 141.241 205.346 143.785C207.892 146.329 209.8 149.435 210.915 152.851Z" stroke="#C4C4C4"/>
<path d="M281.667 120.528L281.669 120.526C284.25 119.356 285.847 117.968 286.579 116.406C287.302 114.863 287.226 113.049 286.24 110.908L281.667 120.528ZM281.667 120.528L267.732 126.942L262.03 114.618L275.962 108.217C275.962 108.217 275.962 108.216 275.963 108.216M281.667 120.528L275.963 108.216M250.464 89.6994L261.66 84.5662L261.66 84.5658C264.188 83.4013 266.241 83.086 267.863 83.5071C269.461 83.922 270.74 85.0794 271.676 87.0955C272.612 89.1114 272.668 90.8305 271.95 92.3104C271.221 93.8126 269.648 95.1668 267.116 96.3317L250.464 89.6994ZM250.464 89.6994L255.917 101.466L267.116 96.332L250.464 89.6994ZM275.963 108.216C278.552 107.041 280.658 106.732 282.323 107.179C283.965 107.62 285.279 108.824 286.24 110.907L275.963 108.216ZM298.59 94.9857L298.579 94.98L298.569 94.9748C295.326 93.411 291.72 92.7715 288.149 93.1142C289.854 90.768 290.96 88.0362 291.363 85.1552L291.363 85.1552L291.364 85.1459C291.759 81.8692 291.204 78.5489 289.763 75.5784C288.701 73.0172 286.991 70.7743 284.8 69.0683C282.606 67.3602 280.005 66.2487 277.251 65.842C271.524 64.8759 264.741 66.2245 256.927 69.8068L256.927 69.807L225.574 84.2169L225.119 84.4262L225.329 84.8812L255.086 149.173L255.296 149.625L255.749 149.417L288.849 134.201L288.849 134.201C297.071 130.418 302.732 125.819 305.746 120.37C307.23 117.797 308.05 114.898 308.132 111.932C308.214 108.97 307.558 106.035 306.222 103.388C304.707 99.8062 302.016 96.8437 298.59 94.9857Z" stroke="#C4C4C4"/>
<path d="M421.475 118.399L421.431 118.903L421.935 118.942L440.431 120.364L440.924 120.402L440.967 119.909L447.131 49.3565L447.175 48.8578L446.676 48.8148L430.19 47.3945L429.908 47.3702L429.742 47.5995L402.299 85.5166L381.472 43.3905L381.348 43.1381L381.067 43.1139L364.582 41.6935L364.085 41.6508L364.041 42.1467L357.672 112.675L357.627 113.174L358.125 113.218L376.538 114.86L377.036 114.904L377.081 114.406L380.215 79.5935L394.956 109.287L395.08 109.538L395.359 109.563L404.259 110.354L404.541 110.379L404.707 110.15L424.599 82.7969L421.475 118.399Z" stroke="#C4C4C4"/>
<path d="M525.141 100.047L525.59 100.257L525.804 99.8098L532.679 85.4241L532.897 84.9694L532.44 84.7557L485.316 62.6911L484.864 62.4796L484.652 62.9309L454.447 127.057L454.234 127.51L454.687 127.722L472.598 136.117L473.05 136.328L473.262 135.877L496.464 86.6191L525.141 100.047Z" stroke="#C4C4C4"/>
<path d="M608.609 148.627L609.407 148.348L608.778 147.783L594.257 134.744L594.03 134.54L593.744 134.649L558.875 147.967L569.611 112.535L569.702 112.233L569.469 112.02L553.823 97.7472L553.206 97.1843L553.002 97.9942L538.88 153.899C537.095 154.34 535.234 154.387 533.427 154.037C531.733 153.645 530.176 152.81 528.914 151.618C527.217 149.966 525.761 148.085 524.589 146.029L524.342 145.595L523.908 145.842L510.371 153.524L509.97 153.752L510.165 154.17C512.018 158.136 514.604 161.718 517.786 164.731L517.791 164.735C521.737 168.374 526.711 170.714 532.038 171.437L532.038 171.437L532.045 171.438C538.041 172.163 544.124 171.393 549.749 169.197L608.609 148.627Z" stroke="#C4C4C4"/>
<path d="M560.224 201.937L559.961 201.513L559.537 201.774L550.552 207.307L550.125 207.569L550.389 207.996L577.037 251.035L577.299 251.459L577.724 251.197L586.709 245.665L587.136 245.402L586.872 244.976L560.224 201.937Z" stroke="#C4C4C4"/>
<path d="M596.304 263.73L596.304 263.732C594.943 270.646 595.322 277.787 597.409 284.517C599.032 290.374 601.87 295.825 605.738 300.521L605.74 300.524C609.336 304.827 613.934 308.188 619.133 310.313L619.568 310.491L619.772 310.068L627.242 294.598L627.469 294.13L626.992 293.923C620.498 291.095 616.385 286.637 614.591 280.545L614.591 280.545L614.588 280.536C613.538 277.201 613.387 273.649 614.149 270.236C614.877 267.02 616.529 264.084 618.903 261.787C621.551 259.351 624.729 257.556 628.187 256.545C631.645 255.533 635.291 255.331 638.84 255.955C642.08 256.616 645.057 258.199 647.41 260.513C649.888 262.987 651.676 266.06 652.6 269.432L652.6 269.432L652.602 269.44C654.399 275.564 653.339 281.527 649.374 287.367L649.08 287.801L649.527 288.075L664.231 297.074L664.63 297.318L664.9 296.936C668.133 292.354 670.191 287.055 670.894 281.499L670.894 281.499L670.894 281.496C671.624 275.452 671.069 269.323 669.264 263.508C667.404 256.742 663.893 250.539 659.045 245.452L659.043 245.451C654.471 240.697 648.665 237.3 642.271 235.635L642.271 235.635L642.261 235.632C635.666 234.058 628.772 234.227 622.261 236.125C615.751 238.022 609.849 241.581 605.142 246.449L605.142 246.449L605.135 246.457C600.652 251.295 597.596 257.273 596.304 263.73Z" stroke="#C4C4C4"/>
<path d="M607.224 335.069L607.205 335.405L607.511 335.549L620.738 341.767L619.125 370.991L605.331 375.631L605.011 375.739L604.992 376.076L603.816 396.888L603.772 397.655L604.492 397.384L677.171 369.936L677.476 369.821L677.494 369.496L678.591 349.798L678.61 349.471L678.318 349.324L609.077 314.247L608.394 313.901L608.352 314.665L607.224 335.069ZM636.254 348.882L656.596 358.373L635.275 365.589L636.254 348.882Z" stroke="#C4C4C4"/>
<path d="M643.852 477.094L643.853 477.092C648.036 473.072 651.313 468.213 653.47 462.837L666.203 433.058L666.4 432.597L665.939 432.401L600.548 404.657L600.089 404.462L599.893 404.921L592.022 423.346L591.825 423.807L592.286 424.003L608.914 431.057L604.262 441.95C601.861 447.23 600.612 452.957 600.596 458.753L600.596 458.756C600.611 463.743 602.093 468.615 604.859 472.77C607.624 476.925 611.552 480.179 616.156 482.13C620.76 484.082 625.837 484.645 630.76 483.75C635.683 482.854 640.234 480.54 643.852 477.094ZM624.626 462.248L624.6 462.235L624.573 462.226C623.293 461.771 622.132 461.034 621.177 460.071C620.222 459.109 619.497 457.945 619.056 456.665C618.23 454.203 618.627 451.145 620.225 447.381C620.226 447.381 620.226 447.38 620.226 447.38L624.408 437.605L642.626 445.323L638.456 455.108L638.456 455.108C636.862 458.849 634.875 461.23 632.516 462.365C631.275 462.93 629.923 463.212 628.56 463.192C627.194 463.172 625.85 462.85 624.626 462.248Z" stroke="#C4C4C4"/>
<path d="M561.662 485.41L561.662 485.41L561.652 485.413C554.992 487.889 549.001 491.875 544.152 497.056C539.303 502.236 535.729 508.47 533.714 515.263L533.713 515.263L533.711 515.272C531.929 521.731 531.955 528.552 533.785 534.996C535.615 541.44 539.18 547.261 544.094 551.829C549.007 556.397 555.082 559.537 561.66 560.91C568.237 562.283 575.067 561.836 581.41 559.618L581.41 559.618L581.419 559.615C588.076 557.134 594.065 553.147 598.914 547.967C603.762 542.787 607.337 536.556 609.357 529.766L609.357 529.766L609.36 529.756C611.137 523.297 611.109 516.478 609.277 510.037C607.445 503.595 603.88 497.776 598.968 493.209C594.055 488.642 587.983 485.502 581.407 484.127C574.832 482.753 568.004 483.196 561.662 485.41ZM552.381 517.648L552.523 517.003L552.518 517.003C553.361 514.04 554.902 511.316 557.016 509.059C559.285 506.636 562.138 504.832 565.304 503.82C568.449 502.874 571.795 502.819 574.968 503.66C578.439 504.65 581.625 506.443 584.268 508.892C586.911 511.342 588.935 514.379 590.176 517.757C591.258 520.846 591.453 524.176 590.739 527.37C589.949 530.589 588.343 533.551 586.073 535.974C583.804 538.398 580.948 540.2 577.779 541.207C574.638 542.153 571.296 542.208 568.127 541.367C564.663 540.369 561.483 538.573 558.845 536.124C556.207 533.675 554.185 530.642 552.942 527.269C551.872 524.175 551.678 520.846 552.381 517.648Z" stroke="#C4C4C4"/>
<path d="M467.469 588.257L467.479 588.262L467.489 588.267C470.789 589.723 474.42 590.24 477.982 589.773C476.362 592.186 475.351 594.961 475.047 597.86L475.047 597.86L475.046 597.871C474.773 601.159 475.451 604.455 477 607.369C478.163 609.885 479.959 612.057 482.214 613.675C484.471 615.295 487.111 616.304 489.877 616.605C495.663 617.356 502.395 615.765 510.049 611.912L510.049 611.912L540.845 596.366L541.292 596.14L541.065 595.693L508.981 532.527L508.756 532.083L508.311 532.307L475.771 548.718L475.771 548.718C467.687 552.797 462.195 557.601 459.383 563.16C457.995 565.784 457.283 568.711 457.31 571.677C457.337 574.639 458.102 577.548 459.534 580.142C461.18 583.665 463.978 586.526 467.469 588.257ZM515.754 591.785L504.789 597.316C502.3 598.572 500.257 598.96 498.622 598.597C497.01 598.239 495.691 597.128 494.685 595.15C493.679 593.173 493.561 591.456 494.225 589.951C494.9 588.424 496.423 587.014 498.912 585.764L498.913 585.764L509.879 580.219L515.754 591.785ZM479.232 571.89L479.231 571.889C478.165 569.803 478.021 567.999 478.687 566.425C479.361 564.83 480.908 563.368 483.447 562.075C483.447 562.074 483.448 562.074 483.448 562.074L497.133 555.178L503.289 567.276L489.605 574.147L489.605 574.147C487.055 575.43 484.96 575.826 483.279 575.449C481.622 575.077 480.266 573.93 479.232 571.89Z" stroke="#C4C4C4"/>
</svg>
