<svg width="628" height="629" viewBox="0 0 628 629" fill="none" xmlns="http://www.w3.org/2000/svg">
<path d="M315.875 541.817L315.818 541.322L315.323 541.377L296.852 543.416L296.353 543.471L296.411 543.97L304.475 614.322L304.532 614.818L305.028 614.762L321.469 612.907L321.751 612.875L321.868 612.616L341.198 570.042L370.046 607.203L370.218 607.424L370.497 607.393L386.938 605.537L387.434 605.481L387.379 604.985L379.516 534.596L379.46 534.099L378.963 534.155L360.604 536.235L360.108 536.291L360.164 536.787L364.045 571.524L343.667 545.411L343.495 545.191L343.217 545.222L334.345 546.224L334.063 546.256L333.946 546.514L319.935 577.296L315.875 541.817Z" stroke="#C4C4C4"/>
<path d="M217.953 580.526L217.472 580.41L217.351 580.89L213.476 596.307L213.353 596.796L213.844 596.915L264.415 609.108L264.9 609.225L265.018 608.741L281.852 539.9L281.971 539.413L281.484 539.296L262.262 534.658L261.778 534.541L261.659 535.025L248.714 587.948L217.953 580.526Z" stroke="#C4C4C4"/>
<path d="M126.49 549.651L125.773 550.079L126.488 550.509L143.204 560.564L143.469 560.723L143.73 560.557L175.227 540.52L171.869 577.314L171.84 577.627L172.111 577.788L190.293 588.64L191.011 589.068L191.049 588.234L193.701 530.632C195.365 529.843 197.179 529.419 199.022 529.388C200.759 529.434 202.452 529.941 203.924 530.858C205.914 532.131 207.716 533.675 209.277 535.445L209.606 535.819L209.981 535.491L221.703 525.246L222.05 524.942L221.775 524.571C219.167 521.06 215.921 518.069 212.206 515.752L212.206 515.752L212.199 515.748C207.604 512.976 202.262 511.679 196.898 512.032L196.891 512.032C190.87 512.511 185.06 514.47 179.978 517.732L126.49 549.651Z" stroke="#C4C4C4"/>
<path d="M163.194 487.721L163.536 488.084L163.9 487.743L171.601 480.529L171.967 480.186L171.623 479.821L136.92 442.978L136.578 442.615L136.214 442.956L128.513 450.171L128.147 450.513L128.491 450.878L163.194 487.721Z" stroke="#C4C4C4"/>
<path d="M110.318 453.096L110.319 453.096L110.324 453.087C113.755 447.454 115.557 440.986 115.528 434.4C115.515 427.353 113.74 420.424 110.364 414.239C107.611 408.816 103.738 404.037 98.9993 400.216L98.9978 400.214C94.6199 396.711 89.4436 394.336 83.9242 393.298L83.464 393.211L83.3475 393.665L79.0684 410.336L78.9382 410.844L79.4509 410.95C86.3704 412.389 91.2928 415.932 94.279 421.57L94.2789 421.57L94.283 421.578C95.9708 424.639 96.8299 428.087 96.7757 431.583C96.6954 434.88 95.6616 438.085 93.7986 440.814C91.6888 443.728 88.9335 446.118 85.7472 447.797C82.561 449.477 79.0302 450.401 75.4301 450.497C72.1168 450.493 68.8774 449.534 66.102 447.736C63.1798 445.809 60.8127 443.155 59.2338 440.036L59.2339 440.036L59.2301 440.029C56.2636 434.401 56.1104 428.348 58.811 421.824L59.0109 421.341L58.5198 421.163L42.3269 415.278L41.8869 415.118L41.6984 415.547C39.4401 420.683 38.4831 426.291 38.9123 431.878L38.9124 431.88C39.4008 437.946 41.1677 443.838 44.0975 449.172C47.2647 455.441 51.946 460.824 57.7207 464.837L57.7226 464.839C63.1489 468.572 69.5063 470.737 76.0942 471.095L76.0942 471.096L76.1047 471.096C82.8798 471.322 89.6001 469.78 95.6009 466.623C101.602 463.466 106.675 458.803 110.318 453.096Z" stroke="#C4C4C4"/>
<path d="M90.4757 366.652L90.4264 366.318L90.0977 366.239L75.9556 362.844L71.6978 333.885L84.26 326.538L84.5515 326.368L84.5022 326.034L81.4611 305.424L81.3491 304.664L80.6998 305.074L14.9769 346.525L14.7014 346.699L14.749 347.021L17.6305 366.535L17.6782 366.858L17.993 366.944L92.8278 387.45L93.5661 387.653L93.4547 386.895L90.4757 366.652ZM59.3595 358.94L37.4711 353.727L56.9564 342.374L59.3595 358.94Z" stroke="#C4C4C4"/>
<path d="M48.0995 245.545L48.0709 245.538C46.751 245.19 45.3691 245.14 44.026 245.392C42.6851 245.645 41.4168 246.192 40.3136 246.994C38.2419 248.587 36.7579 251.309 35.9425 255.277L33.803 265.697L53.2098 269.619L55.3499 259.196L48.0995 245.545ZM48.0995 245.545L48.1288 245.549M48.0995 245.545L48.1288 245.549M48.1288 245.549C49.4739 245.738 50.7582 246.227 51.8866 246.979C53.0131 247.729 53.9555 248.722 54.6441 249.885M48.1288 245.549L54.6441 249.885M54.6441 249.885C55.8973 252.156 56.1581 255.239 55.35 259.196L54.6441 249.885ZM72.3079 244.158L72.3074 244.155C71.2954 239.274 68.8702 234.799 65.3317 231.284C61.7932 227.768 57.2968 225.366 52.399 224.374C47.5011 223.383 42.4164 223.845 37.7737 225.704C33.131 227.562 29.1336 230.736 26.2762 234.833L26.6863 235.119L26.2739 234.836C22.9976 239.617 20.778 245.037 19.7626 250.736L13.2127 282.465L13.1112 282.956L13.6031 283.056L83.1973 297.148L83.6866 297.247L83.7864 296.758L87.7894 277.134L87.8895 276.644L87.3987 276.544L69.697 272.962L72.0826 261.352C73.3766 255.699 73.4535 249.838 72.3079 244.158Z" stroke="#C4C4C4"/>
<path d="M49.4603 176.395L49.4602 176.395L49.4595 176.405C49.0117 183.09 50.406 189.766 53.4913 195.711C56.5766 201.655 61.2354 206.642 66.9633 210.131C72.6912 213.62 79.2699 215.478 85.9876 215.506C92.7052 215.533 99.3061 213.728 105.076 210.286L104.82 209.857L105.085 210.281C111.108 206.516 116.176 201.409 119.887 195.363C123.598 189.317 125.852 182.496 126.472 175.439L126.472 175.439L126.472 175.43C126.928 168.743 125.539 162.064 122.457 156.116C119.375 150.167 114.716 145.177 108.987 141.687C103.258 138.196 96.6769 136.337 89.9572 136.312C83.2375 136.287 76.6356 138.097 70.8671 141.545L70.867 141.545L70.8587 141.55C64.8325 145.314 59.7628 150.421 56.0493 156.468C52.3359 162.515 50.0802 169.337 49.4603 176.395ZM97.7331 160.015C100.807 161.888 103.392 164.457 105.281 167.515C106.939 170.335 107.776 173.562 107.699 176.833C107.563 180.143 106.58 183.365 104.844 186.193C103.109 189.021 100.677 191.361 97.7811 192.991C94.8866 194.547 91.6173 195.273 88.3372 195.086C84.7452 194.804 81.2724 193.681 78.1997 191.811C75.1273 189.94 72.5414 187.374 70.6513 184.32C68.9981 181.497 68.1612 178.271 68.2332 175C68.3633 171.688 69.3444 168.462 71.0827 165.633C72.8212 162.803 75.2588 160.464 78.1619 158.84C81.0505 157.281 84.3152 156.553 87.5914 156.737C91.1851 157.019 94.6597 158.143 97.7331 160.015Z" stroke="#C4C4C4"/>
<path d="M176.865 90.6317L176.853 90.6287L176.842 90.6262C173.322 89.87 169.667 90.0974 166.277 91.2715C167.381 88.5899 167.813 85.6744 167.526 82.7795L167.526 82.7795L167.525 82.7702C167.138 79.4926 165.816 76.3964 163.716 73.8487C162.081 71.6097 159.891 69.8325 157.36 68.6904C154.826 67.547 152.036 67.0792 149.264 67.3323C143.471 67.7418 137.195 70.6499 130.445 75.9715L130.445 75.9717L103.367 97.3592L102.973 97.6699L103.285 98.0625L147.344 153.539L147.654 153.93L148.046 153.62L176.632 131.039L176.632 131.038C183.732 125.426 188.151 119.623 189.798 113.617C190.634 110.767 190.748 107.756 190.129 104.854C189.511 101.957 188.182 99.2584 186.262 97.0008C183.945 93.8763 180.632 91.6307 176.865 90.6317ZM154.399 128.956L145.956 118.321L157.989 108.819C157.989 108.819 157.989 108.819 157.989 108.819C160.229 107.066 162.203 106.271 163.926 106.313C165.627 106.355 167.187 107.216 168.612 109.014C170.074 110.863 170.575 112.608 170.235 114.278C169.892 115.968 168.667 117.693 166.434 119.439L166.432 119.44L154.399 128.956ZM138.52 89.2015L138.52 89.2009C140.703 87.4739 142.624 86.684 144.299 86.7114C145.95 86.7384 147.465 87.5621 148.85 89.301C150.235 91.0398 150.694 92.6974 150.344 94.3048C149.989 95.9365 148.779 97.6231 146.593 99.3516L136.918 106.979L128.848 96.8266L138.52 89.2015Z" stroke="#C4C4C4"/>
<path d="M301.808 84.4506L301.884 84.9503L302.383 84.8693L320.693 81.896L321.182 81.8167L321.107 81.3275L310.485 11.3078L310.41 10.8128L309.915 10.8885L293.558 13.3901L293.278 13.4329L293.171 13.6948L275.428 57.0079L245.267 20.9706L245.087 20.7547L244.808 20.7972L228.452 23.2988L227.96 23.3741L228.033 23.8666L238.451 93.9114L238.524 94.4065L239.019 94.3323L257.301 91.5919L257.795 91.5179L257.721 91.0238L252.57 56.4517L273.888 81.8394L274.069 82.0539L274.346 82.0123L283.181 80.6854L283.461 80.6433L283.569 80.3815L296.46 49.1137L301.808 84.4506Z" stroke="#C4C4C4"/>
<path d="M398.236 42.2033L398.722 42.302L398.825 41.8166L402.12 26.2164L402.224 25.7233L401.73 25.6231L350.735 15.2756L350.246 15.1764L350.146 15.6651L335.891 85.1L335.79 85.5907L336.281 85.6905L355.664 89.6313L356.153 89.7307L356.254 89.2418L367.204 35.9056L398.236 42.2033Z" stroke="#C4C4C4"/>
<path d="M490.797 69.763L491.507 69.3039L490.763 68.9029L473.58 59.6498L473.311 59.505L473.059 59.678L442.307 80.8325L444.397 43.8682L444.415 43.5533L444.139 43.4016L425.572 33.2143L424.839 32.8125L424.831 33.6478L424.271 91.3057C422.64 92.1544 420.842 92.639 419.004 92.7242C417.265 92.7423 415.555 92.2975 414.048 91.4359C412.009 90.2301 410.152 88.7443 408.529 87.0223L408.187 86.659L407.823 87.0006L396.475 97.6541L396.139 97.9703L396.427 98.3311C399.162 101.749 402.518 104.622 406.321 106.8L406.326 106.803C411.018 109.411 416.403 110.513 421.751 109.962L421.751 109.962L421.758 109.961C427.756 109.254 433.487 107.073 438.436 103.614L490.797 69.763Z" stroke="#C4C4C4"/>
<path d="M456.326 132.967L455.971 132.617L455.62 132.971L448.191 140.463L447.838 140.819L448.195 141.171L484.228 176.725L484.583 177.075L484.934 176.721L492.363 169.229L492.716 168.873L492.359 168.521L456.326 132.967Z" stroke="#C4C4C4"/>
<path d="M510.462 165.651L510.461 165.65L510.456 165.66C507.238 171.418 505.676 177.947 505.942 184.527L506.441 184.507L505.942 184.528C506.246 191.568 508.297 198.42 511.91 204.469C514.867 209.779 518.908 214.409 523.773 218.061L523.776 218.064C528.284 221.399 533.544 223.583 539.097 224.424L539.562 224.495L539.661 224.035L543.278 207.242L543.388 206.733L542.876 206.644C535.899 205.425 530.852 202.061 527.673 196.562L527.673 196.562L527.668 196.554C525.863 193.56 524.879 190.144 524.816 186.648C524.767 183.351 525.681 180.109 527.447 177.317C529.447 174.325 532.113 171.833 535.236 170.036C538.359 168.238 541.854 167.183 545.45 166.954C548.754 166.834 552.02 167.671 554.853 169.365C557.843 171.186 560.305 173.753 561.997 176.812L561.997 176.812L562.001 176.82C565.189 182.348 565.563 188.393 563.085 195.002L562.901 195.493L563.4 195.654L579.809 200.938L580.255 201.081L580.427 200.646C582.49 195.432 583.242 189.797 582.618 184.232L582.618 184.232L582.617 184.229C581.904 178.183 579.92 172.357 576.797 167.131C573.396 160.993 568.523 155.791 562.614 151.989L562.612 151.988C557.048 148.444 550.606 146.51 544 146.397L544 146.397L543.99 146.397C537.209 146.42 530.549 148.208 524.668 151.585C518.787 154.962 513.89 159.811 510.462 165.651Z" stroke="#C4C4C4"/>
<path d="M533.354 251.288L533.415 251.619L533.745 251.687L548.065 254.615L553.379 283.397L541.066 291.154L540.779 291.335L540.84 291.668L544.598 312.171L544.737 312.927L545.372 312.494L609.544 268.703L609.813 268.52L609.754 268.2L606.182 248.797L606.123 248.476L605.805 248.401L530.252 230.615L529.507 230.439L529.645 231.192L533.354 251.288ZM564.82 257.877L586.825 262.31L567.802 274.344L564.82 257.877Z" stroke="#C4C4C4"/>
<path d="M556.037 373.055L556.038 373.058C557.226 377.901 559.814 382.288 563.48 385.674C567.146 389.061 571.73 391.299 576.664 392.111C581.598 392.924 586.665 392.275 591.238 390.246C595.812 388.217 599.691 384.896 602.395 380.694L601.974 380.424L602.396 380.692C605.514 375.801 607.556 370.307 608.386 364.574L613.748 332.633L613.831 332.139L613.337 332.057L543.252 320.491L542.76 320.41L542.677 320.902L539.366 340.663L539.283 341.157L539.777 341.239L557.599 344.18L555.643 355.861C554.553 361.558 554.687 367.419 556.037 373.055ZM593.722 350.106L591.974 360.597L591.974 360.597C591.305 364.609 589.935 367.39 587.909 369.05C586.836 369.89 585.589 370.483 584.259 370.785C582.927 371.087 581.545 371.09 580.214 370.793L580.186 370.787L580.157 370.784C578.806 370.643 577.504 370.201 576.349 369.49C575.195 368.779 574.216 367.819 573.486 366.679C572.103 364.481 571.769 361.415 572.436 357.381C572.436 357.38 572.436 357.38 572.436 357.379L574.199 346.895L593.722 350.106Z" stroke="#C4C4C4"/>
<path d="M581.275 440.008L581.275 440.008L581.275 439.998C581.482 433.302 579.848 426.682 576.551 420.852C573.253 415.023 568.418 410.207 562.569 406.926C556.719 403.644 550.078 402.022 543.364 402.234C536.65 402.446 530.118 404.485 524.475 408.13L524.747 408.55L524.467 408.136C518.578 412.111 513.693 417.395 510.201 423.572C506.708 429.749 504.702 436.648 504.343 443.725L504.343 443.725L504.342 443.734C504.132 450.431 505.763 457.054 509.059 462.886C512.355 468.718 517.191 473.536 523.042 476.819C528.893 480.101 535.536 481.723 542.252 481.508C548.968 481.294 555.501 479.251 561.142 475.602L561.142 475.602L561.151 475.596C567.037 471.618 571.918 466.333 575.411 460.157C578.903 453.981 580.91 447.083 581.275 440.008ZM523.047 441.648L523.033 440.987L523.028 440.989C523.15 437.91 524.006 434.9 525.529 432.208C527.164 429.32 529.512 426.895 532.351 425.165C535.184 423.506 538.423 422.664 541.705 422.734C545.312 422.879 548.83 423.871 551.976 425.629C555.121 427.388 557.804 429.863 559.805 432.853C561.584 435.601 562.557 438.791 562.616 442.064C562.606 445.378 561.742 448.635 560.107 451.525C558.472 454.414 556.121 456.838 553.278 458.564C550.449 460.222 547.214 461.062 543.936 460.991C540.334 460.838 536.821 459.841 533.68 458.082C530.54 456.323 527.86 453.851 525.858 450.866C524.089 448.111 523.117 444.921 523.047 441.648Z" stroke="#C4C4C4"/>
<path d="M457.259 529.778L457.171 530.27C460.72 530.908 464.371 530.555 467.723 529.263C466.716 531.989 466.388 534.924 466.775 537.814L466.775 537.814L466.776 537.825C467.286 541.084 468.721 544.128 470.912 546.596C472.635 548.767 474.892 550.455 477.464 551.496C480.04 552.539 482.843 552.899 485.602 552.54C491.402 551.907 497.57 548.776 504.101 543.228L504.101 543.228L530.371 520.868L530.752 520.543L530.426 520.162L484.371 466.327L484.047 465.948L483.667 466.271L455.906 489.883L455.906 489.883C449.01 495.751 444.804 501.713 443.38 507.778C442.649 510.655 442.646 513.668 443.371 516.544C444.095 519.416 445.523 522.063 447.526 524.247C449.955 527.283 453.348 529.405 457.149 530.265L457.259 529.778ZM487.121 520.438L487.122 520.438L496.474 512.467L504.906 522.324L495.553 530.282C493.429 532.088 491.535 532.946 489.86 532.978C488.209 533.01 486.666 532.241 485.222 530.556C483.779 528.871 483.26 527.23 483.552 525.611C483.847 523.968 484.995 522.239 487.121 520.438ZM475.34 511.339L475.339 511.34C473.164 513.187 471.22 514.065 469.498 514.095C467.8 514.123 466.212 513.328 464.726 511.589L464.346 511.913L464.725 511.587C463.198 509.812 462.633 508.093 462.91 506.405C463.19 504.697 464.349 502.911 466.512 501.057C466.512 501.056 466.513 501.056 466.513 501.056L478.19 491.132L487.021 501.439L475.34 511.339Z" stroke="#C4C4C4"/>
</svg>
