<svg width="120" height="57" viewBox="0 0 120 57" fill="none" xmlns="http://www.w3.org/2000/svg">
<line y1="-1" x2="21.0754" y2="-1" transform="matrix(4.34171e-08 1 1 -4.40077e-08 109.617 35.3164)" stroke="#A5D936" stroke-width="2"/>
<line y1="-1" x2="20.9335" y2="-1" transform="matrix(1 -8.83117e-08 -8.65399e-08 -1 99.0664 45.373)" stroke="#A5D936" stroke-width="2"/>
<line y1="-1" x2="21.0754" y2="-1" transform="matrix(4.34171e-08 1 1 -4.40077e-08 76.5039 35.3184)" stroke="#A5D936" stroke-width="2"/>
<line y1="-1" x2="20.9335" y2="-1" transform="matrix(1 -8.83117e-08 -8.65399e-08 -1 65.9531 45.375)" stroke="#A5D936" stroke-width="2"/>
<line y1="-1" x2="21.0754" y2="-1" transform="matrix(4.34171e-08 1 1 -4.40077e-08 43.3828 35.3164)" stroke="#A5D936" stroke-width="2"/>
<line y1="-1" x2="20.9335" y2="-1" transform="matrix(1 -8.83117e-08 -8.65399e-08 -1 32.832 45.373)" stroke="#A5D936" stroke-width="2"/>
<line y1="-1" x2="21.0754" y2="-1" transform="matrix(4.34171e-08 1 1 -4.40077e-08 109.617 0)" stroke="#A5D936" stroke-width="2"/>
<line y1="-1" x2="20.9335" y2="-1" transform="matrix(1 -8.83117e-08 -8.65399e-08 -1 99.0664 10.0566)" stroke="#A5D936" stroke-width="2"/>
<line y1="-1" x2="21.0754" y2="-1" transform="matrix(4.34171e-08 1 1 -4.40077e-08 76.5039 0)" stroke="#A5D936" stroke-width="2"/>
<line y1="-1" x2="20.9335" y2="-1" transform="matrix(1 -8.83117e-08 -8.65399e-08 -1 65.9531 10.0566)" stroke="#A5D936" stroke-width="2"/>
<line y1="-1" x2="21.0754" y2="-1" transform="matrix(4.34171e-08 1 1 -4.40077e-08 43.3828 0)" stroke="#A5D936" stroke-width="2"/>
<line y1="-1" x2="20.9335" y2="-1" transform="matrix(1 -8.83117e-08 -8.65399e-08 -1 32.832 10.0566)" stroke="#A5D936" stroke-width="2"/>
<line y1="-1" x2="21.0754" y2="-1" transform="matrix(4.34171e-08 1 1 -4.40077e-08 10.5508 0)" stroke="#A5D936" stroke-width="2"/>
<line y1="-1" x2="20.9335" y2="-1" transform="matrix(1 -8.83117e-08 -8.65399e-08 -1 0 10.0566)" stroke="#A5D936" stroke-width="2"/>
</svg>
