<svg width="143" height="128" viewBox="0 0 143 128" fill="none" xmlns="http://www.w3.org/2000/svg">
<path d="M3.00865 97.8853C9.33944 121.512 28.4183 130.815 45.7357 126.175C61.5794 121.929 71.3375 105.289 67.1494 89.6593C62.9614 74.0293 49.0832 66.4499 35.0818 70.2015C32.1342 70.9913 28.9155 72.2434 28.0049 73.2665C27.8147 59.2924 37.3569 40.3729 47.4918 31.0343L22.9412 20.4707C4.28501 42.2219 -4.29611 70.6235 3.00865 97.8853ZM78.1737 77.7449C84.5045 101.372 103.215 110.773 120.532 106.133C136.744 101.789 146.134 85.2477 141.946 69.6176C137.758 53.9876 123.88 46.4082 110.247 50.0611C107.299 50.8509 104.081 52.103 103.17 53.1261C102.611 39.2507 112.522 20.2324 122.657 10.8938L97.7379 0.429014C79.0816 22.1802 70.869 50.4831 78.1737 77.7449Z" fill="#A5D936"/>
</svg>
