<svg width="258" height="257" viewBox="0 0 258 257" fill="none" xmlns="http://www.w3.org/2000/svg">
<path d="M132.983 30.4542C130.995 29.7122 129.153 28.6295 127.537 27.2547L131.218 21.1702C132.595 22.3244 134.132 23.2724 135.782 23.9843C137.46 24.7524 139.245 25.2651 141.075 25.5054C144.455 25.9212 146.244 25.289 146.44 23.609C146.551 22.7217 146.151 22.0068 145.248 21.4592C143.823 20.6818 142.329 20.0368 140.786 19.5324C138.853 18.8822 136.968 18.0995 135.143 17.1898C133.659 16.4266 132.391 15.3019 131.457 13.9194C130.493 12.5098 130.155 10.7284 130.442 8.57514C130.649 6.74869 131.412 5.02985 132.628 3.65173C133.99 2.17109 135.751 1.11479 137.698 0.609459C140.218 -0.0415679 142.844 -0.172684 145.415 0.224104C147.432 0.477201 149.414 0.9586 151.323 1.65904C153.104 2.2904 154.779 3.18791 156.292 4.32103L152.783 10.4968C150.351 8.66582 147.499 7.475 144.488 7.03372C142.748 6.82076 141.445 6.9171 140.588 7.33795C140.203 7.49298 139.866 7.74735 139.611 8.07514C139.357 8.40293 139.193 8.79241 139.138 9.20388C139.037 10.0304 139.432 10.725 140.325 11.2321C141.73 11.9865 143.204 12.6061 144.726 13.0828C146.667 13.7309 148.559 14.5154 150.39 15.4304C151.866 16.196 153.131 17.312 154.076 18.6806C155.059 20.0766 155.416 21.8513 155.146 24.0045C154.94 25.8082 154.18 27.5037 152.97 28.857C151.593 30.3343 149.824 31.3895 147.87 31.8992C145.359 32.5627 142.74 32.7042 140.173 32.315C137.706 32.0051 135.29 31.3797 132.983 30.4542Z" fill="#A5D936"/>
<path d="M162.651 35.3794C160.874 33.1337 159.755 30.4397 159.416 27.5962C159.079 24.6664 159.56 21.7004 160.805 19.0272C161.973 16.3266 163.865 14.0015 166.271 12.3088C168.62 10.6717 171.375 9.71532 174.232 9.54542C177.292 9.36726 180.348 9.95271 183.126 11.2491C185.563 12.3037 187.751 13.8584 189.55 15.8125C191.192 17.6074 192.368 19.7788 192.972 22.1354L185.762 24.483C184.914 21.4407 183.173 19.3246 180.54 18.1348C179.117 17.4655 177.544 17.1772 175.976 17.2981C174.484 17.4295 173.061 17.9895 171.879 18.9105C170.608 19.9184 169.611 21.2296 168.979 22.7235C168.284 24.1884 167.972 25.8055 168.071 27.4238C168.168 28.9178 168.697 30.3515 169.593 31.5512C170.546 32.8144 171.816 33.8042 173.274 34.4211C175.907 35.6008 178.645 35.4909 181.488 34.0915L184.53 41.0329C182.367 42.1491 179.962 42.7168 177.528 42.6859C174.878 42.6439 172.266 42.0408 169.866 40.9163C167.037 39.7014 164.557 37.798 162.651 35.3794Z" fill="#A5D936"/>
<path d="M202.568 23.1978L209.596 28.5319L190.673 53.3771L183.645 48.0278L202.568 23.1978Z" fill="#A5D936"/>
<path d="M216.106 70.7296L210.909 75.1561L194.648 56.0658L218.429 35.8145L234.309 54.4636L229.112 58.8901L218.89 46.8985L214.884 50.3159L223.879 60.8777L218.855 65.1622L209.855 54.5954L205.509 58.2968L216.106 70.7296Z" fill="#A5D936"/>
<path d="M252.749 92.9284L223.848 104.808L221.084 98.08L231.225 78.9998L215.852 85.3531L212.561 77.3469L241.463 65.4668L244.231 72.1902L234.09 91.2754L249.484 84.9424L252.749 92.9284Z" fill="#A5D936"/>
<path d="M226.343 115.426C227.511 112.812 229.38 110.573 231.743 108.956C234.185 107.303 237.037 106.359 239.983 106.228C242.924 106.005 245.87 106.604 248.491 107.957C251.032 109.278 253.156 111.279 254.626 113.738C256.196 116.368 257.088 119.347 257.222 122.408C257.419 125.053 257.06 127.709 256.168 130.206C255.335 132.493 253.952 134.539 252.142 136.164L246.732 130.855C249.044 128.689 250.113 126.167 249.941 123.29C249.874 121.712 249.399 120.178 248.562 118.838C247.755 117.574 246.6 116.57 245.236 115.948C243.755 115.287 242.132 115.008 240.515 115.137C238.895 115.204 237.318 115.675 235.926 116.506C234.646 117.284 233.619 118.416 232.97 119.766C232.294 121.196 232.004 122.778 232.129 124.355C232.301 127.235 233.665 129.611 236.22 131.484L231.474 137.401C229.484 136 227.869 134.132 226.769 131.961C225.586 129.592 224.913 127.001 224.797 124.355C224.561 121.296 225.092 118.227 226.343 115.426Z" fill="#A5D936"/>
<path d="M226.197 165.492L219.565 163.875L225.513 139.537L255.854 146.945L250.043 170.74L243.411 169.123L247.148 153.82L242.032 152.573L238.741 166.05L232.327 164.483L235.618 151.006L230.071 149.652L226.197 165.492Z" fill="#A5D936"/>
<path d="M210.83 180.353C212.462 178.998 214.319 177.939 216.316 177.225L219.769 183.466C218.086 184.081 216.499 184.935 215.059 186.002C213.556 187.076 212.223 188.37 211.104 189.84C209.076 192.544 208.738 194.403 210.09 195.417C210.8 195.955 211.611 195.965 212.544 195.453C213.928 194.605 215.233 193.635 216.443 192.553C217.97 191.2 219.59 189.957 221.29 188.831C222.69 187.923 224.296 187.386 225.96 187.269C227.65 187.137 229.368 187.726 231.112 189.034C232.592 190.123 233.701 191.642 234.286 193.384C234.888 195.304 234.921 197.358 234.382 199.296C233.688 201.804 232.492 204.144 230.868 206.177C229.639 207.808 228.227 209.293 226.66 210.603C225.224 211.836 223.608 212.841 221.868 213.585L218.273 207.46C221.07 206.264 223.523 204.386 225.408 201.999C226.469 200.599 227.032 199.416 227.096 198.45C227.155 198.04 227.104 197.621 226.947 197.238C226.79 196.854 226.533 196.52 226.204 196.269C225.534 195.762 224.754 195.762 223.846 196.269C222.491 197.112 221.218 198.08 220.043 199.159C218.514 200.519 216.891 201.767 215.186 202.896C213.785 203.791 212.187 204.332 210.531 204.473C208.841 204.625 207.124 204.047 205.379 202.739C203.92 201.659 202.83 200.154 202.261 198.429C201.674 196.499 201.646 194.442 202.18 192.497C202.861 189.992 204.046 187.652 205.663 185.621C207.152 183.65 208.889 181.88 210.83 180.353Z" fill="#A5D936"/>
<path d="M191.767 203.631C194.598 203.204 197.491 203.567 200.128 204.68C202.84 205.841 205.176 207.731 206.877 210.141C208.656 212.502 209.742 215.311 210.016 218.254C210.285 221.103 209.758 223.971 208.494 226.539C207.118 229.273 205.085 231.623 202.577 233.379C200.458 234.974 198.027 236.107 195.443 236.705C193.069 237.239 190.6 237.182 188.253 236.538L189.774 229.115C192.847 229.889 195.551 229.427 197.887 227.73C199.177 226.828 200.21 225.604 200.884 224.181C201.512 222.821 201.733 221.308 201.518 219.826C201.277 218.222 200.635 216.704 199.652 215.414C198.722 214.086 197.474 213.012 196.021 212.291C194.674 211.632 193.164 211.381 191.676 211.566C190.108 211.77 188.62 212.38 187.361 213.335C185.035 215.026 183.773 217.458 183.573 220.632L176.033 219.836C176.134 217.404 176.831 215.034 178.062 212.935C179.42 210.659 181.238 208.692 183.401 207.16C185.853 205.307 188.729 204.094 191.767 203.631Z" fill="#A5D936"/>
<path d="M182.518 244.332L174.406 247.775L162.237 219.015L170.349 215.567L182.518 244.332Z" fill="#A5D936"/>
<path d="M134.542 232.425L133.295 225.717L157.953 221.154L163.647 251.86L139.562 256.328L138.32 249.614L153.805 246.744L152.842 241.567L139.202 244.103L137.995 237.612L151.64 235.077L150.595 229.464L134.542 232.425Z" fill="#A5D936"/>
<path d="M97.0534 253.154L101.11 222.184L108.32 223.122L119.84 241.411L121.99 224.907L130.574 226.022L126.518 256.998L119.308 256.055L107.788 237.771L105.633 254.275L97.0534 253.154Z" fill="#A5D936"/>
<path d="M90.6506 219.097C92.338 221.411 93.3508 224.147 93.5763 227.002C93.8004 229.944 93.2017 232.89 91.8473 235.51C90.5771 238.172 88.5938 240.429 86.1177 242.031C83.7078 243.575 80.9172 244.421 78.0557 244.475C74.991 244.533 71.9604 243.825 69.2381 242.416C66.8435 241.276 64.7166 239.643 62.9964 237.625C61.4285 235.764 60.3404 233.548 59.8274 231.17L67.1237 229.111C67.8539 232.201 69.5102 234.385 72.0928 235.662C73.4986 236.395 75.0724 236.745 76.6562 236.677C78.1513 236.608 79.5941 236.106 80.8089 235.231C82.1162 234.275 83.1623 233.006 83.8512 231.54C84.5973 230.1 84.9719 228.497 84.9413 226.875C84.9043 225.379 84.4321 223.925 83.5825 222.692C82.6843 221.394 81.4602 220.355 80.0331 219.68C77.4472 218.396 74.7074 218.396 71.8139 219.68L69.0404 212.627C71.2441 211.595 73.6682 211.121 76.0985 211.248C78.751 211.399 81.3422 212.105 83.7041 213.322C86.4617 214.643 88.8485 216.627 90.6506 219.097Z" fill="#A5D936"/>
<path d="M47.3286 194.028L52.034 189.084L70.1964 206.38L48.652 228.999L30.9054 212.104L35.6108 207.161L47.0193 218.022L50.6497 214.209L40.6001 204.641L45.1635 199.859L55.2131 209.427L59.1529 205.29L47.3286 194.028Z" fill="#A5D936"/>
<path d="M42.0413 173.325C42.4117 175.413 42.4117 177.55 42.0413 179.637L34.9123 179.541C35.2105 177.773 35.2549 175.972 35.0441 174.192C34.8558 172.354 34.3961 170.555 33.6801 168.853C32.328 165.739 30.8813 164.516 29.3399 165.182C28.5185 165.52 28.0993 166.224 28.0824 167.296C28.132 168.918 28.3289 170.532 28.6705 172.118C29.0841 174.115 29.3585 176.137 29.4919 178.172C29.5842 179.838 29.2528 181.501 28.5286 183.004C27.7985 184.546 26.4362 185.744 24.4418 186.599C22.7601 187.341 20.8914 187.55 19.0874 187.197C17.1235 186.762 15.3264 185.771 13.9104 184.343C12.0747 182.499 10.6356 180.299 9.68171 177.878C8.87441 176.001 8.28576 174.038 7.92735 172.027C7.57179 170.169 7.50167 168.267 7.71944 166.388L14.8181 166.307C14.4666 169.328 14.878 172.39 16.0147 175.211C16.6908 176.823 17.4344 177.897 18.2457 178.431C18.5734 178.684 18.9622 178.846 19.3728 178.9C19.7833 178.954 20.2009 178.899 20.5832 178.74C21.3488 178.41 21.7393 177.726 21.7443 176.686C21.6859 175.094 21.4788 173.51 21.1257 171.956C20.7027 169.95 20.4232 167.917 20.2891 165.871C20.2067 164.211 20.5322 162.555 21.2373 161.049C21.9472 159.503 23.301 158.296 25.2937 157.444C26.957 156.712 28.8058 156.512 30.5872 156.871C32.5536 157.319 34.3524 158.316 35.7742 159.746C37.6126 161.578 39.0554 163.768 40.0131 166.18C40.9914 168.466 41.673 170.866 42.0413 173.325Z" fill="#A5D936"/>
<path d="M31.3287 145.234C30.2902 147.899 28.5355 150.226 26.2582 151.957C23.8945 153.728 21.0864 154.809 18.1455 155.081C15.2177 155.444 12.2466 154.989 9.56126 153.767C6.96204 152.568 4.74553 150.673 3.15728 148.291C1.45859 145.74 0.423334 142.805 0.145398 139.753C-0.183187 137.121 0.046638 134.45 0.819808 131.914C1.54089 129.59 2.82249 127.48 4.55165 125.768L10.2153 130.808C8.00459 133.08 7.05643 135.651 7.37079 138.521C7.51235 140.095 8.06295 141.605 8.968 142.901C9.83237 144.125 11.0338 145.071 12.4261 145.624C13.9379 146.212 15.5729 146.413 17.1821 146.207C18.797 146.064 20.3502 145.518 21.6999 144.62C22.9396 143.779 23.9098 142.598 24.4937 141.218C25.0996 139.757 25.3128 138.163 25.1123 136.594C24.8047 133.731 23.3275 131.424 20.6807 129.673L25.1326 123.532C27.1898 124.834 28.8947 126.622 30.0966 128.74C31.395 131.051 32.1931 133.609 32.4391 136.249C32.8183 139.29 32.4367 142.377 31.3287 145.234Z" fill="#A5D936"/>
<path d="M0.640472 116.973L1.69009 108.201L32.701 111.917L31.6514 120.689L0.640472 116.973Z" fill="#A5D936"/>
<path d="M34.8281 81.2313L41.2726 83.4826L33.0027 107.157L3.51296 96.8534L11.5953 73.7271L18.0398 75.9783L12.8426 90.85L17.8167 92.5841L22.3801 79.4871L28.6168 81.6623L24.0534 94.7644L29.4483 96.6455L34.8281 81.2313Z" fill="#A5D936"/>
<path d="M35.5342 38.3896L60.3794 57.343L55.963 63.1233L34.3679 63.9853L47.5968 74.0806L42.3438 80.9612L17.4986 62.0078L21.9149 56.2275L43.51 55.3706L30.271 45.2652L35.5342 38.3896Z" fill="#A5D936"/>
<path d="M68.2373 49.8282C65.3912 50.1463 62.5127 49.6688 59.9217 48.4491C57.2588 47.1838 54.9996 45.2037 53.3961 42.7296C51.704 40.3048 50.7192 37.4574 50.5515 34.5053C50.4089 31.6468 51.058 28.8043 52.4276 26.2912C53.9052 23.5999 56.0315 21.3202 58.6136 19.659C60.79 18.147 63.2605 17.1104 65.8643 16.6167C68.258 16.1751 70.7235 16.3283 73.0441 17.063L71.2086 24.4202C68.1663 23.5244 65.4503 23.8793 63.0604 25.485C61.7313 26.3408 60.6493 27.5295 59.9217 28.9329C59.2389 30.2676 58.9588 31.772 59.1156 33.263C59.2931 34.8752 59.8738 36.4167 60.804 37.7453C61.6821 39.1087 62.8887 40.2298 64.3128 41.0056C65.6316 41.7175 67.1293 42.0293 68.6227 41.9031C70.1966 41.759 71.7062 41.2087 73.0035 40.3059C75.3968 38.7003 76.7489 36.3205 77.0599 33.1667L84.5591 34.2569C84.3612 36.6834 83.5689 39.0239 82.252 41.0715C80.807 43.3032 78.9062 45.204 76.6745 46.649C74.1685 48.3906 71.2694 49.4829 68.2373 49.8282Z" fill="#A5D936"/>
<path d="M111.504 24.6645L113.451 31.2105L89.4175 38.3547L80.5138 8.43904L103.995 1.45703L105.942 8.00299L90.8423 12.4903L92.3634 17.5608L105.663 13.6058L107.549 19.9388L94.2446 23.8887L95.8722 29.3648L111.504 24.6645Z" fill="#A5D936"/>
</svg>
