<svg width="502" height="529" viewBox="0 0 502 529" fill="none" xmlns="http://www.w3.org/2000/svg">
<path d="M4.21642 76.8762L3.26958 78.0703L4.74196 78.4636C14.0045 80.9375 23.4897 82.4853 33.0582 83.0843C44.4714 84.0655 55.9414 84.4313 67.0663 84.2201C77.5693 84.3581 88.0599 83.4385 98.3788 81.4755L98.3966 81.4721L98.4143 81.4681C106.108 79.7135 111.335 77.2295 113.832 73.7178C116.396 70.1107 116.115 65.8536 113.59 61.1442L113.585 61.1339L113.579 61.1238C110.411 55.5313 105.804 50.8887 100.236 47.6781C94.6401 44.3024 88.6205 41.6856 82.335 39.8964L82.3272 39.8942C75.0028 37.8732 67.579 36.2314 60.0855 34.9752L60.0855 34.9752L60.0735 34.9733C54.3804 34.0898 48.7417 32.8872 43.1835 31.3712C39.6817 30.3071 38.0627 28.8658 37.6096 27.2433L37.6064 27.2321L37.603 27.2209C37.372 26.4623 37.425 25.6455 37.7523 24.9234C38.0796 24.2012 38.6588 23.6227 39.3815 23.2964L39.4375 23.271L39.4901 23.239C41.3385 22.1132 44.8077 21.4841 50.1824 21.5989C58.6052 21.7875 68.1991 24.0695 79.928 28.6923L81.4704 29.3002L81.2886 27.6523C80.6275 21.6596 79.4263 15.739 77.7001 9.9625L77.5676 9.5193L77.1441 9.33327C71.3418 6.78458 65.2948 4.83378 59.097 3.51108C53.4981 2.25443 47.7809 1.60292 42.0429 1.56776C35.4649 1.35052 28.9179 2.56316 22.854 5.12206L22.854 5.122L22.8434 5.12663C17.9893 7.24158 13.7598 10.5684 10.5613 14.7879C7.4903 18.7718 5.82484 23.6602 5.82418 28.6902C5.75495 31.4543 6.38703 34.191 7.66211 36.6447C8.93922 39.1023 10.8196 41.1955 13.1263 42.7282L13.1304 42.7308C18.3428 46.1576 24.1765 48.5291 30.3013 49.7113C36.8248 51.1198 44.8753 52.448 54.4814 53.7928L54.4814 53.7929L54.4894 53.7939C60.9175 54.641 67.2884 55.8769 73.567 57.4946C77.5698 58.5857 79.6634 60.1754 80.346 61.8548C80.6537 62.634 80.5564 63.1093 80.277 63.4834C79.933 63.9437 79.1714 64.4426 77.7341 64.8739C74.8829 65.7295 70.0547 66.1277 63.0364 66.1279C55.228 66.0487 47.4353 65.4109 39.7179 64.2194L39.71 64.2181L39.7022 64.2171C32.3691 63.2039 25.1394 61.5463 18.0974 59.2635L17.3852 59.0327L16.9631 59.6509C13.1761 65.1975 8.90849 70.9584 4.21642 76.8762Z" stroke="#126B89" stroke-width="2"/>
<path d="M109.357 25.6845L109.36 25.7L109.362 25.7154C110.685 33.7938 113.796 41.4744 118.468 48.1959C123.987 56.6537 130.964 64.0639 139.075 70.081C147.95 76.7204 157.601 82.2539 167.815 86.5595C177.853 90.9063 188.296 94.2513 198.991 96.5455L198.993 96.546C207.793 98.4138 214.838 99.1398 220.157 98.2833C222.823 97.854 225.059 97.037 226.786 95.7257C228.531 94.4009 229.698 92.6144 230.279 90.3641L230.446 89.7202L229.916 89.3179C222.146 83.4137 213.991 77.4892 205.545 71.7177L204.302 70.8683L204.001 72.3434C203.493 74.8328 202.147 76.3327 199.971 77.0912C197.701 77.8826 194.455 77.8871 190.194 77.0732C184.851 76.0127 179.667 74.2656 174.772 71.8753L174.766 71.8724C169.511 69.3503 164.577 66.2091 160.067 62.5156C155.636 58.862 151.7 54.646 148.359 49.9744L148.348 49.9594L148.337 49.9449C145.527 46.3059 143.455 42.153 142.237 37.7195C141.476 34.2354 141.989 31.7911 143.59 30.1748C145.227 28.521 148.072 27.6359 152.614 27.991L152.616 27.9912C160.206 28.5651 170.005 33.0386 181.573 41.6046L182.872 42.5663L183.153 40.9749C184.095 35.6389 184.601 30.235 184.666 24.8168L184.672 24.3228L184.283 24.0179C175.64 17.2418 166.175 11.5859 156.113 7.18461C148.227 3.61985 139.707 1.67094 131.056 1.45295L131.043 1.45264H131.031C122.3 1.45264 116.496 3.9124 112.958 8.46398C109.455 12.9708 108.453 18.8224 109.357 25.6845Z" stroke="#126B89" stroke-width="2"/>
<path d="M182.807 4.08353L180.726 4.06602L182.013 5.70178C215.772 48.6156 237.905 82.0635 251.322 109.033L251.51 109.41L251.911 109.539C259.362 111.942 266.536 114.421 273.435 116.976L275.659 117.799L274.697 115.632C261.905 86.8312 240.159 50.9143 206.42 4.68595L206.123 4.27975L205.621 4.27551L182.807 4.08353Z" stroke="#126B89" stroke-width="2"/>
<path d="M338.191 118.625L338.04 118.092L337.507 117.938C326.83 114.853 315.833 111.355 304.281 107.663C301.912 101.761 299.269 95.6128 296.352 89.2168C306.034 91.5918 315.457 93.8599 324.664 95.9099L326.43 96.303L325.824 94.5989C322.591 85.5039 318.886 75.9308 314.706 65.8799L314.487 65.353L313.922 65.2736C303.569 63.8188 293.064 62.1777 282.331 60.4595C278.842 53.7257 275.087 46.738 271.067 39.4966C283.288 40.64 295.341 41.7107 307.291 42.6427L308.961 42.7729L308.283 41.2412C303.272 29.9112 297.711 18 291.599 5.5079L291.327 4.95193L290.708 4.94739C269.764 4.79376 248.776 4.63374 227.742 4.46732L225.852 4.45236L226.903 6.02333C259.874 55.307 280.588 93.4515 292.283 123.791L292.441 124.2L292.849 124.361C300.979 127.565 308.772 130.757 316.292 133.838C325.575 137.64 334.443 141.272 343.018 144.547L344.728 145.201L344.353 143.408C342.716 135.587 340.674 127.345 338.191 118.625Z" stroke="#126B89" stroke-width="2"/>
<path d="M388.34 5.99327L388.152 5.23809L387.374 5.23538L365.329 5.15861L363.974 5.1539L364.369 6.44996C372.642 33.6137 379.478 61.1928 384.851 89.0726C368.924 59.9102 350.861 31.9626 330.809 5.45915L330.509 5.0625H330.011H311.365H309.842L310.448 6.46041C336.064 65.5209 350.164 111.793 356.1 148.726L356.195 149.316L356.759 149.512C361.924 151.304 367.071 152.924 372.18 154.351L373.616 154.752L373.443 153.271C370.926 131.832 366.922 110.596 361.459 89.7179C374.717 111.759 386.174 134.838 395.717 158.732L395.934 159.277L396.516 159.353C400.834 159.914 405.168 160.243 409.538 160.378L410.575 160.41L410.569 159.373C410.319 118.353 403.871 68.2293 388.34 5.99327Z" stroke="#126B89" stroke-width="2"/>
<path d="M425.14 129.03L425.143 129.039L425.145 129.047C428.423 139.575 432.283 147.234 437.259 152.039C439.522 154.392 442.431 156.023 445.619 156.724C448.812 157.425 452.142 157.164 455.186 155.972C461.8 153.487 467.622 149.264 472.038 143.749C477.79 136.929 482.447 129.258 485.843 121.008L486.069 120.458L485.695 119.997C481.917 115.342 478.094 110.01 474.103 104.253L473.032 102.708L472.349 104.46C470.077 110.298 467.592 114.856 464.969 118.151C462.345 121.448 459.626 123.429 456.893 124.217L456.881 124.221L456.868 124.225C455.425 124.682 453.882 124.723 452.417 124.342C450.951 123.961 449.623 123.175 448.584 122.073L448.568 122.055L448.551 122.039C446.029 119.607 443.942 115.582 442.272 109.778C440.407 102.852 439.279 95.747 438.908 88.5833L438.908 88.5679L438.906 88.5525C438.27 80.8611 438.442 73.124 439.42 65.4685L439.422 65.455L439.423 65.4416C440.004 59.6453 441.839 54.0449 444.8 49.0285L444.805 49.0204L444.81 49.0122C445.776 47.3027 447.134 45.8461 448.771 44.7617C450.406 43.6791 452.273 42.9983 454.221 42.7745C460.426 42.1927 466.61 47.3227 471.826 57.9849L472.753 59.8804L473.633 57.9623C477.682 49.1353 481.827 40.3479 486.028 31.7534L486.237 31.327L486.038 30.896C482.288 22.7533 476.799 15.5315 469.958 9.73906C464.026 4.5904 456.48 1.67922 448.627 1.51007L448.618 1.50986L448.608 1.50984C439.777 1.48977 432.473 5.71135 427.033 13.9208C421.625 22.0824 418.488 33.4035 417.078 46.9185L417.077 46.9262L417.077 46.9338C415.791 61.4249 416.036 76.0111 417.808 90.4508C419.009 103.516 421.465 116.435 425.14 129.03Z" stroke="#126B89" stroke-width="2"/>
<path d="M564.249 67.1283V65.1162L562.645 66.3312C549.243 76.4846 535.333 85.9501 520.971 94.6913C521.284 88.8694 521.565 83.0447 521.788 77.0762C533.064 71.5336 544.839 64.9738 557.111 57.3984L557.579 57.1097L557.586 56.5601C557.605 55.071 557.626 53.5782 557.647 52.0826C557.712 47.4919 557.778 42.8738 557.778 38.247V36.7092L556.372 37.333C544.752 42.4892 533.524 46.9541 522.467 50.8304C522.556 44.9193 522.56 39.0131 522.56 32.9696C535.483 30.2132 548.607 26.9052 562.022 23.1369L562.751 22.932V22.1742V4.14258V3.11674L561.726 3.1429C540.657 3.68049 519.634 4.10295 498.655 4.41015L497.611 4.42544L497.671 5.468C500.141 48.0056 499.564 90.6654 495.945 133.121L495.781 135.045L497.447 134.068C517.137 122.528 538.904 106.667 563.895 85.52L564.249 85.2204V84.7566V67.1283Z" stroke="#126B89" stroke-width="2"/>
<path d="M2.9205 178.352L4.22642 176.758C10.0284 169.675 15.6642 162.887 21.1338 156.392L21.4635 156.001L21.9739 156.039C30.9729 156.718 40.006 156.82 49.0181 156.345L49.0284 156.345C58.9815 155.924 68.437 155.043 77.3758 153.837C85.8609 152.685 91.9272 151.552 95.8305 150.284C97.7889 149.647 99.1179 149.003 99.9282 148.364C100.713 147.745 100.906 147.225 100.881 146.77C100.846 146.3 100.56 145.79 99.5441 145.291C98.5049 144.781 96.8796 144.384 94.5792 144.129C86.9288 143.463 79.2455 143.253 71.5701 143.499L71.5589 143.5L71.5589 143.5C71.0584 143.51 70.5605 143.521 70.0652 143.531C58.7309 143.768 48.7466 143.977 40.4698 143.903C32.6833 144.006 24.9275 142.903 17.4783 140.634L17.4671 140.63L17.4561 140.627C14.1116 139.522 11.5028 137.93 9.72485 135.821C7.93458 133.697 7.0441 131.117 7.03375 128.159L7.03374 128.155C7.03375 122.857 10.1816 117.724 15.7892 113.097C21.422 108.449 29.5115 104.539 39.7483 101.578L39.7561 101.576L39.7639 101.574C51.5211 98.3786 63.6414 96.7146 75.8246 96.6227C84.9602 96.4199 94.0983 96.9168 103.158 98.1093C111.127 99.1004 118.988 100.817 126.645 103.237L127.763 103.59L127.237 104.638C124.906 109.287 122.324 113.806 119.502 118.175L119.108 118.785L118.405 118.598C105.427 115.146 92.0055 113.655 78.5862 114.176L78.5704 114.177L78.5547 114.177C72.4491 114.222 66.3847 115.18 60.5629 117.019C58.7122 117.753 57.4147 118.513 56.6199 119.259C55.8352 119.995 55.6242 120.628 55.69 121.182C55.7485 121.674 56.0947 122.231 57.2114 122.764C58.3362 123.301 60.0663 123.718 62.4831 123.973C67.3545 124.487 75.0499 124.774 85.2991 125.12C94.6382 125.378 103.956 126.15 113.21 127.433C119.734 128.314 126.089 130.167 132.063 132.932L132.072 132.936L132.08 132.94C137.477 135.559 140.674 139.159 141.145 143.781M2.9205 178.352L141.145 143.781M2.9205 178.352L4.98092 178.391C16.2626 178.607 27.5444 177.962 38.7282 176.464M2.9205 178.352L77.7827 170.909M141.145 143.781C141.562 147.868 139.311 151.36 134.872 154.511C130.426 157.666 123.627 160.411 114.194 163.106L114.187 163.108L114.18 163.11C102.194 166.35 90.0441 168.953 77.7827 170.909M141.145 143.781L77.7827 170.909M77.7827 170.909C65.0328 172.945 52.0175 174.944 38.7282 176.464M38.7282 176.464C38.7314 176.463 38.7347 176.463 38.738 176.462L38.6051 175.471L38.7187 176.465C38.7219 176.465 38.725 176.464 38.7282 176.464Z" stroke="#126B89" stroke-width="2"/>
<path d="M167.062 149.427L167.072 149.434L167.082 149.442C173.937 154.633 181.573 158.701 189.705 161.494C198.846 164.809 208.207 167.483 217.72 169.496C224.972 171.228 232.338 172.447 239.761 173.144C245.063 173.796 250.443 173.297 255.534 171.681L257.06 171.197L255.956 170.038C251.528 165.391 246.659 160.773 241.349 156.184L240.875 155.774L240.3 156.022C235.296 158.18 228.679 158.101 220.091 156.063L220.084 156.062C215.261 154.953 210.565 153.353 206.067 151.289L206.067 151.289L206.057 151.284C202.213 149.572 198.691 147.213 195.644 144.311L195.644 144.311L195.637 144.304C193.219 142.046 191.547 139.105 190.842 135.873L190.837 135.85L190.831 135.828C190.501 134.593 190.463 133.299 190.722 132.048C190.978 130.81 191.517 129.648 192.296 128.653C194.329 126.477 197.092 125.124 200.058 124.85L200.071 124.848L200.084 124.847C204.53 124.321 209.035 124.644 213.361 125.799L213.369 125.801L213.377 125.803C222.163 127.998 230.227 132.439 236.779 138.691L237.226 139.118L237.807 138.909C242.209 137.326 246.312 135.662 250.094 133.859L251.372 133.249L250.37 132.249C244.62 126.506 238.077 121.618 230.94 117.734C223.212 113.509 214.934 110.381 206.344 108.441C197.432 106.188 188.154 105.777 179.078 107.234C172.159 108.203 165.739 111.387 160.779 116.308L160.772 116.314L160.766 116.321C158.683 118.467 157.162 121.095 156.34 123.97C155.519 126.84 155.418 129.867 156.047 132.784C157.162 139.037 160.968 144.567 167.062 149.427Z" stroke="#126B89" stroke-width="2"/>
<path d="M260.733 125.933L258.631 125.142L259.45 127.233C268.865 151.277 270.257 169.521 266.665 185L266.49 185.759L267.182 186.115C273.377 189.307 279.397 192.827 285.217 196.661L286.336 197.399L286.724 196.116C291.601 179.983 291.139 160.675 282.451 135.054L282.308 134.632L281.897 134.456C275.107 131.552 268.104 128.704 260.733 125.933Z" stroke="#126B89" stroke-width="2"/>
<path d="M343.964 228.195L344.161 227.569L343.666 227.139C341.758 225.484 339.827 223.794 337.866 222.077C332.226 217.139 326.332 211.979 320.009 206.797C320.678 203.952 321.206 201.076 321.592 198.179C327.24 202.426 332.57 206.632 337.712 210.688C339.106 211.788 340.486 212.877 341.855 213.952L343.148 214.969L343.455 213.353C344.411 208.312 345.058 203.218 345.391 198.099L345.428 197.53L344.957 197.209C342.826 195.752 340.664 194.264 338.466 192.75C333.363 189.237 328.066 185.59 322.512 181.898C322.445 178.746 322.242 175.468 321.904 172.066C325.534 174.258 329.088 176.433 332.57 178.565C337.546 181.61 342.375 184.566 347.07 187.353L348.611 188.268L348.58 186.476C348.466 179.946 348.022 173.426 347.248 166.941L347.184 166.402L346.697 166.163C340.987 163.35 335.1 160.339 328.98 157.208C320.041 152.635 310.606 147.809 300.504 142.98L298.509 142.026L299.11 144.154C306.673 170.929 305.881 190.643 300.205 206.688L299.966 207.362L300.528 207.806C312.965 217.627 323.525 227.938 333.404 237.583C334.727 238.875 336.038 240.155 337.339 241.42L338.348 242.401L338.943 241.126C340.899 236.93 342.576 232.611 343.964 228.195Z" stroke="#126B89" stroke-width="2"/>
<path d="M409.739 187.158L409.808 186.155L408.804 186.091C404.017 185.788 399.258 185.146 394.561 184.17L393.393 183.928L393.358 185.121C392.917 200.474 391.001 215.744 387.639 230.723C384.298 212.767 379.327 195.15 372.786 178.09L372.627 177.674L372.212 177.515C368.273 175.998 364.288 174.34 360.258 172.542L358.74 171.865L358.853 173.523C361.07 206.178 355.943 230.368 346.756 249.39L346.435 250.054L346.974 250.557C350.676 254.008 354.363 257.232 358.093 260.208L359.073 260.99L359.618 259.861C364.663 249.406 368.457 238.399 370.927 227.068C373.701 241.632 375.397 256.383 375.999 271.2L376.024 271.803L376.568 272.062C379.99 273.693 383.544 275.03 387.193 276.059L388.011 276.29L388.37 275.518C399.102 252.472 407.177 224.027 409.739 187.158Z" stroke="#126B89" stroke-width="2"/>
<path d="M413.406 274.274L413.409 274.276C417.149 277.336 422.497 277.908 429.438 275.863L429.453 275.859L429.467 275.854C436.316 273.604 442.671 270.062 448.188 265.421C454.835 260.033 460.71 253.758 465.651 246.773L466.295 245.863L465.32 245.321C461.963 243.458 458.843 241.198 456.028 238.588L455.192 237.812L454.532 238.743C448.222 247.646 441.941 253.09 436.338 255.024C433.025 256.166 430.776 255.944 429.27 254.883C427.758 253.819 426.828 251.783 426.641 248.463C426.566 244.232 427.135 240.014 428.329 235.955L428.334 235.935L428.339 235.916C429.578 230.981 431.324 226.187 433.549 221.612L433.549 221.612L433.555 221.599C435.487 217.488 438.02 213.688 441.072 210.324L441.072 210.324L441.079 210.316C443.549 207.532 446.633 205.362 450.087 203.977C452.763 202.948 455.015 202.888 456.885 203.618C458.761 204.35 460.412 205.939 461.758 208.521L462.524 209.991L463.467 208.628C468.596 201.217 473.724 193.473 478.851 185.398L479.169 184.897L478.883 184.378C477.732 182.296 476.169 180.47 474.288 179.013C472.407 177.556 470.249 176.498 467.945 175.905L467.928 175.9L467.912 175.897C462.668 174.735 457.194 175.199 452.22 177.227C445.259 179.797 439.051 184.07 434.165 189.655C428.516 196.051 423.849 203.252 420.316 211.02C416.445 219.333 413.372 227.995 411.138 236.889C408.959 244.341 407.855 252.066 407.857 259.83L407.857 259.848L407.858 259.866C408.093 266.26 409.682 271.202 413.406 274.274Z" stroke="#126B89" stroke-width="2"/>
<path d="M564.251 166.984V164.733L562.581 166.242C542.168 184.683 524.045 199.898 507.871 212.28C508.574 208.061 509.271 203.776 509.932 199.425C523.545 188.873 538.497 176.185 555.012 161.215L555.328 160.929L555.34 160.504C555.426 157.622 555.507 154.754 555.587 151.889C555.669 148.955 555.751 146.025 555.84 143.087L555.911 140.712L554.163 142.321C539.227 156.072 525.615 167.805 513.095 177.756C513.662 173.57 514.212 169.325 514.745 165.02C529.031 153.833 544.693 140.3 562.051 124.125L562.366 123.831L562.369 123.4L562.485 105.637L562.499 103.361L560.813 104.889C535.183 128.122 513.162 145.463 493.731 158.041L493.34 158.294L493.282 158.757C489.436 189.657 483.62 220.281 475.869 250.44L475.248 252.858L477.367 251.538C500.97 236.829 529.319 215.362 563.906 185.368L564.251 185.069V184.612V166.984Z" stroke="#126B89" stroke-width="2"/>
<path d="M4.16403 276.66L2.83155 278.69L5.20705 278.187C15.8297 275.939 26.2632 272.876 36.4155 269.026C48.5517 264.698 60.3373 259.968 71.8197 255.283L71.8266 255.28L71.8335 255.277C85.3752 249.515 96.1741 244.588 105.099 239.885C112.296 236.316 119.121 232.044 125.476 227.131L125.493 227.118L125.509 227.104C130.186 223.162 133.336 219.419 134.32 215.606L134.322 215.601C134.87 213.429 134.796 211.456 133.901 209.781C133.007 208.11 131.386 206.906 129.19 206.085L129.17 206.078L129.15 206.071C123.886 204.353 118.336 203.685 112.814 204.104C103.962 204.635 95.1498 205.691 86.4228 207.265C83.9093 207.682 81.5479 208.08 79.3449 208.452C72.7873 209.559 67.6338 210.429 64.053 210.829C61.6749 211.094 60.0192 211.036 59.0094 210.75C58.5126 210.609 58.2565 210.436 58.1325 210.3C58.0317 210.19 57.9718 210.057 57.9812 209.828C58.0045 209.256 58.3651 208.465 59.3727 207.469C60.3609 206.492 61.8653 205.424 63.9157 204.299C69.9762 201.305 76.3938 199.097 83.013 197.727L83.0294 197.724L83.0457 197.72C95.7492 194.644 108.856 193.577 121.89 194.558L122.375 194.594L122.704 194.235C126.236 190.364 129.707 186.641 133.081 183.023C133.921 182.122 134.755 181.228 135.582 180.339L136.873 178.952L134.999 178.669C127.469 177.532 119.842 177.162 112.237 177.564C102.573 178.007 92.9554 179.175 83.4657 181.057C69.7358 183.634 56.344 187.765 43.5487 193.371C33.7769 197.492 24.7468 203.187 16.8178 210.23L16.8041 210.242L16.7909 210.255C10.6189 216.155 7.24594 221.97 7.24518 227.26C7.23518 230.231 8.14352 232.689 10.0223 234.483C11.88 236.256 14.5707 237.269 17.9187 237.608L17.9345 237.61L17.9503 237.611C25.5291 238.138 33.1434 237.482 40.5205 235.667C48.4912 233.934 58.0136 231.597 68.6452 228.988C69.2248 228.846 69.8077 228.703 70.3937 228.559L70.4035 228.557C77.4563 226.751 84.6133 225.38 91.8343 224.453C93.8912 224.245 95.2051 224.334 95.9308 224.603C96.271 224.73 96.3954 224.864 96.4441 224.943C96.4881 225.015 96.5423 225.158 96.4952 225.462C96.3829 226.07 95.9687 226.799 95.0277 227.671C94.0858 228.543 92.6919 229.489 90.7766 230.531C86.9471 232.616 81.2119 234.995 73.3034 237.922L73.3029 237.923C64.9364 241.024 56.1688 243.895 46.8466 246.46L46.8375 246.463C38.4384 248.86 29.8981 250.73 21.266 252.063L20.846 252.128L20.6012 252.475C15.1281 260.243 9.64898 268.304 4.16403 276.66Z" stroke="#126B89" stroke-width="2"/>
<path d="M171.77 224.022L171.778 224.025L171.786 224.027C179.071 225.825 186.508 226.939 193.999 227.356C200.505 227.931 207.037 228.137 213.566 227.973C219.208 227.856 224.82 227.112 230.298 225.755L231.549 225.445L230.938 224.31C228.833 220.407 226.399 216.691 223.662 213.202L223.243 212.668L222.592 212.86C215.88 214.847 208.823 215.386 201.887 214.442L201.869 214.439L201.851 214.437C198.085 214.062 194.388 213.173 190.863 211.793L190.847 211.787L190.831 211.782C188.331 210.901 186.183 209.236 184.707 207.035C184.159 206.055 183.844 204.96 183.789 203.838C183.733 202.703 183.944 201.571 184.404 200.533L184.413 200.513L184.421 200.492C185.514 197.701 187.481 195.338 190.028 193.757L190.028 193.757L190.037 193.751C193.263 191.698 196.899 190.379 200.69 189.886L200.699 189.885L200.707 189.883C205.156 189.229 209.686 189.349 214.094 190.239L214.101 190.24C221.998 191.778 227.429 195.237 230.449 199.85L230.805 200.392L231.445 200.289C237.162 199.371 242.672 198.702 248.012 198.185L249.567 198.035L248.78 196.686C245.968 191.866 241.965 187.849 237.156 185.02C230.771 181.172 223.752 178.491 216.428 177.102C207.054 175.111 197.388 174.907 187.938 176.5C179.496 177.817 171.444 180.964 164.345 185.72L164.337 185.726L164.329 185.731C157.956 190.183 153.941 195.52 152.421 201.227C151.603 203.755 151.498 206.46 152.119 209.044C152.741 211.633 154.067 214 155.95 215.884C159.667 219.738 165.111 222.256 171.77 224.022Z" stroke="#126B89" stroke-width="2"/>
<path d="M264.521 195.156L263.547 194.634L263.124 195.655C257.148 210.073 246.736 222.537 234.52 236.098L233.663 237.049L234.793 237.65C239.813 240.317 244.603 243.396 249.114 246.855L249.805 247.384L250.424 246.774C263.399 233.991 275.059 221.804 282.229 207.095L282.604 206.326L281.903 205.837C276.323 201.94 270.518 198.374 264.521 195.156Z" stroke="#126B89" stroke-width="2"/>
<path d="M302.127 286.511L302.836 285.899L302.271 285.151C301.97 284.753 301.669 284.354 301.368 283.954C295.69 276.434 289.885 268.745 283.538 261.38C285.506 259.62 287.431 257.839 289.311 256.038C294.962 262.562 300.221 269.257 305.37 275.865L306.042 276.727L306.841 275.981C309.737 273.278 312.538 270.497 315.243 267.598L315.837 266.962L315.289 266.286C310.017 259.789 304.533 253.094 298.586 246.545C300.158 244.824 301.642 243.076 303.063 241.276C309.639 248.256 315.693 255.338 321.554 262.196C321.815 262.501 322.076 262.806 322.336 263.11L323.116 264.023L323.872 263.091C326.529 259.82 329.006 256.405 331.291 252.864L331.702 252.226L331.2 251.659C320.454 239.523 308.978 228.053 296.836 217.314L295.899 216.486L295.297 217.582C287.304 232.125 275.002 243.853 261.38 256.13L260.597 256.836L261.343 257.58C271.549 267.769 280.224 279.4 288.876 291.002C289.678 292.077 290.48 293.152 291.283 294.226L291.908 295.062L292.717 294.401C295.89 291.805 299.027 289.187 302.127 286.511Z" stroke="#126B89" stroke-width="2"/>
<path d="M380.287 291.11L380.885 290.066L379.75 289.668C375.515 288.187 371.439 286.285 367.583 283.992L366.735 283.488L366.22 284.328C360.764 293.219 354.607 301.658 347.809 309.565C348.053 305.975 348.346 302.296 348.646 298.532C349.33 289.94 350.05 280.901 350.309 271.456L350.321 270.998L349.983 270.689C346.987 267.961 344.045 265.057 341.076 262.012L340.201 261.114L339.52 262.168C328.605 279.083 314.306 291.81 299.912 303.824L299.166 304.447L299.767 305.211C303.111 309.458 306.551 313.711 310.173 317.584L310.828 318.284L311.555 317.66C318.64 311.575 325.442 305.168 331.94 298.461C331.81 299.521 331.68 300.576 331.551 301.627C330.161 312.912 328.836 323.666 328.607 333.989L328.596 334.513L329.021 334.821C332.72 337.5 336.614 339.9 340.668 342.004L341.353 342.359L341.87 341.787C354.688 327.624 368.459 311.735 380.287 291.11Z" stroke="#126B89" stroke-width="2"/>
<path d="M371.259 321.591L371.259 321.591L371.254 321.599C367.472 326.874 365.138 331.86 365.132 336.701C365.053 339.107 365.607 341.492 366.738 343.617C367.87 345.742 369.539 347.532 371.579 348.81C376.038 351.824 382.509 353.41 391.092 353.119L391.102 353.118L391.111 353.118C399.036 352.699 406.83 350.927 414.156 347.878C421.838 344.749 428.993 340.454 435.366 335.144L436.769 333.975L435.028 333.422C430.733 332.06 426.558 330.347 422.544 328.3L421.972 328.008L421.469 328.407C413.803 334.483 406.106 337.782 399.1 338.489L399.07 338.492L399.041 338.496C395.936 338.997 392.752 338.571 389.888 337.272C389.034 336.859 388.313 336.214 387.807 335.412C387.304 334.613 387.034 333.69 387.027 332.746C387.162 329.975 388.097 327.302 389.719 325.051L389.737 325.026L389.754 324.999C391.725 321.863 394.146 319.033 396.939 316.599L396.939 316.599L396.945 316.593C399.838 314.03 403.045 311.845 406.49 310.092L406.49 310.092L406.497 310.088C409.9 308.32 413.517 307.001 417.258 306.163L417.259 306.163C423.615 304.734 427.952 305.527 430.702 308.549L431.341 309.251L432.075 308.649C438.523 303.371 445.045 297.593 451.641 291.317L452.478 290.522L451.571 289.807C448.18 287.137 443.943 285.774 439.632 285.964C434.005 286.034 428.415 286.873 423.015 288.457C416.08 290.241 409.357 292.762 402.959 295.978C396.68 299.098 390.741 302.86 385.238 307.203C379.932 311.326 375.227 316.168 371.259 321.591Z" stroke="#126B89" stroke-width="2"/>
<path d="M564.248 266.839V265.008L562.707 265.998C539.08 281.179 514.684 295.129 489.617 307.791C489.711 307.315 489.805 306.838 489.899 306.361C490.491 303.35 491.087 300.316 491.702 297.263C509.603 287.678 529.504 275.598 551.72 260.953L552.153 260.667L552.169 260.149L552.687 243.346L552.749 241.329L551.107 242.501C530.602 257.131 512.061 269.266 495.312 279.182C495.98 275.879 496.647 272.555 497.301 269.183C516.1 257.371 537.244 242.525 561.185 224.235L561.575 223.937L561.578 223.447C561.593 221.248 561.615 219.047 561.638 216.845C561.675 213.177 561.713 209.504 561.713 205.831V203.731L560.083 205.055C524.521 233.937 495.475 254.525 471.305 268.43L470.951 268.633L470.841 269.026C466.26 285.328 461.653 300.413 457.294 314.687C454.855 322.672 452.494 330.404 450.259 337.951L449.71 339.806L451.54 339.182C481.926 328.822 518.685 311.525 563.75 285.332L564.248 285.043V284.467V266.839Z" stroke="#126B89" stroke-width="2"/>
<path d="M5.39425 377.983C13.9453 374.314 22.18 369.948 30.0151 364.93C39.5204 359.099 48.7341 352.905 57.771 346.445C66.9599 340.013 75.7995 333.095 84.2521 325.722C90.4164 320.417 96.1193 314.598 101.299 308.328C104.982 304.044 107.869 299.138 109.826 293.839L109.833 293.819L109.84 293.799C110.645 291.295 110.969 289.136 110.627 287.403C110.267 285.578 109.176 284.292 107.408 283.643C104.24 282.482 99.9833 282.655 94.6955 284.138L94.6954 284.138L94.6841 284.141C87.3481 286.292 80.1664 288.938 73.1878 292.06C64.9944 295.656 58.7595 298.343 54.7758 299.709C52.7542 300.402 51.4791 300.628 50.7819 300.535C50.4758 300.494 50.4118 300.409 50.4045 300.399L50.4042 300.399C50.3883 300.378 50.308 300.254 50.3366 299.864C50.3927 299.1 50.8124 298.12 51.7589 296.882C52.6931 295.659 54.0712 294.274 55.8936 292.706C60.989 288.608 66.5381 285.108 72.4319 282.277L72.4503 282.268L72.4682 282.258C82.4292 276.963 93.2343 273.439 104.401 271.842L104.814 271.783L105.062 271.449C109.597 265.356 114.156 259.545 118.74 254.016L120.179 252.281L117.927 252.378C111.572 252.653 105.278 253.731 99.1941 255.587C90.6906 258.036 82.3851 261.128 74.3494 264.834C61.8607 270.449 49.9836 277.335 38.9055 285.383C29.9736 291.709 21.9538 299.234 15.0719 307.746L15.0637 307.756L15.0557 307.766C9.59924 314.887 6.70872 321.269 6.70745 326.499C6.68779 329.443 7.42567 331.792 9.07875 333.329C10.7323 334.867 13.0979 335.403 15.9094 335.18L15.9285 335.179L15.9476 335.176C22.4394 334.41 28.744 332.499 34.5692 329.533C41.4213 326.337 49.6705 322.145 58.819 317.485L58.8268 317.481L58.8345 317.476C64.3612 314.538 70.0879 311.993 75.972 309.858C76.7573 309.605 77.3885 309.462 77.88 309.408C78.3872 309.352 78.6682 309.401 78.802 309.454C78.8888 309.488 78.8962 309.51 78.91 309.551L78.9103 309.552C78.9414 309.643 78.9716 309.869 78.878 310.303C78.4606 312.039 76.9053 314.218 73.7121 317.086C70.5465 319.928 65.9149 323.323 59.5981 327.512L59.5961 327.514C52.9334 331.955 45.9768 336.236 38.5694 340.054L38.5592 340.059L38.5492 340.065C31.9565 343.656 25.1204 346.78 18.091 349.416L17.7364 349.549L17.5588 349.883C12.9231 358.616 8.4619 367.558 4.0988 376.63L2.94255 379.034L5.39425 377.983Z" fill="#126B89" stroke="#126B89" stroke-width="2"/>
<path d="M125.834 290.234L125.841 290.246L125.847 290.258C126.948 292.316 128.516 294.087 130.424 295.431C132.327 296.771 134.517 297.648 136.819 297.993C142.59 299.055 148.513 298.982 154.257 297.779C159.861 296.868 165.353 295.37 170.644 293.311L170.646 293.31C175.888 291.257 180.896 288.649 185.583 285.53L186.195 285.123L185.989 284.418C184.891 280.646 183.548 276.948 181.97 273.35L181.48 272.233L180.48 272.933C175.113 276.694 168.94 279.148 162.455 280.098L162.444 280.1L162.434 280.101C159.732 280.556 156.96 280.314 154.378 279.399C153.504 279.072 152.732 278.521 152.138 277.802C151.548 277.089 151.154 276.234 150.994 275.322C150.695 272.524 151.284 269.703 152.677 267.257L152.692 267.231L152.705 267.205C154.425 263.721 156.805 260.603 159.711 258.024L159.711 258.024L159.717 258.018C162.803 255.236 166.349 253.011 170.197 251.443L170.197 251.443L170.205 251.439C173.837 249.925 177.731 249.136 181.667 249.116C184.836 249.145 187.222 249.788 188.925 250.886C190.608 251.972 191.701 253.549 192.221 255.618L192.499 256.726L193.56 256.304C198.937 254.167 204.439 252.359 210.036 250.888L210.888 250.664L210.773 249.79C210.5 247.723 209.779 245.741 208.659 243.983C207.539 242.224 206.048 240.732 204.29 239.611L204.283 239.607L204.276 239.602C199.428 236.62 193.843 235.052 188.151 235.076C179.541 234.846 170.982 236.456 163.044 239.799C154.599 243.218 146.848 248.148 140.17 254.347C134.177 259.69 129.491 266.339 126.474 273.78L126.474 273.78L126.471 273.788C123.818 280.508 123.742 286.048 125.834 290.234Z" fill="#126B89" stroke="#126B89" stroke-width="2"/>
<path d="M226.884 245.766L226.201 245.418L225.687 245.986C212.906 260.133 199.155 276.155 187.348 296.759L186.741 297.819L187.9 298.205C192.236 299.65 196.408 301.552 200.343 303.878L201.194 304.381L201.706 303.536C213.468 284.156 227.603 269.519 241.04 256.082L241.851 255.271L240.937 254.578C236.521 251.233 231.818 248.284 226.884 245.766Z" fill="#126B89" stroke="#126B89" stroke-width="2"/>
<path d="M251.266 332.472L251.798 331.817L251.241 331.182C249.245 328.907 247.274 326.626 245.319 324.363C240.894 319.243 236.546 314.21 232.149 309.531C234.016 307.209 235.947 304.971 237.91 302.784C243.105 308.599 248.193 314.858 253.439 321.315L254.174 322.219L254.956 321.356C257.537 318.509 260.391 315.788 263.267 313.122L263.94 312.499L263.377 311.775L262.952 311.229C257.948 304.789 253.036 298.468 247.93 292.521C249.802 290.733 251.685 288.981 253.581 287.265C258.71 293.358 263.638 299.839 268.65 306.431C269.422 307.445 270.195 308.462 270.971 309.481L271.615 310.325L272.419 309.632C275.465 307.008 278.588 304.402 281.732 301.833L282.475 301.227L281.899 300.459C281.06 299.339 280.221 298.216 279.382 297.094C270.995 285.872 262.597 274.636 252.885 264.96L252.212 264.289L251.508 264.927C237.516 277.612 223.009 291.59 211.277 310.165L210.798 310.922L211.499 311.481C221.011 319.067 229.893 328.674 239.467 339.03C240.507 340.155 241.555 341.289 242.613 342.43L243.494 343.38L244.19 342.287C246.357 338.882 248.72 335.604 251.266 332.472Z" fill="#126B89" stroke="#126B89" stroke-width="2"/>
<path d="M332.938 351.715L333.796 350.77L332.672 350.163C327.778 347.522 323.11 344.482 318.715 341.074L318.035 340.546L317.412 341.141C311.204 347.075 305.29 353.309 299.693 359.821C298.221 347.893 298.371 335.817 300.138 323.922L300.207 323.46L299.897 323.111C296.859 319.691 293.953 316.174 291.121 312.576L290.485 311.768L289.695 312.426C275.467 324.272 261.887 336.232 252.364 351.749L251.957 352.412L252.499 352.969C256.484 357.07 260.646 361.174 265.06 365.222L265.967 366.054L266.596 364.997C270.817 357.901 275.833 351.314 281.546 345.36C281.525 358.285 283.729 371.125 288.068 383.313L288.176 383.618L288.443 383.802C292.944 386.897 297.77 389.822 302.921 392.578L303.895 393.099L304.317 392.078C310.273 377.662 320.742 365.16 332.938 351.715Z" fill="#126B89" stroke="#126B89" stroke-width="2"/>
<path d="M339.863 404.862L339.863 404.862L339.873 404.868C347.576 409.396 356.129 412.29 364.999 413.369C373.728 414.665 382.604 414.599 391.312 413.173C399.189 411.931 406.78 409.291 413.727 405.376L415.574 404.336L413.596 403.572C406.987 401.02 400.874 398.387 395.256 395.674L394.806 395.456L394.362 395.686C386.691 399.648 378.011 401.229 369.435 400.228L369.422 400.226L369.408 400.225C365.087 399.841 360.877 398.651 356.995 396.716L356.98 396.709L356.965 396.702C354.362 395.512 352.234 393.482 350.923 390.939C350.48 389.933 350.284 388.835 350.351 387.738C350.418 386.631 350.75 385.557 351.32 384.606L351.325 384.597L351.331 384.587C352.728 382.134 354.827 380.154 357.358 378.901L357.366 378.897L357.375 378.892C360.568 377.235 364.011 376.114 367.568 375.575L367.568 375.576L367.58 375.573C371.879 374.866 376.238 374.594 380.591 374.76V374.76L380.601 374.761C388.647 374.988 394.988 376.505 399.868 379.972L400.336 380.305L400.86 380.068C408.048 376.811 415.447 373.092 423.056 368.855L424.661 367.96L423.038 367.098C417.966 364.402 412.414 362.726 406.698 362.167C399.649 361.358 392.554 361.022 385.461 361.162C377.417 361.132 369.379 361.596 361.392 362.551C354.682 363.253 348.091 364.82 341.784 367.214C336.526 369.067 331.969 372.499 328.735 377.041L328.735 377.041L328.729 377.05C327.3 379.102 326.413 381.483 326.15 383.97C325.888 386.455 326.257 388.966 327.223 391.27C329.206 396.2 333.372 400.939 339.863 404.862Z" fill="#126B89" stroke="#126B89" stroke-width="2"/>
<path d="M564.249 366.694V365.269L562.909 365.754C534.816 375.917 506.131 384.36 477.012 391.034C477.264 387.754 477.566 384.482 477.896 381.196C502.092 374.833 525.933 367.189 549.318 358.296L549.955 358.054L549.962 357.372C549.985 355.186 550.027 352.99 550.068 350.79C550.13 347.479 550.193 344.158 550.193 340.847V339.333L548.8 339.927C526.24 349.547 503.196 357.99 479.761 365.222C480.16 362.249 480.58 359.264 481.02 356.266C508.07 346.956 534.566 336.108 560.378 323.775L560.94 323.507L560.946 322.884C561.01 317.043 561.043 311.201 561.043 305.36V303.711L559.581 304.473C514.434 327.996 477.34 343.232 446.697 352.099L446.16 352.255L446.011 352.795C440.396 373.216 436.172 392.529 434.763 412.133L434.679 413.312L435.855 413.2C471.255 409.832 513.169 401.134 563.55 385.276L564.249 385.056V384.322V366.694Z" fill="#126B89" stroke="#126B89" stroke-width="2"/>
<path d="M5.37758 477.845C11.6541 475.286 17.6689 472.126 23.3382 468.411C30.5502 463.952 37.5164 459.108 44.2075 453.9C51.6604 448.226 58.5 441.788 64.6144 434.692L64.6163 434.689C69.8121 428.624 74.2485 421.947 77.8267 414.807C80.8511 408.858 83.0151 402.51 84.2538 395.953L84.2551 395.946L84.2564 395.939C84.8491 392.538 85.0575 389.688 84.8152 387.428C84.5741 385.179 83.8684 383.361 82.4782 382.239C79.9022 380.16 76.4482 380.06 72.3331 381.538L72.3184 381.543L72.3039 381.549C66.5975 383.802 61.1218 386.601 55.9537 389.907C49.7341 393.681 45.0643 396.508 42.1612 397.922C41.457 398.265 40.883 398.484 40.4297 398.597C39.9636 398.715 39.7067 398.7 39.5914 398.67C39.5298 398.654 39.5254 398.646 39.5042 398.6C39.4593 398.502 39.402 398.26 39.447 397.781C39.629 395.846 41.0159 393.089 43.8533 389.507C47.6037 385.062 51.8489 381.06 56.5059 377.577L56.5136 377.571L56.5211 377.565C65.3647 370.685 73.5066 366.605 80.5171 365.434L81.0287 365.348L81.2535 364.881C84.9851 357.124 88.8186 349.604 92.7539 342.321L93.6876 340.593L91.7409 340.855C86.712 341.53 81.8546 343.144 77.4212 345.612C70.7074 349.085 64.2996 353.12 58.266 357.674C48.355 365.002 39.1604 373.253 30.8063 382.316C23.7498 389.808 17.5833 398.091 12.4297 407L12.4245 407.009L12.4195 407.018C8.24155 414.6 6.09377 421.056 6.09282 426.22C6.07341 429.128 6.61727 431.432 7.83897 432.983C9.11078 434.596 10.9757 435.22 13.1498 435.035L13.1728 435.033L13.1956 435.03C18.1366 434.38 22.8675 432.625 27.0366 429.895C31.9688 426.969 37.8796 423.171 44.5199 418.905L45.0599 418.558L45.0711 418.55L45.0822 418.543C49.068 415.829 53.3331 413.549 57.8045 411.744C58.984 411.362 59.3613 411.564 59.4484 411.644C59.5696 411.755 59.8085 412.196 59.6217 413.504C59.2813 415.887 58.0473 418.474 55.6621 421.447C53.2765 424.422 49.7826 427.73 45.0085 431.549L45.0012 431.555C40.0607 435.585 34.8316 439.247 29.3556 442.513L29.3481 442.517L29.3407 442.522C24.5824 445.473 19.5833 448.016 14.3971 450.127L13.9979 450.289L13.8419 450.691C10.4598 459.396 7.19343 468.062 4.06151 476.574L3.27886 478.701L5.37758 477.845Z" stroke="#126B89" stroke-width="2"/>
<path d="M107.21 407.088L107.227 407.097L107.245 407.107C112.58 409.801 118.765 410.272 124.446 408.419C130.174 406.781 135.418 403.775 139.726 399.659L139.731 399.654C144.59 394.95 148.65 389.485 151.753 383.476L151.969 383.057L151.784 382.624C149.422 377.093 147.192 371.902 145.018 367.035L144.251 365.319L143.256 366.914C138.256 374.93 133.397 379.585 128.361 380.978L128.321 380.989L128.283 381.003C127.119 381.43 125.873 381.584 124.64 381.453C123.423 381.325 122.252 380.922 121.213 380.276C120.152 379.446 119.274 378.405 118.634 377.219C117.986 376.019 117.595 374.696 117.488 373.337L117.486 373.313L117.483 373.29C116.939 368.991 117.256 364.627 118.415 360.452L118.42 360.434L118.424 360.416C119.605 355.448 121.51 350.68 124.076 346.266L124.076 346.266L124.081 346.258C126.373 342.23 129.301 338.599 132.751 335.504L132.76 335.496L132.769 335.488C135.417 332.998 138.635 331.196 142.141 330.238C144.679 329.654 146.503 329.994 147.845 331.02C149.228 332.078 150.295 334.012 150.963 337.031L151.367 338.851L152.66 337.508C157.313 332.677 161.917 328.315 166.473 324.421L166.885 324.069L166.815 323.531C166.161 318.514 164.41 314.677 161.158 312.138C157.873 309.573 153.371 308.838 147.628 310.027L147.606 310.031L147.585 310.036C139.918 311.972 132.833 315.735 126.935 321.004C119.491 327.259 113.098 334.668 108 342.948C102.719 351.26 98.9081 360.42 96.7354 370.026L96.7334 370.035L96.7316 370.044C94.7941 379.382 94.7672 387.184 96.7487 393.564C97.4857 396.405 98.7908 399.067 100.585 401.389C102.385 403.718 104.638 405.657 107.21 407.088Z" stroke="#126B89" stroke-width="2"/>
<path d="M180.355 311.903L179.539 311.681L179.185 312.449C168.532 335.55 160.419 364.05 157.742 400.88L157.668 401.891L158.681 401.95C163.569 402.238 168.432 402.874 173.23 403.852L174.385 404.088L174.429 402.91C175.769 367.125 183.191 339.955 193.668 318.199L194.092 317.319L193.222 316.874C189.116 314.778 184.804 313.112 180.355 311.903Z" stroke="#126B89" stroke-width="2"/>
<path d="M228.83 405.901L228.807 405.368L228.351 405.09C219.492 399.703 211.105 394.724 202.9 390.47C203.144 385.824 203.538 381.364 204.082 377.09C210.392 380.901 216.821 385.237 223.536 389.887L224.985 390.891L225.103 389.132C225.439 384.133 226.075 379.158 227.008 374.235L227.121 373.641L226.647 373.265C220.069 368.047 213.759 363.12 207.505 358.744C208.377 355.408 209.327 352.195 210.354 349.106C216.58 353.982 222.872 359.484 229.512 365.289C229.909 365.636 230.307 365.984 230.706 366.333L231.877 367.356L232.322 365.867C233.582 361.655 235.125 357.534 236.941 353.531L237.231 352.892L236.729 352.402C236.013 351.703 235.301 351.008 234.592 350.316C224.394 340.352 214.907 331.085 204.887 323.959L203.927 323.276L203.409 324.335C193.176 345.285 186.524 371.592 186.524 406.54V407.271L187.221 407.493C200.753 411.806 214.345 418.284 229.166 425.771L230.884 426.639L230.607 424.735C229.698 418.491 229.106 412.205 228.83 405.901Z" stroke="#126B89" stroke-width="2"/>
<path d="M300.776 402.668L300.961 401.908L300.269 401.545C294.266 398.398 288.431 394.942 282.787 391.19L281.657 390.439L281.274 391.741C278.873 399.909 277.831 408.407 278.181 416.896C269.673 403.513 263.292 388.883 259.274 373.527L259.195 373.225L258.958 373.021C255.151 369.75 251.513 366.438 247.986 363.141L246.941 362.164L246.383 363.481C238.991 380.908 236.538 402.606 242.232 431.963L242.324 432.44L242.756 432.662C248.137 435.43 253.723 438.248 259.514 441.118L261.506 442.105L260.923 439.96C257.908 428.865 256.345 417.433 256.271 405.948C265.013 423.453 275.94 439.785 288.796 454.551L288.945 454.723L289.155 454.813C294.66 457.181 300.454 459.529 306.48 461.801L308.578 462.592L307.764 460.502C298.386 436.418 296.997 418.14 300.776 402.668Z" stroke="#126B89" stroke-width="2"/>
<path d="M324.249 454.365L324.248 454.365L324.254 454.371C330.576 461.402 338.04 467.315 346.331 471.862C355.552 476.951 365.529 480.532 375.882 482.47C384.187 484.228 392.724 484.615 401.154 483.616C407.748 482.896 414.057 480.54 419.508 476.761L420.919 475.783L419.372 475.038C410.973 470.999 402.94 466.928 395.272 462.825L394.757 462.55L394.263 462.864C388.567 466.49 381.165 467.609 371.732 465.817C366.509 464.82 361.458 463.066 356.741 460.612L356.741 460.612L356.732 460.607C352.644 458.534 348.949 455.764 345.813 452.423L345.804 452.414L345.795 452.404C343.348 449.928 341.643 446.815 340.874 443.419L340.87 443.401L340.866 443.384C340.57 442.268 340.579 441.093 340.892 439.982C341.2 438.888 341.791 437.896 342.605 437.104C344.971 435.321 347.849 434.347 350.813 434.328L350.835 434.328L350.857 434.327C355.529 434.09 360.214 434.426 364.805 435.327L364.823 435.331L364.842 435.334C373.919 436.764 382.607 440.042 390.367 444.965L390.783 445.229L391.246 445.059C397.706 442.694 404.552 440.098 411.783 437.194L413.723 436.415L411.9 435.394C405.019 431.539 397.676 428.578 390.046 426.582C381.465 424.251 372.76 422.405 363.973 421.051C355.151 419.441 346.208 418.582 337.241 418.483L337.227 418.483L337.212 418.483C329.735 418.618 323.806 419.695 319.639 422.493C317.536 423.906 315.997 425.699 315.104 427.93C314.214 430.152 313.995 432.736 314.406 435.693C315.229 441.621 318.585 447.962 324.249 454.365Z" stroke="#126B89" stroke-width="2"/>
<path d="M564.25 466.549V465.391L563.104 465.56C535.831 469.587 508.359 472.124 480.81 473.161C480.161 469.659 479.592 466.171 479.079 462.706C500.647 461.49 524.035 459.007 549.461 455.075L550.326 454.941L550.308 454.066C550.193 448.536 550.084 443.026 549.982 437.534L549.96 436.348L548.794 436.571C525.1 441.1 501.192 444.431 477.162 446.552C476.875 443.475 476.651 440.42 476.469 437.365C504.568 434.173 532.459 429.355 560.001 422.934L560.774 422.754V421.96V421.926V421.892V421.858V421.823V421.789V421.755V421.721V421.686V421.652V421.618V421.584V421.55V421.515V421.481V421.447V421.413V421.378V421.344V421.31V421.276V421.242V421.207V421.173V421.139V421.105V421.07V421.036V421.002V420.968V420.933V420.899V420.865V420.831V420.796V420.762V420.728V420.694V420.659V420.625V420.591V420.557V420.522V420.488V420.454V420.42V420.385V420.351V420.317V420.283V420.248V420.214V420.18V420.146V420.111V420.077V420.043V420.009V419.974V419.94V419.906V419.872V419.837V419.803V419.769V419.734V419.7V419.666V419.632V419.597V419.563V419.529V419.494V419.46V419.426V419.392V419.357V419.323V419.289V419.255V419.22V419.186V419.152V419.117V419.083V419.049V419.015V418.98V418.946V418.912V418.877V418.843V418.809V418.775V418.74V418.706V418.672V418.637V418.603V418.569V418.534V418.5V418.466V418.432V418.397V418.363V418.329V418.294V418.26V418.226V418.192V418.157V418.123V418.089V418.054V418.02V417.986V417.951V417.917V417.883V417.849V417.814V417.78V417.746V417.711V417.677V417.643V417.608V417.574V417.54V417.505V417.471V417.437V417.403V417.368V417.334V417.3V417.265V417.231V417.197V417.162V417.128V417.094V417.06V417.025V416.991V416.957V416.922V416.888V416.854V416.819V416.785V416.751V416.716V416.682V416.648V416.614V416.579V416.545V416.511V416.476V416.442V416.408V416.373V416.339V416.305V416.27V416.236V416.202V416.168V416.133V416.099V416.065V416.03V415.996V415.962V415.927V415.893V415.859V415.825V415.79V415.756V415.722V415.687V415.653V415.619V415.584V415.55V415.516V415.481V415.447V415.413V415.379V415.344V415.31V415.276V415.241V415.207V415.173V415.138V415.104V415.07V415.036V415.001V414.967V414.933V414.898V414.864V414.83V414.796V414.761V414.727V414.693V414.658V414.624V414.59V414.555V414.521V414.487V414.453V414.418V414.384V414.35V414.315V414.281V414.247V414.213V414.178V414.144V414.11V414.075V414.041V414.007V413.973V413.938V413.904V413.87V413.836V413.801V413.767V413.733V413.698V413.664V413.63V413.596V413.561V413.527V413.493V413.459V413.424V413.39V413.356V413.321V413.287V413.253V413.219V413.184V413.15V413.116V413.082V413.047V413.013V412.979V412.945V412.91V412.876V412.842V412.808V412.773V412.739V412.705V412.671V412.636V412.602V412.568V412.534V412.499V412.465V412.431V412.397V412.362V412.328V412.294V412.26V412.225V412.191V412.157V412.123V412.089V412.054V412.02V411.986V411.952V411.917V411.883V411.849V411.815V411.781V411.746V411.712V411.678V411.644V411.609V411.575V411.541V411.507V411.473V411.438V411.404V411.37V411.336V411.302V411.267V411.233V411.199V411.165V411.131V411.096V411.062V411.028V410.994V410.96V410.926V410.891V410.857V410.823V410.789V410.755V410.72V410.686V410.652V410.618V410.584V410.55V410.515V410.481V410.447V410.413V410.379V410.345V410.31V410.276V410.242V410.208V410.174V410.14V410.106V410.071V410.037V410.003V409.969V409.935V409.901V409.867V409.832V409.798V409.764V409.73V409.696V409.662V409.628V409.593V409.559V409.525V409.491V409.457V409.423V409.389V409.355V409.321V409.286V409.252V409.218V409.184V409.15V409.116V409.082V409.048V409.014V408.98V408.945V408.911V408.877V408.843V408.809V408.775V408.741V408.707V408.673V408.639V408.605V408.571V408.537V408.503V408.468V408.434V408.4V408.366V408.332V408.298V408.264V408.23V408.196V408.162V408.128V408.094V408.06V408.026V407.992V407.958V407.924V407.89V407.856V407.822V407.788V407.754V407.72V407.686V407.652V407.618V407.584V407.55V407.516V407.482V407.448V407.414V407.38V407.346V407.312V407.278V407.244V407.21V407.176V407.142V407.108V407.074V407.04V407.006V406.972V406.938V406.904V406.87V406.836V406.802V406.768V406.734V406.7V406.666V406.633V406.599V406.565V406.531V406.497V406.463V406.429V406.395V406.361V406.327V406.293V406.259V406.226V406.192V406.158V406.124V406.09V406.056V406.022V405.988V405.954V405.921V405.887V405.853V405.819V405.785V405.751V405.717V405.683V405.65V405.616V405.582V405.548V405.514V405.48V405.446V405.413V405.379V405.345V405.311V405.277V405.243V405.21V405.176V405.142V405.108V405.074V405.041V405.007V404.973V404.939V404.905V404.872V404.838V404.804V404.77V404.736V404.703V404.669V404.635V404.601V404.568V404.534V404.5V404.466V403.165L559.516 403.5C510.83 416.487 469.919 423.175 435.184 425.225L434.24 425.281L434.243 426.227C434.314 447.603 437.948 468.819 444.995 489.001L445.218 489.641L445.896 489.67C485.111 491.363 524.399 489.859 563.369 485.171L564.25 485.065V484.178V466.549Z" stroke="#126B89" stroke-width="2"/>
<path d="M4.07887 576.385L3.72203 577.23L4.53234 577.658C9.35208 580.208 14.4391 582.218 19.7004 583.65C25.9448 585.563 32.425 586.597 38.9548 586.723C46.1338 587.074 53.2092 584.897 58.948 580.569L58.9674 580.554L58.986 580.538C64.49 575.952 68.5148 569.84 70.5548 562.972C72.9601 555.335 74.0716 547.349 73.8434 539.345C73.6695 529.764 72.3058 522.586 69.5089 518.046C66.76 513.584 63.4159 510.948 59.365 510.231L59.3451 510.227L59.325 510.225C54.4482 509.563 49.491 509.817 44.7073 510.973L44.7073 510.973L44.6978 510.976C41.0133 511.904 37.2599 512.536 33.4745 512.865C32.4623 512.859 31.9355 512.598 31.6349 512.26C31.3118 511.897 31.0665 511.243 31.0601 510.072C31.3441 507.194 32.4548 504.46 34.2592 502.2L34.2638 502.194L34.2683 502.188C36.9364 498.743 40.2294 495.83 43.9748 493.602L43.984 493.596L43.9931 493.591C50.9339 489.257 57.4773 487.928 63.8311 490.318L64.8561 490.703L65.1471 489.648C67.7184 480.322 70.373 471.093 73.1105 461.959L73.3892 461.029L72.4682 460.723C68.3484 459.353 63.8787 459.473 59.8387 461.062C54.3335 463.017 49.1558 465.793 44.4819 469.298C36.7631 474.92 29.7883 481.498 23.7242 488.874C18.3649 495.153 13.8071 502.075 10.1559 509.479C7.37782 514.864 5.80219 520.788 5.53728 526.842L5.5364 526.862L5.53633 526.882C5.51659 532.726 7.10117 536.617 10.5286 538.704L10.5286 538.704L10.5395 538.711C13.8878 540.692 17.7436 541.648 21.6297 541.461C25.7097 541.345 30.7072 540.958 36.5898 540.499L36.6081 540.497L36.6264 540.495C40.346 540.066 44.1135 540.377 47.7122 541.41C48.6581 541.786 49.3478 542.408 49.819 543.299C50.3088 544.224 50.5863 545.488 50.5863 547.144C50.5863 550.31 49.6222 552.788 47.725 554.685C45.8031 556.607 42.8327 558.024 38.6608 558.856C34.2209 559.716 29.6677 559.817 25.194 559.156L25.1823 559.154L25.1705 559.152C20.994 558.636 16.886 557.667 12.9185 556.264L11.983 555.933L11.6449 556.866C9.09436 563.904 6.58536 570.454 4.07887 576.385Z" stroke="#126B89" stroke-width="2"/>
<path d="M106.252 575.19L106.259 575.197L106.267 575.205C113.727 582.489 122.141 586.662 130.939 586.685C134.626 586.756 138.277 585.957 141.596 584.351C144.913 582.746 147.805 580.382 150.036 577.451C154.988 571.363 158.138 562.645 159.84 551.89L159.901 551.503L159.683 551.178C153.449 541.855 147.732 532.953 142.417 524.472L141.14 522.435L140.595 524.777C139.102 531.197 137.153 536.035 134.792 539.3C132.451 542.536 129.746 544.179 126.673 544.379C124.697 544.46 122.729 544.096 120.913 543.316C119.092 542.534 117.471 541.354 116.168 539.862L116.16 539.851L116.151 539.842C112.385 535.756 109.622 530.851 108.08 525.513L108.077 525.504L108.075 525.495C105.934 518.589 104.81 511.407 104.74 504.178L104.739 504.166L104.739 504.154C104.5 497.003 105.221 489.852 106.882 482.893L106.883 482.893L106.885 482.881C108.096 477.512 110.299 472.417 113.382 467.859L113.391 467.845L113.4 467.831C115.418 464.628 118.545 462.282 122.184 461.242C124.76 460.704 127.091 461.363 129.374 463.419C131.717 465.528 133.99 469.098 136.275 474.324L137.201 476.442L138.11 474.317C141.585 466.197 144.98 458.39 148.374 450.969L148.552 450.581L148.394 450.184C145.222 442.215 141.671 436.426 137.277 432.812C135.179 431.022 132.663 429.791 129.963 429.234C127.266 428.678 124.474 428.811 121.842 429.621C115.183 431.373 108.817 436.276 102.987 443.816L102.987 443.816L102.979 443.827C96.5178 452.422 91.5694 462.055 88.3465 472.313C84.4388 484.327 82.478 496.888 82.5381 509.52C82.341 522.252 84.4417 534.914 88.7396 546.9C92.4034 557.514 98.3858 567.178 106.252 575.19Z" stroke="#126B89" stroke-width="2"/>
<path d="M157.977 427.739L156.947 427.712L156.951 428.743C157.124 469.8 163.476 519.924 178.833 582.14L179.021 582.901H179.804H202.425H203.765L203.384 581.616C184.946 519.568 176.363 470.089 174.62 430.001L174.584 429.17L173.761 429.054C168.529 428.314 163.259 427.875 157.977 427.739Z" stroke="#126B89" stroke-width="2"/>
<path d="M272.249 546.928L272.004 546.409L271.431 546.359C258.575 545.251 245.818 544.353 233.159 543.666C229.868 534.41 226.856 525.517 224.125 516.987C233.824 518.067 243.6 519.37 253.551 520.846L255.289 521.104L254.624 519.478C250.532 509.48 246.895 500.008 243.713 491.063L243.53 490.546L242.995 490.424C233.41 488.225 224.037 486.244 214.773 484.61C212.991 477.722 211.427 471.098 210.066 464.697C219.646 466.983 229.396 469.728 239.466 472.787L241.279 473.338L240.711 471.53C238.048 463.064 235.846 455.06 234.047 447.499L233.929 447.004L233.459 446.808C219.013 440.786 204.148 435.822 188.981 431.956L187.616 431.608L187.738 433.012C191.146 472.236 202.021 520.789 223.508 582.289L223.741 582.957L224.449 582.959C245.853 583.023 267.282 583.132 288.736 583.286L290.397 583.298L289.631 581.824C283.273 569.608 277.479 557.976 272.249 546.928Z" stroke="#126B89" stroke-width="2"/>
<path d="M315.887 478.761L315.701 478.384L315.301 478.254C307.998 475.877 301 473.423 294.248 470.968L292.007 470.153L292.996 472.322C300.26 488.253 308.47 503.732 317.583 518.676C298.19 500.451 280.343 480.643 264.227 459.454L264.062 459.237L263.809 459.133L248.984 453.084L247.062 452.3L247.647 454.292C257.394 487.503 276.082 529.231 306.962 582.919L307.247 583.416L307.821 583.42L330.077 583.593L331.92 583.607L330.927 582.055C315.379 557.73 302.652 536.091 292.393 516.63C315.098 540.53 339.339 562.927 364.962 583.678L365.233 583.897L365.583 583.9L384.363 584.054L386.439 584.071L385.158 582.437C351.399 539.37 329.286 505.807 315.887 478.761Z" stroke="#126B89" stroke-width="2"/>
<path d="M419.098 579.094L419.107 579.098L419.115 579.102C430.17 584.233 440.013 586.665 448.569 586.685H448.571C456.107 586.685 461.541 584.962 465.28 581.716L465.29 581.707L465.299 581.699C467.128 580.029 468.599 578.005 469.623 575.749C470.646 573.493 471.2 571.053 471.251 568.576L471.264 567.981L470.747 567.687C466.134 565.056 461.462 562.409 456.764 559.746C452.42 557.285 448.053 554.81 443.689 552.324L442.433 551.609L442.207 553.037C441.735 556.015 440.604 558.132 438.774 559.466C436.93 560.81 434.211 561.479 430.316 561.203C425.091 560.697 420.006 559.221 415.321 556.852L415.322 556.852L415.31 556.846C409.539 554.018 404.145 550.477 399.254 546.306L399.254 546.306L399.245 546.299C394.208 542.106 389.699 537.316 385.817 532.036C382.119 526.946 380.211 522.915 379.858 519.876L379.852 519.821L379.839 519.768C379.584 518.651 379.74 517.478 380.279 516.467C380.818 515.455 381.705 514.672 382.776 514.262L382.795 514.254L382.815 514.245C385.282 513.176 389.085 513.054 394.375 513.928C404.809 515.976 414.706 520.164 423.44 526.228L424.127 526.705L424.718 526.113C428.377 522.452 432.33 519.096 436.538 516.08L437.745 515.215L436.489 514.422C428.419 509.326 419.816 505.128 410.833 501.903C401.818 498.594 392.541 496.049 383.099 494.294L383.098 494.294C372.554 492.35 364.276 491.887 358.339 493.526C355.359 494.349 352.988 495.679 351.383 497.66C349.77 499.652 349.018 502.194 349.08 505.263C349.201 511.354 352.634 519.281 359.495 529.09L359.5 529.098L359.506 529.105C374.979 550.395 395.442 567.56 419.098 579.094Z" stroke="#126B89" stroke-width="2"/>
<path d="M564.248 566.405V565.398L563.241 565.405C545.533 565.531 528.369 565.364 511.749 564.904C509.721 560.669 507.793 556.483 505.964 552.344C521.346 552.841 537.378 552.99 554.061 552.791L555.129 552.779L555.047 551.714C554.612 546.099 554.215 540.49 553.857 534.887L553.795 533.922L552.829 533.951C533.68 534.519 515.561 534.489 498.323 533.971C496.933 530.391 495.614 526.844 494.369 523.329C515.007 523.781 537.041 523.457 560.633 522.161L561.591 522.109L561.578 521.15C561.555 519.391 561.527 517.627 561.499 515.866C561.433 511.749 561.367 507.64 561.367 503.611V502.523L560.283 502.615C524.327 505.651 488.201 506.119 452.178 504.015L450.58 503.921L451.197 505.399C461.026 528.929 475.66 554.801 496.428 584.434L496.725 584.858L497.242 584.86C519.135 584.976 541.137 585.033 563.248 585.033H564.248V584.033V566.405Z" stroke="#126B89" stroke-width="2"/>
</svg>
