<svg width="728" height="897" viewBox="0 0 728 897" fill="none" xmlns="http://www.w3.org/2000/svg">
<path d="M680.886 727.607C643.15 651.38 594.376 582.003 527.512 515.519C466.13 454.464 400.404 419.182 331.74 378.461C268.524 340.96 202.877 306.573 145.811 251.137C74.668 182.115 22.1763 109.345 -17.3575 29.3638" stroke="#A5D936" stroke-width="2" stroke-miterlimit="10"/>
<path d="M666.204 742.29C632.679 664.676 586.608 593.667 517.365 525.668C454.485 463.87 386.865 431.358 317.058 393.144C252.857 357.992 185.199 326.2 126.649 270.3C52.8166 199.876 3.13119 125.469 -32.0392 44.0465" stroke="#A5D936" stroke-width="2" stroke-miterlimit="10"/>
<path d="M651.467 757.026C621.425 676.222 576.716 601.708 502.174 531.02C439.986 472.036 369.855 442.134 302.321 407.88C239.206 375.929 170.935 347.671 112.22 293.787C32.9924 220.966 -15.2673 143.769 -46.7768 58.783" stroke="#A5D936" stroke-width="2" stroke-miterlimit="10"/>
<path d="M636.243 772.242C610.846 692.637 570.697 617.849 495.617 546.725C430.033 484.611 357.786 456.435 287.097 423.096C220.858 391.931 150.445 364.939 88.1666 308.189C8.03452 235.104 -35.1829 157.735 -62.0005 73.9989" stroke="#A5D936" stroke-width="2" stroke-miterlimit="10"/>
<path d="M622.109 786.372C599.954 704.206 561.236 625.552 480.586 552.595C415.132 493.469 342.277 467.751 272.963 437.226C208.567 408.892 136.242 383.812 74.764 330.354C-10.758 255.743 -52.9423 174.224 -76.1347 88.1283" stroke="#A5D936" stroke-width="2" stroke-miterlimit="10"/>
<path d="M607.449 801.053C588.434 717.015 551.226 634.219 464.552 559.884C399.651 504.101 325.408 479.868 258.302 451.907C191.196 423.947 116.914 399.947 52.0527 343.93C-34.631 269.312 -71.6397 187.098 -90.7949 102.81" stroke="#A5D936" stroke-width="2" stroke-miterlimit="10"/>
<path d="M592.254 816.237C576.233 732.419 542.188 647.24 452.033 572.392C385.732 517.327 310.629 493.955 243.108 467.091C175.587 440.228 100.586 416.849 34.1821 361.79C-56.184 286.569 -89.9155 202.246 -105.99 117.994" stroke="#A5D936" stroke-width="2" stroke-miterlimit="10"/>
<path d="M578.023 830.473C565.365 748.675 536.389 662.843 445.297 588.004C375.806 530.905 298.956 508.139 228.974 481.424C162.287 455.993 88.656 433.999 22.0153 382.035C-75.0832 306.678 -106.657 218.575 -120.22 132.23" stroke="#A5D936" stroke-width="2" stroke-miterlimit="10"/>
<path d="M562.809 845.672C553.246 766.396 528.666 678.271 437.126 604.31C365.42 546.361 285.52 522.908 213.688 496.55C144.704 471.24 68.8926 448.763 -0.400107 395.902C-98.2856 321.273 -125.395 231.002 -135.434 147.429" stroke="#A5D936" stroke-width="2" stroke-miterlimit="10"/>
<path d="M548.191 860.306C540.889 779.146 518.415 687.243 419.736 613.384C348.05 559.684 269.939 536.57 198.972 511.087C131.241 486.654 55.9871 464.483 -12.4174 415.978C-116.957 341.451 -142.343 247.784 -150.134 162.145" stroke="#A5D936" stroke-width="2" stroke-miterlimit="10"/>
<path d="M533.594 874.905C528.131 792.703 506.597 697.351 401.486 623.822C330.615 574.204 253.742 550.654 184.447 525.758C115.153 500.863 38.3713 477.025 -32.5431 427.743C-137.697 355.036 -158.987 258.468 -164.65 176.661" stroke="#A5D936" stroke-width="2" stroke-miterlimit="10"/>
<path d="M518.783 889.714C511.505 808.53 489.054 716.604 390.367 642.752C318.675 589.059 240.546 565.963 169.564 540.495C101.819 516.076 26.5469 493.923 -41.7822 445.343C-146.332 370.826 -171.695 277.136 -179.461 191.471" stroke="#A5D936" stroke-width="2" stroke-miterlimit="10"/>
<path d="M504.075 904.409C494.512 825.133 469.931 737.009 378.391 663.047C306.686 605.098 226.786 581.645 154.953 555.287C85.9699 529.977 10.1582 507.501 -59.1345 454.64C-157.02 380.01 -184.129 289.739 -194.168 206.166" stroke="#A5D936" stroke-width="2" stroke-miterlimit="10"/>
<path d="M489.405 919.088C477.058 836.979 448.337 750.891 357.173 676.125C287.625 619.082 210.532 596.559 140.356 570.039C73.3734 544.903 -0.325389 522.977 -67.0869 471.133C-164.283 395.874 -195.63 307.544 -208.839 220.844" stroke="#A5D936" stroke-width="2" stroke-miterlimit="10"/>
<path d="M474.789 933.709C458.77 849.888 424.7 764.735 334.572 689.86C268.243 634.823 193.165 611.426 125.643 584.563C58.1201 557.701 -17.0178 534.46 -83.2866 479.266C-173.653 404.045 -207.383 319.721 -223.455 235.466" stroke="#A5D936" stroke-width="2" stroke-miterlimit="10"/>
<path d="M460.072 948.412C440.731 864.699 403.294 782.132 316.682 707.735C251.827 651.906 177.808 627.45 110.926 599.266C44.0429 571.082 -30.0409 546.884 -94.8313 490.796C-181.427 416.09 -218.69 334.13 -238.172 250.168" stroke="#A5D936" stroke-width="2" stroke-miterlimit="10"/>
<path d="M444.908 963.583C422.761 881.41 384.046 802.752 303.369 729.823C237.941 670.671 165.081 644.957 95.7623 614.437C31.363 586.107 -40.9674 561.033 -102.447 507.575C-187.97 432.965 -230.15 351.442 -253.335 265.339" stroke="#A5D936" stroke-width="2" stroke-miterlimit="10"/>
<path d="M430.681 977.808C405.291 898.196 365.119 823.43 290.038 752.308C224.482 690.167 152.229 661.996 81.5352 628.662C15.2651 597.528 -55.126 570.514 -117.405 513.765C-197.566 440.708 -240.752 363.308 -267.562 279.565" stroke="#A5D936" stroke-width="2" stroke-miterlimit="10"/>
<path d="M415.508 992.988C385.467 912.183 340.732 837.695 266.217 766.98C204.03 707.996 133.897 678.095 66.3617 643.842C3.21888 611.918 -65.0254 583.634 -123.741 529.751C-202.969 456.93 -251.228 379.732 -282.736 294.745" stroke="#A5D936" stroke-width="2" stroke-miterlimit="10"/>
<path d="M400.888 1007.61C367.356 930.004 321.255 859.026 252.038 790.999C189.132 729.228 121.517 696.712 51.7414 658.465C-12.4825 623.337 -80.1084 591.513 -138.686 535.639C-212.49 465.188 -262.044 390.649 -297.356 309.368" stroke="#A5D936" stroke-width="2" stroke-miterlimit="10"/>
<path d="M386.167 1022.32C348.459 946.069 299.673 876.703 232.809 810.221C171.427 749.165 105.679 713.905 37.0213 673.178C-26.2945 635.777 -91.8828 601.331 -148.896 545.842C-220.013 476.794 -272.49 404.01 -311.995 323.999" stroke="#A5D936" stroke-width="2" stroke-miterlimit="10"/>
<path d="M372.039 1036.45C330.147 961.98 274.145 889.351 208.686 824.603C150.833 767.13 87.3443 729.22 22.8928 687.306C-36.875 648.501 -98.6373 612.371 -152.841 560.014C-222.597 492.845 -282.214 416.57 -326.205 338.209" stroke="#A5D936" stroke-width="2" stroke-miterlimit="10"/>
<path d="M356.813 1051.68C311.046 980.857 255.747 912.53 193.556 849.961C135.305 791.326 72.6101 748.63 7.66681 702.532C-52.5686 659.714 -113.536 619.185 -167.946 565.379C-234.183 500.009 -293.025 428.122 -341.431 353.435" stroke="#A5D936" stroke-width="2" stroke-miterlimit="10"/>
<path d="M342.12 1066.37C239.482 929.488 126.374 822.949 -7.02579 717.221C-140.426 611.493 -253.511 505.029 -356.123 368.124" stroke="#A5D936" stroke-width="2" stroke-miterlimit="10"/>
<path d="M327.43 1081.06C218.64 954.524 103.158 842.177 -21.7156 731.916C-146.589 621.655 -261.995 509.33 -370.813 382.818" stroke="#A5D936" stroke-width="2" stroke-miterlimit="10"/>
<path d="M312.749 1095.75C81.7208 861.183 -154.486 631.992 -385.494 397.504" stroke="#A5D936" stroke-width="2" stroke-miterlimit="10"/>
</svg>
