<svg width="601" height="599" viewBox="0 0 601 599" fill="none" xmlns="http://www.w3.org/2000/svg">
<mask id="path-1-outside-1_794_1882" maskUnits="userSpaceOnUse" x="-0.242188" y="-0.552734" width="601" height="599" fill="black">
<rect fill="white" x="-0.242188" y="-0.552734" width="601" height="599"/>
<path d="M407.796 79.5801L417.97 54.2772L397.368 69.891L391.411 67.4758L387.263 42.4828L377.256 67.2098L364.902 62.1956L384.273 14.5505L395.379 19.0453L400.992 53.3602L428.363 32.4008L439.469 36.8957L420.295 84.5937L407.796 79.5801Z"/>
<path d="M483.099 80.828L464.17 67.2231L440.945 99.6756L429.301 91.272L459.263 49.4501L489.885 71.4717L483.099 80.828Z"/>
<path d="M537.869 121.234L494.13 132.049C489.978 133.222 485.601 133.352 481.388 132.425C477.673 131.546 474.318 129.55 471.772 126.705C469.713 124.346 468.118 121.62 467.07 118.669L477.346 114.039C478.065 115.628 479.001 117.111 480.128 118.443C480.995 119.449 482.115 120.205 483.372 120.633C484.763 121.034 486.227 121.115 487.654 120.869L501.716 81.2062L512.02 92.5924L501.592 118.198L528.34 110.755L537.869 121.234Z"/>
<path d="M494.202 149.716L514.435 180.393L508.026 184.593L487.793 153.917L494.202 149.716Z"/>
<path d="M523.357 193.47C523.73 188.766 525.395 184.257 528.169 180.441C531.1 176.582 534.99 173.558 539.452 171.667C543.914 169.776 548.793 169.085 553.604 169.662C558.273 170.314 562.671 172.246 566.308 175.245C570.198 178.457 573.227 182.587 575.121 187.263C576.887 191.257 577.795 195.577 577.786 199.944C577.754 203.954 576.739 207.896 574.829 211.423L563.504 206.169C564.673 204.131 565.355 201.849 565.495 199.504C565.635 197.158 565.231 194.812 564.313 192.648C563.339 190.235 561.754 188.116 559.712 186.502C557.763 184.986 555.417 184.068 552.957 183.86C550.296 183.651 547.625 184.112 545.188 185.199C542.706 186.187 540.517 187.792 538.827 189.861C537.263 191.77 536.291 194.095 536.031 196.549C535.776 199.138 536.196 201.749 537.25 204.127C538.173 206.289 539.582 208.208 541.366 209.738C543.151 211.268 545.263 212.366 547.541 212.947L543.443 224.741C539.574 223.668 536.029 221.657 533.124 218.885C529.975 215.857 527.499 212.201 525.855 208.154C523.82 203.541 522.961 198.496 523.357 193.47Z"/>
<path d="M553.095 268.657L549.596 247.207L539.079 244.851L536.649 230.211L591.113 244.197L593.465 258.34L546.435 289.223L543.963 274.294L553.095 268.657ZM562.988 262.696L578.141 253.468L560.818 249.645L562.988 262.696Z"/>
<path d="M592.108 334.47C590.49 337.638 587.976 340.259 584.88 342.009C581.783 343.759 578.241 344.56 574.693 344.313C571.145 344.066 567.747 342.782 564.923 340.62C562.099 338.458 559.973 335.513 558.809 332.152C557.463 328.21 556.972 324.026 557.369 319.879L558.008 310.936L544.592 309.983L545.629 295.467L596.948 299.152L595.26 322.608C595.057 326.74 593.983 330.783 592.108 334.47ZM570.334 326.655C571.712 328.216 573.647 329.174 575.724 329.323C577.801 329.472 579.854 328.8 581.44 327.451C583.037 325.622 583.914 323.276 583.91 320.848L584.485 312.786L569.453 311.704L568.878 319.766C568.536 322.162 569.052 324.602 570.334 326.655Z"/>
<path d="M539.832 360.801C543.247 357.427 547.52 355.053 552.189 353.936C556.858 352.819 561.744 353.002 566.316 354.466C570.888 355.929 574.972 358.617 578.125 362.237C581.277 365.857 583.378 370.271 584.2 375.001C584.981 380.029 584.58 385.17 583.029 390.016C581.479 394.863 578.82 399.281 575.265 402.922C571.85 406.292 567.577 408.663 562.909 409.779C558.242 410.894 553.359 410.711 548.788 409.25C544.217 407.788 540.134 405.104 536.98 401.488C533.825 397.871 531.721 393.461 530.894 388.734C530.107 383.695 530.506 378.542 532.06 373.684C533.614 368.827 536.28 364.399 539.845 360.752L539.832 360.801ZM543.147 384.66C543.673 387.05 544.855 389.247 546.559 391.003C548.425 392.919 550.748 394.327 553.309 395.097C555.846 395.954 558.557 396.158 561.194 395.69C563.597 395.242 565.83 394.14 567.648 392.506C569.437 390.821 570.769 388.709 571.519 386.369C572.268 384.028 572.411 381.535 571.933 379.125C571.399 376.737 570.219 374.543 568.521 372.781C566.654 370.869 564.33 369.465 561.769 368.7C559.239 367.83 556.527 367.627 553.896 368.11C551.485 368.543 549.245 369.646 547.43 371.291C545.638 372.974 544.305 375.086 543.555 377.427C542.805 379.768 542.664 382.261 543.144 384.672L543.147 384.66Z"/>
<path d="M516.172 457.784C513.435 458.031 510.695 457.343 508.399 455.833C506.574 454.803 505.033 453.336 503.915 451.563C502.797 449.79 502.137 447.767 501.994 445.676C501.611 441.285 503.118 436.304 506.513 430.733L520.271 408.226L564.163 435.045L551.183 456.426C547.949 461.724 544.462 465.192 540.72 466.832C538.957 467.667 537.008 468.033 535.062 467.894C533.116 467.754 531.239 467.114 529.614 466.035C527.6 464.86 525.968 463.129 524.913 461.051C523.894 458.941 523.481 456.59 523.721 454.259C521.625 456.179 518.99 457.409 516.172 457.784ZM517.01 443.862C519.984 445.676 522.559 444.794 524.752 441.194L530.728 431.409L521.645 425.871L515.668 435.656C513.503 439.268 513.95 442.003 517.01 443.862ZM539.131 436.58L534.354 444.546C532.197 448.063 532.58 450.675 535.456 452.463C538.332 454.251 540.86 453.343 543.002 449.836L547.779 441.869L539.131 436.58Z"/>
<path d="M437.227 502.409L453.921 523.909L450.781 498.261L455.885 494.345L479.577 503.335L463.235 482.247L473.831 474.004L505.334 514.675L495.867 522.005L463.39 509.618L467.642 543.885L458.172 551.228L426.541 510.641L437.227 502.409Z"/>
<path d="M398.439 566.911L419.661 557.314L403.211 520.954L416.272 515.049L437.476 561.916L403.13 577.453L398.439 566.911Z"/>
<path d="M336.077 594.161L348.564 550.814C349.62 546.631 351.697 542.776 354.608 539.594C357.223 536.814 360.626 534.9 364.359 534.11C367.417 533.52 370.556 533.502 373.62 534.055L372.503 545.274C370.765 545.104 369.012 545.176 367.294 545.49C365.997 545.734 364.79 546.323 363.799 547.195C362.773 548.206 361.991 549.438 361.513 550.796L388.838 582.805L373.814 586.031L356.872 564.32L349.958 591.21L336.077 594.161Z"/>
<path d="M333.252 542.114L296.562 544.264L296.125 536.63L332.798 534.49L333.252 542.114Z"/>
<path d="M280.817 545.406C284.69 548.098 287.745 551.806 289.649 556.121C291.508 560.595 292.166 565.477 291.56 570.284C290.953 575.09 289.101 579.655 286.189 583.527C283.279 587.239 279.397 590.071 274.974 591.71C270.238 593.458 265.14 593.999 260.142 593.284C255.802 592.8 251.611 591.412 247.84 589.208C244.388 587.17 241.493 584.312 239.41 580.886L249.648 573.736C251.506 576.896 254.426 579.295 257.887 580.506C261.348 581.716 265.126 581.659 268.549 580.346C270.837 579.417 272.811 577.851 274.236 575.833C275.749 573.636 276.692 571.098 276.981 568.446C277.367 565.803 277.081 563.105 276.151 560.601C275.285 558.288 273.762 556.278 271.77 554.818C268.779 552.697 265.134 551.704 261.48 552.017C257.827 552.329 254.403 553.926 251.816 556.525L243.681 547.053C246.548 544.25 250.065 542.202 253.917 541.092C258.114 539.897 262.514 539.595 266.835 540.207C271.855 540.753 276.66 542.54 280.817 545.406Z"/>
<path d="M200.823 533.377L221.223 541.049L228.524 533.125L242.419 538.354L203.015 578.439L189.599 573.391L186.397 517.214L200.566 522.556L200.823 533.377ZM201.031 544.925L201.417 562.662L213.401 549.587L201.031 544.925Z"/>
<path d="M124.337 534.257C122.415 531.269 121.412 527.781 121.455 524.228C121.497 520.675 122.581 517.212 124.574 514.27C126.567 511.328 129.379 509.035 132.663 507.677C135.947 506.319 139.557 505.956 143.046 506.631C147.127 507.436 150.991 509.102 154.378 511.517L161.801 516.544L169.355 505.359L181.409 513.516L152.56 556.112L133.085 542.968C129.583 540.72 126.6 537.75 124.337 534.257ZM142.021 519.328C140.991 519.468 140.006 519.84 139.14 520.416C138.275 520.991 137.551 521.756 137.023 522.651C136.389 523.48 135.948 524.439 135.732 525.46C135.515 526.48 135.529 527.536 135.772 528.551C136.563 530.844 138.158 532.773 140.262 533.981L146.969 538.525L155.411 526.046L148.701 521.514C146.803 520.018 144.436 519.243 142.021 519.328Z"/>
<path d="M127.747 475.82C128.944 480.468 128.847 485.355 127.466 489.951C126.085 494.547 123.473 498.678 119.913 501.897C116.353 505.116 111.98 507.299 107.268 508.211C102.556 509.123 97.6847 508.728 93.1808 507.07C88.441 505.214 84.1975 502.281 80.7854 498.504C77.3733 494.726 74.8859 490.207 73.5198 485.304C72.3256 480.656 72.4253 475.77 73.8081 471.175C75.1909 466.58 77.8042 462.451 81.3651 459.234C84.9259 456.017 89.2988 453.836 94.0103 452.926C98.7219 452.015 103.593 452.411 108.095 454.07C112.832 455.925 117.073 458.855 120.484 462.63C123.894 466.405 126.381 470.92 127.747 475.82ZM105.447 466.714C103.116 465.963 100.621 465.88 98.2461 466.476C95.6742 467.177 93.3035 468.474 91.326 470.262C89.3484 472.05 87.8196 474.278 86.8632 476.767C86.028 479.068 85.8553 481.557 86.3648 483.951C86.9203 486.355 88.0803 488.577 89.735 490.408C91.3897 492.238 93.4842 493.615 95.8202 494.41C98.153 495.149 100.644 495.232 103.021 494.648C105.598 493.95 107.973 492.653 109.954 490.863C111.934 489.074 113.465 486.841 114.42 484.349C115.242 482.045 115.414 479.559 114.918 477.164C114.387 474.746 113.221 472.514 111.539 470.698C109.907 468.843 107.801 467.466 105.447 466.714Z"/>
<path d="M55.7223 406.685C56.8782 404.194 58.8459 402.169 61.3031 400.942C63.1105 399.877 65.1542 399.278 67.2506 399.199C69.3469 399.12 71.4301 399.563 73.3128 400.488C77.3086 402.369 80.8647 406.171 83.9809 411.893L96.5647 435.078L51.3531 459.618L39.4328 437.654C36.4828 432.232 35.2173 427.49 35.6364 423.428C35.7921 421.484 36.4495 419.613 37.5441 417.999C38.6388 416.385 40.1334 415.082 41.8821 414.218C43.9106 413.072 46.2236 412.528 48.5502 412.649C50.8914 412.82 53.1372 413.646 55.0309 415.033C54.3972 412.246 54.6386 409.331 55.7223 406.685ZM62.5903 437.202L58.1652 429.069C56.202 425.452 53.7368 424.448 50.7695 426.057C47.8023 427.666 47.2992 430.283 49.2602 433.908L53.6853 442.041L62.5903 437.202ZM67.3812 414.393C64.2955 416.049 63.7707 418.731 65.8067 422.438L71.2822 432.517L80.5622 427.462L75.0867 417.382C73.0732 413.69 70.4923 412.69 67.3442 414.383L67.3812 414.393Z"/>
<path d="M56.5143 315.952L29.5131 319.707L53.2267 329.799L54.1461 336.227L34.5228 352.328L60.9674 348.728L62.7654 361.982L11.7964 368.918L10.1825 357.047L37.1857 335.143L5.38321 321.668L3.75781 309.741L54.7139 302.657L56.5143 315.952Z"/>
<path d="M20.2208 250.065L17.8755 273.212L57.571 277.244L56.1148 291.503L4.9417 286.284L8.76964 248.779L20.2208 250.065Z"/>
<path d="M27.9113 182.539L59.1797 215.063C62.271 218.071 64.567 221.8 65.8617 225.914C66.9579 229.571 66.9073 233.476 65.7168 237.103C64.7004 240.067 63.1315 242.811 61.0931 245.19L51.9503 238.592C52.9694 237.167 53.7871 235.608 54.3804 233.96C54.8028 232.706 54.8895 231.363 54.6317 230.065C54.2901 228.656 53.6291 227.344 52.6999 226.232L11.3138 233.833L16.0406 219.249L43.3574 215.499L23.5433 196.03L27.9113 182.539Z"/>
<path d="M74.3724 206.139L90.8696 173.311L97.6919 176.737L81.2037 209.581L74.3724 206.139Z"/>
<path d="M99.3441 162.707C95.0811 164.724 90.3412 165.517 85.6539 164.996C80.8603 164.365 76.3144 162.493 72.4654 159.567C68.6164 156.641 65.5975 152.761 63.707 148.311C61.9514 143.93 61.4447 139.149 62.2434 134.498C63.0947 129.524 65.1756 124.842 68.2971 120.877C70.8805 117.358 74.1782 114.425 77.9742 112.269C81.4638 110.303 85.3816 109.222 89.3855 109.119L90.4604 121.572C88.1072 121.561 85.7833 122.096 83.6716 123.134C81.5598 124.173 79.7176 125.687 78.2896 127.557C76.6616 129.615 75.6042 132.065 75.2237 134.661C74.8803 137.106 75.2488 139.599 76.2853 141.84C77.4719 144.227 79.1939 146.307 81.3168 147.918C83.4398 149.53 85.9063 150.629 88.524 151.13C90.9571 151.531 93.4541 151.218 95.7132 150.23C98.0885 149.163 100.146 147.498 101.684 145.397C103.105 143.524 104.073 141.349 104.513 139.04C104.953 136.731 104.853 134.352 104.22 132.088L116.499 129.791C117.483 133.693 117.491 137.778 116.522 141.685C115.44 145.935 113.475 149.909 110.755 153.348C107.775 157.356 103.857 160.569 99.3441 162.707Z"/>
<path d="M148.263 95.934L131.372 109.676L134.556 119.974L123.059 129.362L108.137 75.1699L119.242 66.1123L169.471 91.5649L157.668 101.109L148.263 95.934ZM138.184 90.3143L122.653 81.7278L127.945 98.6531L138.184 90.3143Z"/>
<path d="M185.867 29.3337C189.383 29.1637 192.871 30.0294 195.899 31.8236C198.925 33.7141 201.329 36.4528 202.811 39.6988C204.444 42.8624 205.099 46.4406 204.693 49.9777C204.207 53.4671 202.715 56.7394 200.4 59.3945C197.661 62.5282 194.286 65.0417 190.499 66.7671L182.427 70.6671L188.276 82.8016L175.177 89.1455L152.766 42.8401L173.921 32.6578C177.618 30.7048 181.692 29.571 185.867 29.3337ZM189.953 52.0911C190.345 51.1293 190.515 50.092 190.452 49.0556C190.389 48.0191 190.095 47.0101 189.59 46.1026C189.186 45.1396 188.574 44.2784 187.797 43.5812C187.019 42.8841 186.097 42.3685 185.096 42.0717C182.724 41.6197 180.269 42.0353 178.178 43.2428L170.907 46.7632L177.469 60.3302L184.755 56.8008C186.99 55.8943 188.831 54.2258 189.953 52.0911Z"/>
<path d="M234.722 61.51C230.097 60.2255 225.911 57.6991 222.619 54.2048C219.327 50.7104 217.054 46.3815 216.047 41.6874C215.04 36.9933 215.338 32.1131 216.907 27.5761C218.477 23.039 221.258 19.0182 224.951 15.9496C228.926 12.7767 233.584 10.5697 238.557 9.50243C243.53 8.4352 248.684 8.53686 253.611 9.79936C258.233 11.0868 262.415 13.6137 265.704 17.1067C268.994 20.5996 271.265 24.9257 272.273 29.6167C273.281 34.3077 272.987 39.1849 271.423 43.7208C269.858 48.2567 267.084 52.2784 263.398 55.3508C259.421 58.5268 254.761 60.7362 249.785 61.805C244.809 62.8739 239.653 62.7729 234.722 61.51ZM253.75 46.7951C255.561 45.1503 256.879 43.0334 257.554 40.6817C258.237 38.102 258.301 35.3974 257.739 32.7885C257.178 30.1797 256.008 27.7404 254.325 25.6697C252.748 23.8038 250.683 22.4135 248.361 21.6543C246.005 20.9185 243.5 20.7997 241.086 21.3091C238.671 21.8185 236.428 22.9391 234.57 24.5637C232.764 26.2122 231.452 28.3297 230.778 30.6804C230.097 33.2589 230.034 35.9615 230.593 38.5692C231.152 41.1769 232.317 43.6161 233.995 45.6891C235.575 47.5581 237.645 48.9496 239.972 49.7077C242.326 50.4371 244.828 50.5525 247.239 50.0427C249.651 49.5329 251.892 48.4149 253.75 46.7951Z"/>
<path d="M330.611 33.8017C332.189 36.0483 332.956 38.7643 332.788 41.5044C332.793 43.6005 332.282 45.6656 331.3 47.5173C330.318 49.369 328.894 50.9502 327.156 52.1211C323.515 54.6678 318.443 55.8318 311.941 55.6131L285.563 54.8722L287.032 3.44727L312.018 4.15847C318.139 4.31921 322.889 5.61852 326.269 8.05639C327.872 9.16723 329.16 10.6748 330.006 12.4319C330.853 14.189 331.229 16.1356 331.099 18.0815C331.073 20.4125 330.385 22.6882 329.116 24.6434C327.788 26.5757 325.948 28.0998 323.802 29.0448C326.503 29.8997 328.879 31.5594 330.611 33.8017ZM300.76 24.4821L310.016 24.743C314.13 24.8679 316.237 23.2311 316.337 19.8325C316.438 16.434 314.428 14.6845 310.307 14.5843L301.126 14.2906L300.76 24.4821ZM318.105 40.0535C318.205 36.5579 316.147 34.7561 311.932 34.648L300.474 34.3253L300.175 44.9048L311.633 45.2276C315.863 45.3132 318.027 43.5638 318.125 39.9795L318.105 40.0535Z"/>
<path d="M427.117 355.452L449.106 362.459L434.637 346.04L436.314 340.829L457.165 335.762L435.659 328.846L439.125 318.061L480.605 331.402L477.497 341.06L448.871 347.939L468.218 369.852L465.111 379.51L423.6 366.29L427.117 355.452Z"/>
<path d="M424.47 419.836L436.585 404.272L409.915 383.512L417.367 373.937L451.746 400.693L432.142 425.887L424.47 419.836Z"/>
<path d="M384.136 462.949L379.723 425.005C379.181 421.39 379.544 417.698 380.778 414.258C381.911 411.23 383.948 408.622 386.611 406.787C388.817 405.316 391.279 404.271 393.869 403.705L396.66 412.839C395.245 413.274 393.897 413.904 392.656 414.712C391.722 415.336 390.972 416.198 390.484 417.21C389.993 418.346 389.765 419.579 389.817 420.816L421.632 436.895L410.955 444.323L390.611 432.868L393.996 456.14L384.136 462.949Z"/>
<path d="M358.228 426.573L328.797 436.687L326.693 430.564L356.123 420.451L358.228 426.573Z"/>
<path d="M316.252 440.355C319.903 441.975 323.033 444.575 325.296 447.866C327.55 451.296 328.869 455.255 329.123 459.351C329.377 463.448 328.556 467.539 326.743 471.222C324.906 474.764 322.126 477.729 318.71 479.792C315.043 481.983 310.889 483.229 306.621 483.416C302.931 483.707 299.22 483.216 295.733 481.975C292.537 480.824 289.674 478.904 287.396 476.385L294.785 468.817C297.819 472.03 301.341 473.513 305.348 473.266C307.551 473.167 309.689 472.496 311.554 471.32C313.315 470.189 314.71 468.572 315.573 466.666C316.447 464.585 316.828 462.33 316.687 460.078C316.545 457.825 315.885 455.636 314.758 453.681C313.666 451.899 312.082 450.472 310.197 449.57C308.2 448.635 305.994 448.237 303.797 448.413C299.778 448.668 296.468 450.58 293.867 454.151L285.592 447.558C287.538 444.776 290.139 442.515 293.165 440.973C296.467 439.306 300.085 438.357 303.781 438.187C308.054 437.862 312.34 438.607 316.252 440.355Z"/>
<path d="M248.641 439.481L266.365 444.512L271.966 437.299L284.076 440.734L253.685 477.395L242.008 474.089L235.335 426.909L247.667 430.402L248.641 439.481ZM249.615 449.201L251.196 464.167L260.39 452.282L249.615 449.201Z"/>
<path d="M182.155 439.511C180.608 436.933 179.851 433.958 179.977 430.954C180.103 427.951 181.107 425.05 182.865 422.611C184.622 420.172 187.056 418.301 189.865 417.231C192.675 416.16 195.736 415.937 198.671 416.588C202.106 417.369 205.336 418.871 208.148 420.994L214.313 425.435L220.97 416.194L230.971 423.376L205.501 458.724L189.347 447.065C186.441 445.086 183.989 442.511 182.155 439.511ZM197.466 427.3C196.592 427.396 195.751 427.688 195.005 428.154C194.26 428.62 193.629 429.248 193.159 429.991C192.601 430.676 192.204 431.477 191.996 432.336C191.788 433.194 191.775 434.088 191.957 434.953C192.35 436.612 193.567 438.185 195.622 439.665L201.179 443.667L208.635 433.31L203.078 429.308C201.029 427.836 199.159 427.162 197.466 427.3Z"/>
<path d="M187.779 389.767C188.248 393.804 187.604 397.893 185.916 401.59C184.229 405.287 181.563 408.452 178.206 410.743C174.849 413.034 170.929 414.363 166.871 414.586C162.814 414.81 158.772 413.919 155.184 412.011C151.421 409.909 148.198 406.962 145.769 403.402C143.34 399.842 141.771 395.766 141.186 391.496C140.714 387.459 141.356 383.369 143.042 379.67C144.729 375.971 147.396 372.804 150.754 370.513C154.112 368.222 158.033 366.895 162.092 366.674C166.152 366.453 170.194 367.347 173.781 369.26C177.543 371.361 180.765 374.307 183.194 377.866C185.624 381.425 187.193 385.499 187.779 389.767ZM170.111 379.562C168.242 378.668 166.16 378.313 164.1 378.536C161.859 378.827 159.718 379.642 157.85 380.916C155.983 382.19 154.443 383.886 153.354 385.867C152.397 387.704 151.969 389.771 152.12 391.836C152.302 393.921 153.017 395.924 154.197 397.653C155.376 399.382 156.979 400.778 158.854 401.709C160.724 402.6 162.804 402.955 164.864 402.735C167.104 402.442 169.244 401.626 171.11 400.352C172.976 399.078 174.515 397.383 175.603 395.403C176.563 393.565 176.994 391.496 176.846 389.427C176.658 387.345 175.94 385.345 174.762 383.619C173.583 381.892 171.982 380.495 170.111 379.562Z"/>
<path d="M139.211 319.359C140.681 317.556 142.72 316.307 144.993 315.816C146.699 315.323 148.5 315.261 150.235 315.635C151.971 316.01 153.586 316.81 154.936 317.964C157.821 320.34 159.939 324.203 161.288 329.552L166.745 351.22L124.498 361.867L119.331 341.343C118.056 336.259 118.02 332.087 119.224 328.825C119.764 327.26 120.701 325.863 121.943 324.769C123.185 323.675 124.689 322.922 126.31 322.584C128.215 322.065 130.229 322.105 132.112 322.697C133.994 323.328 135.661 324.475 136.923 326.006C136.988 323.608 137.786 321.288 139.211 319.359ZM147.129 328.113C144.267 328.831 143.262 330.917 144.116 334.372L146.486 343.791L155.181 341.602L152.803 332.182C151.953 328.737 150.062 327.381 147.129 328.113ZM138.437 345.835L136.524 338.209C135.672 334.827 133.857 333.488 131.08 334.192C128.303 334.895 127.342 336.935 128.195 340.312L130.108 347.938L138.437 345.835Z"/>
<path d="M167.115 247.474L144.869 241.261L159.922 257.149L158.437 262.422L137.764 268.235L159.511 274.362L156.436 285.271L114.504 273.444L117.228 263.671L145.551 255.757L125.374 234.557L128.098 224.784L170.067 236.49L167.115 247.474Z"/>
<path d="M167.406 183.048L155.862 199.054L183.275 218.793L176.173 228.635L140.809 203.171L159.484 177.275L167.406 183.048Z"/>
<path d="M206.176 138.486L211.958 176.288C212.641 179.878 212.422 183.581 211.32 187.065C210.3 190.134 208.36 192.814 205.763 194.742C203.613 196.295 201.189 197.431 198.619 198.089L195.504 189.062C196.908 188.579 198.237 187.901 199.452 187.049C200.362 186.39 201.08 185.501 201.531 184.472C201.987 183.323 202.173 182.083 202.074 180.85L169.698 165.932L180.099 158.122L200.869 168.893L196.648 145.759L206.176 138.486Z"/>
<path d="M233.362 173.919L262.405 162.738L264.734 168.778L235.691 179.959L233.362 173.919Z"/>
<path d="M274.812 158.609C271.105 157.121 267.882 154.637 265.497 151.433C263.116 148.089 261.65 144.181 261.245 140.096C260.839 136.011 261.508 131.891 263.184 128.144C264.89 124.531 267.564 121.461 270.909 119.275C274.492 116.957 278.593 115.561 282.847 115.212C286.526 114.787 290.254 115.142 293.786 116.254C297.019 117.292 299.948 119.105 302.317 121.536L295.212 129.376C292.07 126.268 288.496 124.914 284.488 125.313C282.291 125.492 280.178 126.24 278.357 127.483C276.642 128.674 275.309 130.337 274.52 132.271C273.724 134.384 273.426 136.652 273.652 138.899C273.877 141.145 274.619 143.309 275.819 145.222C276.973 146.964 278.61 148.332 280.528 149.16C282.556 150.027 284.776 150.346 286.965 150.085C290.953 149.683 294.192 147.654 296.682 143.995L305.192 150.249C303.346 153.099 300.83 155.454 297.865 157.108C294.624 158.887 291.046 159.967 287.362 160.278C283.105 160.768 278.793 160.195 274.812 158.609Z"/>
<path d="M342.427 157.038L324.532 152.657L319.154 160.09L306.943 157.099L335.989 119.351L347.777 122.244L356.154 169.147L343.702 166.081L342.427 157.038ZM341.08 147.351L338.956 132.478L330.205 144.648L341.08 147.351Z"/>
<path d="M408.858 154.571C410.5 157.091 411.367 160.037 411.352 163.045C411.337 166.053 410.44 168.99 408.772 171.493C407.104 173.996 404.739 175.955 401.969 177.128C399.199 178.3 396.146 178.635 393.188 178.089C389.726 177.432 386.444 176.046 383.557 174.025L377.237 169.815L370.919 179.292L360.667 172.461L384.842 136.203L401.414 147.25C404.386 149.136 406.923 151.631 408.858 154.571ZM394 167.334C394.87 167.207 395.7 166.885 396.429 166.393C397.157 165.9 397.766 165.25 398.209 164.491C398.739 163.785 399.105 162.97 399.28 162.105C399.456 161.24 399.437 160.347 399.224 159.49C398.778 157.839 397.496 156.317 395.38 154.91L389.678 151.119L382.609 161.732L388.303 165.529C390.426 166.937 392.309 167.569 394 167.334Z"/>
<path d="M405.156 204.826C404.543 200.809 405.041 196.701 406.595 192.946C408.148 189.191 410.7 185.933 413.972 183.523C417.244 181.114 421.113 179.645 425.16 179.276C429.207 178.907 433.278 179.652 436.932 181.43C440.767 183.395 444.094 186.223 446.65 189.693C449.206 193.163 450.921 197.179 451.66 201.425C452.275 205.443 451.78 209.553 450.227 213.309C448.673 217.065 446.122 220.325 442.849 222.735C439.576 225.145 435.706 226.613 431.658 226.981C427.61 227.349 423.538 226.602 419.884 224.821C416.047 222.859 412.718 220.031 410.162 216.561C407.606 213.09 405.892 209.073 405.156 204.826ZM423.178 214.398C425.086 215.207 427.179 215.474 429.229 215.17C431.458 214.796 433.567 213.902 435.386 212.56C437.205 211.219 438.683 209.468 439.7 207.45C440.593 205.583 440.948 203.504 440.725 201.446C440.468 199.37 439.681 197.394 438.441 195.709C437.2 194.024 435.548 192.686 433.641 191.824C431.736 191.008 429.64 190.741 427.591 191.052C425.359 191.425 423.247 192.32 421.427 193.664C419.607 195.008 418.131 196.764 417.118 198.787C416.225 200.656 415.869 202.738 416.092 204.798C416.352 206.873 417.14 208.847 418.38 210.532C419.62 212.216 421.271 213.555 423.176 214.42L423.178 214.398Z"/>
<path d="M456.139 273.098C454.737 274.953 452.746 276.277 450.492 276.851C448.807 277.407 447.01 277.535 445.262 277.225C443.515 276.914 441.872 276.174 440.481 275.071C437.508 272.802 435.25 269.017 433.707 263.717L427.464 242.251L469.294 230.074L475.211 250.391C476.667 255.409 476.853 259.579 475.77 262.901C475.29 264.484 474.409 265.915 473.212 267.056C472.014 268.197 470.541 269.008 468.937 269.41C467.053 269.998 465.04 270.033 463.137 269.511C461.232 268.944 459.522 267.856 458.201 266.371C458.219 268.772 457.499 271.12 456.139 273.098ZM455.94 246.61L458.138 254.139C459.106 257.488 460.974 258.76 463.719 257.959C466.464 257.158 467.355 255.087 466.38 251.737L464.19 244.208L455.94 246.61ZM447.903 264.636C450.73 263.816 451.645 261.691 450.651 258.262L447.958 248.942L439.355 251.453L442.063 260.775C443.073 264.196 445.02 265.483 447.903 264.636Z"/>
</mask>
<path d="M407.796 79.5801L417.97 54.2772L397.368 69.891L391.411 67.4758L387.263 42.4828L377.256 67.2098L364.902 62.1956L384.273 14.5505L395.379 19.0453L400.992 53.3602L428.363 32.4008L439.469 36.8957L420.295 84.5937L407.796 79.5801Z" stroke="#249788" stroke-width="6" mask="url(#path-1-outside-1_794_1882)"/>
<path d="M483.099 80.828L464.17 67.2231L440.945 99.6756L429.301 91.272L459.263 49.4501L489.885 71.4717L483.099 80.828Z" stroke="#249788" stroke-width="6" mask="url(#path-1-outside-1_794_1882)"/>
<path d="M537.869 121.234L494.13 132.049C489.978 133.222 485.601 133.352 481.388 132.425C477.673 131.546 474.318 129.55 471.772 126.705C469.713 124.346 468.118 121.62 467.07 118.669L477.346 114.039C478.065 115.628 479.001 117.111 480.128 118.443C480.995 119.449 482.115 120.205 483.372 120.633C484.763 121.034 486.227 121.115 487.654 120.869L501.716 81.2062L512.02 92.5924L501.592 118.198L528.34 110.755L537.869 121.234Z" stroke="#249788" stroke-width="6" mask="url(#path-1-outside-1_794_1882)"/>
<path d="M494.202 149.716L514.435 180.393L508.026 184.593L487.793 153.917L494.202 149.716Z" stroke="#249788" stroke-width="6" mask="url(#path-1-outside-1_794_1882)"/>
<path d="M523.357 193.47C523.73 188.766 525.395 184.257 528.169 180.441C531.1 176.582 534.99 173.558 539.452 171.667C543.914 169.776 548.793 169.085 553.604 169.662C558.273 170.314 562.671 172.246 566.308 175.245C570.198 178.457 573.227 182.587 575.121 187.263C576.887 191.257 577.795 195.577 577.786 199.944C577.754 203.954 576.739 207.896 574.829 211.423L563.504 206.169C564.673 204.131 565.355 201.849 565.495 199.504C565.635 197.158 565.231 194.812 564.313 192.648C563.339 190.235 561.754 188.116 559.712 186.502C557.763 184.986 555.417 184.068 552.957 183.86C550.296 183.651 547.625 184.112 545.188 185.199C542.706 186.187 540.517 187.792 538.827 189.861C537.263 191.77 536.291 194.095 536.031 196.549C535.776 199.138 536.196 201.749 537.25 204.127C538.173 206.289 539.582 208.208 541.366 209.738C543.151 211.268 545.263 212.366 547.541 212.947L543.443 224.741C539.574 223.668 536.029 221.657 533.124 218.885C529.975 215.857 527.499 212.201 525.855 208.154C523.82 203.541 522.961 198.496 523.357 193.47Z" stroke="#249788" stroke-width="6" mask="url(#path-1-outside-1_794_1882)"/>
<path d="M553.095 268.657L549.596 247.207L539.079 244.851L536.649 230.211L591.113 244.197L593.465 258.34L546.435 289.223L543.963 274.294L553.095 268.657ZM562.988 262.696L578.141 253.468L560.818 249.645L562.988 262.696Z" stroke="#249788" stroke-width="6" mask="url(#path-1-outside-1_794_1882)"/>
<path d="M592.108 334.47C590.49 337.638 587.976 340.259 584.88 342.009C581.783 343.759 578.241 344.56 574.693 344.313C571.145 344.066 567.747 342.782 564.923 340.62C562.099 338.458 559.973 335.513 558.809 332.152C557.463 328.21 556.972 324.026 557.369 319.879L558.008 310.936L544.592 309.983L545.629 295.467L596.948 299.152L595.26 322.608C595.057 326.74 593.983 330.783 592.108 334.47ZM570.334 326.655C571.712 328.216 573.647 329.174 575.724 329.323C577.801 329.472 579.854 328.8 581.44 327.451C583.037 325.622 583.914 323.276 583.91 320.848L584.485 312.786L569.453 311.704L568.878 319.766C568.536 322.162 569.052 324.602 570.334 326.655Z" stroke="#249788" stroke-width="6" mask="url(#path-1-outside-1_794_1882)"/>
<path d="M539.832 360.801C543.247 357.427 547.52 355.053 552.189 353.936C556.858 352.819 561.744 353.002 566.316 354.466C570.888 355.929 574.972 358.617 578.125 362.237C581.277 365.857 583.378 370.271 584.2 375.001C584.981 380.029 584.58 385.17 583.029 390.016C581.479 394.863 578.82 399.281 575.265 402.922C571.85 406.292 567.577 408.663 562.909 409.779C558.242 410.894 553.359 410.711 548.788 409.25C544.217 407.788 540.134 405.104 536.98 401.488C533.825 397.871 531.721 393.461 530.894 388.734C530.107 383.695 530.506 378.542 532.06 373.684C533.614 368.827 536.28 364.399 539.845 360.752L539.832 360.801ZM543.147 384.66C543.673 387.05 544.855 389.247 546.559 391.003C548.425 392.919 550.748 394.327 553.309 395.097C555.846 395.954 558.557 396.158 561.194 395.69C563.597 395.242 565.83 394.14 567.648 392.506C569.437 390.821 570.769 388.709 571.519 386.369C572.268 384.028 572.411 381.535 571.933 379.125C571.399 376.737 570.219 374.543 568.521 372.781C566.654 370.869 564.33 369.465 561.769 368.7C559.239 367.83 556.527 367.627 553.896 368.11C551.485 368.543 549.245 369.646 547.43 371.291C545.638 372.974 544.305 375.086 543.555 377.427C542.805 379.768 542.664 382.261 543.144 384.672L543.147 384.66Z" stroke="#249788" stroke-width="6" mask="url(#path-1-outside-1_794_1882)"/>
<path d="M516.172 457.784C513.435 458.031 510.695 457.343 508.399 455.833C506.574 454.803 505.033 453.336 503.915 451.563C502.797 449.79 502.137 447.767 501.994 445.676C501.611 441.285 503.118 436.304 506.513 430.733L520.271 408.226L564.163 435.045L551.183 456.426C547.949 461.724 544.462 465.192 540.72 466.832C538.957 467.667 537.008 468.033 535.062 467.894C533.116 467.754 531.239 467.114 529.614 466.035C527.6 464.86 525.968 463.129 524.913 461.051C523.894 458.941 523.481 456.59 523.721 454.259C521.625 456.179 518.99 457.409 516.172 457.784ZM517.01 443.862C519.984 445.676 522.559 444.794 524.752 441.194L530.728 431.409L521.645 425.871L515.668 435.656C513.503 439.268 513.95 442.003 517.01 443.862ZM539.131 436.58L534.354 444.546C532.197 448.063 532.58 450.675 535.456 452.463C538.332 454.251 540.86 453.343 543.002 449.836L547.779 441.869L539.131 436.58Z" stroke="#249788" stroke-width="6" mask="url(#path-1-outside-1_794_1882)"/>
<path d="M437.227 502.409L453.921 523.909L450.781 498.261L455.885 494.345L479.577 503.335L463.235 482.247L473.831 474.004L505.334 514.675L495.867 522.005L463.39 509.618L467.642 543.885L458.172 551.228L426.541 510.641L437.227 502.409Z" stroke="#249788" stroke-width="6" mask="url(#path-1-outside-1_794_1882)"/>
<path d="M398.439 566.911L419.661 557.314L403.211 520.954L416.272 515.049L437.476 561.916L403.13 577.453L398.439 566.911Z" stroke="#249788" stroke-width="6" mask="url(#path-1-outside-1_794_1882)"/>
<path d="M336.077 594.161L348.564 550.814C349.62 546.631 351.697 542.776 354.608 539.594C357.223 536.814 360.626 534.9 364.359 534.11C367.417 533.52 370.556 533.502 373.62 534.055L372.503 545.274C370.765 545.104 369.012 545.176 367.294 545.49C365.997 545.734 364.79 546.323 363.799 547.195C362.773 548.206 361.991 549.438 361.513 550.796L388.838 582.805L373.814 586.031L356.872 564.32L349.958 591.21L336.077 594.161Z" stroke="#249788" stroke-width="6" mask="url(#path-1-outside-1_794_1882)"/>
<path d="M333.252 542.114L296.562 544.264L296.125 536.63L332.798 534.49L333.252 542.114Z" stroke="#249788" stroke-width="6" mask="url(#path-1-outside-1_794_1882)"/>
<path d="M280.817 545.406C284.69 548.098 287.745 551.806 289.649 556.121C291.508 560.595 292.166 565.477 291.56 570.284C290.953 575.09 289.101 579.655 286.189 583.527C283.279 587.239 279.397 590.071 274.974 591.71C270.238 593.458 265.14 593.999 260.142 593.284C255.802 592.8 251.611 591.412 247.84 589.208C244.388 587.17 241.493 584.312 239.41 580.886L249.648 573.736C251.506 576.896 254.426 579.295 257.887 580.506C261.348 581.716 265.126 581.659 268.549 580.346C270.837 579.417 272.811 577.851 274.236 575.833C275.749 573.636 276.692 571.098 276.981 568.446C277.367 565.803 277.081 563.105 276.151 560.601C275.285 558.288 273.762 556.278 271.77 554.818C268.779 552.697 265.134 551.704 261.48 552.017C257.827 552.329 254.403 553.926 251.816 556.525L243.681 547.053C246.548 544.25 250.065 542.202 253.917 541.092C258.114 539.897 262.514 539.595 266.835 540.207C271.855 540.753 276.66 542.54 280.817 545.406Z" stroke="#249788" stroke-width="6" mask="url(#path-1-outside-1_794_1882)"/>
<path d="M200.823 533.377L221.223 541.049L228.524 533.125L242.419 538.354L203.015 578.439L189.599 573.391L186.397 517.214L200.566 522.556L200.823 533.377ZM201.031 544.925L201.417 562.662L213.401 549.587L201.031 544.925Z" stroke="#249788" stroke-width="6" mask="url(#path-1-outside-1_794_1882)"/>
<path d="M124.337 534.257C122.415 531.269 121.412 527.781 121.455 524.228C121.497 520.675 122.581 517.212 124.574 514.27C126.567 511.328 129.379 509.035 132.663 507.677C135.947 506.319 139.557 505.956 143.046 506.631C147.127 507.436 150.991 509.102 154.378 511.517L161.801 516.544L169.355 505.359L181.409 513.516L152.56 556.112L133.085 542.968C129.583 540.72 126.6 537.75 124.337 534.257ZM142.021 519.328C140.991 519.468 140.006 519.84 139.14 520.416C138.275 520.991 137.551 521.756 137.023 522.651C136.389 523.48 135.948 524.439 135.732 525.46C135.515 526.48 135.529 527.536 135.772 528.551C136.563 530.844 138.158 532.773 140.262 533.981L146.969 538.525L155.411 526.046L148.701 521.514C146.803 520.018 144.436 519.243 142.021 519.328Z" stroke="#249788" stroke-width="6" mask="url(#path-1-outside-1_794_1882)"/>
<path d="M127.747 475.82C128.944 480.468 128.847 485.355 127.466 489.951C126.085 494.547 123.473 498.678 119.913 501.897C116.353 505.116 111.98 507.299 107.268 508.211C102.556 509.123 97.6847 508.728 93.1808 507.07C88.441 505.214 84.1975 502.281 80.7854 498.504C77.3733 494.726 74.8859 490.207 73.5198 485.304C72.3256 480.656 72.4253 475.77 73.8081 471.175C75.1909 466.58 77.8042 462.451 81.3651 459.234C84.9259 456.017 89.2988 453.836 94.0103 452.926C98.7219 452.015 103.593 452.411 108.095 454.07C112.832 455.925 117.073 458.855 120.484 462.63C123.894 466.405 126.381 470.92 127.747 475.82ZM105.447 466.714C103.116 465.963 100.621 465.88 98.2461 466.476C95.6742 467.177 93.3035 468.474 91.326 470.262C89.3484 472.05 87.8196 474.278 86.8632 476.767C86.028 479.068 85.8553 481.557 86.3648 483.951C86.9203 486.355 88.0803 488.577 89.735 490.408C91.3897 492.238 93.4842 493.615 95.8202 494.41C98.153 495.149 100.644 495.232 103.021 494.648C105.598 493.95 107.973 492.653 109.954 490.863C111.934 489.074 113.465 486.841 114.42 484.349C115.242 482.045 115.414 479.559 114.918 477.164C114.387 474.746 113.221 472.514 111.539 470.698C109.907 468.843 107.801 467.466 105.447 466.714Z" stroke="#249788" stroke-width="6" mask="url(#path-1-outside-1_794_1882)"/>
<path d="M55.7223 406.685C56.8782 404.194 58.8459 402.169 61.3031 400.942C63.1105 399.877 65.1542 399.278 67.2506 399.199C69.3469 399.12 71.4301 399.563 73.3128 400.488C77.3086 402.369 80.8647 406.171 83.9809 411.893L96.5647 435.078L51.3531 459.618L39.4328 437.654C36.4828 432.232 35.2173 427.49 35.6364 423.428C35.7921 421.484 36.4495 419.613 37.5441 417.999C38.6388 416.385 40.1334 415.082 41.8821 414.218C43.9106 413.072 46.2236 412.528 48.5502 412.649C50.8914 412.82 53.1372 413.646 55.0309 415.033C54.3972 412.246 54.6386 409.331 55.7223 406.685ZM62.5903 437.202L58.1652 429.069C56.202 425.452 53.7368 424.448 50.7695 426.057C47.8023 427.666 47.2992 430.283 49.2602 433.908L53.6853 442.041L62.5903 437.202ZM67.3812 414.393C64.2955 416.049 63.7707 418.731 65.8067 422.438L71.2822 432.517L80.5622 427.462L75.0867 417.382C73.0732 413.69 70.4923 412.69 67.3442 414.383L67.3812 414.393Z" stroke="#249788" stroke-width="6" mask="url(#path-1-outside-1_794_1882)"/>
<path d="M56.5143 315.952L29.5131 319.707L53.2267 329.799L54.1461 336.227L34.5228 352.328L60.9674 348.728L62.7654 361.982L11.7964 368.918L10.1825 357.047L37.1857 335.143L5.38321 321.668L3.75781 309.741L54.7139 302.657L56.5143 315.952Z" stroke="#249788" stroke-width="6" mask="url(#path-1-outside-1_794_1882)"/>
<path d="M20.2208 250.065L17.8755 273.212L57.571 277.244L56.1148 291.503L4.9417 286.284L8.76964 248.779L20.2208 250.065Z" stroke="#249788" stroke-width="6" mask="url(#path-1-outside-1_794_1882)"/>
<path d="M27.9113 182.539L59.1797 215.063C62.271 218.071 64.567 221.8 65.8617 225.914C66.9579 229.571 66.9073 233.476 65.7168 237.103C64.7004 240.067 63.1315 242.811 61.0931 245.19L51.9503 238.592C52.9694 237.167 53.7871 235.608 54.3804 233.96C54.8028 232.706 54.8895 231.363 54.6317 230.065C54.2901 228.656 53.6291 227.344 52.6999 226.232L11.3138 233.833L16.0406 219.249L43.3574 215.499L23.5433 196.03L27.9113 182.539Z" stroke="#249788" stroke-width="6" mask="url(#path-1-outside-1_794_1882)"/>
<path d="M74.3724 206.139L90.8696 173.311L97.6919 176.737L81.2037 209.581L74.3724 206.139Z" stroke="#249788" stroke-width="6" mask="url(#path-1-outside-1_794_1882)"/>
<path d="M99.3441 162.707C95.0811 164.724 90.3412 165.517 85.6539 164.996C80.8603 164.365 76.3144 162.493 72.4654 159.567C68.6164 156.641 65.5975 152.761 63.707 148.311C61.9514 143.93 61.4447 139.149 62.2434 134.498C63.0947 129.524 65.1756 124.842 68.2971 120.877C70.8805 117.358 74.1782 114.425 77.9742 112.269C81.4638 110.303 85.3816 109.222 89.3855 109.119L90.4604 121.572C88.1072 121.561 85.7833 122.096 83.6716 123.134C81.5598 124.173 79.7176 125.687 78.2896 127.557C76.6616 129.615 75.6042 132.065 75.2237 134.661C74.8803 137.106 75.2488 139.599 76.2853 141.84C77.4719 144.227 79.1939 146.307 81.3168 147.918C83.4398 149.53 85.9063 150.629 88.524 151.13C90.9571 151.531 93.4541 151.218 95.7132 150.23C98.0885 149.163 100.146 147.498 101.684 145.397C103.105 143.524 104.073 141.349 104.513 139.04C104.953 136.731 104.853 134.352 104.22 132.088L116.499 129.791C117.483 133.693 117.491 137.778 116.522 141.685C115.44 145.935 113.475 149.909 110.755 153.348C107.775 157.356 103.857 160.569 99.3441 162.707Z" stroke="#249788" stroke-width="6" mask="url(#path-1-outside-1_794_1882)"/>
<path d="M148.263 95.934L131.372 109.676L134.556 119.974L123.059 129.362L108.137 75.1699L119.242 66.1123L169.471 91.5649L157.668 101.109L148.263 95.934ZM138.184 90.3143L122.653 81.7278L127.945 98.6531L138.184 90.3143Z" stroke="#249788" stroke-width="6" mask="url(#path-1-outside-1_794_1882)"/>
<path d="M185.867 29.3337C189.383 29.1637 192.871 30.0294 195.899 31.8236C198.925 33.7141 201.329 36.4528 202.811 39.6988C204.444 42.8624 205.099 46.4406 204.693 49.9777C204.207 53.4671 202.715 56.7394 200.4 59.3945C197.661 62.5282 194.286 65.0417 190.499 66.7671L182.427 70.6671L188.276 82.8016L175.177 89.1455L152.766 42.8401L173.921 32.6578C177.618 30.7048 181.692 29.571 185.867 29.3337ZM189.953 52.0911C190.345 51.1293 190.515 50.092 190.452 49.0556C190.389 48.0191 190.095 47.0101 189.59 46.1026C189.186 45.1396 188.574 44.2784 187.797 43.5812C187.019 42.8841 186.097 42.3685 185.096 42.0717C182.724 41.6197 180.269 42.0353 178.178 43.2428L170.907 46.7632L177.469 60.3302L184.755 56.8008C186.99 55.8943 188.831 54.2258 189.953 52.0911Z" stroke="#249788" stroke-width="6" mask="url(#path-1-outside-1_794_1882)"/>
<path d="M234.722 61.51C230.097 60.2255 225.911 57.6991 222.619 54.2048C219.327 50.7104 217.054 46.3815 216.047 41.6874C215.04 36.9933 215.338 32.1131 216.907 27.5761C218.477 23.039 221.258 19.0182 224.951 15.9496C228.926 12.7767 233.584 10.5697 238.557 9.50243C243.53 8.4352 248.684 8.53686 253.611 9.79936C258.233 11.0868 262.415 13.6137 265.704 17.1067C268.994 20.5996 271.265 24.9257 272.273 29.6167C273.281 34.3077 272.987 39.1849 271.423 43.7208C269.858 48.2567 267.084 52.2784 263.398 55.3508C259.421 58.5268 254.761 60.7362 249.785 61.805C244.809 62.8739 239.653 62.7729 234.722 61.51ZM253.75 46.7951C255.561 45.1503 256.879 43.0334 257.554 40.6817C258.237 38.102 258.301 35.3974 257.739 32.7885C257.178 30.1797 256.008 27.7404 254.325 25.6697C252.748 23.8038 250.683 22.4135 248.361 21.6543C246.005 20.9185 243.5 20.7997 241.086 21.3091C238.671 21.8185 236.428 22.9391 234.57 24.5637C232.764 26.2122 231.452 28.3297 230.778 30.6804C230.097 33.2589 230.034 35.9615 230.593 38.5692C231.152 41.1769 232.317 43.6161 233.995 45.6891C235.575 47.5581 237.645 48.9496 239.972 49.7077C242.326 50.4371 244.828 50.5525 247.239 50.0427C249.651 49.5329 251.892 48.4149 253.75 46.7951Z" stroke="#249788" stroke-width="6" mask="url(#path-1-outside-1_794_1882)"/>
<path d="M330.611 33.8017C332.189 36.0483 332.956 38.7643 332.788 41.5044C332.793 43.6005 332.282 45.6656 331.3 47.5173C330.318 49.369 328.894 50.9502 327.156 52.1211C323.515 54.6678 318.443 55.8318 311.941 55.6131L285.563 54.8722L287.032 3.44727L312.018 4.15847C318.139 4.31921 322.889 5.61852 326.269 8.05639C327.872 9.16723 329.16 10.6748 330.006 12.4319C330.853 14.189 331.229 16.1356 331.099 18.0815C331.073 20.4125 330.385 22.6882 329.116 24.6434C327.788 26.5757 325.948 28.0998 323.802 29.0448C326.503 29.8997 328.879 31.5594 330.611 33.8017ZM300.76 24.4821L310.016 24.743C314.13 24.8679 316.237 23.2311 316.337 19.8325C316.438 16.434 314.428 14.6845 310.307 14.5843L301.126 14.2906L300.76 24.4821ZM318.105 40.0535C318.205 36.5579 316.147 34.7561 311.932 34.648L300.474 34.3253L300.175 44.9048L311.633 45.2276C315.863 45.3132 318.027 43.5638 318.125 39.9795L318.105 40.0535Z" stroke="#249788" stroke-width="6" mask="url(#path-1-outside-1_794_1882)"/>
<path d="M427.117 355.452L449.106 362.459L434.637 346.04L436.314 340.829L457.165 335.762L435.659 328.846L439.125 318.061L480.605 331.402L477.497 341.06L448.871 347.939L468.218 369.852L465.111 379.51L423.6 366.29L427.117 355.452Z" stroke="#249788" stroke-width="6" mask="url(#path-1-outside-1_794_1882)"/>
<path d="M424.47 419.836L436.585 404.272L409.915 383.512L417.367 373.937L451.746 400.693L432.142 425.887L424.47 419.836Z" stroke="#249788" stroke-width="6" mask="url(#path-1-outside-1_794_1882)"/>
<path d="M384.136 462.949L379.723 425.005C379.181 421.39 379.544 417.698 380.778 414.258C381.911 411.23 383.948 408.622 386.611 406.787C388.817 405.316 391.279 404.271 393.869 403.705L396.66 412.839C395.245 413.274 393.897 413.904 392.656 414.712C391.722 415.336 390.972 416.198 390.484 417.21C389.993 418.346 389.765 419.579 389.817 420.816L421.632 436.895L410.955 444.323L390.611 432.868L393.996 456.14L384.136 462.949Z" stroke="#249788" stroke-width="6" mask="url(#path-1-outside-1_794_1882)"/>
<path d="M358.228 426.573L328.797 436.687L326.693 430.564L356.123 420.451L358.228 426.573Z" stroke="#249788" stroke-width="6" mask="url(#path-1-outside-1_794_1882)"/>
<path d="M316.252 440.355C319.903 441.975 323.033 444.575 325.296 447.866C327.55 451.296 328.869 455.255 329.123 459.351C329.377 463.448 328.556 467.539 326.743 471.222C324.906 474.764 322.126 477.729 318.71 479.792C315.043 481.983 310.889 483.229 306.621 483.416C302.931 483.707 299.22 483.216 295.733 481.975C292.537 480.824 289.674 478.904 287.396 476.385L294.785 468.817C297.819 472.03 301.341 473.513 305.348 473.266C307.551 473.167 309.689 472.496 311.554 471.32C313.315 470.189 314.71 468.572 315.573 466.666C316.447 464.585 316.828 462.33 316.687 460.078C316.545 457.825 315.885 455.636 314.758 453.681C313.666 451.899 312.082 450.472 310.197 449.57C308.2 448.635 305.994 448.237 303.797 448.413C299.778 448.668 296.468 450.58 293.867 454.151L285.592 447.558C287.538 444.776 290.139 442.515 293.165 440.973C296.467 439.306 300.085 438.357 303.781 438.187C308.054 437.862 312.34 438.607 316.252 440.355Z" stroke="#249788" stroke-width="6" mask="url(#path-1-outside-1_794_1882)"/>
<path d="M248.641 439.481L266.365 444.512L271.966 437.299L284.076 440.734L253.685 477.395L242.008 474.089L235.335 426.909L247.667 430.402L248.641 439.481ZM249.615 449.201L251.196 464.167L260.39 452.282L249.615 449.201Z" stroke="#249788" stroke-width="6" mask="url(#path-1-outside-1_794_1882)"/>
<path d="M182.155 439.511C180.608 436.933 179.851 433.958 179.977 430.954C180.103 427.951 181.107 425.05 182.865 422.611C184.622 420.172 187.056 418.301 189.865 417.231C192.675 416.16 195.736 415.937 198.671 416.588C202.106 417.369 205.336 418.871 208.148 420.994L214.313 425.435L220.97 416.194L230.971 423.376L205.501 458.724L189.347 447.065C186.441 445.086 183.989 442.511 182.155 439.511ZM197.466 427.3C196.592 427.396 195.751 427.688 195.005 428.154C194.26 428.62 193.629 429.248 193.159 429.991C192.601 430.676 192.204 431.477 191.996 432.336C191.788 433.194 191.775 434.088 191.957 434.953C192.35 436.612 193.567 438.185 195.622 439.665L201.179 443.667L208.635 433.31L203.078 429.308C201.029 427.836 199.159 427.162 197.466 427.3Z" stroke="#249788" stroke-width="6" mask="url(#path-1-outside-1_794_1882)"/>
<path d="M187.779 389.767C188.248 393.804 187.604 397.893 185.916 401.59C184.229 405.287 181.563 408.452 178.206 410.743C174.849 413.034 170.929 414.363 166.871 414.586C162.814 414.81 158.772 413.919 155.184 412.011C151.421 409.909 148.198 406.962 145.769 403.402C143.34 399.842 141.771 395.766 141.186 391.496C140.714 387.459 141.356 383.369 143.042 379.67C144.729 375.971 147.396 372.804 150.754 370.513C154.112 368.222 158.033 366.895 162.092 366.674C166.152 366.453 170.194 367.347 173.781 369.26C177.543 371.361 180.765 374.307 183.194 377.866C185.624 381.425 187.193 385.499 187.779 389.767ZM170.111 379.562C168.242 378.668 166.16 378.313 164.1 378.536C161.859 378.827 159.718 379.642 157.85 380.916C155.983 382.19 154.443 383.886 153.354 385.867C152.397 387.704 151.969 389.771 152.12 391.836C152.302 393.921 153.017 395.924 154.197 397.653C155.376 399.382 156.979 400.778 158.854 401.709C160.724 402.6 162.804 402.955 164.864 402.735C167.104 402.442 169.244 401.626 171.11 400.352C172.976 399.078 174.515 397.383 175.603 395.403C176.563 393.565 176.994 391.496 176.846 389.427C176.658 387.345 175.94 385.345 174.762 383.619C173.583 381.892 171.982 380.495 170.111 379.562Z" stroke="#249788" stroke-width="6" mask="url(#path-1-outside-1_794_1882)"/>
<path d="M139.211 319.359C140.681 317.556 142.72 316.307 144.993 315.816C146.699 315.323 148.5 315.261 150.235 315.635C151.971 316.01 153.586 316.81 154.936 317.964C157.821 320.34 159.939 324.203 161.288 329.552L166.745 351.22L124.498 361.867L119.331 341.343C118.056 336.259 118.02 332.087 119.224 328.825C119.764 327.26 120.701 325.863 121.943 324.769C123.185 323.675 124.689 322.922 126.31 322.584C128.215 322.065 130.229 322.105 132.112 322.697C133.994 323.328 135.661 324.475 136.923 326.006C136.988 323.608 137.786 321.288 139.211 319.359ZM147.129 328.113C144.267 328.831 143.262 330.917 144.116 334.372L146.486 343.791L155.181 341.602L152.803 332.182C151.953 328.737 150.062 327.381 147.129 328.113ZM138.437 345.835L136.524 338.209C135.672 334.827 133.857 333.488 131.08 334.192C128.303 334.895 127.342 336.935 128.195 340.312L130.108 347.938L138.437 345.835Z" stroke="#249788" stroke-width="6" mask="url(#path-1-outside-1_794_1882)"/>
<path d="M167.115 247.474L144.869 241.261L159.922 257.149L158.437 262.422L137.764 268.235L159.511 274.362L156.436 285.271L114.504 273.444L117.228 263.671L145.551 255.757L125.374 234.557L128.098 224.784L170.067 236.49L167.115 247.474Z" stroke="#249788" stroke-width="6" mask="url(#path-1-outside-1_794_1882)"/>
<path d="M167.406 183.048L155.862 199.054L183.275 218.793L176.173 228.635L140.809 203.171L159.484 177.275L167.406 183.048Z" stroke="#249788" stroke-width="6" mask="url(#path-1-outside-1_794_1882)"/>
<path d="M206.176 138.486L211.958 176.288C212.641 179.878 212.422 183.581 211.32 187.065C210.3 190.134 208.36 192.814 205.763 194.742C203.613 196.295 201.189 197.431 198.619 198.089L195.504 189.062C196.908 188.579 198.237 187.901 199.452 187.049C200.362 186.39 201.08 185.501 201.531 184.472C201.987 183.323 202.173 182.083 202.074 180.85L169.698 165.932L180.099 158.122L200.869 168.893L196.648 145.759L206.176 138.486Z" stroke="#249788" stroke-width="6" mask="url(#path-1-outside-1_794_1882)"/>
<path d="M233.362 173.919L262.405 162.738L264.734 168.778L235.691 179.959L233.362 173.919Z" stroke="#249788" stroke-width="6" mask="url(#path-1-outside-1_794_1882)"/>
<path d="M274.812 158.609C271.105 157.121 267.882 154.637 265.497 151.433C263.116 148.089 261.65 144.181 261.245 140.096C260.839 136.011 261.508 131.891 263.184 128.144C264.89 124.531 267.564 121.461 270.909 119.275C274.492 116.957 278.593 115.561 282.847 115.212C286.526 114.787 290.254 115.142 293.786 116.254C297.019 117.292 299.948 119.105 302.317 121.536L295.212 129.376C292.07 126.268 288.496 124.914 284.488 125.313C282.291 125.492 280.178 126.24 278.357 127.483C276.642 128.674 275.309 130.337 274.52 132.271C273.724 134.384 273.426 136.652 273.652 138.899C273.877 141.145 274.619 143.309 275.819 145.222C276.973 146.964 278.61 148.332 280.528 149.16C282.556 150.027 284.776 150.346 286.965 150.085C290.953 149.683 294.192 147.654 296.682 143.995L305.192 150.249C303.346 153.099 300.83 155.454 297.865 157.108C294.624 158.887 291.046 159.967 287.362 160.278C283.105 160.768 278.793 160.195 274.812 158.609Z" stroke="#249788" stroke-width="6" mask="url(#path-1-outside-1_794_1882)"/>
<path d="M342.427 157.038L324.532 152.657L319.154 160.09L306.943 157.099L335.989 119.351L347.777 122.244L356.154 169.147L343.702 166.081L342.427 157.038ZM341.08 147.351L338.956 132.478L330.205 144.648L341.08 147.351Z" stroke="#249788" stroke-width="6" mask="url(#path-1-outside-1_794_1882)"/>
<path d="M408.858 154.571C410.5 157.091 411.367 160.037 411.352 163.045C411.337 166.053 410.44 168.99 408.772 171.493C407.104 173.996 404.739 175.955 401.969 177.128C399.199 178.3 396.146 178.635 393.188 178.089C389.726 177.432 386.444 176.046 383.557 174.025L377.237 169.815L370.919 179.292L360.667 172.461L384.842 136.203L401.414 147.25C404.386 149.136 406.923 151.631 408.858 154.571ZM394 167.334C394.87 167.207 395.7 166.885 396.429 166.393C397.157 165.9 397.766 165.25 398.209 164.491C398.739 163.785 399.105 162.97 399.28 162.105C399.456 161.24 399.437 160.347 399.224 159.49C398.778 157.839 397.496 156.317 395.38 154.91L389.678 151.119L382.609 161.732L388.303 165.529C390.426 166.937 392.309 167.569 394 167.334Z" stroke="#249788" stroke-width="6" mask="url(#path-1-outside-1_794_1882)"/>
<path d="M405.156 204.826C404.543 200.809 405.041 196.701 406.595 192.946C408.148 189.191 410.7 185.933 413.972 183.523C417.244 181.114 421.113 179.645 425.16 179.276C429.207 178.907 433.278 179.652 436.932 181.43C440.767 183.395 444.094 186.223 446.65 189.693C449.206 193.163 450.921 197.179 451.66 201.425C452.275 205.443 451.78 209.553 450.227 213.309C448.673 217.065 446.122 220.325 442.849 222.735C439.576 225.145 435.706 226.613 431.658 226.981C427.61 227.349 423.538 226.602 419.884 224.821C416.047 222.859 412.718 220.031 410.162 216.561C407.606 213.09 405.892 209.073 405.156 204.826ZM423.178 214.398C425.086 215.207 427.179 215.474 429.229 215.17C431.458 214.796 433.567 213.902 435.386 212.56C437.205 211.219 438.683 209.468 439.7 207.45C440.593 205.583 440.948 203.504 440.725 201.446C440.468 199.37 439.681 197.394 438.441 195.709C437.2 194.024 435.548 192.686 433.641 191.824C431.736 191.008 429.64 190.741 427.591 191.052C425.359 191.425 423.247 192.32 421.427 193.664C419.607 195.008 418.131 196.764 417.118 198.787C416.225 200.656 415.869 202.738 416.092 204.798C416.352 206.873 417.14 208.847 418.38 210.532C419.62 212.216 421.271 213.555 423.176 214.42L423.178 214.398Z" stroke="#249788" stroke-width="6" mask="url(#path-1-outside-1_794_1882)"/>
<path d="M456.139 273.098C454.737 274.953 452.746 276.277 450.492 276.851C448.807 277.407 447.01 277.535 445.262 277.225C443.515 276.914 441.872 276.174 440.481 275.071C437.508 272.802 435.25 269.017 433.707 263.717L427.464 242.251L469.294 230.074L475.211 250.391C476.667 255.409 476.853 259.579 475.77 262.901C475.29 264.484 474.409 265.915 473.212 267.056C472.014 268.197 470.541 269.008 468.937 269.41C467.053 269.998 465.04 270.033 463.137 269.511C461.232 268.944 459.522 267.856 458.201 266.371C458.219 268.772 457.499 271.12 456.139 273.098ZM455.94 246.61L458.138 254.139C459.106 257.488 460.974 258.76 463.719 257.959C466.464 257.158 467.355 255.087 466.38 251.737L464.19 244.208L455.94 246.61ZM447.903 264.636C450.73 263.816 451.645 261.691 450.651 258.262L447.958 248.942L439.355 251.453L442.063 260.775C443.073 264.196 445.02 265.483 447.903 264.636Z" stroke="#249788" stroke-width="6" mask="url(#path-1-outside-1_794_1882)"/>
</svg>
