<svg width="837" height="725" viewBox="0 0 837 725" fill="none" xmlns="http://www.w3.org/2000/svg">
<path d="M579.403 143.021L578.843 144.413L580.236 144.972L592.735 149.986L594.127 150.544L594.686 149.153L613.859 101.455L614.417 100.067L613.03 99.5053L601.924 95.0104L601.13 94.6889L600.449 95.2099L575.066 114.647L569.858 82.8033L569.722 81.9713L568.94 81.655L557.834 77.1601L556.446 76.5982L555.882 77.9856L536.511 125.631L535.946 127.021L537.336 127.586L549.69 132.6L551.082 133.164L551.645 131.773L559.654 111.983L562.93 131.721L563.067 132.55L563.846 132.866L569.803 135.281L570.593 135.602L571.273 135.087L587.555 122.747L579.403 143.021Z" stroke="#249788" stroke-width="3"/>
<path d="M655.226 146.046L656.438 146.918L657.315 145.709L664.102 136.352L664.986 135.133L663.763 134.254L633.142 112.232L631.922 111.355L631.046 112.576L601.084 154.398L600.213 155.613L601.425 156.488L613.069 164.892L614.29 165.773L615.167 164.548L637.518 133.318L655.226 146.046Z" stroke="#249788" stroke-width="3"/>
<path d="M711.23 186.691L713.673 186.087L711.98 184.226L702.451 173.747L701.829 173.063L700.939 173.311L677.135 179.934L686.41 157.159L686.766 156.286L686.133 155.586L675.83 144.2L674.144 142.337L673.304 144.705L659.553 183.492C658.635 183.551 657.712 183.454 656.824 183.202C655.835 182.859 654.954 182.261 654.27 181.469C653.235 180.244 652.375 178.882 651.713 177.421L651.096 176.056L649.731 176.672L639.455 181.302L638.195 181.87L638.658 183.172C639.769 186.3 641.46 189.19 643.643 191.692L643.649 191.699L643.656 191.706C646.405 194.779 650.031 196.935 654.043 197.886L654.055 197.888L654.067 197.891C658.514 198.868 663.133 198.734 667.515 197.499L711.23 186.691Z" stroke="#249788" stroke-width="3"/>
<path d="M668.455 212.891L667.632 211.642L666.381 212.462L659.972 216.662L658.714 217.487L659.542 218.743L679.774 249.419L680.598 250.668L681.848 249.848L688.258 245.648L689.516 244.823L688.687 243.567L668.455 212.891Z" stroke="#249788" stroke-width="3"/>
<path d="M694.857 257.351L694.857 257.352C694.442 262.619 695.34 267.905 697.469 272.739C699.192 276.973 701.785 280.798 705.079 283.967L705.084 283.971C708.168 286.913 711.93 289.048 716.037 290.187L717.393 290.563L717.855 289.234L721.953 277.44L722.489 275.898L720.907 275.494C718.853 274.97 716.947 273.979 715.338 272.599C713.728 271.22 712.458 269.488 711.625 267.538L711.621 267.529L711.617 267.52C710.668 265.38 710.29 263.031 710.519 260.702C710.749 258.541 711.605 256.494 712.983 254.812L712.984 254.81C714.513 252.938 716.493 251.487 718.738 250.593L718.767 250.582L718.795 250.569C721.002 249.584 723.421 249.167 725.831 249.355C727.998 249.54 730.064 250.348 731.782 251.683C733.617 253.135 735.042 255.04 735.917 257.21L735.922 257.222L735.928 257.235C736.755 259.185 737.12 261.3 736.993 263.414C736.867 265.529 736.252 267.585 735.198 269.423L734.384 270.842L735.868 271.53L747.193 276.784L748.473 277.377L749.144 276.137C751.17 272.394 752.247 268.212 752.282 263.956L752.282 263.947C752.291 259.378 751.343 254.858 749.498 250.678C747.51 245.78 744.335 241.454 740.258 238.089L740.258 238.088C736.406 234.913 731.751 232.867 726.807 232.177L726.793 232.175L726.779 232.173C721.707 231.565 716.565 232.293 711.862 234.286C707.16 236.279 703.06 239.467 699.97 243.533L699.96 243.546L699.951 243.559C697.014 247.6 695.252 252.373 694.857 257.351Z" stroke="#249788" stroke-width="3"/>
<path d="M710.596 309.097L710.762 310.094L711.748 310.315L721.276 312.449L724.449 331.908L716.172 337.018L715.315 337.547L715.48 338.54L717.952 353.468L718.329 355.742L720.255 354.476L767.285 323.594L768.101 323.058L767.941 322.094L765.589 307.951L765.429 306.988L764.482 306.745L710.018 292.759L707.788 292.186L708.165 294.457L710.596 309.097ZM735.658 315.588L747.169 318.129L737.1 324.26L735.658 315.588Z" stroke="#249788" stroke-width="3"/>
<path d="M766.439 399.154L766.441 399.151C768.409 395.28 769.538 391.037 769.753 386.7L771.44 363.261L771.548 361.764L770.051 361.657L718.732 357.971L717.235 357.863L717.128 359.36L716.092 373.876L715.985 375.373L717.482 375.48L729.401 376.326L728.869 383.754C728.456 388.108 728.972 392.499 730.385 396.638L730.387 396.644C731.647 400.283 733.949 403.47 737.007 405.811C740.064 408.152 743.742 409.543 747.584 409.81C751.425 410.078 755.261 409.21 758.613 407.316C761.965 405.421 764.687 402.583 766.439 399.154ZM755.409 384.742L755.405 384.797L755.405 384.851C755.409 386.878 754.69 388.837 753.38 390.38C752.104 391.426 750.475 391.945 748.827 391.827C747.183 391.709 745.648 390.966 744.536 389.754C743.489 388.023 743.072 385.983 743.358 383.978L743.366 383.926L743.369 383.873L743.837 377.308L755.878 378.175L755.409 384.742Z" stroke="#249788" stroke-width="3"/>
<path d="M724.842 416.477C721.482 417.281 718.316 418.701 715.498 420.65L715.778 419.608L711.774 423.703C708.045 427.517 705.258 432.148 703.633 437.227C702.008 442.307 701.591 447.696 702.414 452.965L702.416 452.979L702.418 452.992C703.292 457.989 705.517 462.651 708.851 466.474C712.185 470.296 716.501 473.134 721.333 474.678C726.164 476.223 731.326 476.417 736.26 475.238C741.193 474.059 745.71 471.552 749.32 467.989L749.33 467.98L749.34 467.97C753.058 464.162 755.838 459.542 757.459 454.473C759.081 449.405 759.5 444.029 758.683 438.771L758.681 438.758L758.679 438.744C757.811 433.745 755.59 429.078 752.257 425.252C748.925 421.425 744.607 418.584 739.774 417.037C734.941 415.49 729.777 415.297 724.842 416.477ZM717.614 448.338L717.608 448.338C717.188 446.189 717.317 443.97 717.985 441.884C718.656 439.79 719.848 437.901 721.448 436.393C723.053 434.942 725.033 433.969 727.163 433.586L727.168 433.585C729.546 433.148 731.996 433.332 734.282 434.118L734.311 434.129L734.341 434.137C736.656 434.829 738.757 436.098 740.446 437.826C741.947 439.384 742.992 441.324 743.467 443.434C743.891 445.59 743.762 447.818 743.092 449.911C742.421 452.004 741.232 453.893 739.634 455.402C738.025 456.844 736.051 457.817 733.927 458.215C731.541 458.637 729.086 458.451 726.79 457.676L726.766 457.667L726.742 457.66C724.425 456.964 722.324 455.69 720.636 453.957C719.126 452.401 718.079 450.455 717.614 448.338Z" stroke="#249788" stroke-width="3"/>
<path d="M689.302 523.278L689.334 523.275L689.365 523.271C691.457 522.993 693.457 522.29 695.249 521.216C695.432 522.767 695.872 524.284 696.558 525.703L696.564 525.716L696.571 525.73C697.751 528.053 699.571 529.989 701.816 531.309C703.649 532.516 705.761 533.233 707.951 533.39C710.147 533.548 712.347 533.137 714.338 532.197C718.464 530.382 722.149 526.631 725.459 521.208L725.461 521.205L738.441 499.824L739.218 498.545L737.941 497.765L694.048 470.946L692.769 470.164L691.987 471.444L678.229 493.951L678.228 493.952C674.746 499.667 673.078 504.967 673.494 509.793C673.656 512.127 674.394 514.384 675.642 516.363C676.884 518.332 678.591 519.964 680.614 521.115C683.184 522.791 686.245 523.554 689.302 523.278ZM690.786 506.581L690.784 506.58C689.512 505.807 688.989 504.99 688.856 504.174C688.713 503.3 688.959 502.083 689.947 500.433L695.14 491.933L701.661 495.909L696.467 504.412L696.466 504.414C695.457 506.07 694.502 506.857 693.681 507.14C692.927 507.399 692.008 507.326 690.786 506.581ZM708.629 509.331L708.633 509.325L708.637 509.318L712.635 502.649L718.723 506.373L714.718 513.054C714.717 513.056 714.716 513.058 714.715 513.059C713.732 514.668 712.799 515.441 712.004 515.72C711.28 515.974 710.404 515.911 709.244 515.189C708.067 514.458 707.605 513.701 707.499 512.944C707.382 512.118 707.637 510.947 708.629 509.331Z" stroke="#249788" stroke-width="3"/>
<path d="M611.411 565.489L610.494 564.309L609.311 565.221L598.625 573.453L597.43 574.374L598.357 575.564L629.988 616.15L630.908 617.33L632.09 616.413L641.56 609.071L642.235 608.548L642.13 607.7L638.185 575.908L668.332 587.407L669.119 587.707L669.785 587.191L679.252 579.861L680.438 578.943L679.519 577.757L648.016 537.086L647.096 535.897L645.91 536.82L635.313 545.063L634.131 545.983L635.049 547.166L648.127 564.043L629.417 556.943L628.635 556.646L627.972 557.155L622.867 561.071L622.187 561.593L622.291 562.443L624.771 582.695L611.411 565.489Z" stroke="#249788" stroke-width="3"/>
<path d="M570.822 629.544L569.463 630.158L570.069 631.521L574.76 642.063L575.373 643.442L576.749 642.82L611.094 627.283L612.461 626.665L611.843 625.298L590.639 578.431L590.021 577.065L588.654 577.683L575.593 583.588L574.226 584.206L574.845 585.573L590.677 620.566L570.822 629.544Z" stroke="#249788" stroke-width="3"/>
<path d="M507.634 657.747L506.942 660.149L509.388 659.629L523.269 656.678L524.178 656.484L524.409 655.584L530.564 631.648L545.63 650.955L546.208 651.696L547.128 651.498L562.152 648.272L564.61 647.744L562.978 645.832L536.247 614.519C536.639 613.694 537.171 612.941 537.82 612.294C538.602 611.616 539.549 611.157 540.566 610.965C542.146 610.677 543.758 610.611 545.356 610.767L546.846 610.914L546.995 609.423L548.112 598.204L548.249 596.826L546.886 596.58C543.64 595.993 540.313 596.013 537.074 596.638L537.061 596.64L537.048 596.643C533.014 597.497 529.339 599.564 526.514 602.567L526.507 602.574L526.5 602.582C523.427 605.941 521.233 610.009 520.114 614.422L507.634 657.747Z" stroke="#249788" stroke-width="3"/>
<path d="M506.34 607.611L507.839 607.524L507.75 606.025L507.296 598.401L507.207 596.905L505.711 596.992L469.038 599.133L467.542 599.22L467.628 600.716L468.066 608.35L468.152 609.849L469.651 609.761L506.34 607.611Z" stroke="#249788" stroke-width="3"/>
<path d="M454.676 608.175L454.676 608.175L454.671 608.172C450.316 605.169 445.283 603.295 440.024 602.719C435.504 602.082 430.9 602.399 426.509 603.649L426.509 603.649L426.505 603.65C422.414 604.829 418.679 607.005 415.635 609.981L414.63 610.964L415.546 612.031L423.681 621.502L424.738 622.732L425.882 621.583C428.219 619.236 431.311 617.794 434.611 617.511C437.907 617.229 441.196 618.123 443.895 620.035C445.647 621.321 446.986 623.09 447.748 625.126C448.591 627.393 448.849 629.836 448.5 632.229L448.496 632.256L448.493 632.283C448.231 634.685 447.378 636.985 446.008 638.975C444.753 640.751 443.015 642.131 441.001 642.951C437.913 644.132 434.506 644.182 431.385 643.09C428.259 641.997 425.622 639.83 423.944 636.976L423.122 635.578L421.792 636.506L411.554 643.657L410.4 644.463L411.132 645.666C413.342 649.302 416.416 652.336 420.081 654.5L420.086 654.503C424.031 656.809 428.415 658.263 432.956 658.772C438.193 659.518 443.534 658.949 448.497 657.117L448.499 657.117C453.181 655.382 457.291 652.383 460.372 648.453L460.381 648.441L460.39 648.429C463.46 644.349 465.411 639.538 466.051 634.472C466.69 629.406 465.996 624.261 464.037 619.546L464.031 619.531L464.024 619.516C462.01 614.948 458.775 611.024 454.676 608.175Z" stroke="#249788" stroke-width="3"/>
<path d="M402.053 595.722L401.107 595.366L400.422 596.109L393.806 603.29L375.3 596.33L375.066 586.521L375.042 585.51L374.096 585.153L359.928 579.811L357.77 578.998L357.901 581.3L361.103 637.477L361.159 638.452L362.072 638.796L375.488 643.843L376.401 644.187L377.085 643.491L416.489 603.406L418.105 601.763L415.948 600.951L402.053 595.722ZM383.797 614.208L375.836 622.895L375.58 611.112L383.797 614.208Z" stroke="#249788" stroke-width="3"/>
<path d="M296.075 599.069L296.078 599.073C298.454 602.74 301.585 605.858 305.26 608.221L324.721 621.355L325.962 622.193L326.802 620.953L355.651 578.357L356.492 577.114L355.25 576.273L343.196 568.117L341.953 567.275L341.112 568.52L334.399 578.46L328.234 574.285C324.676 571.751 320.621 570.004 316.336 569.159L316.331 569.159C312.554 568.427 308.645 568.821 305.09 570.291C301.535 571.761 298.489 574.243 296.332 577.428C294.175 580.614 293 584.363 292.955 588.21C292.909 592.057 293.994 595.833 296.075 599.069ZM311.214 587.563L311.269 587.491L311.315 587.413C311.728 586.712 312.294 586.115 312.971 585.664C313.628 585.228 314.372 584.941 315.151 584.824C317.184 584.771 319.173 585.431 320.772 586.692L320.815 586.726L320.861 586.757L326.328 590.449L319.568 600.441L314.103 596.739L314.057 596.707L314.008 596.679C312.24 595.665 310.895 594.051 310.215 592.132C310.039 591.355 310.034 590.55 310.199 589.771C310.369 588.968 310.716 588.214 311.214 587.563Z" stroke="#249788" stroke-width="3"/>
<path d="M302.201 539.446L302.197 539.432L302.193 539.417C300.764 534.293 298.164 529.571 294.598 525.624C291.031 521.677 286.596 518.613 281.643 516.673L281.629 516.668L281.615 516.662C276.855 514.909 271.707 514.491 266.726 515.453C261.746 516.415 257.124 518.721 253.36 522.121C249.596 525.521 246.834 529.886 245.372 534.743C243.911 539.6 243.805 544.764 245.068 549.677L245.071 549.692L245.076 549.706C246.504 554.834 249.105 559.559 252.673 563.509C256.241 567.459 260.678 570.526 265.635 572.467L265.649 572.472L265.663 572.478C270.424 574.23 275.573 574.647 280.554 573.683C285.534 572.72 290.156 570.412 293.92 567.01C297.683 563.608 300.444 559.241 301.903 554.383C303.363 549.524 303.466 544.359 302.201 539.446ZM277.987 532.142L277.992 532.143C280.087 532.812 281.961 534.038 283.413 535.689L283.426 535.703L283.439 535.717C284.937 537.335 285.977 539.324 286.452 541.477C286.888 543.595 286.737 545.791 286.013 547.828C285.142 550.094 283.75 552.123 281.949 553.75C280.148 555.378 277.989 556.558 275.647 557.196C273.548 557.708 271.349 557.635 269.289 556.985C267.201 556.272 265.328 555.039 263.848 553.402C262.368 551.764 261.329 549.776 260.83 547.626C260.383 545.515 260.535 543.321 261.269 541.292C262.141 539.028 263.533 537.002 265.333 535.375C267.132 533.748 269.287 532.567 271.626 531.927C273.725 531.404 275.929 531.478 277.987 532.142Z" stroke="#249788" stroke-width="3"/>
<path d="M227.357 470.055L227.343 470.086L227.33 470.117C226.528 472.076 226.142 474.168 226.184 476.262C224.754 475.645 223.223 475.268 221.655 475.154L221.639 475.153L221.624 475.152C219.027 475.016 216.444 475.62 214.176 476.892C212.211 477.871 210.531 479.34 209.298 481.158C208.061 482.982 207.317 485.095 207.138 487.292C206.681 491.768 208.089 496.818 211.111 502.372L223.03 524.334L223.746 525.653L225.064 524.937L270.276 500.397L271.594 499.681L270.879 498.363L258.295 475.178L258.294 475.176C255.097 469.306 251.346 465.206 246.959 463.137C244.856 462.106 242.53 461.612 240.19 461.7C237.862 461.788 235.593 462.449 233.582 463.624C230.843 465.005 228.649 467.271 227.357 470.055ZM229.843 493.786L233.551 500.601L227.282 504.008L223.575 497.195C223.575 497.194 223.575 497.194 223.574 497.193C222.674 495.528 222.477 494.336 222.636 493.51C222.78 492.756 223.277 492.028 224.48 491.376C225.684 490.723 226.565 490.704 227.274 490.993C228.051 491.309 228.941 492.123 229.843 493.785L229.843 493.786ZM241.086 479.715L241.603 479.438C242.637 478.997 243.438 479.008 244.095 479.263C244.92 479.582 245.844 480.411 246.765 482.101C246.765 482.101 246.765 482.101 246.766 482.101L251.525 490.862L244.879 494.482L240.12 485.722L240.12 485.722L240.117 485.716C239.18 484.01 238.974 482.786 239.141 481.935C239.294 481.155 239.819 480.395 241.086 479.715Z" stroke="#249788" stroke-width="3"/>
<path d="M229.724 381.438L231.204 381.232L231.004 379.751L229.203 366.456L229.001 364.964L227.51 365.171L176.554 372.256L175.073 372.462L175.275 373.944L176.9 385.871L177.015 386.717L177.801 387.05L207.305 399.551L182.241 419.882L181.586 420.413L181.699 421.249L183.313 433.12L183.515 434.607L185.002 434.404L235.971 427.469L237.456 427.267L237.255 425.781L235.457 412.526L235.255 411.039L233.768 411.241L212.573 414.127L228.101 401.387L228.754 400.851L228.634 400.015L227.715 393.587L227.595 392.75L226.817 392.419L208.085 384.447L229.724 381.438Z" stroke="#249788" stroke-width="3"/>
<path d="M194.709 314.216L194.858 312.74L193.384 312.574L181.932 311.289L180.427 311.12L180.273 312.628L176.445 350.132L176.293 351.625L177.785 351.777L228.958 356.995L230.45 357.147L230.603 355.655L232.059 341.397L232.211 339.904L230.718 339.752L192.515 335.872L194.709 314.216Z" stroke="#249788" stroke-width="3"/>
<path d="M201.993 245.499L200.257 243.693L199.485 246.076L195.117 259.568L194.831 260.45L195.493 261.1L213.128 278.428L188.837 281.762L187.905 281.891L187.614 282.786L182.888 297.37L182.112 299.762L184.586 299.308L225.059 291.874C225.57 292.64 225.946 293.49 226.167 294.387C226.366 295.414 226.296 296.475 225.964 297.467C225.418 298.98 224.667 300.411 223.731 301.72L222.862 302.935L224.073 303.809L233.216 310.406L234.335 311.214L235.233 310.166C237.395 307.643 239.059 304.732 240.136 301.59L240.14 301.58L240.143 301.571C241.429 297.652 241.484 293.434 240.299 289.484L240.296 289.474L240.293 289.464C238.927 285.121 236.505 281.184 233.245 278.005L201.993 245.499Z" stroke="#249788" stroke-width="3"/>
<path d="M246.035 269.466L245.362 270.805L246.7 271.479L253.532 274.921L254.873 275.597L255.547 274.254L272.035 241.41L272.708 240.07L271.368 239.397L264.546 235.97L263.206 235.297L262.532 236.637L246.035 269.466Z" stroke="#249788" stroke-width="3"/>
<path d="M271.392 224.446L271.391 224.446C266.877 226.582 261.857 227.421 256.894 226.87L256.879 226.868L256.863 226.866C251.811 226.201 247.02 224.228 242.963 221.144C238.906 218.06 235.724 213.97 233.732 209.28L233.726 209.266L233.72 209.252C231.861 204.614 231.325 199.552 232.17 194.628L271.392 224.446ZM271.392 224.446C276.12 222.206 280.226 218.84 283.35 214.644C286.195 211.044 288.25 206.885 289.381 202.437L289.383 202.429C290.411 198.283 290.403 193.948 289.359 189.807L289.014 188.44L287.629 188.699L275.35 190.996L273.74 191.298L274.181 192.875C274.751 194.915 274.841 197.06 274.445 199.142C274.048 201.223 273.175 203.185 271.895 204.873L271.887 204.883L271.879 204.894C270.496 206.783 268.646 208.281 266.511 209.241C264.525 210.109 262.331 210.385 260.192 210.036C257.809 209.577 255.563 208.574 253.629 207.106C251.696 205.639 250.127 203.746 249.043 201.575C248.135 199.601 247.813 197.409 248.114 195.257C248.457 192.923 249.408 190.721 250.871 188.871L250.88 188.861L250.887 188.85C252.175 187.164 253.835 185.799 255.739 184.863C257.643 183.927 259.737 183.445 261.859 183.455L263.502 183.463L263.36 181.826L262.285 169.373L262.164 167.966L260.752 168.002C256.504 168.111 252.346 169.259 248.643 171.345L248.643 171.345L248.639 171.348M271.392 224.446L248.639 171.348M248.639 171.348C244.667 173.604 241.215 176.672 238.508 180.352M248.639 171.348L238.508 180.352M238.508 180.352C235.241 184.509 233.063 189.416 232.171 194.627L238.508 180.352Z" stroke="#249788" stroke-width="3"/>
<path d="M308.501 185.135L309.284 184.496L308.985 183.53L306.099 174.2L321.421 161.735L329.94 166.423L330.823 166.909L331.606 166.275L343.41 156.731L345.212 155.274L343.145 154.227L292.916 128.774L292.045 128.333L291.289 128.95L280.184 138.007L279.427 138.625L279.686 139.568L294.608 193.76L295.219 195.98L297.003 194.524L308.501 185.135ZM301.711 160.091L298.197 148.85L308.511 154.553L301.711 160.091Z" stroke="#249788" stroke-width="3"/>
<path d="M358.791 91.8354L358.791 91.8354L358.778 91.8361C354.398 92.0851 350.123 93.2727 346.241 95.3182L325.112 105.489L323.757 106.14L324.412 107.494L346.823 153.799L347.477 155.149L348.827 154.495L361.926 148.152L363.274 147.499L362.624 146.15L357.425 135.366L364.133 132.125C368.108 130.311 371.651 127.672 374.526 124.381L374.526 124.38C377.034 121.506 378.649 117.963 379.175 114.185L379.177 114.167L379.179 114.149C379.619 110.328 378.914 106.463 377.156 103.043C375.551 99.5437 372.956 96.5914 369.69 94.5514L369.675 94.5421L369.66 94.5331C366.379 92.5892 362.6 91.6512 358.791 91.8354ZM361.203 110.682L361.235 110.759L361.275 110.832C361.671 111.543 361.902 112.334 361.951 113.146C361.999 113.935 361.875 114.724 361.587 115.459C360.627 117.249 359.071 118.647 357.188 119.411L357.142 119.429L357.098 119.451L351.162 122.326L345.907 111.46L351.828 108.593L351.877 108.569L351.924 108.542C353.681 107.527 355.741 107.169 357.736 107.531C358.497 107.768 359.198 108.166 359.791 108.698C360.403 109.247 360.885 109.924 361.203 110.682Z" stroke="#249788" stroke-width="3"/>
<path d="M407.318 126.955L407.332 126.959L407.347 126.963C412.502 128.283 417.894 128.389 423.097 127.271C428.3 126.154 433.172 123.844 437.331 120.523L437.343 120.513L437.355 120.503C441.251 117.255 444.184 113.004 445.837 108.21C447.491 103.415 447.802 98.2599 446.736 93.3014C445.671 88.343 443.27 83.7703 439.793 80.0781C436.316 76.386 431.895 73.715 427.01 72.3542L426.995 72.35L426.98 72.3461C421.827 71.026 416.439 70.9197 411.239 72.0357C406.039 73.1516 401.168 75.4593 397.011 78.7771L397 78.7864L396.988 78.7959C393.086 82.0395 390.145 86.2897 388.486 91.0855C386.827 95.8814 386.513 101.04 387.577 106.002C388.641 110.964 391.043 115.54 394.523 119.233C398.003 122.927 402.428 125.597 407.318 126.955ZM429.269 97.1038C429.78 99.4764 429.723 101.936 429.105 104.282C428.506 106.355 427.345 108.222 425.749 109.674C424.086 111.121 422.082 112.119 419.926 112.575C417.768 113.031 415.53 112.929 413.423 112.278C411.37 111.607 409.544 110.38 408.147 108.733C406.623 106.846 405.564 104.627 405.056 102.255C404.547 99.8826 404.604 97.4243 405.221 95.0784C405.818 93.0057 406.975 91.1383 408.566 89.6821C410.228 88.2322 412.234 87.2319 414.392 86.7766C416.552 86.3209 418.793 86.4264 420.9 87.083C422.949 87.7549 424.772 88.9816 426.167 90.6269C427.696 92.5117 428.759 94.7308 429.269 97.1038Z" stroke="#249788" stroke-width="3"/>
<path d="M504.835 96.9399L504.816 96.912L504.795 96.8849C503.515 95.2279 501.918 93.8581 500.108 92.8485C501.361 91.9218 502.458 90.7896 503.349 89.4933L503.36 89.4771L503.37 89.4605C504.787 87.2786 505.558 84.7409 505.595 82.1402C505.734 79.9494 505.307 77.7593 504.354 75.7812C503.397 73.7947 501.942 72.0897 500.132 70.8319C496.418 68.1584 491.336 66.8245 485.055 66.6593C485.054 66.6593 485.054 66.6593 485.053 66.6593L460.071 65.9482L458.572 65.9055L458.529 67.4047L457.06 118.83L457.018 120.33L458.518 120.372L484.887 121.113C484.888 121.113 484.89 121.113 484.891 121.113C491.565 121.337 496.997 120.154 501.001 117.358C502.939 116.05 504.526 114.286 505.621 112.221C506.712 110.165 507.282 107.875 507.284 105.549C507.462 102.486 506.599 99.4518 504.835 96.9399ZM483.054 87.2439L475.31 87.0256L475.568 79.8379L483.256 80.0838L483.256 80.0838L483.267 80.0841C485.16 80.1302 486.286 80.5541 486.917 81.1033C487.493 81.6048 487.876 82.4041 487.835 83.7885C487.794 85.1732 487.365 85.9533 486.758 86.4248C486.095 86.94 484.946 87.3013 483.057 87.244L483.054 87.2439ZM489.602 104.011L489.619 104.013C489.566 105.457 489.119 106.299 488.482 106.814C487.788 107.375 486.6 107.767 484.666 107.728C484.664 107.728 484.662 107.728 484.66 107.728L474.713 107.448L474.927 99.8672L484.886 100.148L484.89 100.148C486.828 100.197 487.989 100.635 488.645 101.209C489.248 101.737 489.643 102.575 489.602 104.011Z" stroke="#249788" stroke-width="3"/>
<path d="M600.574 418.023L599.153 417.57L598.692 418.989L595.175 429.827L594.71 431.261L596.147 431.719L637.657 444.939L639.082 445.393L639.54 443.969L642.648 434.312L642.909 433.5L642.345 432.86L624.647 412.815L650.849 406.518L651.668 406.321L651.926 405.519L655.034 395.862L655.494 394.434L654.066 393.975L612.586 380.633L611.157 380.173L610.698 381.602L607.232 392.387L606.774 393.815L608.201 394.274L624.642 399.561L608.961 403.371L608.145 403.57L607.888 404.37L606.211 409.581L605.95 410.393L606.514 411.032L617.399 423.384L600.574 418.023Z" stroke="#249788" stroke-width="3"/>
<path d="M596.285 482.915L595.37 484.091L596.54 485.014L604.212 491.065L605.398 492L606.325 490.809L625.929 465.615L626.85 464.431L625.666 463.51L591.287 436.754L590.104 435.833L589.182 437.017L581.73 446.592L580.809 447.775L581.992 448.697L607.479 468.535L596.285 482.915Z" stroke="#249788" stroke-width="3"/>
<path d="M555.641 527.123L555.93 529.602L557.984 528.184L567.844 521.374L568.61 520.845L568.476 519.924L565.531 499.673L583.214 509.631L584.034 510.093L584.807 509.555L595.484 502.127L597.548 500.691L595.304 499.557L564.329 483.902C564.389 483.192 564.563 482.494 564.844 481.835C565.215 481.079 565.778 480.434 566.478 479.964C567.6 479.235 568.818 478.666 570.096 478.273L571.527 477.833L571.09 476.401L568.299 467.268L567.895 465.946L566.545 466.24C563.771 466.845 561.136 467.964 558.774 469.54L558.765 469.546L558.756 469.552C555.839 471.561 553.61 474.416 552.368 477.733L552.365 477.743L552.361 477.752C551.046 481.418 550.658 485.351 551.232 489.202L555.641 527.123Z" stroke="#249788" stroke-width="3"/>
<path d="M531.713 491.992L533.132 491.504L532.644 490.086L530.539 483.963L530.052 482.545L528.633 483.032L499.203 493.146L497.784 493.633L498.272 495.052L500.377 501.174L500.864 502.593L502.283 502.105L531.713 491.992Z" stroke="#249788" stroke-width="3"/>
<path d="M499.551 511.042L499.543 511.029L499.534 511.016C497.114 507.497 493.767 504.717 489.864 502.985C485.732 501.139 481.205 500.35 476.691 500.69C472.792 500.872 468.975 501.875 465.49 503.634L465.485 503.637C462.241 505.29 459.452 507.715 457.364 510.698L456.556 511.853L457.659 512.731L465.934 519.324L467.158 520.3L468.081 519.034C470.448 515.785 473.367 514.134 476.893 513.91L476.906 513.909L476.918 513.908C478.854 513.753 480.797 514.104 482.557 514.926C484.172 515.7 485.531 516.923 486.47 518.448C487.476 520.198 488.065 522.157 488.191 524.172C488.318 526.187 487.979 528.204 487.2 530.066C486.457 531.699 485.259 533.084 483.75 534.055C482.107 535.09 480.223 535.681 478.283 535.768L478.27 535.769L478.258 535.769C474.742 535.985 471.641 534.713 468.877 531.787L467.804 530.652L466.713 531.77L459.325 539.338L458.34 540.346L459.285 541.392C461.729 544.093 464.799 546.152 468.226 547.386L468.231 547.388C471.91 548.697 475.823 549.217 479.715 548.914C484.222 548.711 488.608 547.394 492.481 545.08L492.487 545.076C496.139 542.871 499.112 539.7 501.076 535.913L501.084 535.899L501.091 535.884C503.019 531.968 503.892 527.616 503.622 523.259C503.352 518.902 501.949 514.69 499.551 511.042Z" stroke="#249788" stroke-width="3"/>
<path d="M445.375 499.855L444.402 499.579L443.781 500.378L438.801 506.792L423.025 502.314L422.158 494.242L422.05 493.235L421.076 492.959L408.744 489.465L406.527 488.837L406.85 491.119L413.523 538.299L413.66 539.266L414.6 539.532L426.276 542.838L427.216 543.104L427.84 542.352L458.231 505.692L459.7 503.919L457.486 503.291L445.375 499.855ZM430.849 517.116L425.295 524.294L424.34 515.255L430.849 517.116Z" stroke="#249788" stroke-width="3"/>
<path d="M353.867 504.283L353.867 504.283L353.873 504.293C355.815 507.469 358.409 510.196 361.484 512.294L377.622 523.94L378.839 524.819L379.717 523.601L405.186 488.253L406.064 487.034L404.844 486.158L394.843 478.976L393.627 478.102L392.751 479.317L386.971 487.341L382.036 483.787C379.059 481.542 375.639 479.953 372.002 479.125L371.994 479.123C368.773 478.409 365.413 478.654 362.33 479.829C359.246 481.004 356.575 483.057 354.646 485.734C352.717 488.411 351.615 491.595 351.477 494.892C351.338 498.188 352.169 501.453 353.867 504.283ZM367.321 494.937L367.377 494.868L367.424 494.793C367.774 494.24 368.244 493.773 368.798 493.426C369.347 493.084 369.965 492.868 370.607 492.793C371.802 492.703 373.312 493.169 375.2 494.526C375.2 494.526 375.2 494.526 375.2 494.526C375.2 494.526 375.201 494.526 375.201 494.526L379.54 497.651L373.836 505.573L369.497 502.448C367.61 501.089 366.703 499.796 366.419 498.625C366.287 497.985 366.299 497.324 366.453 496.689C366.608 496.047 366.905 495.449 367.321 494.937Z" stroke="#249788" stroke-width="3"/>
<path d="M362.175 453.302L362.173 453.286L362.171 453.271C361.553 448.772 359.899 444.478 357.339 440.727C354.779 436.977 351.382 433.872 347.418 431.658L347.405 431.651L347.392 431.644C343.564 429.602 339.249 428.647 334.916 428.883C330.584 429.119 326.398 430.536 322.814 432.981C319.23 435.427 316.383 438.807 314.583 442.755C312.783 446.703 312.098 451.068 312.602 455.378L312.604 455.392L312.606 455.407C313.222 459.907 314.876 464.202 317.436 467.954C319.996 471.706 323.392 474.812 327.358 477.027L327.371 477.035L327.385 477.042C331.215 479.079 335.528 480.03 339.859 479.791C344.191 479.552 348.374 478.134 351.957 475.689C355.54 473.244 358.386 469.866 360.187 465.92C361.988 461.974 362.675 457.61 362.175 453.302ZM331.601 445.863C333.269 444.725 335.181 443.995 337.183 443.733C338.957 443.544 340.748 443.85 342.358 444.617C343.995 445.436 345.396 446.66 346.428 448.171C347.46 449.683 348.089 451.433 348.256 453.255C348.381 455.036 348.011 456.817 347.187 458.402C346.212 460.169 344.836 461.682 343.17 462.82C341.503 463.958 339.593 464.688 337.593 464.952C335.819 465.138 334.027 464.832 332.415 464.067C330.776 463.251 329.373 462.028 328.341 460.515C327.309 459.001 326.682 457.248 326.52 455.424C326.393 453.645 326.76 451.865 327.582 450.282C328.557 448.514 329.933 447 331.601 445.863Z" stroke="#249788" stroke-width="3"/>
<path d="M324.344 396.541L324.344 396.541C323.962 394.991 323.408 394.185 322.871 393.8C322.384 393.451 321.667 393.275 320.491 393.569L324.344 396.541ZM324.344 396.541L324.346 396.549M324.344 396.541L324.346 396.549M324.346 396.549L326.357 404.514L320.572 405.971L318.569 398.013C318.569 398.012 318.569 398.011 318.569 398.01M324.346 396.549L318.569 398.01M318.569 398.01C318.184 396.449 318.29 395.465 318.578 394.867C318.836 394.331 319.364 393.851 320.491 393.569L318.569 398.01ZM311.046 382.412L311.024 382.439L311.003 382.468C310.002 383.823 309.275 385.348 308.852 386.958C307.86 386.238 306.76 385.669 305.587 385.276L305.573 385.271L305.56 385.267C303.417 384.593 301.126 384.544 298.957 385.125C297.099 385.521 295.375 386.388 293.949 387.644C292.516 388.906 291.434 390.517 290.809 392.321C289.465 395.973 289.562 400.478 290.874 405.709L290.874 405.71L296.041 426.234L296.408 427.689L297.863 427.322L340.109 416.675L341.564 416.309L341.197 414.854L335.74 393.186L335.74 393.185C334.35 387.673 332.117 383.471 328.897 380.815C327.361 379.505 325.523 378.596 323.55 378.17C321.588 377.746 319.553 377.812 317.624 378.361C315.038 378.931 312.72 380.359 311.046 382.412ZM309.616 408.747L304.195 410.116L302.648 403.948L302.647 403.945C302.261 402.419 302.36 401.464 302.631 400.89C302.871 400.381 303.365 399.92 304.446 399.646C305.527 399.372 306.179 399.542 306.631 399.876C307.142 400.253 307.682 401.047 308.068 402.576C308.068 402.576 308.068 402.576 308.068 402.576L309.616 408.747Z" stroke="#249788" stroke-width="3"/>
<path d="M339.714 312.919L341.173 313.326L341.566 311.864L344.518 300.88L344.904 299.445L343.473 299.046L301.503 287.34L300.058 286.936L299.655 288.382L296.931 298.154L296.703 298.974L297.29 299.591L315.747 318.984L289.827 326.227L289.013 326.454L288.786 327.269L286.062 337.042L285.66 338.482L287.099 338.888L329.031 350.715L330.475 351.122L330.882 349.678L333.958 338.769L334.365 337.326L332.921 336.919L316.303 332.236L331.846 327.866L332.656 327.638L332.884 326.828L334.369 321.556L334.6 320.736L334.014 320.117L322.689 308.164L339.714 312.919Z" stroke="#249788" stroke-width="3"/>
<path d="M341.623 247.925L342.496 246.715L341.29 245.836L333.368 240.063L332.149 239.175L331.268 240.398L312.593 266.293L311.715 267.511L312.933 268.388L348.296 293.852L349.512 294.728L350.389 293.513L357.492 283.672L358.371 282.454L357.152 281.576L330.957 262.714L341.623 247.925Z" stroke="#249788" stroke-width="3"/>
<path d="M380.655 202.259L380.273 199.759L378.262 201.294L368.734 208.566L368.004 209.124L368.169 210.028L371.841 230.153L353.786 220.79L352.949 220.356L352.195 220.922L341.793 228.733L339.783 230.243L342.066 231.295L373.589 245.819C373.554 246.528 373.404 247.229 373.143 247.893C372.8 248.664 372.261 249.331 371.578 249.827C370.48 250.596 369.28 251.207 368.013 251.643L366.593 252.132L367.083 253.551L370.197 262.578L370.648 263.884L371.987 263.542C374.74 262.837 377.335 261.621 379.638 259.957L379.646 259.952L379.654 259.946C382.498 257.835 384.622 254.899 385.74 251.538L385.743 251.528L385.747 251.518C386.921 247.805 387.157 243.86 386.433 240.035L380.655 202.259Z" stroke="#249788" stroke-width="3"/>
<path d="M405.821 236.519L404.42 237.058L404.96 238.459L407.29 244.499L407.829 245.898L409.228 245.359L438.271 234.178L439.671 233.639L439.131 232.238L436.802 226.198L436.263 224.799L434.864 225.338L405.821 236.519Z" stroke="#249788" stroke-width="3"/>
<path d="M447.249 224.001L447.253 224.003C451.457 225.677 456.01 226.284 460.506 225.77C464.391 225.439 468.164 224.299 471.582 222.423L471.582 222.423L471.592 222.418C474.771 220.644 477.467 218.119 479.447 215.064L480.216 213.877L479.076 213.04L470.566 206.786L469.313 205.865L468.438 207.151C466.168 210.486 463.309 212.24 459.811 212.592L459.797 212.593L459.784 212.595C457.856 212.825 455.901 212.544 454.116 211.781C452.472 211.071 451.068 209.9 450.076 208.408C449.005 206.696 448.342 204.759 448.14 202.749C447.939 200.739 448.203 198.71 448.913 196.819C449.592 195.163 450.734 193.739 452.204 192.718C453.808 191.624 455.67 190.965 457.606 190.807L457.619 190.806L457.633 190.805C461.149 190.455 464.294 191.614 467.153 194.442L468.267 195.544L469.319 194.383L476.425 186.543L477.372 185.498L476.387 184.488C473.847 181.882 470.706 179.938 467.241 178.825L467.241 178.825L467.233 178.823C463.507 177.65 459.576 177.274 455.695 177.718C451.204 178.091 446.874 179.568 443.09 182.016L443.084 182.02C439.507 184.357 436.648 187.64 434.824 191.503L434.818 191.517L434.811 191.531C433.028 195.517 432.317 199.899 432.748 204.244C433.179 208.589 434.738 212.746 437.271 216.303L437.28 216.316L437.289 216.329C439.839 219.754 443.286 222.409 447.249 224.001Z" stroke="#249788" stroke-width="3"/>
<path d="M491.797 225.547L492.778 225.787L493.369 224.969L498.156 218.353L514.084 222.253L515.216 230.29L515.358 231.294L516.343 231.537L528.796 234.603L531.037 235.155L530.631 232.883L522.254 185.98L522.082 185.019L521.135 184.787L509.346 181.894L508.396 181.661L507.8 182.436L478.754 220.184L477.35 222.008L479.586 222.556L491.797 225.547ZM505.715 207.726L510.998 200.38L512.28 209.358L505.715 207.726Z" stroke="#249788" stroke-width="3"/>
<path d="M583.116 217.752L583.116 217.752L583.113 217.746C581.064 214.634 578.379 211.991 575.234 209.993L558.676 198.955L557.428 198.123L556.596 199.37L532.421 235.629L531.588 236.877L532.837 237.709L543.089 244.54L544.337 245.371L545.169 244.124L550.655 235.895L555.713 239.264C558.77 241.401 562.246 242.866 565.91 243.563L565.918 243.564C569.165 244.163 572.516 243.796 575.556 242.509C578.596 241.222 581.192 239.072 583.022 236.325C584.853 233.577 585.837 230.354 585.854 227.052C585.871 223.751 584.919 220.518 583.116 217.752ZM570.011 227.59L569.959 227.66L569.916 227.735C569.586 228.3 569.133 228.783 568.591 229.15C568.051 229.515 567.435 229.754 566.79 229.849C565.626 230.009 564.123 229.598 562.135 228.28C562.135 228.28 562.134 228.279 562.134 228.279L557.691 225.315L563.097 217.197L567.551 220.159L567.551 220.159C569.502 221.456 570.456 222.709 570.774 223.867C570.929 224.502 570.942 225.165 570.812 225.806C570.681 226.453 570.407 227.063 570.011 227.59Z" stroke="#249788" stroke-width="3"/>
<path d="M576.673 269.053L576.675 269.068L576.677 269.083C577.453 273.559 579.26 277.793 581.954 281.45C584.648 285.108 588.156 288.089 592.201 290.157L592.213 290.164L592.226 290.17C596.126 292.07 600.472 292.868 604.793 292.475C609.113 292.083 613.244 290.515 616.738 287.943C620.231 285.371 622.954 281.891 624.612 277.882C626.27 273.873 626.799 269.487 626.142 265.198L626.14 265.183L626.137 265.168C625.358 260.693 623.551 256.461 620.857 252.804C618.164 249.147 614.657 246.166 610.615 244.095L610.601 244.088L610.587 244.081C606.687 242.184 602.343 241.389 598.023 241.783C593.704 242.176 589.575 243.744 586.082 246.316C582.589 248.887 579.866 252.365 578.208 256.372C576.55 260.38 576.019 264.765 576.673 269.053ZM596.763 277.017L596.379 276.854C594.884 276.096 593.584 274.996 592.588 273.642C591.502 272.168 590.811 270.44 590.581 268.624C590.392 266.849 590.698 265.057 591.465 263.446C592.372 261.639 593.692 260.072 595.318 258.871C596.945 257.669 598.832 256.869 600.826 256.533C602.591 256.268 604.395 256.498 606.036 257.197C607.703 257.954 609.147 259.125 610.232 260.599C611.318 262.074 612.007 263.802 612.234 265.62C612.424 267.391 612.119 269.181 611.353 270.789C610.442 272.591 609.121 274.155 607.495 275.353C605.87 276.552 603.985 277.352 601.994 277.689C600.222 277.949 598.412 277.716 596.763 277.017Z" stroke="#249788" stroke-width="3"/>
<path d="M630.337 338.003L630.357 337.976L630.376 337.948C631.333 336.557 632.009 335.004 632.377 333.375C633.397 334.062 634.52 334.594 635.71 334.949L635.726 334.953L635.742 334.958C637.908 335.551 640.198 335.516 642.345 334.854C644.184 334.386 645.873 333.452 647.247 332.142C648.629 330.826 649.646 329.175 650.202 327.351C651.409 323.637 651.152 319.139 649.653 313.973L649.653 313.971L643.735 293.654L643.316 292.214L641.876 292.634L600.046 304.81L598.606 305.23L599.025 306.67L605.268 328.135L605.268 328.136C606.858 333.598 609.244 337.717 612.561 340.255C614.144 341.507 616.013 342.348 618.001 342.701C619.976 343.052 622.007 342.912 623.914 342.291C626.477 341.626 628.74 340.115 630.337 338.003ZM630.802 311.63L636.17 310.067L637.941 316.155C638.382 317.669 638.317 318.629 638.067 319.213C637.845 319.73 637.368 320.207 636.3 320.519C635.232 320.83 634.574 320.684 634.11 320.367C633.586 320.009 633.018 319.235 632.581 317.723L632.58 317.719L630.802 311.63ZM620.487 327.195L620.482 327.197C619.333 327.534 618.613 327.388 618.109 327.055C617.552 326.686 616.959 325.894 616.504 324.353C616.503 324.352 616.503 324.351 616.503 324.35L614.215 316.473L619.936 314.803L622.211 322.678L622.212 322.679C622.662 324.232 622.596 325.224 622.334 325.833C622.099 326.377 621.596 326.873 620.487 327.195Z" stroke="#249788" stroke-width="3"/>
</svg>
