<svg width="336" height="157" viewBox="0 0 336 157" fill="none" xmlns="http://www.w3.org/2000/svg">
<line x1="305.422" y1="58.6143" x2="305.422" y2="0.000480497" stroke="#A5D936" stroke-width="3"/>
<line x1="277.383" y1="29.1465" x2="335.997" y2="29.1465" stroke="#A5D936" stroke-width="3"/>
<line x1="212.695" y1="58.6143" x2="212.695" y2="0.000480497" stroke="#A5D936" stroke-width="3"/>
<line x1="184.656" y1="29.1465" x2="243.27" y2="29.1465" stroke="#A5D936" stroke-width="3"/>
<line x1="119.977" y1="58.6143" x2="119.977" y2="0.000480497" stroke="#A5D936" stroke-width="3"/>
<line x1="91.9375" y1="29.1465" x2="150.551" y2="29.1465" stroke="#A5D936" stroke-width="3"/>
<line x1="28.0391" y1="58.6143" x2="28.0391" y2="0.000480497" stroke="#A5D936" stroke-width="3"/>
<line x1="3.2853e-07" y1="29.1465" x2="58.6138" y2="29.1465" stroke="#A5D936" stroke-width="3"/>
<line x1="305.422" y1="156.839" x2="305.422" y2="98.2251" stroke="#A5D936" stroke-width="3"/>
<line x1="277.383" y1="127.371" x2="335.997" y2="127.371" stroke="#A5D936" stroke-width="3"/>
<line x1="212.695" y1="156.839" x2="212.695" y2="98.2251" stroke="#A5D936" stroke-width="3"/>
<line x1="184.656" y1="127.371" x2="243.27" y2="127.371" stroke="#A5D936" stroke-width="3"/>
<line x1="119.977" y1="156.839" x2="119.977" y2="98.2251" stroke="#A5D936" stroke-width="3"/>
<line x1="91.9375" y1="127.371" x2="150.551" y2="127.371" stroke="#A5D936" stroke-width="3"/>
<line x1="28.0391" y1="156.839" x2="28.0391" y2="98.2251" stroke="#A5D936" stroke-width="3"/>
<line x1="3.64114e-07" y1="127.371" x2="58.6138" y2="127.371" stroke="#A5D936" stroke-width="3"/>
</svg>
