<svg width="24" height="24" viewBox="0 0 24 24" fill="none" xmlns="http://www.w3.org/2000/svg">
<path fill-rule="evenodd" clip-rule="evenodd" d="M12 2C9.284 2 8.944 2.01133 7.87733 2.06C6.81267 2.10867 6.08533 2.278 5.44933 2.52533C4.78267 2.776 4.178 3.16933 3.678 3.67867C3.16948 4.17809 2.77591 4.78233 2.52467 5.44933C2.27867 6.08533 2.10867 6.81333 2.06 7.878C2.012 8.944 2 9.28333 2 12C2 14.7167 2.01133 15.056 2.06 16.1227C2.10867 17.1873 2.278 17.9147 2.52533 18.5507C2.776 19.2173 3.16933 19.822 3.67867 20.322C4.1781 20.8305 4.78234 21.2241 5.44933 21.4753C6.08533 21.722 6.81267 21.8913 7.87733 21.94C8.944 21.9887 9.284 22 12 22C14.716 22 15.056 21.9887 16.1227 21.94C17.1873 21.8913 17.9147 21.722 18.5507 21.4747C19.2173 21.224 19.822 20.8307 20.322 20.3213C20.8305 19.8219 21.2241 19.2177 21.4753 18.5507C21.722 17.9147 21.8913 17.1873 21.94 16.1227C21.9887 15.056 22 14.716 22 12C22 9.284 21.9887 8.944 21.94 7.87733C21.8913 6.81267 21.722 6.08533 21.4747 5.44933C21.2236 4.78204 20.83 4.17755 20.3213 3.678C19.8219 3.16948 19.2177 2.77591 18.5507 2.52467C17.9147 2.27867 17.1867 2.10867 16.122 2.06C15.056 2.012 14.7167 2 12 2ZM12 3.802C14.67 3.802 14.9867 3.812 16.0413 3.86C17.016 3.90467 17.5453 4.06667 17.898 4.20467C18.3647 4.38533 18.698 4.60267 19.048 4.952C19.398 5.302 19.6147 5.63533 19.7953 6.102C19.9327 6.45467 20.0953 6.984 20.14 7.95867C20.188 9.01333 20.198 9.33 20.198 12C20.198 14.67 20.188 14.9867 20.14 16.0413C20.0953 17.016 19.9333 17.5453 19.7953 17.898C19.6353 18.3324 19.3799 18.7253 19.048 19.048C18.7254 19.38 18.3324 19.6354 17.898 19.7953C17.5453 19.9327 17.016 20.0953 16.0413 20.14C14.9867 20.188 14.6707 20.198 12 20.198C9.32933 20.198 9.01333 20.188 7.95867 20.14C6.984 20.0953 6.45467 19.9333 6.102 19.7953C5.66764 19.6353 5.27467 19.3799 4.952 19.048C4.62012 18.7253 4.36475 18.3323 4.20467 17.898C4.06733 17.5453 3.90467 17.016 3.86 16.0413C3.812 14.9867 3.802 14.67 3.802 12C3.802 9.33 3.812 9.01333 3.86 7.95867C3.90467 6.984 4.06667 6.45467 4.20467 6.102C4.38533 5.63533 4.60267 5.302 4.952 4.952C5.27463 4.62003 5.66761 4.36465 6.102 4.20467C6.45467 4.06733 6.984 3.90467 7.95867 3.86C9.01333 3.812 9.33 3.802 12 3.802Z" fill="#A5D936"/>
<path fill-rule="evenodd" clip-rule="evenodd" d="M11.9886 15.2214C11.5634 15.2214 11.1423 15.1363 10.7494 14.9709C10.3564 14.8055 9.99945 14.5631 9.69874 14.2576C9.39802 13.952 9.15948 13.5892 8.99674 13.19C8.83399 12.7908 8.75023 12.3629 8.75023 11.9307C8.75023 11.4986 8.83399 11.0707 8.99674 10.6714C9.15948 10.2722 9.39802 9.90944 9.69874 9.60387C9.99945 9.2983 10.3564 9.05592 10.7494 8.89054C11.1423 8.72517 11.5634 8.64006 11.9886 8.64006C12.8475 8.64006 13.6712 8.98675 14.2785 9.60387C14.8859 10.221 15.227 11.058 15.227 11.9307C15.227 12.8035 14.8859 13.6405 14.2785 14.2576C13.6712 14.8747 12.8475 15.2214 11.9886 15.2214ZM11.9886 6.86159C10.6656 6.86159 9.39669 7.39565 8.46114 8.3463C7.52559 9.29695 7 10.5863 7 11.9307C7 13.2751 7.52559 14.5645 8.46114 15.5151C9.39669 16.4658 10.6656 16.9999 11.9886 16.9999C13.3117 16.9999 14.5806 16.4658 15.5161 15.5151C16.4517 14.5645 16.9773 13.2751 16.9773 11.9307C16.9773 10.5863 16.4517 9.29695 15.5161 8.3463C14.5806 7.39565 13.3117 6.86159 11.9886 6.86159ZM18.4286 6.76954C18.4286 7.08733 18.3043 7.39211 18.0832 7.61683C17.862 7.84154 17.5621 7.96779 17.2494 7.96779C16.9366 7.96779 16.6367 7.84154 16.4155 7.61683C16.1944 7.39211 16.0701 7.08733 16.0701 6.76954C16.0701 6.45174 16.1944 6.14696 16.4155 5.92225C16.6367 5.69753 16.9366 5.57129 17.2494 5.57129C17.5621 5.57129 17.862 5.69753 18.0832 5.92225C18.3043 6.14696 18.4286 6.45174 18.4286 6.76954Z" fill="#A5D936"/>
</svg>
