<svg width="24" height="24" viewBox="0 0 24 24" fill="none" xmlns="http://www.w3.org/2000/svg">
<path d="M12.9808 17.954C12.9808 17.954 13.3418 17.9154 13.5267 17.7239C13.6959 17.5485 13.69 17.2175 13.69 17.2175C13.69 17.2175 13.6675 15.6718 14.4119 15.4436C15.1456 15.2192 16.0876 16.9384 17.0873 17.5994C17.8425 18.0993 18.4157 17.9899 18.4157 17.9899L21.0872 17.954C21.0872 17.954 22.484 17.871 21.8218 16.812C21.767 16.7252 21.4354 16.0283 19.8361 14.5968C18.1604 13.0982 18.3854 13.3406 20.4024 10.7482C21.6311 9.16949 22.1221 8.20569 21.9685 7.79358C21.8228 7.39938 20.9189 7.50406 20.9189 7.50406L17.9119 7.52198C17.9119 7.52198 17.6889 7.49275 17.5236 7.58799C17.3622 7.68136 17.2575 7.8992 17.2575 7.8992C17.2575 7.8992 16.7821 9.12045 16.1473 10.1597C14.8081 12.3514 14.273 12.4673 14.0539 12.3315C13.5443 12.0137 13.6714 11.0565 13.6714 10.3766C13.6714 8.2519 14.006 7.36638 13.0209 7.13722C12.6942 7.06083 12.4536 7.01085 11.6172 7.00236C10.5441 6.99199 9.63636 7.00613 9.12183 7.2485C8.77946 7.40976 8.51534 7.77 8.67675 7.79075C8.87532 7.81621 9.32529 7.90769 9.56397 8.22078C9.87211 8.62535 9.86135 9.53257 9.86135 9.53257C9.86135 9.53257 10.0384 12.0335 9.44757 12.3438C9.04259 12.5569 8.48698 12.1222 7.29259 10.1333C6.68122 9.1148 6.21951 7.98879 6.21951 7.98879C6.21951 7.98879 6.13049 7.77849 5.97104 7.66533C5.77834 7.52858 5.50933 7.48615 5.50933 7.48615L2.65201 7.50406C2.65201 7.50406 2.22258 7.51538 2.06509 7.6955C1.92521 7.85488 2.05433 8.18589 2.05433 8.18589C2.05433 8.18589 4.29147 13.2322 6.82501 15.7756C9.14824 18.1068 11.7855 17.954 11.7855 17.954H12.9808Z" fill="#A5D936"/>
</svg>
