<svg width="104" height="80" viewBox="0 0 104 80" fill="none" xmlns="http://www.w3.org/2000/svg">
<path opacity="0.1" d="M0 51.5679C0 69.6864 11.7736 80 24.9488 80C37.0027 80 47.0943 69.9651 47.0943 57.9791C47.0943 45.993 38.6846 37.9094 28.0323 37.9094C25.7898 37.9094 23.2668 38.1882 22.4259 38.7456C24.9488 28.7108 35.3208 17.0035 44.2911 12.2648L28.8733 0C11.4933 11.9861 0 30.662 0 51.5679ZM57.186 51.5679C57.186 69.6864 68.6792 80 81.8544 80C94.1887 80 104 69.9651 104 57.9791C104 45.993 95.5903 37.9094 85.2183 37.9094C82.9757 37.9094 80.4528 38.1882 79.6119 38.7456C81.8544 28.7108 92.5067 17.0035 101.477 12.2648L85.779 0C68.3989 11.9861 57.186 30.662 57.186 51.5679Z" fill="black"/>
</svg>
