<svg width="260" height="260" viewBox="0 0 260 260" fill="none" xmlns="http://www.w3.org/2000/svg">
<path d="M127.318 29.3504L126.658 30.4422L127.629 31.2692C129.349 32.7322 131.309 33.8852 133.423 34.6767C135.803 35.63 138.296 36.2751 140.84 36.5964C143.564 37.0068 146.343 36.8555 149.007 36.1518C151.206 35.5777 153.197 34.3902 154.746 32.7277L154.757 32.7163L154.767 32.7047C156.164 31.1426 157.042 29.186 157.281 27.1043C157.578 24.7232 157.201 22.578 155.968 20.8249C154.899 19.2779 153.468 18.0162 151.798 17.1504L151.788 17.1452L151.778 17.1402C149.913 16.2075 147.983 15.4078 146.005 14.7471L145.991 14.7426L145.978 14.7384C144.576 14.2993 143.218 13.729 141.922 13.0351C141.662 12.8847 141.57 12.7627 141.541 12.7129C141.522 12.6799 141.504 12.6389 141.515 12.5406C141.535 12.4014 141.591 12.2698 141.677 12.1587C141.765 12.0453 141.882 11.9573 142.015 11.9037L142.066 11.883L142.116 11.8586C142.554 11.6437 143.467 11.5017 145.095 11.6993C147.806 12.0995 150.373 13.1729 152.562 14.8214L153.926 15.8482L154.769 14.3642L158.224 8.282L158.877 7.13295L157.819 6.34056C156.211 5.13549 154.429 4.18064 152.535 3.50841C150.558 2.78341 148.506 2.28429 146.417 2.02053C143.689 1.60266 140.905 1.74311 138.233 2.43344L138.232 2.43382C136.035 3.00395 134.048 4.1957 132.511 5.86621L132.501 5.87766L132.49 5.88933C131.092 7.47345 130.214 9.44828 129.974 11.5471C129.66 13.9241 130.015 16.0711 131.221 17.837C132.282 19.4058 133.721 20.6823 135.406 21.5486L135.414 21.5529L135.423 21.5572C137.282 22.4838 139.203 23.2811 141.171 23.9434L141.171 23.9435L141.184 23.9474C142.604 24.4118 143.979 25.0044 145.292 25.7179C145.558 25.8838 145.658 26.016 145.694 26.0811C145.722 26.1308 145.748 26.2001 145.729 26.3494L145.729 26.3494L145.728 26.3626C145.71 26.5136 145.669 26.5738 145.64 26.607C145.604 26.6493 145.505 26.7407 145.252 26.8301C144.702 27.0245 143.71 27.1106 142.124 26.9161C140.471 26.6986 138.861 26.2355 137.345 25.542L137.33 25.5353L137.315 25.5288C135.824 24.8854 134.435 24.0285 133.191 22.9852L131.849 21.8607L130.943 23.3582L127.318 29.3504Z" stroke="#249788" stroke-width="3"/>
<path d="M158.511 30.6329L158.512 30.6387C158.878 33.7137 160.089 36.6271 162.01 39.0558C164.036 41.6274 166.672 43.6527 169.679 44.9482C172.229 46.1388 175.001 46.7774 177.815 46.8221L177.82 46.8221C180.463 46.8556 183.073 46.2393 185.422 45.0274L186.674 44.3818L186.108 43.0922L183.112 36.256L182.483 34.8198L181.076 35.5124C178.632 36.7153 176.405 36.7737 174.262 35.8138L174.248 35.8074L174.234 35.8013C173.042 35.297 172.004 34.488 171.223 33.4557C170.517 32.5081 170.1 31.3764 170.023 30.197C169.941 28.8571 170.199 27.5183 170.775 26.3055L170.788 26.2765L170.801 26.247C171.324 25.0093 172.15 23.9227 173.203 23.0868C174.135 22.3613 175.257 21.9196 176.434 21.8144C177.716 21.7169 179.002 21.9534 180.166 22.5008L180.177 22.5057L180.187 22.5104C182.335 23.4808 183.774 25.185 184.503 27.7983L184.924 29.3064L186.413 28.8217L193.513 26.5097L194.852 26.0739L194.502 24.7105C193.845 22.1513 192.569 19.793 190.785 17.8438L190.782 17.8406C188.873 15.7669 186.552 14.1159 183.967 12.994C181.011 11.6183 177.76 10.9974 174.506 11.1869L174.504 11.187C171.414 11.3707 168.434 12.4049 165.895 14.1754L165.895 14.1754L165.89 14.1789C163.299 16.0011 161.262 18.5025 160.001 21.4078C158.664 24.2866 158.148 27.4792 158.511 30.6329ZM174.593 12.684L174.593 12.6844L174.593 12.684Z" stroke="#249788" stroke-width="3"/>
<path d="M203.402 24.9373L202.21 24.0322L201.302 25.2229L182.666 49.6763L181.757 50.87L182.951 51.7791L189.872 57.0473L191.065 57.9556L191.974 56.7626L210.61 32.2942L211.52 31.0989L210.323 30.1905L203.402 24.9373Z" stroke="#249788" stroke-width="3"/>
<path d="M216.801 74.0836L217.943 73.1106L216.97 71.9686L207.506 60.8664L209.502 59.1668L217.393 68.4314L218.366 69.5739L219.508 68.6001L224.456 64.3806L225.597 63.4079L224.625 62.2666L216.738 53.006L218.401 51.587L227.495 62.2548L228.468 63.3958L229.609 62.4237L234.728 58.0643L235.869 57.0918L234.897 55.9498L219.257 37.5835L218.285 36.4415L217.143 37.414L193.723 57.3583L192.581 58.3309L193.553 59.473L209.568 78.2737L210.54 79.4155L211.682 78.443L216.801 74.0836Z" stroke="#249788" stroke-width="3"/>
<path d="M252.485 96.1908L253.87 95.6215L253.303 94.2357L250.087 86.3708L249.518 84.9794L248.128 85.5514L236.815 90.2055L244.85 75.0836L245.181 74.4608L244.913 73.8086L242.186 67.1872L241.615 65.801L240.229 66.3709L211.766 78.0708L210.378 78.6411L210.949 80.0285L214.189 87.9133L214.761 89.3033L216.15 88.7293L227.435 84.0656L219.406 99.1729L219.075 99.795L219.343 100.447L222.064 107.073L222.634 108.461L224.022 107.891L252.485 96.1908Z" stroke="#249788" stroke-width="3"/>
<path d="M230.39 109.346L230.39 109.346L230.384 109.35C227.828 111.099 225.807 113.521 224.543 116.348L225.913 116.96L224.543 116.348C223.213 119.328 222.645 122.591 222.892 125.844C223.02 128.651 223.734 131.401 224.99 133.914L224.99 133.914L224.994 133.922C226.188 136.279 227.942 138.307 230.103 139.828L231.255 140.64L232.136 139.54L236.81 133.713L237.791 132.491L236.527 131.565C234.33 129.955 233.248 128.007 233.108 125.664L233.107 125.65L233.106 125.636C233.004 124.345 233.241 123.051 233.793 121.88C234.306 120.816 235.116 119.923 236.125 119.308C237.28 118.62 238.588 118.23 239.932 118.174L239.96 118.173L239.989 118.171C241.329 118.064 242.674 118.294 243.902 118.841C244.978 119.333 245.889 120.125 246.526 121.121C247.211 122.219 247.599 123.476 247.654 124.768L247.655 124.781L247.655 124.795C247.796 127.134 246.954 129.197 244.966 131.061L243.825 132.13L244.941 133.226L250.269 138.454L251.274 139.44L252.322 138.5C254.288 136.735 255.79 134.512 256.694 132.029L256.697 132.021C257.644 129.371 258.026 126.553 257.821 123.748C257.675 120.493 256.724 117.326 255.055 114.528L255.054 114.527C253.464 111.868 251.166 109.702 248.416 108.273L248.413 108.272C245.591 106.815 242.422 106.168 239.255 106.404C236.086 106.549 233.018 107.567 230.39 109.346ZM255.285 131.516L255.285 131.516L255.285 131.516Z" stroke="#249788" stroke-width="3"/>
<path d="M225.411 167.724L226.867 168.079L227.223 166.623L230.682 152.479L233.231 153.101L230.346 164.917L229.99 166.374L231.447 166.73L237.764 168.273L239.221 168.629L239.577 167.171L242.462 155.355L244.586 155.873L241.262 169.486L240.906 170.943L242.364 171.299L248.895 172.892L250.352 173.247L250.708 171.79L256.43 148.356L256.786 146.898L255.329 146.543L225.448 139.247L223.991 138.891L223.635 140.348L217.777 164.317L217.421 165.775L218.879 166.131L225.411 167.724Z" stroke="#249788" stroke-width="3"/>
<path d="M217.352 177.095L216.734 175.98L215.534 176.409C213.408 177.169 211.431 178.295 209.693 179.736C207.691 181.312 205.899 183.139 204.362 185.171C202.649 187.327 201.393 189.81 200.67 192.467C200.07 194.655 200.102 196.969 200.762 199.141L200.767 199.158L200.772 199.175C201.43 201.166 202.687 202.904 204.372 204.152C206.297 205.595 208.345 206.341 210.472 206.151C212.344 205.991 214.149 205.379 215.733 204.368L215.743 204.361L215.753 204.355C217.492 203.203 219.147 201.93 220.706 200.545L220.715 200.536L220.724 200.528C221.803 199.537 222.971 198.647 224.214 197.871C224.491 197.721 224.646 197.703 224.703 197.703C224.738 197.703 224.781 197.705 224.87 197.772C224.981 197.857 225.067 197.97 225.12 198.099C225.173 198.229 225.191 198.371 225.171 198.51L225.162 198.567L225.159 198.625C225.125 199.129 224.792 200 223.806 201.302C222.106 203.451 219.896 205.141 217.377 206.219L215.811 206.888L216.673 208.357L220.213 214.389L220.882 215.529L222.097 215.009C223.948 214.218 225.667 213.149 227.195 211.839C228.818 210.481 230.281 208.943 231.556 207.254C233.274 205.098 234.54 202.617 235.276 199.96C235.884 197.772 235.847 195.454 235.167 193.287L235.163 193.273L235.158 193.258C234.484 191.252 233.209 189.502 231.505 188.247C229.584 186.808 227.544 186.054 225.426 186.218C223.536 186.351 221.711 186.962 220.121 187.993L220.121 187.993L220.11 188.001C218.376 189.148 216.726 190.416 215.169 191.794L215.169 191.794L215.164 191.799C214.049 192.796 212.848 193.691 211.574 194.474C211.29 194.625 211.126 194.645 211.054 194.644C211.001 194.643 210.932 194.633 210.812 194.542L210.807 194.538C210.684 194.446 210.65 194.378 210.635 194.334C210.615 194.279 210.586 194.146 210.634 193.884C210.737 193.314 211.152 192.418 212.102 191.15C213.113 189.823 214.317 188.656 215.673 187.685L215.683 187.678L215.693 187.671C216.996 186.706 218.431 185.934 219.954 185.377L221.6 184.776L220.752 183.242L217.352 177.095Z" stroke="#249788" stroke-width="3"/>
<path d="M191.636 202.345L191.639 202.345C194.699 201.883 197.828 202.276 200.68 203.48L200.687 203.483L200.687 203.483C203.605 204.732 206.121 206.765 207.955 209.356C209.865 211.898 211.033 214.921 211.327 218.088L191.636 202.345ZM191.636 202.345C188.405 202.838 185.347 204.126 182.737 206.093C180.445 207.721 178.517 209.808 177.077 212.222L177.077 212.222L177.071 212.232C175.734 214.512 174.978 217.085 174.868 219.725L174.81 221.131L176.21 221.279L183.635 222.063L185.192 222.227L185.29 220.665C185.461 217.932 186.517 215.971 188.405 214.599L188.417 214.59L188.429 214.581C189.461 213.798 190.678 213.298 191.962 213.131C193.136 212.985 194.326 213.184 195.389 213.703C196.593 214.301 197.628 215.191 198.398 216.293L198.416 216.318L198.434 216.342C199.249 217.411 199.781 218.668 199.981 219.996C200.15 221.165 199.976 222.359 199.482 223.431C198.93 224.595 198.085 225.595 197.029 226.333L197.019 226.341L197.008 226.349C195.105 227.731 192.909 228.137 190.266 227.471L188.745 227.088L188.43 228.624L186.932 235.935L186.65 237.311L188.005 237.683C190.553 238.382 193.234 238.444 195.812 237.864L195.821 237.862C198.562 237.228 201.14 236.028 203.39 234.339C206.053 232.469 208.212 229.97 209.676 227.063L209.676 227.063M191.636 202.345L209.676 227.063M209.676 227.063L209.682 227.051M209.676 227.063L209.682 227.051M209.682 227.051C211.049 224.273 211.618 221.171 211.327 218.088L209.682 227.051Z" stroke="#249788" stroke-width="3"/>
<path d="M183.341 245.292L184.721 244.707L184.137 243.327L172.152 214.998L171.567 213.614L170.184 214.202L162.195 217.598L160.816 218.184L161.4 219.563L173.384 247.886L173.97 249.269L175.352 248.683L183.341 245.292Z" stroke="#249788" stroke-width="3"/>
<path d="M134.027 232.46L134.301 233.933L135.774 233.661L150.111 231.017L150.591 233.597L138.628 235.82L137.153 236.094L137.428 237.569L138.616 243.961L138.89 245.435L140.365 245.161L152.323 242.938L152.723 245.087L138.949 247.64L137.474 247.913L137.747 249.387L138.971 255.999L139.244 257.474L140.719 257.201L164.438 252.801L165.913 252.528L165.64 251.053L160.032 220.812L159.759 219.338L158.284 219.611L134 224.105L132.524 224.378L132.799 225.854L134.027 232.46Z" stroke="#249788" stroke-width="3"/>
<path d="M97.0908 252.405L96.896 253.893L98.3839 254.087L106.833 255.191L108.32 255.385L108.515 253.898L110.098 241.769L119.226 256.256L119.601 256.852L120.3 256.944L127.401 257.872L128.888 258.067L129.083 256.58L133.078 226.074L133.273 224.585L131.784 224.392L123.33 223.293L121.843 223.1L121.649 224.587L120.07 236.713L110.943 222.224L110.567 221.627L109.867 221.536L102.766 220.612L101.28 220.418L101.086 221.904L97.0908 252.405Z" stroke="#249788" stroke-width="3"/>
<path d="M96.6546 226.729L96.6543 226.725C96.4103 223.637 95.3148 220.677 93.4896 218.174L92.2777 219.058L93.4894 218.174C91.5726 215.547 89.0354 213.435 86.1041 212.027C83.5963 210.739 80.8462 209.99 78.0313 209.831L78.0313 209.83L78.0244 209.83C75.385 209.692 72.7522 210.207 70.3588 211.328L69.084 211.925L69.5992 213.235L72.3306 220.181L72.9038 221.639L74.3352 221.003C76.8213 219.9 79.049 219.93 81.1539 220.976L81.1668 220.982L81.1799 220.988C82.3468 221.54 83.3479 222.39 84.0825 223.451C84.7525 224.424 85.1252 225.57 85.1553 226.751C85.1799 228.097 84.8686 229.427 84.2495 230.622L84.2362 230.648L84.2238 230.674C83.653 231.889 82.7868 232.94 81.7044 233.733C80.7457 234.422 79.6077 234.818 78.4285 234.872C77.1326 234.928 75.8448 234.641 74.6946 234.042L74.6806 234.035L74.6664 234.028C72.5676 232.989 71.1955 231.233 70.5673 228.575L70.2072 227.052L68.7002 227.477L61.5146 229.504L60.1585 229.887L60.4556 231.264C61.0126 233.846 62.1938 236.252 63.8959 238.271L63.8959 238.271L63.9011 238.277C65.7268 240.42 67.9829 242.154 70.5227 243.367C73.4195 244.862 76.6427 245.612 79.9019 245.551H79.902C82.9973 245.492 86.0159 244.577 88.6227 242.907L88.6282 242.903C91.293 241.179 93.4288 238.752 94.7996 235.89C96.2536 233.067 96.8958 229.896 96.6546 226.729Z" stroke="#249788" stroke-width="3"/>
<path d="M48.5251 193.336L47.4913 194.422L48.5771 195.456L59.136 205.513L57.3246 207.415L48.5137 199.026L47.4286 197.993L46.3943 199.077L41.9001 203.786L40.8632 204.872L41.9509 205.908L50.7617 214.296L49.255 215.879L39.1058 206.217L38.0193 205.183L36.985 206.269L32.351 211.138L31.3169 212.224L32.4032 213.259L49.8807 229.897L50.9668 230.931L52.0011 229.845L73.2187 207.569L74.2534 206.483L73.167 205.448L55.2801 188.415L54.1936 187.38L53.1592 188.467L48.5251 193.336Z" stroke="#249788" stroke-width="3"/>
<path d="M44.3795 181.698L45.654 181.715L45.8767 180.46C46.271 178.237 46.2722 175.962 45.8802 173.739C45.4988 171.205 44.7961 168.73 43.789 166.373C42.7704 163.815 41.239 161.492 39.2889 159.548C37.6887 157.94 35.6648 156.818 33.4523 156.315L33.4341 156.31L33.4157 156.307C31.3609 155.893 29.2284 156.123 27.3092 156.965C25.1043 157.909 23.4426 159.321 22.5504 161.261C21.7538 162.964 21.386 164.837 21.4793 166.715L21.4798 166.727L21.4806 166.739C21.6173 168.824 21.9023 170.897 22.3336 172.943L22.336 172.954L22.3386 172.965C22.6631 174.394 22.8545 175.849 22.9103 177.313C22.9054 177.627 22.8446 177.773 22.8147 177.826C22.796 177.859 22.772 177.893 22.682 177.933C22.5521 177.985 22.4107 178.003 22.2717 177.985C22.1298 177.966 21.9953 177.91 21.8819 177.823L21.8371 177.788L21.7898 177.757C21.3705 177.481 20.7844 176.766 20.1552 175.269C19.1324 172.725 18.7625 169.966 19.0793 167.244L19.2762 165.551L17.5722 165.57L10.5812 165.65L9.2604 165.665L9.10834 166.977C8.87668 168.976 8.95079 170.999 9.32805 172.975C9.70002 175.059 10.3092 177.092 11.1439 179.037C12.1581 181.602 13.685 183.934 15.6313 185.889C17.2282 187.5 19.2549 188.618 21.4694 189.108L21.4877 189.112L21.5061 189.116C23.5811 189.521 25.7305 189.282 27.6654 188.43C29.866 187.485 31.5314 186.087 32.4454 184.161C33.2672 182.453 33.6431 180.565 33.5384 178.672L33.538 178.665L33.5375 178.657C33.4015 176.584 33.1219 174.523 32.7005 172.489L32.7006 172.489L32.6981 172.477C32.3834 171.016 32.201 169.53 32.153 168.036C32.162 167.714 32.2274 167.56 32.2638 167.499C32.2902 167.454 32.3311 167.403 32.4617 167.349L32.4738 167.344L32.4858 167.339C32.6213 167.28 32.6926 167.285 32.7367 167.293C32.7929 167.304 32.9234 167.345 33.1294 167.519C33.576 167.897 34.1517 168.708 34.786 170.166C35.4318 171.704 35.8464 173.329 36.0165 174.988L36.0177 175L36.0191 175.012C36.2099 176.623 36.1697 178.254 35.8997 179.854L35.6086 181.58L37.3586 181.603L44.3795 181.698Z" stroke="#249788" stroke-width="3"/>
<path d="M29.7593 154.139L29.7594 154.139L29.7678 154.133C32.2306 152.26 34.1282 149.744 35.2512 146.862L33.8536 146.317L35.2521 146.859C36.4303 143.822 36.8379 140.539 36.4385 137.306C36.1742 134.505 35.3258 131.791 33.948 129.338L33.9446 129.332C32.6394 127.033 30.7878 125.091 28.5535 123.677L27.3636 122.924L26.5371 124.064L22.1527 130.111L21.2337 131.379L22.5395 132.243C24.8165 133.749 25.9901 135.642 26.24 137.968L26.2417 137.983L26.2436 137.998C26.4076 139.282 26.2336 140.586 25.7388 141.782C25.2771 142.871 24.5117 143.803 23.5342 144.468C22.4149 145.211 21.1274 145.663 19.7889 145.782L19.7601 145.784L19.7315 145.788C18.3968 145.958 17.0408 145.793 15.7866 145.306C14.6891 144.868 13.7418 144.122 13.0595 143.158C12.3192 142.096 11.8689 140.86 11.753 139.571L11.7517 139.557L11.7501 139.542C11.4944 137.208 12.2357 135.108 14.1354 133.157L15.2293 132.032L14.0576 130.99L8.4798 126.026L7.42809 125.09L6.42746 126.081C4.54964 127.939 3.15785 130.231 2.37478 132.754L2.37476 132.754L2.37255 132.762C1.55208 135.453 1.30648 138.287 1.65166 141.08C1.95138 144.326 3.05422 147.446 4.86083 150.159L4.86146 150.16C6.57928 152.736 8.9766 154.786 11.7879 156.083L11.7878 156.083L11.795 156.086C14.6845 157.401 17.8809 157.892 21.0316 157.506C24.1954 157.209 27.2159 156.044 29.7593 154.139Z" stroke="#249788" stroke-width="3"/>
<path d="M2.15125 118.305L1.97307 119.794L3.46213 119.972L34.0027 123.632L35.4924 123.811L35.6706 122.321L36.7043 113.682L36.8825 112.193L35.3934 112.015L4.85282 108.355L3.3632 108.176L3.18495 109.666L2.15125 118.305Z" stroke="#249788" stroke-width="3"/>
<path d="M37.8037 81.8672L36.3872 81.3724L35.8927 82.789L31.0887 96.5536L28.6074 95.6884L32.6084 84.2011L33.1016 82.7852L31.6858 82.2914L25.5437 80.1492L24.127 79.655L23.6333 81.072L19.6327 92.5536L17.5682 91.8338L22.1913 78.6048L22.6862 77.1886L21.27 76.6939L14.9232 74.4767L13.5073 73.9821L13.0125 75.3979L5.05274 98.1736L4.55781 99.5897L5.97401 100.085L35.0166 110.231L36.4327 110.726L36.9274 109.31L45.0718 85.9951L45.5665 84.579L44.1504 84.0843L37.8037 81.8672Z" stroke="#249788" stroke-width="3"/>
<path d="M38.9062 39.9001L37.7156 38.9918L36.8053 40.1809L31.622 46.9522L30.709 48.1449L31.903 49.0563L41.6318 56.4823L24.5243 57.1612L23.8198 57.1891L23.3918 57.7493L19.0425 63.442L18.1311 64.6348L19.3246 65.5452L43.793 84.2112L44.9852 85.1206L45.8951 83.9288L51.0684 77.1525L51.9788 75.96L50.7861 75.0499L41.0669 67.6329L58.1753 66.95L58.8795 66.9219L59.3074 66.3619L63.6568 60.6692L64.5681 59.4764L63.3747 58.566L38.9062 39.9001Z" stroke="#249788" stroke-width="3"/>
<path d="M70.3688 53.849L70.3719 53.8487C73.5966 53.4814 76.6801 52.3217 79.3474 50.4731C81.7139 48.9366 83.7298 46.9182 85.2635 44.5497L85.266 44.5458C86.6962 42.322 87.5566 39.7802 87.7715 37.145L87.8859 35.7413L86.4922 35.5387L79.1068 34.4651L77.5524 34.2391L77.3982 35.8023C77.131 38.5128 76.0052 40.43 74.0605 41.7348L74.0499 41.7419L74.0394 41.7491C72.9764 42.4888 71.7398 42.9402 70.4503 43.0591C69.2729 43.1577 68.0923 42.9116 67.0522 42.3509C65.8714 41.707 64.871 40.7771 64.1427 39.6464L64.127 39.6221L64.1104 39.5983C63.3395 38.4972 62.858 37.2199 62.7102 35.8839C62.5872 34.7072 62.8082 33.5201 63.3463 32.4665C63.9424 31.3184 64.8282 30.3458 65.9159 29.6454L65.9282 29.6375L65.9403 29.6293C67.883 28.3241 70.0874 28.0038 72.7047 28.7745L74.2052 29.2163L74.5838 27.6987L76.3915 20.453L76.7327 19.0853L75.3888 18.6599C72.8691 17.8622 70.1921 17.6958 67.593 18.1754L67.593 18.1754L67.5858 18.1767C64.8232 18.7004 62.2016 19.7985 59.8905 21.3996C57.1476 23.1694 54.8885 25.5946 53.3174 28.4563L53.3174 28.4563L53.3151 28.4604C51.8342 31.1779 51.1322 34.2516 51.2865 37.3425L51.2865 37.3425L51.2871 37.3528C51.4674 40.5292 52.5247 43.5932 54.3413 46.2047C56.0707 48.8644 58.5032 50.9932 61.369 52.3549L61.3738 52.3572C64.1765 53.6766 67.2902 54.193 70.3688 53.849Z" stroke="#249788" stroke-width="3"/>
<path d="M114.255 27.1475L113.826 25.7054L112.386 26.1387L98.4315 30.3344L97.6848 27.822L109.349 24.3591L110.789 23.9318L110.36 22.4929L108.502 16.256L108.075 14.819L106.637 15.2464L94.9736 18.7148L94.3376 16.595L107.767 12.6041L109.205 12.1767L108.777 10.7386L106.86 4.29196L106.432 2.85434L104.995 3.28182L81.8694 10.1579L80.4312 10.5856L80.8592 12.0236L89.6279 41.4856L90.0557 42.9228L91.493 42.4955L115.162 35.4596L116.601 35.0321L116.173 33.5941L114.255 27.1475Z" stroke="#249788" stroke-width="3"/>
</svg>
