<svg width="190" height="145" viewBox="0 0 190 145" fill="none" xmlns="http://www.w3.org/2000/svg">
<path d="M0 93.4669C0 126.307 21.5094 145 45.5795 145C67.6011 145 86.0377 126.812 86.0377 105.087C86.0377 83.3624 70.6739 68.7108 51.2129 68.7108C47.1159 68.7108 42.5067 69.216 40.9703 70.2265C45.5795 52.0383 64.5283 30.8188 80.9164 22.23L52.7493 0C20.9973 21.7248 0 55.5749 0 93.4669ZM104.474 93.4669C104.474 126.307 125.472 145 149.542 145C172.075 145 190 126.812 190 105.087C190 83.3624 174.636 68.7108 155.687 68.7108C151.59 68.7108 146.981 69.216 145.445 70.2265C149.542 52.0383 169.003 30.8188 185.391 22.23L156.712 0C124.96 21.7248 104.474 55.5749 104.474 93.4669Z" fill="#A5D936"/>
</svg>
