<svg width="1526" height="657" viewBox="0 0 1526 657" fill="none" xmlns="http://www.w3.org/2000/svg">
<path d="M58.4549 653.726L58.2602 653L57.508 652.985C52.7317 652.895 47.9125 652.666 43.0505 652.299L41.6443 652.193L42.0093 653.555L46.4005 669.943C40.4506 669.451 34.4367 668.731 28.3588 667.784L23.7662 650.644L23.598 650.016L22.9563 649.915C17.9917 649.131 12.9814 648.184 7.92535 647.074L6.31949 646.721L6.74501 648.309L19.4064 695.562L19.5644 696.152L20.1608 696.281C25.2454 697.382 30.2927 698.336 35.3026 699.143L36.8273 699.389L36.4276 697.897L31.8868 680.951C37.9534 681.871 43.9621 682.571 49.9128 683.051L54.6677 700.797L54.851 701.481L55.557 701.535C60.4525 701.911 65.3106 702.145 70.1312 702.238L71.4605 702.264L71.1164 700.98L58.4549 653.726Z" stroke="#A5D936" stroke-width="2"/>
<path d="M90.9819 701.79L91.788 701.74L91.9084 700.941C92.3428 698.062 92.7843 695.172 93.2331 692.27C99.7755 691.736 106.258 690.974 112.681 689.983C114.648 692.682 116.62 695.372 118.598 698.051L118.964 698.547L119.572 698.443C124.339 697.627 129.075 696.696 133.777 695.648L135.338 695.3L134.343 694.049C123.072 679.879 111.728 665.438 100.31 650.727L99.9535 650.268L99.3782 650.35C94.867 650.996 90.3247 651.531 85.7513 651.957L84.9985 652.027L84.8606 652.77C81.8126 669.193 78.6781 685.297 75.4572 701.083L75.2109 702.29L76.4428 702.283C81.3238 702.255 86.1702 702.09 90.9819 701.79ZM95.002 680.013C95.5889 676.003 96.1716 671.978 96.7503 667.937C99.3956 671.603 102.036 675.255 104.672 678.892C101.465 679.321 98.2412 679.695 95.002 680.013Z" stroke="#A5D936" stroke-width="2"/>
<path d="M172.388 632.103L172.767 630.299L171.048 630.965C166.844 632.593 162.62 634.146 158.377 635.622L157.831 635.812L157.723 636.38C156.161 644.61 154.585 652.787 152.997 660.91C147.777 654.945 142.544 648.927 137.298 642.855L136.885 642.376L136.275 642.545C131.599 643.841 126.893 645.03 122.157 646.112L120.468 646.498L121.648 647.767C130.731 657.544 139.765 667.148 148.752 676.582C148.381 677.548 147.831 678.438 147.129 679.203C146.368 679.959 145.417 680.497 144.377 680.759C142.854 681.12 141.287 681.256 139.725 681.163L138.719 681.103L138.667 682.11C138.484 685.663 138.301 689.212 138.118 692.755L138.07 693.678L138.987 693.798C142.387 694.242 145.477 694.109 148.239 693.369L148.241 693.368C151.973 692.359 155.289 690.194 157.714 687.184C160.252 684.1 162.013 680.184 163.032 675.48C166.195 661.2 169.314 646.741 172.388 632.103Z" stroke="#A5D936" stroke-width="2"/>
<path d="M195.283 641.352L190.665 624.115L190.364 622.992L189.299 623.458C185.053 625.311 180.791 627.097 176.512 628.815L175.69 629.146L175.919 630.002L188.582 677.259L188.874 678.349L189.921 677.928C194.217 676.2 198.497 674.406 202.761 672.548L203.55 672.204L203.327 671.372L198.702 654.11C200.188 653.461 201.671 652.804 203.151 652.139C208.024 656.488 212.893 660.8 217.759 665.075L218.253 665.509L218.848 665.228C223.625 662.964 228.387 660.641 233.135 658.259L234.494 657.577L233.33 656.599C226.615 650.955 219.882 645.248 213.13 639.478C215.724 629.849 218.302 620.167 220.866 610.432L221.43 608.29L219.45 609.284C215.034 611.502 210.605 613.664 206.163 615.772L205.736 615.974L205.621 616.433C203.713 624.084 201.809 631.706 199.908 639.299C198.368 639.99 196.826 640.675 195.283 641.352Z" stroke="#A5D936" stroke-width="2"/>
<path d="M249.608 649.791L250.088 649.538L250.137 648.997C250.451 645.503 250.775 642.006 251.11 638.507C256.957 635.378 262.789 632.206 268.608 628.989C270.407 631.189 272.204 633.388 274 635.587L274.53 636.235L275.261 635.828C279.587 633.421 283.908 631 288.224 628.566L289.303 627.958L288.481 627.032C277.771 614.955 267.047 602.836 256.311 590.675L255.781 590.073L255.079 590.461C250.986 592.718 246.885 594.952 242.776 597.16L242.318 597.406L242.257 597.923C239.967 617.183 237.652 636.354 235.312 655.438L235.084 657.302L236.758 656.451C241.051 654.268 245.334 652.049 249.608 649.791ZM253.602 610.402C256.074 613.454 258.545 616.505 261.016 619.556C258.13 621.144 255.243 622.721 252.353 624.289C252.769 619.664 253.186 615.035 253.602 610.402Z" stroke="#A5D936" stroke-width="2"/>
<path d="M345.141 541.869L344.817 540.662L343.711 541.242C339.519 543.44 335.336 545.666 331.162 547.92L330.467 548.296L330.672 549.059L335.225 566.05C330.14 568.808 325.066 571.594 320 574.407L315.575 557.891L315.243 556.651L314.122 557.277C309.968 559.595 305.816 561.922 301.664 564.258L300.988 564.639L301.189 565.389L313.85 612.642L314.184 613.887L315.307 613.254C319.453 610.917 323.603 608.592 327.757 606.277L328.438 605.897L328.237 605.144L323.5 587.469C328.565 584.644 333.639 581.856 338.723 579.107L343.333 596.312L343.661 597.535L344.775 596.933C348.94 594.68 353.115 592.458 357.3 590.267L358.009 589.895L357.802 589.122L345.141 541.869Z" stroke="#A5D936" stroke-width="2"/>
<path d="M375.666 580.937L376.169 580.69L376.222 580.133C376.545 576.687 376.879 573.241 377.225 569.797C383.13 566.935 389.066 564.183 395.033 561.541L400.575 568.556L401.052 569.16L401.758 568.854C406.198 566.929 410.659 565.078 415.141 563.3L416.43 562.789L415.538 561.727C404.561 548.664 393.624 535.755 382.728 523.002L382.241 522.432L381.558 522.739C377.355 524.627 373.164 526.569 368.987 528.566L368.494 528.801L368.426 529.343C366.04 548.259 363.684 567.278 361.356 586.401L361.128 588.278L362.807 587.41C367.079 585.204 371.366 583.046 375.666 580.937ZM378.528 555.839C378.967 551.295 379.407 546.757 379.848 542.223C382.353 545.389 384.861 548.562 387.37 551.742C384.417 553.082 381.469 554.448 378.528 555.839Z" stroke="#A5D936" stroke-width="2"/>
<path d="M453.445 499.265L453.826 497.682L452.243 498.057C447.854 499.096 443.487 500.226 439.144 501.446L438.555 501.612L438.434 502.211C436.816 510.232 435.212 518.305 433.622 526.432C428.41 520.498 423.211 514.612 418.026 508.773L417.579 508.27L416.945 508.494C412.331 510.122 407.738 511.835 403.166 513.631L401.747 514.189L402.823 515.268C411.654 524.126 420.522 533.13 429.427 542.279C429.056 543.295 428.508 544.239 427.806 545.066C427.059 545.883 426.12 546.499 425.074 546.86C423.598 547.339 422.064 547.616 420.514 547.683L419.595 547.723L419.558 548.641C419.408 552.309 419.26 555.982 419.113 559.661L419.073 560.662L420.074 560.7C423.127 560.815 426.175 560.371 429.068 559.39L429.075 559.388L429.082 559.385C432.738 558.083 435.953 555.776 438.356 552.73C440.878 549.605 442.639 545.7 443.67 541.049C446.879 526.926 450.137 512.997 453.445 499.265Z" stroke="#A5D936" stroke-width="2"/>
<path d="M485.349 542.146L480.787 525.119C482.328 524.865 483.873 524.628 485.421 524.408C490.612 529.787 495.823 535.244 501.053 540.78L501.391 541.137L501.88 541.088C507.094 540.56 512.352 540.193 517.655 539.985L519.844 539.9L518.345 538.302C511.034 530.512 503.762 522.876 496.531 515.393C499.561 507.485 502.629 499.723 505.734 492.106L506.321 490.667L504.768 490.729C499.788 490.929 494.844 491.268 489.935 491.745L489.301 491.806L489.088 492.407C486.856 498.725 484.656 505.121 482.489 511.596C480.779 511.842 479.074 512.103 477.373 512.379L472.688 494.893L472.453 494.016L471.558 494.165C466.993 494.926 462.458 495.794 457.953 496.767L456.926 496.989L457.198 498.003L469.86 545.256L470.106 546.176L471.037 545.975C475.513 545.008 480.017 544.146 484.548 543.391L485.635 543.21L485.349 542.146Z" stroke="#A5D936" stroke-width="2"/>
<path d="M536.305 539.937L537.177 539.967L537.325 539.107C537.793 536.389 538.263 533.679 538.735 530.977C545.512 531.342 552.368 532.002 559.303 532.956C561.419 536.086 563.536 539.225 565.655 542.374L565.898 542.736L566.33 542.804C571.495 543.609 576.706 544.588 581.963 545.74L584.455 546.286L582.998 544.192C570.836 526.706 558.775 509.603 546.816 492.883L546.561 492.527L546.125 492.473C541.245 491.87 536.4 491.406 531.591 491.082L530.732 491.024L530.547 491.865C527.183 507.131 523.906 522.725 520.716 538.648L520.471 539.873L521.72 539.844C526.541 539.734 531.402 539.765 536.305 539.937ZM540.705 519.413C541.36 515.703 542.019 512.011 542.684 508.336C545.398 512.323 548.117 516.33 550.841 520.355C547.444 519.971 544.066 519.656 540.705 519.413Z" stroke="#A5D936" stroke-width="2"/>
<path d="M266.889 714.279L267.369 714.025L267.418 713.484C267.732 709.991 268.056 706.494 268.391 702.995C274.238 699.866 280.071 696.693 285.889 693.476C287.688 695.677 289.486 697.876 291.282 700.075L291.811 700.723L292.542 700.316C296.868 697.909 301.189 695.488 305.506 693.054L306.584 692.446L305.763 691.519C295.052 679.442 284.328 667.323 273.592 655.162L273.062 654.561L272.36 654.949C268.267 657.206 264.166 659.439 260.058 661.648L259.599 661.894L259.538 662.411C257.248 681.671 254.933 700.842 252.594 719.925L252.365 721.79L254.039 720.938C258.333 718.756 262.616 716.536 266.889 714.279ZM270.884 674.889C273.356 677.942 275.827 680.993 278.297 684.044C275.411 685.632 272.524 687.209 269.635 688.777C270.051 684.152 270.467 679.523 270.884 674.889Z" stroke="#A5D936" stroke-width="2"/>
<path d="M362.422 606.357L362.099 605.15L360.992 605.73C356.8 607.928 352.617 610.154 348.444 612.408L347.749 612.784L347.953 613.547L352.506 630.538C347.422 633.296 342.347 636.082 337.282 638.894L332.856 622.379L332.524 621.139L331.403 621.765C327.249 624.083 323.097 626.41 318.945 628.746L318.269 629.127L318.47 629.876L331.131 677.13L331.465 678.375L332.588 677.742C336.734 675.405 340.884 673.079 345.039 670.764L345.72 670.385L345.518 669.632L340.782 651.957C345.846 649.132 350.92 646.344 356.004 643.595L360.614 660.8L360.942 662.023L362.056 661.421C366.222 659.168 370.397 656.946 374.581 654.755L375.291 654.383L375.083 653.61L362.422 606.357Z" stroke="#A5D936" stroke-width="2"/>
<path d="M392.948 645.425L393.45 645.178L393.503 644.62C393.826 641.174 394.161 637.729 394.506 634.285C400.411 631.422 406.348 628.671 412.314 626.029L417.856 633.044L418.333 633.647L419.039 633.342C423.479 631.417 427.94 629.566 432.422 627.788L433.711 627.277L432.819 626.215C421.842 613.151 410.906 600.243 400.009 587.49L399.523 586.92L398.839 587.227C394.636 589.115 390.445 591.057 386.268 593.053L385.776 593.289L385.707 593.83C383.321 612.747 380.965 631.766 378.637 650.889L378.409 652.766L380.089 651.898C384.361 649.692 388.647 647.534 392.948 645.425ZM395.809 620.327C396.248 615.783 396.688 611.244 397.129 606.711C399.634 609.877 402.142 613.05 404.651 616.23C401.698 617.57 398.75 618.935 395.809 620.327Z" stroke="#A5D936" stroke-width="2"/>
<path d="M470.727 563.752L471.108 562.17L469.524 562.545C465.135 563.584 460.769 564.714 456.426 565.934L455.837 566.099L455.716 566.699C454.097 574.719 452.493 582.793 450.904 590.92C445.691 584.986 440.492 579.1 435.307 573.261L434.861 572.758L434.227 572.982C429.612 574.61 425.019 576.322 420.447 578.119L419.028 578.677L420.104 579.756C428.936 588.614 437.804 597.617 446.708 606.767C446.337 607.783 445.789 608.727 445.087 609.554C444.34 610.37 443.401 610.987 442.355 611.348C440.879 611.827 439.345 612.104 437.795 612.171L436.877 612.21L436.839 613.129C436.689 616.797 436.541 620.47 436.394 624.148L436.354 625.15L437.355 625.188C440.408 625.303 443.456 624.859 446.349 623.878L446.356 623.875L446.363 623.873C450.019 622.571 453.234 620.264 455.638 617.217C458.159 614.093 459.92 610.187 460.951 605.537C464.16 591.413 467.418 577.485 470.727 563.752Z" stroke="#A5D936" stroke-width="2"/>
<path d="M502.631 606.634L498.068 589.607C499.609 589.353 501.154 589.116 502.703 588.896C507.894 594.275 513.104 599.732 518.334 605.268L518.672 605.625L519.162 605.576C524.375 605.048 529.633 604.681 534.936 604.473L537.126 604.388L535.626 602.79C528.315 595 521.044 587.363 513.812 579.881C516.843 571.973 519.91 564.21 523.015 556.593L523.602 555.154L522.049 555.217C517.069 555.417 512.125 555.756 507.216 556.232L506.582 556.294L506.37 556.895C504.137 563.213 501.938 569.609 499.77 576.084C498.06 576.33 496.355 576.591 494.655 576.867L489.969 559.381L489.734 558.504L488.839 558.653C484.274 559.414 479.739 560.281 475.234 561.255L474.208 561.477L474.479 562.491L487.141 609.744L487.387 610.664L488.318 610.463C492.795 609.495 497.298 608.634 501.829 607.879L502.916 607.698L502.631 606.634Z" stroke="#A5D936" stroke-width="2"/>
<path d="M553.586 604.424L554.459 604.455L554.607 603.595C555.074 600.876 555.544 598.166 556.017 595.465C562.793 595.83 569.649 596.49 576.584 597.444C578.7 600.574 580.817 603.713 582.936 606.862L583.18 607.224L583.611 607.291C588.776 608.097 593.987 609.076 599.244 610.228L601.736 610.774L600.279 608.68C588.117 591.193 576.057 574.09 564.097 557.371L563.842 557.014L563.407 556.961C558.526 556.358 553.681 555.894 548.872 555.57L548.013 555.512L547.828 556.353C544.464 571.619 541.188 587.213 537.998 603.136L537.752 604.361L539.001 604.332C543.822 604.222 548.683 604.252 553.586 604.424ZM557.986 583.9C558.641 580.191 559.301 576.499 559.965 572.824C562.68 576.811 565.399 580.818 568.122 584.843C564.726 584.458 561.347 584.144 557.986 583.9Z" stroke="#A5D936" stroke-width="2"/>
<path d="M410.229 709.913L410.732 709.666L410.784 709.108C411.107 705.662 411.442 702.217 411.787 698.773C417.693 695.91 423.629 693.159 429.596 690.517L435.138 697.532L435.614 698.135L436.32 697.83C440.76 695.905 445.221 694.054 449.703 692.276L450.992 691.765L450.1 690.703C439.123 677.639 428.187 664.731 417.291 651.978L416.804 651.408L416.121 651.715C411.917 653.603 407.727 655.545 403.549 657.541L403.057 657.777L402.988 658.318C400.603 677.234 398.246 696.254 395.918 715.377L395.69 717.254L397.37 716.386C401.642 714.18 405.928 712.022 410.229 709.913ZM413.09 684.815C413.53 680.271 413.97 675.732 414.41 671.199C416.916 674.365 419.423 677.538 421.933 680.718C418.979 682.058 416.032 683.423 413.09 684.815Z" stroke="#A5D936" stroke-width="2"/>
<path d="M488.008 628.24L488.389 626.658L486.805 627.033C482.416 628.072 478.05 629.202 473.707 630.422L473.118 630.587L472.997 631.187C471.379 639.207 469.775 647.281 468.185 655.408C462.972 649.474 457.773 643.588 452.588 637.749L452.142 637.246L451.508 637.47C446.893 639.098 442.3 640.81 437.728 642.607L436.31 643.164L437.386 644.244C446.217 653.102 455.085 662.105 463.989 671.255C463.618 672.271 463.07 673.215 462.368 674.042C461.622 674.858 460.683 675.475 459.637 675.836C458.161 676.315 456.627 676.591 455.076 676.659L454.158 676.698L454.12 677.617C453.971 681.285 453.822 684.958 453.675 688.636L453.635 689.638L454.637 689.676C457.689 689.791 460.738 689.347 463.631 688.366L463.638 688.363L463.645 688.361C467.301 687.059 470.515 684.752 472.919 681.705C475.44 678.581 477.202 674.675 478.232 670.025C481.441 655.901 484.7 641.973 488.008 628.24Z" stroke="#A5D936" stroke-width="2"/>
<path d="M519.912 671.122L515.35 654.095C516.891 653.841 518.435 653.604 519.984 653.384C525.175 658.763 530.385 664.22 535.615 669.755L535.953 670.113L536.443 670.064C541.656 669.536 546.914 669.169 552.217 668.961L554.407 668.876L552.907 667.278C545.596 659.488 538.325 651.851 531.094 644.369C534.124 636.461 537.191 628.698 540.297 621.081L540.883 619.642L539.33 619.705C534.351 619.905 529.406 620.244 524.497 620.72L523.863 620.782L523.651 621.382C521.419 627.701 519.219 634.097 517.051 640.572C515.341 640.818 513.636 641.079 511.936 641.355L507.251 623.869L507.016 622.992L506.12 623.141C501.556 623.902 497.021 624.769 492.515 625.743L491.489 625.965L491.761 626.979L504.422 674.232L504.669 675.152L505.599 674.951C510.076 673.983 514.579 673.122 519.11 672.367L520.197 672.186L519.912 671.122Z" stroke="#A5D936" stroke-width="2"/>
<path d="M570.867 668.912L571.74 668.943L571.888 668.083C572.356 665.364 572.826 662.654 573.298 659.953C580.075 660.318 586.93 660.978 593.865 661.932C595.981 665.062 598.098 668.201 600.217 671.35L600.461 671.712L600.893 671.779C606.058 672.585 611.269 673.564 616.526 674.716L619.017 675.262L617.561 673.168C605.399 655.681 593.338 638.578 581.379 621.859L581.123 621.502L580.688 621.449C575.808 620.846 570.963 620.382 566.153 620.058L565.295 620L565.109 620.841C561.746 636.107 558.469 651.701 555.279 667.624L555.034 668.849L556.282 668.82C561.103 668.71 565.965 668.74 570.867 668.912ZM575.267 648.388C575.922 644.679 576.582 640.987 577.246 637.312C579.961 641.299 582.68 645.306 585.403 649.331C582.007 648.946 578.628 648.632 575.267 648.388Z" stroke="#A5D936" stroke-width="2"/>
<path d="M644.416 496.719L644.221 495.993L643.469 495.978C638.693 495.887 633.873 495.659 629.011 495.292L627.605 495.186L627.97 496.548L632.361 512.936C626.412 512.443 620.398 511.724 614.32 510.777L609.727 493.637L609.559 493.009L608.917 492.908C603.953 492.124 598.942 491.176 593.886 490.067L592.28 489.714L592.706 491.302L605.367 538.555L605.525 539.145L606.122 539.274C611.206 540.375 616.254 541.329 621.263 542.136L622.788 542.382L622.388 540.89L617.848 523.944C623.914 524.863 629.923 525.564 635.874 526.044L640.629 543.789L640.812 544.473L641.518 544.528C646.413 544.904 651.272 545.138 656.092 545.231L657.421 545.257L657.077 543.972L644.416 496.719Z" stroke="#A5D936" stroke-width="2"/>
<path d="M676.943 544.783L677.749 544.733L677.869 543.934C678.304 541.055 678.745 538.164 679.194 535.263C685.736 534.729 692.219 533.967 698.642 532.976C700.609 535.675 702.581 538.364 704.559 541.044L704.925 541.54L705.532 541.436C710.3 540.62 715.035 539.689 719.738 538.641L721.298 538.293L720.304 537.042C709.033 522.872 697.689 508.431 686.271 493.72L685.914 493.261L685.339 493.343C680.828 493.989 676.286 494.524 671.712 494.95L670.959 495.019L670.822 495.763C667.774 512.186 664.639 528.29 661.418 544.076L661.172 545.283L662.404 545.276C667.285 545.248 672.131 545.083 676.943 544.783ZM680.963 523.006C681.55 518.996 682.133 514.971 682.711 510.93C685.357 514.596 687.997 518.248 690.633 521.885C687.426 522.314 684.202 522.688 680.963 523.006Z" stroke="#A5D936" stroke-width="2"/>
<path d="M758.349 475.096L758.728 473.292L757.009 473.958C752.804 475.586 748.581 477.139 744.338 478.615L743.791 478.805L743.684 479.373C742.122 487.603 740.546 495.78 738.958 503.903C733.738 497.938 728.505 491.92 723.259 485.848L722.846 485.369L722.236 485.538C717.56 486.834 712.854 488.023 708.118 489.105L706.429 489.491L707.609 490.76C716.692 500.537 725.726 510.141 734.713 519.575C734.342 520.541 733.792 521.431 733.09 522.196C732.329 522.952 731.378 523.49 730.338 523.752C728.815 524.113 727.248 524.249 725.686 524.156L724.68 524.096L724.628 525.103C724.445 528.656 724.262 532.205 724.079 535.748L724.031 536.671L724.948 536.791C728.348 537.235 731.438 537.102 734.2 536.362L734.202 536.361C737.934 535.352 741.25 533.187 743.675 530.177C746.213 527.093 747.974 523.177 748.993 518.473C752.156 504.193 755.275 489.734 758.349 475.096Z" stroke="#A5D936" stroke-width="2"/>
<path d="M781.244 484.345L776.626 467.108L776.325 465.985L775.26 466.45C771.014 468.304 766.752 470.09 762.473 471.808L761.651 472.139L761.88 472.995L774.542 520.252L774.835 521.342L775.882 520.921C780.178 519.193 784.458 517.399 788.722 515.54L789.511 515.196L789.288 514.365L784.663 497.103C786.149 496.454 787.632 495.797 789.112 495.132C793.985 499.481 798.854 503.793 803.72 508.068L804.214 508.502L804.809 508.221C809.586 505.957 814.348 503.634 819.096 501.251L820.455 500.57L819.291 499.592C812.576 493.948 805.843 488.241 799.091 482.471C801.685 472.841 804.263 463.16 806.827 453.425L807.391 451.283L805.411 452.277C800.995 454.495 796.566 456.657 792.124 458.764L791.697 458.967L791.582 459.426C789.674 467.077 787.77 474.699 785.869 482.292C784.329 482.983 782.787 483.668 781.244 484.345Z" stroke="#A5D936" stroke-width="2"/>
<path d="M835.569 492.784L836.049 492.531L836.097 491.99C836.412 488.496 836.736 484.999 837.07 481.5C842.917 478.371 848.75 475.198 854.569 471.982C856.368 474.182 858.165 476.381 859.961 478.58L860.491 479.228L861.222 478.821C865.548 476.414 869.869 473.993 874.185 471.559L875.264 470.951L874.442 470.024C863.731 457.948 853.008 445.829 842.272 433.667L841.742 433.066L841.039 433.454C836.947 435.711 832.846 437.944 828.737 440.153L828.279 440.399L828.218 440.916C825.928 460.176 823.613 479.347 821.273 498.43L821.045 500.295L822.719 499.444C827.012 497.261 831.295 495.042 835.569 492.784ZM839.563 453.394C842.035 456.447 844.506 459.498 846.976 462.549C844.091 464.137 841.204 465.714 838.314 467.282C838.73 462.657 839.147 458.028 839.563 453.394Z" stroke="#A5D936" stroke-width="2"/>
<path d="M931.102 384.862L930.778 383.655L929.671 384.235C925.48 386.433 921.297 388.659 917.123 390.913L916.428 391.289L916.633 392.052L921.185 409.043C916.101 411.801 911.027 414.587 905.961 417.4L901.536 400.884L901.204 399.644L900.083 400.27C895.929 402.588 891.777 404.915 887.625 407.251L886.949 407.632L887.149 408.382L899.811 455.635L900.145 456.88L901.268 456.247C905.414 453.91 909.564 451.584 913.718 449.27L914.399 448.89L914.198 448.137L909.461 430.462C914.525 427.637 919.6 424.849 924.684 422.1L929.294 439.305L929.622 440.528L930.736 439.926C934.901 437.673 939.076 435.451 943.261 433.26L943.97 432.888L943.763 432.115L931.102 384.862Z" stroke="#A5D936" stroke-width="2"/>
<path d="M961.627 423.93L962.13 423.683L962.182 423.125C962.506 419.68 962.84 416.234 963.186 412.79C969.091 409.928 975.027 407.176 980.994 404.534L986.536 411.549L987.013 412.153L987.718 411.847C992.159 409.922 996.62 408.071 1001.1 406.293L1002.39 405.782L1001.5 404.72C990.522 391.657 979.585 378.748 968.689 365.995L968.202 365.425L967.519 365.732C963.315 367.62 959.125 369.562 954.948 371.558L954.455 371.794L954.387 372.336C952.001 391.252 949.645 410.271 947.317 429.394L947.088 431.271L948.768 430.403C953.04 428.197 957.327 426.039 961.627 423.93ZM964.489 398.832C964.928 394.288 965.368 389.75 965.809 385.216C968.314 388.382 970.822 391.555 973.331 394.735C970.378 396.075 967.43 397.441 964.489 398.832Z" stroke="#A5D936" stroke-width="2"/>
<path d="M1039.4 342.258L1039.78 340.675L1038.2 341.05C1033.81 342.089 1029.44 343.219 1025.1 344.439L1024.51 344.605L1024.39 345.204C1022.77 353.224 1021.17 361.298 1019.58 369.425C1014.36 363.491 1009.16 357.605 1003.98 351.766L1003.53 351.263L1002.9 351.487C998.284 353.115 993.691 354.827 989.119 356.624L987.7 357.182L988.776 358.261C997.608 367.119 1006.48 376.123 1015.38 385.272C1015.01 386.288 1014.46 387.232 1013.76 388.059C1013.01 388.876 1012.07 389.492 1011.03 389.853C1009.55 390.332 1008.02 390.609 1006.47 390.676L1005.55 390.716L1005.51 391.634C1005.36 395.302 1005.21 398.975 1005.07 402.654L1005.03 403.655L1006.03 403.693C1009.08 403.808 1012.13 403.364 1015.02 402.383L1015.03 402.381L1015.04 402.378C1018.69 401.076 1021.91 398.769 1024.31 395.723C1026.83 392.598 1028.59 388.693 1029.62 384.042C1032.83 369.918 1036.09 355.99 1039.4 342.258Z" stroke="#A5D936" stroke-width="2"/>
<path d="M1071.31 385.139L1066.75 368.112C1068.29 367.858 1069.83 367.621 1071.38 367.401C1076.57 372.78 1081.78 378.237 1087.01 383.773L1087.35 384.13L1087.84 384.081C1093.05 383.553 1098.31 383.186 1103.62 382.978L1105.81 382.893L1104.31 381.295C1096.99 373.505 1089.72 365.869 1082.49 358.386C1085.52 350.478 1088.59 342.716 1091.7 335.099L1092.28 333.659L1090.73 333.722C1085.75 333.922 1080.8 334.261 1075.9 334.737L1075.26 334.799L1075.05 335.4C1072.82 341.718 1070.62 348.114 1068.45 354.589C1066.74 354.835 1065.03 355.096 1063.33 355.372L1058.65 337.886L1058.41 337.009L1057.52 337.158C1052.95 337.919 1048.42 338.787 1043.91 339.76L1042.89 339.982L1043.16 340.996L1055.82 388.249L1056.07 389.169L1057 388.968C1061.47 388.001 1065.98 387.139 1070.51 386.384L1071.6 386.203L1071.31 385.139Z" stroke="#A5D936" stroke-width="2"/>
<path d="M1122.27 382.929L1123.14 382.96L1123.29 382.1C1123.75 379.382 1124.22 376.672 1124.7 373.97C1131.47 374.335 1138.33 374.995 1145.26 375.949C1147.38 379.079 1149.5 382.218 1151.62 385.367L1151.86 385.729L1152.29 385.797C1157.46 386.602 1162.67 387.581 1167.92 388.733L1170.42 389.279L1168.96 387.185C1156.8 369.699 1144.74 352.596 1132.78 335.876L1132.52 335.519L1132.09 335.466C1127.21 334.863 1122.36 334.399 1117.55 334.075L1116.69 334.017L1116.51 334.858C1113.14 350.124 1109.87 365.718 1106.68 381.641L1106.43 382.866L1107.68 382.837C1112.5 382.727 1117.36 382.758 1122.27 382.929ZM1126.67 362.406C1127.32 358.696 1127.98 355.004 1128.64 351.329C1131.36 355.316 1134.08 359.323 1136.8 363.348C1133.41 362.963 1130.03 362.649 1126.67 362.406Z" stroke="#A5D936" stroke-width="2"/>
<path d="M661.697 561.207L661.502 560.48L660.75 560.466C655.974 560.375 651.155 560.146 646.293 559.779L644.886 559.673L645.251 561.035L649.643 577.424C643.693 576.931 637.679 576.211 631.601 575.265L627.008 558.125L626.84 557.497L626.198 557.396C621.234 556.611 616.224 555.664 611.168 554.554L609.562 554.202L609.987 555.79L622.649 603.043L622.807 603.632L623.403 603.762C628.488 604.862 633.535 605.817 638.545 606.624L640.069 606.869L639.67 605.378L635.129 588.431C641.196 589.351 647.204 590.051 653.155 590.532L657.91 608.277L658.093 608.961L658.799 609.016C663.695 609.392 668.553 609.626 673.373 609.719L674.703 609.744L674.359 608.46L661.697 561.207Z" stroke="#A5D936" stroke-width="2"/>
<path d="M694.224 609.271L695.03 609.221L695.151 608.422C695.585 605.543 696.027 602.652 696.475 599.751C703.018 599.217 709.501 598.455 715.924 597.464C717.89 600.163 719.863 602.852 721.841 605.532L722.206 606.027L722.814 605.924C727.581 605.108 732.317 604.177 737.02 603.129L738.58 602.781L737.585 601.53C726.315 587.36 714.97 572.919 703.552 558.208L703.196 557.748L702.62 557.831C698.109 558.477 693.567 559.012 688.993 559.437L688.241 559.507L688.103 560.251C685.055 576.673 681.92 592.778 678.699 608.564L678.453 609.771L679.685 609.764C684.566 609.735 689.412 609.571 694.224 609.271ZM698.244 587.493C698.831 583.484 699.414 579.458 699.992 575.418C702.638 579.084 705.278 582.736 707.914 586.373C704.707 586.802 701.483 587.176 698.244 587.493Z" stroke="#A5D936" stroke-width="2"/>
<path d="M775.63 539.584L776.009 537.78L774.291 538.446C770.086 540.074 765.862 541.627 761.619 543.103L761.073 543.293L760.965 543.861C759.403 552.091 757.828 560.268 756.239 568.391C751.019 562.426 745.787 556.408 740.541 550.336L740.127 549.857L739.517 550.026C734.841 551.322 730.135 552.511 725.4 553.593L723.71 553.979L724.89 555.248C733.973 565.024 743.008 574.629 751.994 584.063C751.623 585.029 751.073 585.919 750.371 586.684C749.61 587.44 748.659 587.977 747.619 588.24C746.097 588.601 744.529 588.736 742.967 588.644L741.961 588.584L741.909 589.591C741.726 593.144 741.543 596.692 741.36 600.235L741.312 601.159L742.229 601.279C745.629 601.722 748.719 601.59 751.481 600.85L751.484 600.849C755.215 599.84 758.531 597.675 760.956 594.665C763.494 591.581 765.255 587.665 766.274 582.961C769.437 568.681 772.556 554.222 775.63 539.584Z" stroke="#A5D936" stroke-width="2"/>
<path d="M798.526 548.832L793.907 531.596L793.606 530.473L792.541 530.938C788.296 532.792 784.033 534.578 779.755 536.296L778.932 536.626L779.161 537.483L791.824 584.74L792.116 585.83L793.163 585.409C797.459 583.681 801.739 581.887 806.003 580.028L806.792 579.684L806.57 578.853L801.944 561.59C803.43 560.941 804.913 560.285 806.393 559.62C811.266 563.969 816.136 568.281 821.001 572.556L821.496 572.99L822.09 572.709C826.867 570.445 831.63 568.121 836.378 565.739L837.736 565.058L836.572 564.08C829.857 558.436 823.124 552.729 816.372 546.959C818.966 537.329 821.545 527.647 824.108 517.913L824.672 515.77L822.692 516.765C818.276 518.983 813.848 521.145 809.405 523.252L808.978 523.455L808.863 523.914C806.955 531.565 805.051 539.187 803.15 546.78C801.61 547.471 800.068 548.155 798.526 548.832Z" stroke="#A5D936" stroke-width="2"/>
<path d="M852.85 557.272L853.33 557.018L853.379 556.477C853.693 552.984 854.017 549.487 854.352 545.988C860.199 542.859 866.031 539.686 871.85 536.469C873.649 538.67 875.446 540.869 877.243 543.068L877.772 543.716L878.503 543.309C882.829 540.902 887.15 538.481 891.467 536.047L892.545 535.439L891.723 534.512C881.013 522.435 870.289 510.316 859.553 498.155L859.023 497.554L858.321 497.941C854.228 500.199 850.127 502.432 846.019 504.641L845.56 504.887L845.499 505.403C843.209 524.663 840.894 543.835 838.554 562.918L838.326 564.782L840 563.931C844.293 561.749 848.577 559.529 852.85 557.272ZM856.845 517.882C859.317 520.934 861.788 523.986 864.258 527.037C861.372 528.624 858.485 530.202 855.596 531.77C856.012 527.145 856.428 522.516 856.845 517.882Z" stroke="#A5D936" stroke-width="2"/>
<path d="M948.383 449.35L948.06 448.143L946.953 448.723C942.761 450.921 938.578 453.147 934.405 455.401L933.709 455.777L933.914 456.54L938.467 473.531C933.383 476.289 928.308 479.075 923.243 481.887L918.817 465.372L918.485 464.132L917.364 464.758C913.21 467.076 909.058 469.403 904.906 471.739L904.23 472.12L904.431 472.869L917.092 520.123L917.426 521.368L918.549 520.735C922.695 518.398 926.845 516.072 931 513.757L931.681 513.378L931.479 512.625L926.743 494.95C931.807 492.125 936.881 489.337 941.965 486.588L946.575 503.793L946.903 505.016L948.017 504.414C952.183 502.161 956.358 499.939 960.542 497.747L961.252 497.376L961.044 496.603L948.383 449.35Z" stroke="#A5D936" stroke-width="2"/>
<path d="M978.908 488.418L979.411 488.171L979.464 487.613C979.787 484.167 980.121 480.722 980.467 477.278C986.372 474.415 992.309 471.664 998.275 469.022L1003.82 476.037L1004.29 476.64L1005 476.335C1009.44 474.41 1013.9 472.559 1018.38 470.781L1019.67 470.27L1018.78 469.208C1007.8 456.144 996.867 443.236 985.97 430.483L985.484 429.913L984.8 430.22C980.597 432.108 976.406 434.05 972.229 436.046L971.736 436.282L971.668 436.823C969.282 455.739 966.926 474.759 964.598 493.882L964.37 495.758L966.05 494.891C970.322 492.685 974.608 490.527 978.908 488.418ZM981.77 463.32C982.209 458.776 982.649 454.237 983.09 449.704C985.595 452.87 988.103 456.043 990.612 459.223C987.659 460.563 984.711 461.928 981.77 463.32Z" stroke="#A5D936" stroke-width="2"/>
<path d="M1056.69 406.745L1057.07 405.163L1055.48 405.538C1051.1 406.577 1046.73 407.707 1042.39 408.927L1041.8 409.092L1041.68 409.692C1040.06 417.712 1038.45 425.786 1036.86 433.913C1031.65 427.979 1026.45 422.093 1021.27 416.254L1020.82 415.751L1020.19 415.975C1015.57 417.603 1010.98 419.315 1006.41 421.112L1004.99 421.669L1006.07 422.749C1014.9 431.607 1023.76 440.61 1032.67 449.76C1032.3 450.776 1031.75 451.72 1031.05 452.547C1030.3 453.363 1029.36 453.98 1028.32 454.341C1026.84 454.82 1025.31 455.096 1023.76 455.164L1022.84 455.203L1022.8 456.122C1022.65 459.79 1022.5 463.463 1022.35 467.141L1022.31 468.143L1023.32 468.181C1026.37 468.296 1029.42 467.852 1032.31 466.871L1032.32 466.868L1032.32 466.866C1035.98 465.564 1039.19 463.257 1041.6 460.21C1044.12 457.086 1045.88 453.18 1046.91 448.53C1050.12 434.406 1053.38 420.478 1056.69 406.745Z" stroke="#A5D936" stroke-width="2"/>
<path d="M1088.59 449.627L1084.03 432.6C1085.57 432.346 1087.12 432.109 1088.66 431.889C1093.85 437.268 1099.06 442.725 1104.3 448.26L1104.63 448.618L1105.12 448.569C1110.34 448.041 1115.59 447.674 1120.9 447.466L1123.09 447.381L1121.59 445.783C1114.28 437.993 1107 430.356 1099.77 422.874C1102.8 414.966 1105.87 407.203 1108.98 399.586L1109.56 398.147L1108.01 398.21C1103.03 398.41 1098.09 398.748 1093.18 399.225L1092.54 399.287L1092.33 399.887C1090.1 406.206 1087.9 412.602 1085.73 419.077C1084.02 419.323 1082.32 419.584 1080.62 419.86L1075.93 402.374L1075.7 401.497L1074.8 401.646C1070.24 402.407 1065.7 403.274 1061.2 404.248L1060.17 404.47L1060.44 405.484L1073.1 452.737L1073.35 453.657L1074.28 453.456C1078.76 452.488 1083.26 451.627 1087.79 450.872L1088.88 450.691L1088.59 449.627Z" stroke="#A5D936" stroke-width="2"/>
<path d="M1139.55 447.417L1140.42 447.448L1140.57 446.587C1141.04 443.869 1141.51 441.159 1141.98 438.458C1148.75 438.823 1155.61 439.483 1162.54 440.437C1164.66 443.567 1166.78 446.706 1168.9 449.855L1169.14 450.217L1169.57 450.284C1174.74 451.09 1179.95 452.069 1185.21 453.221L1187.7 453.767L1186.24 451.673C1174.08 434.186 1162.02 417.083 1150.06 400.364L1149.8 400.007L1149.37 399.954C1144.49 399.351 1139.64 398.887 1134.83 398.563L1133.97 398.505L1133.79 399.346C1130.43 414.612 1127.15 430.206 1123.96 446.129L1123.71 447.354L1124.96 447.325C1129.78 447.215 1134.64 447.245 1139.55 447.417ZM1143.95 426.893C1144.6 423.184 1145.26 419.492 1145.93 415.817C1148.64 419.804 1151.36 423.811 1154.08 427.836C1150.69 427.451 1147.31 427.137 1143.95 426.893Z" stroke="#A5D936" stroke-width="2"/>
<path d="M678.978 625.695L678.784 624.968L678.031 624.954C673.255 624.863 668.436 624.634 663.574 624.267L662.168 624.161L662.533 625.523L666.924 641.912C660.974 641.419 654.96 640.699 648.882 639.753L644.29 622.613L644.121 621.985L643.48 621.884C638.515 621.099 633.505 620.152 628.449 619.042L626.843 618.69L627.268 620.278L639.93 667.531L640.088 668.12L640.684 668.25C645.769 669.35 650.816 670.305 655.826 671.112L657.351 671.357L656.951 669.866L652.41 652.919C658.477 653.839 664.485 654.539 670.436 655.02L675.191 672.765L675.374 673.449L676.08 673.504C680.976 673.88 685.834 674.114 690.655 674.207L691.984 674.232L691.64 672.948L678.978 625.695Z" stroke="#A5D936" stroke-width="2"/>
<path d="M711.505 673.759L712.311 673.709L712.432 672.91C712.866 670.031 713.308 667.14 713.757 664.239C720.299 663.705 726.782 662.943 733.205 661.952C735.171 664.651 737.144 667.34 739.122 670.02L739.488 670.515L740.095 670.412C744.863 669.596 749.598 668.665 754.301 667.617L755.861 667.269L754.866 666.018C743.596 651.848 732.252 637.407 720.833 622.696L720.477 622.237L719.902 622.319C715.39 622.965 710.848 623.5 706.275 623.925L705.522 623.995L705.384 624.739C702.336 641.161 699.202 657.266 695.981 673.052L695.734 674.259L696.966 674.252C701.847 674.223 706.694 674.059 711.505 673.759ZM715.525 651.981C716.112 647.972 716.695 643.946 717.274 639.906C719.919 643.572 722.56 647.224 725.196 650.861C721.988 651.29 718.765 651.664 715.525 651.981Z" stroke="#A5D936" stroke-width="2"/>
<path d="M792.912 604.072L793.291 602.268L791.572 602.934C787.367 604.562 783.143 606.115 778.9 607.591L778.354 607.781L778.246 608.349C776.684 616.579 775.109 624.756 773.52 632.879C768.301 626.914 763.068 620.896 757.822 614.824L757.408 614.345L756.798 614.514C752.122 615.81 747.417 616.999 742.681 618.081L740.992 618.467L742.171 619.736C751.254 629.512 760.289 639.117 769.275 648.551C768.904 649.517 768.354 650.407 767.652 651.172C766.891 651.928 765.941 652.465 764.901 652.728C763.378 653.089 761.811 653.224 760.248 653.132L759.242 653.072L759.191 654.079C759.008 657.632 758.824 661.18 758.641 664.723L758.594 665.647L759.511 665.767C762.91 666.21 766 666.078 768.763 665.338L768.765 665.337C772.496 664.328 775.812 662.163 778.238 659.153C780.775 656.069 782.537 652.153 783.555 647.449C786.718 633.169 789.837 618.71 792.912 604.072Z" stroke="#A5D936" stroke-width="2"/>
<path d="M815.807 613.32L811.188 596.084L810.888 594.961L809.822 595.426C805.577 597.28 801.315 599.066 797.036 600.784L796.213 601.114L796.443 601.971L809.105 649.228L809.397 650.318L810.444 649.897C814.74 648.169 819.021 646.375 823.285 644.516L824.074 644.172L823.851 643.341L819.225 626.078C820.711 625.429 822.194 624.773 823.675 624.108C828.548 628.457 833.417 632.769 838.283 637.044L838.777 637.478L839.371 637.197C844.148 634.933 848.911 632.609 853.659 630.227L855.017 629.546L853.854 628.568C847.138 622.924 840.405 617.217 833.654 611.447C836.247 601.817 838.826 592.135 841.389 582.401L841.953 580.258L839.973 581.253C835.558 583.471 831.129 585.633 826.686 587.74L826.259 587.943L826.145 588.402C824.237 596.053 822.332 603.675 820.432 611.268C818.891 611.959 817.35 612.643 815.807 613.32Z" stroke="#A5D936" stroke-width="2"/>
<path d="M870.131 621.76L870.611 621.506L870.66 620.965C870.974 617.472 871.299 613.975 871.633 610.476C877.48 607.347 883.313 604.174 889.131 600.957C890.93 603.158 892.728 605.357 894.524 607.556L895.053 608.204L895.785 607.797C900.111 605.39 904.432 602.969 908.748 600.535L909.826 599.927L909.005 599C898.294 586.923 887.571 574.804 876.835 562.643L876.304 562.042L875.602 562.429C871.509 564.687 867.408 566.92 863.3 569.129L862.842 569.375L862.78 569.892C860.49 589.151 858.176 608.323 855.836 627.406L855.607 629.27L857.281 628.419C861.575 626.237 865.858 624.017 870.131 621.76ZM874.126 582.37C876.598 585.422 879.069 588.474 881.539 591.525C878.653 593.112 875.766 594.69 872.877 596.258C873.293 591.633 873.709 587.004 874.126 582.37Z" stroke="#A5D936" stroke-width="2"/>
<path d="M965.664 513.838L965.341 512.631L964.234 513.211C960.042 515.409 955.86 517.635 951.686 519.889L950.991 520.265L951.195 521.028L955.748 538.019C950.664 540.777 945.589 543.563 940.524 546.375L936.099 529.86L935.766 528.62L934.645 529.246C930.492 531.564 926.339 533.891 922.187 536.227L921.511 536.608L921.712 537.357L934.373 584.611L934.707 585.856L935.83 585.223C939.976 582.886 944.126 580.56 948.281 578.245L948.962 577.866L948.76 577.113L944.024 559.438C949.088 556.613 954.162 553.825 959.247 551.076L963.857 568.281L964.184 569.504L965.298 568.902C969.464 566.649 973.639 564.427 977.824 562.235L978.533 561.864L978.326 561.091L965.664 513.838Z" stroke="#A5D936" stroke-width="2"/>
<path d="M996.19 552.906L996.693 552.659L996.745 552.101C997.068 548.655 997.403 545.21 997.748 541.766C1003.65 538.903 1009.59 536.152 1015.56 533.51L1021.1 540.525L1021.58 541.128L1022.28 540.823C1026.72 538.898 1031.18 537.047 1035.66 535.269L1036.95 534.758L1036.06 533.696C1025.08 520.632 1014.15 507.724 1003.25 494.971L1002.76 494.401L1002.08 494.708C997.878 496.596 993.688 498.538 989.51 500.534L989.018 500.77L988.949 501.311C986.564 520.228 984.207 539.247 981.879 558.37L981.651 560.247L983.331 559.379C987.603 557.173 991.889 555.015 996.19 552.906ZM999.051 527.808C999.491 523.264 999.931 518.725 1000.37 514.192C1002.88 517.358 1005.38 520.531 1007.89 523.711C1004.94 525.051 1001.99 526.416 999.051 527.808Z" stroke="#A5D936" stroke-width="2"/>
<path d="M1073.97 471.233L1074.35 469.651L1072.77 470.026C1068.38 471.065 1064.01 472.195 1059.67 473.415L1059.08 473.58L1058.96 474.18C1057.34 482.2 1055.74 490.274 1054.15 498.401C1048.93 492.467 1043.73 486.581 1038.55 480.742L1038.1 480.239L1037.47 480.463C1032.85 482.091 1028.26 483.803 1023.69 485.6L1022.27 486.157L1023.35 487.237C1032.18 496.095 1041.05 505.098 1049.95 514.248C1049.58 515.264 1049.03 516.208 1048.33 517.035C1047.58 517.851 1046.64 518.468 1045.6 518.829C1044.12 519.308 1042.59 519.584 1041.04 519.652L1040.12 519.691L1040.08 520.61C1039.93 524.278 1039.78 527.951 1039.64 531.629L1039.6 532.631L1040.6 532.669C1043.65 532.784 1046.7 532.34 1049.59 531.359L1049.6 531.356L1049.61 531.354C1053.26 530.052 1056.48 527.745 1058.88 524.698C1061.4 521.574 1063.16 517.668 1064.19 513.018C1067.4 498.894 1070.66 484.966 1073.97 471.233Z" stroke="#A5D936" stroke-width="2"/>
<path d="M1105.87 514.115L1101.31 497.088C1102.85 496.834 1104.4 496.597 1105.94 496.377C1111.14 501.756 1116.35 507.213 1121.58 512.748L1121.91 513.106L1122.4 513.057C1127.62 512.529 1132.88 512.162 1138.18 511.954L1140.37 511.869L1138.87 510.271C1131.56 502.481 1124.29 494.844 1117.05 487.362C1120.08 479.454 1123.15 471.691 1126.26 464.074L1126.84 462.635L1125.29 462.698C1120.31 462.898 1115.37 463.237 1110.46 463.713L1109.82 463.775L1109.61 464.375C1107.38 470.694 1105.18 477.09 1103.01 483.565C1101.3 483.811 1099.6 484.072 1097.9 484.348L1093.21 466.862L1092.98 465.985L1092.08 466.134C1087.52 466.895 1082.98 467.762 1078.48 468.736L1077.45 468.958L1077.72 469.972L1090.38 517.225L1090.63 518.145L1091.56 517.944C1096.04 516.976 1100.54 516.115 1105.07 515.36L1106.16 515.179L1105.87 514.115Z" stroke="#A5D936" stroke-width="2"/>
<path d="M1156.83 511.905L1157.7 511.936L1157.85 511.076C1158.32 508.357 1158.79 505.647 1159.26 502.946C1166.04 503.311 1172.89 503.971 1179.83 504.925C1181.94 508.055 1184.06 511.194 1186.18 514.343L1186.42 514.705L1186.85 514.772C1192.02 515.578 1197.23 516.557 1202.49 517.709L1204.98 518.255L1203.52 516.161C1191.36 498.674 1179.3 481.571 1167.34 464.852L1167.08 464.495L1166.65 464.442C1161.77 463.839 1156.92 463.375 1152.11 463.051L1151.26 462.993L1151.07 463.834C1147.71 479.1 1144.43 494.694 1141.24 510.617L1140.99 511.842L1142.24 511.813C1147.06 511.703 1151.93 511.733 1156.83 511.905ZM1161.23 491.381C1161.88 487.672 1162.54 483.98 1163.21 480.305C1165.92 484.292 1168.64 488.299 1171.36 492.324C1167.97 491.939 1164.59 491.625 1161.23 491.381Z" stroke="#A5D936" stroke-width="2"/>
<path d="M1230.37 339.712L1230.17 338.986L1229.42 338.971C1224.65 338.88 1219.83 338.652 1214.96 338.285L1213.56 338.179L1213.92 339.541L1218.31 355.929C1212.36 355.436 1206.35 354.717 1200.27 353.77L1195.68 336.63L1195.51 336.002L1194.87 335.901C1189.91 335.117 1184.9 334.17 1179.84 333.06L1178.23 332.707L1178.66 334.295L1191.32 381.548L1191.48 382.138L1192.07 382.267C1197.16 383.368 1202.21 384.322 1207.22 385.129L1208.74 385.375L1208.34 383.883L1203.8 366.937C1209.87 367.856 1215.88 368.557 1221.83 369.037L1226.58 386.783L1226.77 387.467L1227.47 387.521C1232.37 387.897 1237.22 388.131 1242.05 388.224L1243.37 388.25L1243.03 386.965L1230.37 339.712Z" stroke="#A5D936" stroke-width="2"/>
<path d="M1262.9 387.776L1263.7 387.726L1263.82 386.927C1264.26 384.048 1264.7 381.157 1265.15 378.256C1271.69 377.722 1278.17 376.96 1284.6 375.969C1286.56 378.668 1288.53 381.358 1290.51 384.037L1290.88 384.533L1291.49 384.429C1296.25 383.613 1300.99 382.682 1305.69 381.634L1307.25 381.286L1306.26 380.035C1294.99 365.865 1283.64 351.424 1272.22 336.713L1271.87 336.254L1271.29 336.336C1266.78 336.982 1262.24 337.517 1257.67 337.943L1256.91 338.013L1256.77 338.756C1253.73 355.179 1250.59 371.283 1247.37 387.069L1247.12 388.276L1248.36 388.269C1253.24 388.241 1258.08 388.076 1262.9 387.776ZM1266.92 365.999C1267.5 361.989 1268.09 357.964 1268.66 353.923C1271.31 357.589 1273.95 361.241 1276.59 364.878C1273.38 365.307 1270.16 365.681 1266.92 365.999Z" stroke="#A5D936" stroke-width="2"/>
<path d="M1344.3 318.089L1344.68 316.285L1342.96 316.951C1338.76 318.579 1334.53 320.132 1330.29 321.608L1329.74 321.798L1329.64 322.366C1328.07 330.596 1326.5 338.773 1324.91 346.896C1319.69 340.931 1314.46 334.913 1309.21 328.841L1308.8 328.362L1308.19 328.531C1303.51 329.827 1298.81 331.016 1294.07 332.098L1292.38 332.484L1293.56 333.753C1302.64 343.53 1311.68 353.134 1320.67 362.568C1320.29 363.534 1319.74 364.424 1319.04 365.189C1318.28 365.945 1317.33 366.483 1316.29 366.745C1314.77 367.106 1313.2 367.242 1311.64 367.149L1310.63 367.089L1310.58 368.096C1310.4 371.649 1310.22 375.198 1310.03 378.741L1309.98 379.664L1310.9 379.784C1314.3 380.228 1317.39 380.095 1320.15 379.355L1320.16 379.354C1323.89 378.345 1327.2 376.18 1329.63 373.17C1332.17 370.086 1333.93 366.17 1334.95 361.466C1338.11 347.186 1341.23 332.727 1344.3 318.089Z" stroke="#A5D936" stroke-width="2"/>
<path d="M1367.2 327.338L1362.58 310.101L1362.28 308.978L1361.21 309.444C1356.97 311.297 1352.71 313.083 1348.43 314.801L1347.6 315.132L1347.83 315.988L1360.5 363.245L1360.79 364.335L1361.83 363.914C1366.13 362.186 1370.41 360.392 1374.68 358.534L1375.46 358.19L1375.24 357.358L1370.62 340.096C1372.1 339.447 1373.59 338.79 1375.07 338.125C1379.94 342.474 1384.81 346.786 1389.67 351.061L1390.17 351.495L1390.76 351.214C1395.54 348.95 1400.3 346.627 1405.05 344.245L1406.41 343.563L1405.24 342.585C1398.53 336.941 1391.8 331.234 1385.04 325.464C1387.64 315.835 1390.22 306.153 1392.78 296.418L1393.34 294.276L1391.36 295.27C1386.95 297.488 1382.52 299.65 1378.08 301.758L1377.65 301.96L1377.54 302.419C1375.63 310.07 1373.72 317.692 1371.82 325.285C1370.28 325.976 1368.74 326.661 1367.2 327.338Z" stroke="#A5D936" stroke-width="2"/>
<path d="M1421.52 335.777L1422 335.524L1422.05 334.983C1422.36 331.489 1422.69 327.992 1423.02 324.493C1428.87 321.364 1434.7 318.192 1440.52 314.975C1442.32 317.175 1444.12 319.374 1445.91 321.573L1446.44 322.221L1447.18 321.814C1451.5 319.407 1455.82 316.986 1460.14 314.552L1461.22 313.944L1460.4 313.018C1449.68 300.941 1438.96 288.822 1428.23 276.66L1427.69 276.059L1426.99 276.447C1422.9 278.704 1418.8 280.937 1414.69 283.146L1414.23 283.392L1414.17 283.909C1411.88 303.169 1409.57 322.34 1407.23 341.424L1407 343.288L1408.67 342.437C1412.97 340.254 1417.25 338.035 1421.52 335.777ZM1425.52 296.388C1427.99 299.44 1430.46 302.491 1432.93 305.542C1430.04 307.13 1427.16 308.707 1424.27 310.275C1424.68 305.65 1425.1 301.021 1425.52 296.388Z" stroke="#A5D936" stroke-width="2"/>
<path d="M1517.05 227.855L1516.73 226.648L1515.62 227.228C1511.43 229.426 1507.25 231.652 1503.08 233.906L1502.38 234.282L1502.59 235.045L1507.14 252.036C1502.05 254.794 1496.98 257.58 1491.91 260.393L1487.49 243.877L1487.16 242.637L1486.04 243.263C1481.88 245.581 1477.73 247.908 1473.58 250.244L1472.9 250.625L1473.1 251.375L1485.76 298.628L1486.1 299.873L1487.22 299.24C1491.37 296.903 1495.52 294.578 1499.67 292.263L1500.35 291.883L1500.15 291.13L1495.41 273.455C1500.48 270.63 1505.55 267.842 1510.64 265.093L1515.25 282.298L1515.57 283.521L1516.69 282.919C1520.85 280.666 1525.03 278.444 1529.21 276.253L1529.92 275.881L1529.72 275.108L1517.05 227.855Z" stroke="#A5D936" stroke-width="2"/>
<path d="M1547.58 266.923L1548.08 266.676L1548.14 266.119C1548.46 262.673 1548.79 259.227 1549.14 255.783C1555.04 252.921 1560.98 250.169 1566.95 247.527L1572.49 254.542L1572.97 255.146L1573.67 254.84C1578.11 252.915 1582.57 251.064 1587.05 249.286L1588.34 248.775L1587.45 247.713C1576.47 234.65 1565.54 221.741 1554.64 208.988L1554.16 208.418L1553.47 208.725C1549.27 210.613 1545.08 212.555 1540.9 214.552L1540.41 214.787L1540.34 215.329C1537.95 234.245 1535.6 253.264 1533.27 272.387L1533.04 274.264L1534.72 273.396C1538.99 271.19 1543.28 269.032 1547.58 266.923ZM1550.44 241.825C1550.88 237.281 1551.32 232.743 1551.76 228.209C1554.27 231.375 1556.77 234.548 1559.28 237.728C1556.33 239.068 1553.38 240.434 1550.44 241.825Z" stroke="#A5D936" stroke-width="2"/>
<path d="M1247.65 404.2L1247.46 403.473L1246.7 403.459C1241.93 403.368 1237.11 403.14 1232.25 402.773L1230.84 402.666L1231.2 404.029L1235.6 420.417C1229.65 419.924 1223.63 419.205 1217.55 418.258L1212.96 401.118L1212.79 400.49L1212.15 400.389C1207.19 399.605 1202.18 398.657 1197.12 397.548L1195.51 397.195L1195.94 398.783L1208.6 446.036L1208.76 446.626L1209.36 446.755C1214.44 447.856 1219.49 448.81 1224.5 449.617L1226.02 449.863L1225.62 448.371L1221.08 431.424C1227.15 432.344 1233.16 433.044 1239.11 433.525L1243.86 451.27L1244.05 451.954L1244.75 452.009C1249.65 452.385 1254.51 452.619 1259.33 452.712L1260.66 452.737L1260.31 451.453L1247.65 404.2Z" stroke="#A5D936" stroke-width="2"/>
<path d="M1280.18 452.264L1280.98 452.214L1281.1 451.415C1281.54 448.536 1281.98 445.645 1282.43 442.744C1288.97 442.21 1295.45 441.448 1301.88 440.457C1303.84 443.156 1305.82 445.845 1307.79 448.525L1308.16 449.021L1308.77 448.917C1313.53 448.101 1318.27 447.17 1322.97 446.122L1324.53 445.774L1323.54 444.523C1312.27 430.353 1300.92 415.912 1289.51 401.201L1289.15 400.742L1288.57 400.824C1284.06 401.47 1279.52 402.005 1274.95 402.43L1274.19 402.5L1274.06 403.244C1271.01 419.667 1267.87 435.771 1264.65 451.557L1264.41 452.764L1265.64 452.757C1270.52 452.729 1275.37 452.564 1280.18 452.264ZM1284.2 430.487C1284.78 426.477 1285.37 422.452 1285.95 418.411C1288.59 422.077 1291.23 425.729 1293.87 429.366C1290.66 429.795 1287.44 430.169 1284.2 430.487Z" stroke="#A5D936" stroke-width="2"/>
<path d="M1361.58 382.577L1361.96 380.773L1360.24 381.439C1356.04 383.067 1351.81 384.62 1347.57 386.096L1347.03 386.286L1346.92 386.854C1345.36 395.084 1343.78 403.261 1342.19 411.384C1336.97 405.419 1331.74 399.401 1326.49 393.329L1326.08 392.85L1325.47 393.019C1320.79 394.315 1316.09 395.504 1311.35 396.586L1309.66 396.972L1310.84 398.241C1319.93 408.017 1328.96 417.622 1337.95 427.056C1337.58 428.022 1337.03 428.912 1336.32 429.677C1335.56 430.433 1334.61 430.971 1333.57 431.233C1332.05 431.594 1330.48 431.73 1328.92 431.637L1327.91 431.577L1327.86 432.584C1327.68 436.137 1327.5 439.686 1327.31 443.228L1327.27 444.152L1328.18 444.272C1331.58 444.716 1334.67 444.583 1337.43 443.843L1337.44 443.842C1341.17 442.833 1344.48 440.668 1346.91 437.658C1349.45 434.574 1351.21 430.658 1352.23 425.954C1355.39 411.674 1358.51 397.215 1361.58 382.577Z" stroke="#A5D936" stroke-width="2"/>
<path d="M1384.48 391.826L1379.86 374.589L1379.56 373.466L1378.49 373.931C1374.25 375.785 1369.99 377.571 1365.71 379.289L1364.88 379.62L1365.11 380.476L1377.78 427.733L1378.07 428.823L1379.12 428.402C1383.41 426.674 1387.69 424.88 1391.96 423.021L1392.75 422.677L1392.52 421.846L1387.9 404.584C1389.38 403.935 1390.87 403.278 1392.35 402.613C1397.22 406.962 1402.09 411.274 1406.95 415.549L1407.45 415.983L1408.04 415.702C1412.82 413.438 1417.58 411.115 1422.33 408.732L1423.69 408.051L1422.53 407.073C1415.81 401.429 1409.08 395.722 1402.33 389.952C1404.92 380.322 1407.5 370.641 1410.06 360.906L1410.63 358.764L1408.65 359.758C1404.23 361.976 1399.8 364.138 1395.36 366.245L1394.93 366.448L1394.82 366.907C1392.91 374.558 1391 382.18 1389.1 389.773C1387.56 390.464 1386.02 391.149 1384.48 391.826Z" stroke="#A5D936" stroke-width="2"/>
<path d="M1438.8 400.265L1439.28 400.012L1439.33 399.471C1439.65 395.977 1439.97 392.48 1440.3 388.981C1446.15 385.852 1451.98 382.679 1457.8 379.462C1459.6 381.663 1461.4 383.862 1463.2 386.061L1463.73 386.709L1464.46 386.302C1468.78 383.895 1473.1 381.474 1477.42 379.04L1478.5 378.432L1477.68 377.505C1466.97 365.429 1456.24 353.31 1445.51 341.148L1444.98 340.547L1444.27 340.935C1440.18 343.192 1436.08 345.425 1431.97 347.634L1431.51 347.88L1431.45 348.397C1429.16 367.657 1426.85 386.828 1424.51 405.911L1424.28 407.776L1425.95 406.925C1430.25 404.742 1434.53 402.523 1438.8 400.265ZM1442.8 360.875C1445.27 363.928 1447.74 366.979 1450.21 370.03C1447.33 371.618 1444.44 373.195 1441.55 374.763C1441.96 370.138 1442.38 365.509 1442.8 360.875Z" stroke="#A5D936" stroke-width="2"/>
<path d="M1534.34 292.343L1534.01 291.136L1532.91 291.716C1528.71 293.914 1524.53 296.14 1520.36 298.394L1519.66 298.77L1519.87 299.533L1524.42 316.524C1519.34 319.282 1514.26 322.068 1509.2 324.881L1504.77 308.365L1504.44 307.125L1503.32 307.751C1499.16 310.069 1495.01 312.396 1490.86 314.732L1490.18 315.113L1490.38 315.863L1503.05 363.116L1503.38 364.361L1504.5 363.728C1508.65 361.391 1512.8 359.065 1516.95 356.751L1517.63 356.371L1517.43 355.618L1512.7 337.943C1517.76 335.118 1522.83 332.33 1527.92 329.581L1532.53 346.786L1532.86 348.009L1533.97 347.407C1538.14 345.154 1542.31 342.932 1546.5 340.741L1547.2 340.369L1547 339.596L1534.34 292.343Z" stroke="#A5D936" stroke-width="2"/>
<path d="M1264.93 468.688L1264.74 467.961L1263.98 467.947C1259.21 467.856 1254.39 467.628 1249.53 467.261L1248.12 467.154L1248.49 468.517L1252.88 484.905C1246.93 484.412 1240.91 483.693 1234.84 482.746L1230.24 465.606L1230.07 464.978L1229.43 464.877C1224.47 464.093 1219.46 463.145 1214.4 462.035L1212.8 461.683L1213.22 463.271L1225.88 510.524L1226.04 511.114L1226.64 511.243C1231.72 512.344 1236.77 513.298 1241.78 514.105L1243.3 514.351L1242.9 512.859L1238.36 495.912C1244.43 496.832 1250.44 497.532 1256.39 498.013L1261.14 515.758L1261.33 516.442L1262.03 516.497C1266.93 516.873 1271.79 517.107 1276.61 517.2L1277.94 517.225L1277.59 515.941L1264.93 468.688Z" stroke="#A5D936" stroke-width="2"/>
<path d="M1297.46 516.752L1298.26 516.702L1298.38 515.903C1298.82 513.024 1299.26 510.133 1299.71 507.232C1306.25 506.698 1312.73 505.936 1319.16 504.945C1321.12 507.644 1323.1 510.333 1325.07 513.013L1325.44 513.509L1326.05 513.405C1330.82 512.589 1335.55 511.658 1340.25 510.61L1341.81 510.262L1340.82 509.011C1329.55 494.841 1318.2 480.4 1306.79 465.689L1306.43 465.23L1305.85 465.312C1301.34 465.958 1296.8 466.493 1292.23 466.918L1291.48 466.988L1291.34 467.732C1288.29 484.155 1285.15 500.259 1281.93 516.045L1281.69 517.252L1282.92 517.245C1287.8 517.217 1292.65 517.052 1297.46 516.752ZM1301.48 494.974C1302.07 490.965 1302.65 486.94 1303.23 482.899C1305.87 486.565 1308.51 490.217 1311.15 493.854C1307.94 494.283 1304.72 494.657 1301.48 494.974Z" stroke="#A5D936" stroke-width="2"/>
<path d="M1378.86 447.065L1379.24 445.261L1377.52 445.927C1373.32 447.555 1369.1 449.108 1364.85 450.584L1364.31 450.774L1364.2 451.342C1362.64 459.572 1361.06 467.749 1359.47 475.872C1354.25 469.907 1349.02 463.889 1343.78 457.817L1343.36 457.338L1342.75 457.507C1338.08 458.803 1333.37 459.992 1328.63 461.074L1326.94 461.46L1328.12 462.729C1337.21 472.505 1346.24 482.11 1355.23 491.544C1354.86 492.51 1354.31 493.4 1353.61 494.165C1352.84 494.921 1351.89 495.459 1350.85 495.721C1349.33 496.082 1347.76 496.218 1346.2 496.125L1345.2 496.065L1345.14 497.072C1344.96 500.625 1344.78 504.174 1344.59 507.716L1344.55 508.64L1345.46 508.76C1348.86 509.203 1351.95 509.071 1354.72 508.331L1354.72 508.33C1358.45 507.321 1361.77 505.156 1364.19 502.146C1366.73 499.062 1368.49 495.146 1369.51 490.442C1372.67 476.162 1375.79 461.703 1378.86 447.065Z" stroke="#A5D936" stroke-width="2"/>
<path d="M1401.76 456.313L1397.14 439.077L1396.84 437.954L1395.78 438.419C1391.53 440.273 1387.27 442.059 1382.99 443.777L1382.17 444.108L1382.4 444.964L1395.06 492.221L1395.35 493.311L1396.4 492.89C1400.69 491.162 1404.97 489.368 1409.24 487.509L1410.03 487.165L1409.8 486.334L1405.18 469.071C1406.66 468.423 1408.15 467.766 1409.63 467.101C1414.5 471.45 1419.37 475.762 1424.24 480.037L1424.73 480.471L1425.32 480.19C1430.1 477.926 1434.86 475.603 1439.61 473.22L1440.97 472.539L1439.81 471.561C1433.09 465.917 1426.36 460.21 1419.61 454.44C1422.2 444.81 1424.78 435.129 1427.34 425.394L1427.91 423.252L1425.93 424.246C1421.51 426.464 1417.08 428.626 1412.64 430.733L1412.21 430.936L1412.1 431.395C1410.19 439.046 1408.29 446.668 1406.38 454.261C1404.84 454.952 1403.3 455.637 1401.76 456.313Z" stroke="#A5D936" stroke-width="2"/>
<path d="M1456.08 464.753L1456.56 464.499L1456.61 463.959C1456.93 460.465 1457.25 456.968 1457.59 453.469C1463.43 450.34 1469.27 447.167 1475.08 443.95C1476.88 446.151 1478.68 448.35 1480.48 450.549L1481.01 451.197L1481.74 450.79C1486.06 448.383 1490.38 445.962 1494.7 443.528L1495.78 442.92L1494.96 441.993C1484.25 429.917 1473.52 417.797 1462.79 405.636L1462.26 405.035L1461.56 405.423C1457.46 407.68 1453.36 409.913 1449.25 412.122L1448.79 412.368L1448.73 412.885C1446.44 432.145 1444.13 451.316 1441.79 470.399L1441.56 472.264L1443.23 471.413C1447.53 469.23 1451.81 467.01 1456.08 464.753ZM1460.08 425.363C1462.55 428.416 1465.02 431.467 1467.49 434.518C1464.61 436.106 1461.72 437.683 1458.83 439.251C1459.25 434.626 1459.66 429.997 1460.08 425.363Z" stroke="#A5D936" stroke-width="2"/>
<path d="M1551.62 356.831L1551.29 355.624L1550.19 356.204C1546 358.402 1541.81 360.628 1537.64 362.882L1536.94 363.258L1537.15 364.021L1541.7 381.012C1536.62 383.77 1531.54 386.556 1526.48 389.369L1522.05 372.853L1521.72 371.613L1520.6 372.239C1516.44 374.557 1512.29 376.884 1508.14 379.22L1507.46 379.601L1507.67 380.351L1520.33 427.604L1520.66 428.849L1521.78 428.216C1525.93 425.879 1530.08 423.553 1534.23 421.239L1534.91 420.859L1534.71 420.106L1529.98 402.431C1535.04 399.606 1540.12 396.818 1545.2 394.069L1549.81 411.274L1550.14 412.497L1551.25 411.895C1555.42 409.642 1559.59 407.42 1563.78 405.229L1564.49 404.857L1564.28 404.084L1551.62 356.831Z" stroke="#A5D936" stroke-width="2"/>
</svg>
