<svg width="289" height="88" viewBox="0 0 289 88" fill="none" xmlns="http://www.w3.org/2000/svg">
<g opacity="0.25">
<path d="M10.4905 46.9713L4.13411 46.5124L4.35782 45.7823C4.66599 45.7735 4.97031 45.7113 5.25723 45.5985C5.47622 45.5121 5.66521 45.3637 5.80106 45.1714C6.01063 44.8755 6.18025 44.5532 6.30555 44.2129C6.49369 43.7601 6.71295 43.0919 6.97987 42.1939L11.2783 27.6576L9.36055 27.5192C8.83248 27.4506 8.29569 27.5077 7.7939 27.6859C7.33237 27.8984 6.92638 28.215 6.60781 28.6108C6.02133 29.3529 5.50589 30.1485 5.06824 30.9871L3.62993 30.8833L5.1251 25.892L20.9464 27.0341L19.3881 32.2539L17.9343 32.149C18.0275 31.4204 18.0804 30.6872 18.0928 29.9528C18.1032 29.5655 18.0359 29.1801 17.8948 28.8192C17.7995 28.5822 17.6278 28.3838 17.407 28.2554C17.0631 28.1081 16.694 28.0287 16.32 28.0216L14.093 27.8608L9.75586 42.5031C9.63516 42.8831 9.55096 43.1879 9.48782 43.4165C9.42468 43.6451 9.45321 43.896 9.34144 44.1522C9.22967 44.4084 9.30684 44.6316 9.29232 44.8327C9.25807 45.0834 9.29341 45.3387 9.3945 45.5707C9.47495 45.7597 9.62581 45.91 9.8151 45.9897C10.1442 46.1178 10.4876 46.2052 10.8379 46.2501L10.4905 46.9713Z" fill="white"/>
<path d="M32.3041 37.5105L32.4492 35.5L51.0079 36.8396L50.8628 38.8501L32.3041 37.5105ZM31.8576 43.6967L32.0016 41.7017L50.5602 43.0413L50.4162 45.0364L31.8576 43.6967Z" fill="white"/>
<path d="M78.2601 25.8392C78.6586 25.8755 79.0597 25.8733 79.4577 25.8324C79.7215 25.8066 79.9767 25.7242 80.2058 25.591C80.393 25.4489 80.5489 25.2696 80.6635 25.0644C80.8437 24.7336 81.0034 24.3921 81.1416 24.0418L82.4252 24.1344L81.8441 28.5231L69.4717 27.63L69.5242 26.9032C70.0862 25.8032 70.7497 24.7581 71.5062 23.7815C72.5439 22.4796 73.6715 21.2519 74.8806 20.1075C76.1332 18.9075 77.0541 17.9946 77.6125 17.3664C78.1231 16.8061 78.5876 16.2053 79.0014 15.5701C79.2974 15.0986 79.5373 14.5942 79.7162 14.0671C79.8599 13.614 79.9511 13.1459 79.9879 12.672C80.0551 11.986 79.9835 11.2935 79.7773 10.6358C79.5855 10.0672 79.2328 9.56653 78.7621 9.19443C78.2258 8.80788 77.5871 8.58867 76.9265 8.56444C76.0311 8.48701 75.137 8.72691 74.4007 9.24217C73.6643 9.75742 73.1326 10.5152 72.8986 11.3829L71.0737 11.2512L71.2825 8.35914C72.4161 7.90965 73.5912 7.5727 74.7908 7.35315C75.7439 7.18466 76.7131 7.12424 77.6798 7.17304C79.2025 7.17531 80.6741 7.7227 81.828 8.71614C82.2843 9.19974 82.6261 9.77975 82.8279 10.4132C83.0297 11.0467 83.0866 11.7175 82.9941 12.376C82.9658 12.8706 82.8783 13.3601 82.7334 13.834C82.5926 14.2889 82.394 14.7239 82.1425 15.1283C81.8471 15.6062 81.5076 16.0553 81.1284 16.4698C80.705 16.9523 80.2506 17.4325 79.7487 17.9249C79.2467 18.4172 78.3955 19.2263 77.1639 20.35C75.46 21.8425 73.9217 23.5139 72.5755 25.3356L78.2601 25.8392Z" fill="white"/>
<path d="M93.7561 29.3854L87.3998 28.9265L87.6234 28.1965C87.9294 28.1837 88.2319 28.127 88.5217 28.0281C88.7385 27.93 88.9263 27.7776 89.0667 27.5855C89.2791 27.2913 89.4489 26.9686 89.5712 26.627C89.83 25.9658 90.0551 25.292 90.2455 24.608L94.5428 10.0872L92.6251 9.94875C92.0984 9.8841 91.564 9.93576 91.0595 10.1C90.5972 10.3187 90.1911 10.6404 89.8724 11.0404C89.2826 11.7801 88.7669 12.576 88.3328 13.4166L86.8944 13.3128L88.3907 8.3061L104.135 9.44256L102.576 14.6624L101.123 14.5575C101.19 13.8257 101.217 13.0906 101.204 12.3558C101.209 11.9689 101.142 11.5844 101.006 11.2222C100.906 10.9881 100.735 10.7911 100.518 10.6584C100.172 10.518 99.8031 10.4439 99.4299 10.4399L97.2493 10.2825L92.9287 24.9105C92.8069 25.3059 92.7227 25.6108 92.6595 25.8394C92.5964 26.068 92.6261 26.3034 92.5298 26.5607C92.4996 26.7863 92.4832 27.0136 92.4806 27.2412C92.4513 27.4969 92.486 27.7558 92.5817 27.9947C92.6693 28.1754 92.819 28.3187 93.0034 28.3983C93.328 28.5398 93.6734 28.6278 94.0262 28.6586L93.7561 29.3854Z" fill="white"/>
<path d="M113.004 7.73502L112.942 8.58563L108.658 17.1066L107.403 16.6273L110.174 7.53073L113.004 7.73502Z" fill="white"/>
<path d="M66.8005 61.1898C67.6197 60.0619 68.6264 59.0829 69.7766 58.2954C70.6154 57.7227 71.6186 57.4402 72.633 57.4911C73.0379 57.495 73.4375 57.5842 73.8056 57.7527C74.1738 57.9212 74.5024 58.1654 74.7699 58.4693C75.2687 59.1771 75.4783 60.0486 75.3558 60.9057L75.3413 61.1068C75.3357 61.1841 75.3302 61.2614 75.3246 61.3387C76.0997 60.3366 77.0399 59.4739 78.1049 58.7878C78.9231 58.2743 79.8808 58.0283 80.8452 58.0839C81.2418 58.0869 81.6334 58.174 81.9939 58.3393C82.3544 58.5047 82.6758 58.7446 82.9369 59.0433C83.4265 59.7017 83.6353 60.5274 83.5174 61.3394C83.4123 62.2473 83.2017 63.1399 82.89 63.9991L81.63 67.888C81.3545 68.6284 81.1584 69.3959 81.0449 70.1777C81.0004 70.4834 81.0483 70.7954 81.1823 71.0737C81.2501 71.1695 81.3401 71.2474 81.4445 71.301C81.5489 71.3545 81.6646 71.3821 81.782 71.3813C82.1341 71.3868 82.479 71.2811 82.7676 71.0793C83.3277 70.6975 83.8487 70.2613 84.323 69.7769L85.1276 70.6901C84.3904 71.3909 83.5795 72.01 82.7091 72.5365C82.0293 72.9257 81.2464 73.097 80.4661 73.0275C80.1717 73.0154 79.884 72.9365 79.6247 72.7965C79.3654 72.6566 79.1414 72.4594 78.9698 72.2199C78.5963 71.685 78.4332 71.0311 78.5116 70.3835C78.6293 69.4115 78.8652 68.4575 79.2141 67.5426L80.0667 64.9924C80.3679 64.0502 80.5728 63.3655 80.6825 62.9226C80.779 62.5655 80.8469 62.2013 80.8855 61.8335C80.9755 61.2968 80.8899 60.7454 80.6414 60.2612C80.5165 60.0885 80.3516 59.9486 80.1608 59.8536C79.97 59.7586 79.759 59.7113 79.5459 59.7157C79.0534 59.7032 78.5681 59.8357 78.1503 60.0969C77.5299 60.4574 76.9718 60.9158 76.4977 61.4545C75.9533 62.0352 75.4653 62.6662 75.0403 63.3392C74.618 64.0694 74.2901 64.8502 74.0641 65.6629L72.2276 72.153L69.6139 71.9643L71.9042 64.3565C72.1877 63.4442 72.3716 62.8357 72.4869 62.3154C72.5829 61.9427 72.6467 61.5624 72.6777 61.1788C72.7696 60.638 72.6725 60.082 72.4027 59.6043C72.2653 59.4297 72.0892 59.2891 71.8885 59.1937C71.6877 59.0983 71.4676 59.0506 71.2454 59.0544C70.7679 59.0492 70.2992 59.1828 69.8962 59.4389C69.2719 59.8277 68.7124 60.3118 68.238 60.8738C67.6976 61.4627 67.2188 62.1054 66.8092 62.7917C66.4015 63.522 66.0795 64.2969 65.8497 65.101L63.9403 71.5237L61.3421 71.3361L64.2281 61.9369C64.4652 61.2157 64.6283 60.4721 64.7147 59.7179C64.7603 59.419 64.7176 59.1133 64.5917 58.8384C64.5267 58.739 64.4379 58.6573 64.3334 58.6009C64.2288 58.5445 64.1119 58.5151 63.9932 58.5154C63.6283 58.5045 63.2703 58.6154 62.9754 58.8306C62.4305 59.2143 61.9207 59.6458 61.4521 60.1197L60.6463 59.2221C61.3927 58.5157 62.209 57.8871 63.0826 57.3458C63.7346 56.9737 64.4832 56.8058 65.2317 56.8636C65.5212 56.8623 65.8072 56.9274 66.0676 57.054C66.328 57.1806 66.5558 57.3653 66.7336 57.5939C67.0839 58.0795 67.2402 58.6785 67.172 59.2734C67.1165 59.8768 66.9528 60.4653 66.689 61.0108L66.8005 61.1898ZM97.9317 63.2349C97.9716 62.6721 97.9446 62.1066 97.8512 61.5501C97.8019 61.2383 97.6398 60.9555 97.3956 60.7554C97.1104 60.5426 96.7652 60.4252 96.4093 60.42C95.8934 60.3895 95.3767 60.4646 94.8909 60.6407C94.4051 60.8168 93.9602 61.0902 93.5837 61.4441C92.6023 62.3587 91.8408 63.4837 91.3563 64.7346C90.7647 66.0692 90.3993 67.4928 90.2749 68.9473C90.1528 69.7519 90.3072 70.5742 90.7128 71.2798C90.9182 71.551 91.1835 71.771 91.4882 71.9225C91.7928 72.074 92.1285 72.1527 92.4687 72.1527C93.2903 72.2349 94.1197 72.1188 94.8872 71.8143C95.7009 71.4296 96.4545 70.9289 97.1243 70.3279L97.9864 71.3073C97.1096 72.1806 96.0845 72.8909 94.9589 73.4051C93.9635 73.8117 92.8864 73.979 91.8145 73.8933C91.1981 73.8905 90.59 73.751 90.034 73.4851C89.4779 73.2192 88.9877 72.8333 88.5987 72.3553C87.8509 71.2242 87.5455 69.8574 87.7409 68.5156C87.8484 67.3129 88.138 66.1334 88.5997 65.0175C89.0585 63.8098 89.7399 62.6989 90.6084 61.7424C91.3925 60.8634 92.374 60.1829 93.4723 59.7571C94.5489 59.3495 95.7019 59.1833 96.8498 59.2703C98.0965 59.3522 99.3278 59.5926 100.514 59.9856L99.4783 63.3465L97.9317 63.2349Z" fill="white"/>
<path d="M110.321 63.8651C110.592 63.9044 110.866 63.9242 111.14 63.9243C111.322 63.9187 111.501 63.8732 111.663 63.791C111.818 63.7008 111.945 63.5703 112.032 63.4134C112.137 63.25 112.263 63.0104 112.426 62.6957L113.509 62.7738L113.304 64.3137C113.266 64.8395 113.151 65.3598 113.084 65.8524L103.805 65.1826L103.846 64.6104C104.052 64.2242 104.281 63.8513 104.533 63.494C104.808 63.1252 105.099 62.7576 105.407 62.3756C105.714 61.9935 106.099 61.6171 106.5 61.2263C106.901 60.8356 107.35 60.4327 107.831 60.0165C108.562 59.3697 109.177 58.8233 109.629 58.374C110.026 57.9896 110.398 57.5803 110.743 57.1486C110.987 56.8404 111.184 56.4986 111.329 56.1338C111.449 55.8035 111.521 55.4581 111.543 55.1077C111.574 54.7616 111.547 54.4128 111.462 54.0758C111.389 53.7705 111.251 53.4846 111.057 53.238C110.871 52.9954 110.629 52.8018 110.351 52.6741C110.025 52.5204 109.673 52.4316 109.313 52.4126C108.701 52.3408 108.084 52.4891 107.573 52.8311C107.053 53.2073 106.641 53.7137 106.378 54.2995L104.94 54.1957L105.092 52.0924C105.955 51.8041 106.839 51.582 107.736 51.4282C108.443 51.3173 109.159 51.2804 109.874 51.3182C110.534 51.3533 111.185 51.4894 111.803 51.7218C112.275 51.8958 112.705 52.165 113.068 52.5126C113.374 52.8203 113.598 53.2 113.719 53.6167C113.845 54.0538 113.891 54.5101 113.855 54.9635C113.852 55.2274 113.833 55.4908 113.798 55.7523C113.738 55.9995 113.647 56.2384 113.529 56.4636C113.406 56.7056 113.259 56.9345 113.091 57.1471C112.892 57.4081 112.671 57.6522 112.432 57.8768C112.19 58.142 111.933 58.3933 111.662 58.6296L110.632 59.5502L109.455 60.569L108.275 61.6188C107.893 61.9643 107.526 62.3108 107.207 62.6299C106.923 62.9205 106.657 63.2283 106.41 63.5517L110.321 63.8651Z" fill="white"/>
<path d="M117.993 44.8437L61.6055 40.7734L61.4581 42.8149L117.846 46.8851L117.993 44.8437Z" fill="white"/>
<path d="M128.441 46.517C128.125 49.5316 128.517 52.5783 129.587 55.4144C130.003 56.538 130.646 57.5633 131.478 58.426C132.309 59.2886 133.31 59.9699 134.417 60.4269L133.978 61.5612C132.6 61.1145 131.325 60.4 130.224 59.4589C129.124 58.5177 128.22 57.3683 127.565 56.0768C126.229 53.1156 125.651 49.8681 125.885 46.6279C126.119 43.3877 127.157 40.2568 128.904 37.5181C129.734 36.3302 130.79 35.3178 132.012 34.539C133.234 33.7602 134.598 33.2303 136.026 32.9797L136.343 34.1841C135.183 34.458 134.093 34.9684 133.139 35.6835C132.186 36.3985 131.391 37.3026 130.804 38.3393C129.395 40.846 128.586 43.6452 128.441 46.517Z" fill="white"/>
<path d="M144.346 56.6353L137.99 56.1765L138.212 55.4619C138.519 55.4456 138.823 55.3836 139.112 55.2781C139.324 55.1814 139.511 55.0349 139.655 54.851C139.868 54.551 140.038 54.2232 140.161 53.8769C140.42 53.2212 140.645 52.5525 140.834 51.8735L145.133 37.3371L143.215 37.1987C142.687 37.1301 142.15 37.1872 141.648 37.3654C141.183 37.5717 140.776 37.8894 140.462 38.2904C139.876 39.0325 139.36 39.828 138.923 40.6666L137.484 40.5627L138.981 35.5561L154.724 36.6926L153.165 41.9279L151.711 41.8229C151.782 40.8486 151.835 40.1062 151.792 39.6212C151.803 39.2339 151.736 38.8484 151.594 38.4876C151.495 38.2496 151.325 38.0476 151.108 37.9083C150.762 37.768 150.393 37.6939 150.02 37.6899L147.793 37.5291L143.44 52.1703L143.188 53.0849L143.042 53.8051C143.023 54.068 143.006 54.3 142.992 54.501C142.958 54.7518 142.993 55.0071 143.094 55.2391C143.18 55.4246 143.329 55.5733 143.515 55.6581C143.844 55.7862 144.187 55.8736 144.538 55.9185L144.346 56.6353Z" fill="white"/>
<path d="M163.617 34.9722L163.555 35.8383L159.272 44.3438L158.032 43.8656L160.803 34.769L163.617 34.9722Z" fill="white"/>
<path d="M184.708 51.6202L184.08 60.3119L181.946 60.1578L182.573 51.4662L174.346 50.8723L174.49 48.8772L182.717 49.4711L183.345 40.7794L185.479 40.9335L184.852 49.6251L193.079 50.2191L192.935 52.2141L184.708 51.6202Z" fill="white"/>
<path d="M212.228 59.1095C212.626 59.142 213.026 59.1449 213.425 59.1181C213.69 59.0877 213.946 59.0001 214.174 58.8613C214.365 58.7296 214.521 58.5544 214.631 58.3501C214.808 58.0181 214.968 57.6767 215.109 57.3275L216.392 57.4202L215.828 61.7945L203.455 60.9014L203.507 60.19C204.066 59.0882 204.729 58.0428 205.489 57.0684C206.531 55.7651 207.659 54.5325 208.864 53.3789C210.117 52.179 211.038 51.266 211.596 50.6378C212.106 50.0824 212.57 49.4868 212.984 48.8569C213.282 48.3865 213.522 47.8818 213.699 47.3539C213.855 46.9039 213.952 46.4352 213.986 45.9599C214.049 45.2776 213.972 44.5894 213.759 43.9381C213.581 43.3625 213.226 42.8579 212.744 42.4967C212.211 42.1033 211.57 41.8833 210.908 41.8668C210.013 41.7924 209.121 42.0336 208.385 42.5484C207.649 43.0632 207.117 43.8191 206.88 44.6853L204.993 44.5491L205.202 41.657C206.334 41.2079 207.509 40.876 208.709 40.6665C209.662 40.4902 210.632 40.4298 211.598 40.4864C213.119 40.4841 214.591 41.0259 215.748 42.014C216.208 42.4988 216.553 43.0811 216.757 43.7175C216.962 44.354 217.02 45.0283 216.928 45.6904C216.894 46.1852 216.801 46.6743 216.652 47.1474C216.518 47.6049 216.319 48.0407 216.061 48.4417C215.764 48.9185 215.425 49.3675 215.047 49.7832C214.64 50.2513 214.17 50.7304 213.667 51.2382C213.164 51.746 212.315 52.5242 211.084 53.6479C209.386 55.1472 207.849 56.818 206.495 58.6335L212.228 59.1095Z" fill="white"/>
<path d="M225.979 51.8944C226.794 50.7626 227.801 49.7828 228.955 49C229.789 48.4301 230.787 48.1473 231.796 48.1945C232.204 48.1934 232.608 48.2803 232.979 48.4493C233.35 48.6183 233.681 48.8655 233.948 49.1739C234.438 49.8792 234.642 50.7438 234.52 51.5937L234.483 52.104C235.246 51.0907 236.188 50.226 237.263 49.5531C238.082 49.0396 239.039 48.7936 240.004 48.8492C240.397 48.8512 240.785 48.9362 241.143 49.0987C241.501 49.2611 241.821 49.4974 242.081 49.792C242.328 50.1191 242.508 50.4918 242.61 50.8888C242.712 51.2857 242.734 51.699 242.676 52.1047C242.571 53.0126 242.36 53.9052 242.048 54.7644L240.773 58.6522C240.508 59.3951 240.317 60.1624 240.203 60.943C240.153 61.2438 240.202 61.5527 240.342 61.8236C240.406 61.924 240.494 62.0064 240.599 62.0629C240.704 62.1195 240.821 62.1483 240.94 62.1466C241.293 62.1521 241.637 62.0464 241.926 61.8447C242.483 61.4585 243.003 61.0225 243.481 60.5422L244.272 61.4387C243.543 62.1478 242.736 62.7727 241.868 63.3017C241.187 63.6891 240.405 63.8603 239.625 63.7928C239.331 63.7785 239.044 63.6986 238.785 63.5588C238.526 63.419 238.301 63.223 238.128 62.9852C237.764 62.4462 237.602 61.7958 237.67 61.1488C237.796 60.1782 238.031 59.2251 238.373 58.3079L239.226 55.7422C239.542 54.8167 239.747 54.1319 239.856 53.689C239.948 53.3312 240.011 52.9666 240.044 52.5987C240.134 52.064 240.054 51.5145 239.815 51.0276C239.687 50.8595 239.521 50.7239 239.33 50.6318C239.14 50.5397 238.93 50.4938 238.719 50.4976C238.228 50.4815 237.744 50.6087 237.324 50.8634C236.701 51.2531 236.141 51.7372 235.666 52.2983C235.118 52.8761 234.63 53.5075 234.209 54.183C233.782 54.9056 233.454 55.6818 233.234 56.4912L231.382 62.9801L228.783 62.7926L231.074 55.1848C231.342 54.2714 231.541 53.6639 231.656 53.1437C231.745 52.7642 231.809 52.3794 231.848 51.9916C231.938 51.4508 231.841 50.8956 231.573 50.4171C231.428 50.2488 231.247 50.1138 231.045 50.0214C230.842 49.929 230.622 49.8813 230.399 49.8816C229.93 49.8803 229.469 50.0083 229.067 50.2517C228.447 50.6466 227.888 51.1301 227.409 51.6867C226.859 52.2709 226.374 52.9136 225.964 53.6034C225.563 54.3295 225.246 55.0996 225.021 55.8984L223.112 62.321L220.498 62.1324L223.4 52.7343C223.638 52.0186 223.8 51.2801 223.885 50.5307C223.93 50.225 223.882 49.9129 223.748 49.6346C223.681 49.5379 223.591 49.4592 223.487 49.4055C223.382 49.3519 223.266 49.3249 223.148 49.327C222.787 49.3126 222.433 49.4244 222.146 49.6433C221.588 50.016 221.072 50.4479 220.607 50.9315L219.818 50.0194C220.56 49.3132 221.377 48.6894 222.253 48.1587C222.905 47.7865 223.654 47.6186 224.402 47.6764C224.692 47.6751 224.978 47.7402 225.238 47.8668C225.499 47.9934 225.726 48.1781 225.904 48.4066C226.246 48.8954 226.397 49.4927 226.327 50.0851C226.277 50.688 226.119 51.277 225.86 51.8236L225.979 51.8944ZM257.219 53.9318C257.269 53.3752 257.247 52.8145 257.153 52.2636C257.088 51.9534 256.929 51.6707 256.699 51.4534C256.411 51.2468 256.066 51.135 255.711 51.1335C255.197 51.1002 254.681 51.1725 254.195 51.346C253.709 51.5194 253.264 51.7904 252.887 52.1422C251.908 53.0653 251.147 54.1945 250.658 55.4481C250.066 56.7823 249.7 58.2061 249.577 59.6608C249.457 60.4654 249.612 61.2868 250.015 61.9932C250.22 62.2645 250.486 62.4845 250.79 62.6359C251.095 62.7874 251.431 62.8662 251.771 62.8662C252.594 62.9493 253.425 62.8277 254.19 62.5123C255 62.1628 255.752 61.693 256.421 61.1187L257.267 62.097C256.403 62.9742 255.382 63.681 254.257 64.1805C253.261 64.5903 252.184 64.7627 251.111 64.6841C250.494 64.6835 249.885 64.545 249.329 64.2789C248.773 64.0128 248.283 63.6258 247.895 63.1461C247.142 62.0107 246.832 60.6387 247.023 59.2899C247.132 58.0873 247.421 56.908 247.882 55.7918C248.343 54.587 249.03 53.4811 249.905 52.5332C250.693 51.654 251.673 50.9693 252.77 50.5325C253.847 50.1298 255 49.9688 256.146 50.0611C257.389 50.1339 258.616 50.3741 259.795 50.7753L258.822 54.1252L257.219 53.9318Z" fill="white"/>
<path d="M269.713 52.517C269.984 52.5548 270.258 52.5745 270.533 52.5761C270.714 52.5706 270.893 52.525 271.055 52.4428C271.207 52.3483 271.333 52.2189 271.424 52.0653C271.531 51.8864 271.657 51.6468 271.803 51.3464L272.901 51.4256C272.863 51.9515 272.826 52.4618 272.681 52.9644L272.477 54.5042L263.197 53.8344L263.239 53.2622C263.438 52.8725 263.667 52.4992 263.925 52.1458C264.185 51.7759 264.476 51.4083 264.799 51.0274C265.122 50.6465 265.491 50.2689 265.892 49.8781C266.294 49.4874 266.743 49.0845 267.225 48.6529C267.954 48.0215 268.553 47.474 269.021 47.0259C269.418 46.6414 269.79 46.2321 270.136 45.8004C270.376 45.4903 270.573 45.1489 270.722 44.7856C270.841 44.4553 270.913 44.1099 270.936 43.7595C270.966 43.4083 270.939 43.0545 270.856 42.7121C270.779 42.4128 270.64 42.1328 270.449 41.8899C270.266 41.6413 270.024 41.4422 269.744 41.3105C269.419 41.1567 269.066 41.0679 268.706 41.0489C268.093 40.9814 267.475 41.1353 266.965 41.4829C266.445 41.8592 266.033 42.3656 265.771 42.9513L264.332 42.8475L264.486 40.7133C265.349 40.4227 266.233 40.2006 267.131 40.0491C267.837 39.9382 268.554 39.9013 269.268 39.9391C269.928 39.9754 270.579 40.1115 271.198 40.3427C271.669 40.5167 272.1 40.7859 272.462 41.1335C272.767 41.4424 272.99 41.8216 273.113 42.2376C273.228 42.6764 273.269 43.1312 273.234 43.5833C273.239 43.8474 273.22 44.1115 273.177 44.3721C273.121 44.6187 273.036 44.8579 272.923 45.0845C272.801 45.3264 272.654 45.5554 272.485 45.7679C272.297 46.0031 272.078 46.2361 271.826 46.4977C271.574 46.7593 271.373 46.9624 271.057 47.2505L270.027 48.1711L268.849 49.1899L267.67 50.2397C267.287 50.5852 266.921 50.9163 266.602 51.2508C266.282 51.5853 266.012 51.8767 265.79 52.156L269.713 52.517Z" fill="white"/>
<path d="M283.328 57.6986C283.642 54.7935 283.274 51.8551 282.253 49.1173C281.82 48.0048 281.161 46.9943 280.317 46.1494C279.474 45.3045 278.464 44.6437 277.353 44.2086L277.84 43.0622C279.217 43.5129 280.492 44.2322 281.59 45.1787C282.687 46.1252 283.587 47.2801 284.235 48.5764C285.571 51.5376 286.148 54.7851 285.915 58.0253C285.681 61.2655 284.643 64.3964 282.896 67.1351C282.068 68.3245 281.01 69.336 279.784 70.11C278.559 70.884 277.191 71.4047 275.761 71.6415L275.489 70.4559C276.653 70.1629 277.743 69.6328 278.692 68.8988C279.641 68.1647 280.429 67.2426 281.005 66.1902C282.411 63.5714 283.205 60.6683 283.328 57.6986Z" fill="white"/>
</g>
</svg>
