<svg width="404" height="97" viewBox="0 0 404 97" fill="none" xmlns="http://www.w3.org/2000/svg">
<g opacity="0.1">
<path d="M11.3933 66.2857H2.3184L2.56128 65.2251C2.99806 65.181 3.42391 65.0614 3.81985 64.8716C4.12202 64.7263 4.37523 64.496 4.54846 64.2088C4.81576 63.7667 5.02363 63.2912 5.1667 62.7947C5.3875 62.1318 5.6304 61.1596 5.91744 59.856L10.5321 38.7551H7.79421C7.03718 38.7118 6.28064 38.848 5.58622 39.1528C4.95251 39.5021 4.40834 39.9937 3.99646 40.5889C3.23958 41.7039 2.58907 42.8875 2.05345 44.1242H0L1.61186 36.877H24.1996L22.5215 44.4556H20.446C20.5036 43.4106 20.5036 42.3631 20.446 41.3181C20.4211 40.7665 20.2859 40.2256 20.0486 39.7272C19.8889 39.4001 19.6247 39.1358 19.2979 38.976C18.7944 38.8018 18.2621 38.7268 17.7302 38.7551H14.5507L9.89183 60.0107C9.75935 60.5631 9.67102 61.0049 9.60478 61.3364C9.53854 61.6678 9.60479 62.0213 9.47231 62.397C9.33983 62.7726 9.47231 63.0819 9.47231 63.3692C9.44937 63.729 9.52573 64.0883 9.69309 64.4076C9.82674 64.668 10.0564 64.8661 10.3334 64.96C10.8139 65.1083 11.3107 65.1973 11.8128 65.2251L11.3933 66.2857Z" fill="black"/>
<path d="M41.4062 50.5982V47.7258H67.9022V50.5982H41.4062ZM41.4062 59.4363V56.586H67.9022V59.4363H41.4062Z" fill="black"/>
<path d="M105.47 29.2984C106.04 29.3092 106.609 29.2648 107.171 29.1658C107.543 29.1021 107.897 28.9589 108.208 28.746C108.46 28.5248 108.663 28.254 108.804 27.9506C109.026 27.462 109.218 26.9603 109.379 26.4481H111.211L110.836 32.7453H93.1719V31.7068C93.8573 30.0858 94.6927 28.5323 95.6669 27.0668C97.0072 25.1099 98.4828 23.2493 100.083 21.4987C101.739 19.6648 102.953 18.2729 103.682 17.3228C104.35 16.4739 104.948 15.5724 105.47 14.6271C105.842 13.9267 106.131 13.1852 106.331 12.4176C106.489 11.7589 106.571 11.0843 106.574 10.4069C106.6 9.42506 106.427 8.4482 106.067 7.53458C105.736 6.74619 105.184 6.07075 104.477 5.59018C103.675 5.09581 102.746 4.84979 101.805 4.88312C100.526 4.86493 99.2803 5.29762 98.2873 6.10548C97.2943 6.91334 96.6168 8.04491 96.3734 9.30217H93.768V5.17037C95.332 4.41522 96.9664 3.81577 98.6477 3.38066C99.9842 3.0434 101.354 2.8581 102.732 2.82828C104.895 2.67529 107.041 3.30232 108.782 4.59587C109.48 5.23638 110.025 6.02567 110.376 6.90533C110.728 7.78499 110.877 8.73255 110.814 9.67782C110.824 10.3838 110.75 11.0885 110.593 11.7768C110.44 12.4379 110.202 13.0765 109.886 13.6771C109.516 14.3865 109.08 15.0597 108.584 15.6877C108.032 16.4169 107.436 17.146 106.773 17.8973C106.111 18.6485 104.985 19.8858 103.351 21.6093C101.084 23.9052 99.0702 26.4386 97.3449 29.1658L105.47 29.2984Z" fill="black"/>
<path d="M127.846 32.7453H118.772L119.014 31.6847C119.448 31.6351 119.872 31.5235 120.273 31.3533C120.571 31.1916 120.822 30.9557 121.002 30.6683C121.273 30.2284 121.481 29.7523 121.62 29.2542C121.92 28.288 122.17 27.3072 122.371 26.3155L126.985 5.23665H124.247C123.493 5.1988 122.739 5.32705 122.039 5.6123C121.405 5.97055 120.861 6.46934 120.45 7.07053C119.688 8.18246 119.037 9.36657 118.507 10.6058H116.453L118.065 3.33643H140.542L138.864 10.9152H136.789C136.81 9.86807 136.773 8.82061 136.678 7.77759C136.646 7.22714 136.511 6.68756 136.281 6.18673C136.115 5.86435 135.852 5.60177 135.53 5.4355C135.025 5.27148 134.493 5.20403 133.963 5.23665H130.849L126.212 26.4702C126.08 27.0446 125.992 27.4866 125.925 27.818C125.859 28.1494 125.925 28.4809 125.815 28.8565C125.795 29.1803 125.795 29.5049 125.815 29.8287C125.8 30.1951 125.875 30.5595 126.036 30.8892C126.179 31.1371 126.406 31.3254 126.676 31.4195C127.152 31.5875 127.651 31.677 128.156 31.6847L127.846 32.7453Z" fill="black"/>
<path d="M152.973 0V1.21524L147.762 13.7654L145.93 13.213L148.933 0H152.973Z" fill="black"/>
<path d="M92.8174 80.714C93.8653 79.0269 95.1947 77.5322 96.7476 76.2949C97.8802 75.3948 99.276 74.8905 100.722 74.8587C101.297 74.8228 101.874 74.9084 102.414 75.1102C102.955 75.312 103.446 75.6253 103.857 76.0298C104.638 76.9845 105.025 78.2016 104.939 79.4324V79.7197C104.939 79.8301 104.939 79.9406 104.939 80.0511C105.937 78.5473 107.184 77.2247 108.627 76.1402C109.736 75.3266 111.071 74.8787 112.446 74.8587C113.01 74.8224 113.575 74.9059 114.104 75.1039C114.633 75.302 115.114 75.61 115.516 76.0077C116.278 76.8933 116.66 78.0453 116.575 79.2115C116.519 80.5127 116.312 81.8029 115.957 83.0561L114.566 88.7125C114.251 89.793 114.051 90.904 113.97 92.0267C113.938 92.4658 114.038 92.9044 114.257 93.2862C114.363 93.4153 114.499 93.5169 114.653 93.5823C114.806 93.6477 114.974 93.6749 115.14 93.6618C115.641 93.6335 116.12 93.4479 116.509 93.1315C117.266 92.5314 117.961 91.8579 118.585 91.1208L119.821 92.3361C118.846 93.4079 117.758 94.3709 116.575 95.2085C115.65 95.8314 114.555 96.1553 113.44 96.1364C113.021 96.1495 112.604 96.0669 112.221 95.8946C111.839 95.7223 111.5 95.465 111.232 95.1422C110.647 94.4202 110.348 93.5077 110.393 92.5791C110.461 91.1856 110.698 89.8055 111.1 88.4694L112.049 84.7574C112.38 83.3875 112.601 82.3932 112.711 81.7525C112.812 81.2351 112.871 80.7105 112.888 80.1837C112.961 79.4117 112.783 78.6368 112.38 77.9742C112.185 77.7415 111.937 77.5596 111.656 77.4442C111.375 77.3287 111.071 77.2831 110.768 77.3113C110.068 77.344 109.392 77.5822 108.825 77.9962C107.981 78.5722 107.235 79.281 106.617 80.0953C105.904 80.9764 105.275 81.9234 104.741 82.9235C104.216 84.0047 103.83 85.148 103.592 86.3262L101.649 95.7387H97.9179L100.391 84.6911C100.7 83.3654 100.899 82.4816 101.009 81.7303C101.107 81.1908 101.159 80.6438 101.164 80.0953C101.239 79.3172 101.044 78.537 100.612 77.8858C100.398 77.6517 100.134 77.47 99.8392 77.355C99.5442 77.24 99.2268 77.1948 98.9115 77.2229C98.2328 77.2645 97.5808 77.5025 97.0347 77.9078C96.1879 78.5244 95.4428 79.27 94.8267 80.1174C94.1196 81.0098 93.5054 81.9723 92.994 82.9898C92.4898 84.0695 92.1119 85.2039 91.868 86.3704L89.8145 95.6946H86.1051L89.2405 82.0397C89.5033 80.9903 89.6587 79.9168 89.7041 78.8359C89.7383 78.4064 89.6462 77.9763 89.4392 77.5985C89.3367 77.4639 89.2022 77.357 89.048 77.2876C88.8937 77.2181 88.7247 77.1883 88.556 77.2008C88.0367 77.2229 87.5395 77.4172 87.1429 77.7532C86.4082 78.3546 85.7285 79.0201 85.1115 79.7418L83.875 78.5486C84.8627 77.4681 85.9576 76.4909 87.1429 75.632C88.0307 75.0363 89.0768 74.7208 90.1458 74.7262C90.5568 74.6946 90.9696 74.7578 91.3524 74.911C91.7353 75.0642 92.0778 75.3034 92.3538 75.61C92.901 76.2643 93.1845 77.0995 93.1486 77.9521C93.1316 78.8154 92.9595 79.6685 92.6407 80.4709L92.8174 80.714ZM137.242 80.4267C137.241 79.6227 137.145 78.8217 136.955 78.0405C136.853 77.6024 136.594 77.217 136.227 76.9578C135.8 76.6845 135.297 76.553 134.791 76.5822C134.056 76.5918 133.329 76.7516 132.657 77.0517C131.985 77.3518 131.382 77.786 130.883 78.3277C129.583 79.7282 128.617 81.4052 128.057 83.2328C127.354 85.1903 126.981 87.2512 126.953 89.3311C126.862 90.4872 127.166 91.6401 127.814 92.6012C128.134 92.9657 128.533 93.2512 128.981 93.4352C129.429 93.6192 129.914 93.6967 130.397 93.6618C131.573 93.6943 132.739 93.4443 133.798 92.9327C134.914 92.3025 135.933 91.5136 136.823 90.5906L138.148 91.8942C136.992 93.2253 135.609 94.34 134.063 95.1864C132.691 95.8664 131.178 96.2146 129.647 96.2028C128.771 96.262 127.893 96.1262 127.076 95.8053C126.259 95.4844 125.523 94.9862 124.922 94.3467C123.744 92.8158 123.17 90.9047 123.31 88.9776C123.339 87.2571 123.629 85.551 124.171 83.9178C124.699 82.1541 125.553 80.5053 126.688 79.0568C127.712 77.727 129.036 76.6593 130.552 75.9414C132.039 75.2516 133.66 74.8971 135.299 74.9029C137.078 74.8915 138.852 75.1068 140.576 75.5437L139.45 80.4267H137.242Z" fill="black"/>
<path d="M154.908 80.051C155.298 80.079 155.689 80.079 156.078 80.051C156.336 80.0245 156.585 79.9415 156.807 79.808C157.018 79.6639 157.186 79.4654 157.293 79.2335C157.425 78.9904 157.58 78.637 157.778 78.173H159.324L159.192 80.3825C159.192 81.1337 159.081 81.885 159.037 82.592H145.789V81.7744C146.041 81.2045 146.329 80.651 146.65 80.1173C147.003 79.5649 147.379 79.0126 147.776 78.4381C148.174 77.8636 148.682 77.2891 149.211 76.6926C149.741 76.096 150.338 75.4773 150.978 74.8366C151.949 73.8423 152.766 73.0026 153.362 72.3177C153.887 71.7306 154.374 71.1107 154.82 70.4617C155.134 69.9987 155.379 69.4926 155.548 68.9592C155.684 68.4775 155.751 67.9792 155.747 67.4789C155.756 66.9838 155.681 66.4909 155.526 66.0206C155.391 65.5942 155.165 65.2021 154.864 64.8716C154.575 64.5458 154.211 64.2955 153.804 64.1425C153.326 63.9574 152.816 63.8674 152.303 63.8773C151.427 63.838 150.566 64.1121 149.874 64.6506C149.174 65.2387 148.641 66.0007 148.328 66.8601H146.275V63.8552C147.471 63.3569 148.704 62.9507 149.962 62.64C150.955 62.4098 151.969 62.2839 152.987 62.2643C153.928 62.2465 154.867 62.3732 155.769 62.64C156.456 62.839 157.095 63.1774 157.646 63.6342C158.112 64.0401 158.469 64.5568 158.684 65.1367C158.908 65.7449 159.02 66.3887 159.015 67.0369C159.039 67.4122 159.039 67.7886 159.015 68.1638C158.955 68.5213 158.851 68.8701 158.706 69.2023C158.556 69.5588 158.372 69.8993 158.154 70.2187C157.898 70.6102 157.61 70.9797 157.293 71.3234C156.976 71.7252 156.637 72.1088 156.277 72.4723L154.908 73.8865L153.34 75.4552L151.773 77.0682C151.265 77.5985 150.779 78.1287 150.36 78.6148C149.985 79.057 149.639 79.5219 149.322 80.0068L154.908 80.051Z" fill="black"/>
<path d="M163.855 52.2332H83.3516V55.1497H163.855V52.2332Z" fill="black"/>
<path d="M178.869 53.5369C178.729 57.8538 179.598 62.1438 181.408 66.0649C182.114 67.6191 183.133 69.0104 184.402 70.1511C185.672 71.2919 187.163 72.1575 188.783 72.6935L188.275 74.3506C186.272 73.8571 184.387 72.9725 182.728 71.7478C181.068 70.523 179.667 68.9822 178.604 67.2138C176.403 63.1422 175.25 58.5859 175.25 53.9567C175.25 49.3274 176.403 44.7711 178.604 40.6995C179.661 38.926 181.057 37.3788 182.713 36.1465C184.369 34.9142 186.251 34.0211 188.253 33.5186L188.827 35.1978C187.208 35.706 185.711 36.5434 184.431 37.6574C183.15 38.7715 182.114 40.1381 181.386 41.6717C179.642 45.379 178.78 49.4403 178.869 53.5369Z" fill="black"/>
<path d="M202.495 66.2857H193.42L193.663 65.2473C194.097 65.1926 194.522 65.0734 194.921 64.8937C195.214 64.7345 195.464 64.5071 195.65 64.2309C195.921 63.7827 196.129 63.2994 196.268 62.7947C196.569 61.8361 196.819 60.8626 197.019 59.8781L201.634 38.7771H198.896C198.139 38.7338 197.382 38.8701 196.688 39.1748C196.048 39.5157 195.502 40.009 195.098 40.6111C194.341 41.726 193.691 42.9095 193.155 44.1462H191.102L192.713 36.877H215.191L213.513 44.4777H211.437C211.437 43.0857 211.437 42.0251 211.327 41.3402C211.302 40.7886 211.167 40.2477 210.929 39.7493C210.763 39.4213 210.501 39.1515 210.179 38.976C209.673 38.8119 209.141 38.7445 208.611 38.7771H205.431L200.75 60.0327L200.486 61.3585L200.353 62.397C200.353 62.7726 200.353 63.104 200.353 63.3913C200.33 63.7511 200.406 64.1104 200.574 64.4298C200.714 64.6847 200.941 64.8807 201.214 64.9821C201.695 65.1304 202.191 65.2194 202.694 65.2473L202.495 66.2857Z" fill="black"/>
<path d="M227.646 33.5186V34.7559L222.436 47.2839L220.625 46.7315L223.628 33.5186H227.646Z" fill="black"/>
<path d="M259.309 55.0171V67.4346H256.262V55.0171H244.516V52.1668H256.262V39.7493H259.309V52.1668H271.056V55.0171H259.309Z" fill="black"/>
<path d="M299.167 62.8391C299.736 62.8444 300.304 62.8075 300.867 62.7286C301.241 62.6582 301.595 62.5074 301.905 62.2867C302.162 62.08 302.367 61.8149 302.501 61.5134C302.719 61.0232 302.911 60.5217 303.075 60.0109H304.908L304.555 66.2859H286.891V65.2696C287.571 63.6462 288.407 62.0924 289.386 60.6296C290.732 58.6703 292.207 56.8028 293.802 55.0395C295.458 53.2056 296.672 51.8135 297.401 50.8634C298.068 50.0217 298.666 49.1277 299.189 48.1899C299.564 47.4907 299.853 46.7488 300.05 45.9804C300.226 45.3247 300.316 44.6487 300.315 43.9697C300.335 42.9933 300.155 42.0232 299.785 41.1194C299.474 40.3196 298.917 39.6389 298.196 39.175C297.399 38.6704 296.466 38.4236 295.524 38.468C294.245 38.4542 293.002 38.8884 292.01 39.6956C291.018 40.5027 290.34 41.6318 290.092 42.8871H287.398V38.7553C288.96 38.0008 290.596 37.4085 292.278 36.9876C293.613 36.6394 294.984 36.454 296.363 36.4352C298.523 36.2759 300.669 36.8951 302.413 38.1808C303.116 38.8226 303.666 39.6147 304.022 40.4983C304.377 41.3819 304.529 42.3343 304.466 43.2848C304.468 43.9916 304.387 44.6962 304.223 45.3838C304.08 46.0478 303.842 46.6877 303.517 47.284C303.144 47.9922 302.708 48.6652 302.214 49.2947C301.684 50.0017 301.066 50.7309 300.404 51.5042C299.741 52.2775 298.615 53.4706 296.981 55.1941C294.724 57.4992 292.712 60.0315 290.975 62.7507L299.167 62.8391Z" fill="black"/>
<path d="M317.95 51.1725C318.991 49.4803 320.322 47.9845 321.88 46.7535C323.007 45.8579 324.394 45.3537 325.833 45.3172C326.412 45.2737 326.994 45.3559 327.539 45.558C328.084 45.76 328.579 46.0774 328.99 46.4883C329.758 47.4406 330.136 48.6485 330.05 49.8689V50.598C331.029 49.0795 332.279 47.7539 333.737 46.6872C334.847 45.8735 336.182 45.4256 337.557 45.4056C338.116 45.3681 338.676 45.4491 339.201 45.6433C339.726 45.8375 340.204 46.1405 340.604 46.5325C340.989 46.972 341.282 47.4834 341.468 48.0371C341.654 48.5908 341.728 49.1758 341.686 49.7584C341.63 51.0596 341.422 52.3498 341.068 53.603L339.655 59.2594C339.354 60.3425 339.162 61.4527 339.081 62.5737C339.04 63.0063 339.141 63.4405 339.368 63.811C339.469 63.9472 339.603 64.0552 339.758 64.1248C339.912 64.1945 340.082 64.2233 340.251 64.2087C340.752 64.1804 341.231 63.9949 341.62 63.6785C342.371 63.0725 343.066 62.3995 343.695 61.6678L344.91 62.8609C343.947 63.9434 342.866 64.9143 341.686 65.7554C340.759 66.3757 339.666 66.6994 338.551 66.6834C338.132 66.6933 337.716 66.6091 337.334 66.437C336.952 66.2649 336.613 66.0093 336.343 65.6891C335.77 64.9604 335.473 64.0527 335.504 63.1261C335.583 61.7338 335.82 60.3549 336.21 59.0163L337.16 55.2822C337.513 53.9344 337.734 52.9401 337.844 52.2993C337.938 51.7815 337.99 51.2568 337.999 50.7306C338.072 49.9614 337.902 49.1885 337.513 48.5211C337.313 48.2953 337.063 48.1196 336.783 48.0083C336.503 47.897 336.201 47.8531 335.901 47.8803C335.203 47.9078 334.528 48.1382 333.958 48.5432C333.112 49.1611 332.368 49.9065 331.75 50.7527C331.031 51.6302 330.403 52.5777 329.873 53.5809C329.342 54.6516 328.956 55.7885 328.725 56.9615L326.76 66.3741H323.051L325.524 55.3265C325.811 54.0007 326.031 53.1169 326.142 52.3656C326.229 51.8172 326.281 51.2636 326.296 50.7085C326.368 49.9307 326.173 49.1516 325.744 48.499C325.52 48.2747 325.25 48.1014 324.953 47.9908C324.656 47.8802 324.338 47.835 324.022 47.8582C323.355 47.9046 322.713 48.1339 322.167 48.5211C321.328 49.1459 320.584 49.8903 319.959 50.7306C319.238 51.6174 318.616 52.5805 318.105 53.603C317.609 54.6761 317.238 55.8031 317.001 56.9615L314.947 66.2857H311.216L314.373 52.6308C314.638 51.5893 314.793 50.5229 314.837 49.4491C314.869 49.0101 314.769 48.5715 314.55 48.1897C314.445 48.0591 314.309 47.9564 314.155 47.8909C314.001 47.8253 313.833 47.7989 313.667 47.814C313.153 47.8305 312.661 48.0258 312.276 48.3664C311.521 48.9532 310.833 49.62 310.222 50.355L309.008 49.1397C309.99 48.0599 311.085 47.0895 312.276 46.2453C313.163 45.6495 314.21 45.3339 315.279 45.3393C315.69 45.3078 316.102 45.371 316.485 45.5242C316.868 45.6775 317.211 45.9166 317.486 46.2231C318.022 46.8827 318.297 47.7162 318.259 48.5652C318.25 49.4273 318.086 50.2806 317.774 51.0841L317.95 51.1725ZM362.53 50.8632C362.543 50.067 362.454 49.2723 362.265 48.499C362.14 48.0648 361.886 47.6793 361.536 47.3942C361.106 47.13 360.604 47.0065 360.101 47.0407C359.366 47.0463 358.641 47.2019 357.969 47.4983C357.297 47.7947 356.692 48.2255 356.193 48.7642C354.897 50.1765 353.932 51.8595 353.366 53.6914C352.661 55.6484 352.288 57.7096 352.262 59.7897C352.175 60.9455 352.478 62.0972 353.123 63.0598C353.443 63.4243 353.842 63.7097 354.291 63.8937C354.739 64.0777 355.224 64.1553 355.707 64.1203C356.885 64.154 358.053 63.8959 359.107 63.3691C360.221 62.7894 361.241 62.0445 362.132 61.1596L363.435 62.4632C362.298 63.7986 360.919 64.9079 359.372 65.7333C358.001 66.4179 356.489 66.7734 354.956 66.7718C354.08 66.8341 353.201 66.6999 352.384 66.3787C351.566 66.0576 350.831 65.5578 350.231 64.9158C349.045 63.3793 348.464 61.4611 348.597 59.5245C348.628 57.8042 348.918 56.0984 349.458 54.4647C349.99 52.705 350.852 51.0628 351.997 49.6258C353.026 48.2955 354.349 47.2216 355.861 46.4883C357.35 45.8055 358.971 45.4584 360.609 45.4719C362.381 45.4479 364.149 45.6634 365.864 46.1127L364.826 50.9737L362.53 50.8632Z" fill="black"/>
<path d="M380.127 47.5713C380.516 47.5972 380.907 47.5972 381.297 47.5713C381.555 47.5447 381.804 47.4617 382.026 47.3282C382.231 47.1783 382.398 46.9814 382.511 46.7538C382.644 46.4886 382.799 46.1351 382.975 45.6932H384.543C384.543 46.4444 384.543 47.1735 384.388 47.9027L384.256 50.1122H371.008V49.2947C371.251 48.7204 371.539 48.1663 371.869 47.6376C372.2 47.0852 372.575 46.5328 372.995 45.9583C373.415 45.3838 373.9 44.8093 374.43 44.2127C374.96 43.6162 375.556 42.9976 376.197 42.3347C377.168 41.3625 377.963 40.5229 378.581 39.8379C379.106 39.2508 379.593 38.6309 380.038 37.9819C380.348 37.5165 380.594 37.011 380.767 36.4794C380.903 35.9977 380.969 35.4994 380.966 34.9991C380.973 34.4969 380.899 33.9968 380.745 33.5186C380.605 33.1012 380.379 32.7175 380.083 32.3918C379.797 32.0573 379.433 31.7992 379.023 31.6406C378.544 31.4555 378.034 31.3654 377.521 31.3754C376.643 31.3424 375.782 31.6245 375.093 32.1709C374.393 32.759 373.86 33.521 373.547 34.3804H371.494V31.3312C372.689 30.8297 373.922 30.4234 375.181 30.116C376.173 29.8858 377.187 29.7599 378.206 29.7404C379.147 29.7243 380.085 29.8509 380.988 30.116C381.675 30.315 382.314 30.6534 382.865 31.1103C383.329 31.518 383.685 32.0341 383.902 32.6127C384.11 33.2245 384.215 33.8668 384.212 34.513C384.246 34.8878 384.246 35.265 384.212 35.6398C384.157 35.9962 384.061 36.3448 383.925 36.6783C383.775 37.0348 383.59 37.3753 383.373 37.6947C383.13 38.0482 382.843 38.4017 382.511 38.7994C382.18 39.1972 381.915 39.5065 381.496 39.9484L380.127 41.3625L378.559 42.9313L376.991 44.5442C376.484 45.0745 375.998 45.5827 375.578 46.0909C375.159 46.5991 374.806 47.0409 374.519 47.4608L380.127 47.5713Z" fill="black"/>
<path d="M400.003 53.5368C400.151 49.3756 399.327 45.2371 397.596 41.4507C396.867 39.9141 395.827 38.5454 394.542 37.4312C393.258 36.3169 391.756 35.4812 390.133 34.9768L390.707 33.2976C392.71 33.7968 394.594 34.6884 396.25 35.921C397.906 37.1536 399.302 38.7027 400.356 40.4786C402.557 44.5502 403.71 49.1065 403.71 53.7357C403.71 58.365 402.557 62.9213 400.356 66.9929C399.302 68.7683 397.903 70.3145 396.242 71.5403C394.581 72.766 392.691 73.6464 390.685 74.1296L390.177 72.4725C391.799 71.9367 393.294 71.0714 394.567 69.9308C395.84 68.7902 396.863 67.3988 397.574 65.8439C399.302 61.9777 400.132 57.7701 400.003 53.5368Z" fill="black"/>
</g>
</svg>
